<svg width="182" height="182" viewBox="0 0 182 182" fill="none" xmlns="http://www.w3.org/2000/svg">
<g clip-path="url(#clip0_280_262)">
<path d="M0 0H182V182H0V0Z" fill="white"/>
<path d="M84.3885 35.6319C86.1811 35.5325 88.0635 35.61 89.86 35.6701C89.5385 37.1133 89.3435 38.5362 89.2062 40.0063C88.2921 40.0275 87.378 40.0403 86.4639 40.0448C85.3838 40.9138 84.3912 42.0118 83.3839 42.9716C81.1174 45.1046 78.8809 47.2688 76.6745 49.4642C76.6329 50.4455 76.6365 51.4294 76.6285 52.4114L76.6123 53.3728C75.1062 53.1579 73.5968 52.9681 72.0843 52.8033C72.0694 51.4301 71.9832 50.0091 72.0781 48.641C72.1124 48.147 72.1826 47.635 72.4682 47.2196C73.4568 45.7828 75.0793 44.5044 76.3375 43.2809C78.9784 40.7122 81.5997 38.035 84.3885 35.6319Z" fill="black"/>
<path d="M23.2963 28.4775C26.7525 28.533 29.8989 29.4467 32.5599 31.7292C35.3173 34.0945 37.0941 37.3244 37.3513 40.9674C37.3675 41.1869 37.3782 41.4066 37.3835 41.6265C37.3888 41.8464 37.3886 42.0663 37.3829 42.2862C37.3772 42.5061 37.3662 42.7258 37.3497 42.9451C37.3331 43.1644 37.3111 43.3832 37.2836 43.6015C37.2562 43.8198 37.2234 44.0373 37.1851 44.2539C37.1468 44.4705 37.1032 44.6861 37.0543 44.9005C37.0054 45.115 36.9511 45.3281 36.8915 45.54C36.832 45.7517 36.7673 45.9619 36.6972 46.1704C36.6272 46.379 36.5521 46.5857 36.4719 46.7905C36.3915 46.9953 36.3062 47.198 36.2159 47.3986C36.1255 47.5992 36.0303 47.7974 35.9301 47.9933C35.8299 48.1891 35.7248 48.3824 35.615 48.573C35.5053 48.7636 35.3908 48.9513 35.2716 49.1363C35.1525 49.3212 35.0289 49.5031 34.9007 49.6819C34.7726 49.8607 34.6401 50.0362 34.5031 50.2084C34.3662 50.3806 34.2252 50.5494 34.0799 50.7146C31.5045 53.6338 27.9234 55.0808 24.0929 55.3383C20.3341 55.3173 16.8811 53.9244 14.0902 51.401C11.5906 49.1407 10.1158 45.7778 9.96288 42.425C9.80353 38.9317 10.9028 35.6434 13.2678 33.0545C15.9089 30.1633 19.4128 28.6583 23.2963 28.4775Z" fill="black"/>
<path d="M23.1405 35.9242C24.5226 35.7669 26.0623 36.1931 27.1992 36.9816C27.2821 37.0398 27.3633 37.1002 27.4431 37.1625C27.5229 37.2249 27.6012 37.2892 27.6779 37.3553C27.7544 37.4216 27.8294 37.4897 27.9027 37.5597C27.9759 37.6296 28.0474 37.7013 28.1171 37.7748C28.1868 37.8482 28.2547 37.9234 28.3206 38.0001C28.3866 38.0769 28.4507 38.1553 28.5129 38.2353C28.575 38.3154 28.635 38.3969 28.6931 38.4798C28.7512 38.5628 28.8071 38.6472 28.861 38.7329C28.915 38.8186 28.9667 38.9056 29.0164 38.9939C29.0659 39.0821 29.1133 39.1716 29.1586 39.2622C29.2037 39.3529 29.2466 39.4446 29.2873 39.5374C29.3279 39.6301 29.3662 39.7239 29.4022 39.8185C29.4383 39.9132 29.4719 40.0087 29.5032 40.105C29.5345 40.2014 29.5633 40.2984 29.5898 40.3962C29.6162 40.4939 29.6402 40.5923 29.6619 40.6912C29.6835 40.7902 29.7026 40.8896 29.7193 40.9895C29.982 42.564 29.6127 44.0792 28.6773 45.3699C27.6098 46.8431 26.1789 47.4982 24.4205 47.7846C23.0157 47.9628 21.5082 47.5331 20.3517 46.7333C20.2705 46.6772 20.1908 46.6192 20.1124 46.5593C20.0341 46.4993 19.9573 46.4375 19.8819 46.3737C19.8067 46.31 19.733 46.2444 19.661 46.177C19.589 46.1096 19.5186 46.0404 19.45 45.9696C19.3814 45.8987 19.3146 45.8262 19.2496 45.752C19.1846 45.6778 19.1215 45.6021 19.0601 45.5247C18.9988 45.4474 18.9395 45.3687 18.8822 45.2885C18.8247 45.2083 18.7693 45.1266 18.716 45.0436C18.6627 44.9606 18.6114 44.8764 18.5623 44.791C18.513 44.7055 18.4659 44.6188 18.421 44.531C18.376 44.4431 18.3333 44.3541 18.2928 44.2642C18.2523 44.1743 18.214 44.0834 18.178 43.9916C18.142 43.8997 18.1083 43.8071 18.0769 43.7136C18.0455 43.6201 18.0163 43.5259 17.9894 43.431C17.9626 43.3361 17.9382 43.2405 17.9162 43.1443C17.8942 43.0482 17.8745 42.9516 17.8572 42.8544C17.8406 42.7587 17.8264 42.6626 17.8147 42.5661C17.803 42.4696 17.7937 42.3728 17.7868 42.2759C17.7798 42.179 17.7753 42.0819 17.7733 41.9848C17.7712 41.8876 17.7716 41.7904 17.7744 41.6933C17.7772 41.5961 17.7824 41.4991 17.79 41.4023C17.7976 41.3054 17.8077 41.2087 17.8202 41.1123C17.8327 41.0159 17.8475 40.92 17.8646 40.8243C17.8819 40.7287 17.9016 40.6336 17.9235 40.5389C17.9455 40.4442 17.9699 40.3501 17.9965 40.2567C18.0233 40.1632 18.0523 40.0704 18.0836 39.9785C18.115 39.8866 18.1486 39.7954 18.1844 39.705C18.2203 39.6147 18.2584 39.5253 18.2989 39.4369C18.3391 39.3486 18.3817 39.2612 18.4265 39.1748C18.4711 39.0885 18.5179 39.0034 18.5669 38.9194C18.6158 38.8355 18.6668 38.7528 18.7199 38.6714C18.773 38.59 18.8281 38.51 18.8852 38.4313C19.9139 36.9858 21.4257 36.2276 23.1405 35.9242Z" fill="white"/>
<path d="M23.1874 40.2695C23.419 40.2477 23.6649 40.2159 23.8965 40.2439C24.3517 40.299 24.8222 40.6003 25.0788 40.9769C25.3015 41.304 25.3845 41.6991 25.288 42.0853C25.1543 42.619 24.8104 42.8972 24.3677 43.1831C24.1637 43.2313 23.936 43.2549 23.7264 43.2446C23.2873 43.2229 22.844 43.0027 22.5745 42.6535C22.5434 42.6125 22.5143 42.5699 22.4875 42.5259C22.4607 42.4818 22.4362 42.4365 22.414 42.3899C22.3919 42.3433 22.3722 42.2958 22.355 42.2472C22.3377 42.1986 22.323 42.1493 22.311 42.0991C22.2989 42.049 22.2894 41.9984 22.2825 41.9473C22.2757 41.8962 22.2714 41.8448 22.2697 41.7933C22.2682 41.7418 22.2693 41.6904 22.2729 41.639C22.2767 41.5874 22.2831 41.5363 22.2921 41.4856C22.3918 40.9064 22.7189 40.5841 23.1874 40.2695Z" fill="black"/>
<path d="M157.763 77.4376C158.32 77.372 158.921 77.3847 159.48 77.4159C163.329 77.6303 166.456 79.358 168.975 82.2242C169.12 82.3866 169.26 82.5526 169.397 82.722C169.533 82.8913 169.665 83.064 169.793 83.2401C169.921 83.4162 170.044 83.5953 170.163 83.7774C170.281 83.9596 170.395 84.1447 170.505 84.3325C170.615 84.5204 170.719 84.7109 170.819 84.9041C170.919 85.0972 171.014 85.2927 171.105 85.4906C171.195 85.6885 171.28 85.8885 171.36 86.0906C171.44 86.2928 171.516 86.4967 171.586 86.7025C171.656 86.9085 171.721 87.116 171.78 87.3252C171.84 87.5343 171.894 87.7448 171.943 87.9566C171.993 88.1685 172.036 88.3814 172.075 88.5954C172.113 88.8095 172.147 89.0244 172.174 89.2401C172.202 89.4557 172.225 89.6719 172.241 89.8888C172.258 90.1056 172.27 90.3228 172.276 90.5402C172.282 90.7575 172.283 90.9749 172.278 91.1923C172.273 91.4097 172.263 91.6269 172.248 91.8439C171.997 95.6543 170.404 98.8732 167.508 101.366C164.734 103.753 161.304 104.939 157.647 104.649C157.489 104.636 157.331 104.621 157.174 104.602C157.017 104.584 156.86 104.563 156.703 104.539C156.547 104.515 156.391 104.489 156.235 104.46C156.079 104.43 155.924 104.398 155.77 104.363C155.615 104.329 155.461 104.291 155.308 104.251C155.155 104.211 155.002 104.168 154.851 104.123C154.699 104.077 154.548 104.029 154.398 103.978C154.248 103.928 154.099 103.874 153.951 103.818C153.803 103.762 153.656 103.704 153.51 103.642C153.363 103.581 153.218 103.518 153.075 103.451C152.931 103.385 152.788 103.316 152.647 103.245C152.505 103.174 152.365 103.1 152.226 103.024C152.087 102.948 151.95 102.869 151.814 102.788C151.678 102.707 151.543 102.624 151.41 102.538C151.277 102.452 151.145 102.364 151.015 102.274C150.885 102.184 150.756 102.091 150.63 101.996C150.503 101.901 150.378 101.804 150.254 101.705C150.131 101.606 150.009 101.505 149.889 101.401C149.769 101.298 149.651 101.192 149.535 101.084C149.419 100.977 149.305 100.867 149.192 100.756C149.08 100.644 148.97 100.53 148.861 100.415C148.753 100.299 148.647 100.182 148.542 100.063C148.438 99.9434 148.336 99.8224 148.236 99.6995C148.136 99.5768 148.038 99.4522 147.943 99.3259C147.847 99.1997 147.754 99.0719 147.663 98.9424C147.571 98.8127 147.483 98.6816 147.396 98.549C147.31 98.4163 147.225 98.2822 147.143 98.1467C147.062 98.0111 146.982 97.8741 146.905 97.7357C146.828 97.5973 146.754 97.4576 146.682 97.3166C146.609 97.1756 146.54 97.0334 146.473 96.8899C146.406 96.7465 146.341 96.602 146.279 96.4562C146.217 96.3105 146.157 96.1637 146.1 96.016C145.839 95.3212 145.577 93.4403 145.112 92.9748C145.004 92.8658 144.758 92.8973 144.609 92.8891C141.787 92.8374 138.963 92.8964 136.141 92.9069L126.824 92.9103L126.814 79.9584C128.407 79.9731 129.999 79.9975 131.591 80.0317C131.653 82.9548 131.6 85.8883 131.616 88.8131C136.187 88.7712 140.759 88.7636 145.33 88.7904C145.387 88.4968 145.453 88.2052 145.528 87.9158C145.603 87.6262 145.687 87.3392 145.78 87.055C145.873 86.7707 145.975 86.4897 146.085 86.2118C146.196 85.9338 146.315 85.6597 146.443 85.3893C146.57 85.1188 146.706 84.8525 146.85 84.5904C146.994 84.3284 147.147 84.0711 147.307 83.8186C147.467 83.566 147.635 83.3187 147.811 83.0768C147.986 82.8347 148.169 82.5983 148.36 82.3676C150.721 79.448 154.058 77.8322 157.763 77.4376Z" fill="black"/>
<path d="M158.094 84.9013C158.245 84.8949 158.396 84.894 158.547 84.8988C158.698 84.9035 158.849 84.9139 158.999 84.9299C159.149 84.9459 159.299 84.9674 159.448 84.9944C159.596 85.0214 159.744 85.0539 159.89 85.092C160.037 85.13 160.181 85.1734 160.325 85.2221C160.468 85.2709 160.609 85.3249 160.748 85.3842C160.887 85.4433 161.024 85.5076 161.158 85.577C161.292 85.6463 161.424 85.7206 161.553 85.7997C162.969 86.6781 164.041 88.1447 164.413 89.7708C164.774 91.3486 164.468 92.906 163.61 94.2698C162.593 95.8849 161.108 96.7174 159.282 97.1274C157.63 97.2644 156.13 96.9874 154.8 95.9517C153.487 94.929 152.795 93.4588 152.611 91.8245C152.424 90.1609 152.817 88.3806 153.876 87.0588C154.959 85.7069 156.404 85.0922 158.094 84.9013Z" fill="white"/>
<path d="M158.221 89.7478C158.329 89.7505 158.33 89.7473 158.453 89.7674C158.808 89.8251 159.181 90.0581 159.363 90.3717C159.535 90.6692 159.544 91.0337 159.429 91.3536C159.272 91.7935 158.925 91.9858 158.526 92.1785C158.393 92.176 158.265 92.1716 158.136 92.1378C157.801 92.05 157.492 91.8312 157.323 91.5243C157.158 91.2242 157.156 90.867 157.274 90.5492C157.449 90.0763 157.789 89.941 158.221 89.7478Z" fill="black"/>
<path d="M72.0218 6.70168C74.3693 6.52916 76.9706 7.15791 79.0586 8.21575C82.0677 9.74001 84.6612 12.7795 85.6835 15.9944C86.8029 19.5139 86.5279 23.576 84.808 26.8584C84.7041 27.0527 84.5954 27.2444 84.482 27.4333C84.3687 27.6225 84.2508 27.8086 84.1283 27.9918C84.0059 28.1751 83.8791 28.3553 83.7478 28.5324C83.6166 28.7095 83.4812 28.8832 83.3415 29.0536C83.2017 29.2241 83.0578 29.391 82.91 29.5544C82.7621 29.7178 82.6103 29.8775 82.4546 30.0336C82.2989 30.1896 82.1395 30.3418 81.9765 30.49C81.8133 30.6382 81.6467 30.7824 81.4765 30.9224C81.3064 31.0625 81.1329 31.1983 80.9561 31.33C80.7793 31.4615 80.5994 31.5887 80.4163 31.7116C80.2334 31.8343 80.0475 31.9526 79.8586 32.0663C79.6699 32.1801 79.4784 32.2892 79.2844 32.3935C79.0902 32.4978 78.8936 32.5973 78.6946 32.6921C78.4957 32.7869 78.2945 32.8768 78.091 32.9618C77.8877 33.0467 77.6824 33.1266 77.4752 33.2015C77.2678 33.2764 77.0588 33.3462 76.8482 33.4109C76.7389 33.445 76.6292 33.4778 76.5192 33.5094C76.4092 33.5408 76.2988 33.5709 76.1881 33.5996C76.0773 33.6283 75.9661 33.6556 75.8546 33.6816C75.7431 33.7076 75.6314 33.7322 75.5194 33.7553C75.4073 33.7786 75.2949 33.8004 75.1823 33.8207C75.0697 33.8412 74.9568 33.8603 74.8437 33.8778C74.7306 33.8955 74.6174 33.9117 74.5038 33.9265C74.3904 33.9413 74.2768 33.9547 74.1629 33.9667C74.0491 33.9786 73.9352 33.9892 73.8212 33.9983C73.7071 34.0074 73.5928 34.0152 73.4785 34.0216C73.3643 34.0279 73.2499 34.0328 73.1355 34.0363C73.0211 34.0398 72.9067 34.0418 72.7923 34.0426C72.6778 34.0431 72.5634 34.0424 72.4491 34.0402C72.3346 34.038 72.2202 34.0344 72.1059 34.0294C71.9915 34.0243 71.8772 34.0179 71.763 34.01C71.6489 34.0022 71.5349 33.993 71.4209 33.9823C71.3069 33.9715 71.1931 33.9594 71.0794 33.9459C70.9658 33.9324 70.8524 33.9175 70.7391 33.9013C70.6258 33.8849 70.5128 33.8671 70.4 33.8479C70.287 33.8289 70.1744 33.8084 70.0621 33.7864C69.9498 33.7645 69.8377 33.7412 69.726 33.7166C69.6143 33.6918 69.5028 33.6658 69.3917 33.6384C69.2807 33.6109 69.1699 33.582 69.0595 33.5518C68.9491 33.5216 68.839 33.49 68.7294 33.4571C68.6198 33.4242 68.5107 33.3899 68.4019 33.3542C68.2932 33.3185 68.1849 33.2816 68.077 33.2433C67.9692 33.205 67.8618 33.1654 67.7549 33.1244C67.6482 33.0834 67.5419 33.041 67.4361 32.9973C67.3303 32.9537 67.225 32.9088 67.1202 32.8626C67.0156 32.8164 66.9115 32.7689 66.808 32.72C66.7044 32.6712 66.6015 32.6211 66.4992 32.5697C66.397 32.5184 66.2954 32.4658 66.1944 32.4118C63.3832 30.9043 60.9419 28.1965 59.823 25.1994C59.442 24.1781 59.2528 23.1124 58.9397 22.0722C58.0889 22.6989 57.3408 23.5573 56.5788 24.2928C55.1874 25.6359 53.7628 26.9565 52.4378 28.3659L52.4275 29.9261C52.4908 37.1771 52.3534 44.4356 52.3687 51.6882C50.8864 51.7621 49.4037 51.8819 47.9228 51.98C47.754 47.2628 47.9017 42.4887 47.91 37.7656L47.9019 31.2432C47.8983 30.0483 47.8469 28.8342 47.909 27.6418C47.9307 27.2238 47.9504 26.6478 48.1766 26.2894C48.9873 25.0051 51.5847 22.7858 52.8137 21.5921C53.9519 20.4866 55.0324 19.3136 56.2131 18.2536C57.1252 18.2635 58.0369 18.2492 58.9482 18.2105C59.4894 15.756 60.5555 13.3865 62.2126 11.4808C64.7114 8.60752 68.2586 6.97849 72.0218 6.70168Z" fill="black"/>
<path d="M72.0021 14.3331C72.1626 14.3124 72.3238 14.298 72.4855 14.2899C72.6472 14.2818 72.809 14.2801 72.9709 14.2848C73.1327 14.2894 73.2941 14.3004 73.455 14.3177C73.6161 14.335 73.7761 14.3586 73.9353 14.3885C74.0944 14.4184 74.2521 14.4545 74.4084 14.4967C74.5647 14.539 74.7191 14.5874 74.8716 14.6418C75.0241 14.6962 75.1742 14.7565 75.3219 14.8227C75.4697 14.8889 75.6146 14.9608 75.7567 15.0384C75.844 15.0864 75.9301 15.1365 76.0149 15.1887C76.0998 15.241 76.1832 15.2953 76.2654 15.3517C76.3476 15.4081 76.4283 15.4665 76.5076 15.5269C76.5869 15.5873 76.6646 15.6496 76.7408 15.7138C76.817 15.778 76.8915 15.8441 76.9644 15.912C77.0373 15.98 77.1084 16.0497 77.1778 16.1211C77.2473 16.1926 77.3149 16.2657 77.3808 16.3405C77.4467 16.4153 77.5106 16.4917 77.5726 16.5696C77.6347 16.6476 77.6948 16.7271 77.753 16.808C77.8111 16.8889 77.8671 16.9713 77.9211 17.055C77.9752 17.1387 78.0271 17.2237 78.077 17.31C78.1268 17.3963 78.1744 17.4838 78.2199 17.5724C78.2654 17.6611 78.3087 17.7508 78.3498 17.8416C78.3908 17.9323 78.4296 18.0241 78.4661 18.1169C78.5027 18.2095 78.5369 18.3031 78.5688 18.3975C78.6007 18.4919 78.6302 18.5871 78.6573 18.6829C78.685 18.7826 78.7103 18.8828 78.733 18.9837C78.7556 19.0846 78.7759 19.1861 78.7936 19.288C78.8113 19.3899 78.8264 19.4921 78.8389 19.5947C78.8515 19.6975 78.8616 19.8004 78.8692 19.9034C78.8766 20.0067 78.8815 20.11 78.8837 20.2134C78.8861 20.3167 78.8859 20.4201 78.883 20.5236C78.8803 20.6269 78.8749 20.7301 78.8669 20.8334C78.8589 20.9364 78.8484 21.0393 78.8354 21.1419C78.8224 21.2445 78.8068 21.3467 78.7887 21.4485C78.7705 21.5503 78.7498 21.6516 78.7266 21.7524C78.7034 21.8532 78.6777 21.9534 78.6495 22.0528C78.6214 22.1523 78.5908 22.2511 78.5576 22.3491C78.5245 22.4471 78.489 22.5442 78.4511 22.6404C78.4132 22.7367 78.3729 22.832 78.3303 22.9262C78.2876 23.0204 78.2427 23.1134 78.1954 23.2054C78.1481 23.2975 78.0986 23.3882 78.0468 23.4777C77.0607 25.1585 75.4993 26.0678 73.6498 26.5422C73.5555 26.558 73.4608 26.5717 73.3658 26.583C73.2709 26.5944 73.1757 26.6035 73.0802 26.6104C72.9848 26.6172 72.8893 26.6217 72.7937 26.6239C72.6981 26.6262 72.6024 26.6261 72.5068 26.6237C72.4111 26.6214 72.3155 26.6167 72.2201 26.6097C72.1248 26.6027 72.0295 26.5935 71.9345 26.582C71.8396 26.5705 71.745 26.5567 71.6507 26.5406C71.5564 26.5246 71.4625 26.5063 71.3691 26.4856C71.2757 26.465 71.1828 26.4422 71.0905 26.4172C70.9982 26.3922 70.9064 26.365 70.8153 26.3356C70.7243 26.3061 70.6341 26.2746 70.5446 26.2409C70.4551 26.2071 70.3664 26.1712 70.2786 26.1332C70.1909 26.0952 70.1041 26.0551 70.0182 26.0129C69.9323 25.9707 69.8474 25.9265 69.7637 25.8803C69.68 25.8341 69.5974 25.7858 69.5159 25.7356C69.4345 25.6854 69.3544 25.6332 69.2754 25.5792C69.1902 25.5208 69.1066 25.4603 69.0245 25.3977C68.9422 25.3352 68.8616 25.2707 68.7824 25.2042C68.7034 25.1377 68.626 25.0694 68.5503 24.9993C68.4744 24.929 68.4004 24.857 68.3281 24.7831C68.256 24.7093 68.1856 24.6338 68.117 24.5565C68.0484 24.4793 67.9817 24.4004 67.9168 24.32C67.8521 24.2395 67.7894 24.1575 67.7286 24.074C67.6678 23.9904 67.6091 23.9055 67.5525 23.8191C67.4958 23.7327 67.4413 23.645 67.389 23.5561C67.3366 23.467 67.2864 23.3767 67.2384 23.2852C67.1904 23.1937 67.1447 23.1012 67.1012 23.0076C67.0577 22.9138 67.0165 22.8191 66.9775 22.7234C66.9386 22.6278 66.9021 22.5312 66.8679 22.4337C66.8337 22.3363 66.8019 22.238 66.7724 22.139C66.743 22.0399 66.7161 21.9403 66.6915 21.84C66.6669 21.7397 66.6447 21.6388 66.6251 21.5374C66.3304 19.9443 66.7228 18.2004 67.6581 16.8793C68.699 15.4091 70.2592 14.6241 72.0021 14.3331Z" fill="white"/>
<path d="M72.3525 18.6707C72.6717 18.6449 73.0162 18.6469 73.3194 18.7603C73.3811 18.7836 73.4415 18.8101 73.5007 18.8396C73.5597 18.8691 73.617 18.9015 73.6727 18.937C73.7284 18.9723 73.7821 19.0104 73.8339 19.0514C73.8857 19.0923 73.9353 19.1358 73.9827 19.1819C74.03 19.2278 74.0748 19.2761 74.1172 19.3267C74.1596 19.3773 74.1993 19.43 74.2361 19.4847C74.2731 19.5394 74.3072 19.5958 74.3385 19.6539C74.3697 19.7122 74.3978 19.7719 74.4228 19.8329C74.595 20.2563 74.5939 20.7241 74.4032 21.1407C74.1722 21.6456 73.7346 21.941 73.2273 22.123C72.9102 22.147 72.5464 22.1774 72.2412 22.078C72.1812 22.058 72.1223 22.035 72.0646 22.0089C72.0069 21.9827 71.9507 21.9537 71.8961 21.9218C71.8414 21.8899 71.7884 21.8553 71.7374 21.8178C71.6862 21.7805 71.6371 21.7407 71.59 21.6982C71.5431 21.6558 71.4984 21.6111 71.456 21.564C71.4136 21.5169 71.3737 21.4678 71.3364 21.4167C71.2991 21.3655 71.2645 21.3125 71.2328 21.2578C71.2009 21.2031 71.1719 21.1468 71.1459 21.0891C71.1227 21.0366 71.1022 20.9831 71.0844 20.9286C71.0666 20.874 71.0517 20.8187 71.0396 20.7626C71.0275 20.7065 71.0183 20.6499 71.0119 20.5929C71.0055 20.5359 71.002 20.4787 71.0016 20.4214C71.001 20.3639 71.0033 20.3066 71.0087 20.2495C71.014 20.1924 71.0222 20.1357 71.0334 20.0794C71.0444 20.0231 71.0583 19.9676 71.0751 19.9127C71.0918 19.8577 71.1113 19.8038 71.1336 19.751C71.375 19.1657 71.7946 18.9131 72.3525 18.6707Z" fill="black"/>
<path d="M9.69612 102.056C10.1921 102.365 10.6715 102.953 11.1155 103.349C11.7303 103.897 12.4565 104.322 13.1695 104.729C20.2805 108.785 30.5607 110.659 38.6198 111.61C54.2126 113.451 81.1544 112.911 95.6216 106.794C97.991 105.792 100.095 104.562 102.119 102.968L102.11 121.162L102.129 125.739C102.137 126.71 102.219 127.754 102.076 128.716C101.978 129.377 101.534 129.944 101.152 130.471C100.85 130.86 100.53 131.24 100.18 131.587C97.1638 134.566 92.376 136.169 88.3896 137.283C77.6465 140.286 66.2929 141.151 55.1727 141.134C43.4629 141.115 28.5141 139.697 17.6768 135.107C15.2935 134.098 12.8591 132.928 11.0208 131.059C10.5283 130.558 9.89942 129.785 9.749 129.088C9.5649 128.236 9.67864 127.184 9.68031 126.309L9.6906 121.232C9.69618 114.841 9.62588 108.447 9.69612 102.056Z" fill="black"/>
<path d="M18.9189 115.813C20.896 116.593 22.8463 117.345 24.8872 117.949C24.916 120.802 24.8974 123.656 24.8314 126.509C22.7588 125.957 20.8399 125.185 18.8741 124.336C18.7438 121.511 18.8771 118.641 18.9189 115.813Z" fill="white"/>
<path d="M26.4492 118.518C29.0171 119.08 31.6014 119.556 34.1691 120.115C34.1328 122.931 34.1737 125.748 34.1254 128.564C31.545 128.248 28.9757 127.503 26.4633 126.844C26.545 124.076 26.4629 121.287 26.4492 118.518Z" fill="white"/>
<path d="M35.4919 120.356C36.9278 120.505 38.3554 120.826 39.7858 121.031C41.2147 121.236 42.7065 121.306 44.1106 121.634C44.1209 124.465 44.169 127.306 44.0119 130.134C41.1469 129.796 38.2953 129.368 35.4572 128.85C35.4663 126.025 35.3803 123.178 35.4919 120.356Z" fill="white"/>
<path d="M9.72328 135.748C14.179 139.438 20.0404 141.187 25.5614 142.528C34.5915 144.721 43.6945 145.643 52.9791 145.833C65.8993 146.098 84.3291 144.776 96.059 139.479C98.2531 138.489 100.328 137.407 102.082 135.725C102.256 141.14 102.096 146.601 102.09 152.02L102.083 157.638C102.08 158.756 102.153 159.956 101.984 161.06C101.846 161.972 101.399 162.685 100.885 163.424C100.45 163.985 99.9699 164.503 99.4441 164.979C92.8342 171.013 77.4474 173.48 68.7349 174.232C65.3536 174.513 61.9666 174.681 58.574 174.736C55.1814 174.79 51.7909 174.731 48.4023 174.558C45.8092 174.437 43.2216 174.241 40.6396 173.972C38.0576 173.703 35.4854 173.361 32.9229 172.945C26.6941 171.892 15.3822 169.256 11.0015 164.355C10.5587 163.86 9.85639 163.009 9.73092 162.347C9.55221 161.404 9.67318 160.248 9.67499 159.281L9.68926 153.03L9.68656 141.919C9.68525 139.869 9.6103 137.793 9.72328 135.748Z" fill="black"/>
<path d="M18.859 150.223C19.8278 150.525 20.7778 150.971 21.7289 151.332C22.7812 151.732 23.8583 152.059 24.9325 152.394C24.8209 155.158 24.9133 157.955 24.9345 160.721C24.4388 160.896 19.7352 158.85 18.8723 158.51C18.7895 155.754 18.8529 152.98 18.859 150.223Z" fill="white"/>
<path d="M26.494 152.922C29.034 153.422 31.6084 153.913 34.1296 154.493C34.1376 157.306 34.2352 160.156 34.0992 162.964C31.5811 162.625 28.8955 161.965 26.4812 161.161C26.4318 158.418 26.4876 155.666 26.494 152.922Z" fill="white"/>
<path d="M35.5198 154.778C36.8974 154.893 38.2697 155.174 39.636 155.386C41.1209 155.617 42.6263 155.79 44.0976 156.096C44.267 158.901 44.1977 161.849 44.0854 164.658C41.1995 164.259 38.3205 163.816 35.4482 163.329C35.4562 160.597 35.2978 157.473 35.5198 154.778Z" fill="white"/>
<path d="M126.247 94.1501C126.966 94.1091 127.698 94.1261 128.419 94.1155C128.421 97.5125 128.324 100.943 128.511 104.334C129.986 105.33 131.328 106.662 132.703 107.8C136.112 110.622 139.538 113.422 142.983 116.2C144.618 117.53 146.161 119.023 147.921 120.185C150.619 120.271 153.332 120.214 156.032 120.212C157.623 120.211 159.309 120.079 160.871 120.419C162.553 120.784 164.224 121.63 165.504 122.782C167.554 124.625 168.682 126.956 168.817 129.703C168.946 132.328 168.856 135.006 168.85 137.636C168.819 142.344 168.813 147.051 168.833 151.758L168.85 161.763C168.849 163.589 169.003 165.626 168.693 167.424C168.401 169.122 167.555 170.726 166.399 171.996C164.728 173.832 162.633 174.741 160.17 174.831C158.276 174.901 156.363 174.817 154.466 174.82L141.965 174.842L134.395 174.857C132.97 174.858 131.44 174.978 130.034 174.735C128.258 174.429 126.533 173.635 125.222 172.393C122.323 169.648 122.241 167.441 122.153 163.703C116.599 163.505 111.02 163.698 105.461 163.689C105.443 162.147 105.476 160.602 105.487 159.06L122.226 158.999C122.241 157.383 122.234 155.767 122.204 154.151C119.519 153.92 116.581 154.093 113.878 154.153C112.405 154.145 110.932 154.152 109.459 154.174C109.563 149.522 109.48 144.856 109.49 140.202L109.479 107.191C107.573 105.101 105.39 103.114 103.288 101.224C104.566 100.138 105.231 98.4381 105.584 96.8467C108.443 99.7024 111.379 102.495 114.142 105.444C114.307 111.604 114.16 117.792 114.142 123.955L114.172 149.366C116.844 149.388 119.519 149.242 122.19 149.32C122.31 143.15 122.107 136.985 122.195 130.819C122.236 127.896 123.362 125.07 125.489 123.034C128.443 120.205 131.416 120.225 135.236 120.227C137.116 120.221 138.997 120.236 140.877 120.273C138.942 118.833 136.981 117.379 135.123 115.842C133.403 114.42 131.762 112.883 130.075 111.421C127.836 109.513 125.624 107.574 123.44 105.603L123.465 94.2147C124.393 94.2077 125.32 94.1861 126.247 94.1501Z" fill="black"/>
<path d="M132.318 141.296C134.257 141.199 136.257 141.241 138.197 141.312C138.257 143.27 138.238 145.237 138.234 147.197L132.319 147.19C132.254 145.237 132.253 143.25 132.318 141.296Z" fill="white"/>
<path d="M132.301 130.467C134.252 130.441 136.251 130.38 138.197 130.516C138.219 132.48 138.226 134.445 138.221 136.409C136.245 136.434 134.265 136.405 132.288 136.401C132.282 134.425 132.248 132.443 132.301 130.467Z" fill="white"/>
<path d="M146.521 141.253C147.414 141.238 148.309 141.273 149.202 141.295L149.198 147.245C148.177 147.255 147.156 147.217 146.135 147.189L143.144 147.172C143.119 145.207 143.14 143.243 143.207 141.279L146.521 141.253Z" fill="white"/>
<path d="M132.185 152.138C134.193 152.051 136.226 152.114 138.236 152.128C138.247 154.12 138.24 156.111 138.217 158.101L132.191 158.089C132.174 156.105 132.172 154.122 132.185 152.138Z" fill="white"/>
<path d="M143.176 152.086C145.178 152.065 147.181 152.064 149.183 152.086C149.219 154.087 149.194 156.093 149.198 158.095C147.185 158.11 145.172 158.115 143.159 158.108C143.152 156.101 143.158 154.093 143.176 152.086Z" fill="white"/>
<path d="M143.166 130.446L149.236 130.465C149.266 132.444 149.258 134.425 149.267 136.403C147.236 136.451 145.2 136.43 143.169 136.435C143.155 134.438 143.154 132.442 143.166 130.446Z" fill="white"/>
<path d="M154.182 141.286L160.333 141.283L160.322 147.188C158.267 147.237 156.197 147.179 154.14 147.193C154.137 145.224 154.151 143.255 154.182 141.286Z" fill="white"/>
<path d="M154.155 152.081C156.2 152.059 158.245 152.077 160.289 152.133C160.362 154.107 160.3 156.105 160.293 158.082L154.171 158.074L154.155 152.081Z" fill="white"/>
<path d="M154.124 130.463L160.311 130.465C160.319 132.443 160.314 134.421 160.297 136.399C158.242 136.414 156.187 136.416 154.133 136.403C154.099 134.423 154.096 132.443 154.124 130.463Z" fill="white"/>
<path d="M132.415 163.027C134.026 162.901 135.671 163 137.287 163.024C139.443 163.046 141.599 163.051 143.755 163.041C147.46 162.997 151.165 162.986 154.87 163.006C156.726 163.02 158.676 162.934 160.517 163.175C160.528 163.985 160.733 167.709 160.471 168.225C151.079 168.301 141.687 168.308 132.294 168.246C132.264 166.725 132.21 165.194 132.238 163.674C132.244 163.407 132.22 163.217 132.415 163.027Z" fill="white"/>
<path d="M133.69 6.95508C137.715 7.27032 141.861 8.42233 145.514 10.1248C144.592 11.5535 143.902 13.0494 144.267 14.8032C144.49 15.8779 145.086 16.9093 146.043 17.4839C146.991 18.0527 148.239 18.1858 149.3 17.9043C151.087 17.4304 152.22 15.9676 153.076 14.4293C153.776 15.0207 154.549 15.5285 155.253 16.1179C157.596 18.0781 160.052 20.5477 161.603 23.1883C161.129 23.4253 160.663 23.6751 160.203 23.9377C159.007 24.6308 157.94 25.5435 157.594 26.9478C157.578 27.0108 157.564 27.0741 157.551 27.1378C157.538 27.2015 157.527 27.2655 157.518 27.3297C157.508 27.3939 157.501 27.4583 157.494 27.5229C157.488 27.5876 157.484 27.6524 157.481 27.7172C157.478 27.7821 157.476 27.847 157.476 27.912C157.477 27.9769 157.479 28.0418 157.482 28.1066C157.486 28.1714 157.491 28.2361 157.497 28.3007C157.504 28.3653 157.512 28.4297 157.522 28.4939C157.532 28.558 157.544 28.6218 157.557 28.6855C157.57 28.7491 157.585 28.8123 157.601 28.8751C157.618 28.938 157.635 29.0005 157.655 29.0625C157.674 29.1244 157.695 29.1859 157.718 29.2468C157.74 29.3077 157.764 29.368 157.79 29.4277C157.815 29.4874 157.842 29.5464 157.871 29.6047C157.899 29.6631 157.929 29.7208 157.96 29.7777C157.992 29.8345 158.024 29.8906 158.059 29.9458C158.677 30.9624 159.72 31.766 160.893 32.0119C162.753 32.4021 164.228 31.339 165.69 30.3843C166.105 31.7764 166.653 33.1297 167.061 34.5281C167.663 36.5918 167.988 38.6974 168.262 40.8252C167.686 40.7835 167.103 40.7278 166.525 40.7469C165.189 40.7906 163.891 41.1624 162.969 42.1883C162.214 43.0274 161.771 44.1453 161.835 45.2791C161.898 46.4102 162.453 47.4293 163.293 48.1744C164.79 49.5015 166.426 49.3696 168.263 49.2694C167.681 53.1056 166.867 56.1589 165.493 59.7863C163.93 59.0723 162.329 58.0416 160.532 58.371C160.464 58.3841 160.396 58.399 160.328 58.4156C160.26 58.4322 160.193 58.4505 160.126 58.4705C160.059 58.4905 159.993 58.5122 159.927 58.5355C159.862 58.559 159.797 58.5841 159.732 58.6107C159.668 58.6374 159.604 58.6656 159.541 58.6955C159.478 58.7254 159.416 58.7568 159.354 58.7899C159.293 58.8229 159.232 58.8575 159.173 58.8937C159.113 58.9298 159.054 58.9674 158.996 59.0065C158.939 59.0456 158.882 59.0862 158.826 59.1281C158.77 59.1701 158.716 59.2134 158.662 59.2582C158.609 59.3029 158.556 59.3489 158.505 59.3963C158.454 59.4437 158.404 59.4924 158.355 59.5422C158.307 59.5922 158.259 59.6434 158.213 59.6956C158.167 59.748 158.122 59.8015 158.079 59.8561C158.035 59.9106 157.993 59.9663 157.953 60.023C157.912 60.0798 157.873 60.1375 157.835 60.1961C157.798 60.2552 157.762 60.3153 157.727 60.3762C157.692 60.4371 157.659 60.4988 157.628 60.5614C157.596 60.624 157.566 60.6874 157.538 60.7514C157.51 60.8155 157.483 60.8802 157.458 60.9456C157.433 61.011 157.409 61.077 157.387 61.1436C157.365 61.2102 157.345 61.2773 157.327 61.3448C157.308 61.4123 157.291 61.4804 157.276 61.5488C157.261 61.6172 157.248 61.6859 157.236 61.755C157.225 61.8242 157.215 61.8936 157.207 61.9631C157.198 62.0327 157.192 62.1024 157.187 62.1723C157.182 62.2422 157.179 62.3122 157.178 62.3822C157.177 62.4523 157.177 62.5223 157.18 62.5923C157.182 62.6624 157.186 62.7323 157.192 62.8022C157.198 62.872 157.205 62.9416 157.214 63.0111C157.224 63.0805 157.235 63.1497 157.247 63.2187C157.26 63.2876 157.274 63.3562 157.29 63.4243C157.737 65.3397 159.528 66.498 161.083 67.4926C159.222 70.325 155.887 73.5411 153.038 75.4194C151.974 74.0811 150.81 72.2836 149.103 71.7508C148.071 71.4289 146.866 71.5642 145.928 72.0997C145.873 72.1313 145.818 72.1642 145.765 72.1985C145.711 72.2327 145.659 72.2683 145.607 72.3053C145.555 72.3422 145.504 72.3803 145.454 72.4196C145.405 72.4591 145.356 72.4997 145.308 72.5415C145.26 72.5833 145.213 72.6263 145.167 72.6704C145.121 72.7146 145.077 72.7598 145.033 72.8062C144.99 72.8525 144.947 72.8999 144.906 72.9483C144.865 72.9968 144.825 73.0462 144.786 73.0966C144.748 73.1469 144.71 73.1983 144.674 73.2507C144.638 73.3029 144.603 73.356 144.569 73.4099C144.536 73.464 144.503 73.5188 144.473 73.5743C144.442 73.6299 144.412 73.6862 144.384 73.7434C144.356 73.8004 144.329 73.8581 144.304 73.9165C144.279 73.9748 144.255 74.0337 144.233 74.0933C144.21 74.1528 144.19 74.2128 144.17 74.2734C144.151 74.3339 144.133 74.3949 144.117 74.4564C143.611 76.3861 144.72 77.9011 145.625 79.4854C142.27 81.1069 138.87 81.912 135.238 82.6299C134.373 80.9793 133.698 78.4656 132.456 77.1487C131.376 76.0041 129.97 75.9734 128.508 75.9554C127.858 76.0031 127.248 76.1204 126.658 76.4113C124.468 77.4918 124.311 80.5207 123.63 82.5979C120.088 81.9737 116.951 81.0512 113.648 79.6194C114.222 78.4588 114.86 76.9829 114.918 75.6686C114.967 74.5652 114.597 73.5073 113.822 72.7129C112.937 71.8057 111.523 71.1762 110.252 71.1703C109.122 71.165 108.367 71.6306 107.592 72.3896C107.749 70.0467 107.815 67.906 106.83 65.7144C104.432 60.3811 97.6687 58.1593 92.6189 56.2278C91.4827 54.2237 91.0165 51.4656 90.624 49.2006C92.4134 49.2209 94.3449 49.4086 95.8028 48.1488C95.8547 48.1042 95.9054 48.0584 95.9548 48.0112C96.0043 47.964 96.0526 47.9156 96.0995 47.866C96.1464 47.8163 96.192 47.7655 96.2363 47.7135C96.2806 47.6615 96.3236 47.6083 96.3652 47.5541C96.4067 47.4998 96.4468 47.4445 96.4855 47.3882C96.5241 47.3318 96.5613 47.2746 96.5971 47.2164C96.6328 47.1581 96.667 47.0989 96.6997 47.0388C96.7323 46.9787 96.7633 46.9179 96.7928 46.8563C96.8223 46.7947 96.8502 46.7323 96.8763 46.6691C96.9027 46.6061 96.9272 46.5424 96.9501 46.4779C96.9731 46.4136 96.9944 46.3486 97.0139 46.2831C97.0335 46.2177 97.0513 46.1518 97.0674 46.0853C97.0835 46.0189 97.0979 45.9522 97.1106 45.885C97.1233 45.8178 97.1342 45.7504 97.1435 45.6827C97.1526 45.6149 97.16 45.547 97.1657 45.4789C97.1713 45.4107 97.1751 45.3425 97.1772 45.2743C97.224 44.0685 96.8291 42.8185 95.9813 41.9428C94.5351 40.449 92.6024 40.6226 90.7058 40.6155C90.8789 37.3902 91.7843 34.079 92.8343 31.0447C94.2642 31.7423 95.6086 32.2258 97.2258 31.9727C98.3366 31.7988 99.3597 31.2472 100.01 30.3139C100.581 29.4926 100.818 28.4239 100.607 27.4417C100.209 25.5931 98.5099 24.1687 97.0098 23.1843C98.6894 20.8773 100.525 18.5996 102.709 16.7445C103.63 15.9614 104.651 15.2704 105.617 14.5411C105.667 14.627 105.717 14.7131 105.77 14.7975C106.682 16.258 107.904 17.5296 109.65 17.9082C110.741 18.1448 111.935 17.9649 112.876 17.3532C113.774 16.7703 114.34 15.8308 114.556 14.7928C114.939 12.9499 114.17 11.5574 113.221 10.0744C116.865 8.40701 120.998 7.37995 124.994 7.08623C124.936 7.43299 124.873 7.79185 124.864 8.14383C124.83 9.46546 125.312 10.6699 126.237 11.6153C127.079 12.4747 128.217 12.9733 129.425 12.9602C129.496 12.959 129.566 12.9561 129.636 12.9515C129.706 12.9469 129.775 12.9405 129.845 12.9324C129.915 12.9243 129.984 12.9145 130.053 12.903C130.123 12.8914 130.191 12.8782 130.26 12.8632C130.328 12.8483 130.397 12.8317 130.464 12.8133C130.532 12.795 130.599 12.775 130.666 12.7533C130.733 12.7317 130.799 12.7084 130.864 12.6835C130.93 12.6585 130.995 12.632 131.059 12.6038C131.123 12.5757 131.187 12.5459 131.25 12.5146C131.312 12.4833 131.374 12.4505 131.435 12.4161C131.496 12.3817 131.557 12.3459 131.616 12.3085C131.675 12.2711 131.734 12.2323 131.791 12.1921C131.849 12.1518 131.905 12.1101 131.961 12.0671C132.016 12.024 132.07 11.9796 132.123 11.9339C132.177 11.8881 132.229 11.8411 132.279 11.7928C132.33 11.7444 132.38 11.6949 132.428 11.6441C133.82 10.1883 133.708 8.82102 133.69 6.95508Z" fill="black"/>
<path d="M131.267 20.6382C136.696 20.9585 141.972 23.3723 145.938 27.0588C150.45 31.2517 153.281 36.9145 153.506 43.1135C151.394 43.0969 149.282 43.0911 147.17 43.0961C146.645 40.0793 145.78 37.4929 144.103 34.9081C141.991 31.6527 138.645 29.0969 134.98 27.833C133.765 27.4141 132.508 27.1637 131.254 26.8957C131.237 24.8098 131.242 22.724 131.267 20.6382Z" fill="white"/>
<path d="M109.41 46.8746C110.16 46.8653 110.911 46.8733 111.661 46.8984C112 49.7592 113.211 52.5361 114.843 54.8891C117.913 59.3135 122.398 61.4159 127.56 62.3351L127.525 68.8786C126.247 68.7636 124.98 68.5706 123.726 68.2993C119.982 67.3295 116.615 65.724 113.634 63.2384C113.482 63.1127 113.331 62.9851 113.182 62.8557C113.033 62.7264 112.886 62.5953 112.74 62.4622C112.594 62.3293 112.45 62.1945 112.308 62.058C112.165 61.9214 112.024 61.7831 111.885 61.6432C111.746 61.5032 111.609 61.3615 111.473 61.2182C111.338 61.0749 111.204 60.9298 111.072 60.7832C110.94 60.6366 110.81 60.4883 110.681 60.3385C110.553 60.1887 110.426 60.0373 110.302 59.8844C110.177 59.7314 110.054 59.5769 109.933 59.421C109.812 59.2651 109.693 59.1077 109.576 58.9488C109.459 58.7899 109.344 58.6296 109.231 58.468C109.118 58.3063 109.007 58.1431 108.898 57.9787C108.789 57.8143 108.682 57.6486 108.577 57.4816C108.472 57.3145 108.369 57.1462 108.268 56.9766C108.167 56.8071 108.068 56.6363 107.972 56.4642C107.875 56.2922 107.78 56.119 107.688 55.9447C107.595 55.7704 107.505 55.595 107.417 55.4184C107.329 55.2419 107.243 55.0643 107.159 54.8858C107.075 54.7071 106.994 54.5274 106.914 54.3467C106.835 54.1661 106.758 53.9845 106.683 53.8019C106.608 53.6193 106.535 53.4359 106.465 53.2517C106.394 53.0673 106.326 52.8822 106.26 52.6963C106.195 52.5102 106.131 52.3234 106.07 52.1359C106.008 51.9483 105.95 51.76 105.893 51.571C105.836 51.382 105.782 51.1923 105.73 51.0019C105.678 50.8116 105.628 50.6207 105.581 50.4291C105.533 50.2376 105.489 50.0455 105.446 49.8529C105.403 49.6602 105.363 49.467 105.325 49.2733C105.287 49.0797 105.252 48.8856 105.219 48.691C105.186 48.4966 105.155 48.3017 105.126 48.1065C105.098 47.9112 105.072 47.7156 105.049 47.5196C105.025 47.3237 105.004 47.1276 104.985 46.9311L109.41 46.8746Z" fill="white"/>
<path d="M147.106 47.0112C149.273 47.0053 151.44 46.9579 153.608 46.9813C153.357 50.0351 152.615 53.0968 151.246 55.8501C148.299 61.7745 143.029 65.8512 136.833 67.9138C134.993 68.4731 133.187 68.8131 131.271 68.9663L131.262 62.2407C133.972 62.061 136.909 60.982 139.167 59.4901C143.835 56.4055 146.024 52.3944 147.106 47.0112Z" fill="white"/>
<path d="M127.544 20.5664C127.654 20.5677 127.58 20.5593 127.753 20.6437C127.851 21.3175 127.788 22.0702 127.79 22.7564L127.795 26.8971C124.696 27.366 121.537 28.4279 118.971 30.2591C115.973 32.3985 113.449 35.5736 112.348 39.114C111.943 40.4177 111.738 41.7647 111.518 43.1088L105.196 43.115C105.03 43.0821 105.108 43.1221 104.978 42.9687C104.953 42.3289 105.1 41.6455 105.192 41.0106C105.804 36.7829 107.609 32.5432 110.387 29.2679C110.521 29.1115 110.656 28.9568 110.794 28.8038C110.931 28.6508 111.07 28.4994 111.212 28.3499C111.353 28.2003 111.496 28.0524 111.641 27.9063C111.785 27.7602 111.932 27.6159 112.08 27.4735C112.229 27.3311 112.379 27.1905 112.531 27.0517C112.682 26.913 112.836 26.7761 112.991 26.641C113.146 26.506 113.303 26.373 113.462 26.242C113.62 26.1108 113.78 25.9817 113.942 25.8545C114.104 25.7274 114.267 25.6022 114.431 25.479C114.596 25.3559 114.762 25.2348 114.93 25.1157C115.098 24.9967 115.267 24.8798 115.438 24.7648C115.608 24.6499 115.78 24.5372 115.954 24.4266C116.127 24.3159 116.302 24.2075 116.478 24.1012C116.654 23.9948 116.831 23.8906 117.01 23.7887C117.189 23.6867 117.368 23.5869 117.55 23.4894C117.731 23.3919 117.913 23.2966 118.096 23.2036C118.28 23.1105 118.464 23.0197 118.65 22.9313C118.836 22.8428 119.022 22.7566 119.21 22.6727C119.398 22.5888 119.587 22.5073 119.777 22.428C119.966 22.3488 120.157 22.2719 120.349 22.1973C120.541 22.1228 120.733 22.0507 120.927 21.981C121.12 21.9112 121.314 21.8438 121.509 21.7787C121.705 21.7138 121.901 21.6512 122.097 21.591C122.294 21.5309 122.491 21.4731 122.689 21.4178C122.888 21.3625 123.086 21.3097 123.286 21.2592C123.485 21.2089 123.685 21.1609 123.886 21.1154C124.086 21.0699 124.287 21.0269 124.489 20.9864C124.691 20.9459 124.893 20.9078 125.095 20.8723C125.298 20.8369 125.501 20.8039 125.705 20.7733C125.908 20.7427 126.112 20.7147 126.316 20.6892C126.52 20.6637 126.724 20.6408 126.929 20.6203C127.134 20.5998 127.338 20.5818 127.544 20.5664Z" fill="white"/>
<path d="M128.461 30.8706C128.488 30.8661 128.515 30.8606 128.542 30.8572C131.589 30.4788 135.302 31.8447 137.681 33.6912C137.861 33.8308 138.036 33.9746 138.208 34.1226C138.381 34.2707 138.549 34.4229 138.714 34.5793C138.878 34.7356 139.039 34.8959 139.196 35.0601C139.353 35.2243 139.506 35.3922 139.654 35.5638C139.803 35.7355 139.947 35.9107 140.087 36.0894C140.227 36.2682 140.363 36.4502 140.494 36.6355C140.625 36.8209 140.752 37.0093 140.874 37.2007C140.996 37.3923 141.113 37.5868 141.226 37.7841C141.338 37.9812 141.446 38.1811 141.548 38.3837C141.651 38.5862 141.749 38.7911 141.842 38.9983C141.934 39.2057 142.022 39.4151 142.104 39.6266C142.187 39.8382 142.264 40.0517 142.336 40.267C142.408 40.4824 142.475 40.6994 142.536 40.918C142.598 41.1365 142.654 41.3565 142.704 41.578C142.755 41.7993 142.8 42.0217 142.84 42.2452C142.88 42.4688 142.914 42.6932 142.943 42.9184C143.381 46.5846 142.515 50.1732 140.214 53.0932C137.755 56.2129 134.379 57.8413 130.479 58.2889C130.267 58.3049 130.055 58.3159 129.843 58.3221C129.631 58.3283 129.419 58.3296 129.206 58.326C128.994 58.3225 128.782 58.3141 128.57 58.3008C128.358 58.2874 128.147 58.2692 127.935 58.2462C127.724 58.2231 127.514 58.1952 127.304 58.1625C127.094 58.1298 126.886 58.0923 126.677 58.05C126.469 58.0076 126.262 57.9605 126.057 57.9087C125.851 57.8568 125.646 57.8002 125.443 57.739C125.24 57.6777 125.038 57.6118 124.838 57.5413C124.637 57.4707 124.439 57.3956 124.242 57.316C124.045 57.2362 123.85 57.152 123.657 57.0634C123.464 56.9748 123.274 56.8818 123.085 56.7844C122.896 56.6868 122.71 56.5851 122.526 56.4792C122.342 56.3731 122.161 56.2629 121.982 56.1486C121.803 56.0343 121.627 55.9159 121.453 55.7935C121.28 55.6711 121.109 55.5447 120.941 55.4144C120.852 55.3467 120.763 55.2779 120.675 55.208C120.586 55.138 120.499 55.067 120.413 54.9949C120.327 54.9228 120.241 54.8495 120.157 54.7752C120.072 54.701 119.989 54.6257 119.906 54.5493C119.824 54.4729 119.742 54.3955 119.662 54.317C119.581 54.2387 119.501 54.1593 119.423 54.0789C119.344 53.9984 119.267 53.917 119.19 53.8347C119.113 53.7522 119.038 53.6689 118.963 53.5846C118.889 53.5004 118.815 53.4152 118.743 53.329C118.671 53.2429 118.6 53.1559 118.529 53.0679C118.459 52.98 118.39 52.8912 118.322 52.8015C118.254 52.7119 118.188 52.6215 118.122 52.5301C118.057 52.4388 117.992 52.3466 117.929 52.2536C117.865 52.1607 117.803 52.0669 117.742 51.9724C117.681 51.8779 117.622 51.7827 117.563 51.6866C117.505 51.5906 117.447 51.4939 117.391 51.3963C117.335 51.2988 117.28 51.2007 117.226 51.1018C117.173 51.003 117.12 50.9035 117.069 50.8034C117.018 50.7032 116.968 50.6023 116.92 50.5009C116.871 50.3995 116.824 50.2975 116.778 50.1949C116.732 50.0922 116.687 49.9891 116.643 49.8854C116.6 49.7816 116.558 49.6774 116.517 49.5726C116.476 49.4678 116.437 49.3624 116.399 49.2566C116.36 49.1508 116.324 49.0446 116.288 48.9379C116.253 48.8312 116.218 48.724 116.186 48.6164C116.153 48.5088 116.122 48.4009 116.091 48.2926C116.061 48.1842 116.033 48.0754 116.005 47.9663C115.978 47.8572 115.952 47.7478 115.927 47.638C115.903 47.5283 115.88 47.4182 115.858 47.3079C115.836 47.1976 115.815 47.087 115.796 46.9761C115.777 46.8653 115.76 46.7543 115.743 46.643C115.727 46.5316 115.712 46.4201 115.699 46.3085C115.674 46.0864 115.654 45.8638 115.64 45.6408C115.626 45.4177 115.618 45.1943 115.615 44.9707C115.611 44.7473 115.614 44.5238 115.622 44.3005C115.63 44.077 115.643 43.854 115.662 43.6313C115.681 43.4086 115.705 43.1864 115.735 42.9648C115.765 42.7432 115.8 42.5226 115.841 42.3028C115.881 42.083 115.928 41.8643 115.979 41.6467C116.03 41.4292 116.087 41.2131 116.149 40.9984C116.211 40.7837 116.278 40.5706 116.351 40.3591C116.423 40.1477 116.501 39.9381 116.584 39.7304C116.667 39.5228 116.755 39.3174 116.848 39.114C116.941 38.9108 117.038 38.71 117.141 38.5115C117.244 38.3129 117.352 38.1171 117.464 37.9239C117.577 37.7308 117.694 37.5405 117.815 37.353C117.937 37.1656 118.064 36.9813 118.195 36.8001C118.325 36.6188 118.461 36.4409 118.6 36.2664C121.158 33.0531 124.407 31.3238 128.461 30.8706Z" fill="white"/>
<path d="M122.955 42.4077C125.492 42.346 128.035 42.44 130.573 42.4331C132.108 42.429 133.715 42.2865 135.242 42.4034C135.668 42.4361 136.085 42.5259 136.466 42.7258C136.533 42.7609 136.599 42.7993 136.663 42.841C136.727 42.8826 136.788 42.9274 136.848 42.9754C136.907 43.0232 136.964 43.0739 137.018 43.1275C137.072 43.181 137.123 43.2373 137.172 43.2962C137.22 43.3549 137.266 43.416 137.308 43.4792C137.35 43.5426 137.389 43.608 137.425 43.6753C137.461 43.7426 137.493 43.8115 137.522 43.8821C137.551 43.9527 137.576 44.0245 137.598 44.0976C137.62 44.1713 137.638 44.2459 137.652 44.3213C137.667 44.3968 137.677 44.4728 137.684 44.5494C137.691 44.6259 137.694 44.7026 137.693 44.7795C137.692 44.8564 137.687 44.933 137.679 45.0093C137.67 45.0858 137.658 45.1615 137.642 45.2367C137.625 45.3118 137.605 45.3859 137.581 45.459C137.558 45.5322 137.53 45.604 137.5 45.6742C137.469 45.7446 137.434 45.8133 137.396 45.8802C137.02 46.5409 136.519 46.8162 135.806 47.0058C133.4 47.11 130.957 47.0305 128.548 47.0332C126.872 47.035 125.096 47.1597 123.429 47.0062C123.013 46.9678 122.604 46.875 122.224 46.6964C121.692 46.4458 121.192 46.0336 121.008 45.4555C120.807 44.8195 121.004 44.0471 121.331 43.4867C121.708 42.8412 122.262 42.5971 122.955 42.4077Z" fill="black"/>
<path d="M52.5622 56.114C54.248 56.0217 55.9632 56.0681 57.6522 56.0804C68.7053 56.1607 92.2307 57.9493 100.583 65.4253C101.892 66.5967 102.804 68.0446 102.879 69.8406C102.936 71.1821 102.279 72.4726 102.253 74.0763C102.174 79.101 102.223 84.1354 102.214 89.1611C102.211 90.9122 102.38 94.0726 102.131 95.6806C101.959 96.7945 101.437 97.6284 100.671 98.4285C98.8763 100.302 96.4113 101.388 94.04 102.331C83.8733 106.375 70.9778 107.5 60.0521 107.787C47.5085 107.989 34.7343 107.3 22.6348 103.748C18.9644 102.671 14.6478 101.123 11.7683 98.5483C10.6063 97.5093 9.75792 96.3341 9.67895 94.7283C9.59374 92.9958 9.67443 91.2245 9.68096 89.4889L9.71124 79.1611L9.6825 72.5784C9.67637 71.3438 9.55569 69.9881 9.76977 68.775C9.92538 67.8931 10.4512 67.1461 11.0488 66.499C12.5169 64.9093 14.4033 63.8835 16.3256 62.9521C19.495 61.4167 22.8988 60.3777 26.3042 59.5112C34.918 57.3194 43.7009 56.4586 52.5622 56.114Z" fill="black"/>
<path d="M18.9771 81.8706C19.8915 82.0563 20.812 82.4946 21.6813 82.8339C22.7048 83.2333 23.7195 83.588 24.7758 83.893L24.8307 89.5267C24.8389 90.4338 24.9555 91.5185 24.7811 92.4056C22.8154 91.7299 20.8561 91.0399 18.9818 90.1345L18.9771 81.8706Z" fill="white"/>
<path d="M26.4248 84.2212C29.0023 84.8658 31.5608 85.4323 34.1754 85.9059C34.2691 88.8204 34.1914 91.761 34.153 94.6775C32.2946 94.4306 28.1291 93.5586 26.4692 92.8818L26.4248 84.2212Z" fill="white"/>
<path d="M35.4942 86.1204C38.32 86.5007 41.1386 86.8699 43.9758 87.1574C44.0396 90.07 43.9913 92.9935 43.995 95.9075C41.1641 95.7823 38.2492 95.3691 35.4586 94.8777C35.4525 91.9586 35.4643 89.0395 35.4942 86.1204Z" fill="white"/>
<path d="M54.862 60.3817C65.6416 60.1261 84.3685 61.7691 93.9759 66.3512C95.2104 66.9401 96.53 67.5856 97.5235 68.5452C98.1553 69.1552 98.6576 69.9671 98.6533 70.8712C98.6496 71.6264 98.2424 72.2653 97.7297 72.7886C93.0042 77.6105 75.423 79.6943 68.5265 80.2506C64.9459 80.5057 61.361 80.6571 57.7717 80.7047C46.3489 80.8767 30.369 79.3861 19.8918 75.1697C18.1016 74.4492 16.1576 73.6367 14.7151 72.3295C14.3072 71.96 13.794 71.4268 13.7935 70.8367C13.7929 70.2637 14.2187 69.7268 14.593 69.3334C16.183 67.6631 18.5897 66.6539 20.7108 65.8303C30.9957 61.837 43.8453 60.6782 54.862 60.3817Z" fill="white"/>
<path d="M83.2 68.0076C84.9245 69.3598 87.0673 70.1226 88.9904 71.1364C86.937 72.2559 82.3696 73.1864 80.0279 73.678C78.9684 73.8913 77.9061 74.09 76.841 74.2741C75.776 74.4582 74.7087 74.6277 73.6389 74.7826C72.5692 74.9375 71.4976 75.0777 70.4241 75.2031C69.3506 75.3286 68.2756 75.4394 67.1991 75.5355C66.1225 75.6316 65.0448 75.7129 63.9661 75.7793C62.8873 75.8458 61.8078 75.8975 60.7276 75.9345C59.6474 75.9715 58.5669 75.9936 57.4861 76.0008C56.4053 76.0081 55.3245 76.0007 54.2439 75.9784C53.1633 75.9561 52.0832 75.919 51.0036 75.8671C49.9241 75.8152 48.8454 75.7485 47.7676 75.667C46.6898 75.5856 45.6134 75.4894 44.5384 75.3784C43.4632 75.2675 42.3898 75.1418 41.3182 75.0014C40.2465 74.861 39.1769 74.7059 38.1096 74.5363C37.0421 74.3666 35.9772 74.1823 34.9148 73.9835C33.8524 73.7846 32.7929 73.5712 31.7364 73.3433C30.6799 73.1153 29.6267 72.873 28.5768 72.6162C26.6665 72.1463 24.7952 71.5535 22.9629 70.8378C25.2292 69.883 27.5555 69.007 29.8599 68.1455C32.7601 69.1561 35.8198 69.7355 38.8448 70.2246C40.2742 70.4461 41.7071 70.6412 43.1435 70.8101C44.58 70.9789 46.019 71.1214 47.4607 71.2375C48.9023 71.3535 50.3457 71.4431 51.7906 71.5063C53.2356 71.5694 54.6813 71.606 56.1277 71.6161C57.574 71.6262 59.02 71.6098 60.4657 71.5669C61.9113 71.524 63.3558 71.4545 64.799 71.3586C66.2422 71.2626 67.6831 71.1402 69.1217 70.9915C70.5604 70.8427 71.9958 70.6676 73.4281 70.4662C76.6483 69.9897 80.237 69.3996 83.2 68.0076Z" fill="black"/>
</g>
<defs>
<clipPath id="clip0_280_262">
<rect width="182" height="182" rx="35" fill="white"/>
</clipPath>
</defs>
</svg>
