<svg width="52" height="52" viewBox="0 0 52 52" fill="none" xmlns="http://www.w3.org/2000/svg">
<g clip-path="url(#clip0_227_722)">
<path d="M0 0H52V52H0V0Z" fill="white"/>
<path d="M25.7851 1.60572C25.9322 1.59511 26.074 1.5916 26.2206 1.61162C27.358 1.76691 28.1964 2.87484 28.8533 3.72602C29.4578 3.22205 30.2266 2.7855 30.9959 2.60444C31.5348 2.4776 32.0647 2.49522 32.5426 2.79888C33.4967 3.40504 33.7909 4.68549 34.0244 5.71006C34.8423 5.46732 35.7893 5.16761 36.6472 5.34641C37.0889 5.43848 37.4646 5.68208 37.7108 6.06273C38.3115 6.99147 38.0354 8.28923 37.8114 9.29313C38.6831 9.30405 39.6577 9.40652 40.3845 9.93678C40.7777 10.2236 41.0574 10.6142 41.129 11.102C41.2683 12.0519 40.6593 13.0706 40.1209 13.8007C40.8466 14.2016 41.6389 14.7819 42.0361 15.5302C42.2405 15.9152 42.3307 16.345 42.1977 16.7712C41.9109 17.6905 40.865 18.2359 40.0716 18.649C40.3256 18.8929 40.5797 19.1364 40.734 19.4584C40.8825 19.7684 40.9029 20.0652 40.7908 20.3878C40.8694 20.4656 40.9481 20.5438 41.023 20.6253C41.6373 21.2946 41.9705 22.1436 41.9215 23.0544C41.8567 24.2582 41.2236 25.5767 40.3269 26.3814C39.7921 26.8614 39.0809 27.2945 38.3557 27.3858C38.0714 27.4215 37.7862 27.4056 37.5012 27.3914C36.814 29.3961 35.7955 31.2123 34.3458 32.7683C33.9811 33.1598 33.5787 33.5083 33.1996 33.8846C34.3232 34.2658 35.3722 34.7663 36.3348 35.4665C37.3731 36.2219 37.9662 37.0115 38.1696 38.2886C39.4598 39.0717 40.8118 39.7574 41.9556 40.7555C44.0806 42.6098 45.6946 45.1675 46.5528 47.8473C46.7143 48.3515 46.9161 48.9487 46.9448 49.4766C46.9552 49.6671 46.9249 49.8905 46.786 50.0333C46.7737 50.0459 46.7608 50.0578 46.7475 50.0692C46.7341 50.0806 46.7203 50.0913 46.706 50.1015C46.6917 50.1117 46.6769 50.1212 46.6617 50.13C46.6466 50.1389 46.6311 50.1471 46.6152 50.1546C46.5994 50.1621 46.5832 50.1689 46.5667 50.1749C46.5502 50.181 46.5335 50.1864 46.5166 50.1909C46.4996 50.1955 46.4825 50.1994 46.4652 50.2025C46.448 50.2056 46.4306 50.2079 46.4131 50.2095C45.8106 50.2683 44.9709 50.2225 44.3385 50.2226L40.1135 50.2221L26.565 50.22L10.9774 50.2215L7.51946 50.2227C6.9797 50.2225 5.87475 50.2842 5.40599 50.153C5.29793 50.1228 5.20338 50.0021 5.15173 49.9076C4.94767 49.5344 5.15331 48.9223 5.25675 48.5309C5.28488 48.4247 5.31411 48.3189 5.34445 48.2133C5.37478 48.1077 5.4062 48.0025 5.4387 47.8976C5.47123 47.7927 5.50485 47.6882 5.53955 47.5839C5.57425 47.4797 5.61002 47.3759 5.64685 47.2724C5.68372 47.169 5.72165 47.0659 5.76065 46.9632C5.79965 46.8606 5.8397 46.7583 5.8808 46.6564C5.92193 46.5546 5.96411 46.4532 6.00734 46.3523C6.05058 46.2513 6.09486 46.1508 6.14019 46.0507C6.18549 45.9507 6.23183 45.8511 6.27923 45.7521C6.32662 45.653 6.37505 45.5544 6.42451 45.4563C6.47394 45.3583 6.52438 45.2607 6.57584 45.1637C6.62733 45.0667 6.67981 44.9702 6.73326 44.8743C6.78675 44.7783 6.84122 44.683 6.89668 44.5882C6.95213 44.4934 7.00857 44.3992 7.06598 44.3055C7.1234 44.2119 7.1818 44.1189 7.24118 44.0265C7.30052 43.9341 7.36082 43.8423 7.42206 43.7512C7.48334 43.66 7.54554 43.5695 7.60868 43.4796C7.67182 43.3897 7.73589 43.3005 7.80089 43.212C7.86589 43.1235 7.9318 43.0356 7.99863 42.9485C8.06546 42.8613 8.13318 42.7749 8.20181 42.6891C8.27043 42.6034 8.33993 42.5183 8.41031 42.434C8.4807 42.3497 8.55196 42.2661 8.6241 42.1833C8.69621 42.1005 8.76918 42.0184 8.84302 41.9371C8.91686 41.8558 8.99154 41.7753 9.06707 41.6955C9.14256 41.6158 9.21889 41.5368 9.29604 41.4586C9.37319 41.3805 9.45116 41.3031 9.52994 41.2266C9.60868 41.15 9.68822 41.0743 9.76856 40.9994C9.8489 40.9245 9.92999 40.8505 10.0119 40.7772C10.0937 40.7041 10.1764 40.6317 10.2598 40.5602C10.3431 40.4887 10.4273 40.4181 10.5121 40.3484C10.5969 40.2787 10.6825 40.2098 10.7688 40.1418C10.8551 40.0739 10.942 40.0068 11.0297 39.9407C11.8901 39.2982 12.8571 38.7557 13.7855 38.216C13.811 37.8398 13.8549 37.4829 14.0126 37.1363C14.6907 35.6453 17.2366 34.4314 18.7088 33.8863C16.6739 32.0006 15.4225 29.9643 14.5492 27.3393C14.3673 27.3533 14.1856 27.3648 14.003 27.3629C12.9691 27.3524 11.9627 26.8789 11.2485 26.1397C11.222 26.1117 11.1959 26.0835 11.1701 26.0548C11.1443 26.0262 11.1188 25.9973 11.0937 25.9681C11.0687 25.9389 11.044 25.9093 11.0197 25.8795C10.9953 25.8496 10.9713 25.8195 10.9477 25.7891C10.9241 25.7586 10.9009 25.7279 10.8781 25.6969C10.8552 25.6659 10.8328 25.6346 10.8107 25.603C10.7886 25.5714 10.7669 25.5396 10.7456 25.5075C10.7244 25.4754 10.7035 25.4431 10.683 25.4104C10.6625 25.3778 10.6425 25.345 10.6228 25.3119C10.6031 25.2787 10.5839 25.2454 10.565 25.2118C10.5462 25.1782 10.5277 25.1444 10.5097 25.1104C10.4917 25.0763 10.4741 25.0421 10.457 25.0076C10.4398 24.9731 10.423 24.9384 10.4067 24.9035C10.3904 24.8686 10.3745 24.8335 10.3591 24.7983C10.3437 24.763 10.3287 24.7275 10.3141 24.6918C10.2995 24.6562 10.2854 24.6204 10.2717 24.5844C10.258 24.5484 10.2448 24.5122 10.232 24.4759C10.2192 24.4395 10.2069 24.4031 10.195 24.3664C10.1831 24.3298 10.1717 24.293 10.1607 24.2561C10.1497 24.2192 10.1392 24.1821 10.1292 24.145C10.1191 24.1078 10.1095 24.0705 10.1003 24.033C10.0912 23.9956 10.0825 23.9581 10.0743 23.9205C10.0661 23.8829 10.0583 23.8451 10.0511 23.8073C10.0438 23.7695 10.037 23.7316 10.0306 23.6936C10.0243 23.6556 10.0184 23.6176 10.013 23.5794C10.0076 23.5413 10.0026 23.5031 9.99814 23.4649C9.99371 23.4266 9.98973 23.3883 9.98621 23.3499C9.98269 23.3116 9.97964 23.2732 9.97707 23.2348C9.97449 23.1963 9.9724 23.1579 9.97077 23.1194C9.96915 23.0809 9.96801 23.0424 9.96737 23.0039C9.96669 22.9654 9.96649 22.9269 9.96676 22.8884C9.96706 22.8499 9.96783 22.8114 9.96904 22.7729C9.99403 21.807 10.3672 20.9983 11.0644 20.3353C11.0324 20.1882 11.0095 20.0368 11.0111 19.8858C11.0177 19.2892 11.3599 18.8897 11.7598 18.4922C11.0494 18.172 10.2866 17.8213 9.90125 17.0999C9.69543 16.7148 9.66045 16.2782 9.78745 15.8619C10.0733 14.9245 11.0854 14.2331 11.906 13.8009C11.4446 13.057 10.9226 12.2451 10.8932 11.3418C10.8789 10.9039 11.0119 10.4849 11.3176 10.1648C12.0562 9.3917 13.3168 9.36082 14.3119 9.34462C14.064 8.55523 13.8344 7.66671 14.0377 6.84238C14.1585 6.35274 14.4471 5.92095 14.8841 5.66136C15.7694 5.13531 16.99 5.42482 17.9228 5.66633C18.0762 4.91694 18.3187 4.13432 18.7646 3.50425C19.1061 3.0217 19.5725 2.65922 20.1667 2.56391C21.2478 2.39048 22.3154 3.14737 23.138 3.75034C23.8356 2.85048 24.5956 1.82256 25.7851 1.60572Z" fill="black"/>
<path d="M17.0852 10.6641C17.1936 10.9184 17.2044 11.2452 17.2808 11.5161C17.5405 12.4372 17.9845 13.3892 18.6159 14.1157C18.3864 14.2847 17.7842 15.0116 17.6544 15.0696L17.6023 15.0352C16.8221 14.2169 16.2907 13.2372 15.9264 12.1736C16.0983 11.9064 16.2809 11.6467 16.4744 11.3947C16.6678 11.1427 16.8714 10.8991 17.0852 10.6641Z" fill="white"/>
<path d="M34.8719 10.55C35.2098 10.7842 35.9064 11.7797 36.1721 12.1554C35.9522 12.5766 35.7795 13.0232 35.5633 13.4469C35.2805 14.0009 34.9334 14.4991 34.5727 15.0045L34.4034 15.2316C34.0984 14.8513 33.8042 14.448 33.4379 14.1244C34.2433 13.1488 34.7414 11.7989 34.8719 10.55Z" fill="white"/>
<path d="M19.899 8.50952C19.7767 10.3132 20.0234 11.5888 21.0242 13.1217C20.5182 13.0954 20.1239 13.1928 19.6506 13.3505C19.4647 13.1547 19.3184 12.9008 19.19 12.6651C18.652 11.678 18.3895 10.593 18.3583 9.4733C18.8797 9.1648 19.3726 8.81137 19.899 8.50952Z" fill="white"/>
<path d="M32.0705 8.50635C32.6195 8.79585 33.1272 9.15361 33.6435 9.49607C33.5247 11.0656 33.1991 12.0434 32.3448 13.3628C31.8225 13.1836 31.3785 13.1138 30.8273 13.1199C31.5823 12.1792 32.0618 10.8652 32.1217 9.66812C32.1412 9.27868 32.1035 8.89371 32.0705 8.50635Z" fill="white"/>
<path d="M32.3383 38.0161C32.5276 38.0682 32.7116 38.1395 32.896 38.2067C32.8164 38.5031 32.7261 38.7948 32.6094 39.079C31.965 40.6489 30.5922 41.7686 29.0544 42.4017C27.0594 43.223 24.7269 43.1574 22.7503 42.3218C21.2576 41.6906 19.9863 40.575 19.373 39.0566C19.2719 38.7813 19.1857 38.5188 19.1566 38.2259C19.3052 38.1657 19.4607 38.1246 19.6146 38.0797C19.7363 38.568 19.8681 39.0373 20.1298 39.4724C20.9697 40.8686 22.4374 41.795 24.0023 42.1725C25.9135 42.6334 28.178 42.4442 29.8675 41.3971C31.1578 40.5973 31.9967 39.4952 32.3383 38.0161Z" fill="white"/>
<path d="M13.0458 20.6268C13.3 20.5968 13.5663 20.6266 13.8208 20.6455C13.8161 21.3395 13.8519 22.0313 13.9281 22.7211C13.7228 22.3617 13.3929 21.9636 13.0103 21.7875C12.7889 21.6855 12.5355 21.6553 12.3048 21.7457C11.9876 21.8699 11.843 22.1462 11.7157 22.439L11.7344 22.4149C11.8784 22.2307 12.0498 22.009 12.3026 21.9878C12.5544 21.9667 12.777 22.1517 12.956 22.3061C12.724 22.5875 12.5325 22.8703 12.4197 23.2204C12.4086 23.2538 12.3983 23.2875 12.3889 23.3215C12.3794 23.3554 12.3709 23.3896 12.3631 23.424C12.3554 23.4583 12.3484 23.4929 12.3424 23.5276C12.3363 23.5623 12.3311 23.5972 12.3268 23.6321C12.3225 23.6671 12.319 23.7022 12.3164 23.7373C12.3138 23.7725 12.312 23.8077 12.3112 23.8429C12.3103 23.8781 12.3103 23.9134 12.3112 23.9486C12.312 23.9838 12.3137 24.019 12.3163 24.0542C12.3189 24.0893 12.3224 24.1244 12.3267 24.1593C12.331 24.1943 12.3362 24.2292 12.3423 24.2639C12.3483 24.2986 12.3552 24.3332 12.363 24.3676C12.3707 24.4019 12.3793 24.4361 12.3887 24.4701C12.3981 24.504 12.4084 24.5377 12.4195 24.5712C12.4306 24.6046 12.4425 24.6378 12.4552 24.6707C12.4679 24.7035 12.4814 24.7361 12.4957 24.7683C12.5101 24.8005 12.5252 24.8323 12.5411 24.8637C12.5182 24.7364 12.4983 24.6067 12.4897 24.4776C12.4414 23.754 12.647 23.1742 13.1236 22.6349C13.183 22.7334 13.2351 22.8374 13.2898 22.9387C13.8214 23.9921 14.0516 25.1634 14.3133 26.3051C13.5999 26.3306 12.9612 26.1741 12.3893 25.7306C11.6559 25.1617 11.1763 24.2293 11.0639 23.3141C10.9862 22.6821 11.1122 21.9954 11.5133 21.487C11.5365 21.4574 11.5604 21.4284 11.585 21.3999C11.6096 21.3715 11.6349 21.3437 11.6609 21.3166C11.6868 21.2894 11.7134 21.2629 11.7407 21.237C11.768 21.2112 11.7959 21.186 11.8245 21.1615C11.853 21.1371 11.8821 21.1133 11.9118 21.0902C11.9415 21.0672 11.9718 21.0449 12.0026 21.0234C12.0334 21.0018 12.0647 20.9811 12.0965 20.9611C12.1284 20.9411 12.1607 20.9219 12.1934 20.9035C12.2262 20.8851 12.2594 20.8675 12.2931 20.8507C12.3267 20.834 12.3608 20.8181 12.3952 20.803C12.4296 20.7879 12.4644 20.7737 12.4996 20.7603C12.5347 20.747 12.5701 20.7345 12.6059 20.7229C12.6416 20.7113 12.6777 20.7006 12.714 20.6907C12.7502 20.6809 12.7867 20.6719 12.8234 20.6639C12.8602 20.6559 12.8971 20.6488 12.9341 20.6426C12.9712 20.6364 13.0084 20.6311 13.0458 20.6268Z" fill="white"/>
<path d="M38.3343 20.6544C38.5897 20.6404 38.8468 20.6238 39.1013 20.6586C39.6698 20.7364 40.1916 21.0654 40.5342 21.5223C40.9213 22.0387 41.0306 22.6814 40.9385 23.311C40.7937 24.3003 40.192 25.319 39.3903 25.9168C38.8764 26.3 38.3651 26.5098 37.7211 26.4157C37.8203 25.5841 38.0349 24.7628 38.2288 23.9493C38.2841 23.6566 38.3618 23.2398 38.519 22.9879C38.5647 22.9147 38.6341 22.838 38.7259 22.8308C38.8043 22.8246 38.8812 22.8733 38.9342 22.9267C39.3024 23.2978 39.3141 23.9419 39.3102 24.4277C39.4306 24.1078 39.5405 23.7685 39.5263 23.422C39.5067 22.9478 39.2925 22.6173 38.9525 22.3023C39.0956 22.2139 39.242 22.1457 39.4096 22.1189C39.764 22.062 40.0267 22.227 40.301 22.4228C40.1247 22.1652 39.9112 21.9174 39.6093 21.8067C39.3593 21.715 39.0756 21.7457 38.8408 21.8667C38.4149 22.086 38.2627 22.5019 38.1291 22.9285C38.1476 22.6954 38.1846 20.7416 38.2148 20.691C38.2319 20.6624 38.302 20.6606 38.3343 20.6544Z" fill="white"/>
<path d="M14.4955 43.2517C14.8585 43.5155 15.1998 43.9228 15.5635 44.217C16.6114 45.0645 17.6985 45.8049 18.857 46.4911C18.8511 46.9414 18.9236 48.8954 18.8169 49.1923C18.7926 49.2086 18.778 49.2198 18.7498 49.2321C18.6029 49.2958 15.3147 49.2771 14.8798 49.2597C14.7794 49.2557 14.6882 49.2427 14.5934 49.2077C14.5269 49.1219 14.5154 48.9592 14.5074 48.8518C14.4609 48.2356 14.4976 47.5943 14.4968 46.9745L14.4955 43.2517Z" fill="white"/>
<path d="M37.4984 43.2473C37.5013 43.2577 37.5056 43.2678 37.5073 43.2784C37.5419 43.4926 37.5172 43.7553 37.5175 43.9744L37.5157 45.5278C37.5134 46.2642 37.5164 47.0006 37.5249 47.7369C37.5273 48.121 37.5432 48.5112 37.5254 48.8949C37.5203 49.0053 37.5127 49.1253 37.4565 49.2224C37.213 49.3046 33.6067 49.3007 33.2072 49.2537C33.1585 49.1974 33.1377 49.1536 33.1282 49.0805C33.0875 48.7689 33.1221 48.4317 33.1247 48.1167C33.1291 47.5834 33.1226 47.0495 33.1217 46.5162C34.718 45.6779 36.2185 44.5144 37.4984 43.2473Z" fill="white"/>
<path d="M32.3541 34.656C33.6927 35.1276 35.1283 35.7614 36.1896 36.7246C36.8908 37.361 37.1008 37.9282 37.1485 38.8517C37.8756 39.337 38.6554 39.7378 39.3802 40.226C39.0634 40.7312 38.6643 41.1931 38.2742 41.6421C38.1471 41.7859 38.018 41.9279 37.8871 42.0681C37.7561 42.2084 37.6232 42.3468 37.4884 42.4834C37.3537 42.62 37.217 42.7548 37.0786 42.8876C36.9402 43.0206 36.7999 43.1515 36.6579 43.2806C36.5158 43.4096 36.3721 43.5367 36.2266 43.6619C36.0811 43.787 35.9339 43.9101 35.785 44.0312C35.6361 44.1523 35.4856 44.2714 35.3335 44.3883C35.1814 44.5053 35.0277 44.6202 34.8724 44.733C34.7172 44.8458 34.5604 44.9565 34.4022 45.065C34.2439 45.1735 34.0841 45.2798 33.9229 45.384C33.7618 45.4881 33.5992 45.5901 33.4352 45.6898C33.2712 45.7895 33.1059 45.8869 32.9393 45.9821C32.7727 46.0773 32.6048 46.1702 32.4356 46.2608C32.2664 46.3514 32.096 46.4397 31.9244 46.5256C31.7529 46.6116 31.5801 46.6952 31.4063 46.7764C31.2324 46.8576 31.0574 46.9365 30.8814 47.0129C29.8721 47.4983 28.663 47.7935 27.5754 48.0446C30.5783 46.2289 32.9737 42.6565 34.1136 39.3929C34.3152 38.8155 34.7289 37.464 34.7219 36.8902C34.7203 36.7574 34.6877 36.649 34.6294 36.5306C34.1856 35.6297 32.8877 35.2059 31.9948 34.9087L32.3541 34.656Z" fill="white"/>
<path d="M19.6046 34.707C19.7303 34.7171 19.8548 34.8548 19.9471 34.9352C19.1353 35.2366 17.9838 35.5658 17.5014 36.3402C17.2118 36.8052 17.4792 37.7986 17.5958 38.3197C18.3552 41.7123 20.8507 45.3316 23.5863 47.4513C23.8582 47.662 24.1285 47.8833 24.419 48.0675C23.2518 47.7625 22.2329 47.4579 21.1185 46.988C18.4829 45.9026 15.3569 43.5941 13.5583 41.3746C13.2367 40.9778 12.902 40.5565 12.6695 40.1006C13.1393 39.7712 13.6644 39.5018 14.1615 39.216C14.3909 39.0841 14.6718 38.954 14.8595 38.7666C14.834 38.3418 14.8068 37.975 14.986 37.5785C15.5825 36.2582 18.2963 35.191 19.6046 34.707Z" fill="white"/>
<path d="M31.2717 35.2925C31.2921 35.3163 31.6524 37.917 31.6472 38.0858C31.6254 38.7947 30.8701 39.7966 30.3646 40.2608C29.1283 41.3961 27.3499 41.8843 25.6956 41.8075C23.9709 41.7275 22.3482 41.1531 21.17 39.8519C21.0654 39.7359 20.9681 39.614 20.8782 39.4863C20.6333 39.1454 20.3713 38.6774 20.3213 38.2541C20.2865 37.9601 20.4166 37.4914 20.4652 37.1848C20.5561 36.5738 20.6527 35.9637 20.7549 35.3545C21.6941 35.8889 22.6473 36.3161 23.6966 36.5879C23.7597 36.6038 23.823 36.6191 23.8864 36.6337C23.9498 36.6483 24.0133 36.6623 24.077 36.6756C24.1407 36.6889 24.2046 36.7015 24.2685 36.7135C24.3325 36.7255 24.3966 36.7368 24.4607 36.7474C24.5249 36.7581 24.5892 36.7681 24.6536 36.7774C24.718 36.7867 24.7825 36.7953 24.8471 36.8033C24.9117 36.8113 24.9763 36.8186 25.0411 36.8252C25.1058 36.8319 25.1706 36.8379 25.2354 36.8431C25.3003 36.8484 25.3652 36.853 25.4302 36.857C25.4951 36.861 25.5601 36.8642 25.6251 36.8669C25.6901 36.8695 25.7551 36.8714 25.8202 36.8726C25.8852 36.8739 25.9503 36.8745 26.0154 36.8744C26.0805 36.8743 26.1455 36.8735 26.2106 36.8721C26.2756 36.8706 26.3407 36.8685 26.4057 36.8657C26.4707 36.8629 26.5356 36.8595 26.6006 36.8553C26.6655 36.8512 26.7304 36.8464 26.7953 36.8409C26.8601 36.8354 26.9249 36.8293 26.9896 36.8224C27.0543 36.8156 27.1189 36.8081 27.1835 36.7999C27.248 36.7918 27.3125 36.7829 27.3769 36.7735C27.4412 36.764 27.5055 36.7538 27.5697 36.7429C27.6338 36.7321 27.6979 36.7206 27.7618 36.7085C27.8257 36.6963 27.8895 36.6835 27.9532 36.67C28.0168 36.6565 28.0803 36.6424 28.1437 36.6276C28.207 36.6128 28.2703 36.5973 28.3333 36.5812C28.3964 36.5651 28.4592 36.5484 28.5219 36.5309C28.5846 36.5135 28.6471 36.4955 28.7095 36.4767C28.7718 36.4581 28.8339 36.4387 28.8958 36.4187C28.9577 36.3987 29.0194 36.3781 29.0809 36.3568C29.1424 36.3355 29.2037 36.3136 29.2648 36.2911C29.3258 36.2685 29.3866 36.2454 29.4471 36.2216C29.5077 36.1978 29.568 36.1733 29.628 36.1483C29.6881 36.1232 29.7479 36.0976 29.8074 36.0713C30.3167 35.8484 30.7929 35.574 31.2717 35.2925Z" fill="white"/>
<path d="M19.899 8.50967C20.3362 8.2221 20.9129 8.02288 21.4058 7.84799C21.5521 7.79521 21.6992 7.74496 21.8472 7.69722C21.9951 7.64952 22.1439 7.60439 22.2934 7.56184C22.443 7.51928 22.5932 7.47934 22.7441 7.442C22.895 7.40462 23.0466 7.36989 23.1987 7.33779C23.3508 7.30566 23.5034 7.27618 23.6566 7.24933C23.8098 7.22252 23.9633 7.19835 24.1173 7.17682C24.2713 7.15532 24.4256 7.13648 24.5802 7.1203C24.7349 7.10411 24.8897 7.09061 25.0448 7.07977C25.1999 7.06897 25.3552 7.06085 25.5106 7.0554C25.6659 7.04995 25.8214 7.04719 25.9769 7.04712C26.1323 7.04705 26.2878 7.04966 26.4431 7.05494C26.5985 7.06026 26.7538 7.06826 26.9089 7.07896C27.064 7.08962 27.2189 7.10298 27.3735 7.11903C27.5282 7.13507 27.6825 7.1538 27.8365 7.17519C27.9905 7.19655 28.1441 7.22059 28.2972 7.2473C28.4504 7.27398 28.6031 7.30331 28.7552 7.3353C29.1715 7.41913 29.5824 7.52377 29.9881 7.64923C30.3937 7.77473 30.792 7.92039 31.1828 8.08621C31.484 8.21621 31.7714 8.37353 32.0705 8.50652C32.1035 8.89388 32.1412 9.27886 32.1217 9.6683C32.0618 10.8654 31.5823 12.1793 30.8273 13.12L30.8137 13.1168C30.5361 13.2181 29.763 13.2591 29.4107 13.3225C28.4383 13.4974 27.2264 13.7328 26.2606 13.7498C24.9168 13.7736 23.599 13.4553 22.2792 13.2539C21.9311 13.2008 21.3017 13.2157 21.0243 13.1219C20.0235 11.589 19.7768 10.3134 19.899 8.50967Z" fill="url(#paint0_linear_227_722)"/>
<path d="M20.6825 13.6946C21.4548 13.5765 22.7882 13.8684 23.5996 13.9902C24.3635 14.1049 25.14 14.206 25.9135 14.2165C26.716 14.2273 27.522 14.1345 28.3151 14.0215C29.4016 13.8668 30.6535 13.5083 31.7374 13.7909C33.0818 14.1413 34.0269 15.5642 34.6925 16.703C36.3491 19.5374 36.9669 22.8493 36.1216 26.0446C35.3273 29.0472 33.3255 31.7818 30.6331 33.3444C29.6157 33.9115 28.515 34.3072 27.3591 34.4661C24.6946 34.8324 22.2944 34.1257 20.1717 32.5073C17.7228 30.64 15.9597 27.7353 15.5534 24.6724C15.1398 21.5547 16.1315 18.0435 18.0449 15.5575C18.73 14.6673 19.5204 13.8447 20.6825 13.6946Z" fill="white"/>
<path d="M25.8676 23.4926C26.0087 23.4792 26.1538 23.4818 26.2924 23.5123C26.8751 23.6407 27.2623 24.1147 27.5633 24.5951C27.0656 24.3327 26.6609 24.1403 26.0926 24.1049C25.4439 24.1432 24.9328 24.3026 24.3602 24.608C24.7311 24.0723 25.2129 23.6254 25.8676 23.4926Z" fill="black"/>
<path d="M32.9273 23.7243C33.1862 23.7077 33.4878 23.7345 33.7066 23.8845C33.8145 23.9585 33.9068 24.0712 33.9266 24.2038C33.9441 24.32 33.9123 24.4295 33.8382 24.5204C33.6715 24.7248 33.3883 24.7686 33.1421 24.7978C32.8928 24.8081 32.6022 24.7635 32.3907 24.6272C32.2773 24.5541 32.1847 24.4461 32.1625 24.3097C32.1439 24.1961 32.1801 24.0819 32.2528 23.9939C32.4154 23.7972 32.688 23.7517 32.9273 23.7243Z" fill="black"/>
<path d="M18.7335 23.8769C19.0361 23.8517 19.4595 23.8681 19.6979 24.0763C19.784 24.1516 19.8416 24.2574 19.8417 24.3734C19.8418 24.4767 19.7966 24.5721 19.7239 24.6442C19.509 24.8574 19.154 24.8602 18.8715 24.8608C18.5723 24.856 18.1612 24.7781 17.9153 24.5995C17.84 24.5447 17.7635 24.4668 17.7596 24.3677C17.7571 24.3064 17.7843 24.2502 17.8228 24.2044C18.0142 23.9765 18.4537 23.9105 18.7335 23.8769Z" fill="black"/>
<path d="M30.9546 17.2497C31.4554 17.1986 31.9779 17.3186 32.4208 17.5528C33.2076 17.9689 33.6759 18.611 33.9344 19.4499C33.4972 18.9489 33.0295 18.5689 32.442 18.255C32.2979 18.1889 32.1526 18.1295 32.0017 18.0804C30.9259 17.7306 29.8666 18.0805 28.9041 18.5752C28.9702 18.4735 29.0441 18.374 29.1197 18.2792C29.5819 17.6998 30.2213 17.3385 30.9546 17.2497Z" fill="black"/>
<path d="M20.6995 17.2508C20.7961 17.2501 20.8914 17.2579 20.9875 17.2677C21.8377 17.3546 22.4596 17.8577 22.984 18.4975C22.815 18.418 22.6434 18.3445 22.4693 18.277C21.4494 17.8886 20.5165 17.8243 19.5099 18.2772C18.871 18.6085 18.3663 19.0311 17.885 19.5595C18.0336 19.0906 18.2478 18.6767 18.5763 18.308C19.14 17.6754 19.8524 17.2998 20.6995 17.2508Z" fill="black"/>
<path d="M20.9765 19.2287C21.2367 19.2138 21.493 19.2891 21.7141 19.4254C22.1744 19.7091 22.4716 20.2013 22.5948 20.7196C22.7527 21.3844 22.6552 22.143 22.2869 22.7241C22.0279 23.1328 21.6826 23.3816 21.2106 23.4891C20.8677 23.5041 20.5745 23.4443 20.2904 23.2381C19.8282 22.9025 19.563 22.3261 19.4778 21.7746C19.3756 21.1131 19.5103 20.3912 19.9142 19.8477C20.187 19.4808 20.5256 19.2921 20.9765 19.2287Z" fill="black"/>
<path d="M21.3581 20.3172C21.4419 20.3154 21.5286 20.3143 21.6085 20.3425C21.7501 20.3923 21.8581 20.509 21.915 20.6458C21.99 20.8264 21.987 21.0451 21.9093 21.2241C21.8292 21.4086 21.7137 21.493 21.5327 21.5671C21.4553 21.5673 21.3604 21.5693 21.2863 21.5454C21.1386 21.4976 21.0113 21.3421 20.9534 21.2035C20.944 21.1815 20.9358 21.1591 20.9288 21.1363C20.9217 21.1134 20.9159 21.0903 20.9113 21.0669C20.9067 21.0434 20.9033 21.0198 20.9012 20.996C20.899 20.9722 20.8981 20.9483 20.8985 20.9244C20.8989 20.9005 20.9004 20.8767 20.9033 20.853C20.9061 20.8292 20.9102 20.8057 20.9155 20.7824C20.9208 20.7591 20.9273 20.7361 20.935 20.7135C20.9427 20.6909 20.9516 20.6687 20.9616 20.647C21.0486 20.4634 21.1725 20.3847 21.3581 20.3172Z" fill="white"/>
<path d="M30.8385 19.2284C31.1259 19.2142 31.4308 19.3142 31.6701 19.4713C32.1221 19.7682 32.3926 20.2966 32.4983 20.8152C32.6314 21.4684 32.5054 22.2047 32.1333 22.7618C31.8653 23.1629 31.522 23.3906 31.0477 23.4862C30.6921 23.4942 30.3664 23.409 30.0805 23.1926C29.6319 22.8531 29.3854 22.2732 29.3104 21.7285C29.2216 21.0827 29.3773 20.3573 29.782 19.8377C30.0502 19.4934 30.4047 19.2834 30.8385 19.2284Z" fill="black"/>
<path d="M31.1566 20.2661C31.2601 20.2638 31.3727 20.2773 31.465 20.3267C31.6056 20.402 31.7054 20.5388 31.7487 20.6909C31.7967 20.8593 31.784 21.0472 31.6983 21.2014C31.6071 21.3655 31.4776 21.4361 31.3008 21.4812C31.2248 21.479 31.145 21.4781 31.0726 21.4527C30.9303 21.4028 30.8151 21.2845 30.7549 21.1479C30.7461 21.1277 30.7383 21.1071 30.7315 21.0862C30.7248 21.0652 30.7191 21.0439 30.7144 21.0224C30.7097 21.0009 30.7061 20.9792 30.7037 20.9573C30.7012 20.9354 30.6997 20.9134 30.6994 20.8914C30.6991 20.8693 30.6999 20.8473 30.7017 20.8254C30.7036 20.8034 30.7065 20.7816 30.7106 20.76C30.7146 20.7383 30.7197 20.7169 30.7259 20.6957C30.732 20.6746 30.7392 20.6538 30.7474 20.6333C30.8294 20.4348 30.9629 20.3424 31.1566 20.2661Z" fill="white"/>
<path d="M20.1468 25.8062C20.6788 25.8148 21.3353 26.1005 21.8656 26.2353C22.7669 26.4549 23.6767 26.6308 24.5949 26.7628C25.0504 26.8306 25.5213 26.9107 25.9826 26.9148C27.2035 26.9256 28.608 26.6311 29.7776 26.3009C30.2683 26.1623 31.1237 25.8441 31.5996 25.8232C31.9799 25.8066 32.3525 25.9719 32.6248 26.2323C32.6431 26.2498 32.6609 26.2678 32.6784 26.2863C32.6958 26.3047 32.7128 26.3236 32.7292 26.3429C32.7457 26.3622 32.7617 26.3819 32.7772 26.402C32.7926 26.4221 32.8076 26.4426 32.822 26.4634C32.8364 26.4843 32.8503 26.5055 32.8637 26.527C32.8771 26.5486 32.8899 26.5705 32.9021 26.5927C32.9144 26.6149 32.9261 26.6374 32.9372 26.6602C32.9483 26.683 32.9588 26.7061 32.9688 26.7295C32.9787 26.7528 32.9881 26.7763 32.9968 26.8001C33.0056 26.824 33.0137 26.848 33.0213 26.8722C33.0288 26.8964 33.0357 26.9208 33.042 26.9454C33.0483 26.97 33.054 26.9947 33.0591 27.0195C33.0641 27.0444 33.0686 27.0694 33.0723 27.0945C33.0761 27.1196 33.0793 27.1447 33.0818 27.1699C33.0843 27.1952 33.0862 27.2205 33.0875 27.2458C33.0887 27.2712 33.0893 27.2965 33.0893 27.3219C33.0976 28.5437 31.867 30.2752 31.019 31.1248C29.9046 32.186 28.5758 32.8104 27.0457 32.983C25.1267 33.1994 23.0482 32.8302 21.5153 31.5992C20.4709 30.7605 19.7426 29.7152 19.1929 28.5028C19.0597 28.209 18.8987 27.8875 18.8699 27.5627C18.8301 27.1137 18.9892 26.5677 19.284 26.2235C19.5182 25.9499 19.7972 25.837 20.1468 25.8062Z" fill="black"/>
<path d="M25.9996 31.5027C26.2483 31.0436 26.5193 30.6056 27.0201 30.3928C27.0431 30.3833 27.0664 30.3743 27.0899 30.366C27.1133 30.3576 27.137 30.3498 27.1609 30.3426C27.1847 30.3354 27.2088 30.3288 27.233 30.3228C27.2572 30.3168 27.2815 30.3114 27.3059 30.3066C27.3304 30.3018 27.3549 30.2976 27.3796 30.294C27.4043 30.2904 27.429 30.2875 27.4538 30.2851C27.4786 30.2827 27.5035 30.281 27.5284 30.2799C27.5533 30.2787 27.5782 30.2782 27.6031 30.2783C27.628 30.2784 27.6529 30.2792 27.6778 30.2805C27.7027 30.2818 27.7276 30.2838 27.7524 30.2864C27.7772 30.2889 27.8019 30.2921 27.8265 30.2959C27.8511 30.2997 27.8756 30.3041 27.9 30.3091C27.9245 30.3141 27.9487 30.3197 27.9729 30.3259C27.997 30.3321 28.021 30.3389 28.0448 30.3463C28.0686 30.3537 28.0922 30.3617 28.1156 30.3703C28.139 30.3789 28.1622 30.388 28.1851 30.3977C28.7956 30.6497 29.1075 31.1476 29.3526 31.7338C29.1156 31.8428 28.8762 31.9459 28.6342 32.0431C26.6887 32.7501 24.5739 32.5999 22.6996 31.7616C22.7788 31.5067 22.8879 31.27 23.0456 31.0536C23.3492 30.6367 23.7515 30.3773 24.2614 30.2978C24.4441 30.2801 24.6463 30.3044 24.8225 30.3555C25.4145 30.527 25.72 30.9903 25.9996 31.5027Z" fill="white"/>
<path d="M30.5855 26.634C30.6212 26.6364 30.6476 26.6431 30.6789 26.6612C31.0138 26.8554 31.2337 27.3524 31.3339 27.7119C28.0073 29.0747 24.7738 28.9802 21.3573 28.0285C21.0993 27.9523 20.846 27.8731 20.5941 27.778C20.8012 27.4104 21.0044 27.0407 21.2038 26.6689C21.6838 26.8069 22.168 26.9281 22.6565 27.0325C23.1449 27.137 23.6363 27.2244 24.1308 27.2948C24.7467 27.3852 25.3798 27.4762 26.0033 27.4887C27.4907 27.5186 29.1778 27.0762 30.5855 26.634Z" fill="white"/>
</g>
<defs>
<linearGradient id="paint0_linear_227_722" x1="25.98" y1="13.7117" x2="25.9719" y2="7.08338" gradientUnits="userSpaceOnUse">
<stop stop-color="#0C0B0A"/>
<stop offset="1" stop-color="#2F2E2E"/>
</linearGradient>
<clipPath id="clip0_227_722">
<rect width="52" height="52" rx="10" fill="white"/>
</clipPath>
</defs>
</svg>
