<svg width="53" height="52" viewBox="0 0 53 52" fill="none" xmlns="http://www.w3.org/2000/svg">
<g clip-path="url(#clip0_220_244)">
<path d="M0.5 0H52.5V52H0.5V0Z" fill="white"/>
<path d="M26.5005 1.51099C26.8992 2.42954 27.5783 3.13887 28.2396 3.87141C29.3068 3.99919 30.3987 4.15858 31.4314 4.4628C31.7946 3.98909 32.1597 3.51728 32.49 3.01973C32.8186 3.81012 33.1511 4.58599 33.5631 5.33776C34.9465 5.80556 36.3728 6.37782 37.6082 7.16477C37.876 6.94773 38.1292 6.62669 38.3316 6.3473C38.5598 6.73567 38.7513 7.15182 38.9531 7.55452C39.0483 7.7447 39.1366 7.95412 39.26 8.12748C39.4829 8.4405 40.1832 8.90627 40.5209 9.18018C40.8566 9.45413 41.1824 9.7394 41.4983 10.036C41.6328 10.16 41.7658 10.2856 41.8972 10.4128C42.0286 10.54 42.1585 10.6688 42.2867 10.7992C42.415 10.9296 42.5417 11.0616 42.6667 11.1952C42.7917 11.3287 42.9151 11.4637 43.0368 11.6003C43.1585 11.7368 43.2786 11.8749 43.3969 12.0144C43.5152 12.1539 43.6318 12.2948 43.7467 12.4372C43.8615 12.5795 43.9746 12.7233 44.0859 12.8685C44.1972 13.0136 44.3068 13.1601 44.4145 13.3079C44.5222 13.4558 44.6281 13.6049 44.7322 13.7554C44.8363 13.9058 44.9385 14.0575 45.0388 14.2104C45.1392 14.3634 45.2376 14.5175 45.3342 14.6729C45.4307 14.8282 45.5254 14.9848 45.6181 15.1425C45.7108 15.3001 45.8016 15.459 45.8904 15.6189C45.9792 15.7788 46.066 15.9398 46.1509 16.1019C46.2357 16.2639 46.3186 16.427 46.3994 16.591C46.4803 16.7551 46.5591 16.9202 46.6359 17.0862C46.7127 17.2522 46.7875 17.4192 46.8602 17.587C46.9329 17.7549 47.0035 17.9236 47.0721 18.0932C47.1406 18.2628 47.2071 18.4332 47.2714 18.6045C47.3358 18.7757 47.398 18.9476 47.4582 19.1204C47.5184 19.2932 47.5764 19.4666 47.6323 19.6408C47.6881 19.815 47.7419 19.9898 47.7935 20.1653C47.8451 20.3408 47.8945 20.5169 47.9417 20.6937C47.989 20.8704 48.0341 21.0476 48.077 21.2254C48.1199 21.4033 48.1607 21.5816 48.1992 21.7604C48.2377 21.9392 48.2741 22.1185 48.3082 22.2982C48.3423 22.4779 48.3742 22.658 48.404 22.8385C48.4336 23.019 48.4611 23.1999 48.4864 23.3811C48.5117 23.5622 48.5347 23.7436 48.5555 23.9254C48.5763 24.1071 48.5949 24.2891 48.6112 24.4713C48.6276 24.6535 48.6417 24.8359 48.6535 25.0184C48.6654 25.2009 48.675 25.3836 48.6824 25.5664C48.6897 25.7509 48.6946 25.9356 48.6973 26.1203C48.7 26.305 48.7004 26.4897 48.6985 26.6744C48.6966 26.8591 48.6924 27.0437 48.6859 27.2283C48.6794 27.413 48.6706 27.5974 48.6595 27.7818C48.6484 27.9662 48.6351 28.1504 48.6194 28.3345C48.6037 28.5185 48.5858 28.7024 48.5656 28.8859C48.5454 29.0696 48.5229 29.2529 48.4981 29.436C48.4733 29.619 48.4463 29.8017 48.417 29.9841C48.3876 30.1665 48.356 30.3484 48.3222 30.53C48.2883 30.7116 48.2522 30.8928 48.2139 31.0735C48.1756 31.2541 48.135 31.4343 48.0922 31.614C48.0493 31.7937 48.0043 31.9728 47.957 32.1514C47.9097 32.33 47.8602 32.5079 47.8085 32.6852C47.7568 32.8626 47.703 33.0392 47.6469 33.2153C47.5908 33.3912 47.5325 33.5665 47.4721 33.741C47.4116 33.9156 47.349 34.0894 47.2843 34.2624C47.2195 34.4354 47.1526 34.6075 47.0835 34.7789C47.0145 34.9502 46.9434 35.1206 46.8701 35.2902C46.7968 35.4597 46.7214 35.6284 46.644 35.7961C46.5665 35.9637 46.487 36.1304 46.4054 36.2962C46.3238 36.4619 46.2401 36.6265 46.1544 36.7901C46.0687 36.9538 45.981 37.1164 45.8912 37.2778C45.8015 37.4393 45.7098 37.5996 45.6161 37.7588C45.5223 37.9179 45.4266 38.0759 45.329 38.2327C45.2314 38.3895 45.1318 38.545 45.0303 38.6994C44.9287 38.8537 44.8253 39.0067 44.72 39.1585C44.6147 39.3102 44.5075 39.4606 44.3984 39.6097C44.2894 39.7588 44.1785 39.9065 44.0658 40.0528C43.953 40.1992 43.8385 40.3441 43.7222 40.4876C43.6059 40.6311 43.4878 40.7731 43.3679 40.9136C43.2481 41.0542 43.1265 41.1932 43.0032 41.3308C42.8798 41.4683 42.7548 41.6042 42.6281 41.7387C42.5276 41.8448 42.426 41.9499 42.3234 42.054C42.2207 42.1581 42.1171 42.2612 42.0125 42.3633C41.9079 42.4654 41.8023 42.5665 41.6957 42.6666C41.5891 42.7666 41.4816 42.8656 41.373 42.9635C41.2645 43.0615 41.1551 43.1584 41.0446 43.2542C40.9342 43.35 40.8229 43.4447 40.7106 43.5384C40.5984 43.632 40.4853 43.7246 40.3712 43.816C40.2572 43.9075 40.1422 43.9978 40.0264 44.087C39.9106 44.1762 39.7939 44.2643 39.6764 44.3512C39.5588 44.4382 39.4405 44.5239 39.3213 44.6085C39.2021 44.6932 39.0821 44.7766 38.9612 44.8589C38.8404 44.9412 38.7188 45.0223 38.5964 45.1022C38.474 45.1822 38.3508 45.2609 38.2269 45.3384C38.1029 45.4159 37.9783 45.4922 37.8528 45.5673C37.7274 45.6424 37.6013 45.7163 37.4744 45.7889C37.3476 45.8616 37.22 45.9329 37.0917 46.0031C36.9635 46.0733 36.8346 46.1422 36.705 46.2098C36.5754 46.2775 36.4451 46.3438 36.3142 46.4089C36.1833 46.474 36.0518 46.5378 35.9197 46.6004C35.7876 46.6629 35.6548 46.7241 35.5215 46.7841C35.3882 46.8441 35.2543 46.9028 35.1198 46.9601C34.9854 47.0174 34.8503 47.0735 34.7148 47.1282C34.5792 47.1829 34.4431 47.2363 34.3065 47.2884C34.1699 47.3404 34.0328 47.3912 33.8952 47.4406C33.7577 47.4899 33.6196 47.538 33.4811 47.5847C33.3426 47.6314 33.2036 47.6768 33.0642 47.7208C32.9248 47.7648 32.785 47.8074 32.6448 47.8487C32.5045 47.89 32.3639 47.9299 32.2229 47.9684C32.0818 48.0069 31.9405 48.0441 31.7987 48.0799C31.657 48.1157 31.5149 48.1501 31.3725 48.1831C31.2301 48.2161 31.0874 48.2478 30.9443 48.278C30.8013 48.3082 30.658 48.3371 30.5144 48.3645C29.5301 48.5521 28.5251 48.6894 27.5227 48.7209C27.1106 49.3404 26.7769 49.9412 26.5272 50.6464L26.5195 50.6714C26.5068 50.6631 26.2787 50.1044 26.2491 50.0403C26.0322 49.5708 25.7621 49.1482 25.4603 48.7302C24.9996 48.6893 24.5372 48.6613 24.078 48.6059C22.6394 48.4322 21.1778 48.132 19.7966 47.6915C19.6235 47.6357 19.451 47.5778 19.2793 47.5178C19.1076 47.4579 18.9367 47.3958 18.7665 47.3316C18.5963 47.2675 18.4269 47.2013 18.2583 47.133C18.0897 47.0647 17.922 46.9944 17.7551 46.9221C17.5883 46.8497 17.4223 46.7753 17.2572 46.6989C17.0922 46.6225 16.9281 46.5441 16.765 46.4637C16.6018 46.3833 16.4397 46.3009 16.2785 46.2166C16.1174 46.1322 15.9573 46.0459 15.7982 45.9577C15.6392 45.8694 15.4813 45.7792 15.3244 45.6871C15.1676 45.595 15.0119 45.501 14.8574 45.4051C14.7028 45.3092 14.5494 45.2115 14.3973 45.1118C14.2451 45.0122 14.0942 44.9107 13.9445 44.8074C13.7948 44.7041 13.6464 44.599 13.4993 44.492C13.3521 44.3851 13.2063 44.2764 13.0618 44.166C12.9173 44.0555 12.7742 43.9432 12.6325 43.8293C12.4907 43.7153 12.3504 43.5996 12.2114 43.4823C12.0725 43.3648 11.935 43.2458 11.799 43.1251C11.663 43.0043 11.5284 42.882 11.3954 42.7579C11.2623 42.6339 11.1308 42.5083 11.0009 42.3811C10.8709 42.2538 10.7424 42.1251 10.6156 41.9947C10.4887 41.8644 10.3635 41.7325 10.2399 41.5991C10.1162 41.4657 9.99424 41.3308 9.87388 41.1944C9.75353 41.058 9.63487 40.9202 9.51791 40.7809C9.40091 40.6417 9.28563 40.501 9.17209 40.359C9.05851 40.2169 8.94669 40.0734 8.83663 39.9286C8.72657 39.7838 8.61828 39.6377 8.51178 39.4903C8.40527 39.3429 8.30058 39.1941 8.1977 39.0442C8.09481 38.8942 7.99378 38.7429 7.89458 38.5905C7.79539 38.438 7.69806 38.2844 7.60259 38.1296C7.50712 37.9747 7.41357 37.8188 7.32192 37.6617C7.23028 37.5046 7.14055 37.3464 7.05273 37.1871C6.96495 37.0278 6.87911 36.8675 6.79522 36.7061C6.71055 36.5412 6.62793 36.3753 6.54736 36.2083C6.46682 36.0414 6.38833 35.8735 6.31188 35.7046C6.23547 35.5358 6.16116 35.366 6.08895 35.1953C6.01671 35.0246 5.9466 34.853 5.87862 34.6805C5.81064 34.5081 5.74479 34.3349 5.68108 34.1608C5.61737 33.9867 5.55582 33.8119 5.49643 33.6363C5.43704 33.4607 5.37983 33.2844 5.3248 33.1074C5.26976 32.9305 5.21692 32.7528 5.16628 32.5745C5.11563 32.3962 5.0672 32.2173 5.02097 32.0378C4.97475 31.8583 4.93074 31.6782 4.88897 31.4976C4.84719 31.317 4.80764 31.136 4.77034 30.9544C4.73303 30.7728 4.69798 30.5908 4.66516 30.4084C4.63236 30.226 4.6018 30.0432 4.57351 29.86C4.54521 29.6768 4.51919 29.4933 4.49542 29.3095C4.47166 29.1256 4.45018 28.9415 4.43096 28.7572C4.41175 28.5728 4.39482 28.3882 4.38016 28.2034C4.3655 28.0187 4.35313 27.8337 4.34305 27.6487C4.33296 27.4636 4.32516 27.2784 4.31965 27.0931C4.31414 26.9078 4.31091 26.7225 4.30998 26.5372C4.30904 26.3518 4.3104 26.1665 4.31404 25.9812C4.31769 25.7958 4.32362 25.6106 4.33184 25.4254C4.34006 25.2402 4.35056 25.0552 4.36335 24.8703C4.37614 24.6854 4.39121 24.5006 4.40857 24.3161C4.42592 24.1315 4.44555 23.9472 4.46746 23.7632C4.48936 23.5791 4.51354 23.3953 4.53998 23.2118C4.56643 23.0284 4.59513 22.8453 4.6261 22.6625C4.65707 22.4798 4.69029 22.2975 4.72577 22.1155C4.76124 21.9336 4.79895 21.7521 4.83891 21.5711C4.87886 21.3901 4.92105 21.2096 4.96546 21.0297C5.00987 20.8497 5.0565 20.6703 5.10535 20.4915C5.15419 20.3127 5.20524 20.1345 5.25848 19.957C5.31173 19.7794 5.36716 19.6026 5.42477 19.4264C6.63643 15.6411 9.03569 12.1893 11.9857 9.55327C12.3845 9.19694 13.3279 8.37565 13.7684 8.14851C13.9971 7.58406 14.2427 7.02714 14.5054 6.47775C14.7276 6.72856 15.0238 6.92255 15.3074 7.09678C16.5371 6.37385 17.8763 5.71842 19.2453 5.30801C19.4133 4.55862 19.5429 3.80266 19.6342 3.04013C20.0224 3.60955 20.559 4.13224 21.0607 4.60263C22.2618 4.20735 23.5433 4.03847 24.7906 3.85957C24.9403 3.66295 25.1238 3.48202 25.2881 3.29663C25.7562 2.76819 26.2435 2.17308 26.5005 1.51099Z" fill="black"/>
<path d="M35.0128 7.27563C35.223 7.33413 35.8712 7.60099 36.0017 7.75161L35.9649 7.78827L35.4541 7.91218C35.3 7.70362 35.1537 7.49344 35.0128 7.27563Z" fill="white"/>
<path d="M18.3729 6.98608L18.3904 7.01102C18.3834 7.04113 18.3768 7.0686 18.3633 7.09669C18.1732 7.49115 17.7506 7.72627 17.3584 7.87542L16.9826 7.77746C16.9186 7.75547 16.8697 7.74714 16.8234 7.69535C16.9727 7.52081 18.088 7.11217 18.3729 6.98608Z" fill="white"/>
<path d="M39.9572 10.2968C39.9943 10.3175 39.983 10.3093 40.0147 10.3338C40.7483 10.9021 41.423 11.5975 42.0438 12.2848C42.1337 12.3839 42.2226 12.4837 42.3105 12.5844C42.3985 12.6852 42.4855 12.7867 42.5714 12.8891C42.6575 12.9915 42.7425 13.0947 42.8265 13.1987C42.9106 13.3027 42.9936 13.4075 43.0757 13.5131C43.1577 13.6187 43.2387 13.725 43.3187 13.8322C43.3987 13.9393 43.4776 14.0473 43.5555 14.1559C43.6335 14.2646 43.7104 14.374 43.7862 14.4841C43.8621 14.5943 43.9368 14.7051 44.0105 14.8166C44.0842 14.9282 44.1569 15.0405 44.2285 15.1534C44.3001 15.2664 44.3705 15.38 44.4399 15.4943C44.5093 15.6086 44.5776 15.7236 44.6448 15.8392C44.712 15.9548 44.7781 16.071 44.843 16.1879C44.908 16.3048 44.9718 16.4222 45.0345 16.5404C45.0973 16.6584 45.1589 16.7771 45.2193 16.8964C45.2798 17.0157 45.3391 17.1355 45.3972 17.2559C45.4554 17.3763 45.5124 17.4972 45.5682 17.6188C45.6241 17.7403 45.6787 17.8623 45.7323 17.9848C45.7858 18.1074 45.8381 18.2304 45.8892 18.354C45.9404 18.4775 45.9904 18.6015 46.0391 18.726C46.0879 18.8506 46.1355 18.9755 46.1819 19.1009C46.2283 19.2263 46.2734 19.3522 46.3174 19.4785C46.3614 19.6047 46.4042 19.7314 46.4457 19.8585C46.4873 19.9856 46.5276 20.1131 46.5668 20.2409C46.6059 20.3688 46.6437 20.497 46.6804 20.6257C46.7171 20.7542 46.7525 20.8832 46.7867 21.0124C46.8209 21.1417 46.8538 21.2713 46.8856 21.4012C46.9173 21.5311 46.9478 21.6613 46.977 21.7917C47.0062 21.9223 47.0341 22.053 47.0609 22.184C47.0876 22.3151 47.1131 22.4463 47.1373 22.5778C47.1615 22.7093 47.1844 22.841 47.2061 22.973C47.2278 23.1049 47.2482 23.2371 47.2674 23.3694C47.2866 23.5018 47.3044 23.6343 47.3211 23.7669C47.3433 23.9387 47.3633 24.1107 47.3813 24.2829C47.3992 24.4552 47.4151 24.6276 47.4288 24.8003C47.4424 24.9729 47.454 25.1457 47.4635 25.3187C47.4729 25.4916 47.4802 25.6646 47.4853 25.8377C47.4905 26.0108 47.4936 26.1839 47.4944 26.3571C47.4953 26.5303 47.4941 26.7035 47.4907 26.8766C47.4873 27.0498 47.4818 27.2228 47.4742 27.3959C47.4665 27.5689 47.4567 27.7418 47.4448 27.9145C47.4329 28.0873 47.4188 28.2599 47.4027 28.4324C47.3865 28.6048 47.3682 28.777 47.3477 28.949C47.3273 29.1209 47.3048 29.2926 47.2801 29.464C47.2554 29.6355 47.2287 29.8066 47.1998 29.9773C47.1709 30.148 47.1399 30.3184 47.1068 30.4884C47.0737 30.6584 47.0386 30.828 47.0013 30.9971C46.964 31.1662 46.9247 31.3349 46.8832 31.503C46.8418 31.6712 46.7983 31.8388 46.7527 32.0059C46.7071 32.173 46.6595 32.3395 46.6098 32.5054C46.5602 32.6713 46.5084 32.8365 46.4547 33.0012C46.4009 33.1658 46.3451 33.3297 46.2873 33.493C46.2295 33.6562 46.1697 33.8187 46.1079 33.9805C46.0461 34.1423 45.9823 34.3033 45.9165 34.4635C45.8507 34.6237 45.783 34.7831 45.7132 34.9416C45.6435 35.1001 45.5719 35.2578 45.4983 35.4145C45.4246 35.5713 45.3491 35.7271 45.2716 35.882C45.1942 36.0369 45.1149 36.1908 45.0336 36.3438C44.9523 36.4967 44.8692 36.6487 44.7842 36.7995C44.6992 36.9504 44.6124 37.1002 44.5237 37.249C44.435 37.3977 44.3445 37.5453 44.2521 37.6919C44.1598 37.8384 44.0656 37.9837 43.9697 38.1279C43.8738 38.2721 43.7761 38.4151 43.6766 38.5569C43.5772 38.6987 43.476 38.8392 43.3731 38.9785C43.2702 39.1177 43.1655 39.2557 43.0592 39.3924C42.9505 39.5311 42.8401 39.6683 42.728 39.8043C42.6159 39.9402 42.5021 40.0747 42.3867 40.2078C42.2713 40.3409 42.1543 40.4726 42.0356 40.6029C41.9169 40.7331 41.7967 40.8618 41.6748 40.989C41.553 41.1163 41.4296 41.242 41.3047 41.3662C41.1797 41.4905 41.0532 41.6131 40.9253 41.7342C40.7973 41.8553 40.6678 41.9747 40.5369 42.0926C40.4059 42.2105 40.2736 42.3268 40.1398 42.4414C40.006 42.556 39.8708 42.669 39.7342 42.7803C39.5976 42.8915 39.4597 43.0011 39.3204 43.109C39.1811 43.2169 39.0405 43.323 38.8986 43.4274C38.7567 43.5318 38.6135 43.6345 38.469 43.7353C38.3246 43.8362 38.179 43.9353 38.0321 44.0325C37.8852 44.1298 37.7371 44.2253 37.5878 44.3189C37.4386 44.4125 37.2882 44.5042 37.1367 44.5942C36.9852 44.6841 36.8326 44.7721 36.6789 44.8582C36.5252 44.9443 36.3705 45.0286 36.2147 45.1109C36.0589 45.1932 35.9021 45.2736 35.7444 45.3521C35.5867 45.4305 35.4279 45.507 35.2683 45.5815C35.1087 45.656 34.9481 45.7286 34.7867 45.7991C34.6253 45.8697 34.463 45.9383 34.2998 46.0048C34.1367 46.0714 33.9728 46.1359 33.8081 46.1984C33.6434 46.2609 33.4779 46.3214 33.3117 46.3798C33.1455 46.4383 32.9786 46.4946 32.811 46.5489C32.6434 46.6032 32.4751 46.6555 32.3062 46.7056C32.1373 46.7558 31.9678 46.8038 31.7978 46.8498C31.6277 46.8957 31.4571 46.9396 31.2859 46.9814C31.1148 47.0231 30.9431 47.0628 30.7709 47.1003C30.5988 47.1378 30.4263 47.1732 30.2532 47.2064C30.0802 47.2397 29.9068 47.2708 29.733 47.2998C29.5593 47.3288 29.3851 47.3556 29.2107 47.3803C29.0362 47.4049 28.8615 47.4274 28.6865 47.4478C28.5311 47.4634 28.3755 47.4778 28.2198 47.4908L28.5636 47.0394C28.8238 46.9918 29.0902 46.9659 29.3518 46.9232C29.9772 46.8205 30.5977 46.6935 31.2132 46.5424C31.3539 46.5076 31.4942 46.4714 31.6341 46.4337C31.774 46.3959 31.9136 46.3568 32.0527 46.3162C32.1918 46.2756 32.3305 46.2335 32.4688 46.1901C32.607 46.1466 32.7448 46.1016 32.8821 46.0553C33.0194 46.009 33.1563 45.9613 33.2926 45.9121C33.4289 45.863 33.5647 45.8124 33.7 45.7605C33.8353 45.7085 33.97 45.6551 34.1042 45.6004C34.2384 45.5456 34.372 45.4895 34.505 45.4319C34.638 45.3744 34.7705 45.3155 34.9023 45.2553C35.0341 45.195 35.1652 45.1334 35.2958 45.0704C35.4263 45.0075 35.5562 44.9432 35.6854 44.8775C35.8145 44.8118 35.943 44.7448 36.0708 44.6765C36.1987 44.6082 36.3258 44.5386 36.4522 44.4677C36.5785 44.3967 36.7041 44.3245 36.829 44.2509C36.9539 44.1774 37.078 44.1026 37.2013 44.0264C37.3247 43.9503 37.4472 43.8729 37.5689 43.7943C37.6906 43.7157 37.8115 43.6358 37.9316 43.5546C38.0517 43.4735 38.1709 43.3911 38.2893 43.3075C38.4076 43.2238 38.5251 43.139 38.6417 43.0529C38.7583 42.9669 38.874 42.8797 38.9889 42.7912C39.1037 42.7028 39.2176 42.6132 39.3305 42.5224C39.4435 42.4316 39.5555 42.3396 39.6665 42.2465C39.7776 42.1534 39.8877 42.0591 39.9967 41.9637C40.1058 41.8683 40.214 41.7718 40.3211 41.6742C40.4282 41.5766 40.5342 41.4778 40.6393 41.378C40.7444 41.2782 40.8484 41.1773 40.9514 41.0753C41.0544 40.9734 41.1563 40.8703 41.2571 40.7662C41.3579 40.6621 41.4577 40.557 41.5564 40.4509C41.655 40.3447 41.7526 40.2376 41.849 40.1294C41.9455 40.0213 42.0408 39.9121 42.135 39.8019C42.2292 39.6918 42.3222 39.5807 42.4141 39.4687C42.506 39.3566 42.5968 39.2436 42.6863 39.1296C42.7884 38.9993 42.8889 38.8678 42.9879 38.7351C43.0868 38.6023 43.1841 38.4684 43.2797 38.3333C43.3754 38.1982 43.4694 38.0619 43.5618 37.9246C43.6542 37.7872 43.7449 37.6487 43.8339 37.5091C43.9229 37.3695 44.0102 37.2289 44.0958 37.0872C44.1814 36.9455 44.2653 36.8028 44.3474 36.659C44.4296 36.5153 44.51 36.3706 44.5886 36.2249C44.6672 36.0792 44.7441 35.9326 44.8192 35.7851C44.8942 35.6375 44.9675 35.4891 45.039 35.3398C45.1105 35.1905 45.1801 35.0403 45.248 34.8892C45.3158 34.7383 45.3818 34.5865 45.446 34.4338C45.5101 34.2812 45.5724 34.1279 45.6329 33.9737C45.6933 33.8196 45.7519 33.6648 45.8085 33.5093C45.8652 33.3537 45.92 33.1975 45.9729 33.0406C46.0258 32.8838 46.0768 32.7263 46.1259 32.5682C46.175 32.4101 46.2221 32.2514 46.2674 32.0921C46.3126 31.9329 46.3559 31.7731 46.3973 31.6128C46.4386 31.4525 46.478 31.2917 46.5155 31.1305C46.5529 30.9692 46.5885 30.8075 46.622 30.6454C46.6555 30.4833 46.6871 30.3208 46.7167 30.1579C46.7463 29.995 46.7739 29.8318 46.7995 29.6683C46.8252 29.5047 46.8489 29.3409 46.8705 29.1768C46.8922 29.0126 46.9119 28.8483 46.9296 28.6837C46.9473 28.5191 46.9629 28.3543 46.9766 28.1893C46.9903 28.0243 47.002 27.8592 47.0117 27.694C47.0214 27.5287 47.0291 27.3633 47.0348 27.1979C47.0404 27.0324 47.0441 26.8669 47.0458 26.7014C47.0474 26.5358 47.0471 26.3703 47.0447 26.2047C47.0424 26.0392 47.038 25.8738 47.0317 25.7083C47.0253 25.5429 47.0169 25.3776 47.0066 25.2123C46.9962 25.0471 46.9838 24.882 46.9695 24.7171C46.9551 24.5522 46.9387 24.3875 46.9204 24.223C46.906 24.0868 46.8903 23.9507 46.8732 23.8148C46.8561 23.6789 46.8377 23.5432 46.8179 23.4077C46.7982 23.2722 46.777 23.1369 46.7546 23.0018C46.7321 22.8667 46.7083 22.7318 46.6832 22.5972C46.658 22.4626 46.6315 22.3282 46.6037 22.1941C46.5758 22.06 46.5467 21.9262 46.5162 21.7927C46.4857 21.6591 46.4539 21.5259 46.4208 21.3931C46.3876 21.2602 46.3532 21.1277 46.3174 20.9954C46.2816 20.8632 46.2445 20.7314 46.2061 20.6C46.1676 20.4685 46.1279 20.3374 46.0869 20.2068C46.0459 20.0761 46.0036 19.9458 45.96 19.816C45.9163 19.6862 45.8714 19.5568 45.8253 19.4279C45.7791 19.299 45.7316 19.1705 45.6829 19.0425C45.6341 18.9145 45.5841 18.7871 45.5328 18.6601C45.4815 18.533 45.429 18.4066 45.3751 18.2806C45.3213 18.1547 45.2663 18.0293 45.21 17.9044C45.1537 17.7796 45.0961 17.6554 45.0373 17.5317C44.9786 17.408 44.9186 17.2848 44.8573 17.1623C44.7961 17.0398 44.7337 16.9179 44.67 16.7967C44.6063 16.6754 44.5415 16.5548 44.4754 16.4348C44.4094 16.3149 44.3421 16.1956 44.2737 16.0769C44.2052 15.9583 44.1356 15.8404 44.0648 15.7231C43.9941 15.6059 43.9221 15.4893 43.849 15.3735C43.7759 15.2577 43.7016 15.1427 43.6262 15.0283C43.5508 14.914 43.4743 14.8004 43.3966 14.6876C43.319 14.5748 43.2402 14.4628 43.1604 14.3515C43.0805 14.2403 42.9995 14.1299 42.9174 14.0202C42.8353 13.9106 42.7521 13.8018 42.6678 13.6938C42.5836 13.5859 42.4983 13.4787 42.4119 13.3725C42.3255 13.2662 42.238 13.1608 42.1496 13.0563C42.0611 12.9517 41.9715 12.8481 41.881 12.7453C41.7905 12.6426 41.6989 12.5407 41.6063 12.4398C41.114 11.9113 40.6018 11.3584 40.0347 10.909C39.9905 10.7079 39.9765 10.5014 39.9572 10.2968Z" fill="white"/>
<path d="M12.912 10.4102C12.9619 10.5037 12.8517 10.9213 12.8322 11.0405C12.1813 11.6927 11.5226 12.3242 10.9249 13.0287C10.8473 13.1194 10.7705 13.2108 10.6945 13.3029C10.6185 13.395 10.5433 13.4877 10.4689 13.581C10.3945 13.6744 10.321 13.7685 10.2482 13.8631C10.1755 13.9577 10.1035 14.053 10.0324 14.1489C9.96135 14.2448 9.89108 14.3414 9.82165 14.4385C9.75225 14.5356 9.68368 14.6333 9.61594 14.7316C9.54823 14.83 9.48136 14.9288 9.41535 15.0283C9.34937 15.1278 9.28423 15.2279 9.21994 15.3285C9.15569 15.4291 9.09231 15.5302 9.02982 15.6319C8.96729 15.7336 8.90566 15.8359 8.84492 15.9387C8.78422 16.0414 8.7244 16.1447 8.66546 16.2486C8.60652 16.3524 8.54848 16.4567 8.49133 16.5615C8.43422 16.6664 8.37802 16.7717 8.32274 16.8775C8.26746 16.9833 8.21309 17.0896 8.15963 17.1963C8.10617 17.3031 8.05365 17.4103 8.00206 17.518C7.9505 17.6256 7.89985 17.7337 7.85012 17.8422C7.80042 17.9508 7.75167 18.0598 7.70387 18.1692C7.65607 18.2786 7.60921 18.3883 7.56331 18.4985C7.5174 18.6087 7.47246 18.7193 7.42848 18.8303C7.38447 18.9413 7.34144 19.0527 7.2994 19.1644C7.25735 19.2761 7.21628 19.3882 7.1762 19.5007C7.13608 19.6131 7.09697 19.7259 7.05885 19.839C7.02069 19.9522 6.98354 20.0656 6.94738 20.1794C6.91122 20.2932 6.87605 20.4072 6.84186 20.5216C6.80766 20.636 6.77447 20.7507 6.74227 20.8656C6.71008 20.9806 6.67888 21.0958 6.64869 21.2113C6.61849 21.3268 6.5893 21.4426 6.56114 21.5586C6.53294 21.6746 6.50577 21.7908 6.47963 21.9073C6.45346 22.0238 6.42831 22.1405 6.40417 22.2574C6.38004 22.3744 6.35693 22.4915 6.33486 22.6088C6.31275 22.7261 6.29166 22.8436 6.27158 22.9613C6.25154 23.079 6.23252 23.1968 6.21451 23.3148C5.41429 28.8205 6.70353 34.3224 10.0432 38.7901C10.1326 38.9097 10.2234 39.0283 10.3154 39.146C10.4075 39.2636 10.5008 39.3803 10.5954 39.496C10.6899 39.6116 10.7857 39.7262 10.8827 39.8398C10.9798 39.9534 11.078 40.0659 11.1774 40.1774C11.2769 40.2889 11.3775 40.3993 11.4793 40.5086C11.5811 40.6179 11.6841 40.7261 11.7883 40.8332C11.8924 40.9403 11.9977 41.0462 12.1042 41.151C12.2106 41.2559 12.3182 41.3596 12.4268 41.4621C12.5355 41.5646 12.6453 41.6659 12.7561 41.766C12.867 41.8661 12.9789 41.9651 13.0919 42.0628C13.2048 42.1606 13.3189 42.2571 13.4339 42.3523C13.549 42.4476 13.6651 42.5416 13.7821 42.6344C13.8992 42.7272 14.0173 42.8187 14.1364 42.9089C14.2554 42.9992 14.3754 43.0881 14.4964 43.1757C14.6174 43.2634 14.7393 43.3497 14.8621 43.4347C14.985 43.5198 15.1087 43.6035 15.2333 43.6858C15.358 43.7682 15.4835 43.8492 15.6098 43.9288C15.7362 44.0085 15.8635 44.0868 15.9915 44.1636C16.1196 44.2406 16.2484 44.3161 16.3781 44.3902C16.5078 44.4644 16.6383 44.5371 16.7695 44.6084C16.9008 44.6798 17.0328 44.7497 17.1656 44.8182C17.2984 44.8867 17.4318 44.9537 17.566 45.0193C17.7002 45.0849 17.8352 45.1491 17.9708 45.2118C18.1064 45.2745 18.2426 45.3357 18.3795 45.3954C18.5164 45.4552 18.6539 45.5135 18.7921 45.5703C18.9303 45.6271 19.069 45.6824 19.2084 45.7362C19.3477 45.7901 19.4877 45.8424 19.6281 45.8932C19.7686 45.944 19.9096 45.9933 20.0512 46.041C20.1927 46.0888 20.3348 46.135 20.4773 46.1798C20.6198 46.2245 20.7629 46.2676 20.9063 46.3092C21.0498 46.3509 21.1937 46.391 21.338 46.4295C21.4823 46.468 21.6271 46.505 21.7722 46.5404C22.6369 46.7572 23.5219 46.9037 24.4035 47.0321C24.5281 47.1717 24.6367 47.3345 24.7494 47.4843C24.603 47.4767 24.4564 47.4631 24.3103 47.4517C24.0643 47.4335 23.816 47.3939 23.5729 47.3534C22.8795 47.2414 22.1923 47.0995 21.5113 46.9276C20.8303 46.7557 20.1581 46.5545 19.4947 46.324C19.3682 46.2781 19.2422 46.231 19.1166 46.1828C18.9911 46.1345 18.866 46.085 18.7414 46.0344C18.6168 45.9837 18.4926 45.9319 18.3689 45.879C18.2453 45.826 18.1222 45.7719 17.9995 45.7166C17.8769 45.6613 17.7548 45.6048 17.6332 45.5472C17.5117 45.4896 17.3906 45.4309 17.2702 45.371C17.1497 45.3111 17.0298 45.2501 16.9105 45.188C16.7912 45.1258 16.6725 45.0626 16.5544 44.9982C16.4363 44.9338 16.3188 44.8684 16.2019 44.8018C16.085 44.7352 15.9687 44.6675 15.8531 44.5987C15.7375 44.53 15.6226 44.4601 15.5082 44.3892C15.3939 44.3182 15.2803 44.2462 15.1674 44.1731C15.0545 44.1 14.9422 44.0259 14.8307 43.9507C14.7192 43.8755 14.6083 43.7992 14.4982 43.722C14.3881 43.6447 14.2788 43.5663 14.1702 43.487C14.0615 43.4077 13.9536 43.3273 13.8465 43.2459C13.7394 43.1645 13.6331 43.0822 13.5275 42.9988C13.422 42.9154 13.3172 42.831 13.2132 42.7456C13.1093 42.6603 13.0061 42.574 12.9038 42.4866C12.8014 42.3993 12.6999 42.3111 12.5992 42.2219C12.4985 42.1326 12.3987 42.0425 12.2997 41.9514C12.2007 41.8603 12.1026 41.7682 12.0054 41.6753C11.9081 41.5824 11.8118 41.4885 11.7163 41.3937C11.6208 41.299 11.5262 41.2033 11.4325 41.1068C11.3389 41.0102 11.2461 40.9128 11.1543 40.8145C11.0625 40.7162 10.9715 40.6171 10.8816 40.5171C10.7916 40.4171 10.7026 40.3162 10.6145 40.2145C10.5264 40.1128 10.4393 40.0103 10.3532 39.907C10.2671 39.8037 10.1819 39.6996 10.0977 39.5947C10.0135 39.4897 9.93036 39.384 9.84816 39.2775C9.76596 39.171 9.68478 39.0637 9.60461 38.9557C9.52444 38.8477 9.44531 38.7389 9.36721 38.6294C9.26775 38.4878 9.17001 38.345 9.074 38.201C8.97802 38.057 8.88382 37.9119 8.7914 37.7656C8.69898 37.6193 8.60835 37.4719 8.51952 37.3234C8.43068 37.1748 8.3437 37.0253 8.25855 36.8746C8.17338 36.724 8.09006 36.5723 8.00861 36.4196C7.92719 36.2669 7.84763 36.1133 7.76993 35.9586C7.69224 35.804 7.61646 35.6484 7.54259 35.4919C7.46868 35.3355 7.39673 35.1781 7.32672 35.0198C7.25667 34.8616 7.18859 34.7025 7.12247 34.5426C7.05632 34.3827 6.99215 34.2219 6.92996 34.0605C6.86777 33.899 6.80756 33.7368 6.74933 33.5738C6.6911 33.4108 6.63487 33.2472 6.58064 33.0829C6.5264 32.9185 6.4742 32.7535 6.42403 32.5879C6.37386 32.4223 6.3257 32.2561 6.27956 32.0893C6.23345 31.9225 6.18939 31.7552 6.14737 31.5873C6.10536 31.4194 6.06539 31.2511 6.02748 31.0822C5.9896 30.9134 5.95378 30.7441 5.92002 30.5744C5.88624 30.4046 5.85455 30.2345 5.82496 30.064C5.79537 29.8935 5.76788 29.7227 5.74249 29.5515C5.71707 29.3803 5.69374 29.2089 5.67252 29.0371C5.65132 28.8653 5.63223 28.6934 5.61524 28.5212C5.59821 28.349 5.5833 28.1766 5.57053 28.004C5.55774 27.8314 5.54707 27.6587 5.53852 27.4859C5.52996 27.313 5.52352 27.1401 5.51919 26.9671C5.51487 26.7941 5.51266 26.6211 5.51258 26.448C5.51248 26.275 5.51451 26.102 5.51866 25.929C5.52281 25.7559 5.52907 25.583 5.53745 25.4102C5.54583 25.2373 5.55632 25.0646 5.56893 24.892C5.58152 24.7194 5.59623 24.547 5.61305 24.3747C5.62991 24.2025 5.64885 24.0305 5.66988 23.8588C5.6909 23.687 5.71404 23.5155 5.73929 23.3443C5.76452 23.1731 5.79184 23.0022 5.82126 22.8317C5.8437 22.7053 5.86726 22.5792 5.89194 22.4532C5.91666 22.3273 5.9425 22.2015 5.96949 22.0761C5.99647 21.9506 6.02457 21.8253 6.05378 21.7004C6.083 21.5754 6.11335 21.4507 6.14483 21.3262C6.17632 21.2018 6.20892 21.0777 6.24264 20.9538C6.27632 20.83 6.31114 20.7065 6.3471 20.5833C6.38305 20.46 6.4201 20.3371 6.45826 20.2146C6.49641 20.092 6.53566 19.9698 6.57602 19.848C6.61637 19.7262 6.65781 19.6047 6.70033 19.4836C6.74288 19.3625 6.78652 19.2418 6.83124 19.1215C6.87597 19.0012 6.92175 18.8813 6.96861 18.7618C7.01549 18.6423 7.06345 18.5233 7.11247 18.4046C7.16149 18.286 7.21158 18.1679 7.26273 18.0501C7.31389 17.9324 7.36611 17.8152 7.41939 17.6984C7.47264 17.5816 7.52695 17.4653 7.5823 17.3496C7.63768 17.2338 7.69408 17.1185 7.7515 17.0037C7.80895 16.8889 7.86742 16.7746 7.9269 16.6609C7.98642 16.5472 8.04693 16.434 8.10844 16.3213C8.16999 16.2087 8.23254 16.0966 8.29608 15.9851C8.35966 15.8736 8.42422 15.7627 8.48976 15.6524C8.5553 15.542 8.62184 15.4322 8.68938 15.3231C8.75692 15.2139 8.82544 15.1054 8.89494 14.9975C8.96441 14.8896 9.03486 14.7823 9.10629 14.6757C9.17773 14.569 9.25011 14.463 9.32344 14.3577C9.39676 14.2524 9.47104 14.1477 9.54626 14.0437C9.62145 13.9397 9.69759 13.8364 9.77468 13.7337C9.85176 13.6311 9.92976 13.5292 10.0087 13.428C10.0876 13.3268 10.1674 13.2262 10.2481 13.1264C10.3289 13.0266 10.4105 12.9276 10.493 12.8293C10.5755 12.731 10.6589 12.6334 10.7432 12.5366C10.8274 12.4398 10.9126 12.3438 10.9986 12.2485C11.0845 12.1532 11.1714 12.0587 11.2591 11.965C11.75 11.4448 12.3324 10.8239 12.912 10.4102Z" fill="white"/>
<path d="M26.4867 2.58716C26.6761 2.81867 26.834 3.07378 27.0298 3.30084C27.9037 4.31443 28.9713 5.29044 29.242 6.66022C29.6178 6.41088 30.0294 6.211 30.4167 5.97919C31.262 5.47346 31.8142 4.8195 32.3992 4.04494C32.643 4.50911 32.8255 5.01309 33.0582 5.48478C33.5939 6.57059 34.3749 7.70468 35.2425 8.55283C36.2993 8.38226 37.4024 8.11591 38.2233 7.38877C39.0104 8.80095 39.6442 10.392 39.5591 12.0357C39.4924 13.3254 39.0162 14.7325 38.0345 15.6121C39.6626 16.9161 40.307 17.9331 42.6321 17.89C42.5757 17.9817 42.514 18.0697 42.4469 18.154C42.3798 18.2382 42.3079 18.3181 42.2312 18.3937C41.5859 19.0395 40.8208 19.222 39.93 19.2217C40.1001 19.4854 40.2972 19.733 40.4672 19.9982C40.5826 20.1811 40.6929 20.367 40.798 20.556C40.9031 20.7451 41.0028 20.9368 41.0973 21.1314C41.1917 21.3259 41.2807 21.5229 41.3642 21.7224C41.4477 21.9219 41.5256 22.1236 41.5979 22.3274C41.77 22.8255 41.9027 23.3338 41.9961 23.8524C42.0472 24.1392 42.0702 24.4369 42.1414 24.7189C42.3283 25.4592 43.174 26.9877 43.6062 27.6506C42.4557 27.4566 41.6635 27.1654 40.7026 26.5022C41.0894 28.7241 41.5517 31.0051 42.7831 32.9324C41.8627 32.6753 41.0157 32.2431 40.2102 31.7368C40.2394 32.3332 40.1685 32.944 40.0746 33.5321C39.7233 35.7308 38.8741 37.4861 37.7138 39.3598C37.6997 39.2573 37.6832 39.1552 37.6644 39.0535C37.6455 38.9517 37.6243 38.8505 37.6009 38.7497C37.5774 38.649 37.5515 38.5488 37.5234 38.4493C37.4953 38.3497 37.4649 38.2509 37.4322 38.1527C37.3995 38.0545 37.3646 37.9572 37.3273 37.8606C37.2902 37.7641 37.2508 37.6685 37.2092 37.5738C37.1676 37.479 37.1238 37.3853 37.0779 37.2926C37.032 37.1999 36.9839 37.1083 36.9338 37.0178C36.8571 37.619 36.6472 38.2471 36.435 38.8138C35.8068 40.4913 34.7701 41.9287 33.4621 43.1439C32.9771 43.5945 32.4574 44.0105 31.953 44.4393C32.0431 43.3652 32.0064 42.3864 31.6766 41.3504C31.2698 42.5071 30.7397 43.5517 29.995 44.5304C29.1673 45.6182 28.1163 46.5569 27.3846 47.714C27.0498 48.2434 26.8025 48.8107 26.5969 49.4005L26.5211 49.6646C26.0939 48.3869 25.3884 47.2983 24.5146 46.2812C24.0346 45.7226 23.531 45.1891 23.0799 44.6057C22.2935 43.5888 21.7051 42.5283 21.2532 41.325C21.2193 41.4509 21.1889 41.5777 21.1619 41.7053C21.1349 41.8329 21.1114 41.9612 21.0914 42.09C21.0713 42.2189 21.0547 42.3482 21.0416 42.478C21.0285 42.6078 21.0189 42.7378 21.0128 42.8681C21.0067 42.9984 21.0041 43.1287 21.005 43.2592C21.006 43.3896 21.0104 43.5199 21.0184 43.6501C21.0263 43.7803 21.0378 43.9102 21.0528 44.0397C21.0677 44.1693 21.0862 44.2984 21.1081 44.4269C20.5071 44.0431 19.734 43.3663 19.2199 42.8539C17.955 41.5933 16.6664 39.6662 16.3505 37.8829C16.286 37.5189 16.2879 37.1547 16.2868 36.7865C15.8557 37.6245 15.4964 38.4094 15.394 39.3603C15.3134 39.2532 15.2345 39.1449 15.1573 39.0354C15.0801 38.9258 15.0046 38.8151 14.9309 38.7031C14.8572 38.5912 14.7853 38.4781 14.7152 38.3639C14.6451 38.2497 14.5768 38.1344 14.5103 38.018C14.4439 37.9017 14.3792 37.7843 14.3165 37.6659C14.2537 37.5475 14.1928 37.4281 14.1339 37.3078C14.0749 37.1874 14.0178 37.0662 13.9626 36.9441C13.9075 36.8219 13.8543 36.6989 13.803 36.5751C13.7517 36.4513 13.7024 36.3267 13.6551 36.2013C13.6078 36.0759 13.5624 35.9498 13.5191 35.823C13.4757 35.6962 13.4344 35.5687 13.3951 35.4406C13.3558 35.3125 13.3185 35.1838 13.2833 35.0545C13.248 34.9252 13.2148 34.7953 13.1837 34.665C13.1526 34.5346 13.1235 34.4038 13.0965 34.2726C13.0694 34.1413 13.0445 34.0097 13.0217 33.8776C12.9989 33.7455 12.9781 33.6131 12.9595 33.4804C12.8824 32.8936 12.8637 32.3091 12.8583 31.7178C12.0557 32.3812 11.1683 32.6447 10.1467 32.7352C11.5533 31.1691 11.9492 28.6683 12.3076 26.668C11.3751 27.2366 10.3845 27.4169 9.31128 27.4938C10.5954 26.4156 10.8457 25.2386 11.1048 23.6728C11.182 23.2064 11.2483 22.7367 11.3962 22.286C11.7267 21.279 12.3425 20.3519 12.9277 19.477C12.0448 19.1388 11.1236 18.6628 10.4952 17.9341C12.2381 17.8109 13.6725 16.8827 14.9031 15.7031C14.3163 14.9181 13.7902 13.8298 13.4591 12.9049C13.3711 12.6591 13.2855 12.4022 13.2819 12.1386C13.2664 11.0079 14.1783 8.36662 14.6623 7.33327C14.9368 7.47292 15.1963 7.64263 15.4718 7.78187C16.1922 8.14597 16.9468 8.37444 17.7329 8.54745C17.8448 8.46793 17.9536 8.38426 18.0591 8.29644C19.2358 7.31595 19.8206 5.64952 19.9553 4.16378C20.7654 5.21397 21.5954 5.60183 22.7501 6.15063C23.0993 6.31663 23.4683 6.47898 23.784 6.70384C24.0956 5.00542 25.6315 3.98514 26.4867 2.58716Z" fill="white"/>
<path d="M26.5119 4.63733C26.5175 4.64288 26.5237 4.64785 26.5286 4.65399C26.6326 4.78336 26.6926 5.11149 26.7392 5.28084C27.133 6.71414 27.3579 8.25322 27.3079 9.74132C27.4273 9.52824 27.5475 9.32075 27.698 9.12747C28.5496 8.0337 29.9393 7.48399 31.2785 7.32286C30.0774 8.03004 29.2265 8.79709 28.5699 10.0516C28.793 9.87726 29.0323 9.72258 29.2748 9.57679C30.8046 8.65714 32.6262 8.28943 34.3769 8.72275C33.9319 8.79374 33.5045 8.91968 33.0779 9.06222C31.8774 9.46344 30.8845 10.043 29.9345 10.8711C30.7897 10.5392 31.6736 10.2503 32.5721 10.0608C34.7826 9.59471 37.0508 10.0956 38.9302 11.3179C37.8509 11.3435 35.9031 12.2132 34.9131 12.7113C36.015 12.4119 37.1106 12.1834 38.2306 11.9666C37.5857 12.7678 36.8747 13.5251 36.264 14.3531C36.9739 13.727 37.6915 13.1098 38.4167 12.5013C37.9844 13.6162 37.5057 14.716 36.576 15.5141C37.0018 15.9472 37.3342 16.5101 37.6882 17.0031C36.8818 16.4555 36.3523 15.8798 35.3856 15.5308C35.6289 15.9427 35.8706 16.3566 36.0694 16.7922C36.3012 17.3003 36.4868 17.8288 36.7137 18.3393C37.4891 20.0833 38.4986 21.6646 39.9204 22.9512C39.7706 22.8749 39.6231 22.7946 39.4778 22.7103C39.3325 22.6259 39.1896 22.5376 39.0491 22.4455C38.9086 22.3532 38.7708 22.2573 38.6356 22.1575C38.5004 22.0577 38.3681 21.9544 38.2385 21.8473C38.109 21.7403 37.9825 21.6298 37.859 21.5159C37.7356 21.4019 37.6153 21.2846 37.4983 21.164C37.3813 21.0435 37.2676 20.9198 37.1574 20.793C37.0471 20.6662 36.9405 20.5364 36.8373 20.4038C36.6386 20.1494 36.4811 19.8666 36.2854 19.6103C36.8759 21.2608 38.1007 22.8476 39.5072 23.886C40.0949 24.3198 40.751 24.6807 41.3984 25.0163C40.8755 24.9245 40.3504 24.8555 39.8339 24.7281C38.7416 24.4585 37.603 23.9171 36.7653 23.1647C37.4156 24.0426 38.0889 24.956 38.4643 25.9931C39.0662 27.6565 38.7694 29.9888 38.0291 31.5864C38.0936 31.0279 38.1296 30.4882 38.0583 29.927C37.9173 28.8188 37.385 27.6995 36.4912 27.0065C36.9555 27.6585 37.2597 28.4719 37.3897 29.2587C37.6307 30.7164 37.4003 32.3482 36.743 33.6693C36.5015 34.1548 36.1962 34.5924 35.8801 35.0309C36.0367 34.6753 36.1756 34.3236 36.2653 33.9439C36.6872 32.1579 36.1725 30.3356 35.2334 28.8086C35.5317 29.7355 35.7147 30.6731 35.6896 31.651C35.6306 33.9539 34.4889 36.0382 32.8413 37.6041C33.521 36.2942 33.3563 35.1075 33.0417 33.7326C33.0303 33.8592 33.019 33.9864 33.0023 34.1125C32.9412 34.5765 32.821 35.0317 32.6757 35.476C32.0216 37.4756 30.7212 38.672 29.097 39.9075C29.1369 39.8591 29.1748 39.8094 29.2108 39.7581C29.709 39.0389 29.9634 38.1641 29.8095 37.2943C29.3005 39.3591 27.7062 39.8676 26.7738 41.5528C26.6444 41.8047 26.5488 42.0726 26.5075 42.3533C26.3409 40.8965 24.7588 39.9201 23.9256 38.8204C23.5709 38.3521 23.341 37.8626 23.1574 37.3086C23.1188 38.3443 23.3299 38.9665 23.8333 39.8557C23.1436 39.2291 22.4109 38.6359 21.78 37.948C20.7306 36.8038 20.1508 35.3436 19.9809 33.8134C19.9666 33.8572 19.9529 33.9004 19.9409 33.945C19.6062 35.1848 19.5358 36.4719 20.1887 37.6191C19.564 37.0725 19.0005 36.3581 18.5617 35.6536C17.6547 34.1975 17.1705 32.4809 17.2925 30.762C17.3362 30.1474 17.4565 29.5476 17.5962 28.9487C17.3761 29.3067 17.1955 29.7098 17.0408 30.1003C17.0091 30.1793 16.9791 30.259 16.9507 30.3393C16.9223 30.4195 16.8956 30.5003 16.8707 30.5817C16.8456 30.6631 16.8223 30.7449 16.8007 30.8273C16.7792 30.9097 16.7593 30.9924 16.7412 31.0756C16.723 31.1588 16.7066 31.2423 16.692 31.3261C16.6773 31.41 16.6644 31.4941 16.6533 31.5785C16.6421 31.6629 16.6327 31.7475 16.6251 31.8323C16.6175 31.9171 16.6116 32.002 16.6075 32.087C16.6034 32.1721 16.6011 32.2571 16.6006 32.3423C16.6001 32.4274 16.6013 32.5125 16.6043 32.5976C16.6073 32.6827 16.6121 32.7677 16.6186 32.8525C16.6252 32.9374 16.6335 33.0221 16.6436 33.1066C16.6536 33.1912 16.6655 33.2754 16.6791 33.3595C16.6927 33.4435 16.708 33.5272 16.7251 33.6106C16.7422 33.694 16.761 33.777 16.7815 33.8597C16.802 33.9423 16.8243 34.0244 16.8483 34.1061C16.952 34.4524 17.0968 34.7805 17.2407 35.1113C16.8094 34.5311 16.4308 33.9558 16.149 33.284C15.4555 31.6306 15.4865 29.6631 16.0015 27.9592C16.1062 27.613 16.2507 27.2764 16.3871 26.9416C16.3556 26.9784 16.3245 27.0155 16.2939 27.053C16.2632 27.0905 16.233 27.1283 16.2032 27.1665C16.1735 27.2047 16.1442 27.2433 16.1153 27.2821C16.0864 27.321 16.058 27.3602 16.0301 27.3998C16.0021 27.4393 15.9747 27.4792 15.9476 27.5194C15.9206 27.5596 15.8941 27.6001 15.868 27.6409C15.842 27.6817 15.8164 27.7228 15.7913 27.7642C15.7662 27.8056 15.7416 27.8473 15.7175 27.8893C15.6934 27.9313 15.6697 27.9736 15.6466 28.0161C15.6235 28.0586 15.6008 28.1014 15.5787 28.1445C15.5566 28.1876 15.535 28.2309 15.5139 28.2745C15.4928 28.3181 15.4722 28.3619 15.4521 28.406C15.432 28.45 15.4124 28.4943 15.3933 28.5388C15.3743 28.5833 15.3558 28.6281 15.3378 28.673C15.3198 28.718 15.3023 28.7631 15.2854 28.8085C15.2684 28.8539 15.252 28.8994 15.2361 28.9452C15.2202 28.9909 15.2049 29.0368 15.1901 29.0829C15.1753 29.129 15.161 29.1753 15.1473 29.2217C15.1336 29.2682 15.1205 29.3148 15.1078 29.3615C15.0952 29.4083 15.0831 29.4552 15.0716 29.5022C15.0601 29.5492 15.0491 29.5964 15.0387 29.6437C15.0282 29.6909 15.0184 29.7383 15.0091 29.7858C14.9997 29.8334 14.991 29.881 14.9828 29.9287C14.9746 29.9764 14.9669 30.0242 14.9599 30.0721C14.9528 30.12 14.9463 30.168 14.9403 30.2161C14.9344 30.2642 14.929 30.3123 14.9242 30.3604C14.9193 30.4086 14.915 30.4569 14.9114 30.5052C14.9077 30.5534 14.9045 30.6017 14.902 30.6501C14.8994 30.6985 14.8974 30.7468 14.896 30.7952C14.8945 30.8436 14.8937 30.892 14.8934 30.9405C14.8931 30.9889 14.8933 31.0373 14.8942 31.0857C14.895 31.1342 14.8964 31.1825 14.8984 31.2309C14.6144 30.5025 14.3977 29.8015 14.3059 29.0222C14.0563 26.9026 14.6886 24.9531 16.0064 23.2911C14.4293 24.3954 13.446 24.7579 11.5413 25.0041C12.0422 24.7888 12.5231 24.599 12.9879 24.3056C14.5917 23.2936 15.8678 21.4733 16.6602 19.775C15.4483 21.1782 14.091 22.5235 12.2869 23.1025C12.6393 22.9138 12.9863 22.7174 13.304 22.4735C14.6083 21.472 15.5429 19.9369 16.268 18.4853C16.5384 17.9441 16.7785 17.3881 17.0565 16.8505C17.2979 16.3835 17.5735 15.936 17.8452 15.4862C17.6251 15.5788 17.4081 15.6779 17.194 15.7838C16.98 15.8896 16.7694 16.0019 16.5623 16.1207C16.3551 16.2395 16.1518 16.3645 15.9524 16.4958C15.7529 16.627 15.5577 16.7643 15.3666 16.9075C15.7046 16.4548 16.0574 16.0665 16.4732 15.6843C15.8173 14.9925 15.0006 13.4396 14.6016 12.5565C15.3439 12.985 15.9754 13.4685 16.6096 14.0413C16.0757 13.2779 15.4974 12.5031 14.7368 11.9501C15.8149 12.0106 16.761 12.3425 17.7647 12.7038C16.6328 11.9236 15.398 11.5048 14.0396 11.3462C14.2646 11.1857 14.498 11.0386 14.74 10.9049C14.9819 10.7713 15.2306 10.6519 15.4862 10.5468C18.0413 9.49142 20.5538 9.86573 23.0382 10.8977C21.7227 9.6556 20.2935 9.00534 18.525 8.68019C18.7803 8.6127 19.0451 8.58269 19.3077 8.5604C21.1228 8.40653 22.9797 8.87565 24.3916 10.0651C23.7696 8.8105 22.9165 8.02359 21.7176 7.33936C22.13 7.38288 22.5274 7.44651 22.923 7.57529C24.0592 7.94518 25.1671 8.68202 25.7158 9.76732C25.6785 9.2753 25.7184 8.78221 25.7639 8.29177C25.8802 7.03722 26.1095 5.83152 26.5119 4.63733Z" fill="black"/>
<path d="M26.4468 28.118C27.0673 28.1182 27.718 28.4337 28.315 28.596C28.8722 28.7474 29.414 28.8047 29.9885 28.8204C30.22 29.0978 30.3362 29.381 30.4281 29.7278C30.2671 29.644 30.1034 29.5862 29.9315 29.5289C30.2643 30.1659 30.2441 30.7144 30.1052 31.4046C30.0503 31.1653 29.9818 30.9477 29.8729 30.7271C29.7954 31.3768 29.5145 31.8553 29.1077 32.36C29.1857 32.0686 29.2396 31.7664 29.3021 31.471C28.9437 32.1195 28.453 32.5963 27.8394 33.0014C27.9443 32.8147 28.0443 32.6254 28.1394 32.4334C27.6064 32.9331 27.0459 33.3856 26.5421 33.9181C26.5062 33.9523 26.5283 33.9379 26.4727 33.9563C26.2636 33.7554 26.0677 33.5411 25.8568 33.342C25.5243 33.028 25.1724 32.7321 24.8273 32.432C24.9268 32.6204 25.019 32.8076 25.1006 33.0046C24.5145 32.6103 24.0119 32.1109 23.6742 31.4894C23.7258 31.7666 23.7648 32.0467 23.8079 32.3254C23.382 31.8342 23.1618 31.3026 22.9985 30.6853C22.936 30.8954 22.9158 31.0913 22.9046 31.3088C22.8646 31.2155 22.8297 31.1203 22.8001 31.0232C22.6276 30.4772 22.7607 30.0424 23.0148 29.5503C22.8423 29.6052 22.6801 29.6646 22.5168 29.743C22.6677 29.48 22.811 29.1837 23.0047 28.9501C23.075 28.8652 23.1398 28.8133 23.2473 28.7857C23.5647 28.7044 23.9162 28.7238 24.2416 28.6555C24.6573 28.5682 25.066 28.4581 25.4754 28.3457C25.7911 28.259 26.12 28.1481 26.4468 28.118Z" fill="white"/>
<path d="M23.0518 12.292C23.2863 12.2713 23.5432 12.319 23.7738 12.3597C24.7937 12.54 25.6836 12.9527 26.5007 13.5837C27.3216 13.0106 28.0713 12.5992 29.0699 12.3972C29.3335 12.3439 29.6068 12.2946 29.8768 12.2984C30.7926 12.3111 32.1995 13.34 32.8213 13.9671C33.5825 14.7349 34.2571 15.8033 34.6125 16.8246C35.2557 18.6732 35.2474 20.997 35.2335 22.9325C34.8418 23.4382 34.3931 23.9117 33.9727 24.3944C33.2048 25.2639 32.4513 26.1456 31.712 27.0395C31.8588 26.274 31.8839 25.447 32.1047 24.7005C32.2957 24.0544 33.9052 22.5385 34.4099 22.0045C34.538 21.2701 34.5804 20.0399 34.4796 19.3048C34.4109 19.9999 34.2982 20.6878 34.1416 21.3685C33.86 21.5718 33.6075 21.8314 33.3546 22.0694C32.8064 22.5854 32.2722 23.1092 31.7704 23.671C31.5464 23.0685 31.2484 22.5617 30.8831 22.0376C31.1342 22.8619 31.3951 23.7364 31.457 24.598C31.5227 25.5153 31.2985 27.3018 30.6634 28.0061C30.426 28.2693 30.1151 28.4051 29.7627 28.4197C29.5411 28.4288 29.3182 28.396 29.1035 28.3425C28.634 28.2257 27.448 27.7806 27.1001 27.4459C26.848 27.2035 26.8158 26.8137 26.8137 26.4825C26.8126 26.3081 26.8259 26.1118 26.9017 25.9531C26.9532 25.8455 27.0294 25.7633 27.1088 25.6762C27.2116 25.5633 27.3287 25.4517 27.4156 25.3263C27.7019 24.9138 27.8637 24.428 28.2351 24.0704C28.3057 24.0024 28.3682 23.9563 28.4707 23.9606C28.5056 23.9876 28.5202 23.9897 28.5341 24.0339C28.6115 24.2789 28.4145 24.6647 28.2985 24.8718C28.9551 24.6037 29.4871 24.1251 29.7917 23.4806C29.8046 23.4163 29.8169 23.3532 29.8113 23.2873C29.7979 23.131 29.7046 22.9888 29.5834 22.8938C28.5771 22.1041 27.5216 22.984 26.4473 22.9214C25.7283 22.8794 24.9505 22.4955 24.2532 22.5736C23.9607 22.6063 23.6292 22.7136 23.4449 22.9548C23.298 23.1471 23.2505 23.4089 23.2937 23.6443C23.4124 24.2895 24.0755 24.6496 24.5668 24.9912C24.5554 24.9515 24.5447 24.9116 24.5346 24.8715C24.4859 24.6755 24.4303 24.1692 24.5606 24.0067C24.608 23.9477 24.6299 23.9496 24.7006 23.9382C24.7074 23.9422 24.7146 23.9455 24.721 23.9502C24.9518 24.1189 25.2211 24.8289 25.4116 25.102C25.6085 25.3846 26.0007 25.7274 26.1339 26.005C26.3079 26.3681 26.2105 26.9871 26.0728 27.3505C25.9338 27.4897 25.7584 27.5987 25.5871 27.6938C24.9121 28.0682 23.5548 28.5478 22.783 28.32C22.4208 28.2131 22.208 27.9665 22.0362 27.6449C21.1939 26.0667 21.522 23.833 22.0115 22.1854C21.7129 22.6687 21.4675 23.1619 21.2939 23.7041C20.6057 22.8647 19.8511 22.078 18.9851 21.4213C18.7885 20.5621 18.7319 19.7261 18.7254 18.847C18.4985 19.8922 18.4468 21.0956 18.6077 22.1542C19.2128 22.6178 20.8029 23.8951 20.9618 24.6291C21.0292 24.9401 21.006 25.2975 21.0355 25.6164C21.0815 26.1141 21.1849 26.6043 21.296 27.0908C20.8411 26.4915 20.3396 25.9205 19.8608 25.3397L17.8487 22.8585C17.7847 22.39 17.7899 21.9041 17.7905 21.432C17.7929 19.4383 18.1172 17.4028 19.0803 15.6337C19.9196 14.0918 21.3546 12.7912 23.0518 12.292Z" fill="white"/>
<path d="M31.6559 15.2686C31.69 15.2657 31.7092 15.2559 31.7385 15.2754C31.2761 15.5234 30.9157 15.8583 30.5591 16.2376C30.6326 16.2123 30.7071 16.1903 30.7826 16.1716C30.858 16.1528 30.9341 16.1375 31.011 16.1256C31.0878 16.1136 31.165 16.1051 31.2425 16.1001C31.3201 16.095 31.3978 16.0933 31.4755 16.0952C32.2454 16.1087 33.0867 16.4952 33.6206 17.0461C32.8972 17.4551 32.9021 17.6504 32.3831 18.2202C31.7765 18.8863 31.1348 18.5774 30.3801 18.6282C30.1642 18.6427 29.9475 18.7168 29.8044 18.8866C29.6024 19.1263 29.6349 19.4727 29.6585 19.7641C29.7148 20.5446 29.9134 21.3235 30.0769 22.0866C29.7373 21.3835 28.9176 18.8742 28.8896 18.1768C29.0619 17.8286 29.398 17.632 29.6089 17.3148C29.8891 16.8932 30.0071 16.3804 30.3062 15.9725C30.6406 15.5165 31.116 15.3488 31.6559 15.2686Z" fill="black"/>
<path d="M31.5829 17.0254C31.7086 17.0678 31.7934 17.1143 31.8819 17.2161C31.962 17.3082 32.0067 17.4184 31.9961 17.5418C31.9805 17.722 31.8597 17.8852 31.7274 18.0001C31.3345 18.3416 30.87 18.3078 30.3908 18.2676C30.3799 18.2653 30.3688 18.264 30.3582 18.2606C30.2922 18.2394 30.2841 18.2297 30.2518 18.1724C30.2445 17.9642 30.3697 17.7682 30.4586 17.5852C30.6282 17.7267 30.7756 17.8399 31.0103 17.8311C31.0298 17.8303 31.0492 17.8285 31.0685 17.8258C31.0878 17.823 31.1069 17.8193 31.1259 17.8146C31.1448 17.8099 31.1634 17.8043 31.1818 17.7977C31.2002 17.7911 31.2181 17.7836 31.2357 17.7752C31.2533 17.7667 31.2704 17.7575 31.2871 17.7473C31.3038 17.7372 31.3199 17.7262 31.3354 17.7144C31.3509 17.7027 31.3658 17.6901 31.3801 17.6768C31.3944 17.6635 31.4079 17.6495 31.4208 17.6349C31.5741 17.4602 31.6035 17.2486 31.5829 17.0254Z" fill="white"/>
<path d="M21.3578 15.2633C21.5428 15.285 21.7317 15.3116 21.9089 15.3709C22.9253 15.7107 22.9113 16.617 23.4422 17.3686C23.6353 17.6419 23.9999 17.8435 24.1363 18.1375C24.3192 18.5319 23.2105 21.5365 23.0217 22.0385C23.1396 21.2934 23.3055 20.5609 23.3986 19.8107C23.4273 19.5225 23.4452 19.1868 23.2551 18.9465C22.8311 18.4102 21.8062 18.8239 21.1324 18.5797C20.3138 18.2831 20.2418 17.3575 19.3269 17.227C19.5249 16.9938 19.7481 16.791 20.0053 16.6245C20.7486 16.1433 21.561 15.9905 22.4209 16.1781C22.1094 15.7841 21.7583 15.5555 21.3578 15.2633Z" fill="black"/>
<path d="M21.3473 17.0271C21.4037 17.0307 21.3785 17.0196 21.42 17.0663C21.4282 17.312 21.5045 17.5298 21.684 17.7057C21.7719 17.7918 21.8725 17.8491 21.9987 17.8421C22.2272 17.8293 22.3892 17.667 22.5357 17.5113C22.5471 17.5259 22.5586 17.5404 22.5694 17.5556C22.6864 17.7207 22.8372 17.958 22.8011 18.1654L22.737 18.2092C22.4572 18.2677 22.1608 18.3103 21.875 18.2748C21.5897 18.2393 21.3086 18.1016 21.1338 17.8683C21.0385 17.7411 20.9805 17.5854 21.0109 17.4256C21.0494 17.2239 21.1882 17.1326 21.3473 17.0271Z" fill="white"/>
</g>
<defs>
<clipPath id="clip0_220_244">
<path d="M0.5 8C0.5 3.58172 4.08172 0 8.5 0H44.5C48.9183 0 52.5 3.58172 52.5 8V44C52.5 48.4183 48.9183 52 44.5 52H8.5C4.08172 52 0.5 48.4183 0.5 44V8Z" fill="white"/>
</clipPath>
</defs>
</svg>
