<svg width="53" height="52" viewBox="0 0 53 52" fill="none" xmlns="http://www.w3.org/2000/svg">
<g clip-path="url(#clip0_220_165)">
<path d="M0.246643 8C0.246643 3.58172 3.82837 0 8.24664 0H44.2466C48.6649 0 52.2466 3.58172 52.2466 8V44C52.2466 48.4183 48.6649 52 44.2466 52H8.24664C3.82836 52 0.246643 48.4183 0.246643 44V8Z" fill="#9B9A9A"/>
<path d="M0.246643 0H52.2466V52H0.246643V0Z" fill="white"/>
<path d="M6.26922 25.9968C6.408 26.0952 6.52581 26.4597 6.60036 26.6211C6.46481 26.6891 6.3298 26.7581 6.19533 26.8283C6.06396 26.6531 5.97321 26.4159 5.85083 26.2274C5.98626 26.1438 6.12886 26.0717 6.26922 25.9968Z" fill="black"/>
<path d="M3.70821 28.3748C3.92293 28.4809 4.12777 28.6137 4.34075 28.7256C4.26008 28.8626 4.18696 29.0055 4.11068 29.1452L3.46478 28.8398C3.54082 28.6818 3.62411 28.5285 3.70821 28.3748Z" fill="black"/>
<path d="M4.78202 26.9552C4.94832 26.9978 5.19374 27.3418 5.30883 27.4715C5.19844 27.5857 5.08294 27.6952 4.96908 27.8059C4.7907 27.6416 4.62038 27.4692 4.4491 27.2976L4.78202 26.9552Z" fill="black"/>
<path d="M7.87045 25.525L7.94982 25.5232C8.05966 25.6393 8.0818 26.0534 8.1072 26.2196C7.9809 26.257 7.84679 26.2757 7.71725 26.2999L7.66895 26.3036C7.55256 26.2005 7.50508 25.7689 7.47055 25.6042C7.60278 25.5744 7.73736 25.5511 7.87045 25.525Z" fill="black"/>
<path d="M3.05092 30.0605L3.75808 30.2107C3.72893 30.3765 3.70648 30.5441 3.68102 30.7105C3.43695 30.6613 3.19422 30.6147 2.94742 30.5806C2.99093 30.4097 3.01886 30.234 3.05092 30.0605Z" fill="black"/>
<path d="M4.76991 34.8345C4.88449 34.9128 4.9932 35.0813 5.08419 35.1902C4.89939 35.3543 4.72214 35.5243 4.54586 35.6973C4.42554 35.5554 4.3142 35.407 4.20206 35.2585C4.38784 35.1112 4.57193 34.9654 4.76991 34.8345Z" fill="black"/>
<path d="M3.61842 31.8292C3.68426 31.9163 3.68766 32.1915 3.70312 32.3098C3.46497 32.3431 3.23051 32.3905 2.99496 32.4382C2.91762 32.3289 2.92167 32.036 2.90649 31.8959L3.61842 31.8292Z" fill="black"/>
<path d="M3.97362 33.4139L4.02113 33.4157C4.09987 33.5024 4.14827 33.705 4.18988 33.8188C3.97096 33.9317 3.75982 34.0579 3.54761 34.1828C3.45789 34.0178 3.3861 33.8498 3.3161 33.6756L3.97362 33.4139Z" fill="black"/>
<path d="M8.69659 27.5263C8.83091 27.5207 8.95116 27.5284 9.07638 27.5819C9.09883 27.5915 9.12072 27.6023 9.14205 27.6142C9.16337 27.6261 9.18404 27.639 9.20405 27.6531C9.22402 27.6671 9.24322 27.6821 9.26163 27.6982C9.28005 27.7142 9.2976 27.7311 9.31429 27.7489C9.33095 27.7668 9.34664 27.7855 9.36137 27.805C9.3761 27.8245 9.38977 27.8447 9.4024 27.8655C9.41499 27.8864 9.42649 27.9079 9.43688 27.93C9.44727 27.9521 9.4565 27.9747 9.46456 27.9978C9.53047 28.1861 9.51011 28.3884 9.41799 28.5642C9.30856 28.7731 9.13671 28.8731 8.91917 28.9414C8.74412 28.9544 8.58213 28.9398 8.42781 28.8495C8.40824 28.8381 8.38926 28.8257 8.37088 28.8124C8.35253 28.7991 8.33489 28.7849 8.31797 28.7699C8.30101 28.7548 8.28484 28.7389 8.26947 28.7222C8.2541 28.7056 8.23959 28.6882 8.22595 28.6701C8.21234 28.652 8.19965 28.6332 8.18786 28.6139C8.17608 28.5945 8.1653 28.5745 8.15552 28.5541C8.1457 28.5337 8.13693 28.5128 8.12921 28.4915C8.12149 28.4701 8.11486 28.4485 8.10931 28.4265C8.06193 28.243 8.08671 28.0362 8.18517 27.8732C8.30461 27.6753 8.47813 27.5807 8.69659 27.5263Z" fill="black"/>
<path d="M46.2509 35.4777L46.2712 35.5085C46.2389 35.6404 46.1823 35.7625 46.1196 35.8826C45.7616 36.5692 45.2058 37.1146 44.4543 37.3404C43.773 37.5451 43.1402 37.426 42.521 37.0951C42.3694 37.0008 42.231 36.8949 42.0909 36.7844C43.4752 36.3527 44.8552 35.8676 46.2509 35.4777Z" fill="black"/>
<path d="M44.8102 29.3798L44.881 29.3757C45.0162 29.4955 45.086 29.8829 45.1364 30.0618C44.4184 30.3272 43.6827 30.5485 42.9534 30.7806L40.1666 31.6678L40.1354 31.6739C40.0151 31.5897 39.9047 31.1081 39.8543 30.953C40.4329 30.7941 41.0037 30.5955 41.5747 30.4112C42.6514 30.0617 43.7299 29.7179 44.8102 29.3798Z" fill="black"/>
<path d="M45.7948 32.3268L45.8325 32.3276C45.9606 32.445 46.0417 32.8518 46.0975 33.0265C44.4372 33.6098 42.7422 34.1063 41.0626 34.6316L41.0413 34.6293C40.9381 34.5583 40.8349 34.0654 40.7937 33.9258C42.4594 33.3978 44.1154 32.8081 45.7948 32.3268Z" fill="black"/>
<path d="M46.4078 34.2825L46.4455 34.3092C46.5052 34.575 46.4539 34.8907 46.3944 35.1531C45.7976 35.3872 45.1163 35.5614 44.4994 35.7578C43.6352 36.0328 42.7663 36.3454 41.8898 36.5754C41.8171 36.505 41.753 36.4261 41.6872 36.3493C41.5769 36.2047 41.4913 36.0436 41.4124 35.8805C42.6274 35.531 43.8351 35.1198 45.0381 34.7291C45.4937 34.5811 45.9459 34.4086 46.4078 34.2825Z" fill="black"/>
<path d="M46.1487 33.2948C46.2499 33.4187 46.3474 33.8393 46.4026 34.0072C44.7202 34.5725 43.0312 35.1175 41.3356 35.6421C41.2153 35.451 41.1614 35.1263 41.0985 34.9056C42.7788 34.359 44.4622 33.822 46.1487 33.2948Z" fill="black"/>
<path d="M44.2322 27.3997L44.2634 27.4039C44.3853 27.5469 44.4526 27.9228 44.5111 28.111C42.8579 28.698 41.1545 29.1506 39.4952 29.7254C39.4081 29.6593 39.2647 29.115 39.2217 28.9808C39.9233 28.7248 40.6498 28.5191 41.3622 28.2943C42.3172 27.9928 43.2701 27.6773 44.2322 27.3997Z" fill="black"/>
<path d="M45.2086 30.3217C45.2914 30.4037 45.4177 30.9186 45.4641 31.0625C44.8526 31.2914 44.2125 31.4687 43.5896 31.6655C42.539 31.9956 41.491 32.3336 40.4454 32.6794C40.4415 32.6778 40.4369 32.6772 40.4336 32.6746C40.3344 32.5909 40.2215 32.0773 40.177 31.9319C40.697 31.7477 41.2339 31.603 41.7599 31.4359L45.2086 30.3217Z" fill="black"/>
<path d="M43.6385 25.4211C43.7558 25.5033 43.8467 25.9842 43.8903 26.1359C43.4439 26.2931 42.9845 26.4229 42.533 26.5656C41.3016 26.9549 40.0624 27.3285 38.8415 27.7498C38.7276 27.6701 38.6314 27.1667 38.5877 27.0084C39.1449 26.7922 39.7404 26.6298 40.3104 26.4478C41.4166 26.0951 42.5259 25.7528 43.6385 25.4211Z" fill="black"/>
<path d="M45.5153 31.3385C45.607 31.4208 45.7357 31.8995 45.7841 32.0421C45.166 32.2628 44.5349 32.4505 43.9099 32.6509L40.7503 33.6658C40.6366 33.5988 40.5166 33.0781 40.4708 32.9325L43.4459 31.982C44.131 31.7627 44.8183 31.5159 45.5153 31.3385Z" fill="black"/>
<path d="M44.5275 28.3917C44.558 28.3918 44.5373 28.3902 44.5878 28.4079C44.6912 28.6279 44.759 28.8702 44.8366 29.1005C43.185 29.6464 41.5062 30.1195 39.8649 30.6952L39.7961 30.6992C39.6672 30.5853 39.6001 30.1437 39.5627 29.9713C40.5293 29.6356 41.5057 29.3357 42.4811 29.0271C43.16 28.8122 43.8395 28.5748 44.5275 28.3917Z" fill="black"/>
<path d="M42.9965 23.4368L43.0516 23.4429C43.1669 23.6161 43.2053 23.9477 43.2512 24.1516C41.5894 24.7469 39.8753 25.215 38.1957 25.7603L38.1804 25.7597C38.0723 25.6306 37.9868 25.2128 37.9321 25.0357L42.9965 23.4368Z" fill="black"/>
<path d="M43.9374 26.4133C44.0481 26.4848 44.1597 26.9918 44.205 27.1338L39.1639 28.727L39.1311 28.7095C39.0327 28.4871 38.974 28.2374 38.9037 28.0044C39.9405 27.6218 41.0135 27.3092 42.0685 26.9797C42.68 26.7887 43.3114 26.5457 43.9374 26.4133Z" fill="black"/>
<path d="M43.2727 24.4253L43.3093 24.4246C43.4362 24.5205 43.5384 24.9803 43.5924 25.145C42.9502 25.3944 42.2629 25.5724 41.6043 25.7769L38.5718 26.7346L38.5138 26.7345C38.3834 26.599 38.3009 26.217 38.2369 26.0278C38.8406 25.81 39.4624 25.6313 40.0749 25.4386L43.2727 24.4253Z" fill="black"/>
<path d="M4.7755 18.9083C4.94731 19.1095 5.2998 19.8473 5.45019 20.1237C5.85095 20.3277 6.2558 20.5232 6.66472 20.7103C6.28965 20.9804 5.83455 21.1724 5.42058 21.3779C5.22243 21.7757 5.02126 22.172 4.81707 22.5668L4.79811 22.561C4.58562 22.3243 4.32158 21.7079 4.16342 21.3991C3.74714 21.1907 3.33368 20.9779 2.93976 20.729C3.33421 20.5084 3.74079 20.3078 4.14698 20.1099C4.35981 19.7111 4.56013 19.306 4.7755 18.9083Z" fill="black"/>
<path d="M4.7987 20.101C4.80345 20.1066 4.80916 20.1116 4.81294 20.118C5.00103 20.4354 5.08958 20.5878 5.435 20.7591C5.10801 20.9281 4.94578 21.1142 4.78626 21.4376C4.62003 21.1024 4.47051 20.9323 4.14139 20.757C4.49248 20.6022 4.62324 20.4334 4.7987 20.101Z" fill="white"/>
<path d="M24.8632 4.03442C25.0275 4.19715 25.1498 4.46762 25.2684 4.6685C25.6033 5.23584 26.1479 5.47832 26.7008 5.79499C25.6299 6.45642 25.5267 6.49501 24.8986 7.61413C24.8534 7.60392 24.8723 7.61641 24.8466 7.56995C24.2507 6.49237 24.1097 6.42249 23.0813 5.76152C24.1465 5.22665 24.3032 5.0938 24.8632 4.03442Z" fill="black"/>
<path d="M24.8851 5.2179C24.9311 5.25131 24.9193 5.23562 24.9459 5.27812C25.0966 5.51862 25.2577 5.66802 25.4987 5.81711C25.2486 6.01069 25.077 6.18416 24.8988 6.44665C24.7216 6.18909 24.4982 6.00267 24.2441 5.82504C24.5305 5.65456 24.6986 5.49333 24.8851 5.2179Z" fill="white"/>
<path d="M47.5679 15.3005C47.7251 15.4433 48.0948 16.2988 48.2417 16.5561C48.6547 16.7765 49.0584 17.0133 49.4735 17.2302C48.1151 17.9668 48.297 17.7503 47.5942 19.1417C47.4105 18.7915 47.247 18.368 47.0059 18.0568C46.7401 17.7136 46.0479 17.4208 45.6506 17.2292C46.0829 17.0397 46.4997 16.8066 46.9184 16.5888C47.1649 16.184 47.3577 15.726 47.5679 15.3005Z" fill="black"/>
<path d="M47.5601 16.6224C47.6583 16.7252 47.7273 16.8563 47.8244 16.9634L47.8542 16.9958C47.9583 17.1104 48.0932 17.181 48.2252 17.259C48.1754 17.2922 48.1258 17.3256 48.0763 17.3594C47.855 17.508 47.7403 17.6572 47.5954 17.8767C47.3932 17.5857 47.22 17.4044 46.9081 17.2283C47.23 17.0765 47.3826 16.9319 47.5601 16.6224Z" fill="white"/>
<path d="M39.666 20.0403C40.1301 20.0045 40.5491 20.064 40.953 20.3092C40.9807 20.3262 41.008 20.3438 41.0349 20.3622C41.0617 20.3805 41.0881 20.3995 41.114 20.4192C41.1399 20.4388 41.1653 20.4591 41.1902 20.48C41.2151 20.5009 41.2394 20.5225 41.2633 20.5446C41.2871 20.5667 41.3103 20.5895 41.333 20.6128C41.3557 20.6361 41.3778 20.6599 41.3993 20.6843C41.4207 20.7088 41.4416 20.7337 41.4618 20.7591C41.4821 20.7846 41.5017 20.8105 41.5206 20.8369C41.5395 20.8634 41.5578 20.8903 41.5754 20.9176C41.593 20.945 41.6099 20.9728 41.6261 21.0009C41.6423 21.0291 41.6578 21.0577 41.6726 21.0867C41.6874 21.1156 41.7014 21.1449 41.7147 21.1746C41.728 21.2043 41.7406 21.2343 41.7524 21.2646C41.7642 21.2949 41.7753 21.3254 41.7856 21.3563C41.7958 21.3871 41.8053 21.4182 41.8141 21.4496C41.8228 21.4809 41.8307 21.5124 41.8379 21.5441C41.9596 22.0701 41.8711 22.6488 41.58 23.105C41.2543 23.6154 40.7926 23.8643 40.2118 23.9882C39.6918 24.0754 39.1903 23.9526 38.7596 23.6504C38.7329 23.632 38.7067 23.6129 38.681 23.5932C38.6552 23.5735 38.63 23.5531 38.6053 23.5321C38.5805 23.5111 38.5564 23.4895 38.5328 23.4673C38.5091 23.4451 38.4861 23.4223 38.4636 23.3989C38.4411 23.3755 38.4193 23.3515 38.398 23.3271C38.3767 23.3025 38.3561 23.2775 38.3361 23.252C38.3161 23.2265 38.2968 23.2005 38.2781 23.1739C38.2594 23.1474 38.2414 23.1205 38.2241 23.0931C38.2068 23.0656 38.1902 23.0378 38.1743 23.0096C38.1583 22.9813 38.1431 22.9527 38.1287 22.9236C38.1142 22.8946 38.1005 22.8652 38.0875 22.8355C38.0745 22.8058 38.0622 22.7758 38.0508 22.7455C38.0393 22.7151 38.0286 22.6845 38.0187 22.6536C38.0087 22.6228 37.9996 22.5917 37.9913 22.5603C37.9829 22.529 37.9754 22.4975 37.9686 22.4658C37.9618 22.434 37.9559 22.4022 37.9507 22.3701C37.8587 21.8251 37.9838 21.3006 38.3047 20.8513C38.6402 20.3814 39.1034 20.1333 39.666 20.0403Z" fill="black"/>
<path d="M39.9127 20.7538C40.1839 20.7619 40.4435 20.8308 40.6675 20.9889C40.9362 21.1784 41.0992 21.4635 41.1514 21.7862C41.2069 22.1297 41.1441 22.4973 40.9313 22.7785C40.6839 23.1054 40.3424 23.2275 39.9526 23.2801C39.6692 23.2834 39.3844 23.2146 39.1532 23.0452C38.8778 22.8434 38.7051 22.5281 38.6619 22.1914C38.6177 21.8478 38.7009 21.4861 38.9229 21.2158C39.1774 20.9061 39.5273 20.7879 39.9127 20.7538Z" fill="white"/>
<path d="M41.438 42.3871C41.4482 42.3859 41.4584 42.3843 41.4687 42.3834C42.3225 42.3078 43.2749 42.6651 43.9299 43.202C43.9749 43.2384 44.0189 43.2759 44.062 43.3146C44.1051 43.3532 44.1472 43.3929 44.1883 43.4337C44.2294 43.4744 44.2694 43.5162 44.3085 43.559C44.3475 43.6017 44.3854 43.6454 44.4222 43.6901C44.459 43.7348 44.4947 43.7803 44.5292 43.8268C44.5638 43.8732 44.5971 43.9205 44.6293 43.9686C44.6614 44.0167 44.6924 44.0656 44.7221 44.1153C44.7518 44.165 44.7803 44.2154 44.8075 44.2665C44.8346 44.3176 44.8605 44.3693 44.8851 44.4217C44.9097 44.4741 44.933 44.5271 44.9549 44.5807C44.9769 44.6342 44.9974 44.6883 45.0167 44.7429C45.0359 44.7975 45.0537 44.8525 45.0702 44.908C45.0867 44.9635 45.1018 45.0194 45.1154 45.0756C45.1291 45.1319 45.1413 45.1884 45.1522 45.2452C45.163 45.3021 45.1724 45.3592 45.1804 45.4165C45.1884 45.4739 45.1949 45.5314 45.2 45.589C45.2858 46.5109 45.0187 47.4069 44.4259 48.1207C43.803 48.871 42.9697 49.348 41.9952 49.4354C41.0726 49.4766 40.2346 49.3054 39.4949 48.7255C39.4493 48.69 39.4045 48.6534 39.3607 48.6158C39.3169 48.5781 39.274 48.5393 39.2321 48.4996C39.1902 48.4598 39.1493 48.419 39.1094 48.3772C39.0695 48.3354 39.0307 48.2926 38.9928 48.2489C38.9551 48.2052 38.9184 48.1605 38.8828 48.115C38.8472 48.0695 38.8127 48.0231 38.7794 47.9759C38.7461 47.9287 38.714 47.8807 38.683 47.8318C38.652 47.7831 38.6223 47.7335 38.5938 47.6833C38.5653 47.633 38.538 47.582 38.512 47.5304C38.486 47.4788 38.4613 47.4266 38.4379 47.3737C38.4144 47.3209 38.3923 47.2676 38.3715 47.2136C38.3507 47.1597 38.3313 47.1053 38.3131 47.0504C38.295 46.9956 38.2783 46.9403 38.2629 46.8846C38.2475 46.8289 38.2334 46.7728 38.2208 46.7164C38.2081 46.6601 38.1969 46.6034 38.187 46.5464C38.1772 46.4895 38.1688 46.4323 38.1617 46.375C38.0489 45.4308 38.2847 44.4724 38.884 43.7266C39.5367 42.9145 40.4126 42.4947 41.438 42.3871Z" fill="black"/>
<path d="M41.5254 43.5041C42.113 43.4615 42.7499 43.6658 43.2034 44.0405C43.2349 44.066 43.2656 44.0922 43.2958 44.1193C43.3259 44.1463 43.3553 44.174 43.3841 44.2025C43.4128 44.231 43.4408 44.2602 43.4681 44.2901C43.4954 44.32 43.5219 44.3506 43.5476 44.3818C43.5734 44.4131 43.5983 44.4449 43.6225 44.4774C43.6466 44.5099 43.6699 44.5429 43.6924 44.5766C43.7149 44.6102 43.7365 44.6445 43.7572 44.6792C43.778 44.714 43.7979 44.7492 43.8169 44.7849C43.8359 44.8207 43.854 44.8569 43.8711 44.8935C43.8883 44.9301 43.9045 44.9672 43.9198 45.0047C43.9352 45.0422 43.9495 45.08 43.9629 45.1182C43.9763 45.1563 43.9888 45.1948 44.0003 45.2336C44.0117 45.2724 44.0222 45.3115 44.0317 45.3508C44.0413 45.3902 44.0498 45.4297 44.0573 45.4695C44.0648 45.5093 44.0713 45.5492 44.0768 45.5893C44.0824 45.6294 44.0869 45.6696 44.0904 45.7099C44.0938 45.7489 44.0963 45.788 44.0978 45.8271C44.0993 45.8662 44.0998 45.9053 44.0993 45.9444C44.0988 45.9835 44.0974 46.0226 44.095 46.0617C44.0926 46.1008 44.0892 46.1397 44.0849 46.1786C44.0806 46.2175 44.0753 46.2562 44.0691 46.2949C44.0628 46.3335 44.0556 46.372 44.0474 46.4102C44.0393 46.4485 44.0302 46.4865 44.0201 46.5244C44.0101 46.5622 43.9991 46.5998 43.9872 46.637C43.9753 46.6743 43.9625 46.7113 43.9487 46.7479C43.935 46.7845 43.9203 46.8208 43.9048 46.8567C43.8893 46.8926 43.8728 46.9281 43.8555 46.9633C43.8382 46.9983 43.8201 47.033 43.801 47.0672C43.782 47.1014 43.7622 47.1351 43.7415 47.1683C43.7208 47.2015 43.6993 47.2342 43.677 47.2663C43.6547 47.2985 43.6316 47.3301 43.6077 47.3611C43.5838 47.3921 43.5592 47.4224 43.5338 47.4522C43.0965 47.9669 42.5112 48.2732 41.8371 48.3269C41.7999 48.3298 41.7626 48.3319 41.7253 48.3331C41.688 48.3344 41.6506 48.3347 41.6133 48.3342C41.5759 48.3337 41.5386 48.3323 41.5013 48.33C41.464 48.3278 41.4268 48.3246 41.3897 48.3206C41.3526 48.3166 41.3155 48.3117 41.2786 48.306C41.2417 48.3003 41.2049 48.2937 41.1683 48.2863C41.1317 48.2789 41.0953 48.2706 41.0591 48.2614C41.0229 48.2523 40.9869 48.2423 40.9512 48.2315C40.9154 48.2207 40.8799 48.209 40.8447 48.1966C40.8095 48.1841 40.7746 48.1708 40.74 48.1567C40.7054 48.1426 40.6712 48.1277 40.6373 48.112C40.6034 48.0964 40.5699 48.0799 40.5368 48.0626C40.5036 48.0454 40.4709 48.0273 40.4386 48.0086C40.4064 47.9898 40.3745 47.9703 40.3431 47.95C40.3118 47.9297 40.2809 47.9088 40.2505 47.887C40.2201 47.8653 40.1902 47.8429 40.1608 47.8198C40.1303 47.796 40.1005 47.7715 40.0712 47.7463C40.0419 47.721 40.0132 47.695 39.9852 47.6684C39.9572 47.6417 39.9299 47.6143 39.9032 47.5863C39.8766 47.5582 39.8506 47.5295 39.8254 47.5002C39.8002 47.4709 39.7757 47.441 39.7519 47.4105C39.7282 47.38 39.7052 47.3489 39.6829 47.3172C39.6607 47.2855 39.6393 47.2533 39.6187 47.2206C39.5981 47.1879 39.5783 47.1547 39.5593 47.121C39.5403 47.0873 39.5222 47.0531 39.5049 47.0185C39.4876 46.9839 39.4712 46.9489 39.4556 46.9135C39.4401 46.8781 39.4254 46.8423 39.4116 46.8061C39.3978 46.77 39.3849 46.7336 39.3729 46.6968C39.3609 46.66 39.3499 46.623 39.3397 46.5856C39.3296 46.5483 39.3203 46.5107 39.312 46.473C39.3037 46.4352 39.2964 46.3972 39.2899 46.3591C39.2835 46.3209 39.2781 46.2827 39.2735 46.2442C39.1982 45.603 39.3579 44.9356 39.7653 44.4281C40.2008 43.8855 40.8425 43.5804 41.5254 43.5041Z" fill="white"/>
<path d="M31.8984 31.0897C32.6882 32.1518 33.5862 33.151 34.4344 34.1681L37.9685 38.4884C38.5213 39.1691 39.0726 39.8397 39.5997 40.5415C39.7857 40.7892 40.0051 41.0418 40.1642 41.3068C40.2053 41.3753 40.2781 41.4936 40.2679 41.5782C40.2557 41.6797 40.1454 41.8016 40.0792 41.8772C39.5259 42.5094 38.8622 43.0785 38.2524 43.6578C38.0106 43.8874 37.7585 44.2165 37.4696 44.3799C37.3638 44.4399 37.2445 44.4703 37.1244 44.4377C37.0049 44.4053 36.9198 44.3146 36.8421 44.2236C36.2341 43.5119 35.6575 42.7677 35.0653 42.0422C33.6119 40.2852 32.1775 38.5128 30.7621 36.7251L29.149 34.7359C28.9369 34.4728 28.645 34.1832 28.4888 33.8867C28.4857 33.8808 28.4831 33.8746 28.4803 33.8685C28.8135 33.6491 29.121 33.3481 29.4341 33.0964L31.8984 31.0897Z" fill="black"/>
<path d="M44.2727 26.4156C45.4727 26.7079 46.5727 27.1303 47.5264 27.9417C48.8423 29.0612 49.7017 30.6264 49.8312 32.358C49.8349 32.4091 49.838 32.4602 49.8404 32.5114C49.8428 32.5626 49.8446 32.6138 49.8457 32.665C49.8469 32.7162 49.8474 32.7675 49.8472 32.8187C49.8471 32.8699 49.8463 32.9212 49.8449 32.9724C49.8435 33.0236 49.8415 33.0747 49.8388 33.1259C49.8361 33.1771 49.8328 33.2282 49.8288 33.2792C49.8249 33.3303 49.8203 33.3814 49.815 33.4323C49.8098 33.4833 49.804 33.5342 49.7975 33.585C49.791 33.6358 49.7838 33.6865 49.7761 33.7372C49.7683 33.7878 49.76 33.8384 49.751 33.8888C49.742 33.9392 49.7323 33.9895 49.7221 34.0397C49.7118 34.0899 49.7009 34.14 49.6894 34.1899C49.6779 34.2398 49.6658 34.2896 49.653 34.3392C49.6403 34.3888 49.6269 34.4383 49.6129 34.4876C49.5989 34.5369 49.5844 34.586 49.5692 34.6349C49.554 34.6838 49.5381 34.7325 49.5217 34.781C49.5053 34.8296 49.4883 34.8779 49.4707 34.926C49.4531 34.9741 49.4349 35.022 49.4161 35.0696C49.3973 35.1173 49.3779 35.1647 49.3579 35.2119C49.3379 35.2591 49.3173 35.306 49.2962 35.3526C49.275 35.3993 49.2533 35.4457 49.231 35.4918C49.2086 35.5379 49.1858 35.5838 49.1624 35.6293C49.1389 35.6749 49.1149 35.7201 49.0903 35.765C49.0657 35.81 49.0406 35.8546 49.0149 35.8989C48.9892 35.9433 48.963 35.9873 48.9362 36.031C48.9094 36.0747 48.8821 36.118 48.8543 36.161C48.8264 36.204 48.798 36.2466 48.769 36.2889C48.7401 36.3312 48.7107 36.3731 48.6807 36.4146C48.6508 36.4562 48.6203 36.4974 48.5893 36.5382C48.5583 36.579 48.5268 36.6194 48.4948 36.6594C48.4628 36.6994 48.4304 36.739 48.3974 36.7782C48.3644 36.8174 48.3309 36.8562 48.297 36.8946C48.2606 36.9362 48.2238 36.9774 48.1864 37.0181C48.149 37.0588 48.1111 37.0991 48.0728 37.1389C48.0344 37.1787 47.9956 37.218 47.9562 37.2569C47.9169 37.2958 47.8771 37.3341 47.8369 37.372C47.7966 37.4099 47.7559 37.4472 47.7147 37.4841C47.6735 37.521 47.6319 37.5574 47.5899 37.5932C47.5478 37.6291 47.5053 37.6644 47.4623 37.6992C47.4194 37.734 47.376 37.7683 47.3322 37.8021C47.2885 37.8358 47.2443 37.869 47.1997 37.9017C47.1551 37.9344 47.1101 37.9665 47.0647 37.9981C47.0194 38.0296 46.9736 38.0607 46.9275 38.0911C46.8813 38.1216 46.8348 38.1514 46.788 38.1808C46.7411 38.2101 46.6939 38.2388 46.6463 38.2669C46.5987 38.2951 46.5508 38.3227 46.5026 38.3496C46.4543 38.3766 46.4057 38.403 46.3568 38.4288C46.308 38.4546 46.2587 38.4798 46.2092 38.5043C46.1597 38.5289 46.1099 38.5529 46.0598 38.5762C46.0097 38.5996 45.9593 38.6223 45.9087 38.6445C45.858 38.6666 45.8071 38.6881 45.7559 38.709C45.7047 38.7299 45.6533 38.7501 45.6016 38.7697C45.5499 38.7893 45.498 38.8083 45.4459 38.8267C45.3937 38.845 45.3414 38.8627 45.2888 38.8798C45.2362 38.8969 45.1835 38.9133 45.1305 38.929C45.0775 38.9448 45.0243 38.9599 44.971 38.9744C44.9176 38.9888 44.8641 39.0027 44.8104 39.0158C44.7567 39.029 44.7029 39.0415 44.6489 39.0533C44.5949 39.0651 44.5407 39.0763 44.4865 39.0868C44.4322 39.0973 44.3778 39.1072 44.3233 39.1163C44.2688 39.1255 44.2141 39.134 44.1594 39.1418C44.1047 39.1497 44.0499 39.1569 43.995 39.1634C43.9401 39.1699 43.8852 39.1757 43.8301 39.1808C43.7751 39.186 43.72 39.1905 43.6648 39.1942C43.6147 39.1976 43.5646 39.2004 43.5145 39.2026C43.4643 39.2047 43.4141 39.2063 43.3639 39.2072C43.3137 39.2081 43.2635 39.2084 43.2133 39.2081C43.1631 39.2078 43.1129 39.2069 43.0628 39.2054C43.0126 39.2038 42.9624 39.2016 42.9123 39.1989C42.8622 39.1961 42.8121 39.1927 42.762 39.1887C42.712 39.1847 42.662 39.18 42.6121 39.1748C42.5621 39.1696 42.5123 39.1637 42.4625 39.1573C42.4127 39.1508 42.363 39.1437 42.3134 39.136C42.2638 39.1283 42.2143 39.12 42.1648 39.1111C42.1155 39.1022 42.0662 39.0927 42.017 39.0826C41.9678 39.0725 41.9188 39.0618 41.8699 39.0504C41.821 39.0391 41.7722 39.0272 41.7236 39.0147C41.6749 39.0022 41.6265 38.989 41.5782 38.9753C41.5299 38.9616 41.4818 38.9473 41.4338 38.9324C41.3859 38.9175 41.3382 38.902 41.2906 38.8859C41.243 38.8699 41.1957 38.8532 41.1485 38.8359C41.1014 38.8187 41.0545 38.8009 41.0077 38.7825C40.961 38.7641 40.9145 38.7452 40.8683 38.7256C40.8221 38.7061 40.776 38.686 40.7303 38.6653C40.6845 38.6446 40.6391 38.6234 40.5938 38.6016C40.5486 38.5798 40.5036 38.5575 40.459 38.5346C40.4143 38.5117 40.3699 38.4883 40.3258 38.4643C40.2817 38.4403 40.2379 38.4158 40.1944 38.3907C40.1509 38.3656 40.1077 38.3401 40.0648 38.3139C40.0219 38.2878 39.9794 38.2612 39.9372 38.234C39.895 38.2068 39.8531 38.1791 39.8115 38.1509C39.77 38.1227 39.7288 38.094 39.688 38.0648C39.6472 38.0356 39.6067 38.0059 39.5666 37.9757C39.5265 37.9455 39.4868 37.9148 39.4474 37.8836C39.4081 37.8524 39.3692 37.8207 39.3306 37.7886C39.292 37.7565 39.2538 37.7238 39.2161 37.6908C37.8208 36.4475 36.9127 34.7942 36.8077 32.9111C36.7931 32.6707 36.7993 32.4265 36.816 32.1865C36.9179 30.7164 37.5773 29.2506 38.694 28.273C38.9231 28.8872 39.1028 29.5252 39.3044 30.1495C39.8056 31.6853 40.2901 33.2264 40.7578 34.7727C41.1118 35.9047 41.3411 36.7962 42.4774 37.3834C43.1637 37.7381 43.8927 37.799 44.6268 37.5637C45.4078 37.3134 46.0608 36.6994 46.4306 35.9746C46.6502 35.5441 46.8116 34.9809 46.7755 34.4939C46.7347 33.9424 46.5204 33.3859 46.3556 32.861C46.1075 32.0665 45.8488 31.2754 45.5795 30.4878C45.1293 29.136 44.7051 27.7733 44.2727 26.4156Z" fill="black"/>
<path d="M7.0401 38.7309C7.06382 38.7282 7.08758 38.7253 7.1114 38.7235C7.74149 38.6768 8.2584 38.8234 8.85401 38.8261L14.8232 38.833L23.3035 38.8342L25.7703 38.8418C26.3426 38.8442 26.9343 38.8181 27.5014 38.9008C27.5533 38.9089 27.6051 38.9178 27.6567 38.9277C27.7083 38.9376 27.7597 38.9483 27.8109 38.96C27.8621 38.9717 27.9131 38.9842 27.9639 38.9977C28.0146 39.0112 28.0651 39.0255 28.1154 39.0408C28.1657 39.056 28.2156 39.0721 28.2653 39.0892C28.315 39.1062 28.3644 39.124 28.4135 39.1427C28.4626 39.1615 28.5113 39.1811 28.5597 39.2015C28.608 39.222 28.6561 39.2433 28.7037 39.2654C28.7513 39.2876 28.7985 39.3105 28.8454 39.3343C28.8922 39.3581 28.9386 39.3827 28.9846 39.4082C29.0305 39.4336 29.076 39.4598 29.1211 39.4868C29.1661 39.5139 29.2106 39.5417 29.2547 39.5703C29.2987 39.5989 29.3423 39.6282 29.3853 39.6584C29.4284 39.6885 29.4708 39.7194 29.5127 39.751C29.5547 39.7826 29.5961 39.815 29.6369 39.848C29.6777 39.8811 29.7179 39.9149 29.7575 39.9494C29.7856 39.9738 29.8134 39.9986 29.8408 40.0237C29.8683 40.0488 29.8955 40.0742 29.9223 40.1C29.9492 40.1257 29.9757 40.1518 30.0019 40.1783C30.0281 40.2047 30.054 40.2314 30.0796 40.2585C30.1051 40.2856 30.1303 40.3129 30.1552 40.3406C30.18 40.3683 30.2045 40.3963 30.2287 40.4246C30.2529 40.4529 30.2767 40.4815 30.3002 40.5104C30.3237 40.5393 30.3468 40.5684 30.3695 40.5979C30.3923 40.6273 30.4146 40.6571 30.4366 40.687C30.4587 40.717 30.4803 40.7473 30.5016 40.7779C30.5229 40.8084 30.5437 40.8392 30.5643 40.8703C30.5847 40.9013 30.6049 40.9327 30.6246 40.9642C30.6443 40.9958 30.6637 41.0276 30.6826 41.0596C30.7016 41.0916 30.7201 41.1239 30.7382 41.1564C30.7564 41.1888 30.7742 41.2215 30.7915 41.2545C30.8088 41.2874 30.8258 41.3206 30.8423 41.3539C30.8588 41.3873 30.8749 41.4208 30.8906 41.4545C30.9063 41.4883 30.9216 41.5222 30.9364 41.5563C30.9513 41.5904 30.9657 41.6247 30.9798 41.6592C30.9938 41.6937 31.0073 41.7284 31.0205 41.7632C31.0336 41.798 31.0464 41.8329 31.0587 41.8681C31.071 41.9032 31.0828 41.9385 31.0942 41.9739C31.1056 42.0093 31.1166 42.0449 31.1272 42.0805C31.1377 42.1163 31.1478 42.1521 31.1574 42.188C31.1671 42.2239 31.1763 42.26 31.1851 42.2962C31.1938 42.3323 31.2021 42.3686 31.21 42.405C31.2179 42.4414 31.2253 42.4778 31.2322 42.5144C31.2392 42.5509 31.2457 42.5876 31.2518 42.6243C31.2578 42.661 31.2635 42.6978 31.2686 42.7346C31.2738 42.7715 31.2785 42.8084 31.2827 42.8454C31.2869 42.8824 31.2907 42.9194 31.2941 42.9565C31.2974 42.9935 31.3003 43.0306 31.3027 43.0678C31.38 44.3386 30.9557 45.5361 30.1105 46.4874C30.0864 46.5152 30.0618 46.5426 30.0369 46.5698C30.0121 46.5969 29.9869 46.6237 29.9614 46.6502C29.9359 46.6768 29.91 46.703 29.8838 46.7288C29.8577 46.7547 29.8312 46.7803 29.8044 46.8055C29.7776 46.8308 29.7505 46.8557 29.7231 46.8803C29.6957 46.9049 29.668 46.9291 29.64 46.9529C29.612 46.9768 29.5838 47.0004 29.5552 47.0236C29.5266 47.0468 29.4978 47.0697 29.4687 47.0921C29.4395 47.1147 29.4101 47.1368 29.3804 47.1586C29.3508 47.1803 29.3208 47.2017 29.2906 47.2227C29.2604 47.2438 29.23 47.2645 29.1993 47.2847C29.1686 47.3051 29.1376 47.325 29.1064 47.3445C29.0752 47.364 29.0438 47.3832 29.0121 47.402C28.9804 47.4207 28.9486 47.4391 28.9165 47.4571C28.8843 47.475 28.852 47.4926 28.8195 47.5098C28.7869 47.527 28.7541 47.5438 28.7212 47.5601C28.6882 47.5766 28.6551 47.5926 28.6217 47.6081C28.5884 47.6237 28.5548 47.6388 28.5211 47.6536C28.4874 47.6683 28.4535 47.6827 28.4195 47.6966C28.3854 47.7105 28.3511 47.724 28.3167 47.7371C28.2823 47.7502 28.2478 47.7628 28.213 47.775C28.1783 47.7873 28.1435 47.7991 28.1085 47.8105C28.0735 47.8219 28.0383 47.8328 28.0031 47.8433C27.9678 47.8538 27.9324 47.8639 27.8969 47.8736C27.8614 47.8832 27.8257 47.8924 27.79 47.9012C27.7542 47.91 27.7184 47.9183 27.6824 47.9262C27.6465 47.9341 27.6105 47.9416 27.5743 47.9486C27.5382 47.9556 27.502 47.9621 27.4657 47.9683C27.4294 47.9744 27.393 47.9801 27.3566 47.9853C27.3202 47.9905 27.2837 47.9953 27.2471 47.9996C27.2106 48.004 27.174 48.0079 27.1373 48.0113C27.1007 48.0147 27.064 48.0177 27.0273 48.0203C26.5457 48.0535 26.0529 48.0335 25.5699 48.0335L23.0037 48.0335L15.0887 48.0344L9.72059 48.0396C8.82237 48.0408 7.58021 48.1072 6.70901 47.9824C6.60646 47.9671 6.50456 47.9484 6.40331 47.9262C6.30205 47.9041 6.20164 47.8786 6.10207 47.8497C6.00251 47.8208 5.90401 47.7887 5.80658 47.7532C5.70918 47.7177 5.61307 47.679 5.51824 47.6371C5.42341 47.5952 5.33011 47.5502 5.23832 47.502C5.14652 47.4539 5.05643 47.4027 4.96806 47.3485C4.87968 47.2943 4.79322 47.2372 4.70867 47.1772C4.62413 47.1173 4.54168 47.0545 4.46134 46.989C4.43116 46.9648 4.40128 46.9402 4.37171 46.9152C4.34213 46.8901 4.31288 46.8648 4.28394 46.8391C4.25499 46.8134 4.22638 46.7873 4.19808 46.7608C4.16979 46.7344 4.14183 46.7077 4.1142 46.6805C4.08657 46.6534 4.05928 46.6259 4.03233 46.5981C4.00539 46.5703 3.97879 46.5422 3.95254 46.5137C3.92629 46.4853 3.9004 46.4565 3.87487 46.4274C3.84933 46.3983 3.82417 46.3689 3.79937 46.3392C3.77456 46.3094 3.75013 46.2794 3.72607 46.2491C3.70202 46.2187 3.67834 46.1881 3.65505 46.1572C3.63175 46.1262 3.60884 46.095 3.58632 46.0635C3.5638 46.032 3.54167 46.0003 3.51994 45.9682C3.49821 45.9362 3.47688 45.9039 3.45595 45.8713C3.43502 45.8387 3.4145 45.8059 3.39439 45.7728C3.37427 45.7397 3.35457 45.7064 3.33529 45.6729C3.316 45.6393 3.29713 45.6054 3.27869 45.5714C3.26024 45.5374 3.24222 45.5031 3.22462 45.4686C3.20703 45.4341 3.18987 45.3994 3.17313 45.3645C3.1564 45.3296 3.1401 45.2945 3.12424 45.2592C3.10838 45.2238 3.09296 45.1883 3.07798 45.1527C3.063 45.1169 3.04847 45.081 3.03438 45.045C3.02029 45.0089 3.00665 44.9727 2.99347 44.9363C2.98028 44.8999 2.96754 44.8633 2.95526 44.8266C2.94299 44.7899 2.93116 44.753 2.9198 44.716C2.90843 44.679 2.89753 44.6418 2.88709 44.6046C2.87665 44.5673 2.86667 44.5299 2.85716 44.4923C2.84765 44.4548 2.8386 44.4172 2.83003 44.3794C2.82145 44.3417 2.81334 44.3038 2.8057 44.2659C2.79807 44.2279 2.79091 44.1899 2.78421 44.1517C2.77752 44.1136 2.7713 44.0754 2.76556 44.0371C2.75982 43.9988 2.75455 43.9604 2.74976 43.922C2.74497 43.8836 2.74066 43.8451 2.73682 43.8066C2.73269 43.7694 2.72902 43.7322 2.72582 43.6949C2.72261 43.6577 2.71987 43.6204 2.7176 43.5831C2.71532 43.5457 2.71351 43.5084 2.71217 43.471C2.71083 43.4337 2.70995 43.3963 2.70953 43.3589C2.70912 43.3214 2.70917 43.2841 2.70969 43.2467C2.71021 43.2093 2.71119 43.1719 2.71265 43.1345C2.7141 43.0971 2.71601 43.0598 2.71839 43.0225C2.72077 42.9852 2.72362 42.9479 2.72693 42.9106C2.73024 42.8734 2.73402 42.8362 2.73825 42.799C2.74249 42.7619 2.74719 42.7248 2.75235 42.6877C2.75752 42.6507 2.76314 42.6137 2.76922 42.5768C2.77531 42.5399 2.78185 42.5031 2.78885 42.4663C2.79585 42.4296 2.8033 42.3929 2.81122 42.3564C2.81913 42.3199 2.8275 42.2834 2.83632 42.247C2.84515 42.2107 2.85442 42.1745 2.86415 42.1384C2.87387 42.1023 2.88404 42.0663 2.89467 42.0304C2.90529 41.9946 2.91635 41.9588 2.92787 41.9233C2.93938 41.8877 2.95133 41.8523 2.96373 41.817C2.97612 41.7817 2.98896 41.7466 3.00223 41.7116C3.0155 41.6766 3.0292 41.6418 3.04334 41.6072C3.05748 41.5726 3.07204 41.5382 3.08704 41.5039C3.10203 41.4697 3.11745 41.4356 3.1333 41.4017C3.14915 41.3678 3.16541 41.3341 3.18209 41.3007C3.19878 41.2672 3.21588 41.2339 3.23339 41.2009C3.2509 41.1679 3.26882 41.135 3.28716 41.1024C3.30548 41.0698 3.32422 41.0375 3.34335 41.0053C3.36249 40.9732 3.38203 40.9413 3.40196 40.9097C3.42189 40.878 3.44221 40.8466 3.46293 40.8155C3.48364 40.7844 3.50474 40.7535 3.52622 40.7229C3.54771 40.6923 3.56957 40.6619 3.59181 40.6318C3.61405 40.6018 3.63666 40.572 3.65964 40.5425C3.68262 40.513 3.70597 40.4838 3.72968 40.4549C4.56466 39.4384 5.74244 38.8605 7.0401 38.7309Z" fill="black"/>
<path d="M21.12 41.2914C21.3826 41.284 21.646 41.2898 21.9087 41.2912C21.925 43.0634 21.9226 44.8356 21.9015 46.6078C21.6413 46.6216 21.3778 46.6144 21.1171 46.6156L21.12 41.2914Z" fill="white"/>
<path d="M16.4654 41.2568C16.7341 41.2513 17.0036 41.2539 17.2725 41.2529C17.2877 43.0391 17.2888 44.8254 17.276 46.6116C17.0055 46.616 16.7344 46.6128 16.4638 46.6133L16.4417 43.157C16.4397 42.5249 16.4254 41.8876 16.4654 41.2568Z" fill="white"/>
<path d="M22.3616 41.2842L25.0947 41.2839C25.0849 41.502 25.0712 41.7197 25.0535 41.9373L24.1543 41.9553L24.1526 45.6556L24.1428 46.6037C23.8739 46.6078 23.6058 46.6005 23.3371 46.593L23.3264 41.9513C23.0056 41.9336 22.6834 41.932 22.3621 41.9257L22.3616 41.2842Z" fill="white"/>
<path d="M25.1982 41.2939C25.4808 41.2859 25.7644 41.2872 26.0472 41.2841C26.2911 42.0238 26.571 42.7535 26.7964 43.499C26.9509 42.7585 27.1975 42.0459 27.3727 41.3115L28.2503 41.3116C28.0029 42.1231 27.7167 42.9188 27.4284 43.7165C27.3439 43.9419 27.2429 44.1736 27.1953 44.4102C27.1368 44.7007 27.1626 45.0159 27.1617 45.3115L27.1573 46.6172L26.3396 46.6204C26.3347 46.1881 26.3329 45.7558 26.3342 45.3235C26.3338 45.0748 26.3525 44.8078 26.313 44.5619C26.2583 44.2211 26.0943 43.8677 25.9779 43.5431C25.7112 42.7993 25.4161 42.0529 25.1982 41.2939Z" fill="white"/>
<path d="M19.2656 41.2179C19.6611 41.1745 20.0516 41.2752 20.4241 41.3966L20.1955 42.1219C19.9 42.021 19.5557 41.8819 19.2367 41.9342C19.0857 41.9589 18.9395 42.0282 18.8536 42.1593C18.7912 42.2547 18.7609 42.3745 18.7451 42.4863C18.6225 43.3523 20.2416 43.6466 20.4423 44.7877C20.5166 45.2099 20.4102 45.6903 20.1598 46.0392C19.8806 46.4282 19.4843 46.5639 19.0359 46.6403C18.5921 46.6625 18.2496 46.6155 17.8343 46.4547C17.8677 46.2096 17.9224 45.9692 17.975 45.7277C18.3079 45.8424 18.6648 45.9638 19.0213 45.9C19.236 45.8615 19.4037 45.7838 19.5272 45.6008C19.6288 45.4501 19.6665 45.2873 19.654 45.1067C19.5889 44.1717 18.0673 43.9531 17.9025 42.8705C17.8458 42.4985 17.96 42.046 18.1913 41.7465C18.4585 41.4006 18.8513 41.2743 19.2656 41.2179Z" fill="white"/>
<path d="M7.85373 40.1013C8.21961 40.053 8.60245 40.1289 8.94868 40.2429C8.89012 40.4801 8.82248 40.7135 8.75276 40.9476C8.40867 40.8544 8.04091 40.8078 7.68925 40.8859C7.26949 40.9791 6.93494 41.2224 6.70765 41.5859C6.23558 42.3407 6.18749 43.4583 6.39351 44.304C6.51813 44.8154 6.78768 45.3118 7.25101 45.5882C7.74668 45.8838 8.25475 45.8179 8.78785 45.6855C8.79273 45.8294 8.80227 45.9721 8.814 46.1157L8.85402 46.4254C8.66542 46.4891 8.47758 46.5378 8.27999 46.5647C7.65274 46.65 7.00111 46.5066 6.49787 46.1142C5.87697 45.6302 5.56162 44.8638 5.46985 44.0994C5.34432 43.0533 5.44721 41.828 6.13092 40.9738C6.5616 40.4357 7.18398 40.1786 7.85373 40.1013Z" fill="white"/>
<path d="M9.27963 41.247C9.54649 41.2428 9.81411 41.2464 10.081 41.2464C10.1009 42.1282 10.1076 43.0101 10.1011 43.8921C10.1011 44.3762 10.0652 44.8928 10.1429 45.3708C10.1664 45.5156 10.2101 45.6551 10.3103 45.7659C10.4172 45.8842 10.564 45.9358 10.7206 45.9405C10.7398 45.9412 10.7591 45.941 10.7783 45.9398C10.7976 45.9386 10.8167 45.9364 10.8358 45.9332C10.8548 45.9301 10.8737 45.926 10.8923 45.9209C10.9109 45.9159 10.9292 45.9099 10.9472 45.9031C10.9653 45.8962 10.9829 45.8884 11.0002 45.8797C11.0174 45.871 11.0341 45.8615 11.0504 45.8512C11.0667 45.8408 11.0824 45.8297 11.0976 45.8178C11.1127 45.8058 11.1272 45.7931 11.1411 45.7797C11.2767 45.6488 11.318 45.4614 11.3451 45.2816C11.4181 44.7952 11.3766 44.261 11.3761 43.7675C11.374 42.9302 11.3785 42.0929 11.3897 41.2557C11.6534 41.2509 11.918 41.2555 12.1818 41.2561L12.1815 42.0144C12.1844 42.9623 12.2097 43.9148 12.1861 44.862C12.1736 45.3663 12.1182 45.9612 11.7199 46.3223C11.4223 46.5922 11.0033 46.6567 10.6153 46.6428C10.261 46.63 9.92075 46.5273 9.67613 46.2565C9.49154 46.0521 9.39156 45.7882 9.33976 45.5213C9.21672 44.8871 9.27776 44.1777 9.27694 43.5318C9.27598 42.7723 9.25242 42.0058 9.27963 41.247Z" fill="white"/>
<path d="M13.2541 41.2487C13.6761 41.231 14.1086 41.2112 14.5273 41.2755C14.9308 41.3374 15.3208 41.4956 15.5617 41.8426C15.8021 42.1888 15.8711 42.7074 15.7859 43.1166C15.6903 43.5755 15.4164 43.831 15.0442 44.08C15.4922 44.5426 15.7791 45.9766 15.9533 46.6158L15.1242 46.6158C15.0509 46.4052 14.9886 46.1903 14.923 45.9772C14.8144 45.5702 14.6693 44.8214 14.4052 44.502C14.2903 44.3629 14.0724 44.37 13.9072 44.3532C13.9105 45.1103 13.9037 45.8672 13.8868 46.6241L13.0951 46.6206L13.0939 42.6509C13.0943 42.37 13.0557 41.5224 13.1 41.2981C13.1562 41.2429 13.1776 41.2535 13.2541 41.2487Z" fill="white"/>
<path d="M13.9064 41.9367C14.2121 41.9333 14.5256 41.9456 14.7674 42.1614C14.9329 42.309 15.013 42.5205 15.0162 42.7396C15.0201 43.0052 14.9199 43.2286 14.7384 43.4168C14.4726 43.6146 14.2252 43.6379 13.9059 43.6694L13.9064 41.9367Z" fill="black"/>
<path d="M31.4874 14.2813C30.84 12.9436 30.4705 11.504 30.5609 10.0087C30.5645 9.94463 30.5689 9.88056 30.5741 9.81654C30.5794 9.75252 30.5854 9.68857 30.5922 9.62469C30.599 9.56084 30.6066 9.49707 30.6151 9.43339C30.6234 9.36971 30.6327 9.30615 30.6427 9.24271C30.6527 9.17927 30.6634 9.11596 30.675 9.05279C30.6866 8.98962 30.699 8.9266 30.7121 8.86373C30.7253 8.80086 30.7392 8.73816 30.7539 8.67564C30.7687 8.61311 30.7842 8.55078 30.8004 8.48866C30.8167 8.42654 30.8337 8.36462 30.8515 8.3029C30.8694 8.24118 30.888 8.17971 30.9073 8.11846C30.9267 8.05722 30.9468 7.99623 30.9677 7.9355C30.9886 7.87476 31.0102 7.8143 31.0326 7.75411C31.055 7.69388 31.0781 7.63396 31.1019 7.57434C31.1258 7.51473 31.1505 7.45541 31.1758 7.39641C31.2012 7.3374 31.2273 7.27871 31.2541 7.22035C31.2809 7.16198 31.3085 7.10397 31.3368 7.04632C31.3651 6.98863 31.3941 6.93132 31.4237 6.87437C31.4535 6.81743 31.4839 6.76088 31.515 6.70471C31.5461 6.64852 31.5779 6.59272 31.6104 6.53734C31.643 6.48195 31.6762 6.42697 31.71 6.3724C31.7439 6.31783 31.7785 6.2637 31.8137 6.21C31.8489 6.15631 31.8848 6.10306 31.9214 6.05024C31.958 5.99743 31.9952 5.94509 32.0331 5.89323C32.071 5.84133 32.1095 5.78994 32.1486 5.73906C32.1878 5.68814 32.2275 5.63772 32.2679 5.58778C32.3084 5.53785 32.3494 5.48843 32.391 5.43955C32.4327 5.39066 32.4749 5.3423 32.5178 5.29447C32.5606 5.2466 32.6041 5.19929 32.6481 5.15253C32.6922 5.10578 32.7368 5.05959 32.7819 5.01395C32.8271 4.9683 32.8729 4.92323 32.9192 4.87873C32.9655 4.83423 33.0124 4.79031 33.0598 4.74698C33.1072 4.70365 33.1552 4.66092 33.2036 4.61878C33.2517 4.57634 33.3002 4.53449 33.3493 4.49325C33.3984 4.452 33.4479 4.41136 33.498 4.37134C33.5481 4.33131 33.5987 4.29191 33.6497 4.25314C33.7008 4.21436 33.7523 4.17622 33.8043 4.13871C33.8563 4.10121 33.9087 4.06435 33.9616 4.02814C34.0145 3.99192 34.0678 3.95637 34.1216 3.92147C34.1754 3.88657 34.2296 3.85234 34.2842 3.81878C34.3388 3.78522 34.3938 3.75234 34.4492 3.72013C34.5047 3.68793 34.5605 3.65642 34.6167 3.62559C34.6729 3.59476 34.7295 3.56463 34.7864 3.5352C34.8434 3.50577 34.9007 3.47704 34.9584 3.44903C35.016 3.42101 35.074 3.3937 35.1324 3.36712C35.1907 3.34053 35.2493 3.31466 35.3083 3.28952C35.3673 3.26438 35.4265 3.23997 35.4861 3.21629C35.5457 3.19261 35.6055 3.16967 35.6657 3.14746C35.7258 3.12526 35.7862 3.1038 35.8469 3.08309C35.9076 3.06237 35.9685 3.04241 36.0296 3.0232C36.0908 3.00399 36.1522 2.98553 36.2138 2.96783C36.2754 2.95013 36.3372 2.9332 36.3992 2.91703C36.4613 2.90085 36.5235 2.88545 36.5859 2.87081C36.6483 2.85617 36.7109 2.84231 36.7737 2.82921C36.8364 2.81612 36.8993 2.8038 36.9624 2.79225C37.0254 2.78071 37.0886 2.76995 37.1519 2.75996C37.2153 2.74998 37.2787 2.74077 37.3422 2.73236C37.4058 2.72394 37.4694 2.7163 37.5332 2.70945C37.5969 2.7026 37.6608 2.69653 37.7246 2.69126C37.7885 2.68598 37.8524 2.68149 37.9164 2.67779C37.9804 2.67409 38.0445 2.67118 38.1085 2.66906C38.1726 2.66694 38.2367 2.66561 38.3008 2.66507C38.3649 2.66453 38.429 2.66478 38.4931 2.66582C38.5572 2.66686 38.6213 2.6687 38.6854 2.67132C38.7494 2.67394 38.8134 2.67735 38.8774 2.68155C38.9425 2.68611 39.0075 2.69147 39.0725 2.69764C39.1375 2.70381 39.2024 2.71078 39.2672 2.71856C39.332 2.72634 39.3967 2.73492 39.4613 2.7443C39.5258 2.75369 39.5903 2.76387 39.6546 2.77485C39.7189 2.78584 39.7831 2.79761 39.8472 2.81019C39.9112 2.82276 39.9751 2.83613 40.0388 2.85028C40.1025 2.86444 40.1661 2.87938 40.2294 2.89512C40.2928 2.91085 40.3559 2.92737 40.4188 2.94466C40.4817 2.96196 40.5444 2.98004 40.6069 2.99889C40.6694 3.01774 40.7317 3.03737 40.7936 3.05776C40.8556 3.07816 40.9174 3.09932 40.9788 3.12125C41.0403 3.14318 41.1015 3.16586 41.1624 3.18931C41.2233 3.21275 41.2839 3.23695 41.3443 3.26189C41.4046 3.28684 41.4646 3.31253 41.5242 3.33897C41.5839 3.3654 41.6433 3.39257 41.7022 3.42048C41.7612 3.44839 41.8199 3.47702 41.8782 3.50638C41.9365 3.53574 41.9944 3.56582 42.0519 3.59662C42.1095 3.62741 42.1666 3.65892 42.2234 3.69113C42.2801 3.72334 42.3365 3.75625 42.3924 3.78986C42.4484 3.82348 42.5039 3.85778 42.559 3.89277C42.6141 3.92775 42.6687 3.96342 42.723 3.99976C42.7772 4.0361 42.8309 4.07312 42.8842 4.11079C42.9375 4.14847 42.9903 4.18679 43.0427 4.22578C43.095 4.26477 43.1469 4.3044 43.1982 4.34467C43.2496 4.38494 43.3004 4.42584 43.3508 4.46737C43.4011 4.50891 43.4509 4.55106 43.5002 4.59382C43.5496 4.63659 43.5983 4.67996 43.6465 4.72394C43.6948 4.76792 43.7425 4.81248 43.7896 4.85764C43.8367 4.9028 43.8832 4.94854 43.9292 4.99485C43.9752 5.04117 44.0206 5.08804 44.0654 5.13547C44.1103 5.1829 44.1545 5.23089 44.1981 5.27944C44.2418 5.32798 44.2848 5.37705 44.3272 5.42665C44.3696 5.47591 44.4115 5.52569 44.4527 5.576C44.4939 5.62627 44.5345 5.67705 44.5745 5.72834C44.6145 5.7796 44.6539 5.83134 44.6926 5.88358C44.7313 5.93578 44.7694 5.98846 44.8068 6.04161C44.8443 6.09476 44.8811 6.14835 44.9173 6.20239C44.9534 6.25645 44.9889 6.31094 45.0237 6.36585C45.0586 6.42073 45.0927 6.47605 45.1263 6.5318C45.1597 6.58753 45.1925 6.64366 45.2247 6.70019C45.2568 6.7567 45.2882 6.81361 45.319 6.87092C45.3497 6.9282 45.3798 6.98586 45.4091 7.04388C45.4385 7.10187 45.4671 7.16024 45.495 7.21898C45.523 7.27768 45.5502 7.33672 45.5767 7.3961C45.6032 7.45548 45.629 7.51517 45.654 7.57516C45.6791 7.63514 45.7034 7.69544 45.727 7.75604C45.7506 7.81664 45.7734 7.87751 45.7956 7.93865C45.8177 7.99979 45.839 8.0612 45.8596 8.12288C45.8803 8.18453 45.9002 8.24643 45.9193 8.30859C45.9384 8.37071 45.9567 8.43307 45.9744 8.49567C45.992 8.55826 46.0089 8.62106 46.0249 8.68406C46.041 8.74707 46.0563 8.81026 46.0709 8.87363C46.0854 8.93701 46.0992 9.00053 46.1122 9.06421C46.1252 9.12793 46.1375 9.19179 46.1489 9.25581C46.1604 9.3198 46.1711 9.38392 46.181 9.44817C46.1909 9.51246 46.2 9.57683 46.2084 9.64129C46.2167 9.70578 46.2243 9.77036 46.2311 9.83502C46.2378 9.89968 46.2438 9.96443 46.249 10.0293C46.2542 10.0941 46.2587 10.1589 46.2623 10.2239C46.2659 10.2888 46.2687 10.3537 46.2708 10.4187C46.2729 10.4837 46.2741 10.5487 46.2746 10.6137C46.2751 10.6787 46.2748 10.7438 46.2737 10.8088C46.2726 10.8738 46.2707 10.9388 46.268 11.0037C46.2653 11.0687 46.2619 11.1336 46.2577 11.1985C46.2537 11.2617 46.249 11.3248 46.2435 11.3879C46.2381 11.451 46.2318 11.514 46.2248 11.5769C46.2177 11.6398 46.2099 11.7026 46.2013 11.7654C46.1928 11.8281 46.1834 11.8907 46.1733 11.9532C46.1632 12.0157 46.1523 12.0781 46.1407 12.1403C46.129 12.2026 46.1166 12.2646 46.1034 12.3266C46.0902 12.3885 46.0763 12.4503 46.0616 12.5119C46.0469 12.5734 46.0314 12.6348 46.0152 12.696C45.999 12.7572 45.9821 12.8182 45.9643 12.879C45.9466 12.9398 45.9281 13.0004 45.9089 13.0607C45.8898 13.121 45.8698 13.1811 45.8491 13.2409C45.8284 13.3008 45.807 13.3604 45.7849 13.4197C45.7627 13.479 45.7399 13.538 45.7163 13.5968C45.6927 13.6555 45.6684 13.714 45.6433 13.7721C45.6183 13.8303 45.5925 13.8881 45.5661 13.9457C45.5396 14.0032 45.5124 14.0604 45.4846 14.1172C45.4567 14.174 45.4281 14.2305 45.3989 14.2867C45.3696 14.3428 45.3397 14.3986 45.3091 14.454C45.2784 14.5095 45.2471 14.5645 45.2151 14.6191C45.1831 14.6738 45.1505 14.728 45.1172 14.7818C45.0839 14.8357 45.0499 14.8891 45.0152 14.9421C44.9806 14.9951 44.9453 15.0477 44.9094 15.0998C44.8735 15.1519 44.8369 15.2036 44.7997 15.2549C44.7625 15.3061 44.7247 15.3568 44.6862 15.4071C44.6478 15.4575 44.6087 15.5073 44.569 15.5566C44.5294 15.606 44.4891 15.6548 44.4482 15.7032C44.4073 15.7515 44.3659 15.7993 44.3238 15.8467C44.2818 15.894 44.2391 15.9408 44.1959 15.9871C44.1527 16.0334 44.1089 16.0791 44.0646 16.1243C44.0203 16.1695 43.9754 16.2142 43.93 16.2583C43.8846 16.3024 43.8386 16.3459 43.7921 16.3889C43.7456 16.4319 43.6985 16.4742 43.651 16.5161C41.992 17.9535 40.0205 18.5791 37.8376 18.4184C35.658 18.2578 33.6961 17.1751 32.2754 15.5314C32.9595 16.8264 33.4521 18.1807 33.6904 19.6306C33.7057 19.7239 33.72 19.8174 33.7332 19.9111C33.7465 20.0048 33.7588 20.0986 33.77 20.1925C33.7812 20.2864 33.7915 20.3805 33.8007 20.4746C33.8099 20.5688 33.8181 20.663 33.8253 20.7574C33.8325 20.8517 33.8386 20.9461 33.8437 21.0405C33.8489 21.135 33.853 21.2295 33.8561 21.324C33.8591 21.4186 33.8612 21.5132 33.8623 21.6077C33.8633 21.7023 33.8633 21.7969 33.8623 21.8916C33.8613 21.9861 33.8593 22.0807 33.8563 22.1753C33.8532 22.2698 33.8491 22.3643 33.844 22.4588C33.839 22.5532 33.8328 22.6476 33.8257 22.742C33.8186 22.8363 33.8104 22.9305 33.8013 23.0247C33.7921 23.1189 33.7819 23.2129 33.7707 23.3068C33.7595 23.4008 33.7473 23.4946 33.734 23.5883C33.7208 23.6819 33.7065 23.7755 33.6913 23.8688C33.676 23.9622 33.6598 24.0553 33.6425 24.1484C33.6252 24.2414 33.607 24.3342 33.5877 24.4268C33.5684 24.5194 33.5481 24.6118 33.5269 24.704C33.5056 24.7962 33.4833 24.8881 33.46 24.9798C33.4368 25.0715 33.4125 25.1629 33.3873 25.2541C33.362 25.3453 33.3358 25.4362 33.3086 25.5268C33.2814 25.6174 33.2532 25.7077 33.224 25.7976C33.1949 25.8876 33.1648 25.9773 33.1336 26.0666C33.1025 26.156 33.0705 26.245 33.0375 26.3336C33.0044 26.4223 32.9704 26.5106 32.9355 26.5985C32.9006 26.6864 32.8647 26.7739 32.8279 26.8611C32.7911 26.9482 32.7533 27.0349 32.7146 27.1213C32.6759 27.2076 32.6362 27.2935 32.5957 27.3789C32.5551 27.4644 32.5136 27.5494 32.4713 27.634C32.4288 27.7186 32.3855 27.8027 32.3413 27.8863C32.2971 27.9699 32.252 28.053 32.206 28.1357C32.16 28.2184 32.1131 28.3005 32.0653 28.3822C31.6819 29.0306 31.215 29.593 30.778 30.2033C30.9455 30.4197 31.1375 30.6205 31.3194 30.8249C31.4425 30.7217 31.5991 30.5184 31.7601 30.488C31.768 30.4864 31.776 30.4853 31.784 30.4846C31.7921 30.4838 31.8002 30.4835 31.8082 30.4836C31.8163 30.4837 31.8243 30.4842 31.8323 30.4851C31.8404 30.4859 31.8483 30.4872 31.8562 30.4889C31.8641 30.4906 31.8719 30.4927 31.8796 30.4952C31.8872 30.4976 31.8948 30.5005 31.9022 30.5038C31.9096 30.507 31.9168 30.5106 31.9238 30.5145C31.9308 30.5185 31.9377 30.5228 31.9443 30.5274C32.0149 30.5762 32.0649 30.6709 32.0637 30.7579C32.0627 30.8369 32.0069 30.8864 31.9567 30.9407L31.8226 30.8098C31.8096 30.8107 31.796 30.8081 31.7837 30.8124C31.7281 30.832 28.477 33.5013 28.3882 33.6092C28.372 33.6289 28.3587 33.6519 28.3457 33.6738C28.3325 33.6807 28.3201 33.6893 28.3062 33.6944C28.2527 33.7141 28.1798 33.7091 28.1282 33.6913C28.0968 33.6501 28.0819 33.6154 28.0828 33.5622C28.0863 33.356 28.209 33.2466 28.3512 33.1231C28.2074 32.933 28.0465 32.7563 27.8895 32.5773C26.1973 33.7011 24.2065 34.3284 22.19 34.501C22.1057 34.5078 22.0214 34.5137 21.937 34.5188C21.8527 34.5238 21.7683 34.5281 21.6838 34.5315C21.5994 34.5349 21.5149 34.5375 21.4304 34.5393C21.3459 34.541 21.2614 34.5419 21.1768 34.542C21.0923 34.5421 21.0078 34.5413 20.9233 34.5397C20.8388 34.5382 20.7543 34.5357 20.6698 34.5324C20.5854 34.5292 20.501 34.5251 20.4166 34.5201C20.3322 34.5152 20.2479 34.5094 20.1637 34.5029C20.0794 34.4963 19.9952 34.4888 19.9111 34.4805C19.8269 34.4723 19.7429 34.4632 19.659 34.4533C19.575 34.4433 19.4912 34.4326 19.4075 34.421C19.3238 34.4094 19.2402 34.397 19.1567 34.3837C19.0732 34.3705 18.9899 34.3564 18.9067 34.3415C18.8235 34.3267 18.7404 34.311 18.6575 34.2944C18.5746 34.2779 18.4919 34.2606 18.4094 34.2424C18.3268 34.2242 18.2445 34.2052 18.1623 34.1854C18.0801 34.1657 17.9981 34.1451 17.9164 34.1236C17.8346 34.1022 17.7531 34.08 17.6718 34.057C17.5905 34.034 17.5094 34.0101 17.4285 33.9855C17.3476 33.9609 17.267 33.9354 17.1867 33.9092C17.1063 33.883 17.0262 33.856 16.9464 33.8282C16.8666 33.8004 16.7871 33.7718 16.7078 33.7424C16.6286 33.713 16.5496 33.6829 16.471 33.6519C16.3923 33.621 16.314 33.5893 16.2359 33.5568C16.1579 33.5243 16.0802 33.491 16.0028 33.457C15.9255 33.423 15.8485 33.3882 15.7718 33.3526C15.6951 33.3171 15.6188 33.2808 15.5428 33.2437C15.4669 33.2066 15.3913 33.1688 15.316 33.1303C15.2408 33.0917 15.166 33.0524 15.0915 33.0124C15.0171 32.9724 14.9431 32.9316 14.8695 32.8901C14.7958 32.8486 14.7226 32.8064 14.6498 32.7634C14.577 32.7205 14.5046 32.6768 14.4327 32.6325C13.7114 32.1863 13.0554 31.6651 12.4071 31.1198C12.0357 31.4713 11.6756 31.8591 11.3383 32.2437C11.4742 32.4214 11.5966 32.6012 11.6989 32.8006C12.097 33.576 12.1955 34.51 11.9257 35.3428C11.6684 36.1369 11.0434 36.8666 10.2958 37.2389C10.2474 37.2631 10.1984 37.2861 10.1488 37.3079C10.0993 37.3297 10.0492 37.3503 9.99857 37.3696C9.948 37.3889 9.89698 37.407 9.84552 37.4238C9.79403 37.4406 9.74216 37.4561 9.68993 37.4704C9.63772 37.4847 9.58518 37.4977 9.5323 37.5094C9.47942 37.5211 9.42629 37.5314 9.3729 37.5405C9.31951 37.5496 9.26594 37.5573 9.21218 37.5638C9.15842 37.5702 9.10452 37.5754 9.05049 37.5792C8.99649 37.5829 8.94243 37.5854 8.88829 37.5865C8.83413 37.5877 8.77998 37.5875 8.72584 37.5859C8.67175 37.5844 8.6177 37.5815 8.5637 37.5774C8.5097 37.5732 8.45584 37.5677 8.40211 37.5608C8.34842 37.554 8.29491 37.5458 8.24159 37.5364C8.18827 37.5269 8.13522 37.5162 8.08245 37.5041C8.02963 37.492 7.97718 37.4787 7.92507 37.464C7.87294 37.4494 7.82119 37.4334 7.76984 37.4162C6.95307 37.1397 6.30332 36.5346 5.92729 35.7644C5.9039 35.7156 5.88172 35.6662 5.86077 35.6163C5.83978 35.5664 5.82002 35.516 5.8015 35.4652C5.78299 35.4143 5.76572 35.363 5.74971 35.3113C5.73369 35.2596 5.71895 35.2076 5.70548 35.1551C5.692 35.1027 5.67982 35.05 5.66891 34.997C5.65801 34.944 5.64842 34.8907 5.64012 34.8372C5.63179 34.7837 5.62479 34.7301 5.6191 34.6762C5.61341 34.6224 5.60904 34.5685 5.606 34.5145C5.60295 34.4604 5.60122 34.4063 5.60082 34.3522C5.60038 34.2981 5.60127 34.244 5.60351 34.1899C5.60574 34.1358 5.60928 34.0818 5.61412 34.0279C5.61896 33.974 5.62512 33.9202 5.63261 33.8666C5.64009 33.813 5.64887 33.7596 5.65896 33.7064C5.66905 33.6532 5.68042 33.6003 5.69309 33.5477C5.70575 33.4951 5.7197 33.4428 5.73493 33.3909C5.75013 33.3389 5.7666 33.2874 5.78434 33.2362C5.80178 33.186 5.82045 33.1363 5.84035 33.087C5.86026 33.0377 5.88137 32.9889 5.90368 32.9406C5.92599 32.8924 5.94946 32.8447 5.97411 32.7976C5.99876 32.7506 6.02455 32.7041 6.0515 32.6582C6.07845 32.6124 6.10651 32.5673 6.1357 32.5229C6.16484 32.4784 6.19509 32.4347 6.22644 32.3918C6.25776 32.3488 6.29012 32.3067 6.32354 32.2653C6.35695 32.224 6.39135 32.1835 6.42672 32.1438C6.46213 32.1041 6.49849 32.0654 6.5358 32.0275C6.57311 31.9896 6.61133 31.9527 6.65047 31.9167C6.6896 31.8808 6.7296 31.8458 6.77046 31.8118C6.81132 31.7778 6.853 31.7448 6.89548 31.7129C6.93797 31.6809 6.98122 31.65 7.02523 31.6202C7.06924 31.5904 7.11396 31.5616 7.1594 31.5341C7.20483 31.5064 7.2509 31.4799 7.29762 31.4546C7.34434 31.4293 7.39167 31.4051 7.43961 31.3821C8.3101 30.9711 9.1777 30.983 10.0733 31.3019C10.4563 30.8285 10.9343 30.4207 11.3339 29.9562C10.9066 29.3895 10.482 28.8283 10.1224 28.2148C10.0781 28.1397 10.0345 28.0641 9.99177 27.9879C9.94898 27.9119 9.907 27.8354 9.86583 27.7584C9.82463 27.6815 9.78423 27.6041 9.74462 27.5263C9.70504 27.4485 9.66628 27.3703 9.62833 27.2917C9.59034 27.2132 9.55319 27.1342 9.51686 27.0548C9.48054 26.9755 9.44502 26.8958 9.41032 26.8157C9.37566 26.7356 9.34182 26.6551 9.30881 26.5743C9.27577 26.4935 9.24359 26.4124 9.21228 26.331C9.18093 26.2495 9.15044 26.1677 9.12082 26.0856C9.09116 26.0035 9.06237 25.9211 9.03444 25.8384C9.00651 25.7558 8.97945 25.6728 8.95324 25.5895C8.92704 25.5063 8.90168 25.4228 8.87717 25.339C8.8527 25.2552 8.82908 25.1712 8.80633 25.0869C8.78362 25.0027 8.76175 24.9182 8.74072 24.8335C8.71973 24.7487 8.69962 24.6638 8.6804 24.5787C8.66117 24.4936 8.64282 24.4082 8.62535 24.3227C8.60788 24.2372 8.59131 24.1515 8.57563 24.0657C8.55993 23.9798 8.54511 23.8938 8.5312 23.8076C8.51732 23.7214 8.5043 23.6351 8.49215 23.5487C8.48003 23.4623 8.46881 23.3757 8.45848 23.2891C8.44816 23.2024 8.43873 23.1156 8.4302 23.0288C8.42166 22.9419 8.41403 22.855 8.40729 22.7679C8.40059 22.6809 8.39477 22.5939 8.38982 22.5067C8.38492 22.4196 8.38089 22.3324 8.37774 22.2451C8.37462 22.1579 8.37241 22.0707 8.37109 21.9834C8.3698 21.8961 8.36939 21.8089 8.36987 21.7216C8.37038 21.6343 8.37178 21.5471 8.37408 21.4598C8.37638 21.3726 8.37958 21.2853 8.38368 21.1981C8.38781 21.111 8.39282 21.0238 8.39871 20.9368C8.40464 20.8497 8.41146 20.7627 8.41918 20.6758C8.4269 20.5888 8.43551 20.502 8.44502 20.4152C8.45454 20.3284 8.46495 20.2418 8.47625 20.1552C8.49074 20.0504 8.50652 19.9457 8.52358 19.8412C8.54065 19.7367 8.55898 19.6325 8.57858 19.5285C8.59821 19.4244 8.6191 19.3206 8.64124 19.2171C8.66342 19.1136 8.68684 19.0103 8.71152 18.9074C8.73624 18.8044 8.76219 18.7018 8.78937 18.5995C8.81659 18.4972 8.84506 18.3953 8.87479 18.2937C8.90451 18.192 8.93547 18.0908 8.96766 17.9899C8.99986 17.8891 9.03329 17.7887 9.06796 17.6886C9.10262 17.5886 9.13851 17.489 9.17561 17.3898C9.21272 17.2907 9.25102 17.1921 9.29053 17.0938C9.33007 16.9956 9.3708 16.8979 9.41271 16.8007C9.45462 16.7035 9.49774 16.6068 9.54205 16.5106C9.58633 16.4145 9.6318 16.3189 9.67845 16.2239C9.7251 16.1288 9.7729 16.0344 9.82186 15.9405C9.87081 15.8466 9.92091 15.7534 9.97217 15.6607C10.0234 15.5681 10.0758 15.4761 10.1293 15.3848C10.1828 15.2934 10.2374 15.2027 10.2931 15.1127C10.3489 15.0227 10.4057 14.9334 10.4636 14.8448C10.5215 14.7562 10.5805 14.6683 10.6406 14.5811C10.7007 14.4939 10.7618 14.4075 10.824 14.3219C10.8862 14.2362 10.9495 14.1513 11.0137 14.0672C11.078 13.9831 11.1433 13.8997 11.2096 13.8172C11.2759 13.7347 11.3433 13.653 11.4116 13.5722C11.4799 13.4913 11.5492 13.4113 11.6195 13.3321C11.6898 13.2529 11.7611 13.1747 11.8333 13.0973C11.9055 13.0198 11.9787 12.9433 12.0527 12.8677C12.1268 12.792 12.2018 12.7173 12.2777 12.6436C12.3537 12.5698 12.4305 12.497 12.5082 12.4251C12.5859 12.3532 12.6645 12.2822 12.7439 12.2123C12.8234 12.1423 12.9037 12.0733 12.9848 12.0053C13.066 11.9373 13.1479 11.8704 13.2307 11.8044C13.3135 11.7384 13.3971 11.6734 13.4815 11.6095C13.5645 11.5475 13.6482 11.4865 13.7327 11.4265C13.8172 11.3665 13.9024 11.3076 13.9884 11.2497C14.0743 11.1918 14.1609 11.135 14.2482 11.0792C14.3355 11.0233 14.4235 10.9686 14.5121 10.9149C14.6007 10.8613 14.69 10.8087 14.7799 10.7572C14.8699 10.7057 14.9604 10.6553 15.0515 10.606C15.1426 10.5567 15.2344 10.5086 15.3267 10.4615C15.419 10.4145 15.5118 10.3685 15.6053 10.3237C15.6987 10.2789 15.7926 10.2352 15.8871 10.1927C15.9816 10.1502 16.0766 10.1088 16.1721 10.0686C16.2676 10.0283 16.3635 9.9893 16.46 9.95141C16.5564 9.91353 16.6533 9.87682 16.7507 9.84127C16.848 9.80572 16.9457 9.77138 17.0439 9.73823C17.142 9.70506 17.2406 9.6731 17.3395 9.64236C17.4385 9.61159 17.5378 9.58201 17.6374 9.55364C17.7371 9.52531 17.8371 9.49817 17.9374 9.47224C18.0377 9.44631 18.1383 9.4216 18.2393 9.3981C18.3402 9.37464 18.4414 9.3524 18.5428 9.33137C18.6443 9.31035 18.746 9.29056 18.8479 9.27201C18.9499 9.25346 19.052 9.23614 19.1544 9.22006C19.2567 9.20398 19.3593 9.18915 19.462 9.17558C19.5647 9.162 19.6676 9.14968 19.7706 9.13861C19.8736 9.1275 19.9768 9.11767 20.08 9.1091C20.1833 9.10054 20.2866 9.09323 20.39 9.08717C20.4935 9.08111 20.597 9.0763 20.7005 9.07274C20.8041 9.06919 20.9077 9.06689 21.0113 9.06584C21.1149 9.06482 21.2185 9.06504 21.3221 9.0665C21.4257 9.06799 21.5293 9.07073 21.6328 9.07473C21.7363 9.07872 21.8398 9.08398 21.9432 9.09052C22.0466 9.09702 22.1499 9.10477 22.2532 9.11378C22.3564 9.12282 22.4595 9.13309 22.5625 9.1446C22.6655 9.15614 22.7683 9.16892 22.8709 9.18294C26.2444 9.6545 29.4356 11.5649 31.4874 14.2813Z" fill="black"/>
<path d="M8.54366 32.5329C8.98861 32.4908 9.40319 32.5411 9.78684 32.7848C10.1773 33.0329 10.4501 33.4463 10.5469 33.8966C10.5535 33.9267 10.5594 33.9569 10.5645 33.9873C10.5696 34.0176 10.574 34.0481 10.5776 34.0787C10.5811 34.1093 10.584 34.1399 10.5861 34.1707C10.5882 34.2014 10.5895 34.2322 10.59 34.2629C10.5905 34.2938 10.5903 34.3245 10.5893 34.3553C10.5884 34.3861 10.5866 34.4168 10.5841 34.4475C10.5815 34.4782 10.5783 34.5088 10.5743 34.5393C10.5702 34.5699 10.5654 34.6003 10.5598 34.6306C10.5543 34.6609 10.548 34.691 10.5409 34.721C10.5339 34.751 10.5261 34.7807 10.5176 34.8103C10.5091 34.8399 10.4998 34.8693 10.4898 34.8984C10.4798 34.9275 10.4691 34.9564 10.4577 34.985C10.4462 35.0136 10.4341 35.0419 10.4213 35.0699C10.4084 35.0979 10.3949 35.1255 10.3807 35.1528C10.3665 35.1802 10.3516 35.2071 10.336 35.2337C10.3204 35.2603 10.3043 35.2865 10.2874 35.3122C10.0048 35.7436 9.58021 35.9728 9.08398 36.0749C8.61857 36.1358 8.18972 36.0731 7.79352 35.8071C7.76912 35.7906 7.74515 35.7735 7.72162 35.7558C7.69806 35.7381 7.67495 35.7198 7.6523 35.701C7.62965 35.6822 7.60748 35.6628 7.58578 35.6429C7.56408 35.6229 7.54288 35.6025 7.5222 35.5815C7.50151 35.5605 7.48135 35.5391 7.46172 35.5171C7.44208 35.4952 7.42301 35.4727 7.40449 35.4498C7.38597 35.4269 7.36803 35.4036 7.35066 35.3798C7.33329 35.356 7.31652 35.3318 7.30034 35.3072C7.28415 35.2825 7.26858 35.2575 7.25362 35.2322C7.23869 35.2068 7.22439 35.1811 7.21071 35.155C7.19703 35.1289 7.184 35.1025 7.17161 35.0757C7.15922 35.049 7.1475 35.022 7.13647 34.9947C7.12543 34.9674 7.11507 34.9398 7.10539 34.912C7.09567 34.8842 7.08667 34.8561 7.07837 34.8279C7.07008 34.7996 7.06248 34.7712 7.05557 34.7425C7.04866 34.7139 7.04247 34.6851 7.03699 34.6561C6.94624 34.1749 7.04039 33.6882 7.32075 33.2848C7.62021 32.854 8.03534 32.6268 8.54366 32.5329Z" fill="white"/>
<path d="M38.2366 5.97011C38.3625 5.96092 38.485 5.94858 38.607 5.99098C38.6278 5.99799 38.6482 6.00606 38.6681 6.0152C38.6881 6.02434 38.7076 6.03452 38.7264 6.04572C38.7453 6.05689 38.7636 6.06903 38.7812 6.08213C38.7988 6.0952 38.8157 6.10916 38.8319 6.12403C38.848 6.13889 38.8633 6.15456 38.8779 6.17105C38.8924 6.1875 38.906 6.20468 38.9187 6.22259C38.9314 6.2405 38.9432 6.25902 38.9539 6.27815C38.9647 6.29727 38.9745 6.31691 38.9832 6.33705C38.9916 6.35635 38.999 6.376 39.0054 6.39601C39.0119 6.41605 39.0173 6.43636 39.0217 6.45695C39.0261 6.47753 39.0294 6.49827 39.0317 6.51916C39.034 6.54008 39.0353 6.56105 39.0355 6.58207C39.0357 6.60313 39.0348 6.62414 39.0329 6.64509C39.031 6.66605 39.028 6.68685 39.024 6.7075C39.02 6.72815 39.0149 6.74855 39.0089 6.76869C39.0028 6.78884 38.9958 6.80863 38.9877 6.82806C38.9027 7.02773 38.7511 7.12787 38.558 7.20937L38.5611 7.6886C38.7932 7.71546 39.0271 7.74766 39.255 7.79996C40.7861 8.15111 41.9896 9.21864 42.8059 10.5259C42.8897 10.3995 42.9676 10.2862 43.1 10.2045C43.2577 10.1073 43.4466 10.0976 43.6233 10.143C43.7771 10.1825 43.9081 10.2763 43.9869 10.4152C44.0785 10.5764 44.0927 10.7791 44.0336 10.9537C43.9796 11.1136 43.8593 11.2497 43.703 11.3157C43.5213 11.3924 43.31 11.3664 43.133 11.2887C42.9339 11.2012 42.8426 11.0201 42.7642 10.8299C41.9197 11.873 40.8183 12.6788 39.504 13.011C39.1598 13.098 38.8086 13.131 38.4595 13.1916L38.4513 13.2269C38.5221 13.3664 38.7666 13.4453 38.8724 13.587C38.9957 13.7523 38.9825 13.9176 38.9587 14.1098C38.9204 14.1824 38.8799 14.2658 38.8238 14.326C38.7206 14.437 38.5662 14.5059 38.4153 14.5086C38.3955 14.509 38.3758 14.5085 38.3561 14.5069C38.3364 14.5054 38.3168 14.5029 38.2974 14.4994C38.2779 14.4959 38.2587 14.4915 38.2397 14.4861C38.2206 14.4808 38.2019 14.4745 38.1835 14.4673C38.1651 14.4601 38.1471 14.452 38.1295 14.443C38.1119 14.434 38.0948 14.4242 38.0782 14.4135C38.0615 14.4028 38.0454 14.3913 38.0299 14.3791C38.0144 14.3668 37.9996 14.3538 37.9853 14.3401C37.8753 14.233 37.8089 14.0793 37.8155 13.925C37.8268 13.6579 38.0291 13.4954 38.2153 13.335C38.2147 13.2936 38.2216 13.2285 38.1809 13.2001C38.1437 13.1743 37.0628 13.0113 36.8585 12.9454C36.7903 12.9233 36.7224 12.9 36.655 12.8755C36.5876 12.8511 36.5207 12.8254 36.4542 12.7985C36.3877 12.7716 36.3218 12.7435 36.2563 12.7143C36.1908 12.685 36.1259 12.6545 36.0615 12.623C35.9971 12.5914 35.9333 12.5587 35.8701 12.5248C35.8069 12.4909 35.7443 12.4559 35.6824 12.4198C35.6204 12.3837 35.5591 12.3464 35.4985 12.3081C35.4379 12.2698 35.378 12.2304 35.3188 12.1899C35.2596 12.1495 35.2011 12.1079 35.1434 12.0654C35.0857 12.0228 35.0288 11.9792 34.9726 11.9346C34.9165 11.89 34.8611 11.8444 34.8066 11.7978C34.7521 11.7512 34.6984 11.7036 34.6457 11.6551C34.5928 11.6066 34.5409 11.5572 34.4899 11.5068C34.4388 11.4564 34.3887 11.4051 34.3396 11.3529C34.2904 11.3008 34.2421 11.2477 34.1948 11.1938C34.1475 11.1399 34.1012 11.0851 34.0559 11.0295C33.9626 11.1536 33.8601 11.2539 33.7022 11.2846C33.5421 11.3156 33.3446 11.2984 33.2082 11.2026C33.0799 11.1125 33.0066 10.9627 32.9852 10.8102C32.9821 10.7891 32.9801 10.768 32.9792 10.7468C32.9782 10.7255 32.9783 10.7043 32.9794 10.6831C32.9805 10.6619 32.9827 10.6408 32.9859 10.6197C32.9891 10.5987 32.9934 10.5779 32.9987 10.5573C33.004 10.5367 33.0103 10.5165 33.0176 10.4965C33.0248 10.4766 33.0331 10.457 33.0423 10.4378C33.0516 10.4187 33.0617 10.4001 33.0728 10.3819C33.0838 10.3638 33.0958 10.3462 33.1086 10.3293C33.2024 10.2061 33.3388 10.1203 33.4947 10.1068C33.6962 10.0894 33.8857 10.1888 34.0343 10.315C34.1294 10.1489 34.2368 9.99122 34.3564 9.84182C34.3857 9.80472 34.4154 9.76799 34.4455 9.73163C34.4757 9.69527 34.5063 9.65928 34.5373 9.62367C34.5684 9.58805 34.5999 9.55283 34.6318 9.51799C34.6637 9.48312 34.696 9.44867 34.7288 9.41465C34.7616 9.38059 34.7947 9.34696 34.8283 9.31375C34.8619 9.2805 34.8959 9.24768 34.9303 9.21528C34.9647 9.18292 34.9995 9.15096 35.0346 9.11941C35.0698 9.08789 35.1054 9.0568 35.1413 9.02612C35.1773 8.99545 35.2136 8.96524 35.2503 8.93548C35.287 8.90572 35.324 8.8764 35.3614 8.84753C35.3988 8.81868 35.4366 8.7903 35.4747 8.76237C35.5128 8.73444 35.5513 8.70698 35.59 8.68C35.6288 8.65302 35.668 8.62653 35.7074 8.60053C35.7468 8.57449 35.7866 8.54897 35.8266 8.52395C35.8667 8.4989 35.9071 8.47435 35.9477 8.45032C35.9884 8.42628 36.0294 8.40273 36.0706 8.37968C36.1119 8.35662 36.1534 8.33409 36.1952 8.31209C36.237 8.29008 36.2791 8.26859 36.3214 8.2476C36.3637 8.22661 36.4063 8.20614 36.4492 8.1862C36.492 8.1663 36.5351 8.1469 36.5784 8.12801C36.6217 8.10915 36.6652 8.09082 36.709 8.07301C36.7527 8.0552 36.7967 8.03794 36.8409 8.02121C36.8851 8.00449 36.9295 7.98831 36.9741 7.97267C37.0187 7.95706 37.0634 7.94199 37.1084 7.92747C37.1534 7.91295 37.1985 7.89897 37.2438 7.88553C37.2891 7.87212 37.3345 7.85927 37.3802 7.84698C37.4258 7.83466 37.4715 7.82291 37.5174 7.81174C37.5633 7.80057 37.6094 7.78997 37.6556 7.77995C37.7017 7.7699 37.748 7.76044 37.7944 7.75157C37.8408 7.74266 37.8873 7.73433 37.9339 7.72658C37.9805 7.71879 38.0272 7.7116 38.074 7.705C38.1208 7.6984 38.1676 7.69237 38.2146 7.68692L38.2396 7.22913C38.0368 7.14757 37.8999 7.06191 37.8074 6.85543C37.7986 6.83556 37.7909 6.81528 37.7841 6.79459C37.7774 6.77394 37.7718 6.75299 37.7672 6.73173C37.7626 6.7105 37.7591 6.68909 37.7568 6.66749C37.7544 6.64589 37.7531 6.62422 37.7529 6.60249C37.7527 6.58075 37.7536 6.55907 37.7556 6.53744C37.7576 6.5158 37.7607 6.49432 37.7649 6.473C37.7691 6.45167 37.7744 6.43061 37.7807 6.40982C37.787 6.38904 37.7944 6.36862 37.8028 6.34858C37.8907 6.14251 38.0359 6.0507 38.2366 5.97011Z" fill="white"/>
<path d="M38.0944 7.93144C38.2453 7.9179 38.3964 7.9143 38.5477 7.92063C38.6991 7.92696 38.8493 7.94319 38.9985 7.96933C40.5965 8.24994 41.7571 9.35347 42.6546 10.635C42.3098 11.0019 41.9681 11.3777 41.5821 11.7025C40.7309 12.4188 39.6146 12.9071 38.4963 12.9528C38.4812 12.8582 38.4708 12.8008 38.4026 12.7279C38.3377 12.7087 38.3387 12.711 38.2762 12.7384C38.2116 12.8044 38.2088 12.8701 38.1959 12.9571C37.329 12.8876 36.5203 12.6562 35.7703 12.2073C35.4832 12.0355 34.1819 11.0714 34.1244 10.7525C34.0781 10.4959 34.4324 10.1155 34.5866 9.92364C35.4259 8.87943 36.7539 8.07683 38.0944 7.93144Z" fill="black"/>
<path d="M38.1898 8.08305C38.711 8.01033 39.2792 8.19355 39.7013 8.49575C40.178 8.83695 40.5278 9.3699 40.6181 9.95185C40.6237 9.98974 40.6284 10.0277 40.6321 10.0659C40.6358 10.1039 40.6385 10.1421 40.6404 10.1804C40.6422 10.2186 40.6431 10.2569 40.643 10.2952C40.6429 10.3335 40.6419 10.3717 40.6399 10.41C40.638 10.4482 40.6351 10.4864 40.6312 10.5245C40.6274 10.5626 40.6226 10.6006 40.6169 10.6384C40.6111 10.6763 40.6045 10.714 40.5968 10.7515C40.5893 10.789 40.5808 10.8263 40.5713 10.8635C40.5619 10.9006 40.5515 10.9374 40.5403 10.974C40.529 11.0106 40.5169 11.0469 40.5038 11.0829C40.4908 11.1189 40.4769 11.1545 40.462 11.1898C40.4472 11.2252 40.4315 11.2601 40.415 11.2946C40.3984 11.3291 40.3811 11.3632 40.3628 11.3969C40.3446 11.4306 40.3255 11.4638 40.3057 11.4966C40.2858 11.5293 40.2651 11.5615 40.2437 11.5932C40.2222 11.6249 40.2 11.6561 40.177 11.6867C39.7931 12.201 39.2632 12.4781 38.6344 12.5693C38.048 12.6478 37.4473 12.4666 36.9745 12.1158C36.9463 12.095 36.9187 12.0735 36.8917 12.0513C36.8646 12.029 36.8381 12.0062 36.8122 11.9827C36.7863 11.9592 36.761 11.9351 36.7362 11.9103C36.7115 11.8856 36.6874 11.8602 36.6639 11.8343C36.6404 11.8083 36.6176 11.7818 36.5954 11.7547C36.5732 11.7276 36.5517 11.7 36.5309 11.6719C36.5101 11.6437 36.49 11.6151 36.4706 11.5859C36.4512 11.5568 36.4326 11.5272 36.4147 11.4972C36.3967 11.4671 36.3795 11.4366 36.3631 11.4057C36.3467 11.3748 36.3311 11.3435 36.3162 11.3118C36.3013 11.2801 36.2872 11.2481 36.2739 11.2157C36.2607 11.1833 36.2482 11.1507 36.2365 11.1177C36.2248 11.0847 36.214 11.0514 36.204 11.0179C36.1939 10.9843 36.1848 10.9506 36.1764 10.9166C36.168 10.8826 36.1605 10.8484 36.1538 10.8141C36.1472 10.7797 36.1414 10.7452 36.1364 10.7106C36.0483 10.1083 36.2001 9.46288 36.5722 8.97797C36.9694 8.46051 37.5513 8.16669 38.1898 8.08305Z" fill="white"/>
<path d="M37.5171 9.01489L37.5206 9.01733C37.5302 9.06298 37.46 9.09924 37.4255 9.1291C37.159 9.36031 36.9607 9.65641 36.9079 10.0115C36.8454 10.4312 36.9457 10.8465 37.2043 11.1835C37.2201 11.2041 37.2363 11.2243 37.253 11.2441C37.2698 11.264 37.287 11.2834 37.3047 11.3023C37.3224 11.3213 37.3405 11.3399 37.3591 11.3579C37.3777 11.376 37.3968 11.3936 37.4162 11.4108C37.4357 11.4279 37.4556 11.4446 37.4759 11.4607C37.4962 11.4769 37.5168 11.4926 37.5379 11.5077C37.559 11.5229 37.5804 11.5375 37.6021 11.5516C37.6239 11.5657 37.646 11.5792 37.6685 11.5922C37.6909 11.6052 37.7137 11.6177 37.7367 11.6296C37.7598 11.6415 37.7831 11.6528 37.8067 11.6635C37.8304 11.6743 37.8542 11.6844 37.8783 11.694C37.9024 11.7036 37.9268 11.7125 37.9513 11.7209C37.9759 11.7293 38.0006 11.737 38.0256 11.7442C38.0505 11.7514 38.0756 11.7579 38.1009 11.7638C38.1261 11.7697 38.1515 11.775 38.177 11.7797C38.2025 11.7843 38.2281 11.7884 38.2539 11.7918C38.7117 11.8502 39.127 11.7187 39.487 11.4367C39.3943 11.5702 39.3091 11.6831 39.1875 11.7922C39.1129 11.8433 39.0351 11.8928 38.9558 11.9361C38.5824 12.1403 38.1252 12.1615 37.7215 12.0425C37.3063 11.92 36.96 11.6516 36.7564 11.2666C36.5544 10.8847 36.5194 10.4156 36.652 10.0052C36.7947 9.56338 37.1081 9.22411 37.5171 9.01489Z" fill="black"/>
<path d="M20.4701 10.4966C20.4998 10.4932 20.529 10.4898 20.5589 10.4883C20.6533 10.4838 20.7478 10.4805 20.8423 10.4783C20.9368 10.4762 21.0313 10.4753 21.1258 10.4755C21.2204 10.4757 21.3149 10.4771 21.4094 10.4797C21.5038 10.4823 21.5983 10.4861 21.6927 10.491C21.7871 10.496 21.8814 10.5022 21.9756 10.5095C22.0698 10.5168 22.164 10.5253 22.258 10.535C22.352 10.5447 22.4459 10.5555 22.5397 10.5676C22.6334 10.5796 22.727 10.5928 22.8204 10.6072C22.9138 10.6216 23.007 10.6372 23.1001 10.6539C23.1931 10.6706 23.2859 10.6885 23.3785 10.7076C23.4711 10.7266 23.5634 10.7468 23.6555 10.7682C23.7476 10.7896 23.8394 10.8121 23.9309 10.8357C24.0224 10.8594 24.1136 10.8842 24.2045 10.9101C24.2954 10.9361 24.3859 10.9632 24.4761 10.9914C24.5663 11.0197 24.6562 11.049 24.7456 11.0795C24.8351 11.11 24.9242 11.1415 25.0129 11.1742C25.1016 11.207 25.1898 11.2408 25.2777 11.2757C25.3655 11.3106 25.4529 11.3466 25.5398 11.3838C25.6267 11.4209 25.7132 11.4591 25.7992 11.4983C25.8852 11.5376 25.9706 11.578 26.0556 11.6194C26.1405 11.6608 26.225 11.7033 26.3089 11.7469C26.3928 11.7904 26.4761 11.835 26.5589 11.8806C26.6417 11.9263 26.7239 11.9729 26.8055 12.0206C26.8871 12.0683 26.9681 12.117 27.0485 12.1667C27.1288 12.2164 27.2086 12.2671 27.2877 12.3189C27.3668 12.3706 27.4453 12.4233 27.5231 12.477C27.6009 12.5307 27.678 12.5853 27.7544 12.6409C27.8308 12.6965 27.9066 12.7531 27.9816 12.8106C28.0566 12.8681 28.1308 12.9266 28.2044 12.986C28.2779 13.0454 28.3507 13.1056 28.4228 13.1669C28.4948 13.2281 28.566 13.2902 28.6365 13.3532C28.707 13.4162 28.7767 13.48 28.8455 13.5448C31.0341 15.5778 32.3037 18.5707 32.4079 21.535C32.4115 21.6269 32.414 21.7189 32.4154 21.8109C32.4168 21.9029 32.4171 21.9949 32.4162 22.0869C32.4153 22.1789 32.4133 22.2708 32.4102 22.3628C32.407 22.4547 32.4027 22.5466 32.3972 22.6385C32.3918 22.7303 32.3852 22.8221 32.3775 22.9138C32.3698 23.0054 32.3609 23.097 32.3509 23.1885C32.341 23.2799 32.3299 23.3712 32.3176 23.4624C32.3054 23.5536 32.2921 23.6446 32.2776 23.7355C32.2631 23.8264 32.2475 23.917 32.2307 24.0075C32.214 24.0979 32.1961 24.1882 32.1771 24.2782C32.1582 24.3683 32.1381 24.458 32.1169 24.5475C32.0957 24.6371 32.0734 24.7263 32.05 24.8153C32.0266 24.9043 32.0021 24.993 31.9765 25.0814C31.9509 25.1697 31.9242 25.2577 31.8965 25.3455C31.8687 25.4332 31.8398 25.5205 31.8098 25.6075C31.7799 25.6945 31.7489 25.7811 31.7168 25.8673C31.6847 25.9536 31.6516 26.0394 31.6174 26.1248C31.5831 26.2102 31.5479 26.2952 31.5116 26.3797C31.4753 26.4643 31.4379 26.5483 31.3995 26.6319C31.3611 26.7155 31.3217 26.7987 31.2812 26.8813C31.2408 26.9639 31.1993 27.046 31.1568 27.1276C31.1143 27.2093 31.0709 27.2903 31.0264 27.3708C30.9819 27.4514 30.9364 27.5313 30.8899 27.6108C30.8434 27.6902 30.796 27.769 30.7476 27.8472C30.6991 27.9254 30.6497 28.0031 30.5994 28.08C30.5491 28.1571 30.4978 28.2334 30.4455 28.3092C30.3933 28.3849 30.3401 28.46 30.286 28.5344C30.2319 28.6088 30.1769 28.6826 30.121 28.7556C30.0651 28.8287 30.0083 28.901 29.9506 28.9727C29.8928 29.0443 29.8342 29.1153 29.7748 29.1854C29.7153 29.2557 29.655 29.3251 29.5938 29.3938C29.5326 29.4625 29.4706 29.5305 29.4077 29.5976C27.4363 31.7055 24.6264 33.0463 21.7319 33.1423C18.8693 33.3178 15.9823 32.2903 13.7993 30.4497C13.7289 30.3901 13.6592 30.3296 13.5902 30.2682C13.5213 30.2069 13.4531 30.1447 13.3856 30.0816C13.3182 30.0186 13.2515 29.9548 13.1856 29.8901C13.1198 29.8255 13.0547 29.76 12.9904 29.6938C12.9261 29.6275 12.8626 29.5605 12.8 29.4928C12.7373 29.425 12.6755 29.3564 12.6146 29.2872C12.5536 29.2179 12.4935 29.1478 12.4342 29.0771C12.3749 29.0063 12.3165 28.9348 12.259 28.8626C12.2014 28.7904 12.1448 28.7176 12.0891 28.644C12.0333 28.5704 11.9785 28.4962 11.9245 28.4213C11.8706 28.3464 11.8175 28.2709 11.7654 28.1947C11.7133 28.1185 11.6622 28.0417 11.612 27.9643C11.5617 27.8868 11.5125 27.8087 11.4642 27.7301C11.4158 27.6515 11.3685 27.5722 11.3221 27.4924C11.2757 27.4127 11.2303 27.3323 11.1858 27.2514C11.1414 27.1705 11.098 27.089 11.0555 27.0071C11.0131 26.9251 10.9716 26.8427 10.9312 26.7597C10.8908 26.6767 10.8514 26.5932 10.813 26.5093C10.7746 26.4254 10.7372 26.341 10.7009 26.2561C10.6645 26.1713 10.6292 26.086 10.5949 26.0003C10.5607 25.9146 10.5275 25.8285 10.4953 25.742C10.4631 25.6554 10.432 25.5685 10.402 25.4813C10.372 25.394 10.343 25.3063 10.3151 25.2184C10.2872 25.1304 10.2604 25.0421 10.2346 24.9534C10.2089 24.8648 10.1842 24.7759 10.1606 24.6866C10.137 24.5974 10.1146 24.5078 10.0932 24.418C10.0718 24.3283 10.0515 24.2382 10.0322 24.1479C10.013 24.0577 9.99494 23.9672 9.97794 23.8765C9.96095 23.7857 9.94505 23.6948 9.93026 23.6037C9.9155 23.5126 9.90184 23.4213 9.88928 23.3299C9.87672 23.2384 9.86528 23.1468 9.85495 23.0551C9.84466 22.9634 9.83547 22.8715 9.82738 22.7796C9.81915 22.6874 9.81207 22.5952 9.80615 22.5029C9.80023 22.4105 9.79544 22.3181 9.79178 22.2257C9.78812 22.1333 9.78562 22.0408 9.78426 21.9483C9.78291 21.8558 9.78269 21.7633 9.7836 21.6707C9.78452 21.5782 9.78658 21.4857 9.7898 21.3933C9.79301 21.3008 9.79738 21.2084 9.8029 21.116C9.80838 21.0237 9.81502 20.9314 9.82281 20.8392C9.83059 20.747 9.83953 20.6549 9.84962 20.563C9.85967 20.471 9.87086 20.3792 9.88319 20.2875C9.89554 20.1958 9.90902 20.1042 9.92361 20.0129C9.9382 19.9215 9.95392 19.8304 9.97078 19.7394C9.98764 19.6484 10.0056 19.5577 10.0247 19.4671C10.0438 19.3766 10.064 19.2863 10.0853 19.1963C10.1067 19.1063 10.1292 19.0165 10.1527 18.9271C10.1762 18.8376 10.2009 18.7484 10.2267 18.6596C10.2524 18.5707 10.2793 18.4822 10.3073 18.394C10.3352 18.3058 10.3642 18.2179 10.3943 18.1305C10.4245 18.043 10.4557 17.9559 10.4879 17.8692C10.5202 17.7825 10.5536 17.6962 10.588 17.6103C10.6224 17.5244 10.6579 17.439 10.6944 17.354C10.7309 17.269 10.7685 17.1845 10.8072 17.1004C10.8458 17.0163 10.8854 16.9327 10.9261 16.8497C10.9668 16.7666 11.0085 16.684 11.0512 16.6019C11.094 16.5198 11.1377 16.4383 11.1824 16.3573C11.2272 16.2764 11.2729 16.196 11.3197 16.1161C11.3664 16.0363 11.4141 15.957 11.4628 15.8784C11.5115 15.7997 11.5612 15.7216 11.6118 15.6442C11.6624 15.5667 11.714 15.4899 11.7666 15.4138C11.8191 15.3376 11.8726 15.2621 11.9269 15.1873C11.9813 15.1125 12.0366 15.0383 12.0929 14.9648C12.1491 14.8914 12.2062 14.8186 12.2643 14.7466C12.3223 14.6745 12.3813 14.6032 12.441 14.5326C14.4977 12.1048 17.318 10.7574 20.4701 10.4966Z" fill="white"/>
<path d="M20.5998 11.7667C20.6082 11.7656 20.6167 11.7643 20.6251 11.7637C23.1347 11.5889 25.7629 12.5027 27.6502 14.156C27.7135 14.2109 27.7762 14.2666 27.8381 14.3231C27.9001 14.3796 27.9613 14.4368 28.0218 14.4948C28.0823 14.5528 28.1421 14.6115 28.2012 14.671C28.2602 14.7305 28.3186 14.7907 28.3761 14.8516C28.4337 14.9125 28.4905 14.9741 28.5466 15.0365C28.6026 15.0988 28.6579 15.1618 28.7124 15.2255C28.7669 15.2892 28.8206 15.3536 28.8734 15.4186C28.9264 15.4836 28.9784 15.5493 29.0297 15.6156C29.081 15.6819 29.1314 15.7489 29.181 15.8165C29.2306 15.884 29.2794 15.9522 29.3273 16.021C29.3752 16.0898 29.4223 16.1591 29.4685 16.2291C29.5147 16.299 29.56 16.3695 29.6045 16.4406C29.6489 16.5116 29.6925 16.5832 29.7352 16.6554C29.7778 16.7275 29.8196 16.8002 29.8605 16.8734C29.9014 16.9465 29.9414 17.0202 29.9804 17.0944C30.0195 17.1686 30.0576 17.2432 30.0948 17.3183C30.132 17.3934 30.1683 17.469 30.2036 17.545C30.239 17.621 30.2733 17.6974 30.3067 17.7743C30.3402 17.8512 30.3727 17.9284 30.4042 18.0061C30.4357 18.0838 30.4663 18.1618 30.4959 18.2403C30.5255 18.3187 30.5541 18.3974 30.5817 18.4766C30.6094 18.5557 30.636 18.6352 30.6617 18.715C30.6874 18.7948 30.712 18.8749 30.7357 18.9553C30.7594 19.0357 30.7821 19.1164 30.8038 19.1973C30.8255 19.2783 30.8462 19.3595 30.8658 19.441C30.8855 19.5225 30.9042 19.6042 30.9219 19.6861C30.9395 19.7681 30.9561 19.8503 30.9718 19.9326C30.9874 20.015 31.002 20.0975 31.0156 20.1802C31.0291 20.2629 31.0417 20.3458 31.0532 20.4288C31.0647 20.5119 31.0752 20.595 31.0847 20.6783C31.0941 20.7616 31.1025 20.845 31.1099 20.9285C31.1173 21.012 31.1237 21.0956 31.129 21.1792C31.1342 21.2612 31.1385 21.3433 31.1417 21.4254C31.1449 21.5075 31.1472 21.5897 31.1484 21.6718C31.1496 21.754 31.1499 21.8362 31.1491 21.9183C31.1483 22.0005 31.1465 22.0827 31.1438 22.1648C31.141 22.2469 31.1372 22.329 31.1325 22.4111C31.1277 22.4931 31.1219 22.5751 31.1151 22.657C31.1084 22.7388 31.1006 22.8207 31.0918 22.9024C31.0831 22.9841 31.0733 23.0657 31.0625 23.1471C31.0518 23.2286 31.04 23.31 31.0273 23.3911C31.0146 23.4723 31.0008 23.5533 30.9861 23.6342C30.9714 23.715 30.9557 23.7957 30.939 23.8762C30.9224 23.9566 30.9047 24.0369 30.8861 24.1169C30.8674 24.1969 30.8478 24.2767 30.8273 24.3563C30.8067 24.4359 30.7851 24.5152 30.7626 24.5942C30.7401 24.6733 30.7166 24.752 30.6922 24.8304C30.6678 24.9089 30.6424 24.9871 30.6161 25.0649C30.5897 25.1428 30.5624 25.2203 30.5342 25.2974C30.506 25.3746 30.4768 25.4514 30.4468 25.5279C30.4167 25.6044 30.3856 25.6805 30.3537 25.7562C30.3217 25.8319 30.2888 25.9072 30.2551 25.9821C30.2213 26.057 30.1866 26.1315 30.151 26.2056C30.1154 26.2796 30.0789 26.3533 30.0415 26.4264C30.0041 26.4996 29.9658 26.5723 29.9266 26.6446C29.8874 26.7168 29.8474 26.7886 29.8065 26.8598C29.7656 26.9311 29.7238 27.0019 29.6811 27.0721C29.6385 27.1424 29.595 27.2121 29.5507 27.2812C29.5063 27.3504 29.4611 27.4191 29.4151 27.4872C29.3691 27.5552 29.3223 27.6228 29.2746 27.6897C29.227 27.7567 29.1785 27.823 29.1292 27.8888C29.0799 27.9545 29.0299 28.0197 28.979 28.0843C28.9281 28.1488 28.8765 28.2127 28.824 28.276C28.7716 28.3393 28.7184 28.4019 28.6645 28.4639C28.6096 28.5262 28.5539 28.5878 28.4975 28.6487C28.441 28.7096 28.3838 28.7698 28.3259 28.8294C28.268 28.8889 28.2093 28.9477 28.15 29.0057C28.0906 29.0638 28.0305 29.1211 27.9697 29.1777C27.9089 29.2342 27.8475 29.2901 27.7853 29.3451C27.7231 29.4002 27.6603 29.4545 27.5968 29.508C27.5333 29.5615 27.4691 29.6142 27.4043 29.6661C27.3395 29.718 27.2741 29.7692 27.208 29.8195C27.1419 29.8698 27.0752 29.9193 27.0079 29.9679C26.9407 30.0166 26.8728 30.0644 26.8043 30.1114C26.7359 30.1584 26.6668 30.2045 26.5972 30.2498C26.5276 30.2951 26.4574 30.3395 26.3867 30.3831C26.316 30.4266 26.2448 30.4693 26.173 30.511C26.1012 30.5528 26.029 30.5938 25.9562 30.6338C25.8834 30.6738 25.8102 30.7129 25.7364 30.7511C25.6627 30.7893 25.5885 30.8265 25.5139 30.8629C25.4392 30.8993 25.3641 30.9347 25.2886 30.9692C25.213 31.0037 25.1371 31.0373 25.0607 31.0699C24.9844 31.1026 24.9076 31.1343 24.8305 31.165C24.7533 31.1957 24.6758 31.2255 24.5979 31.2544C24.5201 31.2832 24.4418 31.311 24.3633 31.338C24.2847 31.3648 24.2058 31.3908 24.1266 31.4157C24.0474 31.4407 23.9679 31.4646 23.8881 31.4876C23.8083 31.5106 23.7282 31.5326 23.6479 31.5536C23.5676 31.5746 23.487 31.5946 23.4061 31.6136C23.3253 31.6327 23.2442 31.6507 23.1629 31.6677C23.0817 31.6848 23.0002 31.7008 22.9185 31.7158C22.8368 31.7308 22.755 31.7448 22.673 31.7578C22.5909 31.7707 22.5088 31.7827 22.4265 31.7937C22.3441 31.8046 22.2617 31.8146 22.1792 31.8235C22.0966 31.8324 22.0139 31.8403 21.9311 31.8472C21.8484 31.8541 21.7656 31.8599 21.6827 31.8648C19.0035 31.9631 16.575 31.1768 14.532 29.4211C14.4699 29.3678 14.4084 29.3137 14.3477 29.259C14.2869 29.2042 14.2269 29.1487 14.1675 29.0924C14.1081 29.0361 14.0494 28.9792 13.9914 28.9214C13.9334 28.8637 13.8761 28.8053 13.8196 28.7462C13.763 28.6871 13.7072 28.6273 13.6521 28.5668C13.597 28.5063 13.5427 28.4452 13.4892 28.3834C13.4356 28.3215 13.3828 28.259 13.3307 28.1959C13.2787 28.1328 13.2274 28.069 13.177 28.0046C13.1265 27.9402 13.0768 27.8752 13.028 27.8096C12.9791 27.744 12.931 27.6778 12.8838 27.611C12.8365 27.5442 12.7901 27.4769 12.7446 27.409C12.699 27.341 12.6542 27.2725 12.6103 27.2035C12.5664 27.1344 12.5234 27.0649 12.4812 26.9948C12.439 26.9247 12.3977 26.8541 12.3573 26.783C12.3168 26.7119 12.2772 26.6403 12.2385 26.5682C12.1998 26.4961 12.162 26.4236 12.1251 26.3505C12.0882 26.2775 12.0522 26.204 12.0172 26.1301C11.9821 26.0563 11.9479 25.982 11.9146 25.9072C11.8813 25.8325 11.849 25.7573 11.8176 25.6818C11.7862 25.6063 11.7557 25.5303 11.7261 25.454C11.6966 25.3778 11.668 25.3011 11.6403 25.2241C11.6127 25.1471 11.586 25.0698 11.5602 24.9922C11.5344 24.9145 11.5096 24.8366 11.4858 24.7583C11.4619 24.68 11.439 24.6015 11.4171 24.5227C11.3952 24.4438 11.3743 24.3648 11.3543 24.2855C11.3344 24.2061 11.3154 24.1265 11.2974 24.0467C11.2794 23.9669 11.2624 23.8869 11.2463 23.8067C11.2303 23.7265 11.2152 23.6461 11.2012 23.5655C11.1871 23.4849 11.174 23.4041 11.162 23.3232C11.1499 23.2423 11.1388 23.1612 11.1288 23.0801C11.1187 22.9988 11.1096 22.9175 11.1015 22.8362C11.0934 22.7547 11.0864 22.6732 11.0803 22.5916C10.8892 20.0122 11.739 17.3164 13.4383 15.3545C15.3088 13.1949 17.75 11.9701 20.5998 11.7667Z" fill="black"/>
<path d="M21.9288 20.7229C22.1501 20.7066 22.3476 20.7222 22.5476 20.8308C22.5623 20.8389 22.5769 20.8473 22.5912 20.8562C22.6055 20.865 22.6195 20.8742 22.6334 20.8837C22.6472 20.8933 22.6608 20.9032 22.6742 20.9135C22.6875 20.9237 22.7006 20.9342 22.7134 20.9451C22.7262 20.956 22.7387 20.9673 22.7509 20.9788C22.7632 20.9903 22.7751 21.0022 22.7867 21.0143C22.7984 21.0264 22.8097 21.0388 22.8207 21.0515C22.8317 21.0643 22.8424 21.0772 22.8528 21.0905C22.8631 21.1037 22.8731 21.1172 22.8828 21.131C22.8925 21.1447 22.9018 21.1587 22.9108 21.1729C22.9197 21.1872 22.9283 21.2016 22.9366 21.2163C22.9448 21.2309 22.9527 21.2458 22.9602 21.2608C22.9676 21.2759 22.9748 21.2911 22.9815 21.3066C22.9882 21.322 22.9945 21.3375 23.0004 21.3533C23.0064 21.369 23.0119 21.3849 23.017 21.4009C23.0221 21.4169 23.0269 21.433 23.0312 21.4493C23.1003 21.7045 23.0679 21.9903 22.9316 22.2183C22.7721 22.4848 22.5311 22.6028 22.2403 22.6729C22.0056 22.6886 21.7935 22.6731 21.5826 22.5563C21.5678 22.548 21.5531 22.5393 21.5387 22.5303C21.5243 22.5213 21.5101 22.512 21.4962 22.5022C21.4822 22.4925 21.4686 22.4824 21.4551 22.472C21.4417 22.4616 21.4285 22.4509 21.4157 22.4398C21.4028 22.4287 21.3901 22.4173 21.3778 22.4056C21.3655 22.3939 21.3534 22.3819 21.3417 22.3696C21.33 22.3572 21.3186 22.3446 21.3075 22.3318C21.2964 22.3189 21.2857 22.3057 21.2752 22.2923C21.2648 22.2789 21.2547 22.2652 21.245 22.2512C21.2353 22.2373 21.2259 22.2232 21.2168 22.2087C21.2078 22.1943 21.1991 22.1797 21.1908 22.1649C21.1825 22.15 21.1746 22.135 21.1671 22.1198C21.1596 22.1045 21.1524 22.0891 21.1456 22.0735C21.1389 22.0579 21.1325 22.0422 21.1266 22.0262C21.1206 22.0103 21.115 21.9943 21.1098 21.9781C21.1047 21.9619 21.0999 21.9455 21.0956 21.9291C21.0916 21.9133 21.088 21.8974 21.0848 21.8814C21.0816 21.8655 21.0789 21.8494 21.0765 21.8333C21.0741 21.8172 21.0722 21.801 21.0706 21.7848C21.0691 21.7685 21.068 21.7523 21.0673 21.736C21.0667 21.7197 21.0664 21.7034 21.0665 21.6871C21.0667 21.6708 21.0673 21.6545 21.0683 21.6383C21.0692 21.622 21.0706 21.6058 21.0725 21.5896C21.0743 21.5734 21.0766 21.5572 21.0792 21.5412C21.0819 21.5251 21.0849 21.5091 21.0884 21.4932C21.0919 21.4772 21.0958 21.4614 21.1001 21.4457C21.1044 21.43 21.1091 21.4143 21.1142 21.3989C21.1193 21.3834 21.1248 21.3681 21.1307 21.3529C21.1366 21.3377 21.1428 21.3226 21.1495 21.3078C21.1562 21.2929 21.1632 21.2782 21.1707 21.2637C21.1781 21.2492 21.1859 21.2349 21.194 21.2208C21.2022 21.2067 21.2107 21.1928 21.2196 21.1791C21.3866 20.9173 21.6362 20.7918 21.9288 20.7229Z" fill="white"/>
<path d="M19.9896 25.7302C20.0191 25.7283 20.0485 25.727 20.078 25.7263C20.1075 25.7256 20.137 25.7255 20.1665 25.726C20.196 25.7265 20.2255 25.7277 20.255 25.7294C20.2844 25.7311 20.3138 25.7334 20.3432 25.7364C20.3725 25.7393 20.4018 25.7428 20.431 25.747C20.4603 25.7511 20.4894 25.7558 20.5184 25.7612C20.5474 25.7665 20.5763 25.7724 20.6051 25.7789C20.6339 25.7854 20.6625 25.7925 20.691 25.8002C20.7195 25.8079 20.7478 25.8162 20.776 25.825C20.8041 25.8339 20.8321 25.8433 20.8598 25.8533C20.8876 25.8633 20.9152 25.8738 20.9425 25.885C20.9698 25.8961 20.9969 25.9078 21.0238 25.92C21.0506 25.9323 21.0772 25.9451 21.1035 25.9584C21.1298 25.9717 21.1559 25.9856 21.1816 25.9999C21.2074 26.0144 21.2329 26.0293 21.258 26.0447C21.2832 26.0602 21.308 26.0761 21.3325 26.0926C21.7792 26.3973 22.0921 26.8937 22.1902 27.424C22.2936 27.9834 22.1879 28.554 21.862 29.0235C21.4925 29.5556 20.9552 29.7984 20.335 29.91C19.7842 29.9534 19.239 29.8267 18.7959 29.4866C18.7688 29.4657 18.7422 29.4441 18.7161 29.4218C18.69 29.3996 18.6645 29.3767 18.6395 29.3532C18.6146 29.3297 18.5902 29.3056 18.5665 29.2808C18.5428 29.2561 18.5197 29.2308 18.4972 29.2049C18.4747 29.179 18.4529 29.1526 18.4317 29.1256C18.4106 29.0987 18.3901 29.0712 18.3703 29.0432C18.3505 29.0152 18.3315 28.9867 18.3131 28.9578C18.2947 28.9289 18.2771 28.8995 18.2602 28.8696C18.2433 28.8398 18.2271 28.8096 18.2117 28.779C18.1963 28.7483 18.1817 28.7173 18.1679 28.686C18.154 28.6546 18.141 28.6229 18.1287 28.5909C18.1164 28.5589 18.105 28.5266 18.0943 28.4941C18.0836 28.4615 18.0738 28.4286 18.0648 28.3956C18.0557 28.3625 18.0476 28.3293 18.0402 28.2958C18.0328 28.2623 18.0263 28.2286 18.0206 28.1948C18.0149 28.161 18.0101 28.1271 18.0061 28.0931C18.0017 28.0581 17.9982 28.0231 17.9956 27.988C17.993 27.953 17.9913 27.9178 17.9905 27.8827C17.9897 27.8475 17.9897 27.8123 17.9907 27.7771C17.9917 27.7419 17.9935 27.7068 17.9962 27.6717C17.999 27.6366 18.0026 27.6017 18.0071 27.5668C18.0116 27.5318 18.017 27.4971 18.0232 27.4624C18.0295 27.4278 18.0366 27.3934 18.0446 27.3591C18.0526 27.3248 18.0615 27.2908 18.0712 27.257C18.0809 27.2232 18.0915 27.1896 18.1029 27.1563C18.1143 27.1231 18.1265 27.0901 18.1396 27.0574C18.1527 27.0247 18.1666 26.9924 18.1813 26.9605C18.196 26.9285 18.2115 26.8969 18.2278 26.8658C18.2441 26.8346 18.2612 26.8038 18.2791 26.7735C18.297 26.7432 18.3156 26.7134 18.3349 26.684C18.3543 26.6546 18.3744 26.6257 18.3952 26.5973C18.416 26.569 18.4376 26.5412 18.4598 26.5139C18.8479 26.0307 19.3829 25.7943 19.9896 25.7302Z" fill="white"/>
<path d="M27.5419 15.0046C27.6451 15.0634 27.7548 15.197 27.8407 15.2839C28.5039 15.9546 29.1009 16.7907 29.5071 17.6424C30.684 20.1098 30.7357 22.7704 29.8292 25.333C29.0002 25.3074 28.2363 25.2327 27.4591 24.9208C26.1419 24.3444 25.1205 23.4462 24.5161 22.1243C24.4982 22.0854 24.4809 22.0464 24.464 22.0071C24.4471 21.9678 24.4307 21.9284 24.4147 21.8887C24.3988 21.8491 24.3834 21.8092 24.3684 21.7692C24.3534 21.7292 24.339 21.6889 24.325 21.6486C24.311 21.6082 24.2975 21.5676 24.2846 21.5269C24.2716 21.4862 24.2591 21.4453 24.2471 21.4042C24.2351 21.3632 24.2236 21.322 24.2126 21.2807C24.2016 21.2394 24.1912 21.198 24.1812 21.1565C24.1712 21.1149 24.1618 21.0732 24.1528 21.0314C24.1438 20.9896 24.1354 20.9477 24.1275 20.9057C24.1195 20.8637 24.1121 20.8217 24.1052 20.7795C24.0983 20.7373 24.0919 20.695 24.086 20.6527C24.0801 20.6104 24.0748 20.568 24.0699 20.5255C24.0651 20.483 24.0608 20.4405 24.057 20.398C24.0531 20.3554 24.0499 20.3128 24.0471 20.2701C24.0443 20.2275 24.0421 20.1848 24.0404 20.1421C24.0386 20.0994 24.0374 20.0567 24.0368 20.0139C24.0361 19.9712 24.0359 19.9284 24.0363 19.8857C24.0366 19.843 24.0375 19.8002 24.0389 19.7575C24.0403 19.7148 24.0422 19.6721 24.0447 19.6294C24.0472 19.5867 24.0501 19.5441 24.0536 19.5015C24.0571 19.4589 24.0611 19.4164 24.0656 19.3739C24.0701 19.3314 24.0752 19.2889 24.0807 19.2465C24.0863 19.2042 24.0924 19.1619 24.099 19.1196C24.1056 19.0774 24.1127 19.0353 24.1203 18.9932C24.1279 18.9512 24.136 18.9092 24.1447 18.8674C24.1533 18.8255 24.1625 18.7837 24.1721 18.7421C24.1818 18.7005 24.192 18.659 24.2027 18.6176C24.2133 18.5762 24.2245 18.535 24.2362 18.4938C24.2479 18.4527 24.26 18.4118 24.2727 18.3709C24.2854 18.3301 24.2986 18.2894 24.3122 18.249C24.3259 18.2085 24.3401 18.1681 24.3547 18.128C24.3805 18.0595 24.4078 17.9916 24.4364 17.9243C24.4651 17.857 24.4951 17.7903 24.5266 17.7242C24.558 17.6581 24.5909 17.5928 24.6251 17.5281C24.6593 17.4634 24.6948 17.3994 24.7318 17.3363C24.7687 17.2731 24.8069 17.2107 24.8464 17.1491C24.8859 17.0875 24.9267 17.0268 24.9688 16.9669C25.0109 16.9071 25.0542 16.8481 25.0988 16.7901C25.1433 16.732 25.1891 16.675 25.2361 16.6188C25.283 16.5627 25.3311 16.5076 25.3804 16.4535C25.4297 16.3994 25.4801 16.3464 25.5316 16.2944C25.5831 16.2424 25.6357 16.1916 25.6893 16.1418C25.743 16.0921 25.7977 16.0435 25.8534 15.996C25.909 15.9485 25.9657 15.9023 26.0234 15.8572C26.081 15.8121 26.1396 15.7683 26.1991 15.7257C26.2586 15.6831 26.3189 15.6417 26.3802 15.6016C26.4414 15.5616 26.5034 15.5228 26.5663 15.4853C26.8775 15.2996 27.2117 15.1532 27.5419 15.0046Z" fill="white"/>
<path d="M20.5302 12.4265C20.538 12.4256 20.5457 12.4244 20.5535 12.4238C22.7526 12.2424 25.2827 13.0605 26.9697 14.4795C25.2066 15.0048 23.6775 15.8329 22.3132 17.0765C20.5657 18.6694 19.2698 20.7438 18.7957 23.0778C18.6566 23.7627 18.6016 24.4419 18.569 25.1389L18.2549 25.14C16.2979 25.128 14.3409 25.1325 12.384 25.1535C12.0877 24.3528 11.8854 23.538 11.8074 22.6867C11.8005 22.6099 11.7946 22.533 11.7895 22.4561C11.7845 22.3792 11.7804 22.3022 11.7772 22.2252C11.7741 22.1482 11.7719 22.0711 11.7706 21.994C11.7694 21.917 11.7691 21.8399 11.7697 21.7628C11.7703 21.6857 11.7719 21.6086 11.7744 21.5316C11.7769 21.4546 11.7804 21.3775 11.7848 21.3006C11.7892 21.2236 11.7946 21.1467 11.8009 21.0699C11.8072 20.993 11.8145 20.9163 11.8226 20.8397C11.8308 20.763 11.8399 20.6864 11.85 20.61C11.8601 20.5336 11.8711 20.4573 11.883 20.3811C11.8949 20.305 11.9078 20.229 11.9216 20.1531C11.9354 20.0773 11.9501 20.0016 11.9658 19.9261C11.9815 19.8506 11.998 19.7754 12.0155 19.7003C12.033 19.6252 12.0515 19.5504 12.0708 19.4757C12.0902 19.4011 12.1104 19.3267 12.1316 19.2526C12.1527 19.1785 12.1748 19.1046 12.1978 19.031C12.2208 18.9574 12.2447 18.8841 12.2694 18.8112C12.2942 18.7382 12.3199 18.6655 12.3464 18.5931C12.373 18.5208 12.4005 18.4487 12.4288 18.377C12.4571 18.3053 12.4863 18.234 12.5164 18.163C12.5465 18.092 12.5774 18.0214 12.6092 17.9512C12.641 17.881 12.6737 17.8112 12.7072 17.7418C12.7407 17.6723 12.7751 17.6033 12.8103 17.5348C12.8456 17.4662 12.8816 17.398 12.9185 17.3303C12.9554 17.2626 12.9931 17.1954 13.0316 17.1287C13.0702 17.0619 13.1095 16.9956 13.1497 16.9298C13.1899 16.864 13.2308 16.7987 13.2726 16.7339C13.3144 16.6692 13.3569 16.6049 13.4003 16.5411C13.4436 16.4773 13.4877 16.4141 13.5326 16.3515C13.5775 16.2888 13.6232 16.2267 13.6696 16.1651C13.716 16.1036 13.7632 16.0426 13.8111 15.9822C13.859 15.9219 13.9077 15.8621 13.9571 15.8029C15.6459 13.7754 17.9199 12.6625 20.5302 12.4265Z" fill="white"/>
</g>
<defs>
<clipPath id="clip0_220_165">
<path d="M0.246643 8C0.246643 3.58172 3.82837 0 8.24664 0H44.2466C48.6649 0 52.2466 3.58172 52.2466 8V44C52.2466 48.4183 48.6649 52 44.2466 52H8.24664C3.82836 52 0.246643 48.4183 0.246643 44V8Z" fill="white"/>
</clipPath>
</defs>
</svg>
