<svg width="52" height="52" viewBox="0 0 52 52" fill="none" xmlns="http://www.w3.org/2000/svg">
<g clip-path="url(#clip0_225_461)">
<path d="M0 0H52V52H0V0Z" fill="white"/>
<path d="M29.4821 17.9479C29.8833 17.925 30.8663 18.6942 31.201 18.9509C33.0949 20.4039 34.4484 22.6394 34.7578 25.0162C34.9891 26.7922 34.6583 29.2839 33.5497 30.7281L33.5338 30.7333L33.5263 30.7051L33.4784 30.719L33.4921 30.6962C33.4032 30.4724 33.2738 30.2854 33.1396 30.0873C33.757 29.1116 34.0547 27.817 34.1158 26.6755C34.1201 26.5938 34.1232 26.5121 34.1251 26.4303C34.127 26.3485 34.1278 26.2668 34.1273 26.185C34.1268 26.1032 34.1251 26.0214 34.1223 25.9397C34.1194 25.8579 34.1153 25.7762 34.1101 25.6946C34.1048 25.613 34.0984 25.5315 34.0907 25.45C34.0831 25.3686 34.0743 25.2873 34.0643 25.2061C34.0543 25.1249 34.0431 25.0439 34.0308 24.963C34.0184 24.8822 34.0048 24.8015 33.9901 24.721C33.9754 24.6406 33.9595 24.5604 33.9424 24.4804C33.9253 24.4004 33.9071 24.3207 33.8877 24.2412C33.8683 24.1617 33.8478 24.0826 33.8261 24.0037C33.8044 23.9248 33.7815 23.8463 33.7575 23.7681C33.7335 23.6899 33.7084 23.6121 33.6821 23.5346C33.6558 23.4572 33.6284 23.3801 33.5999 23.3034C33.5714 23.2268 33.5418 23.1506 33.511 23.0748C33.4803 22.999 33.4484 22.9236 33.4155 22.8488C33.3825 22.7739 33.3485 22.6995 33.3134 22.6257C33.2783 22.5518 33.2421 22.4784 33.2048 22.4056C33.1675 22.3328 33.1292 22.2605 33.0899 22.1888C33.0505 22.1171 33.0101 22.046 32.9687 21.9756C32.9272 21.905 32.8847 21.8351 32.8413 21.7658C32.7978 21.6966 32.7533 21.6279 32.7078 21.56C32.6623 21.492 32.6158 21.4247 32.5684 21.3581C32.5209 21.2914 32.4725 21.2255 32.4231 21.1603C32.3737 21.0951 32.3234 21.0306 32.2722 20.9669C32.2209 20.9031 32.1687 20.8402 32.1157 20.7779C32.0625 20.7157 32.0085 20.6543 31.9537 20.5936C31.8988 20.533 31.843 20.4732 31.7863 20.4142C31.7297 20.3552 31.6722 20.297 31.6139 20.2396C31.5556 20.1823 31.4964 20.1259 31.4364 20.0702C31.3764 20.0146 31.3156 19.9599 31.254 19.9061C31.1925 19.8522 31.1301 19.7993 31.067 19.7473C30.8184 19.541 30.5615 19.3303 30.293 19.1507C30.0109 18.9619 29.5323 18.7629 29.3218 18.5122C29.2616 18.4405 29.2214 18.3445 29.2369 18.2496C29.2599 18.1082 29.3743 18.0267 29.4821 17.9479Z" fill="black"/>
<path d="M21.1672 18.1262C21.1792 18.1242 21.1912 18.1206 21.2035 18.12C21.2735 18.1165 21.3264 18.131 21.3776 18.1804C21.4708 18.2702 21.5251 18.4541 21.5118 18.5804C21.5037 18.6564 21.4655 18.7056 21.4117 18.7549C21.2257 18.9251 20.9657 19.0454 20.7534 19.1831C20.4926 19.3522 20.244 19.5447 20.0038 19.7418C19.9517 19.7843 19.9001 19.8275 19.8491 19.8713C19.798 19.9152 19.7475 19.9597 19.6976 20.0047C19.6477 20.0498 19.5983 20.0955 19.5495 20.1418C19.5006 20.1881 19.4524 20.235 19.4047 20.2825C19.3571 20.33 19.31 20.378 19.2636 20.4267C19.2171 20.4753 19.1712 20.5245 19.1259 20.5743C19.0807 20.6241 19.036 20.6744 18.992 20.7253C18.948 20.7762 18.9046 20.8276 18.8618 20.8795C18.8191 20.9314 18.777 20.9839 18.7355 21.0369C18.6941 21.0899 18.6533 21.1433 18.6131 21.1973C18.573 21.2513 18.5335 21.3058 18.4947 21.3608C18.4559 21.4157 18.4177 21.4711 18.3803 21.527C18.3428 21.5829 18.3061 21.6393 18.27 21.6961C18.234 21.7529 18.1986 21.8101 18.164 21.8678C18.1294 21.9254 18.0954 21.9835 18.0622 22.042C18.029 22.1005 17.9965 22.1594 17.9647 22.2188C17.933 22.2781 17.902 22.3378 17.8717 22.3978C17.8414 22.4579 17.8118 22.5183 17.783 22.5791C17.7542 22.6399 17.7262 22.7011 17.6988 22.7626C17.6716 22.8241 17.645 22.8859 17.6193 22.948C17.5935 23.0102 17.5685 23.0726 17.5442 23.1354C17.52 23.1981 17.4965 23.2612 17.4738 23.3245C17.4511 23.3879 17.4292 23.4515 17.4081 23.5153C17.387 23.5792 17.3667 23.6433 17.3471 23.7077C17.3276 23.7721 17.3089 23.8367 17.2909 23.9015C17.273 23.9664 17.2558 24.0314 17.2395 24.0967C17.2231 24.1619 17.2076 24.2274 17.1929 24.293C17.1781 24.3587 17.1642 24.4245 17.1511 24.4905C17.138 24.5565 17.1257 24.6226 17.1142 24.6889C17.1027 24.7552 17.092 24.8216 17.0822 24.8882C17.0724 24.9547 17.0633 25.0214 17.0551 25.0882C17.0469 25.1549 17.0395 25.2218 17.0329 25.2887C17.0259 25.3542 17.0197 25.4197 17.0144 25.4853C17.009 25.5509 17.0045 25.6166 17.0008 25.6823C16.997 25.748 16.9941 25.8138 16.992 25.8796C16.99 25.9454 16.9887 26.0112 16.9883 26.077C16.9878 26.1428 16.9882 26.2086 16.9894 26.2745C16.9906 26.3403 16.9927 26.406 16.9956 26.4718C16.9985 26.5375 17.0021 26.6032 17.0066 26.6689C17.0111 26.7346 17.0165 26.8002 17.0226 26.8658C17.0288 26.9313 17.0358 26.9967 17.0436 27.0621C17.0513 27.1274 17.06 27.1927 17.0694 27.2578C17.0788 27.323 17.0891 27.388 17.1001 27.4529C17.1112 27.5178 17.1231 27.5825 17.1357 27.6471C17.1484 27.7117 17.1619 27.7761 17.1762 27.8403C17.1905 27.9046 17.2056 27.9687 17.2214 28.0326C17.2374 28.0964 17.2541 28.1601 17.2716 28.2235C17.289 28.287 17.3073 28.3502 17.3264 28.4132C17.3455 28.4762 17.3653 28.539 17.386 28.6015C17.4066 28.664 17.4281 28.7262 17.4503 28.7882C17.4725 28.8501 17.4954 28.9118 17.5192 28.9732C17.5429 29.0346 17.5675 29.0957 17.5928 29.1564C17.618 29.2172 17.6441 29.2777 17.6709 29.3378C17.6976 29.3979 17.7252 29.4577 17.7535 29.5171C17.7818 29.5766 17.8108 29.6356 17.8406 29.6943C17.8703 29.753 17.9008 29.8114 17.9321 29.8693C17.9633 29.9272 17.9952 29.9848 18.0279 30.0419C18.0606 30.0991 18.094 30.1558 18.1281 30.2121C18.1622 30.2684 18.197 30.3243 18.2325 30.3797C18.268 30.4351 18.3042 30.4901 18.341 30.5447C18.3779 30.5992 18.4154 30.6533 18.4537 30.7068C18.4919 30.7604 18.5308 30.8135 18.5703 30.8661C18.6099 30.9188 18.6501 30.9709 18.6909 31.0225C18.7318 31.074 18.7733 31.1251 18.8154 31.1757L18.8144 31.713L18.4654 31.8026C18.4373 31.8116 18.4209 31.8017 18.3927 31.7946C18.0464 31.3951 17.7332 30.9406 17.473 30.4812C17.4367 30.4181 17.4012 30.3545 17.3664 30.2905C17.3317 30.2265 17.2978 30.1621 17.2647 30.0973C17.2316 30.0324 17.1992 29.9671 17.1677 29.9015C17.1362 29.8359 17.1055 29.7698 17.0757 29.7035C17.0458 29.637 17.0168 29.5703 16.9886 29.5032C16.9603 29.436 16.933 29.3686 16.9065 29.3008C16.8799 29.233 16.8542 29.1648 16.8294 29.0964C16.8045 29.028 16.7805 28.9592 16.7574 28.8902C16.7342 28.8211 16.712 28.7518 16.6905 28.6822C16.6691 28.6126 16.6486 28.5428 16.6289 28.4727C16.6092 28.4026 16.5904 28.3323 16.5725 28.2617C16.5545 28.1911 16.5375 28.1204 16.5213 28.0494C16.5051 27.9784 16.4898 27.9072 16.4754 27.8358C16.4609 27.7645 16.4474 27.6929 16.4347 27.6212C16.4221 27.5495 16.4104 27.4777 16.3995 27.4057C16.3886 27.3337 16.3787 27.2616 16.3696 27.1893C16.3606 27.1171 16.3524 27.0447 16.3451 26.9723C16.3378 26.8998 16.3315 26.8273 16.326 26.7547C16.3205 26.6821 16.3159 26.6094 16.3123 26.5367C16.3086 26.464 16.3058 26.3912 16.3039 26.3184C16.3021 26.2456 16.3011 26.1729 16.3011 26.1001C16.301 26.0273 16.3019 25.9544 16.3036 25.8817C16.3053 25.8089 16.308 25.7361 16.3116 25.6634C16.3151 25.5906 16.3196 25.518 16.3249 25.4453C16.3303 25.3727 16.3365 25.3002 16.3437 25.2278C16.3508 25.1553 16.3589 25.0829 16.3679 25.0107C16.3768 24.9384 16.3866 24.8663 16.3974 24.7943C16.4081 24.7223 16.4198 24.6504 16.4323 24.5787C16.4448 24.5069 16.4582 24.4354 16.4725 24.364C16.4868 24.2926 16.502 24.2214 16.5181 24.1504C16.5342 24.0794 16.5511 24.0085 16.5689 23.938C16.5868 23.8674 16.6055 23.797 16.625 23.7269C17.3062 21.2825 18.9775 19.3574 21.1672 18.1262Z" fill="black"/>
<path d="M41.3107 9.50671L41.3447 9.50493C41.3914 9.50314 41.4381 9.5019 41.4848 9.50123C41.5315 9.50055 41.5782 9.50043 41.6249 9.50087C41.6716 9.50134 41.7183 9.50236 41.765 9.50392C41.8117 9.50551 41.8583 9.50766 41.9049 9.51037C41.9516 9.51308 41.9981 9.51634 42.0447 9.52017C42.0912 9.52399 42.1377 9.52838 42.1842 9.53332C42.2306 9.53826 42.277 9.54376 42.3233 9.54982C42.3696 9.55588 42.4159 9.5625 42.462 9.56968C42.5082 9.57686 42.5542 9.58459 42.6002 9.59289C42.6462 9.60118 42.692 9.61003 42.7378 9.61944C42.7835 9.62882 42.8292 9.63876 42.8747 9.64925C42.9202 9.65975 42.9656 9.6708 43.0108 9.68241C43.0561 9.69399 43.1012 9.70613 43.1461 9.71882C43.1911 9.73149 43.2359 9.74469 43.2805 9.75843C43.3251 9.77221 43.3696 9.78652 43.4139 9.80134C43.4582 9.81617 43.5023 9.83152 43.5462 9.8474C43.5901 9.86331 43.6339 9.87973 43.6774 9.89666C43.7209 9.91362 43.7642 9.93109 43.8073 9.94907C43.8504 9.96708 43.8933 9.9856 43.9359 10.0046C43.9786 10.0236 44.021 10.0432 44.0632 10.0632C44.1054 10.0833 44.1474 10.1038 44.189 10.1249C44.2307 10.1459 44.2722 10.1675 44.3133 10.1895C44.3545 10.2116 44.3954 10.2342 44.436 10.2572C44.4767 10.2802 44.517 10.3038 44.557 10.3278C44.5971 10.3518 44.6369 10.3763 44.6763 10.4013C44.7158 10.4262 44.755 10.4517 44.7938 10.4776C44.8327 10.5035 44.8712 10.5299 44.9095 10.5568C44.9477 10.5836 44.9856 10.6109 45.0231 10.6387C45.0607 10.6664 45.0979 10.6946 45.1348 10.7233C45.1717 10.752 45.2082 10.781 45.2444 10.8106C45.2806 10.8401 45.3164 10.8701 45.3518 10.9005C45.3873 10.9309 45.4224 10.9617 45.4571 10.993C46.6465 12.0832 47.3424 13.5311 47.4021 15.1471C47.4589 16.6869 46.915 18.3077 45.856 19.4425C45.8228 19.4784 45.7892 19.5139 45.7551 19.549C45.721 19.5841 45.6865 19.6187 45.6516 19.653C45.6166 19.6872 45.5813 19.721 45.5455 19.7543C45.5098 19.7876 45.4736 19.8205 45.437 19.853C45.4004 19.8854 45.3633 19.9174 45.326 19.9489C45.2886 19.9804 45.2508 20.0114 45.2126 20.042C45.1744 20.0726 45.1359 20.1027 45.097 20.1323C45.0581 20.1619 45.0188 20.191 44.9791 20.2196C44.9395 20.2483 44.8995 20.2764 44.8591 20.304C44.8188 20.3316 44.7781 20.3588 44.7371 20.3854C44.6961 20.412 44.6547 20.4381 44.6131 20.4637C44.5714 20.4893 44.5294 20.5143 44.4871 20.5389C44.4448 20.5634 44.4022 20.5874 44.3593 20.6109C44.3164 20.6344 44.2732 20.6573 44.2297 20.6797C44.1862 20.7021 44.1425 20.7239 44.0985 20.7453C44.0545 20.7666 44.0102 20.7873 43.9656 20.8075C43.9211 20.8277 43.8764 20.8474 43.8313 20.8664C43.7863 20.8855 43.741 20.904 43.6955 20.922C43.6501 20.94 43.6044 20.9574 43.5584 20.9742C43.5125 20.991 43.4664 21.0072 43.4201 21.0229C43.3738 21.0386 43.3272 21.0536 43.2806 21.0681C43.2338 21.0827 43.187 21.0966 43.1399 21.1099C43.0929 21.1232 43.0457 21.136 42.9983 21.1482C42.9509 21.1603 42.9034 21.1719 42.8558 21.1828C42.8081 21.1938 42.7603 21.2042 42.7124 21.214C42.6645 21.2238 42.6165 21.2329 42.5683 21.2415C42.5202 21.2501 42.4719 21.2581 42.4236 21.2655C42.3753 21.2728 42.3268 21.2796 42.2783 21.2858C42.2298 21.292 42.1812 21.2975 42.1326 21.3025C42.0839 21.3075 42.0352 21.3118 41.9864 21.3155C41.9377 21.3193 41.8889 21.3224 41.8401 21.325C41.7912 21.3275 41.7424 21.3294 41.6935 21.3307C40.1896 21.3429 38.8012 20.909 37.642 19.9297C36.4639 18.9344 35.7133 17.4298 35.5938 15.8956C35.4746 14.3658 35.9891 12.8806 36.9828 11.7189C38.1258 10.3828 39.5518 9.6425 41.3107 9.50671Z" fill="black"/>
<path d="M41.0964 11.1813C41.427 11.1679 41.7604 11.1728 42.0914 11.1694C42.2381 11.4597 42.3436 11.783 42.4509 12.0898C42.7633 12.1681 43.0571 12.3082 43.3339 12.47C43.5923 12.2694 43.8696 12.0956 44.1533 11.933C44.4301 12.1644 44.6843 12.448 44.9219 12.719C44.7968 12.9833 44.6403 13.2401 44.4987 13.4964C44.6736 13.8476 44.8533 14.2013 44.8992 14.5958C45.1947 14.6845 45.4966 14.7538 45.7867 14.8596C45.8355 15.2209 45.8164 15.616 45.7948 15.9794C45.5168 16.0748 45.2286 16.1453 44.9453 16.2233C44.8485 16.6179 44.683 16.9563 44.4807 17.3053C44.6337 17.5431 44.7901 17.779 44.9265 18.0268C44.7091 18.3278 44.391 18.644 44.103 18.8773C43.8592 18.7428 43.6272 18.594 43.394 18.4424C43.0713 18.6177 42.7657 18.7457 42.414 18.8518C42.3403 19.182 42.2488 19.5072 42.1394 19.8273L41.8808 19.8306L41.027 19.8299C40.9071 19.5137 40.8181 19.18 40.7185 18.8566C40.291 18.7726 39.9837 18.6221 39.6137 18.3994C39.3568 18.5408 39.1331 18.7331 38.8698 18.8669C38.5764 18.6422 38.2332 18.3097 38.0164 18.0095C38.1634 17.7391 38.345 17.4981 38.5368 17.2586C38.3747 16.9374 38.2397 16.6233 38.1434 16.2755C37.8437 16.1854 37.5414 16.1008 37.2496 15.9871C37.2453 15.6076 37.2452 15.2281 37.2491 14.8486C37.5333 14.7179 37.8652 14.6488 38.1662 14.5651C38.2388 14.2305 38.3667 13.9533 38.5473 13.6634C38.4342 13.3698 38.2452 13.1076 38.1297 12.8126C38.3637 12.5269 38.647 12.2502 38.9234 12.0054C39.2067 12.1482 39.465 12.3431 39.7234 12.5258C40.0479 12.3392 40.3636 12.1962 40.725 12.0966C40.8305 11.7865 40.9318 11.4658 41.0964 11.1813Z" fill="white"/>
<path d="M41.4149 13.2891C41.9137 13.2525 42.4267 13.3839 42.8304 13.6818C43.2948 14.0246 43.6235 14.5249 43.7085 15.0996C43.7951 15.6843 43.6704 16.2833 43.3108 16.7572C42.9231 17.2681 42.3746 17.5571 41.7467 17.6471C41.1812 17.6591 40.6858 17.549 40.2268 17.2013C40.1979 17.1792 40.1696 17.1563 40.1419 17.1327C40.1141 17.1092 40.087 17.085 40.0605 17.0601C40.0339 17.0352 40.008 17.0096 39.9828 16.9834C39.9575 16.9572 39.9329 16.9304 39.909 16.903C39.8851 16.8755 39.8619 16.8475 39.8394 16.8189C39.8168 16.7903 39.795 16.7612 39.774 16.7315C39.7529 16.7018 39.7326 16.6717 39.713 16.641C39.6935 16.6103 39.6747 16.5791 39.6567 16.5475C39.6387 16.5159 39.6215 16.4838 39.6051 16.4513C39.5886 16.4188 39.5731 16.386 39.5583 16.3527C39.5435 16.3195 39.5296 16.2859 39.5165 16.2519C39.5034 16.2179 39.4912 16.1837 39.4798 16.1491C39.4684 16.1145 39.4579 16.0797 39.4483 16.0446C39.4386 16.0095 39.4299 15.9742 39.422 15.9387C39.4141 15.9031 39.4071 15.8674 39.401 15.8315C39.3949 15.7956 39.3897 15.7596 39.3854 15.7235C39.3809 15.6878 39.3773 15.652 39.3745 15.6161C39.3718 15.5802 39.3699 15.5443 39.369 15.5083C39.368 15.4723 39.368 15.4363 39.3688 15.4003C39.3697 15.3644 39.3715 15.3285 39.3741 15.2925C39.3768 15.2567 39.3804 15.2209 39.3848 15.1851C39.3893 15.1494 39.3946 15.1138 39.4008 15.0784C39.4071 15.0429 39.4142 15.0077 39.4222 14.9726C39.4302 14.9375 39.4391 14.9026 39.4489 14.868C39.4586 14.8333 39.4692 14.7989 39.4807 14.7648C39.4922 14.7307 39.5045 14.6969 39.5177 14.6634C39.5308 14.6299 39.5448 14.5967 39.5597 14.5639C39.5745 14.5312 39.5901 14.4988 39.6066 14.4667C39.6231 14.4347 39.6403 14.4032 39.6583 14.372C39.6764 14.3408 39.6952 14.3102 39.7148 14.28C39.7344 14.2498 39.7547 14.2201 39.7757 14.1909C39.7968 14.1617 39.8186 14.1331 39.8411 14.105C40.2288 13.6186 40.8059 13.3534 41.4149 13.2891Z" fill="black"/>
<path d="M41.5019 14.3812C41.7501 14.3829 41.9808 14.4297 42.1882 14.5748C42.416 14.7343 42.5585 14.9867 42.6072 15.2579C42.6582 15.5424 42.6009 15.8342 42.4314 16.0705C42.2236 16.36 41.9402 16.4736 41.601 16.5257C41.3598 16.5347 41.1247 16.4734 40.9257 16.3344C40.9109 16.3239 40.8963 16.313 40.882 16.3017C40.8677 16.2905 40.8537 16.2789 40.84 16.2669C40.8263 16.2549 40.8129 16.2426 40.7998 16.23C40.7867 16.2173 40.774 16.2043 40.7615 16.191C40.7491 16.1777 40.737 16.1642 40.7252 16.1502C40.7135 16.1363 40.7021 16.1221 40.6911 16.1077C40.6801 16.0932 40.6694 16.0784 40.6591 16.0634C40.6488 16.0484 40.6389 16.0331 40.6295 16.0176C40.62 16.0021 40.6108 15.9864 40.6021 15.9704C40.5934 15.9544 40.5851 15.9382 40.5772 15.9218C40.5693 15.9054 40.5618 15.8888 40.5548 15.872C40.5477 15.8553 40.5411 15.8383 40.5349 15.8212C40.5287 15.8041 40.5229 15.7868 40.5176 15.7694C40.5123 15.752 40.5074 15.7345 40.5029 15.7168C40.4985 15.6992 40.4945 15.6814 40.491 15.6636C40.4874 15.6457 40.4843 15.6278 40.4817 15.6098C40.4792 15.592 40.477 15.5742 40.4753 15.5564C40.4737 15.5385 40.4725 15.5206 40.4717 15.5027C40.4709 15.4848 40.4706 15.4668 40.4707 15.4489C40.4709 15.431 40.4714 15.413 40.4724 15.3951C40.4735 15.3772 40.4749 15.3593 40.4769 15.3415C40.4788 15.3237 40.4812 15.3059 40.484 15.2882C40.4868 15.2705 40.49 15.2528 40.4937 15.2353C40.4974 15.2177 40.5015 15.2003 40.5061 15.1829C40.5106 15.1656 40.5156 15.1484 40.521 15.1313C40.5265 15.1142 40.5323 15.0972 40.5386 15.0804C40.5448 15.0636 40.5515 15.047 40.5586 15.0305C40.5657 15.014 40.5732 14.9977 40.5811 14.9816C40.589 14.9655 40.5974 14.9497 40.6061 14.934C40.6148 14.9183 40.6239 14.9028 40.6334 14.8876C40.6429 14.8724 40.6527 14.8574 40.6629 14.8427C40.6732 14.8279 40.6837 14.8135 40.6947 14.7993C40.899 14.5345 41.1789 14.4176 41.5019 14.3812Z" fill="white"/>
<path d="M9.69818 9.48085C11.1029 9.31139 12.6611 9.81575 13.7622 10.6833C15.0462 11.6949 15.9116 13.1419 16.0978 14.7727C16.1033 14.8194 16.1081 14.8662 16.1124 14.913C16.1166 14.9599 16.1203 15.0068 16.1234 15.0537C16.1265 15.1007 16.129 15.1476 16.1309 15.1947C16.1329 15.2416 16.1342 15.2887 16.135 15.3357C16.1358 15.3827 16.1359 15.4298 16.1355 15.4768C16.1351 15.5239 16.1341 15.5709 16.1326 15.6179C16.131 15.6649 16.1288 15.7119 16.1261 15.7589C16.1233 15.8058 16.12 15.8528 16.1161 15.8997C16.1122 15.9465 16.1077 15.9933 16.1026 16.0401C16.0975 16.0869 16.0919 16.1336 16.0857 16.1802C16.0794 16.2268 16.0726 16.2734 16.0652 16.3198C16.0579 16.3663 16.0499 16.4127 16.0413 16.4589C16.0328 16.5052 16.0237 16.5513 16.014 16.5974C16.0043 16.6434 15.994 16.6893 15.9832 16.7351C15.9724 16.7809 15.961 16.8265 15.949 16.872C15.937 16.9175 15.9245 16.9628 15.9114 17.008C15.8983 17.0532 15.8847 17.0982 15.8705 17.1431C15.8563 17.1879 15.8415 17.2326 15.8262 17.277C15.8109 17.3215 15.795 17.3658 15.7786 17.4099C15.7622 17.454 15.7452 17.4978 15.7276 17.5415C15.7101 17.5852 15.6921 17.6286 15.6735 17.6718C15.6549 17.715 15.6358 17.758 15.6161 17.8007C15.5965 17.8435 15.5763 17.886 15.5556 17.9282C15.5349 17.9705 15.5136 18.0124 15.4919 18.0541C15.4701 18.0959 15.4478 18.1373 15.425 18.1785C15.4023 18.2196 15.379 18.2605 15.3552 18.301C15.3314 18.3416 15.3071 18.3819 15.2822 18.4219C15.2575 18.4618 15.2322 18.5015 15.2064 18.5408C15.1806 18.5802 15.1543 18.6192 15.1275 18.6579C15.1008 18.6966 15.0735 18.7349 15.0458 18.773C15.0181 18.811 14.9899 18.8486 14.9613 18.8859C14.9326 18.9233 14.9035 18.9602 14.874 18.9968C13.8124 20.323 12.2891 21.058 10.6194 21.2428C9.08246 21.4108 7.51474 20.8599 6.32499 19.9021C6.28815 19.8727 6.25171 19.8428 6.21565 19.8124C6.17957 19.7821 6.14387 19.7513 6.10856 19.7201C6.07325 19.6889 6.03834 19.6573 6.00385 19.6252C5.96931 19.5931 5.93519 19.5606 5.90147 19.5276C5.86775 19.4947 5.83446 19.4613 5.80158 19.4275C5.76868 19.3938 5.73621 19.3596 5.70419 19.325C5.67213 19.2905 5.64052 19.2555 5.60938 19.2201C5.5782 19.1848 5.54746 19.1491 5.51716 19.1129C5.48689 19.0768 5.45707 19.0403 5.42768 19.0035C5.3983 18.9666 5.36939 18.9294 5.34095 18.8918C5.31251 18.8542 5.28453 18.8163 5.25701 18.778C5.22948 18.7397 5.20245 18.7011 5.17591 18.6622C5.14937 18.6232 5.1233 18.584 5.09771 18.5444C5.07214 18.5048 5.04706 18.4649 5.02248 18.4247C4.99789 18.3845 4.97381 18.344 4.95023 18.3031C4.92665 18.2623 4.90358 18.2212 4.88102 18.1798C4.85846 18.1385 4.83642 18.0968 4.8149 18.0549C4.79337 18.0129 4.77238 17.9707 4.7519 17.9283C4.73143 17.8858 4.71148 17.8431 4.69206 17.8001C4.67265 17.7572 4.65377 17.714 4.63543 17.6706C4.61708 17.6272 4.59928 17.5836 4.58202 17.5397C4.56476 17.4958 4.54805 17.4517 4.53189 17.4075C4.51572 17.3632 4.50011 17.3187 4.48505 17.274C4.46999 17.2294 4.45548 17.1846 4.44154 17.1395C4.42759 17.0945 4.41421 17.0493 4.40138 17.0039C4.38856 16.9586 4.3763 16.9131 4.36461 16.8674C4.35291 16.8218 4.34178 16.776 4.33123 16.73C4.32067 16.6841 4.31069 16.638 4.30127 16.5918C4.29186 16.5457 4.28302 16.4994 4.27476 16.453C4.2665 16.4065 4.25881 16.3601 4.2517 16.3135C4.2446 16.2668 4.23807 16.2202 4.23212 16.1734C4.22617 16.1267 4.2208 16.0798 4.21602 16.033C4.21113 15.9849 4.20684 15.9368 4.20314 15.8886C4.19944 15.8404 4.19634 15.7921 4.19383 15.7439C4.19132 15.6956 4.18941 15.6473 4.1881 15.599C4.18678 15.5507 4.18606 15.5024 4.18593 15.4541C4.18581 15.4058 4.18628 15.3575 4.18734 15.3091C4.18841 15.2608 4.19007 15.2125 4.19234 15.1643C4.19459 15.116 4.19745 15.0678 4.2009 15.0196C4.20434 14.9714 4.20839 14.9232 4.21302 14.8751C4.21766 14.827 4.22289 14.7789 4.22871 14.731C4.23453 14.683 4.24095 14.6351 4.24795 14.5873C4.25496 14.5395 4.26255 14.4918 4.27073 14.4442C4.27891 14.3965 4.28768 14.349 4.29703 14.3016C4.30638 14.2542 4.31632 14.2069 4.32684 14.1597C4.33736 14.1125 4.34846 14.0655 4.36014 14.0186C4.37182 13.9717 4.38408 13.925 4.39691 13.8784C4.40975 13.8318 4.42315 13.7854 4.43713 13.7391C4.45111 13.6929 4.46566 13.6468 4.48077 13.6009C4.49589 13.555 4.51157 13.5093 4.52781 13.4638C4.54406 13.4183 4.56086 13.373 4.57822 13.3278C4.59558 13.2827 4.6135 13.2379 4.63196 13.1932C4.65043 13.1486 4.66945 13.1041 4.68901 13.06C4.70858 13.0158 4.72868 12.9718 4.74934 12.9281C4.76998 12.8845 4.79117 12.841 4.81289 12.7978C4.83461 12.7547 4.85685 12.7118 4.87964 12.6692C4.90241 12.6265 4.92571 12.5842 4.94954 12.5421C4.97336 12.5001 4.9977 12.4584 5.02255 12.4169C5.0474 12.3755 5.07276 12.3344 5.09862 12.2935C5.12448 12.2527 5.15086 12.2122 5.17774 12.1721C5.20458 12.1319 5.23194 12.0921 5.2598 12.0526C5.28766 12.0131 5.316 11.974 5.34481 11.9352C5.37362 11.8964 5.4029 11.8579 5.43266 11.8198C5.46242 11.7818 5.49265 11.7441 5.52335 11.7067C5.55535 11.6675 5.58781 11.6287 5.62075 11.5904C5.65373 11.5519 5.68716 11.5139 5.72105 11.4764C5.75493 11.4388 5.78928 11.4017 5.82408 11.3649C5.85892 11.3282 5.89419 11.2919 5.92991 11.2561C5.96562 11.2202 6.00176 11.1848 6.03833 11.1499C6.07492 11.1149 6.11194 11.0804 6.14938 11.0464C6.18683 11.0124 6.22469 10.9788 6.26298 10.9457C6.30127 10.9126 6.33995 10.88 6.37902 10.8479C6.41812 10.8157 6.45761 10.7841 6.49749 10.7529C6.53734 10.7218 6.57759 10.6911 6.61825 10.661C6.65887 10.6308 6.69987 10.6011 6.74124 10.572C6.78258 10.5428 6.82428 10.5142 6.86637 10.4861C6.90845 10.458 6.95087 10.4304 6.99362 10.4033C7.03638 10.3763 7.07948 10.3498 7.12291 10.3238C7.16631 10.2978 7.21004 10.2724 7.25408 10.2474C7.29812 10.2225 7.34247 10.1982 7.38713 10.1744C7.43178 10.1506 7.47672 10.1273 7.52195 10.1046C7.56718 10.0819 7.61268 10.0598 7.65845 10.0382C7.70422 10.0167 7.75026 9.99567 7.79658 9.97526C7.84289 9.95484 7.88944 9.93499 7.93622 9.91569C7.98301 9.89643 8.03002 9.87774 8.07724 9.85963C8.1245 9.84155 8.17199 9.82405 8.21969 9.80712C8.26735 9.79019 8.31524 9.77386 8.36335 9.75812C8.41142 9.74237 8.45969 9.72722 8.50817 9.71267C8.55665 9.69811 8.60528 9.68416 8.65407 9.67082C8.70289 9.65748 8.75186 9.64476 8.80098 9.63264C8.8501 9.62052 8.89938 9.60901 8.9488 9.5981C8.99823 9.5872 9.04778 9.57691 9.09744 9.56723C9.1471 9.55755 9.19689 9.54849 9.24679 9.54006C9.29665 9.53163 9.34664 9.52381 9.39674 9.5166C9.44682 9.50939 9.49699 9.50281 9.54726 9.49685C9.5975 9.49089 9.64781 9.48556 9.69818 9.48085Z" fill="black"/>
<path d="M9.46415 11.1164C9.87065 11.1075 10.2786 11.1143 10.6853 11.1142C10.685 11.372 10.7001 11.6262 10.7185 11.8832L11.091 11.9896C11.2114 11.7567 11.3258 11.5235 11.4332 11.2842C11.8028 11.407 12.1577 11.5888 12.5074 11.7584C12.4085 12.0114 12.3331 12.2666 12.2598 12.5276L12.5368 12.7333C12.7338 12.5765 12.9317 12.429 13.141 12.2884C13.4555 12.5599 13.7057 12.9085 13.9403 13.2488C13.741 13.4147 13.5421 13.5783 13.3329 13.7318C13.3962 13.8645 13.4537 13.9912 13.4957 14.1325C13.7428 14.0893 13.9877 14.0275 14.2323 13.9721C14.3768 14.3352 14.4349 14.7426 14.4855 15.1283C14.2363 15.1888 13.9864 15.2463 13.7359 15.3009C13.7271 15.4326 13.7257 15.5642 13.7147 15.6959C13.9597 15.7749 14.2121 15.8346 14.4583 15.9117C14.3716 16.3106 14.2814 16.7178 14.1195 17.0937C13.8828 17.0113 13.644 16.9357 13.403 16.8669L13.2109 17.1917L13.7884 17.7472C13.5436 18.0644 13.282 18.3518 12.9924 18.6282C12.7991 18.4678 12.6029 18.3109 12.4038 18.1576C12.3223 18.2316 12.2294 18.2916 12.1393 18.3545C12.2223 18.5759 12.303 18.7959 12.3702 19.0228C12.0336 19.1943 11.6965 19.3527 11.3407 19.4815L11.006 18.8893C10.92 18.903 10.8116 18.9097 10.7315 18.9437C10.6747 18.9679 10.6762 18.9862 10.6561 19.0406C10.6488 19.2457 10.638 19.4482 10.6161 19.6522C10.2418 19.6712 9.86699 19.6487 9.4935 19.6248C9.47054 19.4072 9.46476 19.1859 9.45226 18.9674C9.33536 18.9362 9.21496 18.9174 9.09613 18.8953C8.99757 19.0856 8.87808 19.268 8.76758 19.4517C8.42333 19.3045 8.09178 19.1423 7.76617 18.9572C7.84905 18.746 7.9501 18.5403 8.04461 18.334L7.77608 18.1143C7.59758 18.2716 7.39806 18.4045 7.20413 18.5418C6.92625 18.2777 6.64741 18.0065 6.45962 17.6687C6.62827 17.5065 6.81489 17.3593 6.99328 17.2078L6.82012 16.8988C6.58063 16.9554 6.33236 16.9883 6.08973 17.03C5.99426 16.6683 5.89575 16.3079 5.82536 15.9402C6.0452 15.8445 6.2764 15.7886 6.5102 15.739L6.49725 15.3287C6.26081 15.2822 6.03362 15.2067 5.80414 15.1344C5.84817 14.76 5.93439 14.396 6.03616 14.0337C6.273 14.072 6.50751 14.1203 6.74247 14.1686L6.90746 13.806C6.72391 13.6401 6.54304 13.4713 6.36486 13.2996C6.5461 12.9813 6.8028 12.6949 7.03172 12.4101C7.25501 12.5212 7.45387 12.6703 7.65461 12.8166C7.75114 12.7321 7.85296 12.6569 7.95625 12.5811C7.86809 12.3433 7.74677 12.1234 7.69122 11.8738C8.01241 11.6782 8.33914 11.4833 8.67602 11.316C8.81948 11.5451 8.94374 11.7802 9.06638 12.0207L9.43789 11.913C9.44964 11.6476 9.45839 11.382 9.46415 11.1164Z" fill="white"/>
<path d="M9.88977 13.8187C10.2497 13.7812 10.6152 13.8468 10.9283 14.0326C11.287 14.2454 11.5324 14.5866 11.6352 14.9891C11.7444 15.4163 11.6943 15.865 11.4625 16.244C11.2051 16.6648 10.8172 16.8834 10.3476 16.9937C9.94715 17.0426 9.54517 16.9619 9.20834 16.736C8.85541 16.4994 8.592 16.1236 8.51329 15.7039C8.50832 15.678 8.504 15.6519 8.50034 15.6258C8.49665 15.5996 8.49362 15.5734 8.49125 15.5471C8.48888 15.5208 8.48716 15.4945 8.48607 15.4681C8.48499 15.4417 8.48457 15.4154 8.48481 15.3889C8.48501 15.3625 8.48587 15.3361 8.48739 15.3098C8.48895 15.2834 8.49114 15.2571 8.49395 15.2309C8.49679 15.2046 8.50028 15.1785 8.50441 15.1524C8.5085 15.1263 8.51326 15.1003 8.51868 15.0745C8.52409 15.0487 8.53014 15.023 8.5368 14.9974C8.54347 14.9719 8.55077 14.9465 8.55869 14.9214C8.56665 14.8962 8.5752 14.8712 8.58434 14.8464C8.59351 14.8217 8.60328 14.7971 8.61364 14.7729C8.62403 14.7486 8.63502 14.7246 8.64659 14.7009C8.65814 14.6771 8.67028 14.6537 8.683 14.6305C8.69573 14.6074 8.70902 14.5846 8.72287 14.5621C8.73671 14.5396 8.7511 14.5175 8.76603 14.4958C9.03751 14.104 9.43015 13.9018 9.88977 13.8187Z" fill="black"/>
<path d="M9.96335 14.7535C10.1119 14.7432 10.2486 14.7487 10.3828 14.8206C10.4024 14.8309 10.4215 14.8421 10.44 14.8543C10.4586 14.8665 10.4765 14.8796 10.4937 14.8936C10.5109 14.9075 10.5274 14.9223 10.5431 14.938C10.5589 14.9536 10.5738 14.9699 10.5879 14.987C10.602 15.0041 10.6152 15.0219 10.6276 15.0403C10.6399 15.0588 10.6513 15.0778 10.6617 15.0973C10.6722 15.1169 10.6816 15.1369 10.6901 15.1574C10.6985 15.1779 10.7059 15.1988 10.7123 15.22C10.7184 15.2404 10.7235 15.261 10.7276 15.282C10.7316 15.3029 10.7346 15.3239 10.7364 15.3451C10.7383 15.3663 10.7392 15.3876 10.7389 15.4089C10.7387 15.4302 10.7373 15.4514 10.7349 15.4725C10.7325 15.4937 10.729 15.5146 10.7244 15.5355C10.7199 15.5562 10.7143 15.5768 10.7077 15.597C10.701 15.6172 10.6933 15.6371 10.6847 15.6565C10.676 15.676 10.6664 15.6949 10.6558 15.7134C10.5519 15.8946 10.3916 15.9883 10.1959 16.0441C10.0329 16.0473 9.89043 16.0313 9.74819 15.945C9.53639 15.8165 9.46001 15.6082 9.40826 15.3802C9.42649 15.3098 9.44518 15.2377 9.47332 15.1705C9.56757 14.9453 9.74748 14.8383 9.96335 14.7535Z" fill="white"/>
<path d="M25.5633 2.36973C25.8841 2.34593 26.1778 2.40252 26.4599 2.55703C26.8592 2.77575 27.1807 3.16933 27.4958 3.49121C28.0218 4.02857 28.5422 4.60809 29.1217 5.08743C29.3123 5.11881 29.5025 5.15253 29.6923 5.18858C29.882 5.22464 30.0713 5.26301 30.2601 5.3037C30.449 5.3444 30.6373 5.38741 30.8251 5.43274C31.0129 5.47804 31.2001 5.52564 31.3867 5.57554C31.5733 5.62544 31.7593 5.67762 31.9446 5.7321C32.1299 5.78653 32.3146 5.84326 32.4985 5.90226C32.6825 5.96124 32.8656 6.02246 33.0481 6.08594C33.2305 6.14942 33.4122 6.21513 33.593 6.28307C33.7738 6.35098 33.9538 6.42111 34.1329 6.49346C34.312 6.56581 34.4903 6.64034 34.6676 6.71705C34.8448 6.79376 35.0211 6.87264 35.1965 6.95369C35.3719 7.0347 35.5462 7.11787 35.7195 7.20318C35.8928 7.28849 36.065 7.3759 36.2362 7.46541C36.4074 7.55496 36.5774 7.64658 36.7463 7.74029C36.9153 7.834 37.083 7.92976 37.2496 8.02756C37.4162 8.12537 37.5815 8.2252 37.7457 8.32707C38.1758 8.59621 38.6331 8.85976 39.0223 9.18542C37.775 9.69151 36.6818 10.6063 35.9159 11.7084C34.8183 13.2877 34.5317 15.0168 34.8711 16.8875C34.0572 15.7736 32.6094 14.7426 31.4361 14.0406C29.8373 15.5144 28.3892 17.1484 26.8032 18.6348C26.5364 18.8656 26.2355 19.0005 25.8836 19.0302C25.5721 19.0564 25.1784 19.0039 24.9052 18.8445C24.4636 18.5869 24.1186 18.1372 23.7547 17.7835L21.2905 15.3446C20.8917 14.9518 20.5004 14.5348 20.0745 14.1728C19.1371 14.6129 17.5604 15.701 16.9403 16.5037C17.144 15.6034 17.0404 14.5694 16.8023 13.686C16.278 11.7408 14.9077 10.2338 13.1929 9.24296C13.4335 9.05118 13.6784 8.86508 13.9277 8.68467C14.1769 8.50426 14.4302 8.32973 14.6876 8.16106C14.9449 7.9924 15.206 7.8298 15.4709 7.67326C15.7357 7.51668 16.0041 7.36634 16.276 7.22222C16.5478 7.0781 16.8229 6.94037 17.1011 6.80901C17.3793 6.67766 17.6605 6.55282 17.9445 6.4345C18.2285 6.31618 18.5151 6.2045 18.8044 6.09945C19.0936 5.9944 19.3851 5.89612 19.6788 5.80461C20.5353 5.54197 21.4063 5.3584 22.274 5.14222C22.8017 4.62937 23.3213 4.10854 23.833 3.57973C24.1505 3.25755 24.4811 2.86655 24.8618 2.61851C25.0818 2.47525 25.3047 2.40618 25.5633 2.36973Z" fill="black"/>
<path d="M24.6904 7.70728C24.9131 7.84738 26.2395 9.71537 26.504 10.0698C26.976 10.0527 27.4516 10.0653 27.9237 10.0769C27.6554 11.0078 27.3963 11.9413 27.1465 12.8773C27.0687 13.1555 26.9851 13.4318 26.8956 13.7064C26.6999 13.1707 26.5369 12.6192 26.3456 12.0806C25.8189 10.6134 25.2672 9.15559 24.6904 7.70728Z" fill="white"/>
<path d="M24.402 7.53088C24.4368 7.56115 24.4235 7.54541 24.4528 7.59466C24.6262 7.8865 24.7408 8.24974 24.8631 8.56596C25.1005 9.18031 25.3328 9.79657 25.56 10.4148C25.8569 11.1993 26.1437 11.9876 26.4203 12.7795C26.5513 13.1537 26.7158 13.5497 26.7951 13.9379C26.8175 14.0479 26.7664 14.1811 26.7381 14.2877C26.6456 14.1301 26.5729 13.9592 26.4957 13.7935C26.3407 13.442 26.1813 13.0923 26.0176 12.7447C25.9082 12.5084 25.8089 12.2568 25.6663 12.0382C24.9991 12.0348 24.3319 12.0373 23.6648 12.0456C23.876 10.5377 24.1468 9.03203 24.402 7.53088Z" fill="white"/>
<path d="M25.5627 3.07386C25.6341 3.07022 25.7061 3.06648 25.7775 3.07205C25.9714 3.08716 26.129 3.17028 26.2799 3.28967C26.5902 3.53533 26.8676 3.85233 27.1462 4.13446C27.5831 4.58017 28.0245 5.02127 28.4705 5.45777C29.3357 6.31235 30.1965 7.1715 31.0526 8.03522C31.5326 8.51496 32.0478 8.98194 32.492 9.49432L26.8065 9.49899C26.1529 8.66513 25.5051 7.82675 24.8632 6.98385L24.1118 6.03521C24.0048 6.42607 23.96 6.85441 23.8929 7.25502L23.5198 9.51179C22.8202 9.49463 22.1205 9.50737 21.4209 9.50372C20.5478 9.49092 19.6746 9.48808 18.8015 9.49519C19.107 9.12403 19.4883 8.79512 19.8319 8.45732C20.601 7.70403 21.3748 6.95553 22.1533 6.21182L24.1323 4.26898C24.4545 3.95112 24.7707 3.60034 25.1161 3.30929C25.2543 3.19273 25.3929 3.12877 25.5627 3.07386Z" fill="white"/>
<path d="M18.7503 10.0594C19.2715 10.0253 19.8145 10.0542 20.3378 10.0546L23.4319 10.0585C23.2957 10.9058 23.1774 11.7675 22.9852 12.6039C23.7606 12.5798 24.5384 12.5908 25.3142 12.5817L26.206 14.5049C26.3708 14.8563 26.5983 15.2291 26.7051 15.601C26.8562 15.4056 26.9908 15.216 27.0893 14.9878C27.3006 14.4984 27.4267 13.884 27.5715 13.3679L28.4901 10.0605L31.1265 10.063C31.6105 10.0613 32.207 9.99875 32.6805 10.0824C32.8141 10.1061 32.9221 10.1636 33.0218 10.2555C33.182 10.4031 33.291 10.6237 33.293 10.8431C33.2974 11.3259 32.739 11.7521 32.4225 12.07C30.9674 13.5359 29.5042 14.9937 28.033 16.4435C27.666 16.8064 26.5193 18.079 26.1432 18.2521C25.9121 18.3585 25.5569 18.3684 25.321 18.2631C25.1854 18.2026 25.047 18.0875 24.9376 17.9876C24.6603 17.7342 24.4044 17.4515 24.1359 17.1881L22.0559 15.1403L20.1262 13.2264C19.5666 12.6755 18.9926 12.1293 18.459 11.5535C18.3432 11.4284 18.2301 11.2877 18.1786 11.1229C18.1081 10.8978 18.138 10.6395 18.2526 10.4339C18.3696 10.2241 18.5246 10.124 18.7503 10.0594Z" fill="white"/>
<path d="M25.5331 19.5128C25.6839 19.6148 25.8225 19.8009 25.9561 19.9322L27.1474 21.1013L30.392 24.3331C30.9317 24.871 31.4876 25.3941 32.0181 25.9411C32.1054 26.0311 32.1758 26.1202 32.2356 26.2316C31.8357 26.7602 31.3228 27.2252 30.8566 27.6961L28.6848 29.8999C29.2339 29.9142 29.7847 29.9047 30.3341 29.9043C30.7407 29.9039 31.1923 29.8644 31.5873 29.968C31.6449 29.9837 31.7013 30.0027 31.7567 30.0249C31.8121 30.0471 31.866 30.0725 31.9185 30.101C31.9709 30.1294 32.0215 30.1608 32.0704 30.1952C32.1192 30.2295 32.1658 30.2665 32.2104 30.3063C32.4268 30.496 32.6046 30.7624 32.6743 31.0437C32.7957 31.5339 32.7279 32.1768 32.728 32.6866L32.7289 35.1385C32.7294 35.6409 32.7154 36.1485 32.7453 36.6501C33.1455 36.4515 33.5353 36.1226 33.8865 35.847C34.005 35.7555 34.1217 35.6618 34.2368 35.5661C34.3519 35.4703 34.4651 35.3725 34.5767 35.2727C34.6882 35.1728 34.7978 35.071 34.9057 34.9672C35.0135 34.8633 35.1195 34.7576 35.2235 34.6499C35.3275 34.5423 35.4295 34.4328 35.5295 34.3214C35.6296 34.2101 35.7276 34.097 35.8235 33.9821C35.9195 33.8672 36.0133 33.7506 36.1051 33.6323C36.1968 33.5141 36.2864 33.3941 36.3738 33.2726C36.4612 33.1511 36.5463 33.028 36.6293 32.9034C36.7122 32.7788 36.7929 32.6527 36.8713 32.5252C36.9497 32.3977 37.0257 32.2688 37.0995 32.1385C37.1732 32.0082 37.2445 31.8767 37.3135 31.7438C37.3824 31.611 37.449 31.4769 37.5131 31.3417C37.5772 31.2064 37.6388 31.07 37.698 30.9325C37.7572 30.795 37.8138 30.6565 37.868 30.5169C37.9222 30.3774 37.9738 30.2369 38.0229 30.0955C38.0559 30.0027 38.0877 29.9096 38.1184 29.8161C38.1491 29.7226 38.1786 29.6287 38.207 29.5344C38.2353 29.4402 38.2625 29.3456 38.2885 29.2507C38.3145 29.1558 38.3393 29.0605 38.3629 28.9649C38.3865 28.8694 38.4089 28.7736 38.4301 28.6775C38.4514 28.5813 38.4714 28.485 38.4903 28.3884C38.5091 28.2918 38.5267 28.195 38.5431 28.0979C38.5596 28.0009 38.5748 27.9036 38.5888 27.8062C38.6028 27.7088 38.6155 27.6112 38.6271 27.5135C38.6387 27.4157 38.649 27.3178 38.6582 27.2198C38.6673 27.1218 38.6752 27.0237 38.6819 26.9256C38.6886 26.8273 38.694 26.7291 38.6983 26.6308C38.7025 26.5324 38.7056 26.434 38.7074 26.3356C38.7092 26.2372 38.7097 26.1388 38.709 26.0404C38.7084 25.942 38.7065 25.8436 38.7034 25.7452C38.7003 25.6468 38.696 25.5485 38.6904 25.4502C38.6848 25.352 38.6781 25.2538 38.6701 25.1557C38.6621 25.0576 38.6528 24.9596 38.6424 24.8617C38.632 24.7638 38.6203 24.6661 38.6074 24.5685C38.5945 24.471 38.5804 24.3736 38.5651 24.2764C38.5498 24.1791 38.5333 24.0821 38.5156 23.9853C38.4979 23.8885 38.479 23.7919 38.4588 23.6955C38.4387 23.5992 38.4174 23.5031 38.3949 23.4073C38.3724 23.3115 38.3487 23.216 38.3238 23.1207C38.2989 23.0255 38.2728 22.9306 38.2456 22.836C38.2183 22.7415 38.1899 22.6472 38.1602 22.5533C38.1307 22.4595 38.0999 22.366 38.068 22.2729C38.036 22.1798 38.0029 22.0871 37.9687 21.9949C37.9344 21.9026 37.899 21.8107 37.8625 21.7194C37.826 21.628 37.7883 21.537 37.7495 21.4466C37.7108 21.3561 37.6709 21.2661 37.6298 21.1767C37.5888 21.0872 37.5467 20.9983 37.5034 20.9099C38.6579 21.7167 39.9367 22.1809 41.3525 22.2173C41.4013 22.2188 41.4501 22.2198 41.499 22.2202C41.5478 22.2206 41.5966 22.2205 41.6455 22.2199C41.6943 22.2193 41.7431 22.2181 41.7919 22.2164C41.8407 22.2147 41.8895 22.2125 41.9383 22.2098C41.9871 22.207 42.0358 22.2037 42.0845 22.1999C42.1331 22.1961 42.1818 22.1918 42.2304 22.187C42.279 22.1821 42.3276 22.1767 42.3761 22.1708C42.4245 22.1649 42.4729 22.1584 42.5213 22.1515C42.5696 22.1445 42.6179 22.137 42.6661 22.129C42.7142 22.121 42.7623 22.1125 42.8103 22.1035C42.8583 22.0944 42.9062 22.0849 42.954 22.0748C43.0018 22.0647 43.0495 22.0541 43.097 22.0429C43.1446 22.0318 43.192 22.0202 43.2393 22.0081C43.2866 21.9959 43.3338 21.9832 43.3808 21.9701C43.4278 21.9569 43.4747 21.9432 43.5215 21.929C43.5682 21.9149 43.6148 21.9002 43.6612 21.885C43.7076 21.8698 43.7539 21.8541 43.8 21.8379C43.846 21.8217 43.8919 21.805 43.9376 21.7878C43.9833 21.7706 44.0288 21.7529 44.0742 21.7347C44.1195 21.7166 44.1647 21.6979 44.2096 21.6787C44.2545 21.6596 44.2992 21.6399 44.3437 21.6198C44.3882 21.5997 44.4325 21.5791 44.4766 21.558C44.5206 21.5369 44.5644 21.5154 44.608 21.4933C44.6516 21.4713 44.6949 21.4488 44.738 21.4258C44.7811 21.4028 44.824 21.3794 44.8666 21.3555C44.9092 21.3316 44.9515 21.3072 44.9936 21.2824C45.0357 21.2576 45.0774 21.2323 45.1189 21.2066C45.1605 21.1808 45.2017 21.1547 45.2427 21.1281C45.2836 21.1014 45.3242 21.0744 45.3646 21.0469C45.405 21.0194 45.445 20.9914 45.4848 20.9631C45.5245 20.9347 45.564 20.9059 45.6031 20.8766C45.6422 20.8474 45.681 20.8178 45.7195 20.7877C46.0706 20.5125 46.3742 20.1993 46.6974 19.8941C46.7535 20.0369 46.8079 20.1803 46.8606 20.3242C46.9135 20.4682 46.9646 20.6128 47.0142 20.758C47.0637 20.9031 47.1116 21.0488 47.1578 21.195C47.2041 21.3412 47.2487 21.4879 47.2916 21.6352C47.3346 21.7824 47.3758 21.9301 47.4154 22.0783C47.455 22.2264 47.493 22.375 47.5293 22.524C47.5655 22.673 47.6001 22.8224 47.633 22.9722C47.6659 23.122 47.6971 23.2722 47.7266 23.4227C47.7561 23.5732 47.784 23.724 47.8101 23.8751C47.8362 24.0262 47.8606 24.1776 47.8833 24.3293C47.906 24.4809 47.927 24.6328 47.9463 24.785C47.9656 24.9372 47.9832 25.0895 47.999 25.242C48.0149 25.3946 48.029 25.5473 48.0414 25.7001C48.0538 25.853 48.0645 26.006 48.0735 26.1591C48.0824 26.3122 48.0897 26.4653 48.0952 26.6186C48.1007 26.7719 48.1045 26.9252 48.1065 27.0785C48.1086 27.2319 48.1089 27.3852 48.1075 27.5386C48.1061 27.6919 48.103 27.8453 48.0981 27.9986C48.0933 28.1519 48.0867 28.3051 48.0784 28.4582C48.0701 28.6113 48.0601 28.7643 48.0483 28.9173C48.0365 29.0702 48.023 29.2229 48.0078 29.3756C47.9927 29.5281 47.9758 29.6805 47.9571 29.8328C47.9385 29.985 47.9181 30.137 47.8961 30.2888C47.874 30.4406 47.8503 30.5921 47.8248 30.7433C47.7993 30.8945 47.7722 31.0454 47.7433 31.1961C47.7144 31.3467 47.6838 31.497 47.6516 31.6469C47.6193 31.7968 47.5854 31.9464 47.5497 32.0955C47.5141 32.2447 47.4768 32.3934 47.4378 32.5418C47.3989 32.6901 47.3582 32.838 47.3159 32.9854C47.2736 33.1328 47.2296 33.2797 47.184 33.4261C47.1384 33.5725 47.0911 33.7184 47.0422 33.8638C46.9933 34.0091 46.9427 34.1539 46.8906 34.2981C46.6069 35.082 46.2476 35.8524 45.8789 36.6C45.706 36.9507 45.3766 37.3655 45.2917 37.736C45.2009 38.1324 45.2672 39.1161 45.2658 39.5894C45.2574 41.319 45.2596 43.0487 45.2722 44.7783C45.7397 44.9948 47.1007 45.6384 47.425 45.9499C47.6871 46.2017 47.8274 46.5362 47.8286 46.8988C47.8298 47.2751 47.6834 47.6572 47.4131 47.9216C47.1977 48.1323 46.921 48.2487 46.6244 48.2854C46.117 48.348 45.5702 48.3129 45.0576 48.3137L42.2189 48.3174L32.6238 48.3114C32.5132 48.5666 32.3651 48.797 32.1683 48.9946C31.9468 49.2171 31.6635 49.3988 31.3576 49.4768C30.8466 49.6072 30.1162 49.5391 29.5804 49.5394L26.9522 49.5406L22.821 49.5389C22.2033 49.5385 21.2385 49.6025 20.651 49.4832C20.3219 49.4164 20.0342 49.2747 19.7928 49.0399C19.1458 48.4108 19.1951 47.7992 19.1827 46.9637L19.1675 45.5416C18.7898 45.5468 18.4121 45.555 18.0345 45.5662C17.9452 45.9048 17.783 46.2043 17.5112 46.4303C17.2965 46.6088 17.0966 46.6677 16.8266 46.6947C16.1189 46.7656 15.3634 46.7187 14.6502 46.7181L10.5283 46.7122L7.37828 46.7145C6.87915 46.7152 6.32761 46.7608 5.83285 46.7017C5.44869 46.6558 5.0762 46.4551 4.83445 46.1512C4.79845 46.1056 4.76521 46.058 4.73473 46.0085C4.70425 45.9591 4.67674 45.908 4.65219 45.8553C4.62764 45.8026 4.60622 45.7487 4.58793 45.6935C4.56964 45.6384 4.5546 45.5823 4.54281 45.5254C4.465 45.1548 4.48072 43.5676 4.5283 43.1647C4.58341 42.6982 4.7944 42.3453 5.16284 42.058C5.01354 41.9366 4.86127 41.8118 4.74947 41.6534C4.64123 41.5 4.57809 41.3395 4.54384 41.1562C4.46503 40.7346 4.45403 38.8763 4.53119 38.4582C4.61361 38.0116 4.8949 37.7432 5.2511 37.4974C5.03683 37.3453 4.8314 37.1854 4.69609 36.9548C4.60227 36.7948 4.56053 36.6171 4.53682 36.4351C4.47717 35.9771 4.47349 34.2726 4.59359 33.8573C4.70896 33.4582 4.99914 33.2019 5.34561 33.002C3.87294 28.6963 4.01616 24.5731 5.4067 20.271C6.23931 20.9744 7.0124 21.5038 8.06911 21.8359C9.90358 22.4123 11.8174 22.1684 13.5072 21.284C13.45 21.4302 13.3943 21.577 13.3402 21.7243C13.3086 21.8125 13.2779 21.901 13.2482 21.9899C13.2184 22.0787 13.1896 22.1678 13.1618 22.2573C13.1339 22.3467 13.107 22.4365 13.0811 22.5265C13.0551 22.6165 13.0301 22.7068 13.0061 22.7973C12.9821 22.8879 12.959 22.9787 12.9369 23.0697C12.9148 23.1607 12.8936 23.252 12.8735 23.3434C12.8533 23.435 12.8341 23.5267 12.8159 23.6185C12.7976 23.7104 12.7804 23.8025 12.7641 23.8947C12.7478 23.987 12.7325 24.0794 12.7182 24.172C12.7039 24.2646 12.6905 24.3573 12.6781 24.4501C12.6658 24.543 12.6544 24.636 12.644 24.7291C12.6336 24.8222 12.6242 24.9154 12.6158 25.0087C12.6074 25.102 12.5999 25.1954 12.5935 25.2888C12.5871 25.3823 12.5816 25.4758 12.5772 25.5694C12.5727 25.663 12.5692 25.7566 12.5668 25.8502C12.5643 25.9439 12.5628 26.0375 12.5623 26.1312C12.5618 26.2249 12.5623 26.3186 12.5639 26.4122C12.5653 26.5059 12.5678 26.5995 12.5713 26.6931C12.5748 26.7868 12.5792 26.8803 12.5847 26.9739C12.5902 27.0674 12.5966 27.1608 12.6041 27.2542C12.6115 27.3476 12.62 27.4409 12.6294 27.5341C12.6388 27.6273 12.6492 27.7204 12.6606 27.8134C12.672 27.9064 12.6843 27.9992 12.6977 28.092C12.7111 28.1847 12.7254 28.2773 12.7407 28.3697C12.756 28.4621 12.7723 28.5543 12.7896 28.6464C12.8069 28.7385 12.8251 28.8304 12.8444 28.9221C12.8636 29.0138 12.8837 29.1052 12.9049 29.1964C12.9261 29.2877 12.9482 29.3787 12.9713 29.4695C12.9944 29.5603 13.0184 29.6509 13.0434 29.7412C13.0685 29.8314 13.0944 29.9214 13.1213 30.0112C13.1482 30.1009 13.1761 30.1903 13.2049 30.2795C13.2337 30.3686 13.2634 30.4575 13.2941 30.546C13.5605 31.3257 13.9166 32.0656 14.2658 32.8104C14.6759 32.8137 15.0865 32.8087 15.4966 32.8069C16.1856 32.8038 16.8084 32.7643 17.3483 33.2645C17.9992 33.8676 17.8698 34.7096 17.8951 35.5106C18.3375 35.9186 18.8269 36.2855 19.3207 36.6288C19.3361 35.3801 19.3219 34.1294 19.3235 32.8805C19.3242 32.3482 19.2654 31.5862 19.3714 31.0903C19.4289 30.8213 19.5876 30.5744 19.7791 30.3796C20.2994 29.8501 20.9138 29.9017 21.5948 29.9055C21.9709 29.9095 22.3469 29.909 22.7229 29.9039C22.3452 29.477 21.9202 29.084 21.5149 28.6831C20.9512 28.1271 20.3913 27.5673 19.8352 27.0037C19.5377 26.7069 19.1921 26.4335 18.9273 26.1078C19.2241 25.7454 19.6185 25.4155 19.9519 25.0828L22.1236 22.9086L24.5743 20.4632C24.8915 20.1507 25.195 19.7997 25.5331 19.5128Z" fill="black"/>
<path d="M23.818 22.5738C24.1425 22.5671 24.468 22.572 24.7926 22.5724V22.9276L23.8161 22.9211C23.8132 22.8056 23.817 22.6894 23.818 22.5738Z" fill="white"/>
<path d="M22.058 24.4888C22.6487 24.4951 23.2405 24.4823 23.8313 24.4778C24.066 24.476 24.3653 24.4386 24.5915 24.4885C24.6507 24.5015 24.64 24.5075 24.6695 24.5553C24.6766 24.6406 24.6744 24.6853 24.6454 24.7658C24.5262 24.8086 24.3712 24.7931 24.2448 24.7947C24.1345 24.795 24.0283 24.7913 23.919 24.7758C23.5248 24.7197 23.1094 24.8032 22.7084 24.788C22.6252 24.7849 22.5237 24.7134 22.46 24.7161C22.2642 24.7243 22.0844 24.8509 21.8721 24.8097C21.7993 24.7956 21.7805 24.7712 21.741 24.7118C21.7352 24.6371 21.7293 24.5996 21.7663 24.5313C21.8454 24.4735 21.9636 24.4895 22.058 24.4888Z" fill="white"/>
<path d="M6.04841 26.9923C6.13738 26.9886 6.23061 26.9819 6.3173 27.0058C6.47782 27.05 6.62066 27.1618 6.69618 27.3108C6.76493 27.4464 6.77885 27.6094 6.72334 27.752C6.64402 27.9555 6.48772 28.0448 6.29627 28.126C6.19659 28.1336 6.09711 28.1415 6.00017 28.1119C5.85239 28.0667 5.72712 27.9668 5.658 27.8278C5.64968 27.8108 5.64225 27.7933 5.63571 27.7755C5.62918 27.7577 5.62356 27.7396 5.61885 27.7212C5.61415 27.7028 5.61039 27.6842 5.60758 27.6654C5.60477 27.6466 5.60291 27.6278 5.60199 27.6088C5.60111 27.5899 5.60118 27.5709 5.6022 27.5519C5.60324 27.533 5.60524 27.5141 5.60819 27.4954C5.61113 27.4766 5.61503 27.458 5.61987 27.4397C5.62471 27.4213 5.63046 27.4033 5.63713 27.3855C5.71239 27.1821 5.85681 27.077 6.04841 26.9923Z" fill="white"/>
<path d="M7.83019 25.1646C7.94013 25.1588 8.0555 25.1701 8.15854 25.2103C8.17682 25.2173 8.19468 25.2252 8.21211 25.2341C8.22958 25.2429 8.24654 25.2527 8.26299 25.2633C8.27945 25.2738 8.29533 25.2852 8.31063 25.2974C8.32593 25.3097 8.34055 25.3226 8.3545 25.3363C8.36848 25.3501 8.38172 25.3644 8.39421 25.3795C8.40671 25.3946 8.4184 25.4102 8.4293 25.4265C8.4402 25.4427 8.45024 25.4595 8.45942 25.4768C8.46859 25.4941 8.47687 25.5118 8.48425 25.5299C8.49136 25.5476 8.49759 25.5657 8.50294 25.584C8.50828 25.6023 8.51274 25.6209 8.51629 25.6396C8.51981 25.6584 8.5224 25.6773 8.52406 25.6963C8.52575 25.7153 8.5265 25.7344 8.5263 25.7535C8.52609 25.7726 8.52496 25.7916 8.52289 25.8105C8.52083 25.8295 8.51783 25.8484 8.5139 25.8671C8.50998 25.8857 8.50515 25.9042 8.49943 25.9224C8.49368 25.9406 8.48706 25.9585 8.47958 25.976C8.39254 26.1773 8.24075 26.2716 8.04484 26.3517C7.93353 26.3587 7.82171 26.3522 7.71786 26.3082C7.69924 26.3005 7.68104 26.2918 7.66327 26.2823C7.64549 26.2728 7.62825 26.2624 7.61152 26.2511C7.5948 26.2399 7.57867 26.2278 7.56313 26.215C7.54759 26.2021 7.53271 26.1886 7.51849 26.1742C7.50431 26.1599 7.49087 26.1449 7.47817 26.1292C7.46547 26.1136 7.45358 26.0973 7.44247 26.0805C7.4314 26.0637 7.42118 26.0463 7.4118 26.0285C7.40242 26.0106 7.39396 25.9923 7.38641 25.9736C7.3792 25.956 7.37288 25.938 7.36747 25.9197C7.36205 25.9013 7.35755 25.8828 7.35396 25.8641C7.35037 25.8453 7.34771 25.8264 7.34599 25.8074C7.34426 25.7884 7.34348 25.7694 7.34365 25.7503C7.34385 25.7312 7.34497 25.7121 7.347 25.6932C7.34907 25.6742 7.35206 25.6553 7.35599 25.6367C7.35988 25.618 7.36471 25.5995 7.37046 25.5813C7.37622 25.5631 7.38285 25.5452 7.39037 25.5277C7.47878 25.3256 7.63315 25.2396 7.83019 25.1646Z" fill="white"/>
<path d="M9.63036 25.164C9.75234 25.1566 9.87091 25.1543 9.98618 25.2014C10.0039 25.2086 10.0213 25.2166 10.0382 25.2255C10.0551 25.2344 10.0715 25.2441 10.0875 25.2546C10.1035 25.2652 10.1189 25.2764 10.1338 25.2885C10.1486 25.3005 10.1628 25.3133 10.1764 25.3267C10.19 25.3402 10.2029 25.3543 10.2151 25.369C10.2272 25.3838 10.2387 25.3991 10.2493 25.415C10.26 25.4308 10.2698 25.4471 10.2789 25.464C10.2879 25.4808 10.2961 25.4981 10.3035 25.5158C10.3109 25.5339 10.3174 25.5523 10.323 25.571C10.3286 25.5898 10.3333 25.6087 10.3371 25.6279C10.3408 25.6471 10.3437 25.6665 10.3456 25.6859C10.3474 25.7054 10.3484 25.7249 10.3484 25.7445C10.3484 25.764 10.3474 25.7836 10.3455 25.803C10.3436 25.8225 10.3407 25.8418 10.3369 25.861C10.3331 25.8802 10.3284 25.8992 10.3228 25.9179C10.3171 25.9366 10.3106 25.955 10.3032 25.9731C10.2186 26.1737 10.0767 26.2625 9.88005 26.3362C9.77879 26.3479 9.66621 26.3465 9.56871 26.3145C9.42302 26.2668 9.29566 26.1583 9.22782 26.0207C9.21864 26.0021 9.21045 25.983 9.20324 25.9635C9.19606 25.944 9.18992 25.9242 9.18481 25.904C9.17969 25.8839 9.17563 25.8636 9.17262 25.843C9.16964 25.8224 9.16774 25.8018 9.16693 25.781C9.16608 25.7603 9.16634 25.7395 9.16769 25.7188C9.16901 25.6981 9.17143 25.6775 9.17495 25.657C9.17844 25.6365 9.183 25.6162 9.18861 25.5962C9.19423 25.5762 9.20087 25.5566 9.20852 25.5373C9.28931 25.3349 9.43724 25.2438 9.63036 25.164Z" fill="white"/>
<path d="M6.10276 25.1438C6.22672 25.1522 6.34219 25.1723 6.45137 25.2354C6.46905 25.2456 6.48618 25.2566 6.50276 25.2684C6.51935 25.2803 6.53531 25.2929 6.55065 25.3064C6.56595 25.3198 6.58056 25.334 6.59447 25.349C6.60835 25.3639 6.62147 25.3795 6.63383 25.3957C6.64615 25.4119 6.65765 25.4287 6.66831 25.4461C6.67898 25.4635 6.68874 25.4813 6.69761 25.4997C6.70648 25.5181 6.7144 25.5368 6.72138 25.556C6.72839 25.5751 6.73441 25.5946 6.73946 25.6143C6.74453 25.6342 6.74855 25.6544 6.75149 25.6747C6.75444 25.6951 6.7563 25.7155 6.75708 25.7361C6.75786 25.7566 6.75752 25.7771 6.75606 25.7977C6.75464 25.8181 6.75213 25.8385 6.74855 25.8587C6.74496 25.879 6.7403 25.899 6.73458 25.9187C6.72883 25.9385 6.72205 25.9579 6.71427 25.9769C6.70648 25.9959 6.6977 26.0144 6.68791 26.0325C6.67813 26.0506 6.66741 26.0682 6.65577 26.0851C6.54339 26.2481 6.39252 26.3169 6.20407 26.3532C6.0826 26.3487 5.96794 26.3263 5.86251 26.2628C5.84532 26.2525 5.82866 26.2414 5.81255 26.2294C5.79643 26.2174 5.78096 26.2047 5.76613 26.1912C5.7513 26.1777 5.73719 26.1635 5.72378 26.1486C5.71037 26.1337 5.69773 26.1182 5.68585 26.102C5.67396 26.0859 5.66293 26.0692 5.65274 26.0519C5.64251 26.0347 5.63319 26.0169 5.62476 25.9987C5.61633 25.9805 5.60883 25.962 5.60226 25.943C5.59566 25.9241 5.59002 25.9049 5.58535 25.8854C5.58044 25.8649 5.5766 25.8443 5.57382 25.8234C5.57105 25.8025 5.56937 25.7816 5.5688 25.7606C5.56819 25.7396 5.56868 25.7186 5.57027 25.6976C5.57186 25.6767 5.57455 25.6558 5.57834 25.6352C5.5821 25.6144 5.58692 25.594 5.59282 25.5738C5.59867 25.5536 5.60558 25.5338 5.61353 25.5143C5.62149 25.4948 5.63043 25.4758 5.64035 25.4573C5.6503 25.4388 5.66117 25.4208 5.67295 25.4034C5.7804 25.246 5.92081 25.1802 6.10276 25.1438Z" fill="white"/>
<path d="M32.7533 43.7789C33.1566 43.7742 33.5608 43.7832 33.9642 43.7865L33.9725 44.3902C33.8364 44.4692 33.6932 44.5388 33.5537 44.6117C33.2835 44.7465 33.0148 44.8808 32.7533 45.0321C32.7491 44.6144 32.7491 44.1967 32.7533 43.7789Z" fill="white"/>
<path d="M25.8931 46.772C26.0668 46.7616 26.2082 46.7745 26.3643 46.8571C26.3886 46.8701 26.4121 46.8842 26.435 46.8995C26.4579 46.9149 26.4799 46.9313 26.5012 46.9488C26.5224 46.9663 26.5427 46.9849 26.5621 47.0044C26.5815 47.0239 26.5999 47.0444 26.6173 47.0658C26.6346 47.0872 26.6509 47.1093 26.666 47.1323C26.6812 47.1553 26.6951 47.179 26.7079 47.2034C26.7207 47.2277 26.7323 47.2527 26.7425 47.2782C26.7529 47.3037 26.7619 47.3297 26.7696 47.3562C26.7768 47.3812 26.7826 47.4064 26.7873 47.432C26.7919 47.4576 26.7953 47.4833 26.7973 47.5092C26.7994 47.5352 26.8002 47.5611 26.7997 47.5871C26.7993 47.6131 26.7975 47.639 26.7944 47.6648C26.7914 47.6906 26.787 47.7162 26.7814 47.7416C26.7758 47.767 26.769 47.792 26.7609 47.8167C26.7528 47.8414 26.7435 47.8657 26.7331 47.8894C26.7226 47.9132 26.7109 47.9364 26.6981 47.959C26.5753 48.1814 26.3819 48.3042 26.1417 48.3682C25.961 48.3741 25.8162 48.3582 25.654 48.2728C25.6293 48.26 25.6054 48.246 25.5821 48.2308C25.559 48.2156 25.5366 48.1993 25.515 48.1818C25.4935 48.1643 25.4729 48.1457 25.4532 48.1262C25.4335 48.1066 25.4149 48.086 25.3974 48.0645C25.3798 48.0431 25.3634 48.0207 25.3481 47.9975C25.3328 47.9744 25.3188 47.9505 25.3059 47.9259C25.293 47.9013 25.2815 47.8761 25.2712 47.8504C25.2609 47.8246 25.252 47.7983 25.2443 47.7717C25.2375 47.7474 25.2319 47.7228 25.2274 47.698C25.223 47.6731 25.2198 47.6481 25.2178 47.623C25.2158 47.5978 25.2151 47.5726 25.2156 47.5474C25.2161 47.5222 25.2178 47.4971 25.2207 47.472C25.2237 47.4469 25.2278 47.4221 25.2332 47.3974C25.2386 47.3728 25.2452 47.3484 25.2529 47.3244C25.2607 47.3004 25.2696 47.2768 25.2797 47.2537C25.2897 47.2306 25.3009 47.208 25.3132 47.1859C25.4436 46.9541 25.6467 46.8426 25.8931 46.772Z" fill="white"/>
<path d="M39.7158 26.1929C40.289 26.5379 40.8353 26.967 41.3825 27.3531C41.9891 27.7812 42.6587 28.1977 43.2085 28.6943C42.6593 29.1175 42.1305 29.5658 41.5984 30.0101C40.9573 30.5421 40.352 31.1142 39.7015 31.6347C39.6784 29.8207 39.6832 28.0067 39.7158 26.1929Z" fill="white"/>
<path d="M47.024 26.22C47.0545 26.2259 47.0821 26.2231 47.1033 26.2485C47.137 26.2889 47.1447 26.3406 47.1471 26.3915C47.1728 26.9307 47.1464 27.4879 47.1485 28.0289C47.1559 29.2171 47.1565 30.4053 47.1504 31.5936C46.5052 31.1426 45.9049 30.5741 45.3062 30.062C44.7389 29.5899 44.1742 29.1285 43.5759 28.695C44.7112 27.8503 45.8605 27.0253 47.024 26.22Z" fill="white"/>
<path d="M43.3939 28.8215C43.9791 29.1734 44.5221 29.6889 45.0448 30.1278C45.6997 30.6776 46.3853 31.2189 46.9951 31.8188C46.5367 31.8563 46.0707 31.8438 45.6108 31.8451L43.437 31.8498C42.2458 31.8527 41.0509 31.8662 39.8602 31.8336C40.1615 31.5197 40.5101 31.2381 40.8359 30.9499C41.6662 30.2135 42.5189 29.5041 43.3939 28.8215Z" fill="white"/>
<path d="M41.7093 24.3021C42.2385 24.2719 42.7748 24.2925 43.3048 24.2917C43.7627 24.2909 44.4383 24.2281 44.8734 24.3401C45.045 24.4977 44.9676 25.196 44.9836 25.4428C45.3328 25.4429 45.6745 25.4617 46.0208 25.5056C46.2512 25.7161 46.5314 25.8878 46.7761 26.0843C46.082 26.6899 45.1305 27.281 44.3686 27.8436C44.0507 28.078 43.7307 28.3098 43.4088 28.5388C42.801 28.1207 42.213 27.6691 41.6098 27.2434C41.0576 26.8538 40.4733 26.486 39.9494 26.0597C40.2421 25.8472 40.5198 25.6035 40.8309 25.419L41.5403 25.4115C41.5451 25.1192 41.4838 24.787 41.549 24.5022C41.5727 24.3984 41.6232 24.358 41.7093 24.3021Z" fill="white"/>
<path d="M42.2267 24.9043L44.2444 24.909L44.2441 25.4156C43.5795 25.4554 42.8923 25.4181 42.2253 25.4157L42.2267 24.9043Z" fill="black"/>
<path d="M25.4659 19.7404C25.5295 19.7541 25.6139 19.7698 25.6669 19.8099C25.7211 19.851 25.7198 19.924 25.7234 19.9853C25.7616 20.6363 25.7233 21.3108 25.7241 21.9649L25.7297 26.1523L29.6301 26.1528C30.4433 26.1538 31.265 26.1328 32.0766 26.1788C31.881 26.5557 30.708 27.6396 30.3276 28.0213C29.701 28.65 29.0871 29.2928 28.4479 29.9087L25.7355 29.911L22.9365 29.908C22.2345 29.1767 21.5123 28.4714 20.7923 27.7583C20.2567 27.2279 19.7323 26.6786 19.1633 26.1839C21.2562 26.1212 23.357 26.2027 25.4513 26.1609C25.5136 25.583 25.4652 24.7857 25.4646 24.1832C25.463 22.7029 25.4438 21.2203 25.4659 19.7404Z" fill="white"/>
<path d="M9.36249 42.3896L14.3518 42.3941C14.7926 42.3948 15.2334 42.3931 15.6741 42.3891C15.9332 42.3871 16.2093 42.3654 16.4656 42.4024C16.6714 42.4322 16.8511 42.5152 17.004 42.6576C17.1227 42.7681 17.1963 42.8884 17.2408 43.0444C17.3617 43.4674 17.2897 44.4602 17.2969 44.9474C17.3015 45.2629 17.3235 45.5692 17.0754 45.807C16.9495 45.9277 16.7306 45.9803 16.5631 46.0011C16.1979 46.0465 15.7938 46.0089 15.4239 46.0064L13.2158 45.9993L8.12572 45.9872C7.70884 45.9858 7.29195 45.9876 6.87507 45.9928C6.54997 45.9964 6.20491 46.0201 5.88327 45.9701C5.72447 45.9453 5.56182 45.8603 5.4467 45.7488C5.2648 45.5724 5.24423 45.3593 5.23972 45.1206C5.23189 44.7084 5.193 43.3822 5.27343 43.0704C5.3103 42.9277 5.39521 42.7905 5.49916 42.6871C5.62494 42.5619 5.78109 42.4804 5.9539 42.4429C6.36914 42.3527 6.85004 42.3974 7.27543 42.3965L9.36249 42.3896Z" fill="white"/>
<path d="M7.70586 43.1241C8.2253 43.1115 8.74784 43.1335 9.26759 43.1362L11.9891 43.135L13.981 43.1304C14.3501 43.1284 14.7285 43.1106 15.0966 43.1286C15.2177 43.1345 15.3497 43.1554 15.4553 43.2187C15.6057 43.3089 15.6993 43.4855 15.736 43.6522C15.808 43.9797 15.8149 44.6507 15.6244 44.9276C15.4996 45.109 15.3473 45.1649 15.1382 45.2051C14.7368 45.2217 14.3267 45.2008 13.9242 45.1997L11.275 45.1965L9.0214 45.2011C8.61444 45.2018 8.19529 45.2219 7.78995 45.1937C7.62857 45.1825 7.44276 45.1709 7.31347 45.0659C7.14615 44.93 7.06647 44.734 7.04301 44.524C7.00543 44.1883 6.9901 43.6081 7.21592 43.3428C7.34506 43.1911 7.51477 43.1425 7.70586 43.1241Z" fill="black"/>
<path d="M9.78711 43.938C9.86897 43.9424 9.89918 43.9293 9.95875 43.9885C10.0019 44.1383 10.011 44.2317 9.96367 44.3813C9.90025 44.4207 9.78858 44.406 9.71388 44.4056C9.66142 44.4069 9.61095 44.4025 9.55874 44.398C9.53955 44.3827 9.533 44.3798 9.51914 44.3553C9.45414 44.2403 9.47602 44.086 9.5136 43.9675C9.58627 43.9234 9.70266 43.938 9.78711 43.938Z" fill="white"/>
<path d="M8.3993 43.9382L8.81108 43.9365C8.81352 44.0834 8.82484 44.2346 8.80016 44.3798L8.75898 44.4051L8.32947 44.4036C8.32698 44.2602 8.31048 44.1046 8.3446 43.9647L8.3993 43.9382Z" fill="white"/>
<path d="M12.972 43.9259L13.4446 43.9268L13.445 44.3958C13.2954 44.4206 13.1239 44.4045 12.9714 44.4037L12.972 43.9259Z" fill="white"/>
<path d="M14.0744 43.9257L14.5486 43.926L14.5475 44.4021L14.0714 44.3984L14.0744 43.9257Z" fill="white"/>
<path d="M10.6637 43.929L11.1556 43.9315L11.1564 44.4007L10.6633 44.397L10.6637 43.929Z" fill="white"/>
<path d="M11.8074 43.9205L12.3136 43.924L12.3144 44.4072L11.8072 44.4064L11.8074 43.9205Z" fill="white"/>
<path d="M6.03846 33.4962C6.6554 33.4531 7.28966 33.4823 7.90823 33.4826L11.3589 33.4847L14.6231 33.4894C15.122 33.4906 15.6396 33.4553 16.1362 33.4917C16.3299 33.5059 16.5108 33.5504 16.6769 33.6548C16.9131 33.8034 17.0809 34.0154 17.1428 34.2889C17.2249 34.651 17.2271 35.9953 17.1757 36.3664C17.1563 36.5064 17.1223 36.6469 17.0431 36.766C16.8916 36.9934 16.6372 37.1095 16.3794 37.1677C15.8122 37.2118 15.2272 37.1783 14.6576 37.1767L11.6417 37.1746L8.17777 37.1711C7.5556 37.1703 6.91855 37.1971 6.29851 37.1549C6.09752 37.1412 5.94045 37.1043 5.76384 37.0066C5.52481 36.8743 5.33611 36.6751 5.26969 36.405C5.20367 36.1363 5.2026 34.5595 5.2444 34.2741C5.26319 34.1456 5.30417 34.0233 5.37409 33.9135C5.52999 33.6685 5.76754 33.5634 6.03846 33.4962Z" fill="white"/>
<path d="M7.57279 34.2059C8.01652 34.1871 8.46781 34.2052 8.91205 34.2082L11.4348 34.2243C12.1824 34.2283 12.93 34.2274 13.6776 34.2216C14.1166 34.2175 14.5622 34.1954 15.0006 34.2108C15.1279 34.2153 15.2568 34.23 15.3764 34.2759C15.5249 34.3328 15.6425 34.4264 15.7007 34.5774C15.7962 34.8248 15.8049 35.7243 15.6972 35.9599C15.609 36.153 15.4418 36.2461 15.2499 36.3142C14.8226 36.3408 14.3825 36.3199 13.954 36.3201L11.5112 36.322L8.98228 36.3244C8.58156 36.3251 8.16952 36.3499 7.77008 36.329C7.64236 36.3223 7.50937 36.3016 7.39414 36.2434C7.24657 36.1688 7.14623 36.037 7.09525 35.8815C7.00871 35.6172 7.00242 34.7785 7.13008 34.5362C7.22494 34.3561 7.38328 34.2616 7.57279 34.2059Z" fill="black"/>
<path d="M14.1185 35.0349C14.2783 35.032 14.4388 35.0358 14.5987 35.0366L14.5985 35.4966L14.1202 35.4965L14.1185 35.0349Z" fill="white"/>
<path d="M12.9509 35.0447L13.4347 35.0404L13.4338 35.5055L12.9482 35.5036C12.9471 35.3507 12.9499 35.1976 12.9509 35.0447Z" fill="white"/>
<path d="M11.7722 35.048C11.9397 35.0405 12.1089 35.0442 12.2766 35.0434L12.2762 35.4897C12.112 35.5061 11.938 35.4954 11.7725 35.4957L11.7722 35.048Z" fill="white"/>
<path d="M10.6411 35.0406L11.1502 35.0413C11.1523 35.1958 11.166 35.3575 11.1329 35.5091L10.6408 35.5035L10.6411 35.0406Z" fill="white"/>
<path d="M9.47356 35.0442L9.99874 35.0499L9.99981 35.5009L9.47198 35.5004L9.47356 35.0442Z" fill="white"/>
<path d="M8.30243 35.0391L8.82339 35.0402L8.8238 35.4929C8.6547 35.5134 8.473 35.5036 8.30212 35.5059L8.30243 35.0391Z" fill="white"/>
<path d="M6.40497 37.9462L13.3925 37.9528L15.2851 37.954C15.6571 37.9535 16.0551 37.9268 16.4236 37.9781C16.6505 38.0097 16.8573 38.115 17.0242 38.2718C17.2322 38.4674 17.3115 38.7307 17.3235 39.0103C17.3386 39.3608 17.358 40.4788 17.2927 40.7852C17.2505 40.9829 17.1638 41.1649 17.0242 41.3124C16.7995 41.55 16.4968 41.6307 16.1802 41.6385L8.97943 41.6326C8.34477 41.6322 7.71012 41.6351 7.07549 41.6413C6.72423 41.6448 6.34485 41.6798 5.99745 41.6366C5.78778 41.6105 5.61223 41.5338 5.45917 41.385C5.29754 41.2279 5.22959 41.0458 5.22583 40.8235C5.22111 40.5398 5.2432 40.2549 5.24102 39.9707C5.23777 39.5526 5.17104 39.0554 5.24721 38.6467C5.27783 38.4826 5.35233 38.3299 5.47161 38.212C5.73085 37.9558 6.06489 37.9505 6.40497 37.9462Z" fill="white"/>
<path d="M7.65532 38.7296C8.15796 38.7078 8.66846 38.7239 9.17185 38.7231L12.0114 38.7192L13.9824 38.7154C14.3382 38.7147 14.7084 38.6935 15.0627 38.7225C15.2119 38.7348 15.3475 38.7721 15.4717 38.8581C15.4898 38.8708 15.5072 38.8844 15.5239 38.8989C15.5406 38.9133 15.5566 38.9286 15.5718 38.9446C15.587 38.9606 15.6015 38.9773 15.6151 38.9947C15.6287 39.0121 15.6414 39.0302 15.6532 39.0489C15.665 39.0675 15.6759 39.0867 15.6859 39.1065C15.6958 39.1262 15.7048 39.1464 15.7127 39.167C15.7207 39.1876 15.7277 39.2086 15.7336 39.2299C15.7395 39.2511 15.7444 39.2727 15.7482 39.2944C15.7989 39.5865 15.819 40.3601 15.6492 40.5955C15.5226 40.7708 15.3508 40.8388 15.1451 40.8719C14.6496 40.8919 14.1473 40.8768 13.6513 40.8771L10.8276 40.8785L8.91317 40.8774C8.5345 40.8792 8.14297 40.9041 7.76577 40.8768C7.62424 40.8666 7.47515 40.8421 7.35328 40.7653C7.19621 40.6664 7.09922 40.5022 7.05768 40.3242C6.97871 39.9857 6.97846 39.3112 7.17346 39.0214C7.29828 38.8359 7.44133 38.7701 7.65532 38.7296Z" fill="black"/>
<path d="M12.9764 39.5353L13.4515 39.5374L13.4456 40.0088L12.976 40.0093L12.9764 39.5353Z" fill="white"/>
<path d="M14.0922 39.5354L14.5759 39.5377C14.578 39.6932 14.5742 39.849 14.5724 40.0045L14.1031 40.0122C14.0901 39.8547 14.094 39.6936 14.0922 39.5354Z" fill="white"/>
<path d="M10.6686 39.5298C10.8389 39.5256 11.0105 39.5321 11.1809 39.5345L11.1804 39.9916L10.6703 39.9901L10.6686 39.5298Z" fill="white"/>
<path d="M11.8083 39.5325L12.3204 39.5337L12.3201 39.997L11.8085 39.9972L11.8083 39.5325Z" fill="white"/>
<path d="M8.30969 39.5316L8.83081 39.5312L8.82852 39.9903L8.3104 39.9896L8.30969 39.5316Z" fill="white"/>
<path d="M9.48712 39.5285C9.65907 39.5256 9.83162 39.529 10.0037 39.5294L10.0046 39.9921L9.4889 39.995L9.48712 39.5285Z" fill="white"/>
<path d="M39.1709 33.7293C39.297 33.7177 39.4235 33.7168 39.5501 33.7173C39.5912 33.7174 39.6322 33.718 39.6732 33.7192C39.7143 33.7204 39.7553 33.7221 39.7963 33.7242C39.8373 33.7264 39.8783 33.729 39.9192 33.7322C39.9601 33.7354 40.001 33.7391 40.0419 33.7432C40.0827 33.7474 40.1235 33.7521 40.1643 33.7572C40.205 33.7624 40.2457 33.7681 40.2863 33.7742C40.3269 33.7804 40.3674 33.7871 40.4078 33.7943C40.4482 33.8014 40.4885 33.8091 40.5288 33.8172C40.569 33.8254 40.6092 33.834 40.6492 33.8432C40.6892 33.8523 40.7291 33.8619 40.7689 33.8721C40.8087 33.8822 40.8484 33.8928 40.8879 33.9039C40.9275 33.915 40.9669 33.9266 41.0061 33.9386C41.0453 33.9507 41.0844 33.9632 41.1234 33.9763C41.1623 33.9893 41.2011 34.0027 41.2397 34.0167C41.2783 34.0307 41.3168 34.0451 41.355 34.06C41.3933 34.075 41.4313 34.0904 41.4692 34.1062C41.5071 34.122 41.5447 34.1384 41.5822 34.1552C41.6197 34.1719 41.657 34.1891 41.694 34.2069C41.7311 34.2245 41.7679 34.2427 41.8045 34.2612C41.8411 34.2799 41.8775 34.2989 41.9136 34.3184C41.9498 34.3379 41.9857 34.3578 42.0213 34.3781C42.057 34.3985 42.0924 34.4193 42.1275 34.4405C42.1627 34.4618 42.1976 34.4834 42.2322 34.5055C42.2667 34.5277 42.3011 34.5502 42.3351 34.5731C42.3692 34.596 42.403 34.6193 42.4364 34.6431C42.47 34.6669 42.5032 34.6911 42.536 34.7156C42.5689 34.7402 42.6015 34.7652 42.6338 34.7906C42.6661 34.8159 42.698 34.8417 42.7297 34.8679C42.7613 34.894 42.7926 34.9206 42.8237 34.9475C42.8546 34.9744 42.8853 35.0018 42.9156 35.0295C42.9459 35.0571 42.9759 35.0852 43.0055 35.1136C43.0352 35.142 43.0645 35.1708 43.0934 35.1999C43.1319 35.2395 43.1698 35.2797 43.207 35.3205C43.2442 35.3614 43.2807 35.4029 43.3165 35.4449C43.3523 35.4869 43.3874 35.5296 43.4218 35.5728C43.4562 35.616 43.4899 35.6598 43.5228 35.7041C43.5557 35.7485 43.5879 35.7934 43.6193 35.8388C43.6508 35.8842 43.6815 35.9301 43.7114 35.9766C43.7413 36.023 43.7704 36.0699 43.7988 36.1173C43.8271 36.1648 43.8546 36.2126 43.8814 36.261C43.9082 36.3093 43.9341 36.3581 43.9592 36.4073C43.9843 36.4564 44.0086 36.506 44.0321 36.556C44.0556 36.606 44.0782 36.6564 44.1 36.7072C44.1218 36.7579 44.1428 36.809 44.1629 36.8605C44.183 36.9119 44.2022 36.9637 44.2205 37.0158C44.2389 37.0679 44.2564 37.1203 44.273 37.1729C44.2897 37.2256 44.3054 37.2785 44.3203 37.3317C44.3351 37.3849 44.3491 37.4384 44.3622 37.492C44.6021 38.4798 44.5106 39.8406 44.5113 40.8774L44.507 45.1811C45.002 45.4444 46.6122 46.1816 46.9438 46.4833C47.0592 46.5883 47.1202 46.7299 47.1196 46.8856C47.1188 47.0822 47.0293 47.2755 46.8868 47.4097C46.7995 47.4918 46.685 47.5592 46.5655 47.578C46.3595 47.6102 46.1308 47.5926 45.922 47.5928L44.7905 47.5931L40.7139 47.584L32.7532 47.5816L32.7507 45.8241C33.3952 45.483 34.0553 45.1675 34.7094 44.8452C34.6208 43.6621 34.6645 42.4443 34.662 41.2574L34.6592 39.3857C34.6585 38.7111 34.6315 38.0378 34.7833 37.3751C34.9446 36.6706 35.2921 36.0205 35.756 35.4679C36.6127 34.4474 37.8508 33.8419 39.1709 33.7293Z" fill="white"/>
<path d="M39.4751 35.3033C40.3395 35.283 41.1915 35.6311 41.835 36.1993C42.5228 36.8063 42.9078 37.6124 42.9581 38.5268C42.9933 39.1664 42.967 39.8208 42.9686 40.4616C42.9705 41.1872 43.0495 42.2891 42.877 42.9736C42.749 43.4818 42.4774 43.9703 42.1258 44.3576C41.4507 45.1012 40.5464 45.4821 39.5544 45.5244C39.5026 45.5248 39.4508 45.524 39.3991 45.522C39.3473 45.52 39.2956 45.5169 39.244 45.5126C39.1924 45.5082 39.1409 45.5027 39.0896 45.496C39.0382 45.4893 38.987 45.4815 38.936 45.4725C38.885 45.4634 38.8342 45.4533 38.7837 45.4419C38.7332 45.4306 38.6829 45.4181 38.6329 45.4045C38.583 45.3908 38.5333 45.3761 38.484 45.3602C38.4347 45.3442 38.3858 45.3272 38.3373 45.3091C38.2888 45.291 38.2407 45.2717 38.1931 45.2514C38.1454 45.2311 38.0983 45.2097 38.0516 45.1872C38.0049 45.1647 37.9588 45.1412 37.9132 45.1166C37.8676 45.092 37.8227 45.0664 37.7782 45.0397C37.7338 45.0131 37.69 44.9854 37.6469 44.9568C37.6037 44.9282 37.5612 44.8985 37.5195 44.8679C37.4776 44.8374 37.4366 44.8058 37.3962 44.7734C37.3558 44.7409 37.3162 44.7076 37.2774 44.6733C37.2338 44.6361 37.1911 44.5977 37.1494 44.5584C37.1077 44.519 37.067 44.4786 37.0273 44.4372C36.9876 44.3958 36.949 44.3534 36.9114 44.3101C36.8739 44.2667 36.8374 44.2225 36.802 44.1773C36.7667 44.1321 36.7325 44.0861 36.6994 44.0392C36.6663 43.9924 36.6344 43.9447 36.6038 43.8962C36.5731 43.8478 36.5436 43.7986 36.5154 43.7487C36.4872 43.6987 36.4602 43.6481 36.4345 43.5969C36.4088 43.5456 36.3844 43.4937 36.3613 43.4412C36.3382 43.3887 36.3164 43.3357 36.2959 43.2821C36.2754 43.2285 36.2563 43.1744 36.2385 43.1199C36.2208 43.0654 36.2044 43.0105 36.1893 42.9551C36.1743 42.8997 36.1607 42.844 36.1485 42.788C36.1362 42.732 36.1254 42.6757 36.116 42.6191C36.1065 42.5625 36.0985 42.5057 36.0919 42.4488C36.0853 42.3918 36.0802 42.3347 36.0764 42.2774C36.0342 41.6414 36.0705 40.9854 36.0693 40.3465C36.0665 38.8869 35.8862 37.6635 36.9311 36.4829C37.6063 35.7199 38.4698 35.3618 39.4751 35.3033Z" fill="black"/>
<path d="M39.0158 36.3391L39.0406 36.3619C39.073 36.5597 39.0516 36.7842 39.05 36.985L39.0373 38.1842C38.6586 38.4362 38.2494 38.6404 37.8694 38.8919C37.8528 39.1226 37.7967 39.4803 37.9377 39.6766C37.9846 39.742 38.0489 39.7833 38.1284 39.7966C38.4249 39.7304 39.752 38.9612 39.9842 38.7319C40.0923 38.6252 40.0416 36.6217 40.042 36.3459C40.3969 36.4437 40.7365 36.5876 41.0326 36.8091C41.6122 37.2428 41.8949 37.8493 41.9952 38.5519C42.0163 39.0475 41.9229 39.5134 41.6851 39.9517C41.3766 40.52 40.8197 40.942 40.2013 41.1202C39.5578 41.3056 38.8794 41.213 38.2987 40.8846C37.7367 40.5668 37.2844 40.015 37.1145 39.3892C36.943 38.7571 37.0489 38.1031 37.3735 37.5386C37.7389 36.9033 38.3195 36.5266 39.0158 36.3391Z" fill="white"/>
<path d="M20.5437 32.9829C22.8158 32.9769 25.0879 32.984 27.36 33.0044C28.7653 33.0095 30.1744 32.9899 31.5791 33.0207L31.5779 45.6254L20.5454 45.6271L20.5437 32.9829Z" fill="white"/>
<path d="M26.963 40.5482C27.2671 40.5481 29.433 40.5061 29.5574 40.5538C29.5751 40.5606 29.5876 40.577 29.6028 40.5885C29.6269 40.6592 29.6097 40.7005 29.5875 40.7679C29.2475 40.7851 27.1389 40.8142 26.9587 40.7367C26.9306 40.6599 26.9467 40.627 26.963 40.5482Z" fill="black"/>
<path d="M26.0718 40.6315C26.1468 40.6612 26.1712 40.6647 26.221 40.7305C26.2848 41.2881 26.2383 41.9557 26.2393 42.5239C26.2404 43.1229 26.2844 43.8442 26.2347 44.4308C26.2301 44.4855 26.2163 44.5252 26.1931 44.5743C26.1527 44.5737 26.1285 44.5719 26.0905 44.5556C26.0517 44.539 26.0412 44.5203 26.0295 44.4784C25.9961 44.3592 25.9981 41.1175 26.0268 40.7827C26.0319 40.7234 26.0455 40.6842 26.0718 40.6315Z" fill="black"/>
<path d="M26.1218 35.6322C26.1921 35.6566 26.2172 35.6539 26.2506 35.7241C26.3006 35.8295 26.2749 39.2953 26.2569 39.6484C26.2534 39.7168 26.2427 39.766 26.2152 39.8283C26.1775 39.8314 26.1509 39.8277 26.114 39.8218C26.08 39.7799 26.0634 39.7631 26.0554 39.7082C26.034 39.5605 26.0503 39.3894 26.0501 39.2396L26.0495 38.1157L26.0463 36.5767C26.0458 36.3214 26.0268 36.0484 26.0527 35.7949C26.0597 35.7263 26.0824 35.6877 26.1218 35.6322Z" fill="black"/>
<path d="M24.7659 40.5361L24.7934 40.5357C24.8847 40.5337 24.9822 40.5191 25.0613 40.5736C25.1137 40.6097 25.1388 40.6359 25.1499 40.6979C25.1011 40.7361 25.0706 40.7456 25.0108 40.7533C24.6504 40.8003 24.2605 40.7716 23.8974 40.7712L21.9096 40.7734C21.8942 41.9778 21.9099 43.1845 21.9104 44.3891C21.9067 44.4403 21.9022 44.4482 21.8763 44.4897C21.8148 44.5175 21.8088 44.5297 21.7451 44.5111C21.6923 44.4426 21.6887 44.3586 21.6873 44.275C21.676 43.5902 21.6905 42.9033 21.6884 42.2183C21.687 41.7589 21.6617 41.2933 21.6785 40.8346C21.6805 40.7782 21.6821 40.627 21.7186 40.5886L21.7698 40.6035L21.7447 40.5739C22.0924 40.4982 22.5109 40.539 22.8662 40.5386L24.7659 40.5361Z" fill="black"/>
<path d="M21.6948 35.5821C22.1609 35.5829 25.0998 35.5415 25.2669 35.601C25.3193 35.6197 25.3211 35.6307 25.3437 35.678L25.3206 35.7362C25.2916 35.7565 25.2667 35.7827 25.2311 35.7874C24.8928 35.8314 24.5019 35.7938 24.1583 35.794L21.9133 35.7959L21.9123 36.8037L21.9113 39.5879C21.9623 39.5864 22.0133 39.5854 22.0643 39.585C22.1666 39.5844 22.2717 39.5815 22.3472 39.6567L22.3262 39.701C22.2535 39.7577 22.1825 39.7844 22.092 39.8026C21.9706 39.8272 21.8471 39.8363 21.7403 39.7656C21.7007 39.7104 21.6917 39.6632 21.6871 39.597C21.6757 39.4347 21.6908 39.2675 21.6893 39.1042L21.6818 37.8571C21.6793 37.1065 21.6403 36.3304 21.6948 35.5821Z" fill="black"/>
<path d="M24.6726 41.5061C24.8327 41.6524 24.9738 41.8208 25.1183 41.9823C24.7393 42.3525 24.3643 42.7268 23.9933 43.105C23.7634 43.3404 23.5414 43.601 23.2861 43.8078C23.1315 43.6686 22.9916 43.5072 22.8481 43.3565C22.6836 43.1962 22.5231 43.032 22.3667 42.8639C22.5193 42.7153 22.6714 42.5678 22.8337 42.4295C22.9799 42.5839 23.1493 42.7212 23.3084 42.8625C23.7963 42.4493 24.1982 41.936 24.6726 41.5061Z" fill="black"/>
<path d="M24.7217 36.7047C24.8979 36.8324 25.0524 37.0371 25.1978 37.1997C24.5913 37.8486 23.9356 38.4595 23.3137 39.0947L22.8613 38.6349C22.7057 38.4603 22.5387 38.294 22.3771 38.1247C22.5348 37.9569 22.6923 37.7966 22.8655 37.6444C23.0124 37.8159 23.1643 37.9729 23.3328 38.1235C23.8016 37.6591 24.2888 37.2026 24.7217 36.7047Z" fill="black"/>
<path d="M26.9903 35.5829C27.6681 35.5748 28.3462 35.5795 29.024 35.5792C29.4944 35.579 29.9678 35.5674 30.4378 35.5881C30.4813 35.9291 30.4815 39.6935 30.4318 39.8509C30.2628 39.9373 27.5641 39.8866 27.1108 39.8867C27.1066 39.8865 27.1022 39.8871 27.0981 39.8863C27.033 39.872 27.0266 39.862 26.9871 39.811C26.9875 39.7443 26.9864 39.7439 27.0286 39.6925C27.2016 39.6183 29.8283 39.6727 30.245 39.6701L30.2416 35.8012L28.1227 35.8038C27.7844 35.805 27.4131 35.8365 27.0774 35.8035C27.0084 35.7967 26.9884 35.7862 26.9442 35.7338C26.9442 35.6539 26.9448 35.6483 26.9903 35.5829Z" fill="black"/>
<path d="M26.9439 41.4881C27.3402 41.4829 29.2517 41.4365 29.4821 41.5338C29.5209 41.5502 29.5112 41.5403 29.5261 41.5813C29.5737 41.7125 29.5733 43.7734 29.5513 44.0044C29.5455 44.0657 29.5331 44.1055 29.5067 44.1603C29.1837 44.2254 27.3212 44.2059 26.9202 44.1735C26.8958 43.7929 26.8661 41.7369 26.9439 41.4881Z" fill="black"/>
<path d="M26.989 36.4203C27.4292 36.4143 29.2643 36.3768 29.5424 36.4913C29.5971 36.7349 29.594 38.6138 29.5668 38.9288C29.5601 39.0057 29.5509 39.0594 29.5095 39.1247C29.0847 39.1248 27.2155 39.1863 26.9548 39.0524C26.9256 38.9784 26.9194 38.9098 26.9146 38.8305C26.8918 38.4504 26.9224 38.057 26.9224 37.6754C26.9225 37.3145 26.8782 36.9258 26.9226 36.5681C26.9304 36.5055 26.9466 36.4686 26.989 36.4203Z" fill="black"/>
</g>
<defs>
<clipPath id="clip0_225_461">
<rect width="52" height="52" rx="10" fill="white"/>
</clipPath>
</defs>
</svg>
