<svg width="52" height="51" viewBox="0 0 52 51" fill="none" xmlns="http://www.w3.org/2000/svg">
<g clip-path="url(#clip0_220_223)">
<path d="M0 0H52V50.2069H0V0Z" fill="white"/>
<path d="M24.9382 3.07489C25.3501 3.05088 25.7694 3.06002 26.1823 3.06091C26.3508 3.06261 26.5193 3.06612 26.6877 3.07144C26.8561 3.07675 27.0245 3.08387 27.1928 3.0928C27.361 3.10172 27.5292 3.11245 27.6972 3.12498C27.8653 3.13751 28.0331 3.15185 28.2008 3.16798C28.3685 3.18411 28.536 3.20204 28.7033 3.22176C28.8706 3.24148 29.0376 3.263 29.2044 3.2863C29.3712 3.30961 29.5377 3.3347 29.7039 3.36157C29.8701 3.38845 30.036 3.4171 30.2015 3.44754C30.3671 3.47797 30.5323 3.51018 30.6971 3.54415C30.8619 3.57813 31.0263 3.61387 31.1903 3.65137C31.3543 3.68887 31.5178 3.72813 31.6809 3.76914C31.844 3.81015 32.0066 3.8529 32.1687 3.8974C32.3308 3.9419 32.4924 3.98812 32.6534 4.03609C32.8144 4.08405 32.9749 4.13373 33.1348 4.18513C33.2947 4.23654 33.454 4.28965 33.6127 4.34447C33.7713 4.39929 33.9294 4.4558 34.0868 4.51401C34.2441 4.57221 34.4008 4.6321 34.5568 4.69367C34.7128 4.75524 34.8681 4.81847 35.0226 4.88337C35.1771 4.94828 35.3309 5.01482 35.4839 5.08301C35.6369 5.15119 35.7891 5.22103 35.9406 5.29251C36.092 5.36397 36.2425 5.43704 36.3922 5.51173C36.542 5.58642 36.6908 5.66271 36.8388 5.7406C36.9867 5.81846 37.1338 5.89791 37.2799 5.97894C37.4261 6.06 37.5713 6.1426 37.7155 6.22673C37.8597 6.31087 38.003 6.39656 38.1453 6.4838C38.2875 6.57101 38.4288 6.65974 38.569 6.74998C38.7092 6.84023 38.8484 6.93198 38.9865 7.02524C39.1247 7.11846 39.2617 7.21316 39.3976 7.30932C39.5336 7.40552 39.6684 7.50315 39.8021 7.60223C39.9358 7.70127 40.0683 7.80175 40.1997 7.90366C40.3311 8.00558 40.4612 8.10889 40.5903 8.21358C40.7192 8.31828 40.847 8.42435 40.9736 8.53179C41.1123 8.6491 41.2495 8.76802 41.3852 8.88853C41.521 9.00902 41.6552 9.13107 41.7879 9.25469C41.9206 9.37831 42.0517 9.50345 42.1812 9.63011C42.3108 9.75678 42.4388 9.88491 42.5652 10.0145C42.6916 10.1441 42.8163 10.2752 42.9394 10.4077C43.0626 10.5403 43.184 10.6742 43.3038 10.8095C43.4236 10.9449 43.5417 11.0816 43.6581 11.2197C43.7744 11.3578 43.8891 11.4972 44.002 11.6379C44.1149 11.7787 44.226 11.9207 44.3354 12.064C44.4448 12.2074 44.5524 12.3519 44.6581 12.4977C44.7639 12.6436 44.8679 12.7906 44.97 12.9388C45.0721 13.0871 45.1724 13.2364 45.2708 13.387C45.3692 13.5376 45.4657 13.6892 45.5603 13.8421C45.6549 13.9948 45.7476 14.1487 45.8384 14.3037C45.9292 14.4586 46.0181 14.6146 46.105 14.7716C46.1919 14.9286 46.2768 15.0866 46.3598 15.2456C46.4428 15.4046 46.5238 15.5645 46.6028 15.7253C46.6817 15.8862 46.7587 16.048 46.8337 16.2106C46.9087 16.3733 46.9816 16.5367 47.0525 16.7011C47.1234 16.8654 47.1922 17.0306 47.259 17.1965C47.3258 17.3625 47.3905 17.5292 47.4531 17.6966C47.5158 17.864 47.5763 18.0322 47.6348 18.201C47.6932 18.3699 47.7495 18.5394 47.8038 18.7095C47.858 18.8797 47.9101 19.0504 47.9601 19.2218C48.0101 19.3932 48.0579 19.5651 48.1036 19.7375C48.1493 19.91 48.1929 20.083 48.2343 20.2565C48.2757 20.43 48.3149 20.6039 48.352 20.7783C48.389 20.9527 48.4239 21.1275 48.4566 21.3027C48.4893 21.4779 48.5198 21.6534 48.5482 21.8294C48.5765 22.0053 48.6027 22.1815 48.6266 22.358C48.6506 22.5345 48.6724 22.7113 48.6919 22.8883C48.7115 23.0653 48.7288 23.2426 48.7439 23.42C48.7584 23.6002 48.7705 23.7806 48.7803 23.961C48.7901 24.1415 48.7976 24.3221 48.8029 24.5028C48.8081 24.6834 48.811 24.8641 48.8116 25.0449C48.8122 25.2256 48.8105 25.4063 48.8065 25.587C48.8025 25.7677 48.7962 25.9483 48.7876 26.1289C48.779 26.3094 48.7681 26.4898 48.7549 26.6701C48.7417 26.8504 48.7262 27.0305 48.7083 27.2104C48.6906 27.3903 48.6705 27.57 48.6481 27.7495C48.6257 27.9289 48.6011 28.1081 48.5741 28.2869C48.5471 28.4658 48.5179 28.6443 48.4864 28.8224C48.4549 29.0006 48.4212 29.1784 48.3851 29.3557C48.3491 29.533 48.3108 29.7099 48.2703 29.8864C48.2297 30.0629 48.187 30.2388 48.1419 30.4142C48.0969 30.5897 48.0496 30.7645 48.0002 30.9388C47.9507 31.1131 47.899 31.2868 47.8451 31.4599C47.7911 31.633 47.735 31.8054 47.6767 31.9771C47.6184 32.1489 47.5579 32.3199 47.4952 32.4902C47.4326 32.6605 47.3677 32.8301 47.3007 32.9988C47.2337 33.1676 47.1646 33.3355 47.0933 33.5027C47.022 33.6698 46.9486 33.836 46.8731 34.0014C46.7976 34.1668 46.72 34.3313 46.6403 34.4948C46.5606 34.6583 46.4788 34.8209 46.395 34.9824C46.3111 35.144 46.2252 35.3046 46.1372 35.4642C46.0493 35.6237 45.9593 35.7822 45.8673 35.9396C45.7753 36.097 45.6813 36.2533 45.5854 36.4085C45.4894 36.5636 45.3914 36.7176 45.2915 36.8705C45.1916 37.0233 45.0898 37.175 44.986 37.3254C44.8823 37.4758 44.7766 37.625 44.6691 37.7729C44.5615 37.9208 44.452 38.0674 44.3407 38.2127C44.2294 38.3581 44.1162 38.502 44.0013 38.6446C43.8863 38.7873 43.7695 38.9285 43.6509 39.0684C43.5324 39.2082 43.412 39.3466 43.2899 39.4836C43.1881 39.5974 43.0851 39.7102 42.9809 39.822C42.8767 39.9338 42.7714 40.0446 42.6649 40.1543C42.5584 40.2641 42.4508 40.3727 42.342 40.4804C42.2332 40.588 42.1233 40.6946 42.0123 40.8001C41.9013 40.9056 41.7892 41.01 41.676 41.1133C41.5628 41.2166 41.4485 41.3188 41.3332 41.4199C41.2178 41.5209 41.1015 41.6208 40.984 41.7196C40.8666 41.8184 40.7481 41.9161 40.6286 42.0125C40.5092 42.109 40.3887 42.2043 40.2672 42.2985C40.1457 42.3926 40.0233 42.4855 39.8999 42.5773C39.7765 42.669 39.6521 42.7595 39.5267 42.8488C39.4014 42.9381 39.2752 43.0262 39.148 43.113C39.0208 43.1998 38.8928 43.2854 38.7638 43.3697C38.6348 43.4541 38.505 43.5371 38.3743 43.619C38.2436 43.7007 38.112 43.7812 37.9796 43.8605C37.8473 43.9397 37.7141 44.0176 37.58 44.0943C37.446 44.1709 37.3112 44.2462 37.1756 44.3201C37.04 44.3941 36.9036 44.4668 36.7665 44.5381C36.6294 44.6094 36.4915 44.6794 36.3529 44.7481C36.2143 44.8167 36.075 44.8839 35.935 44.9499C35.795 45.0158 35.6543 45.0803 35.513 45.1435C35.3716 45.2066 35.2296 45.2684 35.0869 45.3288C34.9443 45.3892 34.8011 45.4481 34.6572 45.5057C34.5133 45.5633 34.3688 45.6195 34.2237 45.6743C34.0786 45.729 33.933 45.7823 33.7868 45.8343C33.6407 45.8862 33.4939 45.9367 33.3467 45.9857C33.1995 46.0348 33.0517 46.0824 32.9035 46.1285C32.7552 46.1747 32.6065 46.2194 32.4574 46.2627C32.3082 46.3059 32.1586 46.3477 32.0085 46.388C31.8585 46.4284 31.708 46.4672 31.5572 46.5046C31.4063 46.542 31.2551 46.5779 31.1035 46.6124C30.9518 46.6468 30.7998 46.6798 30.6475 46.7112C29.45 46.9598 28.2424 47.0986 27.0219 47.1848C26.8383 47.1916 26.6547 47.1961 26.471 47.1986C26.2873 47.2011 26.1037 47.2014 25.92 47.1996C25.7363 47.1978 25.5527 47.1938 25.3691 47.1878C25.1855 47.1817 25.0021 47.1735 24.8187 47.1632C24.6353 47.1528 24.4521 47.1403 24.269 47.1257C24.0859 47.1111 23.9031 47.0944 23.7204 47.0756C23.5378 47.0567 23.3554 47.0358 23.1733 47.0127C22.9911 46.9896 22.8093 46.9644 22.6278 46.9371C22.4463 46.9098 22.2652 46.8804 22.0844 46.8489C21.9037 46.8174 21.7233 46.7838 21.5434 46.7481C21.3634 46.7124 21.184 46.6746 21.005 46.6347C20.826 46.5949 20.6476 46.5529 20.4696 46.5089C20.2917 46.4649 20.1143 46.4188 19.9375 46.3707C19.7607 46.3225 19.5846 46.2723 19.409 46.2201C19.2335 46.1679 19.0586 46.1136 18.8844 46.0573C18.7102 46.001 18.5368 45.9427 18.364 45.8824C18.1913 45.8221 18.0193 45.7598 17.8481 45.6954C17.677 45.6311 17.5066 45.5648 17.3371 45.4966C17.1676 45.4283 16.9989 45.358 16.8311 45.2858C16.6633 45.2137 16.4965 45.1395 16.3305 45.0634C16.1646 44.9874 15.9997 44.9094 15.8357 44.8295C15.6717 44.7496 15.5087 44.6678 15.3467 44.5841C15.1848 44.5004 15.0239 44.4148 14.8641 44.3274C14.7042 44.24 14.5455 44.1507 14.3879 44.0596C14.2304 43.9685 14.0739 43.8756 13.9186 43.7808C13.7634 43.6861 13.6093 43.5896 13.4564 43.4912C13.3035 43.3929 13.1519 43.2928 13.0015 43.1909C12.8511 43.0891 12.7021 42.9855 12.5543 42.8802C12.4065 42.7749 12.26 42.6679 12.1149 42.5592C11.9697 42.4505 11.826 42.3401 11.6836 42.228C11.5412 42.1159 11.4003 42.0022 11.2607 41.8869C11.1212 41.7716 10.9831 41.6547 10.8465 41.5361C10.7071 41.4161 10.5693 41.2945 10.433 41.1712C10.2967 41.048 10.162 40.9231 10.0289 40.7967C9.89576 40.6703 9.76426 40.5423 9.63436 40.4128C9.50446 40.2833 9.3762 40.1523 9.24959 40.0197C9.12301 39.8872 8.9981 39.7532 8.87488 39.6178C8.75168 39.4823 8.63019 39.3454 8.51042 39.2071C8.39064 39.0688 8.27264 38.9291 8.15642 38.788C8.0402 38.6469 7.92576 38.5044 7.81309 38.3606C7.70046 38.2168 7.58965 38.0717 7.48068 37.9253C7.3717 37.7789 7.26459 37.6313 7.15933 37.4824C7.05408 37.3335 6.95071 37.1833 6.84921 37.032C6.74775 36.8806 6.64822 36.7281 6.55062 36.5744C6.45298 36.4207 6.35731 36.2659 6.2636 36.11C6.16989 35.954 6.07817 35.797 5.98842 35.6389C5.89867 35.4808 5.81092 35.3217 5.72517 35.1615C5.63945 35.0014 5.55575 34.8402 5.47406 34.6781C5.3924 34.516 5.31279 34.3529 5.23523 34.1889C5.15767 34.0249 5.0822 33.86 5.00881 33.6942C4.93542 33.5284 4.86412 33.3618 4.79493 33.1944C4.72574 33.0269 4.65867 32.8587 4.59373 32.6896C4.52878 32.5206 4.46598 32.3508 4.40531 32.1803C4.34465 32.0098 4.28615 31.8386 4.2298 31.6667C4.17346 31.4949 4.1193 31.3223 4.06731 31.1492C4.01532 30.976 3.96552 30.8023 3.91791 30.6279C3.87031 30.4536 3.82491 30.2787 3.78171 30.1033C3.73852 29.9279 3.69754 29.7521 3.65879 29.5757C3.62003 29.3993 3.58351 29.2226 3.54921 29.0453C3.51492 28.8681 3.48286 28.6905 3.45305 28.5125C3.42323 28.3345 3.39567 28.1562 3.37036 27.9776C3.34504 27.799 3.32198 27.6201 3.30118 27.4409C3.28038 27.2618 3.26184 27.0824 3.24556 26.9028C3.22929 26.7232 3.21528 26.5434 3.20354 26.3635C3.19254 26.1849 3.18381 26.0063 3.17736 25.8276C3.1709 25.6488 3.16673 25.47 3.16482 25.2912C3.16292 25.1124 3.1633 24.9335 3.16596 24.7546C3.16861 24.5758 3.17354 24.3971 3.18074 24.2184C3.18795 24.0396 3.19743 23.861 3.20918 23.6826C3.22094 23.5041 3.23496 23.3257 3.25125 23.1475C3.26755 22.9694 3.28611 22.7915 3.30693 22.6137C3.32776 22.436 3.35085 22.2586 3.37619 22.0814C3.40154 21.9043 3.42913 21.7274 3.45898 21.5509C3.48882 21.3744 3.52092 21.1982 3.55525 21.0225C3.58958 20.8467 3.62615 20.6714 3.66494 20.4965C3.70374 20.3216 3.74476 20.1472 3.788 19.9733C3.83123 19.7994 3.87667 19.6261 3.92433 19.4532C3.97198 19.2804 4.02183 19.1082 4.07386 18.9365C4.1259 18.7648 4.18012 18.5938 4.23651 18.4235C4.29291 18.2531 4.35146 18.0835 4.41217 17.9145C4.47289 17.7455 4.53574 17.5773 4.60074 17.4098C4.66574 17.2423 4.73286 17.0757 4.8021 16.9098C4.87134 16.7439 4.94268 16.5788 5.01612 16.4146C5.08958 16.2504 5.1651 16.0871 5.2427 15.9248C5.32029 15.7624 5.39995 15.6009 5.48167 15.4404C5.5634 15.2799 5.64713 15.1203 5.73289 14.9619C5.81867 14.8033 5.90646 14.6458 5.99624 14.4894C6.08602 14.333 6.17778 14.1776 6.27152 14.0234C6.36527 13.8691 6.46096 13.716 6.55859 13.564C6.65626 13.412 6.75582 13.2612 6.85729 13.1116C6.95878 12.9619 7.06215 12.8135 7.16741 12.6664C7.27266 12.5192 7.37977 12.3733 7.48875 12.2287C7.59773 12.0841 7.70853 11.9407 7.82116 11.7987C7.9338 11.6567 8.04821 11.5161 8.1644 11.3768C8.28062 11.2375 8.39858 11.0997 8.51829 10.9632C8.638 10.8267 8.75943 10.6917 8.88259 10.5581C9.00931 10.4206 9.13777 10.2846 9.26797 10.1502C9.39814 10.0158 9.53002 9.88291 9.66361 9.75161C9.79716 9.62034 9.93239 9.49067 10.0693 9.36261C10.2062 9.23451 10.3447 9.10807 10.4847 8.98331C10.6249 8.85851 10.7665 8.7354 10.9098 8.61396C11.053 8.49257 11.1978 8.37288 11.3441 8.25492C11.4904 8.13692 11.6382 8.02068 11.7874 7.90621C11.9366 7.79174 12.0873 7.67907 12.2395 7.5682C12.3916 7.45733 12.5451 7.34827 12.7 7.24102C12.8549 7.13378 13.0112 7.02839 13.1688 6.92487C13.3264 6.82136 13.4853 6.71973 13.6455 6.62001C13.8057 6.52025 13.9671 6.42241 14.1298 6.32651C14.2924 6.23061 14.4563 6.13665 14.6214 6.04464C14.7865 5.95262 14.9527 5.86257 15.1201 5.77448C15.2874 5.68642 15.4559 5.60037 15.6255 5.51634C15.7951 5.43227 15.9657 5.35022 16.1373 5.2702C16.309 5.19022 16.4816 5.11226 16.6553 5.03633C16.8289 4.96043 17.0035 4.88661 17.179 4.81487C17.3546 4.74311 17.531 4.67346 17.7083 4.60589C17.8856 4.53833 18.0637 4.47289 18.2427 4.40956C18.4216 4.34624 18.6014 4.28504 18.7819 4.22599C18.9625 4.16693 19.1437 4.11003 19.3257 4.05529C19.5077 4.00054 19.6903 3.94796 19.8737 3.89756C20.057 3.84715 20.2409 3.79893 20.4255 3.75289C20.61 3.70686 20.7951 3.66302 20.9808 3.62139C21.1665 3.57975 21.3526 3.54033 21.5393 3.50312C21.726 3.4659 21.9131 3.43092 22.1007 3.39815C22.2883 3.36539 22.4762 3.33486 22.6645 3.30656C22.8529 3.27826 23.0416 3.25221 23.2306 3.2284C23.4196 3.20458 23.6089 3.18302 23.7984 3.1637C23.988 3.14439 24.1777 3.12733 24.3677 3.11252C24.5577 3.09772 24.7479 3.08518 24.9382 3.07489Z" fill="black"/>
<path d="M11.8341 25.2501C12.1564 25.4555 12.4601 25.6643 12.7233 25.9398C13.5479 26.8028 13.7945 27.7946 13.7412 28.941C13.4423 29.3615 12.9275 29.7208 12.4637 29.9519C12.4406 29.2536 12.4644 28.5474 12.464 27.8483C12.4639 27.6293 12.4933 27.3852 12.4696 27.169C12.4625 27.1039 12.4463 27.063 12.403 27.0111C12.3403 26.9901 12.3273 26.9941 12.2615 27.0072C12.204 27.0626 12.1922 27.0958 12.1826 27.1733C12.1435 27.4878 12.1763 27.8291 12.1772 28.1471C12.1811 28.7856 12.1796 29.424 12.1727 30.0625C10.65 30.6338 9.33663 30.6352 7.81177 30.0796C7.78212 30.0704 7.76023 30.0528 7.73474 30.0359C7.68015 29.879 7.71671 29.6403 7.71747 29.4719L7.72341 27.7797C7.72372 27.5782 7.7583 27.3034 7.71641 27.1097C7.70117 27.0392 7.67959 27.0279 7.6248 26.9853C7.55426 26.9735 7.55975 26.9723 7.5011 27.0119C7.46331 27.0798 7.4428 27.1358 7.43427 27.213C7.39679 27.5525 7.43472 27.9277 7.43929 28.2702C7.44661 28.8204 7.43706 29.3703 7.44701 29.9205C6.95311 29.693 6.51716 29.3652 6.07917 29.0529C6.02356 28.3797 6.18799 27.6922 6.47318 27.0803C6.79986 26.3795 7.43097 25.5603 8.20172 25.2767C8.70578 25.6578 9.21577 25.8803 9.86385 25.909C10.5814 25.9408 11.2981 25.7165 11.8341 25.2501Z" fill="white"/>
<path d="M40.1962 25.5155C40.2412 25.5268 40.2464 25.5383 40.2784 25.5683C40.4001 25.6826 40.5309 25.8179 40.6735 25.9063C41.099 26.17 41.6546 26.3098 42.1575 26.3003C42.9029 26.2862 43.5028 26.0294 44.0174 25.5138C44.1623 25.5828 44.2968 25.6669 44.4262 25.7603C45.4631 26.5089 45.9608 27.5776 46.1447 28.786C45.7155 29.3495 45.0834 29.7534 44.4386 30.0541C44.3805 30.0795 44.322 30.104 44.263 30.1276C44.204 30.1511 44.1447 30.1737 44.085 30.1953C44.0252 30.2169 43.9651 30.2375 43.9047 30.2572C43.8442 30.2768 43.7834 30.2954 43.7223 30.3131C43.6611 30.3307 43.5997 30.3474 43.538 30.363C43.4763 30.3786 43.4143 30.3932 43.3521 30.4069C43.2899 30.4205 43.2275 30.433 43.1648 30.4446C43.1022 30.4562 43.0393 30.4667 42.9763 30.4762C42.9132 30.4857 42.85 30.4942 42.7867 30.5016C42.7234 30.509 42.66 30.5154 42.5964 30.5208C42.5329 30.5262 42.4692 30.5305 42.4055 30.5337C42.3418 30.537 42.2781 30.5393 42.2143 30.5405C42.1505 30.5416 42.0867 30.5418 42.0229 30.5409C41.9591 30.54 41.8954 30.538 41.8317 30.5351C41.768 30.5321 41.7043 30.5281 41.6407 30.523C41.5772 30.5179 41.5137 30.5118 41.4503 30.5047C40.1947 30.3667 38.911 29.842 38.1068 28.8739C38.1249 28.639 38.153 28.408 38.206 28.1778C38.4763 27.0056 39.1599 26.1519 40.1962 25.5155Z" fill="white"/>
<path d="M9.63218 19.6955C9.63614 19.695 9.6401 19.6942 9.64406 19.6938C10.9079 19.5913 12.2152 19.9831 13.2219 20.7229C14.3953 21.5854 15.1757 22.8197 15.3652 24.2366C15.5761 25.8134 15.0584 27.2263 14.0664 28.4704C13.9727 27.2934 13.5312 26.2518 12.5968 25.464C12.333 25.2574 12.0453 25.0943 11.7526 24.9299C11.7405 24.9441 11.7286 24.9586 11.7158 24.9723C11.3055 25.4166 10.7021 25.6215 10.0968 25.6469C9.34176 25.6787 8.77444 25.4293 8.22574 24.9463C7.82828 25.1707 7.46433 25.4058 7.12933 25.7121C7.15913 25.1865 7.20814 24.69 7.06326 24.1745C6.79585 23.2232 6.11802 22.5659 5.2522 22.0877C5.33462 21.9625 5.43374 21.8417 5.53154 21.7275C6.55656 20.5306 8.04385 19.8349 9.63218 19.6955Z" fill="white"/>
<path d="M9.76121 20.9691C10.2637 20.9091 10.7999 21.0338 11.2143 21.3143C11.2443 21.3348 11.2738 21.356 11.3028 21.3779C11.3317 21.3998 11.3601 21.4224 11.3879 21.4456C11.4157 21.4689 11.4429 21.4928 11.4694 21.5174C11.496 21.542 11.5219 21.5671 11.5471 21.5929C11.5724 21.6188 11.597 21.6452 11.6209 21.6722C11.6448 21.6991 11.668 21.7267 11.6905 21.7548C11.713 21.7829 11.7348 21.8115 11.7558 21.8406C11.7768 21.8698 11.7971 21.8994 11.8166 21.9295C11.8361 21.9596 11.8548 21.9902 11.8727 22.0212C11.8906 22.0522 11.9078 22.0836 11.9241 22.1155C11.9404 22.1473 11.9558 22.1795 11.9705 22.212C11.9852 22.2446 11.999 22.2775 12.0119 22.3107C12.0249 22.344 12.037 22.3775 12.0482 22.4113C12.0595 22.4451 12.0698 22.4792 12.0793 22.5135C12.0888 22.5478 12.0974 22.5823 12.1051 22.617C12.1128 22.6518 12.1197 22.6867 12.1256 22.7217C12.131 22.7549 12.1355 22.7881 12.1391 22.8214C12.1428 22.8548 12.1456 22.8882 12.1475 22.9217C12.1495 22.9552 12.1505 22.9887 12.1508 23.0223C12.151 23.0558 12.1503 23.0893 12.1488 23.1229C12.1474 23.1564 12.145 23.1898 12.1417 23.2232C12.1385 23.2566 12.1345 23.2899 12.1295 23.3231C12.1246 23.3563 12.1188 23.3894 12.1122 23.4223C12.1055 23.4552 12.0981 23.488 12.0898 23.5206C12.0815 23.5531 12.0723 23.5855 12.0623 23.6176C12.0524 23.6497 12.0416 23.6816 12.03 23.7132C12.0184 23.7449 12.0059 23.7762 11.9927 23.8072C11.9795 23.8382 11.9655 23.8689 11.9506 23.8992C11.9359 23.9296 11.9203 23.9596 11.904 23.9891C11.8876 24.0188 11.8705 24.048 11.8527 24.0768C11.8348 24.1055 11.8163 24.1339 11.797 24.1618C11.7777 24.1897 11.7577 24.2171 11.737 24.244C11.3685 24.7259 10.8435 24.9867 10.2385 25.0715C9.68276 25.1095 9.19074 25.0164 8.73574 24.6914C8.26515 24.3552 7.93116 23.8316 7.85265 23.2699C7.84771 23.2368 7.8436 23.2035 7.84031 23.1702C7.83706 23.1369 7.83466 23.1036 7.8331 23.0702C7.83154 23.0367 7.83085 23.0033 7.83102 22.9699C7.83115 22.9364 7.83215 22.9029 7.83401 22.8695C7.83588 22.8361 7.8386 22.8028 7.84219 22.7695C7.84575 22.7362 7.85016 22.7031 7.85544 22.67C7.86073 22.6369 7.86684 22.604 7.87378 22.5712C7.88072 22.5385 7.8885 22.5059 7.89714 22.4735C7.90573 22.4411 7.91516 22.4089 7.92542 22.3769C7.93568 22.345 7.94675 22.3133 7.95863 22.2819C7.97051 22.2504 7.98319 22.2193 7.99667 22.1885C8.01014 22.1577 8.02439 22.1272 8.03942 22.097C8.05449 22.0669 8.0703 22.0371 8.08685 22.0077C8.10341 21.9783 8.12069 21.9494 8.1387 21.9208C8.15675 21.8922 8.1755 21.8641 8.19497 21.8365C8.21447 21.8088 8.23465 21.7816 8.2555 21.7549C8.62112 21.296 9.1754 21.0387 9.76121 20.9691Z" fill="black"/>
<path d="M41.9531 19.7205C42.2951 19.7057 42.6511 19.7202 42.9895 19.7695C44.5373 19.9952 45.8813 20.8652 46.8004 22.0672C46.3114 22.3002 45.8901 22.5594 45.5372 22.9678C44.8615 23.7495 44.7105 24.6645 44.8054 25.6552C44.5243 25.4645 44.2315 25.2347 43.9101 25.1142C43.7699 25.3156 43.6106 25.4901 43.4054 25.632C42.9411 25.9528 42.2968 26.0911 41.7349 25.9966C41.1099 25.8914 40.6783 25.5939 40.3179 25.0994C40.1238 25.1804 39.9508 25.2819 39.7713 25.3895C39.7549 25.4004 39.7386 25.4115 39.7225 25.4227C38.6452 26.1741 38.0144 27.2386 37.8057 28.498C37.101 27.5388 36.6529 26.5232 36.5846 25.3369C36.5057 23.9648 36.9656 22.5994 37.926 21.5763C37.9577 21.5418 37.9899 21.5078 38.0225 21.4742C38.0551 21.4405 38.0882 21.4072 38.1216 21.3743C38.1551 21.3415 38.189 21.309 38.2233 21.277C38.2576 21.2449 38.2923 21.2132 38.3274 21.182C38.3625 21.1508 38.3981 21.12 38.434 21.0897C38.4699 21.0593 38.5062 21.0294 38.5428 20.9999C38.5795 20.9704 38.6166 20.9413 38.6541 20.9127C38.6915 20.8841 38.7292 20.856 38.7674 20.8283C38.8056 20.8006 38.8441 20.7734 38.883 20.7466C38.9218 20.7198 38.961 20.6935 39.0006 20.6677C39.0401 20.6419 39.08 20.6165 39.1202 20.5917C39.1604 20.5668 39.2009 20.5424 39.2417 20.5185C39.2825 20.4946 39.3237 20.4713 39.3651 20.4483C39.4065 20.4254 39.4482 20.403 39.4902 20.3811C39.5322 20.3592 39.5745 20.3378 39.6171 20.3169C39.6596 20.2961 39.7024 20.2757 39.7455 20.2558C39.7886 20.236 39.8319 20.2167 39.8755 20.1978C39.9191 20.1791 39.9629 20.1608 40.007 20.143C40.051 20.1252 40.0953 20.108 40.1398 20.0913C40.1843 20.0746 40.229 20.0585 40.2739 20.0429C40.3188 20.0272 40.3639 20.0122 40.4093 19.9977C40.4546 19.9831 40.5 19.9691 40.5457 19.9557C40.5913 19.9423 40.6372 19.9294 40.6832 19.917C40.7292 19.9047 40.7753 19.8929 40.8216 19.8817C40.8679 19.8704 40.9144 19.8598 40.9609 19.8496C41.0075 19.8395 41.0542 19.83 41.101 19.821C41.1478 19.812 41.1948 19.8036 41.2418 19.7957C41.2888 19.7879 41.336 19.7806 41.3832 19.7738C41.4304 19.7671 41.4777 19.7609 41.5251 19.7553C41.5725 19.7498 41.62 19.7447 41.6675 19.7403C41.715 19.7359 41.7626 19.732 41.8102 19.7287C41.8578 19.7254 41.9054 19.7226 41.9531 19.7205Z" fill="white"/>
<path d="M42.0477 20.8232C42.6169 20.8294 43.1502 20.995 43.5816 21.361C43.6102 21.385 43.6381 21.4097 43.6654 21.4351C43.6927 21.4605 43.7193 21.4865 43.7453 21.5131C43.7712 21.5398 43.7965 21.5671 43.821 21.5949C43.8456 21.6228 43.8694 21.6513 43.8924 21.6803C43.9155 21.7093 43.9379 21.7389 43.9594 21.7689C43.981 21.799 44.0018 21.8296 44.0217 21.8607C44.0417 21.8918 44.0609 21.9233 44.0792 21.9553C44.0976 21.9873 44.1151 22.0198 44.1318 22.0527C44.1485 22.0855 44.1643 22.1187 44.1793 22.1524C44.1942 22.186 44.2083 22.2199 44.2216 22.2542C44.2348 22.2885 44.2471 22.3231 44.2585 22.3579C44.27 22.3928 44.2805 22.428 44.2901 22.4634C44.2997 22.4988 44.3084 22.5343 44.3162 22.5701C44.324 22.606 44.3309 22.6419 44.3368 22.6781C44.3428 22.7142 44.3478 22.7505 44.3518 22.7869C44.3559 22.8232 44.359 22.8596 44.3612 22.8962C44.3633 22.9348 44.3644 22.9735 44.3646 23.0122C44.3647 23.0509 44.3638 23.0896 44.362 23.1282C44.3601 23.1669 44.3573 23.2055 44.3534 23.2441C44.3496 23.2826 44.3447 23.321 44.3389 23.3593C44.3331 23.3976 44.3263 23.4357 44.3186 23.4737C44.3108 23.5116 44.302 23.5494 44.2923 23.5869C44.2826 23.6245 44.272 23.6618 44.2603 23.6988C44.2487 23.7358 44.2361 23.7726 44.2226 23.809C44.2091 23.8455 44.1947 23.8816 44.1793 23.9173C44.1639 23.9531 44.1477 23.9884 44.1305 24.0234C44.1133 24.0584 44.0952 24.0929 44.0763 24.127C44.0574 24.1611 44.0375 24.1947 44.0169 24.2279C43.9962 24.261 43.9747 24.2937 43.9523 24.3258C43.9299 24.3579 43.9068 24.3895 43.8828 24.4205C43.8588 24.4515 43.8341 24.4819 43.8086 24.5118C43.783 24.5416 43.7567 24.5708 43.7297 24.5994C43.3067 25.0507 42.7365 25.257 42.1176 25.2895C41.5616 25.2768 41.0419 25.128 40.6081 24.7808C40.1352 24.4022 39.8441 23.8128 39.7942 23.2255C39.7912 23.189 39.7892 23.1525 39.7881 23.1159C39.7869 23.0794 39.7868 23.0428 39.7875 23.0062C39.7882 22.9696 39.7899 22.9331 39.7925 22.8966C39.7951 22.8601 39.7986 22.8236 39.8031 22.7873C39.8076 22.751 39.813 22.7148 39.8193 22.6787C39.8256 22.6426 39.8329 22.6067 39.841 22.571C39.8491 22.5352 39.8582 22.4997 39.8682 22.4644C39.8781 22.4291 39.889 22.3941 39.9008 22.3593C39.9125 22.3245 39.9252 22.29 39.9387 22.2559C39.9522 22.2217 39.9666 22.1878 39.9819 22.1543C39.9971 22.1208 40.0132 22.0877 40.0302 22.055C40.0471 22.0223 40.0649 21.9899 40.0835 21.958C40.1021 21.9262 40.1215 21.8948 40.1417 21.8638C40.1619 21.8328 40.1828 21.8024 40.2046 21.7724C40.2264 21.7424 40.2489 21.713 40.2722 21.6842C40.2954 21.6553 40.3194 21.6269 40.3441 21.5992C40.7953 21.0939 41.3705 20.8698 42.0477 20.8232Z" fill="black"/>
<path d="M25.5612 4.10372C25.6962 4.08052 25.8545 4.08821 25.9912 4.08735C27.0013 4.08099 28.065 4.43244 28.9121 4.95077C28.9526 4.97535 28.9927 5.00043 29.0325 5.02599C29.0724 5.05151 29.1119 5.07753 29.1511 5.10404C29.1902 5.13052 29.2291 5.15747 29.2675 5.18489C29.306 5.21232 29.3441 5.2402 29.3819 5.26854C29.4197 5.29685 29.457 5.32561 29.4941 5.35483C29.5311 5.38405 29.5678 5.41372 29.604 5.44382C29.6403 5.47393 29.6762 5.50446 29.7116 5.53541C29.7471 5.56633 29.7822 5.59769 29.8169 5.6295C29.8516 5.6613 29.8859 5.6935 29.9197 5.72609C29.9536 5.75871 29.987 5.79172 30.02 5.82513C30.053 5.85853 30.0856 5.89233 30.1178 5.92652C30.1499 5.96068 30.1816 5.99523 30.2129 6.03017C30.2441 6.06512 30.2749 6.10043 30.3053 6.13613C30.3357 6.17179 30.3656 6.20783 30.395 6.24424C30.4244 6.28062 30.4534 6.31734 30.4819 6.35441C30.5104 6.39151 30.5384 6.42894 30.566 6.46669C30.5935 6.50444 30.6205 6.54252 30.6471 6.58093C30.6736 6.6193 30.6997 6.658 30.7253 6.69703C30.7509 6.73606 30.7759 6.77538 30.8005 6.815C30.8251 6.85462 30.8491 6.89451 30.8726 6.93468C30.8962 6.97489 30.9192 7.01535 30.9417 7.05608C30.9642 7.09684 30.9862 7.13785 31.0077 7.1791C31.0291 7.22038 31.05 7.26191 31.0704 7.30368C31.0908 7.34542 31.1107 7.38743 31.13 7.42969C31.1493 7.47192 31.1681 7.51438 31.1863 7.55707C31.2045 7.59976 31.2222 7.64266 31.2393 7.68578C31.2565 7.72889 31.273 7.77218 31.289 7.81566C31.3051 7.85916 31.3205 7.90286 31.3354 7.94676C31.3503 7.99063 31.3646 8.03467 31.3784 8.0789C31.3922 8.12312 31.4054 8.1675 31.418 8.21202C31.4307 8.25654 31.4428 8.30122 31.4542 8.34606C31.4657 8.39088 31.4767 8.43582 31.487 8.4809C31.7998 9.87723 31.5134 11.2808 30.7159 12.4783C30.6615 12.2869 30.6002 12.0976 30.5322 11.9103C30.1202 10.7791 29.2435 9.74833 28.1149 9.22493C27.7097 9.71861 27.0764 10.0179 26.4427 10.1177C26.3234 10.1331 26.2048 10.1458 26.0845 10.1493C25.192 10.1755 24.5273 9.82467 23.896 9.25204C22.4075 10.0646 21.7412 10.9174 21.236 12.481C20.8174 11.7669 20.5058 10.988 20.4127 10.1692C20.4075 10.1255 20.4029 10.0819 20.3988 10.0382C20.3947 9.99446 20.3912 9.95069 20.3883 9.90689C20.3854 9.86309 20.383 9.81927 20.3811 9.77544C20.3793 9.73157 20.378 9.68771 20.3773 9.64384C20.3766 9.59994 20.3765 9.55605 20.3769 9.51215C20.3773 9.46828 20.3782 9.42442 20.3798 9.38055C20.3813 9.33669 20.3834 9.29284 20.386 9.249C20.3887 9.2052 20.3918 9.16144 20.3956 9.1177C20.3994 9.07393 20.4037 9.03023 20.4086 8.98659C20.4134 8.94296 20.4189 8.89939 20.4249 8.85588C20.4308 8.81237 20.4373 8.76895 20.4445 8.72561C20.4515 8.68226 20.4592 8.639 20.4674 8.59582C20.4756 8.55264 20.4843 8.50958 20.4936 8.46663C20.5029 8.42365 20.5127 8.38079 20.5231 8.33807C20.5335 8.29535 20.5444 8.25276 20.5559 8.2103C20.5673 8.16781 20.5794 8.12548 20.5919 8.08331C20.6044 8.04111 20.6175 7.99908 20.6311 7.95721C20.6447 7.91533 20.6589 7.87363 20.6736 7.83208C20.6882 7.79054 20.7034 7.74919 20.7192 7.70803C20.7349 7.66685 20.7512 7.62586 20.7679 7.58507C20.7847 7.54427 20.802 7.50369 20.8198 7.46333C20.8376 7.42292 20.856 7.38275 20.8748 7.34281C20.8937 7.30287 20.913 7.26315 20.9329 7.22367C20.9527 7.18418 20.9731 7.14494 20.9939 7.10594C21.0148 7.06695 21.0361 7.0282 21.0579 6.98969C21.0798 6.95122 21.1021 6.91299 21.1249 6.87501C21.1477 6.83706 21.171 6.79937 21.1948 6.76195C21.2185 6.72455 21.2428 6.68744 21.2675 6.6506C21.2922 6.61376 21.3174 6.57722 21.343 6.54097C21.3687 6.50475 21.3948 6.46883 21.4214 6.4332C21.4479 6.39761 21.4749 6.36232 21.5024 6.32734C21.5299 6.29237 21.5578 6.25772 21.5861 6.2234C22.5965 5.01579 23.9597 4.27293 25.5612 4.10372Z" fill="white"/>
<path d="M26.0037 4.91345C26.6657 4.93012 27.2453 5.11516 27.7356 5.55741C28.2264 6.00006 28.5425 6.61676 28.5646 7.26842C28.5658 7.30993 28.5659 7.35146 28.565 7.39301C28.564 7.43452 28.562 7.47598 28.5589 7.5174C28.5559 7.55884 28.5518 7.60017 28.5466 7.64139C28.5415 7.68264 28.5353 7.72375 28.5281 7.7647C28.5208 7.80563 28.5126 7.84637 28.5033 7.88694C28.494 7.92747 28.4837 7.96777 28.4723 8.00784C28.461 8.04792 28.4486 8.0877 28.4353 8.12718C28.422 8.16667 28.4076 8.20581 28.3923 8.24461C28.377 8.28341 28.3606 8.32183 28.3433 8.35988C28.3261 8.3979 28.3078 8.4355 28.2887 8.4727C28.2695 8.50986 28.2493 8.54656 28.2283 8.58277C28.2073 8.61899 28.1853 8.6547 28.1625 8.6899C28.1396 8.72507 28.1159 8.75971 28.0913 8.7938C28.0667 8.82786 28.0412 8.86131 28.0149 8.89416C27.9886 8.92705 27.9615 8.95927 27.9335 8.99085C27.9056 9.02243 27.8769 9.05333 27.8474 9.08357C27.3464 9.58779 26.7286 9.84211 26.0085 9.85849C25.385 9.84716 24.7709 9.64271 24.3017 9.24125C24.2699 9.21369 24.2388 9.18542 24.2085 9.15642C24.1781 9.12743 24.1486 9.09772 24.1197 9.06729C24.0909 9.03689 24.0628 9.00582 24.0356 8.97408C24.0083 8.94238 23.9819 8.91003 23.9562 8.87705C23.9306 8.84407 23.9058 8.8105 23.8819 8.77634C23.858 8.74219 23.8349 8.70749 23.8128 8.67225C23.7906 8.63702 23.7694 8.60127 23.749 8.56502C23.7287 8.52881 23.7092 8.49212 23.6907 8.45495C23.6722 8.41779 23.6547 8.38021 23.6381 8.34223C23.6215 8.30421 23.6059 8.26586 23.5912 8.22716C23.5766 8.18842 23.563 8.14936 23.5503 8.10997C23.5376 8.07062 23.5259 8.03097 23.5153 7.99103C23.5046 7.95112 23.495 7.91098 23.4864 7.87061C23.4777 7.83021 23.4701 7.78964 23.4636 7.74892C23.457 7.70819 23.4515 7.66733 23.447 7.62634C23.4425 7.58532 23.439 7.54423 23.4366 7.50308C23.3986 6.83867 23.6522 6.20206 24.1146 5.71269C24.6357 5.1612 25.2446 4.9492 26.0037 4.91345Z" fill="black"/>
<path d="M25.8818 35.2878C27.1146 35.2658 28.3916 35.6926 29.3697 36.4126C30.6071 37.3236 31.3623 38.6844 31.5667 40.1637C31.7678 41.62 31.3966 42.9312 30.4783 44.0979C30.0673 42.7854 29.3392 41.6762 28.0705 40.9972C27.4845 41.4847 27.0088 41.7272 26.2368 41.821C25.2379 41.8612 24.5665 41.5996 23.8054 40.9862C22.5621 41.7962 21.869 42.5975 21.4716 44.0085C20.8873 43.0692 20.4902 42.1784 20.4208 41.0683C20.4184 41.0232 20.4166 40.9781 20.4154 40.9329C20.4141 40.8877 20.4134 40.8425 20.4133 40.7974C20.4132 40.7522 20.4137 40.707 20.4147 40.6618C20.4157 40.6167 20.4173 40.5715 20.4195 40.5264C20.4217 40.4813 20.4245 40.4362 20.4278 40.3912C20.4312 40.3461 20.4351 40.301 20.4395 40.2561C20.444 40.2111 20.4491 40.1662 20.4547 40.1213C20.4603 40.0765 20.4665 40.0317 20.4733 39.987C20.4801 39.9423 20.4874 39.8977 20.4953 39.8532C20.5032 39.8086 20.5116 39.7642 20.5207 39.7199C20.5297 39.6756 20.5393 39.6313 20.5495 39.5873C20.5596 39.5432 20.5703 39.4992 20.5816 39.4553C20.5929 39.4115 20.6047 39.3678 20.6171 39.3242C20.6295 39.2806 20.6425 39.2372 20.656 39.194C20.6694 39.1507 20.6835 39.1076 20.6981 39.0647C20.7127 39.0218 20.7278 38.979 20.7435 38.9364C20.7592 38.8939 20.7754 38.8515 20.7922 38.8093C20.8089 38.7671 20.8262 38.7252 20.844 38.6834C20.8619 38.6416 20.8802 38.6001 20.8991 38.5587C20.9179 38.5174 20.9374 38.4763 20.9573 38.4354C20.9772 38.3945 20.9977 38.3539 21.0186 38.3135C21.0396 38.2731 21.0611 38.233 21.0831 38.1931C21.1051 38.1532 21.1275 38.1136 21.1505 38.0743C21.1735 38.0349 21.197 37.9958 21.221 37.957C21.245 37.9183 21.2695 37.8798 21.2944 37.8416C21.3194 37.8034 21.3449 37.7655 21.3708 37.7279C21.3967 37.6903 21.4232 37.653 21.45 37.616C21.4769 37.579 21.5043 37.5423 21.532 37.506C21.5599 37.4697 21.5882 37.4337 21.6169 37.3981C21.6456 37.3624 21.6748 37.3271 21.7044 37.2921C21.7341 37.2571 21.7641 37.2225 21.7946 37.1883C21.8251 37.154 21.8561 37.1201 21.8875 37.0866C22.927 35.9708 24.3396 35.3668 25.8818 35.2878Z" fill="white"/>
<path d="M25.5463 36.5842C26.1582 36.5082 26.8453 36.6818 27.3517 37.0175C27.922 37.3956 28.3778 38.0244 28.5004 38.6861C28.618 39.3214 28.4493 39.9648 28.0666 40.4899C27.6404 41.0745 27.0525 41.3741 26.3335 41.4933C25.677 41.5602 25.0154 41.4395 24.4705 41.0683C23.8895 40.6726 23.494 40.1202 23.3786 39.4391C23.2687 38.79 23.4104 38.1066 23.8151 37.5724C24.2337 37.0199 24.8513 36.689 25.5463 36.5842Z" fill="black"/>
<path d="M29.0419 4.04565C29.4892 4.05381 30.4018 4.27743 30.8557 4.37966C34.5045 5.20136 38.0525 6.95674 40.7978 9.43159C40.8952 9.51808 40.9917 9.60542 41.0875 9.6936C41.1832 9.78176 41.2781 9.87072 41.3723 9.96048C41.4664 10.0503 41.5597 10.1409 41.6521 10.2323C41.7446 10.3236 41.8362 10.4158 41.9269 10.5087C42.0177 10.6017 42.1076 10.6954 42.1966 10.7899C42.2857 10.8844 42.3738 10.9796 42.4611 11.0756C42.5484 11.1716 42.6348 11.2684 42.7203 11.3658C42.8058 11.4633 42.8904 11.5615 42.9741 11.6605C43.0578 11.7594 43.1406 11.859 43.2225 11.9593C43.3044 12.0597 43.3854 12.1607 43.4654 12.2624C43.5454 12.3642 43.6245 12.4666 43.7026 12.5697C43.7807 12.6727 43.8579 12.7765 43.9342 12.8809C44.0104 12.9853 44.0857 13.0904 44.16 13.196C44.2343 13.3017 44.3076 13.4081 44.38 13.515C44.4523 13.622 44.5237 13.7295 44.5941 13.8377C44.6645 13.9458 44.7338 14.0546 44.8022 14.164C44.8706 14.2733 44.938 14.3832 45.0043 14.4938C45.0707 14.6043 45.136 14.7153 45.2003 14.827C45.2647 14.9386 45.328 15.0508 45.3902 15.1635C45.4525 15.2762 45.5137 15.3895 45.5739 15.5032C45.6341 15.617 45.6932 15.7312 45.7513 15.846C45.8094 15.9608 45.8664 16.0761 45.9224 16.1918C45.9783 16.3076 46.0332 16.4238 46.087 16.5405C46.1409 16.6572 46.1936 16.7743 46.2453 16.8919C46.297 17.0095 46.3476 17.1276 46.3971 17.246C46.4466 17.3645 46.495 17.4833 46.5423 17.6026C46.5897 17.7219 46.636 17.8416 46.6811 17.9617C46.7262 18.0818 46.7702 18.2022 46.8131 18.3231C46.856 18.4439 46.8978 18.5651 46.9385 18.6866C46.9792 18.8082 47.0188 18.9301 47.0573 19.0523C47.0957 19.1745 47.133 19.2971 47.1692 19.42C47.2054 19.5428 47.2405 19.666 47.2745 19.7895C47.4258 20.3398 47.7378 21.4835 47.7568 22.0243C47.7166 21.9575 47.6752 21.8914 47.6325 21.8261C47.5898 21.7607 47.5458 21.6961 47.5007 21.6324C47.4555 21.5685 47.4091 21.5056 47.3615 21.4434C47.3139 21.3813 47.2651 21.3201 47.2152 21.2597C47.1653 21.1993 47.1142 21.1398 47.062 21.0812C47.0098 21.0226 46.9565 20.965 46.9021 20.9084C46.8476 20.8517 46.7922 20.796 46.7356 20.7413C46.6791 20.6866 46.6215 20.633 46.5629 20.5803C46.5043 20.5277 46.4447 20.4761 46.3841 20.4256C46.3235 20.3751 46.262 20.3257 46.1996 20.2774C46.1371 20.229 46.0737 20.1819 46.0094 20.1358C45.9452 20.0897 45.8801 20.0449 45.8141 20.0011C45.7481 19.9574 45.6813 19.9148 45.6137 19.8735C45.546 19.8321 45.4777 19.792 45.4085 19.7531C45.3394 19.7142 45.2695 19.6765 45.1989 19.6401C45.1283 19.6037 45.057 19.5686 44.9851 19.5347C43.6296 18.8949 42.0053 18.7069 40.5437 19.0896C39.8459 19.2724 39.1775 19.5521 38.4971 19.7856C37.4476 20.1456 36.3897 20.4851 35.3361 20.8339C36.2551 22.9747 36.5641 25.1773 35.9843 27.455C35.8202 28.0995 35.5729 28.7001 35.3382 29.3214C35.8017 29.4537 36.2504 29.6412 36.6986 29.8143C37.3999 30.0861 38.1036 30.352 38.8097 30.612C39.4816 30.8606 40.1806 31.1369 40.8915 31.2589C41.6538 31.3898 42.4865 31.3746 43.2472 31.2466C43.3317 31.2317 43.4158 31.2152 43.4996 31.1971C43.5835 31.179 43.6669 31.1593 43.7498 31.138C43.8328 31.1167 43.9154 31.0939 43.9974 31.0694C44.0795 31.045 44.161 31.019 44.242 30.9915C44.323 30.964 44.4034 30.935 44.4833 30.9044C44.5631 30.8738 44.6422 30.8418 44.7207 30.8082C44.7993 30.7746 44.8771 30.7395 44.9541 30.703C45.0312 30.6664 45.1075 30.6285 45.183 30.589C45.2586 30.5496 45.3333 30.5087 45.4071 30.4664C45.481 30.4241 45.554 30.3805 45.626 30.3354C45.6981 30.2904 45.7693 30.244 45.8395 30.1962C45.9097 30.1485 45.9788 30.0994 46.047 30.049C46.1152 29.9986 46.1823 29.9469 46.2484 29.8939C46.3145 29.841 46.3795 29.7868 46.4434 29.7314C46.5073 29.676 46.57 29.6194 46.6315 29.5616C46.6931 29.5038 46.7535 29.4448 46.8126 29.3848C47.164 29.0222 47.4578 28.6176 47.7543 28.2134C47.723 28.4177 47.6885 28.6215 47.6511 28.8249C47.6136 29.0282 47.5731 29.231 47.5296 29.4332C47.486 29.6354 47.4394 29.837 47.3899 30.0379C47.3403 30.2389 47.2878 30.4391 47.2322 30.6385C47.1766 30.838 47.1181 31.0366 47.0566 31.2344C46.9951 31.4322 46.9306 31.6292 46.8632 31.8252C46.7958 32.0212 46.7255 32.2162 46.6523 32.4103C46.579 32.6044 46.5029 32.7974 46.4239 32.9893C46.3449 33.1812 46.263 33.372 46.1783 33.5617C46.0936 33.7513 46.0061 33.9398 45.9157 34.127C45.8253 34.3142 45.7322 34.5001 45.6363 34.6847C45.5403 34.8693 45.4417 35.0526 45.3403 35.2344C45.2389 35.4163 45.1348 35.5967 45.0279 35.7757C44.9211 35.9547 44.8117 36.1321 44.6995 36.308C44.5875 36.4839 44.4727 36.6582 44.3554 36.8309C44.2381 37.0036 44.1182 37.1746 43.9957 37.344C43.8904 37.4875 43.7832 37.6298 43.6742 37.7707C43.5653 37.9117 43.4545 38.0514 43.342 38.1897C43.2295 38.3281 43.1152 38.465 42.9991 38.6007C42.8831 38.7363 42.7654 38.8705 42.646 39.0033C42.5265 39.1362 42.4054 39.2676 42.2826 39.3976C42.1598 39.5275 42.0354 39.656 41.9093 39.783C41.7832 39.91 41.6556 40.0354 41.5263 40.1594C41.397 40.2834 41.2662 40.4058 41.1338 40.5266C41.0014 40.6475 40.8675 40.7667 40.7321 40.8844C40.5966 41.0021 40.4597 41.1181 40.3213 41.2326C40.183 41.347 40.0432 41.4597 39.9019 41.5708C39.7606 41.6819 39.6179 41.7913 39.4739 41.899C39.3298 42.0067 39.1844 42.1127 39.0377 42.2169C38.891 42.3212 38.7429 42.4237 38.5936 42.5244C38.4442 42.6252 38.2936 42.7241 38.1417 42.8212C37.9898 42.9184 37.8367 43.0138 37.6823 43.1073C37.528 43.2008 37.3726 43.2924 37.2159 43.3822C37.0593 43.4721 36.9015 43.56 36.7426 43.6461C36.5837 43.7322 36.4237 43.8163 36.2627 43.8986C36.1017 43.9808 35.9396 44.0612 35.7765 44.1396C35.6134 44.218 35.4493 44.2945 35.2843 44.369C35.1193 44.4435 34.9533 44.5161 34.7864 44.5867C34.6195 44.6572 34.4518 44.7258 34.2831 44.7924C34.1145 44.859 33.945 44.9235 33.7748 44.9861C33.6045 45.0487 33.4334 45.1092 33.2616 45.1677C33.0898 45.2262 32.9172 45.2827 32.744 45.3371C32.5707 45.3915 32.3968 45.4438 32.2222 45.4941C32.0476 45.5443 31.8724 45.5925 31.6965 45.6386C31.5207 45.6847 31.3443 45.7287 31.1674 45.7706C30.9904 45.8125 30.813 45.8523 30.635 45.89C30.457 45.9277 30.2786 45.9632 30.0998 45.9967C29.9209 46.0302 29.7416 46.0615 29.562 46.0907C30.5285 45.4444 31.2597 44.6173 31.7896 43.6076C32.4403 42.368 32.7332 40.7684 32.4182 39.3988C32.2763 38.7816 31.9981 38.1864 31.7489 37.6037C31.2557 36.4505 30.69 35.2974 30.2879 34.1116L30.2412 34.1308C29.7498 34.331 29.2375 34.4877 28.7237 34.6245C26.1974 35.2971 24.066 35.0023 21.6717 34.0542C21.2629 35.1439 20.8154 36.2219 20.3926 37.307C20.1391 37.9572 19.8452 38.6221 19.7041 39.3053C19.6661 39.4964 19.6366 39.6886 19.6153 39.8821C19.5941 40.0755 19.5813 40.2694 19.577 40.4639C19.5727 40.6584 19.5768 40.8527 19.5894 41.0468C19.6019 41.241 19.6229 41.4343 19.6524 41.6267C19.9401 43.499 20.7882 44.9656 22.3748 46.0994L21.8169 45.998C21.6331 45.9625 21.4499 45.9248 21.2671 45.8849C21.0844 45.8449 20.9022 45.8027 20.7205 45.7583C20.5389 45.7139 20.3579 45.6672 20.1775 45.6184C19.9971 45.5695 19.8173 45.5185 19.6382 45.4652C19.4591 45.4119 19.2808 45.3564 19.1032 45.2988C18.9256 45.2412 18.7488 45.1813 18.5727 45.1194C18.3967 45.0574 18.2215 44.9933 18.0472 44.927C17.8728 44.8607 17.6993 44.7923 17.5267 44.7218C17.3542 44.6512 17.1826 44.5786 17.012 44.5038C16.8413 44.4291 16.6717 44.3523 16.5031 44.2734C16.3345 44.1945 16.1669 44.1135 16.0004 44.0305C15.8339 43.9475 15.6685 43.8625 15.5043 43.7754C15.34 43.6884 15.1769 43.5993 15.0151 43.5082C14.8531 43.4172 14.6924 43.3241 14.533 43.2291C14.3735 43.1341 14.2154 43.0371 14.0584 42.9383C13.9015 42.8394 13.7459 42.7386 13.5917 42.6359C13.4703 42.5545 13.3497 42.4719 13.23 42.3882C13.1103 42.3045 12.9914 42.2197 12.8734 42.1338C12.7554 42.0478 12.6383 41.9608 12.5221 41.8726C12.4058 41.7844 12.2905 41.6951 12.1761 41.6048C12.0617 41.5144 11.9482 41.423 11.8357 41.3305C11.7231 41.238 11.6115 41.1444 11.5009 41.0498C11.3903 40.9552 11.2806 40.8595 11.1719 40.7628C11.0632 40.6661 10.9555 40.5684 10.8488 40.4696C10.742 40.3709 10.6363 40.2711 10.5316 40.1704C10.427 40.0696 10.3233 39.9679 10.2207 39.8652C10.1181 39.7625 10.0165 39.6588 9.91601 39.5542C9.8155 39.4495 9.71607 39.3439 9.61772 39.2374C9.51934 39.1309 9.42206 39.0234 9.32588 38.915C9.2297 38.8067 9.13464 38.6974 9.04069 38.5872C8.94675 38.4771 8.85392 38.366 8.76221 38.2541C8.67053 38.1422 8.57999 38.0294 8.49058 37.9157C8.40121 37.8021 8.31298 37.6876 8.22591 37.5723C8.13884 37.4569 8.05293 37.3408 7.96819 37.2239C7.88349 37.1069 7.79999 36.9892 7.71769 36.8706C7.63536 36.7521 7.55424 36.6328 7.47435 36.5127C7.39448 36.3927 7.31582 36.2718 7.23837 36.1503C7.16094 36.0287 7.08475 35.9064 7.0098 35.7834C6.93488 35.6604 6.8612 35.5367 6.78875 35.4123C6.71634 35.2879 6.64517 35.1628 6.57526 35.0371C6.50539 34.9113 6.4368 34.7849 6.3695 34.6579C6.30216 34.5308 6.23615 34.4031 6.17145 34.2748C6.10672 34.1465 6.04331 34.0176 5.98123 33.8881C5.91914 33.7586 5.85837 33.6285 5.79892 33.4979C5.73944 33.3672 5.68131 33.236 5.62454 33.1042C5.56777 32.9725 5.51233 32.8402 5.45823 32.7073C5.40413 32.5745 5.3514 32.4412 5.30005 32.3074C5.24866 32.1736 5.19864 32.0393 5.14999 31.9046C4.72858 30.7068 4.45385 29.4833 4.2205 28.2405C5.03714 29.2536 5.9278 30.1153 7.14158 30.6817C7.22496 30.7216 7.30921 30.7597 7.39432 30.796C7.47942 30.8324 7.56533 30.8669 7.65203 30.8995C7.7387 30.9322 7.82608 30.9631 7.91416 30.992C8.00225 31.021 8.09095 31.0481 8.18026 31.0733C8.2696 31.0985 8.35945 31.1219 8.4498 31.1433C8.54019 31.1647 8.63101 31.1842 8.72225 31.2017C8.81352 31.2193 8.90514 31.2349 8.99712 31.2486C9.08911 31.2623 9.18134 31.274 9.27383 31.2837C9.36635 31.2935 9.45905 31.3013 9.55191 31.3072C9.64474 31.313 9.73768 31.3169 9.83075 31.3188C9.92378 31.3207 10.0168 31.3207 10.1098 31.3186C10.2029 31.3166 10.2958 31.3126 10.3887 31.3066C10.4815 31.3006 10.5742 31.2927 10.6667 31.2828C10.7591 31.2729 10.8514 31.261 10.9433 31.2472C11.0353 31.2334 11.1269 31.2177 11.2181 31.2C11.3093 31.1823 11.4001 31.1627 11.4905 31.1411C12.1053 30.9903 12.6926 30.7601 13.2888 30.5544C14.4192 30.1645 15.5389 29.7423 16.6727 29.3627C16.5471 29.0791 16.42 28.7954 16.3079 28.5065C16.2782 28.4298 16.2494 28.3528 16.2216 28.2755C16.1938 28.1982 16.167 28.1205 16.1411 28.0426C16.1153 27.9646 16.0905 27.8863 16.0667 27.8077C16.0429 27.7292 16.0202 27.6503 15.9984 27.5712C15.9766 27.4921 15.9558 27.4127 15.9361 27.3331C15.9163 27.2535 15.8976 27.1737 15.88 27.0936C15.8623 27.0135 15.8456 26.9333 15.8299 26.8528C15.8143 26.7724 15.7997 26.6917 15.7862 26.6109C15.7726 26.5301 15.7601 26.4492 15.7486 26.3681C15.7371 26.2869 15.7267 26.2057 15.7173 26.1243C15.7079 26.043 15.6995 25.9615 15.6922 25.88C15.6849 25.7984 15.6786 25.7168 15.6734 25.6351C15.6682 25.5534 15.6641 25.4716 15.6609 25.3898C15.6578 25.308 15.6558 25.2262 15.6547 25.1443C15.6537 25.0625 15.6538 24.9806 15.6549 24.8988C15.6559 24.8169 15.6581 24.7351 15.6613 24.6533C15.6644 24.5715 15.6687 24.4897 15.674 24.408C15.6793 24.3263 15.6856 24.2447 15.693 24.1631C15.7004 24.0816 15.7088 24.0001 15.7182 23.9188C15.7277 23.8375 15.7382 23.7562 15.7498 23.6751C15.7613 23.594 15.7739 23.5131 15.7875 23.4323C15.8012 23.3515 15.8159 23.2709 15.8316 23.1904C15.8473 23.11 15.864 23.0297 15.8817 22.9497C15.8995 22.8696 15.9183 22.7898 15.9381 22.7102C15.9579 22.6306 15.9788 22.5513 16.0006 22.4722C16.0225 22.3931 16.0453 22.3143 16.0692 22.2357C16.093 22.1572 16.1179 22.0789 16.1438 22.001C16.1697 21.923 16.1966 21.8454 16.2244 21.7681C16.2523 21.6908 16.2811 21.6138 16.311 21.5372C16.3409 21.4605 16.3717 21.3843 16.4035 21.3084C16.4353 21.2325 16.468 21.157 16.5018 21.0819C16.5355 21.0068 16.5702 20.9321 16.6059 20.8579C16.3476 20.7441 16.0694 20.6581 15.8032 20.5623L14.2593 20.0071C13.8092 19.8451 13.3601 19.6805 12.9121 19.5133C12.3172 19.2892 11.7317 19.0477 11.0973 18.9462C10.9842 18.9291 10.8706 18.9148 10.7567 18.9032C10.6428 18.8917 10.5287 18.883 10.4143 18.877C10.2999 18.8711 10.1855 18.8679 10.0709 18.8675C9.95638 18.8672 9.8419 18.8696 9.72751 18.8749C9.61312 18.8802 9.49893 18.8882 9.38494 18.8991C9.27095 18.9099 9.15732 18.9235 9.04405 18.94C8.93077 18.9564 8.818 18.9755 8.70574 18.9975C8.59348 19.0194 8.48186 19.0441 8.37089 19.0715C6.59492 19.5153 5.12216 20.6355 4.19727 22.1585C4.36194 21.2344 4.52464 20.3089 4.77536 19.4012C5.39277 17.166 6.46786 15.061 7.80839 13.1522C7.89522 13.0306 7.98334 12.9099 8.07275 12.7901C8.16213 12.6702 8.25279 12.5513 8.34474 12.4333C8.43665 12.3152 8.52982 12.1981 8.62424 12.0819C8.71862 11.9656 8.81424 11.8504 8.9111 11.7361C9.00796 11.6217 9.10602 11.5084 9.20528 11.396C9.30454 11.2837 9.40498 11.1723 9.50661 11.0618C9.60824 10.9515 9.71102 10.8421 9.81496 10.7337C9.91889 10.6254 10.024 10.5181 10.1302 10.4118C10.2364 10.3055 10.3437 10.2003 10.4522 10.0961C10.5607 9.99197 10.6702 9.88889 10.7809 9.78691C10.8915 9.68493 11.0032 9.58404 11.116 9.48425C11.2288 9.38445 11.3426 9.2858 11.4575 9.1883C11.5723 9.09076 11.6882 8.99437 11.8052 8.89912C11.9221 8.8039 12.04 8.70985 12.1589 8.61695C12.2778 8.52402 12.3977 8.4323 12.5185 8.34179C12.6394 8.25125 12.7612 8.16192 12.884 8.0738C13.0068 7.98567 13.1304 7.89877 13.255 7.8131C13.3796 7.72743 13.5051 7.643 13.6315 7.55981C13.7579 7.47659 13.8852 7.39465 14.0133 7.31397C14.1414 7.2333 14.2704 7.15391 14.4002 7.07579C14.53 6.99766 14.6607 6.92084 14.7921 6.8453C14.9236 6.76976 15.0558 6.69552 15.1888 6.6226C15.3218 6.54968 15.4556 6.47808 15.5902 6.4078C15.7247 6.33752 15.86 6.26857 15.996 6.20094C16.132 6.13334 16.2687 6.06711 16.4061 6.00222C16.5435 5.93731 16.6816 5.87376 16.8203 5.81159C16.9591 5.74942 17.0985 5.68864 17.2386 5.62925C17.3786 5.56982 17.5193 5.51181 17.6606 5.45519C17.8018 5.39855 17.9437 5.34332 18.0862 5.28952C18.2286 5.23568 18.3716 5.18327 18.5152 5.13228C18.6587 5.08129 18.8028 5.03172 18.9474 4.98357C19.092 4.93542 19.2371 4.88872 19.3828 4.84346C20.5473 4.48286 21.7076 4.26678 22.9048 4.04468C21.7732 4.70948 20.8946 5.50952 20.2575 6.64805C19.5846 7.85051 19.3064 9.37476 19.6067 10.7224C19.7511 11.37 20.0163 12.0034 20.248 12.6257C20.6726 13.7665 21.1533 14.9047 21.5158 16.0646C21.589 16.0312 21.6626 15.9986 21.7366 15.9668C21.8007 15.9387 21.8652 15.9113 21.9299 15.8845C21.9947 15.8577 22.0597 15.8315 22.125 15.806C22.1903 15.7805 22.2559 15.7557 22.3217 15.7315C22.3876 15.7073 22.4537 15.6837 22.52 15.6608C22.5863 15.6379 22.6529 15.6157 22.7197 15.5941C22.7866 15.5726 22.8536 15.5517 22.9209 15.5315C22.9882 15.5113 23.0556 15.4917 23.1233 15.4728C23.191 15.454 23.2589 15.4358 23.3269 15.4182C23.395 15.4007 23.4632 15.3839 23.5317 15.3677C23.6001 15.3515 23.6687 15.336 23.7374 15.3212C23.8062 15.3065 23.8751 15.2924 23.9442 15.2789C24.0132 15.2655 24.0824 15.2527 24.1518 15.2407C24.2211 15.2287 24.2906 15.2173 24.3602 15.2067C24.4298 15.196 24.4994 15.186 24.5692 15.1767C24.639 15.1675 24.7089 15.1589 24.7789 15.151C24.8488 15.1431 24.9189 15.1359 24.989 15.1294C25.0592 15.123 25.1293 15.1172 25.1996 15.1121C25.2698 15.107 25.3401 15.1026 25.4105 15.0989C25.4808 15.0952 25.5512 15.0923 25.6216 15.09C25.692 15.0877 25.7624 15.0861 25.8329 15.0852C25.9033 15.0843 25.9738 15.0841 26.0442 15.0847C26.1147 15.0852 26.1851 15.0864 26.2555 15.0883C26.326 15.0902 26.3963 15.0929 26.4667 15.0962C26.5371 15.0995 26.6074 15.1035 26.6777 15.1083C26.748 15.113 26.8182 15.1184 26.8883 15.1245C26.9585 15.1307 27.0286 15.1375 27.0986 15.145C27.1686 15.1525 27.2385 15.1608 27.3084 15.1697C27.3782 15.1786 27.448 15.1882 27.5176 15.1985C27.5872 15.2088 27.6568 15.2198 27.7262 15.2315C27.7956 15.2432 27.8648 15.2556 27.934 15.2687C28.0031 15.2817 28.0721 15.2955 28.1409 15.3099C28.2098 15.3244 28.2784 15.3395 28.347 15.3553C29.0628 15.5247 29.7411 15.7784 30.4284 16.0315C30.8097 15.2137 31.0983 14.3397 31.4172 13.497C32.1715 11.5045 32.9034 10.1296 32.2533 7.91759C32.238 7.86669 32.222 7.81598 32.2053 7.76544C32.1887 7.71491 32.1714 7.66459 32.1535 7.61448C32.1356 7.56434 32.117 7.51443 32.0979 7.46474C32.0787 7.41506 32.0589 7.36562 32.0385 7.31643C32.018 7.2672 31.997 7.21824 31.9753 7.16953C31.9536 7.1208 31.9313 7.07234 31.9084 7.02416C31.8855 6.97598 31.862 6.92807 31.8378 6.88045C31.8137 6.83279 31.789 6.78545 31.7637 6.73841C31.7384 6.69137 31.7124 6.64463 31.6859 6.59818C31.6594 6.55177 31.6323 6.50566 31.6046 6.45987C31.5769 6.41408 31.5487 6.36861 31.5199 6.32347C31.491 6.27836 31.4616 6.23358 31.4317 6.18913C31.4017 6.1447 31.3712 6.10064 31.3401 6.05694C31.309 6.01324 31.2773 5.96991 31.2452 5.92696C31.213 5.88398 31.1803 5.8414 31.147 5.79924C31.1137 5.75704 31.0799 5.71525 31.0456 5.67387C31.0113 5.63249 30.9764 5.59151 30.9411 5.55095C30.9057 5.51038 30.8698 5.47024 30.8334 5.43053C30.7971 5.39082 30.7602 5.35154 30.7228 5.31271C30.6854 5.27388 30.6475 5.23549 30.6092 5.19754C30.5708 5.15959 30.532 5.1221 30.4927 5.08506C30.4534 5.04803 30.4136 5.01147 30.3734 4.97538C30.3331 4.9393 30.2924 4.90369 30.2513 4.86858C30.2102 4.83345 30.1686 4.79882 30.1266 4.76468C30.0846 4.73053 30.0421 4.6969 29.9993 4.66376C29.9564 4.63062 29.9131 4.598 29.8694 4.56588C29.8257 4.53377 29.7816 4.50218 29.7372 4.47111C29.6926 4.44004 29.6477 4.4095 29.6025 4.37949C29.5572 4.34948 29.5116 4.32001 29.4656 4.29108C29.4195 4.26215 29.3732 4.23377 29.3264 4.20594C29.2797 4.17811 29.2326 4.15083 29.1852 4.12411C29.1377 4.09739 29.09 4.07124 29.0419 4.04565Z" fill="white"/>
<path d="M15.2609 9.52294C16.8865 9.50244 17.8949 10.0084 19.1761 10.8923C19.3483 11.4897 19.5796 12.074 19.7933 12.6582C20.2314 13.8558 20.6963 15.0499 21.1115 16.2546C19.3253 17.2567 17.7243 18.6421 16.8116 20.4638L16.1672 20.2159L13.1939 19.1382C12.5728 18.9126 11.8717 18.5895 11.2136 18.5011C11.1348 17.9124 10.8629 17.6579 10.5861 17.1586C10.5422 17.0798 10.5007 16.9999 10.4613 16.919C10.422 16.838 10.385 16.7561 10.3503 16.6732C10.3155 16.5903 10.2832 16.5066 10.2532 16.422C10.2232 16.3374 10.1956 16.2521 10.1704 16.166C10.1452 16.08 10.1224 15.9934 10.1021 15.9061C10.0817 15.8189 10.0638 15.7312 10.0484 15.643C10.0331 15.5549 10.0202 15.4664 10.0097 15.3775C9.99931 15.2887 9.99139 15.1996 9.98597 15.1104C9.89568 13.7048 10.3469 12.2843 11.3261 11.2262C12.3529 10.1166 13.7442 9.59918 15.2609 9.52294Z" fill="black"/>
<path d="M36.1968 9.59544C37.059 9.4759 38.1422 9.7136 38.9193 10.0691C38.9603 10.0883 39.001 10.108 39.0415 10.1281C39.0819 10.1483 39.1221 10.1689 39.162 10.19C39.202 10.2111 39.2416 10.2327 39.281 10.2547C39.3205 10.2768 39.3596 10.2993 39.3984 10.3222C39.4372 10.3452 39.4758 10.3686 39.514 10.3924C39.5523 10.4162 39.5902 10.4405 39.6278 10.4653C39.6655 10.49 39.7028 10.5152 39.7398 10.5408C39.7768 10.5664 39.8135 10.5925 39.8499 10.6189C39.8862 10.6454 39.9222 10.6723 39.9579 10.6996C39.9936 10.7269 40.0289 10.7546 40.0639 10.7828C40.0989 10.8109 40.1335 10.8394 40.1678 10.8684C40.2021 10.8973 40.2359 10.9267 40.2695 10.9564C40.303 10.9862 40.3362 11.0163 40.3689 11.0468C40.4017 11.0773 40.4341 11.1082 40.4661 11.1395C40.4981 11.1708 40.5297 11.2024 40.5609 11.2344C40.5921 11.2664 40.6229 11.2988 40.6533 11.3315C40.6837 11.3643 40.7136 11.3973 40.7432 11.4308C40.7728 11.4642 40.8019 11.498 40.8306 11.5321C40.8593 11.5662 40.8876 11.6007 40.9155 11.6354C40.9433 11.6702 40.9707 11.7053 40.9977 11.7408C41.0247 11.7762 41.0512 11.8119 41.0773 11.8479C41.1034 11.884 41.129 11.9203 41.1541 11.9569C41.1793 11.9936 41.204 12.0305 41.2282 12.0677C41.2524 12.1049 41.2762 12.1424 41.2995 12.1802C41.3228 12.218 41.3456 12.256 41.368 12.2943C41.3903 12.3326 41.4122 12.3712 41.4335 12.41C41.4549 12.4488 41.4758 12.4879 41.4962 12.5272C41.5166 12.5665 41.5364 12.606 41.5558 12.6458C41.5752 12.6856 41.5942 12.7256 41.6126 12.7658C41.631 12.806 41.6488 12.8464 41.6662 12.887C41.6836 12.9277 41.7005 12.9685 41.7168 13.0095C41.7332 13.0506 41.749 13.0918 41.7644 13.1332C41.7789 13.1728 41.793 13.2127 41.8065 13.2526C41.82 13.2927 41.8331 13.3328 41.8456 13.3731C41.8581 13.4134 41.8701 13.4539 41.8817 13.4945C41.8932 13.5351 41.9042 13.5758 41.9146 13.6166C41.9251 13.6575 41.9351 13.6984 41.9445 13.7395C41.9539 13.7806 41.9628 13.8218 41.9712 13.8631C41.9797 13.9044 41.9876 13.9458 41.9949 13.9873C42.0022 14.0287 42.0091 14.0703 42.0154 14.1119C42.0217 14.1536 42.0274 14.1953 42.0327 14.2371C42.0379 14.2788 42.0427 14.3207 42.0469 14.3625C42.051 14.4044 42.0547 14.4464 42.0578 14.4884C42.061 14.5303 42.0636 14.5723 42.0656 14.6144C42.0677 14.6564 42.0692 14.6984 42.0702 14.7405C42.0712 14.7826 42.0717 14.8247 42.0716 14.8668C42.0716 14.9088 42.071 14.9509 42.0699 14.993C42.0687 15.035 42.0671 15.0771 42.0649 15.1191C42.0627 15.1612 42.06 15.2032 42.0568 15.2451C42.0535 15.2871 42.0497 15.329 42.0454 15.3709C42.0411 15.4128 42.0363 15.4546 42.0309 15.4964C42.0255 15.5381 42.0196 15.5798 42.0132 15.6214C42.0068 15.6631 41.9998 15.7046 41.9924 15.7461C41.9849 15.7875 41.9769 15.8289 41.9684 15.8702C41.9599 15.9114 41.9509 15.9526 41.9413 15.9936C41.9317 16.0347 41.9217 16.0756 41.9111 16.1164C41.9005 16.1573 41.8894 16.198 41.8777 16.2385C41.8661 16.2791 41.854 16.3195 41.8413 16.3598C41.8287 16.4001 41.8156 16.4402 41.8019 16.4802C41.7882 16.5201 41.7741 16.5599 41.7594 16.5995C41.7447 16.6392 41.7296 16.6786 41.7139 16.7179C41.6983 16.7572 41.6821 16.7962 41.6655 16.8351C41.6488 16.874 41.6317 16.9127 41.614 16.9512C41.5964 16.9897 41.5783 17.028 41.5597 17.066C41.3221 17.5429 40.8308 18.3273 40.3873 18.6419C40.1319 18.8231 39.5302 18.9628 39.2066 19.0748C38.2589 19.4068 37.3089 19.7326 36.3566 20.0522C35.9555 20.1869 35.5482 20.3045 35.1461 20.437C34.9273 20.0948 34.728 19.7439 34.4892 19.4135C33.5651 18.1354 32.2921 16.9778 30.8401 16.28C31.181 15.2175 31.6281 14.1738 32.035 13.1332C32.2839 12.4964 32.4932 11.8256 32.7722 11.2024C32.8058 11.1274 32.8354 11.0703 32.8914 11.0085C33.033 10.8525 33.2146 10.7223 33.3873 10.6006C33.4384 10.5645 33.4901 10.5294 33.5424 10.495C33.5946 10.4607 33.6475 10.4273 33.7011 10.3948C33.7545 10.3622 33.8086 10.3306 33.8632 10.2999C33.9178 10.2691 33.973 10.2393 34.0287 10.2104C34.0844 10.1815 34.1406 10.1535 34.1973 10.1265C34.254 10.0995 34.3112 10.0734 34.3688 10.0483C34.4264 10.0232 34.4845 9.99904 34.543 9.97586C34.6015 9.95269 34.6604 9.93049 34.7197 9.90928C34.779 9.88806 34.8386 9.86785 34.8986 9.84863C34.9587 9.82941 35.019 9.8112 35.0797 9.79401C35.1403 9.77678 35.2013 9.76059 35.2625 9.74542C35.3238 9.73025 35.3853 9.7161 35.447 9.70296C35.5088 9.68985 35.5707 9.67777 35.6329 9.66673C35.6951 9.65568 35.7574 9.64566 35.82 9.63667C35.8825 9.62771 35.9452 9.6198 36.008 9.61294C36.0709 9.60604 36.1338 9.60021 36.1968 9.59544Z" fill="black"/>
<path d="M35.1322 29.698C35.5577 29.8034 35.9754 30.0069 36.3842 30.1611L38.942 31.1285C39.5051 31.3413 40.0728 31.58 40.6572 31.7307C40.8429 32.0227 41.0561 32.2982 41.244 32.5889C41.2903 32.6615 41.3348 32.7351 41.3775 32.8097C41.4203 32.8843 41.4612 32.9598 41.5003 33.0363C41.5394 33.1127 41.5766 33.19 41.612 33.2681C41.6474 33.3463 41.6809 33.4251 41.7125 33.5047C41.7441 33.5843 41.7737 33.6646 41.8014 33.7456C41.8291 33.8266 41.8548 33.9081 41.8786 33.9902C41.9023 34.0723 41.9241 34.1549 41.9439 34.238C41.9637 34.3211 41.9815 34.4046 41.9973 34.4884C42.0052 34.5306 42.0127 34.5729 42.0195 34.6153C42.0264 34.6577 42.0328 34.7001 42.0386 34.7427C42.0444 34.7852 42.0496 34.8278 42.0543 34.8704C42.059 34.9131 42.0632 34.9558 42.0668 34.9986C42.0704 35.0413 42.0735 35.0841 42.076 35.1269C42.0785 35.1697 42.0804 35.2126 42.0818 35.2554C42.0832 35.2983 42.0841 35.3412 42.0844 35.3841C42.0847 35.427 42.0844 35.4698 42.0836 35.5127C42.0828 35.5556 42.0815 35.5985 42.0796 35.6413C42.0777 35.6842 42.0752 35.7271 42.0722 35.7698C42.0692 35.8126 42.0657 35.8554 42.0615 35.8981C42.0574 35.9408 42.0528 35.9835 42.0476 36.0261C42.0424 36.0687 42.0367 36.1112 42.0304 36.1537C42.0241 36.1961 42.0172 36.2385 42.0098 36.2808C42.0025 36.3231 41.9945 36.3653 41.9861 36.4074C41.9776 36.4495 41.9686 36.4915 41.9591 36.5334C41.9495 36.5753 41.9394 36.617 41.9288 36.6587C41.9182 36.7004 41.907 36.7419 41.8953 36.7833C41.8837 36.8246 41.8714 36.8659 41.8587 36.907C41.8459 36.948 41.8327 36.989 41.8189 37.0297C41.805 37.0705 41.7907 37.1111 41.7759 37.1516C41.761 37.192 41.7457 37.2322 41.7298 37.2723C41.7139 37.3124 41.6975 37.3522 41.6806 37.3919C41.6637 37.4315 41.6463 37.471 41.6284 37.5102C41.6105 37.5495 41.5921 37.5885 41.5731 37.6273C41.5542 37.6661 41.5348 37.7047 41.5149 37.7431C41.495 37.7814 41.4746 37.8195 41.4537 37.8574C41.4328 37.8952 41.4114 37.9328 41.3896 37.9701C41.3677 38.0075 41.3453 38.0446 41.3225 38.0814C41.2997 38.1182 41.2765 38.1547 41.2527 38.191C41.229 38.2272 41.2048 38.2632 41.1801 38.2988C41.1554 38.3345 41.1303 38.3699 41.1047 38.4049C40.2577 39.5665 39.0693 40.2585 37.6251 40.497C35.9252 40.7596 34.2941 40.2809 32.9009 39.3425C32.2888 37.4874 31.384 35.7493 30.6791 33.9306C32.6159 32.9359 34.1143 31.5985 35.1322 29.698Z" fill="black"/>
<path d="M16.8649 29.7601C16.9593 29.7671 17.1591 30.1719 17.2297 30.2761C18.2528 31.7857 19.6067 33.0198 21.2644 33.8635C20.5814 35.7209 19.727 37.5156 19.1658 39.4153C18.8135 39.596 18.4443 39.7549 18.0813 39.9144C16.8298 40.4647 15.8656 40.7298 14.4667 40.5494C13.7356 40.4202 13.0613 40.1832 12.4349 39.7917C11.1873 39.0121 10.3438 37.8478 10.0414 36.4415C9.68114 34.7657 10.208 33.1796 11.1543 31.7793C11.7946 31.6296 12.4331 31.3393 13.0523 31.1193L16.8649 29.7601Z" fill="black"/>
<path d="M25.5586 15.6265C25.567 15.6255 25.5753 15.624 25.5837 15.6235C25.9475 15.5975 26.329 15.6175 26.6925 15.6435C26.7606 15.6485 26.8286 15.6542 26.8966 15.6606C26.9646 15.667 27.0324 15.6741 27.1002 15.6819C27.1681 15.6896 27.2358 15.6981 27.3034 15.7072C27.3711 15.7162 27.4386 15.726 27.506 15.7365C27.5734 15.7469 27.6407 15.758 27.7079 15.7698C27.7751 15.7816 27.8422 15.794 27.9091 15.8071C27.976 15.8202 28.0427 15.834 28.1094 15.8485C28.176 15.8629 28.2425 15.878 28.3088 15.8938C28.3751 15.9095 28.4412 15.9259 28.5072 15.943C28.5731 15.9601 28.6389 15.9778 28.7045 15.9962C28.77 16.0146 28.8354 16.0336 28.9006 16.0533C28.9658 16.073 29.0307 16.0933 29.0954 16.1143C29.1602 16.1353 29.2247 16.1569 29.289 16.1792C29.3533 16.2014 29.4173 16.2243 29.4811 16.2479C29.5448 16.2714 29.6084 16.2956 29.6716 16.3204C29.7349 16.3451 29.7979 16.3706 29.8607 16.3966C29.9234 16.4227 29.9858 16.4493 30.048 16.4766C30.1101 16.5039 30.172 16.5318 30.2335 16.5603C30.2951 16.5889 30.3564 16.618 30.4173 16.6477C30.4783 16.6775 30.5389 16.7078 30.5992 16.7387C30.6595 16.7697 30.7194 16.8012 30.7791 16.8334C30.8387 16.8655 30.898 16.8982 30.9569 16.9315C31.0158 16.9648 31.0744 16.9987 31.1326 17.0332C31.1908 17.0677 31.2486 17.1028 31.3061 17.1384C31.3635 17.174 31.4206 17.2102 31.4773 17.247C31.5339 17.2837 31.5902 17.321 31.6461 17.3589C31.702 17.3968 31.7575 17.4353 31.8126 17.4742C31.8676 17.5132 31.9223 17.5528 31.9765 17.5929C32.0307 17.6329 32.0845 17.6735 32.1379 17.7146C32.1912 17.7558 32.2442 17.7975 32.2966 17.8397C32.3491 17.8819 32.4011 17.9246 32.4527 17.9678C32.5042 18.011 32.5553 18.0547 32.6059 18.099C32.664 18.1508 32.7215 18.2033 32.7782 18.2565C32.835 18.3097 32.8911 18.3635 32.9465 18.418C33.0019 18.4725 33.0566 18.5277 33.1106 18.5835C33.1646 18.6393 33.2179 18.6957 33.2705 18.7527C33.3231 18.8097 33.375 18.8674 33.4261 18.9257C33.4772 18.9839 33.5276 19.0428 33.5772 19.1022C33.6269 19.1617 33.6758 19.2217 33.7239 19.2823C33.772 19.3429 33.8194 19.4041 33.866 19.4658C33.9126 19.5275 33.9584 19.5898 34.0034 19.6526C34.0484 19.7154 34.0926 19.7787 34.136 19.8425C34.1794 19.9063 34.222 19.9707 34.2638 20.0355C34.3056 20.1004 34.3466 20.1657 34.3867 20.2315C34.4268 20.2973 34.4661 20.3636 34.5046 20.4303C34.5431 20.497 34.5807 20.5642 34.6174 20.6318C34.6542 20.6994 34.6901 20.7675 34.7251 20.836C34.7602 20.9044 34.7944 20.9733 34.8277 21.0425C34.861 21.1118 34.8934 21.1814 34.925 21.2515C34.9565 21.3215 34.9872 21.3919 35.017 21.4627C35.0467 21.5334 35.0756 21.6045 35.1036 21.6759C35.1316 21.7473 35.1586 21.8191 35.1848 21.8912C35.211 21.9632 35.2362 22.0356 35.2606 22.1082C35.2849 22.1809 35.3083 22.2538 35.3308 22.3271C35.3533 22.4003 35.3749 22.4737 35.3955 22.5474C35.4162 22.6212 35.4359 22.6952 35.4546 22.7694C35.4734 22.8435 35.4912 22.9179 35.5081 22.9925C35.525 23.0671 35.5409 23.1419 35.556 23.2169C35.571 23.2919 35.585 23.367 35.5981 23.4423C35.6112 23.5177 35.6234 23.5931 35.6346 23.6687C35.6458 23.7443 35.656 23.82 35.6653 23.8959C35.6746 23.9717 35.6829 24.0476 35.6903 24.1237C35.6976 24.1997 35.704 24.2758 35.7095 24.352C35.7149 24.4282 35.7194 24.5044 35.7229 24.5807C35.8278 27.1539 34.9721 29.6137 33.1461 31.5097C33.0916 31.5654 33.0366 31.6204 32.9808 31.6748C32.925 31.7292 32.8685 31.7829 32.8114 31.8359C32.7542 31.8889 32.6964 31.9413 32.6379 31.993C32.5795 32.0446 32.5203 32.0956 32.4606 32.1458C32.4008 32.1961 32.3404 32.2457 32.2794 32.2945C32.2183 32.3433 32.1567 32.3914 32.0944 32.4388C32.0322 32.4862 31.9694 32.5329 31.9059 32.5788C31.8425 32.6247 31.7785 32.6698 31.7139 32.7142C31.6493 32.7586 31.5842 32.8022 31.5185 32.845C31.4528 32.8879 31.3866 32.9299 31.3199 32.9712C31.2531 33.0124 31.1858 33.0529 31.1181 33.0926C31.0503 33.1323 30.982 33.1712 30.9133 33.2093C30.8445 33.2473 30.7752 33.2846 30.7055 33.321C30.6358 33.3574 30.5656 33.393 30.495 33.4278C30.4244 33.4626 30.3534 33.4965 30.2819 33.5296C30.2104 33.5627 30.1385 33.5949 30.0663 33.6263C29.994 33.6577 29.9213 33.6882 29.8482 33.7179C29.7752 33.7476 29.7017 33.7764 29.6279 33.8043C29.5541 33.8322 29.48 33.8593 29.4055 33.8855C29.331 33.9117 29.2562 33.937 29.1811 33.9614C29.1059 33.9858 29.0305 34.0093 28.9548 34.0319C28.8791 34.0546 28.8031 34.0763 28.7268 34.0971C28.6505 34.1179 28.574 34.1379 28.4972 34.1569C28.4205 34.1759 28.3434 34.194 28.2662 34.2112C28.1889 34.2284 28.1115 34.2447 28.0339 34.2601C27.9562 34.2754 27.8783 34.2899 27.8003 34.3034C27.7223 34.3169 27.6441 34.3295 27.5658 34.3412C27.4875 34.3529 27.409 34.3636 27.3304 34.3734C27.2518 34.3833 27.173 34.3922 27.0942 34.4001C27.0154 34.408 26.9364 34.4151 26.8574 34.4212C26.7784 34.4273 26.6993 34.4324 26.6202 34.4366C26.541 34.4408 26.4618 34.4441 26.3826 34.4465C23.9186 34.5904 21.3703 33.6461 19.5237 32.0933C19.4643 32.0435 19.4055 31.9931 19.3474 31.9419C19.2893 31.8907 19.2318 31.8389 19.1751 31.7864C19.1183 31.7338 19.0621 31.6806 19.0067 31.6268C18.9512 31.5729 18.8965 31.5184 18.8424 31.4632C18.7883 31.4081 18.735 31.3523 18.6823 31.2959C18.6297 31.2394 18.5778 31.1824 18.5265 31.1247C18.4753 31.0671 18.4249 31.0089 18.3752 30.95C18.3254 30.8912 18.2765 30.8317 18.2282 30.7718C18.18 30.7118 18.1326 30.6512 18.0859 30.5901C18.0393 30.5289 17.9934 30.4673 17.9482 30.4051C17.9031 30.3429 17.8588 30.2801 17.8153 30.2168C17.7718 30.1536 17.7291 30.0898 17.6872 30.0256C17.6453 29.9613 17.6042 29.8966 17.5639 29.8313C17.5237 29.7661 17.4843 29.7004 17.4457 29.6342C17.4071 29.568 17.3693 29.5014 17.3324 29.4343C17.2955 29.3673 17.2595 29.2998 17.2243 29.2318C17.1891 29.1639 17.1548 29.0956 17.1213 29.0269C17.0879 28.9581 17.0553 28.889 17.0236 28.8195C16.9919 28.75 16.9611 28.6801 16.9312 28.6099C16.9013 28.5397 16.8722 28.4691 16.8441 28.3982C16.816 28.3273 16.7888 28.256 16.7624 28.1845C16.7361 28.1129 16.7107 28.041 16.6862 27.9689C16.6617 27.8967 16.6381 27.8243 16.6154 27.7516C16.5928 27.6788 16.5711 27.6059 16.5502 27.5326C16.5294 27.4594 16.5096 27.3859 16.4906 27.3122C16.4717 27.2385 16.4537 27.1646 16.4366 27.0904C16.4195 27.0163 16.4034 26.942 16.3882 26.8675C16.373 26.793 16.3588 26.7183 16.3455 26.6434C16.3323 26.5686 16.3199 26.4936 16.3085 26.4184C16.2971 26.3433 16.2867 26.268 16.2772 26.1926C16.2678 26.1173 16.2593 26.0418 16.2517 25.9662C16.2442 25.8906 16.2376 25.8149 16.2319 25.7392C16.2261 25.6608 16.2213 25.5823 16.2175 25.5037C16.2136 25.4252 16.2108 25.3466 16.209 25.268C16.2072 25.1894 16.2064 25.1107 16.2066 25.0321C16.2068 24.9535 16.2081 24.8749 16.2103 24.7963C16.2125 24.7177 16.2158 24.6391 16.2201 24.5606C16.2243 24.4821 16.2296 24.4036 16.2358 24.3252C16.2421 24.2468 16.2494 24.1685 16.2577 24.0903C16.266 24.0121 16.2753 23.934 16.2856 23.856C16.2959 23.778 16.3072 23.7001 16.3195 23.6224C16.3318 23.5447 16.3451 23.4671 16.3594 23.3897C16.3737 23.3123 16.389 23.2351 16.4053 23.158C16.4215 23.081 16.4388 23.0041 16.457 22.9275C16.4753 22.8509 16.4945 22.7745 16.5147 22.6983C16.535 22.6222 16.5562 22.5462 16.5784 22.4706C16.6005 22.3949 16.6236 22.3195 16.6478 22.2444C16.6719 22.1693 16.697 22.0945 16.723 22.02C16.749 21.9455 16.776 21.8713 16.8039 21.7975C16.8319 21.7236 16.8608 21.6501 16.8906 21.5769C16.9204 21.5038 16.9512 21.431 16.9829 21.3586C17.0146 21.2861 17.0472 21.2141 17.0808 21.1424C17.1143 21.0708 17.1488 20.9996 17.1842 20.9288C17.2196 20.8579 17.2559 20.7875 17.2931 20.7176C17.3303 20.6476 17.3684 20.5782 17.4073 20.5091C17.4463 20.4401 17.4861 20.3715 17.5269 20.3034C17.5677 20.2353 17.6093 20.1678 17.6517 20.1007C17.6942 20.0336 17.7376 19.9671 17.7818 19.901C17.826 19.835 17.871 19.7695 17.9169 19.7045C17.9627 19.6395 18.0094 19.5751 18.057 19.5113C18.1045 19.4474 18.1529 19.3842 18.202 19.3215C18.2512 19.2588 18.3012 19.1967 18.3519 19.1352C18.4026 19.0737 18.4542 19.0128 18.5065 18.9526C18.5588 18.8923 18.6119 18.8327 18.6658 18.7737C20.4319 16.8376 22.9163 15.7868 25.5586 15.6265Z" fill="black"/>
<path d="M26.5325 17.4414C26.7241 17.4328 26.9311 17.41 27.1215 17.4284C27.3203 17.4475 27.4027 17.5095 27.5298 17.6537C27.5861 17.9566 27.5857 18.2864 27.6001 18.5939C27.6301 19.2334 27.6375 19.886 27.7052 20.5223C28.0221 20.2072 29.4951 18.6928 29.7839 18.6547C29.9785 18.6291 30.1345 18.6908 30.2816 18.8087C30.6501 19.1042 30.9879 19.4511 31.3324 19.7728C31.5654 19.9903 31.8538 20.213 32.0437 20.4633C32.1016 20.5397 32.1306 20.6391 32.1372 20.7326C32.1431 20.8161 32.1356 20.93 32.0921 21.0043C31.9552 21.2382 31.6678 21.4563 31.4735 21.6505C31.0428 22.0809 30.5982 22.5078 30.1986 22.9651C30.8546 22.9319 31.5144 22.9444 32.1712 22.9409C32.5456 22.9389 32.9674 22.9019 33.3365 22.9555C33.4188 22.9674 33.4906 22.9993 33.5511 23.0548C33.6947 23.1865 33.673 23.4401 33.6746 23.6175C33.6794 24.1572 33.6737 24.6974 33.6718 25.2371C33.6708 25.5269 33.6968 25.8452 33.649 26.1304C33.6362 26.2072 33.6084 26.2653 33.5492 26.3193C33.4597 26.4011 33.3355 26.4194 33.2178 26.4341C32.8754 26.4768 32.4991 26.4507 32.1532 26.4521L30.2821 26.4681C30.7654 26.9151 31.2309 27.3798 31.7069 27.8339C31.9528 28.0686 32.2708 28.3106 32.4691 28.5824C32.5178 28.6491 32.5358 28.7131 32.5395 28.7945C32.547 28.9586 32.4687 29.076 32.3599 29.1941C32.0606 29.5193 31.7371 29.83 31.4276 30.1466C31.149 30.4319 30.8606 30.7817 30.5332 31.0117C30.5134 31.0254 30.4927 31.0376 30.4711 31.0484C30.4494 31.0591 30.427 31.0682 30.4039 31.0757C30.3809 31.0831 30.3573 31.0889 30.3334 31.0929C30.3094 31.097 30.2852 31.0993 30.2609 31.0998C30.1646 31.1027 30.0631 31.0778 29.9833 31.0249C29.7109 30.8441 29.4766 30.5804 29.2374 30.3604C28.7754 29.9413 28.3166 29.5187 27.8613 29.0928C27.9261 29.5694 27.8991 30.0679 27.9118 30.5488C27.9239 31.0035 27.9884 31.5126 27.9311 31.9609C27.9094 32.1303 27.8111 32.2047 27.6771 32.3031C27.3629 32.3461 27.0389 32.3399 26.7219 32.3473L25.3658 32.3816C25.0874 32.3885 24.6672 32.4487 24.4253 32.3115C24.3585 32.2294 24.3317 32.1456 24.3115 32.0434C24.252 31.7431 24.2547 31.4071 24.2333 31.1008C24.1883 30.4913 24.1485 29.8816 24.1138 29.2715C23.638 29.6881 23.1821 30.1293 22.7234 30.5635C22.5018 30.7734 22.275 31.0239 22.0256 31.2009C21.9813 31.2324 21.9224 31.2474 21.8686 31.2555C21.745 31.274 21.6263 31.253 21.5283 31.1765C21.1618 30.8906 20.827 30.5181 20.492 30.1953C20.1814 29.8959 19.8 29.5874 19.5376 29.2508C19.4876 29.1867 19.4609 29.0956 19.4543 29.0167C19.446 28.9165 19.4647 28.8042 19.5195 28.7177C19.6919 28.4453 20.0056 28.2091 20.241 27.9821C20.6547 27.5832 21.0729 27.1833 21.4636 26.7633C20.5546 26.8006 19.6272 26.8362 18.7175 26.835C18.5619 26.8349 18.4101 26.8171 18.2988 26.7003C18.2295 26.6278 18.2097 26.523 18.1947 26.429C18.1452 26.1214 18.1622 25.792 18.1443 25.4804C18.1069 24.8269 18.0506 24.168 18.0505 23.5135C18.0839 23.467 18.1173 23.4193 18.155 23.3759C18.1963 23.3286 18.2522 23.2854 18.3153 23.2703C18.6552 23.1892 19.095 23.2246 19.4489 23.2141C20.1221 23.1952 20.7952 23.17 21.468 23.1387C21.1158 22.81 19.4784 21.307 19.4303 20.9702C19.4104 20.8312 19.4778 20.6848 19.5723 20.5831C19.774 20.3661 20.0277 20.1716 20.2431 19.9632C20.5692 19.6477 20.9827 19.1754 21.3364 18.9139C21.4169 18.8544 21.4985 18.8251 21.6003 18.8251C21.6829 18.8251 21.783 18.8424 21.8547 18.8839C22.1211 19.0383 22.3631 19.323 22.5871 19.5332C23.0173 19.9395 23.4502 20.3432 23.8859 20.7441C23.8912 20.1009 23.869 19.4571 23.8668 18.8139C23.8658 18.5289 23.8407 18.2159 23.8877 17.9348C23.9066 17.8217 23.9414 17.6768 24.0258 17.5907C24.1601 17.4539 26.2064 17.4524 26.5325 17.4414Z" fill="white"/>
<path d="M25.5841 21.8278C26.3237 21.7459 27.1847 22.0026 27.7773 22.4289C27.8194 22.459 27.8607 22.4902 27.9012 22.5222C27.9417 22.5543 27.9814 22.5874 28.0202 22.6214C28.0591 22.6554 28.097 22.6903 28.134 22.7261C28.171 22.7619 28.2071 22.7986 28.2423 22.8361C28.2775 22.8737 28.3116 22.912 28.3448 22.9512C28.3779 22.9904 28.4101 23.0303 28.4412 23.071C28.4723 23.1118 28.5024 23.1532 28.5314 23.1954C28.5604 23.2376 28.5883 23.2804 28.615 23.3238C28.6418 23.3673 28.6675 23.4115 28.692 23.4562C28.7165 23.5009 28.7399 23.5462 28.7621 23.592C28.7843 23.6379 28.8053 23.6842 28.8251 23.7311C28.8449 23.7779 28.8635 23.8252 28.8809 23.8729C28.8983 23.9207 28.9144 23.9688 28.9293 24.0173C28.9443 24.0658 28.9579 24.1147 28.9703 24.1639C28.9827 24.213 28.9938 24.2625 29.0037 24.3121C29.0136 24.3619 29.0221 24.4118 29.0294 24.4619C29.0372 24.5112 29.0437 24.5606 29.0489 24.6102C29.0541 24.6598 29.058 24.7095 29.0607 24.7593C29.0633 24.8091 29.0647 24.8589 29.0648 24.9087C29.0648 24.9586 29.0636 25.0085 29.0612 25.0582C29.0587 25.1081 29.0549 25.1578 29.0498 25.2074C29.0448 25.257 29.0385 25.3064 29.0309 25.3558C29.0233 25.4051 29.0145 25.4542 29.0043 25.503C28.9942 25.5519 28.9828 25.6006 28.9702 25.6489C28.9576 25.6972 28.9438 25.7453 28.9287 25.793C28.9136 25.8406 28.8973 25.8879 28.8797 25.9348C28.8622 25.9817 28.8435 26.0281 28.8236 26.0741C28.8036 26.1201 28.7825 26.1656 28.7603 26.2106C28.738 26.2556 28.7146 26.3 28.6901 26.3439C28.6655 26.3877 28.6398 26.431 28.613 26.4736C28.5862 26.5162 28.5584 26.5582 28.5294 26.5995C28.5005 26.6407 28.4705 26.6813 28.4395 26.7211C27.8836 27.4348 27.1278 27.8207 26.2236 27.9453C25.3952 27.9789 24.6133 27.7969 23.9467 27.3033C23.9041 27.2719 23.8624 27.2396 23.8214 27.2063C23.7806 27.173 23.7405 27.1387 23.7013 27.1034C23.6621 27.0682 23.6239 27.032 23.5866 26.995C23.5492 26.9579 23.5129 26.92 23.4775 26.8812C23.4421 26.8424 23.4077 26.8028 23.3743 26.7624C23.3409 26.722 23.3086 26.6808 23.2774 26.6388C23.2461 26.5969 23.2159 26.5542 23.1868 26.5108C23.1578 26.4674 23.1298 26.4233 23.1029 26.3786C23.0761 26.3339 23.0504 26.2885 23.0259 26.2426C23.0014 26.1966 22.978 26.1501 22.9559 26.1031C22.9337 26.056 22.9128 26.0084 22.8931 25.9604C22.8734 25.9123 22.8549 25.8638 22.8377 25.8149C22.8204 25.7659 22.8044 25.7166 22.7897 25.6669C22.775 25.6172 22.7615 25.5672 22.7494 25.5169C22.7372 25.4665 22.7263 25.4159 22.7167 25.3651C22.7071 25.3142 22.6988 25.2631 22.6919 25.2119C22.6856 25.1631 22.6806 25.1141 22.6768 25.0651C22.673 25.016 22.6705 24.9669 22.6693 24.9177C22.6681 24.8685 22.6681 24.8193 22.6694 24.7701C22.6706 24.721 22.6731 24.6719 22.6769 24.6228C22.6807 24.5737 22.6858 24.5248 22.6921 24.476C22.6984 24.4271 22.7059 24.3785 22.7147 24.33C22.7235 24.2816 22.7335 24.2333 22.7448 24.1854C22.7561 24.1374 22.7686 24.0897 22.7823 24.0423C22.796 23.9949 22.8109 23.9479 22.827 23.9012C22.8431 23.8545 22.8604 23.8083 22.8789 23.7625C22.8974 23.7166 22.917 23.6712 22.9379 23.6263C22.9586 23.5814 22.9806 23.537 23.0037 23.4932C23.0268 23.4493 23.0509 23.406 23.0762 23.3633C23.1016 23.3206 23.1279 23.2786 23.1554 23.2371C23.1829 23.1957 23.2114 23.1549 23.2409 23.1148C23.2705 23.0748 23.301 23.0354 23.3326 22.9968C23.8892 22.3133 24.6981 21.9256 25.5841 21.8278Z" fill="black"/>
</g>
<defs>
<clipPath id="clip0_220_223">
<path d="M0 8C0 3.58172 3.58172 0 8 0H44C48.4183 0 52 3.58172 52 8V42.2069C52 46.6252 48.4183 50.2069 44 50.2069H8C3.58172 50.2069 0 46.6252 0 42.2069V8Z" fill="white"/>
</clipPath>
</defs>
</svg>
