<svg width="182" height="182" viewBox="0 0 182 182" fill="none" xmlns="http://www.w3.org/2000/svg">
<g clip-path="url(#clip0_280_183)">
<path d="M0 0H182V182H0V0Z" fill="white"/>
<path d="M88.8355 11.6787C89.2326 11.6531 89.6302 11.6367 90.0282 11.6295C90.4262 11.6223 90.8242 11.6242 91.2221 11.6354C91.6199 11.6466 92.0174 11.6669 92.4143 11.6964C92.8112 11.7259 93.2073 11.7646 93.6025 11.8124C93.9976 11.8602 94.3915 11.9171 94.784 11.9832C95.1766 12.0492 95.5674 12.1242 95.9565 12.2083C96.3455 12.2923 96.7324 12.3853 97.1171 12.4873C97.502 12.5892 97.8842 12.7 98.2639 12.8196C105.14 15.0026 110.807 19.6398 114.131 26.0739C117.773 33.1248 117.626 40.4778 115.256 47.8894C117.545 49.1498 119.772 50.5422 122.079 51.7645C122.204 51.564 122.333 51.3662 122.467 51.1712C126.512 45.2676 132.981 40.9042 140.029 39.5822C147.329 38.213 155.301 39.645 161.445 43.8896C161.641 44.0241 161.834 44.1609 162.027 44.3C162.218 44.4392 162.409 44.5807 162.597 44.7244C162.786 44.8683 162.972 45.0144 163.157 45.1627C163.342 45.3111 163.525 45.4617 163.707 45.6145C163.888 45.7674 164.067 45.9224 164.245 46.0797C164.422 46.2369 164.598 46.3963 164.772 46.5578C164.945 46.7193 165.117 46.8828 165.286 47.0485C165.456 47.2143 165.623 47.382 165.789 47.5518C165.954 47.7216 166.118 47.8934 166.279 48.0671C166.441 48.2409 166.6 48.4166 166.757 48.5942C166.914 48.772 167.069 48.9516 167.221 49.133C167.374 49.3145 167.524 49.4978 167.672 49.6829C167.821 49.8679 167.966 50.0549 168.11 50.2436C168.254 50.4323 168.395 50.6227 168.534 50.8149C168.673 51.0069 168.809 51.2007 168.944 51.3962C169.078 51.5916 169.21 51.7887 169.339 51.9874C169.468 52.1861 169.595 52.3863 169.72 52.5881C169.844 52.7899 169.966 52.9932 170.086 53.1979C170.206 53.4027 170.323 53.6089 170.437 53.8166C170.552 54.0242 170.664 54.2332 170.773 54.4435C170.882 54.6539 170.989 54.8656 171.093 55.0785C171.198 55.2914 171.299 55.5057 171.398 55.7212C171.497 55.9366 171.594 56.1532 171.687 56.371C171.781 56.5888 171.872 56.8077 171.961 57.0277C172.049 57.2478 172.135 57.4689 172.218 57.691C172.301 57.9131 172.381 58.1362 172.458 58.3604C172.536 58.5844 172.611 58.8094 172.683 59.0352C172.755 59.2612 172.824 59.488 172.89 59.7156C172.957 59.9431 173.021 60.1714 173.082 60.4006C173.142 60.6297 173.201 60.8596 173.256 61.0902C173.311 61.3208 173.364 61.552 173.413 61.7839C173.463 62.0158 173.51 62.2482 173.554 62.4811C174.855 69.6106 173.309 77.3784 169.161 83.3444C164.298 90.3408 157.527 94.1313 149.233 95.5958C149.028 102.098 149.202 108.656 149.213 115.164C152.825 115.641 158.365 116.218 161.165 118.748C161.864 119.38 162.221 120.044 162.266 120.99C162.387 123.595 162.279 126.253 162.274 128.862L162.255 143.632V152.507C162.255 153.878 162.399 155.429 162.204 156.776C162.125 157.321 161.847 157.703 161.478 158.097C158.717 161.05 152.078 162.242 148.083 162.353C142.831 162.5 134.569 161.718 130.648 157.943C130.258 157.569 129.819 157.075 129.667 156.549C129.294 155.257 129.49 153.311 129.485 151.932C129.492 149.484 129.474 147.036 129.434 144.588C126.775 144.475 124.089 144.5 121.428 144.498C118.754 144.496 116.073 144.47 113.4 144.544L113.384 160.006L113.393 164.455C113.394 165.396 113.455 166.399 113.299 167.327C113.169 168.095 112.847 168.779 112.327 169.362C111.635 170.136 110.743 170.556 109.705 170.604C108.006 170.683 106.286 170.63 104.585 170.623C100.67 170.606 96.7563 170.52 92.84 170.561C88.0756 170.615 83.3112 170.636 78.5466 170.621C76.4486 170.621 74.163 170.813 72.0849 170.573C71.1609 170.466 70.3065 170.098 69.6276 169.451C69.1043 168.953 68.7153 168.167 68.5811 167.461C68.2713 165.829 68.4513 162.076 68.4503 160.174C68.4465 154.354 68.5359 148.528 68.4622 142.71C65.0573 142.693 61.6523 142.696 58.2473 142.719C57.5607 143.636 56.9825 144.636 56.298 145.559C53.6475 149.134 50.8292 151.489 46.9642 153.668C46.8639 153.721 46.7633 153.772 46.6622 153.823C40.2519 157.058 33.2593 157.375 26.4988 155.118C19.9301 152.924 14.5473 147.827 11.477 141.679C8.25692 135.23 8.03459 127.73 10.3254 120.955C10.3964 120.75 10.4699 120.545 10.5459 120.341C10.6219 120.137 10.7004 119.934 10.7813 119.732C10.8623 119.53 10.9457 119.329 11.0315 119.129C11.1173 118.929 11.2055 118.73 11.2962 118.533C11.3868 118.335 11.4798 118.138 11.5753 117.943C11.6707 117.747 11.7685 117.553 11.8686 117.36C11.9688 117.166 12.0712 116.974 12.176 116.784C12.2808 116.593 12.3879 116.404 12.4973 116.216C12.6067 116.027 12.7184 115.841 12.8323 115.655C12.9462 115.47 13.0624 115.286 13.1808 115.104C13.2992 114.921 13.4198 114.74 13.5426 114.56C13.6654 114.381 13.7903 114.202 13.9174 114.026C14.0445 113.849 14.1738 113.674 14.3052 113.501C14.4365 113.327 14.57 113.155 14.7055 112.985C14.841 112.815 14.9786 112.646 15.1182 112.48C15.2579 112.313 15.3995 112.148 15.5432 111.984C15.6868 111.821 15.8324 111.659 15.98 111.499C16.1275 111.339 16.277 111.181 16.4284 111.025C16.5798 110.869 16.7331 110.714 16.8882 110.562C17.0434 110.409 17.2004 110.258 17.3592 110.11C17.518 109.961 17.6785 109.814 17.8408 109.669C18.0033 109.524 18.1674 109.382 18.3332 109.241C18.4991 109.1 18.6666 108.961 18.8358 108.824C19.005 108.687 19.1759 108.553 19.3484 108.42C19.5209 108.287 19.695 108.157 19.8706 108.028C20.0462 107.9 20.2234 107.774 20.4022 107.65C20.5809 107.525 20.761 107.404 20.9427 107.284C21.1243 107.164 21.3074 107.047 21.492 106.931C21.6765 106.816 21.8624 106.703 22.0498 106.592C22.237 106.481 22.4256 106.373 22.6155 106.267C22.8054 106.16 22.9966 106.057 23.189 105.955C23.3815 105.853 23.5751 105.754 23.7699 105.657C23.9596 105.565 24.1503 105.475 24.3422 105.387C24.534 105.3 24.7269 105.214 24.9209 105.131C25.1147 105.048 25.3096 104.968 25.5056 104.89C25.7015 104.811 25.8983 104.735 26.0961 104.662C26.2938 104.589 26.4924 104.518 26.6918 104.449C26.8914 104.38 27.0917 104.314 27.2927 104.251C27.4938 104.187 27.6957 104.126 27.8983 104.067C28.1009 104.008 28.3042 103.952 28.5081 103.898C28.712 103.844 28.9166 103.793 29.1218 103.744C29.327 103.695 29.5328 103.649 29.7391 103.605C29.9455 103.561 30.1524 103.52 30.3597 103.481C30.5671 103.442 30.7748 103.406 30.983 103.372C31.1912 103.339 31.3998 103.307 31.6088 103.279C31.8179 103.25 32.0272 103.224 32.2368 103.201C32.4464 103.177 32.6563 103.156 32.8665 103.138C33.0766 103.119 33.2869 103.104 33.4974 103.09C33.7079 103.077 33.9185 103.066 34.1293 103.058C34.3401 103.05 34.5509 103.044 34.7618 103.041C34.9727 103.038 35.1837 103.038 35.3947 103.04C35.6057 103.042 35.8165 103.047 36.0273 103.054C36.2381 103.062 36.4488 103.071 36.6593 103.084C36.8699 103.096 37.0803 103.111 37.2905 103.129C37.5008 103.146 37.7107 103.167 37.9203 103.189C38.1301 103.212 38.3395 103.237 38.5486 103.265C38.7578 103.293 38.9665 103.323 39.1748 103.356C39.3832 103.389 39.5912 103.424 39.7986 103.462C40.0061 103.5 40.2131 103.541 40.4196 103.584C40.6262 103.627 40.8322 103.672 41.0376 103.72C41.243 103.768 41.4477 103.819 41.6519 103.872C41.856 103.925 42.0595 103.98 42.2624 104.038C42.4652 104.096 42.6673 104.157 42.8686 104.219C43.07 104.282 43.2705 104.348 43.4703 104.416C43.6769 104.486 43.8827 104.559 44.0875 104.635C44.2924 104.71 44.4963 104.789 44.6991 104.869C44.9021 104.95 45.1039 105.033 45.3047 105.119C45.5055 105.205 45.7053 105.293 45.904 105.383C46.1026 105.474 46.3 105.567 46.4964 105.663C46.6927 105.758 46.8879 105.856 47.0818 105.957C47.2757 106.057 47.4683 106.16 47.6596 106.265C47.851 106.371 48.041 106.478 48.2296 106.588C48.4183 106.698 48.6055 106.81 48.7914 106.925C48.9774 107.04 49.1618 107.156 49.3447 107.275C49.5277 107.395 49.7092 107.516 49.8891 107.64C50.0691 107.763 50.2475 107.889 50.4243 108.017C50.6012 108.146 50.7764 108.276 50.95 108.408C51.1236 108.541 51.2955 108.675 51.4658 108.812C51.6361 108.949 51.8046 109.088 51.9713 109.229C52.1381 109.37 52.3032 109.513 52.4665 109.658C52.6297 109.803 52.7912 109.949 52.9508 110.099C53.1103 110.248 53.268 110.399 53.4239 110.552C53.5797 110.705 53.7336 110.859 53.8857 111.016C54.0377 111.173 54.1877 111.332 54.3357 111.492C54.4838 111.653 54.6298 111.815 54.7738 111.979C54.9179 112.143 55.0599 112.309 55.1998 112.477C55.3396 112.644 55.4775 112.814 55.6132 112.985C55.7489 113.156 55.8824 113.329 56.0139 113.503C56.1453 113.677 56.2745 113.853 56.4015 114.031C56.5285 114.209 56.6533 114.388 56.776 114.568C56.8985 114.749 57.0188 114.931 57.137 115.115C57.255 115.299 57.3707 115.484 57.4842 115.671C57.5976 115.857 57.7087 116.045 57.8175 116.234C57.9264 116.424 58.0329 116.614 58.1369 116.806C58.2409 116.998 58.3426 117.191 58.4419 117.386C58.541 117.58 58.6379 117.776 58.7323 117.973C62.0014 124.716 62.161 132.356 59.7146 139.375L68.4408 139.351C68.5681 134.654 68.476 129.938 68.4833 125.239L68.4581 96.7788C65.2917 96.6889 62.1062 96.8792 58.9436 96.7045C57.8769 95.8091 56.9159 94.761 55.9417 93.7664C54.3863 92.1772 52.8402 90.5791 51.3034 88.972C46.8826 92.3326 41.2061 94.1585 35.6779 94.2975C35.4626 94.3026 35.2472 94.3051 35.0318 94.3049C34.8164 94.3048 34.601 94.3021 34.3856 94.2968C34.1703 94.2913 33.955 94.2833 33.7399 94.2726C33.5247 94.2619 33.3097 94.2487 33.0949 94.2328C32.88 94.2168 32.6655 94.1982 32.4511 94.1772C32.2368 94.1559 32.0227 94.1321 31.809 94.1057C31.5951 94.0793 31.3816 94.0502 31.1686 94.0186C30.9555 93.987 30.7429 93.9527 30.5307 93.9159C30.3184 93.879 30.1066 93.8396 29.8953 93.7977C29.684 93.7556 29.4733 93.711 29.2631 93.6639C29.053 93.6167 28.8435 93.5669 28.6345 93.5146C28.4254 93.4623 28.2171 93.4075 28.0095 93.3502C27.802 93.2927 27.5951 93.2327 27.3889 93.1703C27.1827 93.1078 26.9774 93.0429 26.7729 92.9753C26.5682 92.9079 26.3645 92.8379 26.1616 92.7654C25.9588 92.6929 25.7569 92.618 25.5559 92.5406C25.3549 92.4632 25.1548 92.3833 24.9557 92.301C24.7567 92.2186 24.5587 92.1339 24.3617 92.0468C24.1647 91.9596 23.9688 91.87 23.774 91.7781C23.5792 91.6862 23.3855 91.5918 23.193 91.4951C23.0005 91.3985 22.8093 91.2995 22.6192 91.1982C22.4292 91.0967 22.2404 90.993 22.0528 90.8871C21.8652 90.7811 21.679 90.6728 21.4942 90.5622C21.3093 90.4517 21.1258 90.3389 20.9437 90.224C20.7615 90.1089 20.5808 89.9917 20.4016 89.8723C20.2224 89.7528 20.0446 89.6312 19.8683 89.5074C19.692 89.3835 19.5172 89.2576 19.3441 89.1295C19.1709 89.0014 18.9993 88.8713 18.8292 88.739C18.6592 88.6067 18.4908 88.4723 18.3241 88.3359C18.1574 88.1995 17.9924 88.0611 17.8291 87.9207C17.6657 87.7802 17.5041 87.6378 17.3442 87.4935C17.1844 87.349 17.0263 87.2027 16.87 87.0545C11.482 81.9073 8.528 74.9748 8.37593 67.5471C8.3708 67.3281 8.36838 67.1091 8.36868 66.89C8.36898 66.6709 8.37201 66.4519 8.37774 66.2329C8.38349 66.014 8.39195 65.795 8.40312 65.5762C8.41431 65.3575 8.4282 65.1389 8.4448 64.9204C8.46141 64.702 8.48073 64.4838 8.50276 64.2658C8.52477 64.0479 8.5495 63.8303 8.57693 63.6129C8.60436 63.3955 8.63448 63.1785 8.66731 62.9619C8.70013 62.7453 8.73563 62.5292 8.7738 62.3135C8.81199 62.0978 8.85285 61.8825 8.89639 61.6678C8.93992 61.4531 8.98611 61.239 9.03495 61.0255C9.0838 60.812 9.1353 60.5991 9.18943 60.3867C9.24356 60.1745 9.30032 59.9629 9.3597 59.752C9.4191 59.5412 9.4811 59.3312 9.5457 59.1218C9.61031 58.9124 9.67751 58.7039 9.74729 58.4963C9.81707 58.2886 9.88942 58.0819 9.96434 57.876C10.0393 57.6702 10.1167 57.4654 10.1967 57.2614C10.2767 57.0574 10.3593 56.8545 10.4443 56.6527C10.5293 56.4508 10.6169 56.25 10.7069 56.0502C10.7969 55.8505 10.8894 55.652 10.9844 55.4546C11.0794 55.2572 11.1768 55.061 11.2766 54.8659C11.3764 54.6709 11.4787 54.4772 11.5833 54.2848C11.688 54.0923 11.795 53.9012 11.9044 53.7114C12.0138 53.5216 12.1255 53.3332 12.2396 53.1462C12.3537 52.9591 12.47 52.7735 12.5887 52.5894C12.7074 52.4052 12.8283 52.2226 12.9515 52.0416C13.0748 51.8604 13.2002 51.6808 13.3279 51.5029C13.4556 51.3248 13.5854 51.1483 13.7175 50.9736C13.8495 50.7988 13.9837 50.6257 14.1201 50.4542C14.2564 50.2828 14.3949 50.113 14.5355 49.945C14.676 49.777 14.8187 49.6108 14.9634 49.4463C15.1081 49.2817 15.2548 49.119 15.4035 48.9582C15.5523 48.7975 15.703 48.6385 15.8557 48.4814C16.0106 48.3232 16.1674 48.167 16.3261 48.0127C16.4848 47.8584 16.6453 47.7061 16.8078 47.5556C16.9702 47.4052 17.1344 47.2568 17.3004 47.1103C17.4664 46.9639 17.6342 46.8195 17.8037 46.6772C17.9733 46.5348 18.1445 46.3945 18.3174 46.2563C18.4903 46.1182 18.6649 45.9821 18.8411 45.8481C19.0175 45.7142 19.1953 45.5824 19.3747 45.4528C19.5542 45.3232 19.7352 45.1957 19.9177 45.0705C20.1003 44.9452 20.2843 44.8223 20.4699 44.7015C20.6554 44.5808 20.8424 44.4623 21.0308 44.346C21.2192 44.2299 21.409 44.1161 21.6001 44.0044C21.7913 43.8928 21.9839 43.7836 22.1777 43.6767C22.3716 43.5698 22.5667 43.4653 22.763 43.363C22.9595 43.2609 23.1571 43.1611 23.3559 43.0637C23.5546 42.9664 23.7546 42.8715 23.9558 42.779C24.1569 42.6864 24.3591 42.5964 24.5624 42.5088C24.7657 42.4212 24.9701 42.3362 25.1754 42.2536C25.3807 42.1709 25.5871 42.0908 25.7944 42.0133C26.0018 41.9357 26.21 41.8606 26.4192 41.7879C26.6283 41.7154 26.8383 41.6454 27.0491 41.578C27.26 41.5106 27.4716 41.4457 27.6839 41.3834C27.8964 41.3212 28.1096 41.2615 28.3234 41.2044C28.5373 41.1473 28.7518 41.0928 28.967 41.0409C29.1823 40.989 29.3981 40.9397 29.6145 40.893C29.8308 40.8463 30.0478 40.8023 30.2653 40.761C30.4828 40.7196 30.7007 40.6809 30.9191 40.6447C31.1374 40.6087 31.3563 40.5753 31.5756 40.5445C31.7948 40.5138 32.0144 40.4857 32.2343 40.4603C32.4541 40.4349 32.6742 40.4121 32.8947 40.392C33.1152 40.372 33.3359 40.3546 33.5568 40.3399C33.7777 40.3252 33.9986 40.3132 34.2197 40.3038C34.441 40.2945 34.6622 40.2878 34.8836 40.2839C42.1094 40.1858 48.8885 43.1394 54.0294 48.1604C55.5577 48.144 57.0858 48.1549 58.6136 48.1931C58.5798 49.6294 58.5762 51.0659 58.6027 52.5024C59.6288 52.0256 60.5937 51.3689 61.5552 50.7733L65.9566 48.0587C65.2599 45.5678 64.5213 43.2231 64.2952 40.6216C64.2759 40.4008 64.2593 40.1797 64.2454 39.9585C64.2316 39.7373 64.2205 39.5159 64.2122 39.2943C64.2039 39.0727 64.1984 38.8512 64.1957 38.6296C64.1929 38.4079 64.1929 38.1862 64.1957 37.9645C64.1984 37.7428 64.2039 37.5212 64.2122 37.2998C64.2205 37.0782 64.2316 36.8568 64.2454 36.6356C64.2593 36.4144 64.2759 36.1933 64.2952 35.9725C64.3145 35.7516 64.3366 35.531 64.3615 35.3108C64.3864 35.0905 64.414 34.8705 64.4443 34.6508C64.4746 34.4313 64.5077 34.2121 64.5435 33.9934C64.5793 33.7745 64.6178 33.5562 64.659 33.3384C64.7004 33.1207 64.7444 32.9034 64.7911 32.6867C64.8378 32.47 64.8871 32.2539 64.9391 32.0383C64.9913 31.8229 65.0461 31.6081 65.1035 31.394C65.1609 31.1799 65.2209 30.9665 65.2837 30.7538C65.3465 30.5413 65.4119 30.3295 65.48 30.1184C65.5481 29.9075 65.6188 29.6975 65.692 29.4882C65.7653 29.2791 65.8413 29.0708 65.9199 28.8635C65.9983 28.6561 66.0793 28.4498 66.163 28.2446C66.2466 28.0393 66.3328 27.835 66.4216 27.6319C66.5103 27.4287 66.6016 27.2267 66.6955 27.0259C66.7892 26.825 66.8855 26.6254 66.9843 26.4269C67.0831 26.2284 67.1844 26.0312 67.288 25.8352C67.3917 25.6394 67.4978 25.4448 67.6064 25.2514C67.7149 25.0581 67.8259 24.8662 67.9393 24.6757C68.0527 24.4852 68.1684 24.2961 68.2864 24.1085C68.4045 23.9209 68.5249 23.7347 68.6475 23.5501C68.7703 23.3655 68.8953 23.1824 69.0226 23.0009C69.1499 22.8195 69.2795 22.6396 69.4113 22.4613C69.543 22.2831 69.677 22.1066 69.8131 21.9317C69.9494 21.7567 70.0878 21.5834 70.2283 21.412C70.3687 21.2405 70.5113 21.0708 70.6561 20.9029C75.2999 15.4264 81.7051 12.2547 88.8355 11.6787Z" fill="black"/>
<path d="M89.2887 163.065C90.4815 163.059 91.6739 163.074 92.866 163.111L92.8738 167.018C91.6823 167.056 90.481 167.021 89.2886 167.014C89.2635 165.699 89.2861 164.381 89.2887 163.065Z" fill="white"/>
<path d="M159.104 143.327L159.281 143.451C159.398 143.835 159.342 144.274 159.332 144.672C157.982 145.663 156.183 146.255 154.588 146.736C148.222 148.654 139.362 148.174 133.504 145.025C133.465 144.989 133.427 144.952 133.394 144.91C133.094 144.534 133.202 143.884 133.219 143.429C134.516 143.865 135.728 144.556 137.031 145.01C142.844 147.035 149.885 146.844 155.685 144.843C156.863 144.436 157.983 143.869 159.104 143.327Z" fill="white"/>
<path d="M158.698 127.343C158.776 127.338 158.908 127.327 158.982 127.334C159.207 127.355 159.259 127.43 159.409 127.583C159.484 127.839 159.464 128.05 159.345 128.288C158.573 129.831 155.825 130.302 154.294 130.747C149.199 132.229 141.5 132.057 136.491 130.375C135.521 130.049 134.639 129.607 133.745 129.113C133.448 128.943 133.228 128.826 133.143 128.47C133.077 128.192 133.079 127.945 133.234 127.7C133.419 127.644 133.484 127.649 133.676 127.712C134.083 127.846 134.468 128.09 134.863 128.26C135.494 128.532 136.157 128.758 136.811 128.967C142.236 130.703 149.196 130.826 154.642 129.134C156.066 128.691 157.378 128.026 158.698 127.343Z" fill="white"/>
<path d="M133.216 135.27C134.101 135.445 135.002 136.075 135.829 136.45C140.923 138.76 149.162 138.793 154.506 137.224C156.166 136.737 157.585 135.857 159.188 135.272L159.309 135.228C159.341 135.697 159.394 136.174 159.283 136.635C156.739 138.731 151.176 139.591 147.846 139.715C143.651 139.872 139.218 139.474 135.347 137.754C134.735 137.482 133.924 137.159 133.445 136.676C133.111 136.338 133.206 135.707 133.216 135.27Z" fill="white"/>
<path d="M133.275 151.276C134.689 151.656 136.002 152.528 137.42 152.982C142.419 154.584 148.28 154.779 153.384 153.512C154.37 153.267 155.348 152.977 156.286 152.584C157.187 152.206 158.249 151.456 159.189 151.308C159.331 151.43 159.347 151.447 159.373 151.629C159.422 151.969 159.376 152.396 159.172 152.678C157.251 154.264 153.93 154.999 151.505 155.387C146.601 156.171 141.298 155.904 136.593 154.264C135.371 153.838 134.199 153.365 133.146 152.602C133.141 152.149 133.131 151.711 133.275 151.276Z" fill="white"/>
<path d="M144.678 117.353C148.421 117.125 155.644 117.714 158.657 119.882C159.085 120.189 159.523 120.641 159.592 121.188C159.639 121.572 159.48 121.911 159.229 122.19C156.966 124.705 150.513 125.286 147.256 125.464C143.227 125.585 136.273 124.948 133.042 122.548C132.658 122.263 132.232 121.846 132.212 121.334C132.2 121.034 132.339 120.782 132.532 120.565C132.933 120.113 133.558 119.798 134.092 119.526C137.254 117.912 141.164 117.46 144.678 117.353Z" fill="white"/>
<path d="M90.1526 20.023C91.7913 19.9169 93.4035 20.173 94.8036 21.0757C96.5763 22.2191 97.5609 24.1741 97.792 26.2389C97.8593 26.8401 97.8083 27.4459 97.8599 28.0459C97.8908 28.4058 98.0609 28.7385 98.1192 29.0935C98.2338 29.7905 97.7388 30.32 97.4644 30.9088C96.9042 32.1119 96.5457 33.2099 95.7304 34.2852C94.6043 35.7706 93.2338 36.6775 91.3768 36.9409C90.5998 36.9904 89.8498 36.9648 89.0953 36.7541C86.9065 36.1429 85.4686 34.2515 84.611 32.2418C84.3549 31.6416 84.2184 30.984 83.8937 30.4163C83.7242 30.1202 83.5043 29.8097 83.4584 29.4644C83.3788 28.8654 83.7474 28.4266 83.8429 27.8651C83.9229 27.3963 83.8297 26.8673 83.8438 26.3892C83.8814 25.1085 84.4708 23.6868 85.2463 22.6764C86.4723 21.0785 88.191 20.2743 90.1526 20.023Z" fill="white"/>
<path d="M95.5888 38.0547C96.6019 38.4329 103.463 42.4877 104.144 43.183C104.536 43.5831 104.732 44.0042 104.84 44.5507C105.062 45.6676 104.951 46.9373 104.951 48.0748L104.949 54.1437C103.737 54.291 102.458 54.218 101.236 54.215L95.1512 54.199C88.9122 54.2265 82.6731 54.22 76.4339 54.1796L76.4149 48.5677C76.4138 47.2906 76.31 45.9013 76.5761 44.6492C76.6759 44.1789 76.8395 43.8463 77.1041 43.4468C77.9734 42.5021 84.5309 38.8205 85.8995 38.1555C87.1184 41.1044 87.854 44.3152 88.7329 47.3804C89.1918 45.7808 89.6368 44.1911 90.2241 42.6328C89.5236 41.9815 88.8893 41.1617 88.3083 40.4052C88.8941 39.9065 89.4675 39.582 90.2417 39.4737C91.4526 39.3042 92.4362 39.6582 93.3973 40.3551L91.3687 42.6788C91.5727 43.0407 91.8216 43.4191 91.9307 43.8214C92.267 45.0595 92.691 46.2706 92.9681 47.5251C93.1766 46.4675 93.5225 45.4385 93.8019 44.398C94.372 42.2748 94.9331 40.1543 95.5888 38.0547Z" fill="white"/>
<path d="M24.8172 51.3176C31.4848 51.2865 38.1522 51.3138 44.8194 51.3997L55.8551 51.3615C55.8261 57.5891 55.9205 63.8148 55.8112 70.0422L54.2682 70.0275C51.6337 70.0213 48.9942 70.0462 46.3607 69.9747C46.36 68.1499 46.4227 66.4168 45.0478 64.9989C44.4045 64.3352 43.4913 63.797 42.5847 63.6072C41.0372 63.2834 37.9297 63.5256 36.2471 63.5317L23.0864 63.5315L23.0498 51.3519L24.8172 51.3176Z" fill="white"/>
<path d="M39.2818 51.7721C39.6339 51.9271 40.0733 52.3629 40.3913 52.5955C41.1566 53.1552 41.9287 53.695 42.7473 54.1745C43.7723 53.4593 44.7047 52.5962 45.6173 51.7449C46.12 52.1913 46.6135 52.6305 47.1672 53.0135C45.708 54.5644 44.2337 56.1008 42.7445 57.6227C41.5668 57.0241 40.432 56.2017 39.3092 55.4981C37.7587 57.1258 36.0871 58.6635 34.4777 60.2342L32.8744 59.0277L32.1382 58.4652L27.5702 63.1371C26.8663 62.5125 26.1801 61.8691 25.5117 61.2069C26.0862 60.5098 26.7775 59.8858 27.3969 59.2262C28.8119 57.7196 30.1934 56.2168 31.704 54.8026C32.5861 55.2875 33.4155 55.8623 34.2383 56.4402C35.8491 54.814 37.7107 53.4515 39.2818 51.7721Z" fill="black"/>
<path d="M16.9657 65.8826C22.6232 65.8539 28.2807 65.8604 33.9382 65.902C36.3016 65.9196 38.7228 65.7734 41.0785 65.9206C41.5209 65.9483 41.9748 66.0196 42.3831 66.1986C43.0594 66.4952 43.6134 67.1328 43.8471 67.8288C44.197 68.8714 44.1876 78.2562 44.0568 79.8647C44.0181 80.34 43.9477 80.7641 43.7276 81.1922C43.2399 82.1424 42.499 82.6617 41.5019 82.9854C40.233 83.19 38.8432 83.0705 37.5551 83.0671L31.3209 83.0744L22.3852 83.0881C20.8408 83.0899 19.1993 83.1988 17.6649 83.0476C17.1356 82.9955 16.6658 82.8491 16.2078 82.575C15.3782 82.0786 14.819 81.3111 14.6036 80.3683C14.2549 78.8419 14.504 76.6309 14.4995 75.0117C14.4942 73.1084 14.3038 70.4484 14.5505 68.6199C14.6238 68.0769 14.8053 67.5503 15.1166 67.097C15.5626 66.448 16.1976 66.0379 16.9657 65.8826Z" fill="white"/>
<path d="M18.4513 69.1823L23.9171 69.1619L23.9148 70.671C22.7387 70.8023 21.5442 70.7787 20.3621 70.7945L20.3656 73.4632L23.8154 73.482L23.8074 75.0303C22.6651 75.0202 21.5228 75.0219 20.3806 75.0353L20.3623 76.7589L20.3544 78.2793C21.6051 78.3127 22.8614 78.2944 24.113 78.2992C24.1151 78.8006 24.102 79.3028 24.0948 79.8044C22.1362 79.7794 20.1777 79.7847 18.2193 79.8202C18.3263 77.379 18.3156 74.9395 18.2959 72.4967C18.2877 71.4888 18.1057 70.2693 18.2659 69.2872L18.4513 69.1823Z" fill="black"/>
<path d="M36.3696 69.1731C37.2714 69.088 38.2839 69.0659 39.171 69.2806C40.0988 69.5049 40.886 69.9978 41.3735 70.8349C41.7906 71.551 41.9142 72.4395 41.6703 73.2352C41.2151 74.7205 39.6806 75.5297 38.2345 75.7126C37.8451 75.7619 37.2835 75.7162 36.9399 75.9017L36.9086 76.1369L36.8798 79.805L34.9164 79.7884C34.9178 76.3443 34.9811 72.8881 34.8286 69.4468C35.3435 69.3085 35.8406 69.2337 36.3696 69.1731Z" fill="black"/>
<path d="M37.1167 70.6803C37.9036 70.6439 38.6854 70.7151 39.2952 71.2679C39.5919 71.537 39.8003 71.9364 39.8021 72.3425C39.8046 72.9345 39.4783 73.4878 39.0688 73.8879C38.3577 74.2414 37.7128 74.2238 36.9363 74.2393C36.9194 73.2585 36.8677 72.2549 36.9107 71.2757C36.9226 71.0022 36.9171 70.873 37.1167 70.6803Z" fill="white"/>
<path d="M27.4013 69.1706C28.0672 69.0686 28.8905 69.0702 29.5618 69.1594C30.5704 69.2938 31.5261 69.7099 32.1379 70.5529C32.5566 71.13 32.7633 71.8569 32.6265 72.5643C32.4254 73.6044 31.6384 74.2536 30.8157 74.8192C31.9857 75.7354 32.8308 78.3728 33.4305 79.7739L31.2026 79.7964L30.8141 78.8013C30.5031 78.0042 30.2578 77.0085 29.7623 76.3107C29.2714 75.6195 28.7135 75.5443 27.9332 75.4144C27.905 76.8813 27.9138 78.3506 27.9055 79.8176L25.978 79.8144L25.9575 69.4362C26.4331 69.3043 26.9137 69.2394 27.4013 69.1706Z" fill="black"/>
<path d="M27.916 70.6704C28.7437 70.6132 29.3917 70.5373 30.0767 71.1105C30.3789 71.3634 30.6146 71.7414 30.63 72.1436C30.6533 72.7493 30.3186 73.2841 29.9162 73.7004C29.2609 74.1131 28.6513 74.2167 27.9018 74.3447C27.8872 73.1199 27.892 71.8951 27.916 70.6704Z" fill="white"/>
<path d="M113.945 51.3193C116.17 52.4291 118.252 53.8446 120.384 55.1205C118.401 58.9877 117.39 63.5611 117.464 67.8959C117.574 74.2737 119.692 80.5457 123.781 85.4811C124.697 86.5862 125.742 87.5719 126.772 88.5676C125.81 89.9863 123.826 91.9022 122.564 93.1467L113.387 93.1679C113.369 91.5934 113.343 90.019 113.308 88.4448C113.318 86.8274 113.597 84.7833 112.386 83.5187C111.922 83.0351 111.328 82.6147 110.663 82.4789C109.209 82.182 107.097 82.3563 105.589 82.3524C101.333 82.3414 97.0668 82.4404 92.8122 82.3446C92.664 76.6365 92.7759 70.8809 92.8088 65.1698C93.9451 65.087 95.1149 64.8433 96.2289 64.6071C101.239 63.5446 106.457 60.7115 109.917 56.8893C111.468 55.1763 112.693 53.2501 113.945 51.3193Z" fill="white"/>
<path d="M67.462 51.2888C67.8394 51.6807 68.1277 52.2712 68.4213 52.7318C68.974 53.5985 69.5342 54.4546 70.1764 55.2589C73.4161 59.3176 78.159 62.6067 83.1398 64.1056C85.108 64.698 87.0979 65.0072 89.1358 65.232C89.1965 70.9295 89.2031 76.6271 89.1557 82.3247C84.9571 82.485 80.6968 82.374 76.4925 82.3686C74.8584 82.3665 72.8566 82.1648 71.2627 82.4276C70.6431 82.5298 70.0378 82.9192 69.6036 83.3595C68.329 84.6516 68.5229 86.4224 68.5279 88.0863L68.5293 93.2916C65.821 93.2526 63.1126 93.2377 60.404 93.2468C58.3356 91.0113 56.0416 88.9782 53.9775 86.7323C56.3885 84.1163 58.5451 81.449 60.0274 78.1803C60.1082 78.0019 60.1872 77.8226 60.2642 77.6425C60.3412 77.4624 60.4163 77.2815 60.4895 77.0997C60.5628 76.9181 60.6342 76.7356 60.7037 76.5525C60.7731 76.3693 60.8407 76.1854 60.9063 76.0008C60.972 75.8163 61.0357 75.6311 61.0974 75.4452C61.1591 75.2593 61.219 75.0727 61.2769 74.8855C61.3347 74.6984 61.3906 74.5106 61.4447 74.3223C61.4986 74.134 61.5506 73.9452 61.6007 73.7558C61.6507 73.5664 61.6988 73.3764 61.7449 73.186C61.791 72.9956 61.835 72.8048 61.8771 72.6135C61.9192 72.4222 61.9593 72.2304 61.9974 72.0382C62.0356 71.8461 62.0717 71.6536 62.1058 71.4607C62.1399 71.2678 62.1719 71.0746 62.202 70.881C62.2321 70.6874 62.2602 70.4935 62.2862 70.2994C62.3123 70.1052 62.3363 69.9108 62.3582 69.7161C62.3803 69.5214 62.4002 69.3266 62.4181 69.1315C62.436 68.9365 62.4519 68.7412 62.4658 68.5457C62.4796 68.3503 62.4915 68.1548 62.5013 67.9592C62.5111 67.7636 62.5189 67.5678 62.5246 67.372C62.5303 67.1762 62.534 66.9804 62.5356 66.7844C62.5371 66.5885 62.5367 66.3927 62.5344 66.1968C62.5319 66.0009 62.5274 65.8051 62.5209 65.6092C62.5143 65.4135 62.5058 65.2178 62.4951 65.0221C62.4845 64.8265 62.4719 64.6311 62.4572 64.4358C62.4425 64.2404 62.4258 64.0452 62.4071 63.8502C62.3884 63.6553 62.3676 63.4605 62.3447 63.266C62.322 63.0714 62.2971 62.8771 62.2703 62.683C62.2434 62.4889 62.2145 62.2952 62.1837 62.1018C62.1528 61.9083 62.1198 61.7152 62.0849 61.5224C62.05 61.3296 62.0131 61.1372 61.9741 60.9453C61.9353 60.7533 61.8944 60.5617 61.8515 60.3705C61.8086 60.1794 61.7637 59.9887 61.7168 59.7985C61.3631 58.3678 60.843 57.0037 60.3301 55.6248C62.662 54.1256 65.0806 52.7094 67.462 51.2888Z" fill="white"/>
<path d="M34.9434 111.57L36.653 111.551C36.703 112.365 36.8503 113.176 36.9712 113.982C37.7445 114.113 38.4906 114.305 39.2469 114.51C39.7548 113.818 40.1835 113.052 40.6343 112.321C41.4993 112.71 42.3665 113.094 43.2356 113.474C43.0939 114.347 42.9316 115.201 42.7257 116.061C43.3666 116.425 43.9929 116.799 44.6091 117.202C45.3209 116.732 46.0202 116.244 46.7071 115.737C47.0968 116.031 47.4684 116.346 47.8218 116.682C48.1754 117.019 48.5085 117.374 48.8212 117.749C48.2997 118.521 47.7002 119.222 47.0746 119.91C47.5312 120.55 48.0211 121.183 48.3543 121.898C49.2115 121.658 50.0989 121.511 50.972 121.339C51.3252 122.242 51.6721 123.146 52.0128 124.054C51.2637 124.546 50.5037 125.02 49.7326 125.477C49.9214 126.192 50.0337 126.944 50.1775 127.671C51.0912 127.765 52.006 127.948 52.9132 128.095L52.94 130.879C51.984 131.095 51.036 131.283 50.0666 131.43C49.9488 132.103 49.8471 132.78 49.7378 133.455C50.5957 133.894 51.3873 134.464 52.1873 134.999C51.8269 135.83 51.4771 136.655 51.1737 137.509C50.2312 137.352 49.2905 137.186 48.3515 137.01C47.9619 137.659 47.5682 138.271 47.1063 138.872L48.5146 141.336C47.894 142.018 47.2817 142.707 46.5645 143.289C45.8225 142.723 45.0665 142.176 44.2963 141.649C43.6511 142.079 43.0187 142.518 42.3981 142.982C42.6325 143.837 42.7571 144.734 42.9539 145.6C42.0935 146.029 41.1915 146.346 40.2715 146.62C39.7939 145.913 39.3597 145.171 38.909 144.447C38.1776 144.568 37.4445 144.678 36.7099 144.778C36.5163 145.677 36.3981 146.597 36.2545 147.505L34.8579 147.514L33.4936 147.521C33.2818 146.618 33.1804 145.687 32.9089 144.8C32.1755 144.623 31.4363 144.49 30.6941 144.356C30.3072 145.133 29.9588 145.928 29.6041 146.719L26.9148 145.708C27.0863 144.765 27.2566 143.831 27.5022 142.904C26.763 142.564 26.0745 142.087 25.3841 141.657C24.7164 142.19 24.0686 142.731 23.4323 143.301C22.654 142.661 21.9222 141.971 21.2369 141.232C21.8011 140.463 22.4291 139.75 23.1207 139.093C22.5951 138.376 22.0719 137.664 21.6025 136.908C20.7634 137.18 19.908 137.38 19.0492 137.577C18.5755 136.725 18.2513 135.781 17.8939 134.876C18.6827 134.306 19.555 133.85 20.4081 133.384C20.1993 132.709 20.0868 132.046 19.9871 131.347C19.0438 131.164 18.0843 131.028 17.1357 130.874L17.1581 127.988C18.0956 127.808 19.047 127.707 19.9942 127.59C20.1339 126.863 20.2825 126.159 20.5123 125.455C19.7352 124.896 18.8403 124.43 18.0167 123.937C18.3862 122.996 18.8901 122.071 19.3113 121.148C20.1659 121.354 20.9936 121.621 21.828 121.894C22.2548 121.185 22.6949 120.511 23.187 119.846C22.5841 119.253 22.0737 118.574 21.6101 117.869C22.2451 117.168 22.8914 116.477 23.5489 115.796C24.2449 116.182 24.9032 116.648 25.5676 117.086C26.2435 116.707 26.8897 116.248 27.5406 115.826C27.357 115.075 27.1613 114.327 27.0467 113.561C27.8438 113.105 28.7556 112.706 29.6117 112.376L31.0235 114.515C31.7662 114.315 32.5221 114.151 33.2707 113.973C33.4352 113.193 33.5827 112.409 33.7133 111.622L34.9434 111.57Z" fill="white"/>
<path d="M34.1344 118.672C36.8409 118.376 39.6406 119.334 41.7519 121.005C41.8879 121.113 42.0212 121.225 42.1518 121.34C42.2822 121.454 42.4097 121.572 42.5342 121.694C42.6589 121.815 42.7804 121.939 42.8988 122.066C43.0172 122.193 43.1323 122.324 43.2441 122.457C43.356 122.589 43.4644 122.725 43.5694 122.864C43.6745 123.002 43.776 123.143 43.874 123.287C43.972 123.43 44.0664 123.576 44.1571 123.724C44.2478 123.872 44.3347 124.023 44.4179 124.175C44.5011 124.328 44.5804 124.483 44.6559 124.639C44.7313 124.796 44.8028 124.954 44.8704 125.114C44.9378 125.274 45.0013 125.436 45.0607 125.599C45.1201 125.763 45.1754 125.927 45.2266 126.093C45.2777 126.259 45.3248 126.427 45.3677 126.595C45.4105 126.764 45.449 126.933 45.4834 127.103C45.5176 127.274 45.5477 127.445 45.5735 127.617C45.5992 127.788 45.6207 127.961 45.6378 128.134C45.9485 131.001 45.1281 134.05 43.2901 136.288C41.5777 138.373 38.791 139.877 36.1021 140.14C33.3445 140.397 30.7142 139.748 28.5244 138.016C28.3822 137.905 28.2428 137.791 28.1063 137.673C27.97 137.554 27.8365 137.433 27.7061 137.308C27.5756 137.184 27.4484 137.056 27.3245 136.925C27.2004 136.794 27.0797 136.659 26.9624 136.522C26.8451 136.385 26.7313 136.245 26.621 136.103C26.5107 135.96 26.4041 135.814 26.3011 135.666C26.198 135.518 26.0987 135.368 26.0032 135.214C25.9077 135.061 25.8161 134.906 25.7283 134.748C25.6406 134.591 25.5568 134.431 25.4769 134.269C25.3972 134.107 25.3215 133.943 25.25 133.778C25.1784 133.612 25.111 133.445 25.0477 133.276C24.9846 133.107 24.9256 132.936 24.8709 132.764C24.8161 132.592 24.7658 132.419 24.7198 132.245C24.6737 132.07 24.632 131.895 24.5948 131.718C24.5575 131.542 24.5246 131.364 24.4962 131.186C24.4678 131.008 24.4438 130.829 24.4244 130.65C24.4046 130.473 24.3892 130.296 24.3782 130.119C24.3672 129.941 24.3605 129.764 24.3583 129.586C24.356 129.408 24.3582 129.231 24.3649 129.053C24.3715 128.876 24.3825 128.698 24.3979 128.521C24.4133 128.344 24.433 128.168 24.4571 127.992C24.4813 127.815 24.5098 127.64 24.5426 127.465C24.5755 127.291 24.6127 127.117 24.6542 126.944C24.6957 126.771 24.7414 126.6 24.7914 126.429C24.8414 126.259 24.8956 126.09 24.9539 125.922C25.0123 125.754 25.0748 125.587 25.1414 125.423C25.2081 125.258 25.2788 125.095 25.3534 124.934C25.4282 124.773 25.5069 124.613 25.5894 124.456C25.672 124.299 25.7585 124.143 25.8489 123.99C25.9392 123.837 26.0332 123.687 26.131 123.538C26.2289 123.39 26.3303 123.244 26.4353 123.1C26.5404 122.957 26.6489 122.816 26.7609 122.679C28.6623 120.348 31.1383 118.967 34.1344 118.672Z" fill="black"/>
<path d="M34.2653 122.478C35.8514 122.327 37.3394 122.596 38.6917 123.473C38.7894 123.537 38.8854 123.604 38.9798 123.673C39.0742 123.743 39.1668 123.814 39.2576 123.888C39.3485 123.962 39.4375 124.038 39.5246 124.116C39.6118 124.194 39.6969 124.275 39.78 124.357C39.8632 124.439 39.9443 124.524 40.0233 124.61C40.1023 124.697 40.1792 124.785 40.2538 124.875C40.3285 124.965 40.4009 125.057 40.471 125.151C40.5412 125.245 40.6089 125.34 40.6744 125.437C40.7399 125.534 40.8029 125.633 40.8635 125.733C40.924 125.833 40.9821 125.935 41.0378 126.038C41.0934 126.141 41.1464 126.245 41.1969 126.351C41.2473 126.457 41.2951 126.563 41.3403 126.671C41.3855 126.779 41.4279 126.888 41.4678 126.999C41.5077 127.109 41.5448 127.22 41.5792 127.332C41.6136 127.443 41.6451 127.556 41.6739 127.67C41.7027 127.783 41.7287 127.897 41.752 128.012C42.1055 129.787 41.782 131.746 40.7705 133.258C39.6538 134.928 38.0002 135.856 36.0606 136.24C34.472 136.501 32.7679 136.192 31.4039 135.329C29.8404 134.339 28.7882 132.71 28.3993 130.913C27.9985 129.061 28.3137 127.107 29.3627 125.518C30.5188 123.767 32.2524 122.878 34.2653 122.478Z" fill="white"/>
<path d="M34.8043 126.397C35.397 126.399 35.9354 126.491 36.4665 126.764C36.55 126.807 36.6312 126.854 36.71 126.905C36.7886 126.956 36.8645 127.011 36.9376 127.07C37.0106 127.129 37.0804 127.191 37.147 127.257C37.2136 127.324 37.2766 127.393 37.3359 127.466C37.3953 127.538 37.4508 127.614 37.5023 127.692C37.5539 127.771 37.6012 127.851 37.6445 127.935C37.6876 128.018 37.7264 128.103 37.7607 128.191C37.7951 128.278 37.8248 128.367 37.85 128.457C37.8766 128.551 37.8985 128.646 37.9157 128.743C37.933 128.839 37.9455 128.936 37.9532 129.033C37.9608 129.131 37.9636 129.228 37.9617 129.326C37.9597 129.424 37.9529 129.521 37.9413 129.618C37.9297 129.715 37.9133 129.812 37.8923 129.907C37.8712 130.002 37.8454 130.097 37.8149 130.189C37.7845 130.282 37.7495 130.374 37.7101 130.463C37.6707 130.553 37.627 130.64 37.5789 130.725C37.0786 131.609 36.3442 131.985 35.412 132.256C34.7256 132.297 34.1083 132.201 33.5143 131.83C32.8539 131.419 32.4077 130.748 32.2408 129.993C32.2294 129.943 32.2192 129.893 32.2103 129.842C32.2014 129.792 32.1938 129.741 32.1875 129.69C32.1812 129.639 32.1763 129.588 32.1728 129.538C32.1691 129.486 32.1669 129.435 32.166 129.384C32.1651 129.333 32.1655 129.282 32.1673 129.231C32.169 129.179 32.1721 129.128 32.1765 129.077C32.1809 129.026 32.1866 128.975 32.1937 128.925C32.2009 128.874 32.2093 128.824 32.219 128.773C32.2287 128.723 32.2397 128.673 32.252 128.623C32.2644 128.574 32.278 128.524 32.2929 128.475C32.3079 128.426 32.324 128.378 32.3414 128.33C32.359 128.282 32.3777 128.234 32.3976 128.187C32.4175 128.14 32.4387 128.093 32.4611 128.047C32.4835 128.001 32.507 127.956 32.5318 127.911C32.5566 127.866 32.5825 127.822 32.6095 127.778C32.6366 127.735 32.6648 127.692 32.6941 127.65C33.2067 126.916 33.9466 126.561 34.8043 126.397Z" fill="black"/>
<path d="M129.732 90.887C133.889 93.4941 137.446 94.8522 142.337 95.5909C142.438 99.0565 142.386 102.54 142.393 106.008C142.399 109.075 142.487 112.183 142.292 115.243C138.913 115.282 133.094 116.555 130.62 118.907C130.168 119.336 129.77 119.834 129.637 120.454C129.327 121.903 129.523 124.3 129.528 125.843C129.539 129.691 129.615 133.551 129.487 137.397L125.966 137.4L113.396 137.389C113.252 130.308 113.364 123.201 113.363 116.117C113.363 109.701 113.23 103.246 113.438 96.8345C115.058 96.8002 123.39 97.0051 124.162 96.4868C124.945 95.9616 125.688 95.0182 126.336 94.3299C127.442 93.1547 128.542 91.9784 129.732 90.887Z" fill="white"/>
<path d="M144.463 45.4484C144.493 45.4452 144.522 45.4408 144.551 45.4386C149.821 45.0467 155.476 46.9737 159.516 50.3416C164.086 54.1503 167.166 59.74 167.692 65.6898C167.706 65.865 167.719 66.0403 167.729 66.2157C167.739 66.3912 167.747 66.5668 167.753 66.7426C167.758 66.9183 167.762 67.094 167.763 67.2697C167.765 67.4454 167.764 67.6212 167.761 67.7969C167.759 67.9727 167.754 68.1484 167.746 68.324C167.739 68.4996 167.73 68.6751 167.719 68.8505C167.707 69.026 167.693 69.2012 167.678 69.3762C167.662 69.5512 167.644 69.7261 167.624 69.9007C167.604 70.0754 167.582 70.2497 167.558 70.4238C167.534 70.5978 167.507 70.7716 167.479 70.9451C167.45 71.1185 167.42 71.2916 167.387 71.4642C167.354 71.637 167.319 71.8093 167.282 71.9811C167.245 72.1529 167.206 72.3242 167.165 72.4951C167.124 72.666 167.081 72.8363 167.035 73.0063C166.99 73.176 166.943 73.3453 166.893 73.5139C166.844 73.6826 166.792 73.8506 166.738 74.0179C166.685 74.1853 166.629 74.3521 166.571 74.5181C166.514 74.6842 166.454 74.8495 166.392 75.0141C166.331 75.1786 166.267 75.3423 166.201 75.5054C166.135 75.6684 166.068 75.8306 165.998 75.992C165.928 76.1534 165.857 76.3139 165.783 76.4735C165.71 76.6331 165.634 76.7918 165.556 76.9495C165.479 77.1072 165.4 77.2639 165.318 77.4197C165.237 77.5756 165.154 77.7304 165.069 77.8842C164.983 78.038 164.896 78.1907 164.807 78.3424C164.719 78.4939 164.628 78.6444 164.535 78.7938C164.443 78.9433 164.348 79.0916 164.252 79.2387C164.156 79.3858 164.058 79.5318 163.958 79.6764C163.858 79.8211 163.757 79.9646 163.654 80.1069C163.55 80.2491 163.445 80.39 163.339 80.5297C163.232 80.6693 163.124 80.8077 163.013 80.9447C162.903 81.0817 162.792 81.2173 162.678 81.3516C158.945 85.8109 153.133 88.9028 147.331 89.4123C147.2 89.4282 147.069 89.441 146.937 89.4507C141.519 89.8702 135.844 87.9535 131.731 84.4468C127.055 80.4602 124.322 75.1163 123.857 68.9735C123.4 62.943 125.655 57.1316 129.583 52.6205C133.433 48.1994 138.682 45.8583 144.463 45.4484Z" fill="white"/>
<path d="M130.009 70.7302L136.307 70.7331C136.311 73.4405 136.416 76.3201 136.16 79.0039C134.097 78.9957 132.034 79.0227 129.972 79.0848C129.932 76.3033 129.995 73.5123 130.009 70.7302Z" fill="black"/>
<path d="M138.751 64.9665C140.962 64.9519 143.173 64.9505 145.383 64.9621C145.412 69.6403 145.402 74.3183 145.354 78.9963C143.146 79.0275 140.939 79.0419 138.731 79.0395L138.751 64.9665Z" fill="black"/>
<path d="M147.811 59.0354C150.018 59.0248 152.224 59.0389 154.429 59.0775C154.524 61.9479 154.453 64.8535 154.444 67.726C154.462 71.4818 154.435 75.2372 154.363 78.9922C152.206 79.0183 150.048 79.0223 147.891 79.0041C147.732 72.3613 147.787 65.6807 147.811 59.0354Z" fill="black"/>
<path d="M74.6747 91.1327L93.4896 91.1671C98.9368 91.1618 104.391 91.0568 109.838 91.1753C109.99 94.5448 109.849 97.9717 109.841 101.347L109.85 118.104L109.821 159.506L107.015 159.521L72.0307 159.512C71.8475 156.901 71.9799 154.188 71.9795 151.568L71.971 136.296L71.95 105.631C71.958 100.799 71.909 95.9701 71.9827 91.1373L74.6747 91.1327Z" fill="white"/>
<path d="M78.1989 99.4456C86.8183 99.4673 95.4471 99.325 104.065 99.4371L104.061 102.919L78.187 102.914C78.1622 101.76 78.1917 100.6 78.1989 99.4456Z" fill="black"/>
<path d="M78.2069 108.532L91.907 108.494C95.9577 108.483 100.016 108.42 104.066 108.512L104.062 112.042C95.4414 112.044 86.8215 111.898 78.1992 112.005L78.2069 108.532Z" fill="black"/>
<path d="M82.2471 117.703C89.525 117.665 96.8028 117.671 104.08 117.722C104.086 118.892 104.083 120.063 104.071 121.234L99.9978 121.261L78.1198 121.235L78.1162 117.723L82.2471 117.703Z" fill="black"/>
<path d="M93.0937 128.304C95.8562 128.335 98.5298 129.496 100.576 131.319C103.356 133.795 104.522 136.922 104.747 140.559C100.856 140.666 96.9553 140.525 93.0619 140.619C93.0416 136.548 92.8903 132.363 93.0937 128.304Z" fill="black"/>
<path d="M87.2011 133.416C87.882 133.362 88.5567 133.372 89.239 133.384L89.2246 144.563L100.435 144.587C100.225 146.698 99.7352 148.677 98.5761 150.48C96.8407 153.179 94.1795 154.893 91.0673 155.565L90.9703 155.583C87.915 156.125 84.9599 155.414 82.4346 153.64C80.0336 151.954 78.3666 149.427 77.8797 146.526C77.3969 143.65 77.9602 140.556 79.6773 138.172C81.5109 135.625 84.0998 133.927 87.2011 133.416Z" fill="black"/>
</g>
<defs>
<clipPath id="clip0_280_183">
<rect width="182" height="182" rx="35" fill="white"/>
</clipPath>
</defs>
</svg>
