<svg width="52" height="52" viewBox="0 0 52 52" fill="none" xmlns="http://www.w3.org/2000/svg">
<g clip-path="url(#clip0_418_243)">
<path d="M0 0H52V52H0V0Z" fill="#FEFEFE"/>
<path d="M44.0186 32.6316C44.0636 32.6306 44.041 32.6242 44.0819 32.663C44.0863 33.2139 44.1177 33.7622 44.1053 34.3136C43.7358 34.1377 43.355 33.997 42.9718 33.8545L42.4965 33.6912C42.4649 33.3664 42.4777 33.0317 42.477 32.7052C43.0103 32.8005 43.4948 32.7442 44.0186 32.6316Z" fill="#010101"/>
<path d="M37.279 9.27238C37.3468 9.26319 37.421 9.25511 37.4894 9.26004C37.5604 9.26517 37.6373 9.29528 37.6966 9.33403C37.8793 9.45357 38.049 9.61058 38.2218 9.7452C38.5718 10.016 38.924 10.2839 39.2783 10.549L40.8962 11.7277C41.2372 11.9755 41.6158 12.2045 41.9002 12.5177C41.9927 12.9607 41.9478 13.7209 41.9509 14.1904C41.9557 14.924 42.0049 15.9675 41.9213 16.6741C41.2859 17.2068 40.5929 17.6919 39.9326 18.1938C39.1379 18.7977 38.3477 19.4327 37.5176 19.9862L37.4283 20.0191C37.351 20.0021 37.2912 19.9643 37.2262 19.9201C37.0372 19.7919 36.8634 19.6383 36.6796 19.5023C36.0932 19.0711 35.511 18.6341 34.9331 18.1915C34.5048 17.87 34.0792 17.5449 33.6562 17.2165C33.4499 17.0544 33.225 16.8944 33.0413 16.7079C32.9902 16.656 32.9468 16.6044 32.9363 16.5296C32.8736 16.0812 32.9222 15.5695 32.9253 15.1134L32.9306 12.493C33.0026 12.3927 33.0859 12.3151 33.1835 12.24C33.5953 11.9233 34.0336 11.6326 34.4563 11.33L36.1785 10.0764C36.5168 9.83219 36.916 9.44839 37.279 9.27238Z" fill="#010101"/>
<path d="M37.2851 9.98291C37.3967 9.98443 37.5089 9.99464 37.614 10.0355C37.7713 10.0967 37.9032 10.2317 37.9616 10.3899C37.969 10.4098 37.9754 10.4299 37.9807 10.4504C37.9861 10.4709 37.9904 10.4916 37.9936 10.5125C37.9968 10.5335 37.9989 10.5545 37.9999 10.5756C38.001 10.5968 38.0009 10.6179 37.9998 10.6391C37.9986 10.6602 37.9964 10.6813 37.9931 10.7022C37.9898 10.7231 37.9854 10.7437 37.98 10.7642C37.9746 10.7847 37.9681 10.8048 37.9606 10.8246C37.9531 10.8444 37.9446 10.8638 37.9351 10.8827C37.8414 11.0672 37.6907 11.1661 37.4979 11.2247C37.3679 11.2304 37.2609 11.2299 37.141 11.174C37.1213 11.1649 37.1021 11.1549 37.0835 11.144C37.0648 11.133 37.0467 11.1211 37.0292 11.1082C37.0118 11.0954 36.995 11.0817 36.979 11.0671C36.9629 11.0526 36.9476 11.0372 36.9332 11.0211C36.9187 11.0051 36.905 10.9883 36.8922 10.9708C36.8795 10.9533 36.8676 10.9351 36.8567 10.9164C36.8457 10.8977 36.8358 10.8785 36.8269 10.8587C36.8179 10.839 36.81 10.8189 36.8031 10.7984C36.7966 10.7792 36.791 10.7598 36.7865 10.7401C36.7819 10.7204 36.7784 10.7006 36.7758 10.6805C36.7732 10.6605 36.7716 10.6404 36.7711 10.6202C36.7705 10.6 36.7709 10.5798 36.7723 10.5597C36.7738 10.5395 36.7762 10.5195 36.7796 10.4996C36.7831 10.4797 36.7875 10.46 36.7928 10.4406C36.7983 10.4211 36.8046 10.4019 36.8119 10.3831C36.8192 10.3642 36.8274 10.3458 36.8365 10.3278C36.9337 10.1353 37.0875 10.0471 37.2851 9.98291Z" fill="#FEFEFE"/>
<path d="M33.6232 13.1523C34.7292 14.0682 35.9429 14.8623 37.0759 15.7443L37.091 16.9262C36.7879 16.7694 36.5059 16.4962 36.2303 16.2933C35.3669 15.6575 34.5178 14.9974 33.6424 14.3787L33.6232 13.1523Z" fill="#FEFEFE"/>
<path d="M33.5972 15.1704C33.9213 15.3158 34.3236 15.7334 34.6271 15.9604C35.4397 16.5682 36.271 17.1494 37.0684 17.7783C37.0804 18.1756 37.0881 18.573 37.0916 18.9705C36.5147 18.5753 35.959 18.1327 35.4013 17.7101C34.8054 17.2585 34.1912 16.8143 33.6218 16.3302C33.6025 15.945 33.6048 15.5562 33.5972 15.1704Z" fill="#FEFEFE"/>
<path d="M41.2313 13.1265C41.302 13.2209 41.2533 14.102 41.2499 14.2817C40.0963 15.1615 38.9336 16.029 37.7618 16.8842C37.6993 16.8141 37.7205 15.8668 37.7189 15.7028C38.1806 15.4421 38.6231 15.0482 39.0499 14.7279C39.7707 14.1855 40.4978 13.6516 41.2313 13.1265Z" fill="#FEFEFE"/>
<path d="M41.2253 15.1775C41.2949 15.3713 41.2578 16.0872 41.2596 16.3318C40.1157 17.2194 38.9564 18.1162 37.7695 18.9455C37.68 18.8478 37.7202 17.9692 37.7207 17.779C38.1159 17.4497 38.5491 17.1527 38.9645 16.849C39.7226 16.2979 40.4762 15.7407 41.2253 15.1775Z" fill="#FEFEFE"/>
<path d="M14.1313 9.0176C14.1856 9.01232 14.2404 9.00683 14.295 9.00709C14.3748 9.00744 14.4436 9.04213 14.512 9.07991C15.1126 9.41187 15.6743 9.82396 16.2596 10.1825L17.684 11.0412C17.982 11.2228 18.3222 11.3946 18.5722 11.639C18.6451 11.8479 18.6277 15.9342 18.602 16.457C18.595 16.5994 18.5766 16.7519 18.526 16.8856C18.5048 16.9415 18.3896 17.0043 18.3368 17.0377C17.5789 17.5179 16.784 17.9421 16.0121 18.3992C15.461 18.7255 14.9122 19.1221 14.3312 19.3878C14.2665 19.401 14.1929 19.4206 14.1267 19.4182C13.9323 19.4111 10.5845 17.3434 10.1498 17.0391C10.062 16.9776 9.98973 16.9103 9.92092 16.828C9.86303 16.2935 9.83546 11.8715 9.90412 11.6654C9.93057 11.5862 10.0369 11.5169 10.1027 11.4693C10.7435 11.0055 11.4574 10.617 12.1323 10.2039C12.7867 9.80334 13.4417 9.35286 14.1313 9.0176Z" fill="#010101"/>
<path d="M14.5228 14.8364C14.9724 15.0726 15.3979 15.3706 15.8341 15.6319C16.4406 15.9952 17.0672 16.336 17.6514 16.7345C17.2949 17.0077 16.8733 17.2239 16.4891 17.4574L14.5347 18.6038C14.4893 17.3498 14.5372 16.0913 14.5228 14.8364Z" fill="#FEFEFE"/>
<path d="M10.4616 12.3755C11.0498 12.7091 11.6232 13.0625 12.1976 13.4189C12.6617 13.7068 13.133 13.987 13.5626 14.326C13.2069 14.5871 12.8065 14.8029 12.4274 15.0291C11.7806 15.4228 11.1116 15.7802 10.4654 16.1746C10.5087 15.5658 10.4722 14.9472 10.4632 14.3372C10.4535 13.6835 10.4665 13.0293 10.4616 12.3755Z" fill="#FEFEFE"/>
<path d="M13.9059 14.8015C13.9319 14.8532 13.9118 18.2465 13.9141 18.6451C13.6575 18.5286 13.4131 18.3618 13.1725 18.2147L11.9467 17.4631C11.5321 17.2204 11.1178 16.9784 10.7278 16.697C11.7991 16.0851 12.8584 15.4533 13.9059 14.8015Z" fill="#FEFEFE"/>
<path d="M17.9335 12.4075C17.9809 12.4066 17.957 12.3999 18.0008 12.4396C18.0213 12.8466 18.0077 13.2612 18.0086 13.6692L18.0003 16.2645L16.0772 15.1063C15.6559 14.836 15.2146 14.5952 14.8027 14.3104C15.1577 14.033 15.5742 13.8109 15.9618 13.5813C16.6236 13.1978 17.2809 12.8065 17.9335 12.4075Z" fill="#FEFEFE"/>
<path d="M13.889 9.80713C13.958 9.9611 13.907 13.4437 13.8996 13.8039C13.2422 13.4069 12.5922 12.9968 11.9394 12.5922C11.5189 12.3298 11.1022 12.0614 10.6892 11.7872C11.7257 11.0933 12.7979 10.4116 13.889 9.80713Z" fill="#FEFEFE"/>
<path d="M14.5134 9.78345C15.0402 10.0678 15.5319 10.4114 16.0416 10.7242C16.6304 11.0854 17.2351 11.4213 17.8116 11.8024L16.5942 12.5467C15.8991 12.9425 15.222 13.3756 14.5195 13.7566C14.5028 12.4314 14.516 11.1085 14.5134 9.78345Z" fill="#FEFEFE"/>
<path d="M41.0006 34.2885C41.6897 34.2537 42.4059 34.3614 43.0652 34.5566C44.5645 35.0007 46.1248 36.1542 46.8672 37.541C47.5421 38.8021 48.0173 40.8414 48.4002 42.2609C48.5568 42.8414 48.7735 43.4558 48.8403 44.0507C48.8801 44.4053 48.8433 44.7471 48.7377 45.0873C48.724 45.1321 48.7091 45.1766 48.6932 45.2206C48.6772 45.2647 48.6602 45.3083 48.6421 45.3515C48.624 45.3948 48.6048 45.4375 48.5845 45.4798C48.5643 45.5221 48.543 45.5639 48.5207 45.6051C48.4984 45.6463 48.4751 45.6869 48.4508 45.727C48.4264 45.7671 48.4011 45.8065 48.3749 45.8453C48.3486 45.8841 48.3214 45.9223 48.2932 45.9598C48.265 45.9972 48.236 46.0339 48.206 46.0699C48.176 46.106 48.1451 46.1412 48.1133 46.1757C48.0816 46.2102 48.049 46.2439 48.0156 46.2768C47.9822 46.3097 47.948 46.3417 47.913 46.3729C47.878 46.404 47.8422 46.4343 47.8057 46.4637C47.7692 46.4931 47.732 46.5216 47.6941 46.5492C47.6562 46.5767 47.6176 46.6033 47.5784 46.6289C47.5391 46.6546 47.4993 46.6793 47.4588 46.7029C47.4184 46.7266 47.3773 46.7492 47.3358 46.7709C46.7304 47.083 45.9343 47.1539 45.2851 46.9451C43.8841 46.4944 43.4506 45.0027 42.8496 43.8189C42.3672 44.0537 41.9684 44.2014 41.426 44.2157C40.7834 44.1997 40.298 43.9984 39.7882 43.6166C39.3516 44.33 39.0117 45.4308 38.4937 46.0246C37.989 46.6035 37.3445 46.9772 36.5706 47.0287C35.8359 47.0776 35.1844 46.8496 34.6321 46.3614C34.0373 45.8355 33.7341 45.0632 33.6955 44.2796C33.688 44.1358 33.6909 43.9923 33.7044 43.8489C33.7179 43.7056 33.7417 43.5639 33.7758 43.4241C33.8589 43.072 33.9918 42.7259 34.1032 42.3815C34.3001 41.7743 34.4934 41.166 34.6832 40.5565C34.9772 39.6142 35.1987 38.5657 35.6014 37.6687C35.8185 37.1851 36.1291 36.7158 36.4842 36.3227C37.622 35.0633 39.3232 34.3707 41.0006 34.2885Z" fill="#010101"/>
<path d="M39.7405 38.2924C39.8346 38.2857 39.933 38.274 40.0247 38.3019C40.0423 38.3073 40.0595 38.3136 40.0765 38.3207C40.0934 38.3278 40.1099 38.3358 40.1261 38.3445C40.1422 38.3533 40.1579 38.3628 40.1731 38.3732C40.1883 38.3835 40.2029 38.3946 40.217 38.4064C40.2311 38.4182 40.2445 38.4306 40.2574 38.4437C40.2702 38.4569 40.2824 38.4706 40.2939 38.485C40.3053 38.4993 40.316 38.5142 40.326 38.5297C40.336 38.5451 40.3452 38.561 40.3536 38.5773C40.3621 38.5943 40.3696 38.6117 40.3763 38.6295C40.3831 38.6472 40.3889 38.6653 40.3939 38.6836C40.3988 38.702 40.4028 38.7205 40.4059 38.7392C40.409 38.758 40.4111 38.7769 40.4123 38.7958C40.4136 38.8148 40.4139 38.8337 40.4132 38.8527C40.4125 38.8717 40.4109 38.8906 40.4084 38.9094C40.4058 38.9282 40.4024 38.9469 40.398 38.9654C40.3936 38.9839 40.3883 39.0021 40.3821 39.02C40.3145 39.2185 40.1811 39.3303 39.9964 39.4164C39.879 39.4311 39.7553 39.4316 39.6446 39.3854C39.6272 39.3781 39.6102 39.37 39.5936 39.361C39.577 39.352 39.561 39.3422 39.5454 39.3316C39.5297 39.3209 39.5147 39.3095 39.5003 39.2974C39.4858 39.2853 39.472 39.2725 39.4588 39.259C39.4456 39.2455 39.4331 39.2314 39.4214 39.2166C39.4096 39.2019 39.3986 39.1866 39.3884 39.1707C39.3782 39.1548 39.3688 39.1385 39.3602 39.1217C39.3516 39.1049 39.3438 39.0878 39.337 39.0702C39.28 38.9238 39.279 38.7627 39.3446 38.6189C39.4266 38.4392 39.563 38.3598 39.7405 38.2924Z" fill="#FEFEFE"/>
<path d="M38.3759 36.7417C38.4848 36.7365 38.588 36.7439 38.6912 36.7826C38.8562 36.8446 38.9916 36.9682 39.0587 37.1324C39.1175 37.2764 39.1191 37.4405 39.0531 37.5824C38.9632 37.7758 38.8032 37.8605 38.6112 37.9297C38.4835 37.9409 38.3686 37.9412 38.2478 37.8918C38.0996 37.831 37.9807 37.7175 37.9217 37.5676C37.9146 37.5497 37.9083 37.5315 37.9029 37.5129C37.8976 37.4944 37.8931 37.4757 37.8896 37.4567C37.8861 37.4377 37.8835 37.4186 37.8818 37.3994C37.8801 37.3802 37.8794 37.361 37.8796 37.3417C37.8798 37.3224 37.881 37.3032 37.8831 37.284C37.8852 37.2648 37.8882 37.2458 37.8922 37.2269C37.8961 37.208 37.901 37.1894 37.9067 37.171C37.9125 37.1526 37.9192 37.1345 37.9267 37.1168C38.0165 36.9103 38.1798 36.824 38.3759 36.7417Z" fill="#FEFEFE"/>
<path d="M37.0313 38.1704C37.1341 38.1757 37.2354 38.1824 37.3301 38.2267C37.3493 38.2355 37.3679 38.2453 37.386 38.256C37.4041 38.2668 37.4216 38.2784 37.4385 38.291C37.4554 38.3036 37.4716 38.3171 37.487 38.3314C37.5025 38.3457 37.5172 38.3608 37.531 38.3766C37.5449 38.3925 37.5579 38.409 37.57 38.4262C37.5822 38.4434 37.5934 38.4612 37.6037 38.4796C37.6139 38.498 37.6232 38.5169 37.6314 38.5363C37.6397 38.5557 37.6469 38.5754 37.6531 38.5955C37.7044 38.7595 37.6794 38.9353 37.5917 39.0822C37.4836 39.263 37.3205 39.3585 37.1212 39.4076C36.9828 39.3978 36.8648 39.3846 36.746 39.3076C36.7278 39.2958 36.7102 39.2831 36.6934 39.2695C36.6765 39.2559 36.6603 39.2415 36.6449 39.2263C36.6295 39.211 36.6149 39.195 36.6012 39.1782C36.5874 39.1615 36.5746 39.144 36.5626 39.1259C36.5507 39.1078 36.5397 39.0892 36.5297 39.0699C36.5197 39.0507 36.5107 39.031 36.5027 39.0108C36.4947 38.9907 36.4878 38.9702 36.482 38.9493C36.4761 38.9284 36.4713 38.9073 36.4677 38.8859C36.4398 38.7179 36.476 38.5449 36.5796 38.4084C36.6991 38.2508 36.8433 38.2018 37.0313 38.1704Z" fill="#FEFEFE"/>
<path d="M38.3154 39.6159C38.4598 39.5988 38.5825 39.5929 38.7202 39.6487C38.7401 39.6566 38.7596 39.6655 38.7786 39.6755C38.7975 39.6854 38.8159 39.6963 38.8338 39.7081C38.8516 39.7199 38.8688 39.7327 38.8854 39.7463C38.9019 39.7599 38.9177 39.7743 38.9327 39.7896C38.9477 39.8049 38.9619 39.8209 38.9753 39.8376C38.9886 39.8543 39.0011 39.8717 39.0127 39.8898C39.0242 39.9078 39.0348 39.9263 39.0445 39.9455C39.0541 39.9646 39.0627 39.9842 39.0703 40.0042C39.0772 40.0221 39.0831 40.0403 39.0882 40.0587C39.0933 40.0772 39.0975 40.0958 39.1008 40.1147C39.104 40.1335 39.1063 40.1525 39.1077 40.1716C39.1091 40.1907 39.1096 40.2098 39.109 40.2289C39.1086 40.248 39.1072 40.2671 39.1048 40.2861C39.1024 40.3051 39.0991 40.3239 39.0949 40.3426C39.0907 40.3613 39.0856 40.3797 39.0796 40.3979C39.0736 40.416 39.0667 40.4338 39.0589 40.4513C38.9742 40.6395 38.8128 40.7477 38.6278 40.8237C38.5141 40.8422 38.4177 40.8492 38.3059 40.8151C38.1373 40.7637 37.9984 40.6512 37.9198 40.4928C37.9103 40.4737 37.9018 40.4542 37.8944 40.4342C37.887 40.4142 37.8806 40.3939 37.8753 40.3733C37.87 40.3527 37.8658 40.3318 37.8626 40.3107C37.8595 40.2897 37.8575 40.2685 37.8565 40.2472C37.8556 40.2259 37.8558 40.2047 37.8571 40.1834C37.8584 40.1622 37.8608 40.141 37.8643 40.12C37.8678 40.099 37.8724 40.0782 37.8781 40.0576C37.8837 40.0371 37.8904 40.0169 37.8982 39.9971C37.9787 39.7942 38.124 39.7022 38.3154 39.6159Z" fill="#FEFEFE"/>
<path d="M41.3518 40.1777C41.6929 40.1595 42.0445 40.2353 42.3272 40.4324C42.6498 40.6574 42.8853 41.0299 42.9528 41.4169C43.0196 41.7996 42.9358 42.2323 42.7036 42.5472C42.423 42.928 41.9758 43.1188 41.5198 43.1808C41.1676 43.2113 40.7784 43.0772 40.5007 42.864C40.182 42.6195 39.9572 42.2434 39.911 41.8425C39.8673 41.4632 39.9988 41.0685 40.2351 40.7717C40.5162 40.4184 40.9082 40.2272 41.3518 40.1777Z" fill="#FEFEFE"/>
<path d="M44.4482 37.2576C44.7588 37.2492 45.0989 37.3383 45.3579 37.5107C45.6932 37.7339 45.9237 38.1145 45.9936 38.5089C46.0671 38.9243 45.9513 39.3546 45.7079 39.6955C45.425 40.0917 45.0451 40.2664 44.5748 40.3455C44.1866 40.3599 43.8596 40.2844 43.547 40.041C43.5264 40.0249 43.5061 40.0083 43.4863 39.9911C43.4666 39.974 43.4472 39.9564 43.4283 39.9383C43.4094 39.9202 43.3909 39.9016 43.3729 39.8826C43.355 39.8636 43.3375 39.8441 43.3205 39.8242C43.3035 39.8043 43.2871 39.7839 43.2711 39.7632C43.2552 39.7425 43.2397 39.7213 43.2248 39.6998C43.2099 39.6783 43.1956 39.6564 43.1818 39.6341C43.168 39.6119 43.1548 39.5893 43.1422 39.5664C43.1295 39.5434 43.1175 39.5202 43.106 39.4967C43.0945 39.4731 43.0836 39.4493 43.0734 39.4253C43.0631 39.4012 43.0535 39.3769 43.0444 39.3523C43.0354 39.3278 43.027 39.303 43.0192 39.278C43.0115 39.253 43.0043 39.2278 42.9978 39.2025C42.9913 39.1771 42.9854 39.1516 42.9802 39.126C42.975 39.1003 42.9704 39.0745 42.9665 39.0487C42.9626 39.0228 42.9593 38.9968 42.9567 38.9708C42.9537 38.9454 42.9514 38.9199 42.9498 38.8944C42.9481 38.8689 42.9471 38.8433 42.9468 38.8177C42.9465 38.7922 42.9468 38.7666 42.9477 38.7411C42.9486 38.7155 42.9502 38.69 42.9525 38.6645C42.9547 38.639 42.9576 38.6136 42.9611 38.5883C42.9647 38.5629 42.9688 38.5377 42.9737 38.5126C42.9785 38.4875 42.9839 38.4625 42.99 38.4376C42.9961 38.4128 43.0028 38.3882 43.0102 38.3636C43.0175 38.3391 43.0254 38.3148 43.034 38.2907C43.0426 38.2667 43.0518 38.2428 43.0616 38.2192C43.0713 38.1955 43.0817 38.1722 43.0927 38.149C43.1037 38.126 43.1152 38.1032 43.1274 38.0806C43.1395 38.0581 43.1522 38.0359 43.1655 38.0141C43.1787 37.9922 43.1925 37.9706 43.2068 37.9495C43.2212 37.9283 43.2361 37.9075 43.2515 37.8871C43.2669 37.8667 43.2828 37.8467 43.2993 37.8271C43.6055 37.4571 43.9809 37.3049 44.4482 37.2576Z" fill="#FEFEFE"/>
<path d="M25.6315 2.04297C26.0304 2.04486 26.426 2.06238 26.8212 2.12089C26.8765 2.12947 26.9316 2.13872 26.9867 2.14865C27.0417 2.15859 27.0966 2.16919 27.1513 2.18047C27.2061 2.19175 27.2607 2.20369 27.3152 2.21631C27.3697 2.22892 27.424 2.24221 27.4782 2.25615C27.5323 2.2701 27.5863 2.28471 27.6401 2.29998C27.6938 2.31525 27.7475 2.33118 27.8009 2.34776C27.8543 2.36434 27.9074 2.38158 27.9604 2.39946C28.0134 2.41735 28.0662 2.43588 28.1187 2.45506C28.1713 2.47425 28.2235 2.49407 28.2756 2.51453C28.3276 2.53499 28.3794 2.55609 28.4309 2.57782C28.4824 2.59954 28.5337 2.6219 28.5847 2.64489C28.6356 2.66788 28.6863 2.69148 28.7367 2.71571C28.7871 2.73994 28.8372 2.76478 28.887 2.79024C28.9368 2.8157 28.9863 2.84176 29.0354 2.86843C29.0846 2.8951 29.1334 2.92236 29.1819 2.95023C29.2303 2.97809 29.2785 3.00655 29.3262 3.03559C29.374 3.06464 29.4215 3.09426 29.4685 3.12447C29.5156 3.15468 29.5623 3.18546 29.6086 3.21681C29.6549 3.24816 29.7008 3.28007 29.7463 3.31255C29.7918 3.34503 29.837 3.37805 29.8817 3.41163C29.9264 3.44522 29.9707 3.47934 30.0145 3.51401C30.0584 3.54868 30.1019 3.58388 30.1449 3.61961C30.1879 3.65534 30.2305 3.6916 30.2726 3.72837C30.3147 3.76515 30.3564 3.80243 30.3976 3.84023C30.4388 3.87803 30.4796 3.91632 30.5199 3.95511C30.5601 3.99391 30.5999 4.03319 30.6392 4.07296C30.6785 4.11273 30.7173 4.15298 30.7556 4.1937C30.794 4.23442 30.8318 4.27561 30.8691 4.31726C30.9064 4.35891 30.9432 4.40101 30.9795 4.44356C31.0158 4.48611 31.0515 4.52909 31.0868 4.57252C31.122 4.61595 31.1567 4.6598 31.1909 4.70408C31.225 4.74835 31.2586 4.79304 31.2917 4.83814C31.3227 4.8804 31.3532 4.92302 31.3832 4.96602C31.4131 5.00902 31.4426 5.05238 31.4715 5.09611C31.5004 5.13981 31.5288 5.18387 31.5566 5.22829C31.5844 5.27271 31.6117 5.31746 31.6385 5.36256C31.6652 5.40765 31.6914 5.45306 31.717 5.4988C31.7426 5.5445 31.7677 5.59053 31.7922 5.63688C31.8167 5.68322 31.8406 5.72986 31.8639 5.77678C31.8873 5.82373 31.9101 5.87094 31.9322 5.91841C31.9544 5.9659 31.9761 6.01366 31.9971 6.06166C32.0181 6.1097 32.0385 6.15798 32.0583 6.20649C32.0782 6.255 32.0974 6.30375 32.1161 6.35274C32.1347 6.40173 32.1528 6.45093 32.1702 6.50036C32.1876 6.54982 32.2045 6.59947 32.2207 6.6493C32.2369 6.69913 32.2525 6.74917 32.2674 6.79941C32.2824 6.84965 32.2968 6.90006 32.3106 6.95064C32.3243 7.00121 32.3375 7.05195 32.35 7.10283C32.3625 7.15374 32.3744 7.2048 32.3856 7.25598C32.3969 7.30717 32.4075 7.35849 32.4175 7.40995C32.4275 7.46141 32.4369 7.51299 32.4456 7.56468C32.4544 7.61634 32.4625 7.66812 32.4699 7.72002C32.4774 7.77189 32.4842 7.82385 32.4904 7.87592C32.4966 7.92795 32.5022 7.98007 32.5071 8.03228C32.512 8.08444 32.5162 8.13668 32.5199 8.18899C32.5235 8.24126 32.5265 8.29358 32.5289 8.34595C32.5312 8.39832 32.5329 8.45071 32.534 8.50312C32.535 8.55553 32.5355 8.60793 32.5353 8.66034C32.535 8.71274 32.5342 8.76515 32.5327 8.81756C32.5311 8.86996 32.529 8.92234 32.5262 8.97467C32.5234 9.02701 32.52 9.07932 32.5159 9.13159C32.5118 9.18382 32.5071 9.23601 32.5018 9.28815C32.4964 9.34032 32.4905 9.3924 32.4838 9.4444C32.4772 9.49637 32.4699 9.54826 32.462 9.6001C31.9991 12.5086 29.3622 15.5912 27.1709 17.4479C26.8206 17.7446 26.4466 18.0155 26.0754 18.2852C26.0338 18.3091 26.0027 18.3383 25.953 18.3373C25.6226 18.3304 24.1452 17.0127 23.8538 16.7486C22.3952 15.427 20.7694 13.5101 19.9485 11.7097C19.5444 10.8233 19.2767 9.82831 19.2324 8.85544C19.1525 7.10141 19.8542 5.35154 21.0379 4.07301C22.2338 2.78138 23.8872 2.1072 25.6315 2.04297Z" fill="#010101"/>
<path d="M25.7592 3.10743C25.7664 3.10634 25.7735 3.10485 25.7807 3.10414C27.0295 2.98086 28.4472 3.46297 29.4241 4.22977C29.4607 4.25848 29.497 4.28764 29.5329 4.31724C29.5688 4.34685 29.6044 4.37688 29.6395 4.40736C29.6747 4.43784 29.7095 4.46874 29.7439 4.50007C29.7783 4.5314 29.8124 4.56315 29.846 4.59531C29.8796 4.62748 29.9129 4.66005 29.9457 4.69303C29.9786 4.72601 30.011 4.75939 30.043 4.79317C30.075 4.82695 30.1066 4.86111 30.1378 4.89566C30.169 4.93022 30.1997 4.96515 30.2301 5.00045C30.2604 5.03576 30.2903 5.07144 30.3198 5.10748C30.3492 5.14353 30.3782 5.17993 30.4067 5.21666C30.4353 5.25343 30.4634 5.29053 30.491 5.32797C30.5187 5.36541 30.5458 5.4032 30.5725 5.44132C30.5993 5.4794 30.6255 5.51783 30.6513 5.55659C30.6771 5.59535 30.7024 5.63442 30.7272 5.67379C30.752 5.71316 30.7763 5.75284 30.8001 5.79282C30.824 5.8328 30.8474 5.87306 30.8702 5.91358C30.8931 5.95414 30.9154 5.99497 30.9373 6.03607C30.9591 6.07716 30.9804 6.11852 31.0013 6.16012C31.0221 6.20173 31.0424 6.24359 31.0622 6.28571C31.082 6.32782 31.1013 6.37017 31.1201 6.41276C31.1389 6.45538 31.1571 6.49821 31.1748 6.54124C31.1925 6.58426 31.2097 6.62751 31.2264 6.67098C31.243 6.71445 31.2591 6.75811 31.2747 6.80195C31.2903 6.84579 31.3053 6.88983 31.3198 6.93408C31.3344 6.97829 31.3483 7.02269 31.3617 7.06728C31.3751 7.11183 31.388 7.15655 31.4003 7.20144C31.4126 7.24633 31.4244 7.29136 31.4356 7.33652C31.4468 7.38168 31.4575 7.42698 31.4676 7.47241C31.4776 7.51784 31.4872 7.56339 31.4961 7.60906C31.5051 7.65473 31.5135 7.7005 31.5214 7.74638C31.5293 7.79225 31.5366 7.83822 31.5433 7.8843C31.55 7.93034 31.5562 7.97647 31.5618 8.02268C31.728 9.49584 31.2672 10.9505 30.3403 12.0999C29.3679 13.3055 27.9854 14.0097 26.4582 14.169C26.4164 14.1724 26.3745 14.1754 26.3327 14.1778C26.2908 14.1803 26.2488 14.1822 26.2069 14.1837C26.165 14.1851 26.123 14.1861 26.0811 14.1865C26.0392 14.187 25.9972 14.1869 25.9553 14.1864C25.9133 14.1859 25.8714 14.1849 25.8294 14.1833C25.7875 14.1818 25.7456 14.1798 25.7037 14.1773C25.6619 14.1748 25.62 14.1717 25.5782 14.1682C25.5364 14.1647 25.4946 14.1607 25.4529 14.1562C25.4112 14.1517 25.3695 14.1467 25.328 14.1412C25.2864 14.1357 25.2448 14.1297 25.2034 14.1233C25.1619 14.1168 25.1206 14.1099 25.0793 14.1024C25.038 14.095 24.9968 14.087 24.9557 14.0786C24.9146 14.0702 24.8736 14.0613 24.8327 14.0519C24.7918 14.0425 24.751 14.0326 24.7104 14.0223C24.6697 14.0119 24.6292 14.001 24.5888 13.9897C24.5484 13.9784 24.5081 13.9666 24.468 13.9543C24.4279 13.9421 24.3879 13.9293 24.3481 13.9161C24.3083 13.9029 24.2686 13.8892 24.2292 13.875C24.1896 13.8609 24.1503 13.8462 24.1112 13.8311C24.0721 13.816 24.0331 13.8005 23.9943 13.7845C23.9555 13.7685 23.917 13.752 23.8786 13.7351C23.8402 13.7181 23.802 13.7008 23.764 13.683C23.726 13.6651 23.6883 13.6468 23.6507 13.6281C23.6132 13.6094 23.5759 13.5902 23.5388 13.5706C23.5017 13.551 23.4648 13.5309 23.4282 13.5104C23.3916 13.49 23.3552 13.4691 23.3191 13.4477C23.283 13.4264 23.2471 13.4046 23.2115 13.3824C23.1759 13.3602 23.1406 13.3376 23.1055 13.3146C23.0704 13.2916 23.0356 13.2681 23.0011 13.2443C22.9666 13.2204 22.9324 13.1961 22.8984 13.1715C22.8645 13.1468 22.8309 13.1217 22.7975 13.0963C22.7642 13.0708 22.7311 13.045 22.6984 13.0187C22.6617 12.9897 22.6254 12.9602 22.5894 12.9302C22.5535 12.9002 22.5179 12.8698 22.4827 12.839C22.4475 12.8081 22.4127 12.7768 22.3783 12.7451C22.3439 12.7134 22.3099 12.6812 22.2763 12.6486C22.2427 12.616 22.2095 12.583 22.1767 12.5497C22.144 12.5163 22.1116 12.4824 22.0797 12.4482C22.0478 12.414 22.0163 12.3794 21.9852 12.3444C21.9541 12.3094 21.9235 12.274 21.8933 12.2382C21.8632 12.2024 21.8334 12.1663 21.8042 12.1298C21.7749 12.0932 21.7461 12.0563 21.7177 12.0191C21.6894 11.9819 21.6615 11.9443 21.6341 11.9063C21.6067 11.8684 21.5798 11.8301 21.5533 11.7915C21.5269 11.7529 21.5009 11.7139 21.4754 11.6747C21.45 11.6354 21.425 11.5959 21.4005 11.556C21.376 11.5161 21.352 11.4759 21.3286 11.4354C21.3051 11.3949 21.2821 11.3541 21.2597 11.313C21.2372 11.272 21.2153 11.2306 21.1939 11.189C21.1724 11.1474 21.1515 11.1056 21.1311 11.0635C21.1108 11.0213 21.091 10.9789 21.0716 10.9363C21.0523 10.8936 21.0336 10.8508 21.0153 10.8077C20.9971 10.7646 20.9794 10.7213 20.9622 10.6777C20.9451 10.6342 20.9285 10.5904 20.9124 10.5465C20.8963 10.5025 20.8808 10.4583 20.8659 10.414C20.8509 10.3696 20.8365 10.3251 20.8227 10.2804C20.8089 10.2357 20.7956 10.1908 20.7829 10.1457C20.7702 10.1007 20.758 10.0555 20.7464 10.0102C20.7349 9.96482 20.7238 9.91934 20.7134 9.8737C20.7029 9.8281 20.6931 9.78236 20.6838 9.73649C20.6745 9.69062 20.6658 9.64463 20.6576 9.59852C20.6495 9.55244 20.6419 9.50627 20.6349 9.45999C20.6279 9.41371 20.6215 9.36735 20.6157 9.3209C20.6098 9.27448 20.6046 9.22798 20.5999 9.1814C20.5953 9.13688 20.5913 9.0923 20.5877 9.04764C20.5842 9.00302 20.5813 8.95837 20.5789 8.91368C20.5764 8.86896 20.5746 8.82422 20.5733 8.77947C20.5719 8.73471 20.5712 8.68996 20.571 8.6452C20.5708 8.60045 20.5711 8.55569 20.572 8.51094C20.5729 8.46618 20.5744 8.42143 20.5764 8.37667C20.5784 8.33195 20.5809 8.28726 20.584 8.24261C20.5871 8.19796 20.5908 8.15334 20.5949 8.10875C20.5991 8.0642 20.6039 8.0197 20.6092 7.97525C20.6145 7.9308 20.6203 7.88641 20.6267 7.8421C20.6331 7.79778 20.64 7.75355 20.6475 7.70941C20.655 7.66526 20.663 7.62122 20.6716 7.57727C20.6801 7.53333 20.6892 7.48951 20.6989 7.4458C20.7085 7.4021 20.7187 7.35851 20.7295 7.31504C20.7402 7.27157 20.7515 7.22824 20.7632 7.18504C20.775 7.14188 20.7873 7.09885 20.8002 7.05595C20.813 7.01306 20.8264 6.97034 20.8403 6.92778C20.8542 6.88523 20.8687 6.84286 20.8836 6.80068C20.8986 6.75846 20.914 6.71645 20.93 6.67464C20.946 6.63283 20.9625 6.5912 20.9795 6.54977C20.9965 6.50836 21.014 6.46718 21.032 6.42622C21.0501 6.38522 21.0686 6.34446 21.0876 6.30394C21.1067 6.26341 21.1262 6.22313 21.1462 6.18308C21.1662 6.14306 21.1867 6.10328 21.2077 6.06374C21.2287 6.0242 21.2502 5.98493 21.2722 5.94593C21.2941 5.90693 21.3166 5.8682 21.3396 5.82974C21.3625 5.79128 21.3859 5.75311 21.4097 5.71523C21.4336 5.67735 21.4579 5.63977 21.4827 5.6025C21.5075 5.56522 21.5328 5.52827 21.5585 5.49164C21.5842 5.45498 21.6103 5.41863 21.6369 5.38261C21.6635 5.34663 21.6905 5.31096 21.718 5.27562C21.7455 5.24027 21.7734 5.20527 21.8018 5.1706C22.8184 3.92977 24.1765 3.26995 25.7592 3.10743Z" fill="#FEFEFE"/>
<path d="M25.4059 5.66837C25.7886 5.66126 26.2799 5.59773 26.6506 5.69086C26.8636 5.74444 27.0387 5.87301 27.1435 6.06741C27.3226 6.39951 27.3053 7.32129 27.1963 7.68367C27.5248 7.61435 28.1609 7.60166 28.4895 7.65356C28.7143 7.6891 28.9169 7.78584 29.0498 7.97602C29.2539 8.26811 29.2531 9.19004 29.1771 9.54267C29.1304 9.75915 29.0076 9.95745 28.8148 10.0722C28.5432 10.2338 27.5233 10.212 27.2005 10.1332C27.2765 10.4905 27.3084 11.4544 27.1631 11.7804C27.0671 11.996 26.9186 12.1196 26.701 12.2009C26.3932 12.2753 25.8029 12.2732 25.4877 12.2368C25.2512 12.2095 25.0254 12.1129 24.8815 11.9168C24.6546 11.6073 24.7112 10.5613 24.7737 10.1646C24.38 10.1837 23.9003 10.203 23.5123 10.1643C23.3085 10.1439 23.124 10.0671 22.9942 9.90382C22.7587 9.60736 22.7735 8.74698 22.8238 8.36988C22.856 8.12831 22.9577 7.90401 23.1605 7.75974C23.4804 7.53224 24.3689 7.59881 24.7563 7.66275C24.7098 7.22552 24.651 6.37351 24.8844 6.00535C25.0113 5.80512 25.1811 5.71935 25.4059 5.66837Z" fill="#010101"/>
<path d="M10.2959 33.9554C10.3424 33.9524 10.3889 33.9502 10.4354 33.9488C10.7418 33.9428 11.0494 33.9562 11.3561 33.9544C12.0335 33.9504 12.7714 33.8695 13.296 34.3951C13.6963 34.796 13.6679 35.2959 13.6743 35.8153L13.6885 36.6428C13.6905 36.6376 13.6923 36.6323 13.6944 36.6271C13.8288 36.2851 13.9036 35.9172 14.0175 35.5669C14.0591 35.5648 14.1006 35.5628 14.1423 35.5611C15.2465 35.517 16.1374 35.5282 16.9934 36.3264C17.397 36.7029 17.7106 37.1995 17.8908 37.7205C18.0746 38.2519 18.1373 38.8541 18.2337 39.4079C18.4239 40.4923 18.6062 41.5779 18.7809 42.6649C18.883 43.2707 19.002 43.8734 19.1032 44.4796C19.1524 44.775 19.2192 45.08 19.2275 45.3793C19.2446 46.0023 19.0068 46.5872 18.5755 47.0325C18.1705 47.4506 17.6421 47.6588 17.062 47.6615C17.0113 47.6615 16.9607 47.6597 16.9101 47.656C16.8596 47.6524 16.8092 47.6469 16.7591 47.6397C16.7089 47.6324 16.659 47.6233 16.6095 47.6124C16.56 47.6016 16.511 47.5889 16.4623 47.5745C16.4137 47.5601 16.3657 47.544 16.3183 47.5261C16.2708 47.5082 16.2241 47.4887 16.1781 47.4675C16.132 47.4462 16.0868 47.4233 16.0424 47.3989C15.9981 47.3743 15.9546 47.3483 15.9121 47.3207C15.5821 47.1097 15.3235 46.7986 15.0591 46.5139C14.5591 45.9755 14.0802 45.3947 13.5581 44.8801C13.0959 44.4246 12.5069 44.5307 11.9128 44.5327C11.4482 44.5329 10.9837 44.5271 10.5193 44.5153C10.1847 44.5086 9.81224 44.4705 9.48374 44.5333C9.3089 44.5667 9.16544 44.6499 9.03168 44.7659C8.84882 44.9243 8.70024 45.1396 8.53814 45.3204C8.04455 45.8713 7.30695 46.7643 6.75999 47.1996C6.73097 47.2229 6.70139 47.2455 6.67122 47.2673C6.64109 47.2891 6.61042 47.3101 6.57921 47.3304C6.54803 47.3506 6.51634 47.3701 6.48414 47.3887C6.45198 47.4074 6.41936 47.4253 6.38629 47.4424C6.35325 47.4594 6.31978 47.4756 6.28589 47.491C6.25201 47.5063 6.21776 47.5209 6.18316 47.5345C6.14856 47.5482 6.11364 47.561 6.0784 47.5729C6.04316 47.5848 6.00763 47.5958 5.97181 47.6059C5.93603 47.6161 5.90001 47.6253 5.86375 47.6337C5.82749 47.642 5.79105 47.6494 5.75442 47.6559C5.71779 47.6624 5.68102 47.668 5.64412 47.6727C5.60722 47.6773 5.57022 47.6811 5.53311 47.6839C5.49601 47.6867 5.45887 47.6886 5.4217 47.6895C5.38449 47.6905 5.3473 47.6905 5.31013 47.6896C5.27293 47.6887 5.23577 47.6869 5.19867 47.6841C5.16156 47.6814 5.12456 47.6777 5.08766 47.6731C4.48566 47.5984 3.92619 47.2264 3.56024 46.7505C3.20473 46.2883 3.03606 45.6359 3.11327 45.0594C3.17279 44.6149 3.28412 44.1719 3.37756 43.7332C3.53793 42.9898 3.69441 42.2455 3.84699 41.5005L4.30942 39.1892C4.41583 38.6437 4.48504 38.0515 4.68987 37.5332C4.90577 36.987 5.26316 36.4822 5.73324 36.1259C6.61409 35.4581 7.60976 35.3887 8.67093 35.5285C8.80495 35.9472 8.92174 36.3801 9.02788 36.8067C9.08846 36.1455 8.88777 35.0177 9.28127 34.4935C9.53543 34.1549 9.89177 34.0095 10.2959 33.9554Z" fill="#010101"/>
<path d="M7.41994 36.1393C7.60174 36.1129 8.1127 36.053 8.24808 36.1701C8.38235 36.2862 8.35264 36.608 8.35645 36.7746C7.2515 36.7881 6.66757 36.7258 5.7499 37.4555C5.56983 37.6252 5.40708 37.8083 5.24915 37.9985C5.33867 37.689 5.49975 37.3906 5.69252 37.1334C6.12365 36.5583 6.71241 36.2388 7.41994 36.1393Z" fill="#FEFEFE"/>
<path d="M14.4296 36.1686C14.7736 36.1653 15.1193 36.1653 15.4583 36.2321C16.0292 36.3447 16.5571 36.6443 16.8749 37.143C16.9824 37.3117 17.2611 37.9115 17.2181 38.1L17.1594 38.0107C17.0811 37.8975 16.9895 37.7967 16.8933 37.6986C16.1201 36.9109 15.3028 36.829 14.2584 36.8192C14.2736 36.6317 14.2669 36.3597 14.3502 36.1899L14.4296 36.1686Z" fill="#FEFEFE"/>
<path d="M10.2308 34.713C10.2652 34.7112 10.2993 34.7094 10.3338 34.7089C10.7398 34.703 11.1464 34.7088 11.5525 34.7076C11.81 34.7068 12.0894 34.6844 12.3429 34.7216C12.4867 34.7427 12.6523 34.7936 12.7547 34.9029C12.8311 34.9845 12.8513 35.1082 12.863 35.2153C12.9011 35.5665 12.8499 35.9559 12.8493 36.3115C12.8482 36.9017 12.8804 37.4924 12.8665 38.0825C12.8337 38.1331 12.8009 38.1846 12.7635 38.232C12.6699 38.3505 12.571 38.4055 12.4223 38.4196C11.9239 38.4377 11.4222 38.4388 10.9235 38.4359C10.662 38.4343 10.373 38.4507 10.1155 38.4056C9.90507 38.3687 9.82092 38.2823 9.70093 38.1103C9.69397 37.6371 9.63303 35.2251 9.79218 34.9618C9.88673 34.8053 10.0636 34.7533 10.2308 34.713Z" fill="#FEFEFE"/>
<path d="M7.17619 38.9838C7.21211 38.9814 7.24806 38.9799 7.28405 38.9791C7.32003 38.9783 7.35604 38.9783 7.39206 38.9791C7.42804 38.98 7.464 38.9816 7.49992 38.984C7.53584 38.9864 7.57169 38.9896 7.60747 38.9936C7.64325 38.9976 7.67892 39.0023 7.71447 39.0079C7.75005 39.0135 7.78548 39.0198 7.82075 39.027C7.85603 39.0341 7.89113 39.042 7.92607 39.0507C7.96101 39.0595 7.99574 39.069 8.03027 39.0792C8.06477 39.0894 8.09903 39.1004 8.13306 39.1122C8.16708 39.1239 8.20083 39.1364 8.23431 39.1497C8.2678 39.163 8.30096 39.177 8.33379 39.1917C8.36663 39.2064 8.39913 39.2219 8.43129 39.238C8.46349 39.2542 8.4953 39.2711 8.52671 39.2886C8.55813 39.3062 8.58914 39.3245 8.61974 39.3434C8.65035 39.3624 8.68053 39.382 8.71029 39.4023C8.74001 39.4226 8.76928 39.4435 8.79809 39.4651C9.27893 39.8226 9.64593 40.4338 9.72967 41.0275C9.73485 41.0661 9.73906 41.1049 9.74231 41.1437C9.74556 41.1825 9.74785 41.2214 9.74917 41.2603C9.75045 41.2993 9.75078 41.3382 9.75013 41.3772C9.74949 41.4161 9.74786 41.455 9.74526 41.4939C9.74265 41.5328 9.73908 41.5716 9.73454 41.6103C9.72997 41.649 9.72445 41.6875 9.71799 41.7259C9.71152 41.7644 9.70407 41.8026 9.69564 41.8407C9.68725 41.8787 9.67791 41.9165 9.66761 41.9541C9.65732 41.9917 9.6461 42.029 9.63395 42.066C9.62179 42.103 9.60871 42.1397 9.59469 42.176C9.58071 42.2124 9.56581 42.2484 9.55 42.284C9.53419 42.3196 9.5175 42.3548 9.49993 42.3896C9.48236 42.4244 9.46393 42.4587 9.44463 42.4925C9.42534 42.5264 9.40521 42.5597 9.38425 42.5926C9.36326 42.6254 9.34148 42.6577 9.3189 42.6895C9.29632 42.7212 9.27296 42.7524 9.24882 42.783C8.84288 43.3076 8.32516 43.5838 7.6743 43.6702C7.08732 43.7362 6.47007 43.5914 5.99613 43.234C5.46552 42.8339 5.13041 42.3028 5.04402 41.6413C5.03878 41.603 5.03449 41.5647 5.03115 41.5262C5.02782 41.4878 5.02544 41.4492 5.02403 41.4106C5.02261 41.3721 5.02215 41.3335 5.02266 41.2949C5.02317 41.2563 5.02464 41.2177 5.02706 41.1792C5.02949 41.1407 5.03288 41.1022 5.03722 41.0639C5.04156 41.0255 5.04686 40.9873 5.05311 40.9491C5.05936 40.9111 5.06655 40.8731 5.07468 40.8354C5.08282 40.7976 5.09189 40.7601 5.10188 40.7229C5.1119 40.6856 5.12283 40.6486 5.13468 40.6118C5.14653 40.5751 5.15929 40.5386 5.17297 40.5025C5.18661 40.4664 5.20115 40.4307 5.21659 40.3953C5.23206 40.3599 5.24838 40.325 5.26554 40.2904C5.28274 40.2558 5.30079 40.2217 5.31968 40.188C5.33857 40.1543 5.35829 40.1212 5.37884 40.0885C5.39935 40.0558 5.42068 40.0236 5.44282 39.992C5.46496 39.9604 5.48788 39.9293 5.51158 39.8988C5.92087 39.3697 6.51938 39.0664 7.17619 38.9838Z" fill="#FEFEFE"/>
<path d="M7.31313 39.6946C7.71004 39.6992 8.09953 39.808 8.41412 40.0558C8.43494 40.0721 8.45533 40.0889 8.47531 40.1063C8.49525 40.1236 8.51477 40.1415 8.53386 40.1598C8.55292 40.1781 8.5715 40.1969 8.58962 40.2162C8.60776 40.2354 8.6254 40.2551 8.64253 40.2753C8.65966 40.2954 8.67627 40.316 8.69235 40.337C8.70846 40.3579 8.72403 40.3793 8.73907 40.4011C8.75406 40.4229 8.76852 40.445 8.78243 40.4675C8.79635 40.49 8.80969 40.5128 8.82245 40.536C8.83521 40.5591 8.84738 40.5826 8.85896 40.6064C8.87054 40.6302 8.88151 40.6542 8.89187 40.6786C8.90226 40.7029 8.91203 40.7275 8.92117 40.7523C8.93027 40.7771 8.93877 40.8022 8.94666 40.8274C8.95455 40.8526 8.96178 40.8781 8.96834 40.9037C8.97494 40.9293 8.9809 40.955 8.98622 40.981C8.9915 41.0069 8.99614 41.0329 9.00013 41.0591C9.00413 41.0852 9.00746 41.1114 9.01014 41.1377C9.05833 41.5874 8.95372 42.0447 8.6603 42.3967C8.35359 42.7648 7.95541 42.947 7.48396 42.9884C7.0801 42.9956 6.68705 42.8989 6.36251 42.6503C6.34074 42.6334 6.31943 42.6159 6.29857 42.5979C6.27768 42.58 6.25725 42.5615 6.23728 42.5424C6.21734 42.5234 6.19787 42.504 6.17888 42.484C6.15989 42.464 6.1414 42.4436 6.12343 42.4227C6.10549 42.4018 6.08805 42.3805 6.07112 42.3587C6.05423 42.3369 6.0379 42.3148 6.02212 42.2922C6.00631 42.2696 5.99108 42.2466 5.97642 42.2233C5.96179 42.1999 5.94774 42.1762 5.93427 42.1522C5.92079 42.1282 5.90793 42.1038 5.89567 42.0791C5.88342 42.0544 5.87179 42.0294 5.86079 42.0042C5.84979 41.9789 5.83943 41.9534 5.82971 41.9276C5.81996 41.9018 5.81087 41.8758 5.80244 41.8496C5.79401 41.8233 5.78624 41.7969 5.77913 41.7703C5.77202 41.7437 5.76557 41.7169 5.75978 41.6899C5.75403 41.663 5.74893 41.6359 5.7445 41.6087C5.74006 41.5815 5.73632 41.5542 5.73328 41.5268C5.72989 41.5003 5.72718 41.4737 5.72515 41.4471C5.72312 41.4205 5.72177 41.3938 5.72109 41.3672C5.72041 41.3405 5.72041 41.3138 5.72109 41.2871C5.72177 41.2604 5.7231 41.2337 5.7251 41.2071C5.72713 41.1805 5.72982 41.1539 5.73317 41.1274C5.73656 41.1009 5.74059 41.0745 5.74526 41.0482C5.74997 41.0219 5.75533 40.9958 5.76136 40.9697C5.76738 40.9437 5.77405 40.9179 5.78137 40.8922C5.78871 40.8665 5.7967 40.8411 5.80533 40.8158C5.81393 40.7905 5.82318 40.7655 5.83306 40.7407C5.84295 40.7159 5.85346 40.6913 5.8646 40.667C5.87573 40.6428 5.88746 40.6188 5.89979 40.5951C5.91214 40.5714 5.92508 40.5481 5.93858 40.525C5.95209 40.502 5.96619 40.4793 5.98089 40.457C5.99554 40.4347 6.01076 40.4128 6.02654 40.3912C6.04231 40.3697 6.05863 40.3485 6.07549 40.3278C6.39699 39.9281 6.81294 39.7502 7.31313 39.6946Z" fill="#010101"/>
<path d="M7.14292 39.8926C7.51429 39.8623 7.84198 39.9195 8.15901 40.1204C8.17969 40.1333 8.20005 40.1468 8.22009 40.1607C8.2401 40.1747 8.25975 40.1891 8.27905 40.2041C8.29835 40.219 8.31726 40.2345 8.33577 40.2504C8.35426 40.2663 8.37235 40.2826 8.39006 40.2994C8.40773 40.3162 8.42498 40.3335 8.44181 40.3512C8.45863 40.3688 8.475 40.3869 8.49091 40.4055C8.50682 40.424 8.52224 40.4429 8.53717 40.4621C8.55214 40.4814 8.56661 40.5011 8.58059 40.5211C8.59454 40.5411 8.60798 40.5615 8.62091 40.5822C8.63388 40.6029 8.64628 40.6238 8.65813 40.6451C8.67002 40.6665 8.68136 40.6881 8.69216 40.71C8.70296 40.7319 8.7132 40.754 8.72288 40.7764C8.73253 40.7988 8.74162 40.8215 8.75015 40.8443C8.75868 40.8672 8.76664 40.8903 8.77402 40.9135C8.7814 40.9368 8.78818 40.9602 8.79438 40.9838C8.80058 41.0074 8.80616 41.0311 8.81114 41.055C8.81598 41.0783 8.82023 41.1017 8.82388 41.1251C8.82757 41.1486 8.83067 41.1721 8.83318 41.1957C8.83568 41.2193 8.83761 41.243 8.83897 41.2667C8.84032 41.2904 8.8411 41.3142 8.8413 41.3379C8.84147 41.3617 8.84106 41.3854 8.84008 41.4091C8.8391 41.4329 8.83753 41.4566 8.83536 41.4802C8.83323 41.5039 8.8305 41.5274 8.82718 41.5509C8.82387 41.5745 8.81997 41.5979 8.8155 41.6212C8.81104 41.6445 8.80599 41.6677 8.80037 41.6908C8.79475 41.7139 8.78857 41.7368 8.78184 41.7596C8.7751 41.7824 8.7678 41.805 8.75995 41.8274C8.7521 41.8498 8.7437 41.872 8.73476 41.894C8.72582 41.916 8.71635 41.9377 8.70632 41.9593C8.6963 41.9808 8.68576 42.0021 8.67469 42.0231C8.66362 42.0441 8.65204 42.0648 8.63995 42.0853C8.62787 42.1057 8.61529 42.1258 8.60222 42.1457C8.38249 42.4778 8.05993 42.6975 7.67034 42.7786C7.29095 42.821 6.95508 42.8005 6.61622 42.5963C6.59564 42.584 6.57536 42.5711 6.55539 42.5577C6.53545 42.5443 6.51583 42.5305 6.49653 42.5162C6.47727 42.5019 6.45836 42.4871 6.43981 42.4718C6.42126 42.4565 6.40309 42.4408 6.38532 42.4247C6.36755 42.4085 6.35018 42.3919 6.33322 42.3749C6.31626 42.3579 6.29972 42.3405 6.2836 42.3226C6.26749 42.3048 6.25183 42.2866 6.23663 42.2681C6.22143 42.2494 6.20669 42.2305 6.1924 42.2112C6.17815 42.1918 6.16437 42.1722 6.15107 42.1522C6.13776 42.1322 6.12495 42.1119 6.11262 42.0912C6.10034 42.0706 6.08855 42.0497 6.07728 42.0285C6.06601 42.0073 6.05526 41.9858 6.04503 41.9641C6.03481 41.9423 6.02513 41.9204 6.01599 41.8981C6.00685 41.8759 5.99827 41.8535 5.99024 41.8309C5.98222 41.8082 5.97474 41.7854 5.9678 41.7624C5.96089 41.7394 5.95456 41.7162 5.9488 41.6929C5.85547 41.3235 5.91676 40.9108 6.11765 40.5878C6.35404 40.2077 6.71458 39.9928 7.14292 39.8926Z" fill="#FEFEFE"/>
<path d="M8.30298 41.0058C8.33995 41.0041 8.38164 41.0003 8.4182 41.0057C8.49651 41.0173 8.55927 41.0608 8.60279 41.1258C8.65312 41.2009 8.66825 41.2793 8.64987 41.3677C8.6264 41.4805 8.57979 41.5306 8.48604 41.593C8.36854 41.586 8.27581 41.5551 8.19598 41.4636C8.18887 41.4554 8.18226 41.4469 8.17613 41.438C8.17003 41.4291 8.16446 41.4199 8.15942 41.4103C8.15434 41.4008 8.14986 41.391 8.14596 41.3809C8.14204 41.3708 8.13872 41.3605 8.13601 41.3501C8.13327 41.3396 8.13115 41.329 8.12966 41.3184C8.12817 41.3076 8.12729 41.2969 8.12702 41.2861C8.12679 41.2753 8.12716 41.2645 8.12814 41.2537C8.12912 41.2429 8.13073 41.2323 8.13296 41.2217C8.15485 41.1133 8.21767 41.0647 8.30298 41.0058Z" fill="#010101"/>
<path d="M6.92109 41.0045C6.95494 41.0037 6.98878 41.0043 7.0226 41.0062C7.13198 41.0123 7.22405 41.0555 7.29372 41.142C7.34699 41.2082 7.37162 41.2867 7.36106 41.3712C7.34537 41.497 7.26498 41.5749 7.17149 41.6512C7.05566 41.665 6.96959 41.661 6.87508 41.5837C6.80983 41.5304 6.77519 41.455 6.76803 41.3718C6.75397 41.2085 6.81836 41.1235 6.92109 41.0045Z" fill="#010101"/>
<path d="M14.9967 38.9842C15.516 38.9473 16.072 39.0838 16.5064 39.3738C17.0312 39.7242 17.3751 40.2962 17.4899 40.9118C17.608 41.5444 17.4477 42.1841 17.0807 42.7087C16.686 43.2729 16.0827 43.5793 15.4168 43.6951C14.7906 43.7338 14.2511 43.6187 13.7458 43.2337C13.248 42.8546 12.9226 42.3441 12.8434 41.719C12.7639 41.0912 12.9273 40.3952 13.321 39.8946C13.7353 39.3678 14.3374 39.0596 14.9967 38.9842Z" fill="#FEFEFE"/>
<path d="M14.9867 39.6904C15.3526 39.6602 15.7248 39.7214 16.04 39.9171C16.4265 40.1571 16.6953 40.5661 16.7905 41.0082C16.8814 41.4297 16.7868 41.8822 16.5495 42.2406C16.2835 42.6423 15.8857 42.8883 15.4181 42.9819C15.0277 43.0144 14.6801 42.9913 14.3361 42.788C14.3133 42.7744 14.2909 42.7602 14.2688 42.7455C14.2467 42.7308 14.225 42.7155 14.2037 42.6998C14.1824 42.684 14.1615 42.6677 14.1409 42.6509C14.1204 42.6341 14.1003 42.6168 14.0807 42.599C14.061 42.5812 14.0417 42.563 14.023 42.5443C14.0042 42.5255 13.9859 42.5063 13.968 42.4867C13.9502 42.467 13.9329 42.447 13.916 42.4265C13.8992 42.406 13.8828 42.3851 13.867 42.3638C13.8512 42.3426 13.8359 42.3209 13.8211 42.2989C13.8064 42.2768 13.7922 42.2545 13.7785 42.2317C13.7648 42.209 13.7517 42.1859 13.7392 42.1625C13.7267 42.1391 13.7147 42.1155 13.7034 42.0915C13.692 42.0675 13.6812 42.0433 13.6711 42.0188C13.6609 41.9943 13.6513 41.9696 13.6424 41.9446C13.6334 41.9197 13.6251 41.8945 13.6173 41.8691C13.6096 41.8437 13.6025 41.8182 13.5961 41.7924C13.4863 41.3394 13.5519 40.8397 13.8013 40.443C14.0723 40.0119 14.5045 39.8007 14.9867 39.6904Z" fill="#010101"/>
<path d="M14.9328 39.8918C15.2704 39.8573 15.6032 39.886 15.9049 40.0526C16.2367 40.2357 16.4749 40.5544 16.5818 40.9154C16.5887 40.9385 16.5951 40.9618 16.6008 40.9852C16.6066 41.0086 16.6118 41.0322 16.6164 41.0559C16.6209 41.0796 16.6249 41.1033 16.6283 41.1272C16.6317 41.1511 16.6345 41.175 16.6367 41.1991C16.6389 41.2231 16.6405 41.2472 16.6415 41.2713C16.6425 41.2954 16.6429 41.3195 16.6427 41.3436C16.6425 41.3677 16.6416 41.3918 16.6402 41.4159C16.6388 41.44 16.6368 41.464 16.6341 41.488C16.6315 41.512 16.6283 41.5359 16.6245 41.5597C16.6207 41.5835 16.6163 41.6072 16.6113 41.6308C16.6063 41.6544 16.6007 41.6779 16.5945 41.7012C16.5883 41.7245 16.5816 41.7477 16.5743 41.7707C16.5669 41.7936 16.559 41.8164 16.5505 41.839C16.542 41.8616 16.533 41.8839 16.5234 41.906C16.5138 41.9282 16.5037 41.9501 16.493 41.9717C16.4823 41.9933 16.4711 42.0147 16.4593 42.0357C16.247 42.4127 15.8947 42.6623 15.482 42.772C15.1086 42.8482 14.7286 42.8225 14.3942 42.6234C14.3749 42.612 14.3559 42.6 14.3372 42.5875C14.3186 42.5751 14.3002 42.5622 14.2821 42.5489C14.2641 42.5356 14.2463 42.5218 14.229 42.5076C14.2116 42.4934 14.1946 42.4788 14.1779 42.4637C14.1613 42.4487 14.145 42.4333 14.1291 42.4174C14.1132 42.4015 14.0977 42.3853 14.0826 42.3687C14.0675 42.3521 14.0529 42.3351 14.0386 42.3178C14.0244 42.3004 14.0105 42.2828 13.9971 42.2648C13.9837 42.2468 13.9708 42.2284 13.9583 42.2098C13.9459 42.1911 13.9338 42.1722 13.9223 42.1529C13.9107 42.1337 13.8997 42.1142 13.8891 42.0944C13.8785 42.0746 13.8684 42.0546 13.8588 42.0343C13.8492 42.014 13.8401 41.9935 13.8315 41.9728C13.8229 41.952 13.8148 41.9311 13.8073 41.91C13.7997 41.8888 13.7927 41.8675 13.7862 41.8461C13.7797 41.8246 13.7737 41.8029 13.7682 41.7812C13.6684 41.3918 13.7261 40.9484 13.9315 40.6024C14.1604 40.2167 14.5072 40.0037 14.9328 39.8918Z" fill="#FEFEFE"/>
<path d="M14.1675 41.0843C14.2189 41.0774 14.2726 41.0746 14.3244 41.0771C14.4218 41.0817 14.5149 41.1379 14.5761 41.2125C14.6296 41.2777 14.6456 41.354 14.6364 41.436C14.6243 41.5443 14.5433 41.6146 14.4648 41.6793C14.4196 41.6867 14.375 41.6926 14.3291 41.693C14.2403 41.6938 14.1522 41.653 14.0905 41.5895C14.0297 41.5269 13.9975 41.4459 14.0029 41.3585C14.0107 41.2317 14.0741 41.162 14.1675 41.0843Z" fill="#010101"/>
<path d="M15.5379 41.0858C15.5889 41.0806 15.641 41.0746 15.6922 41.0755C15.7865 41.0773 15.8875 41.1306 15.9499 41.1997C16.014 41.2708 16.0362 41.3521 16.0245 41.4469C16.0081 41.5795 15.9071 41.6593 15.805 41.7296C15.7522 41.7382 15.702 41.7458 15.6484 41.7403C15.6362 41.7389 15.6241 41.737 15.612 41.7345C15.6 41.7319 15.5881 41.7287 15.5764 41.725C15.5647 41.7212 15.5533 41.7168 15.542 41.7119C15.5307 41.7069 15.5197 41.7014 15.5091 41.6954C15.4984 41.6893 15.488 41.6827 15.478 41.6756C15.468 41.6684 15.4583 41.6608 15.4491 41.6527C15.4399 41.6445 15.4311 41.636 15.4227 41.627C15.4143 41.6179 15.4065 41.6085 15.3991 41.5987C15.3422 41.5229 15.3243 41.4216 15.3441 41.3295C15.3698 41.2101 15.4421 41.1531 15.5379 41.0858Z" fill="#010101"/>
<path d="M15.6812 6.58733C16.7499 6.52507 17.7871 6.74932 18.8025 7.05492C18.647 7.60407 18.6297 8.17592 18.6257 8.74264C18.3279 8.62848 18.0347 8.49934 17.7296 8.4055C16.0311 7.88296 14.0128 8.17079 12.4602 9.00172C12.4069 9.03002 12.354 9.05897 12.3014 9.08856C12.2488 9.11815 12.1965 9.14838 12.1447 9.17925C12.0928 9.21013 12.0414 9.24163 11.9903 9.27376C11.9392 9.30592 11.8885 9.33869 11.8383 9.37207C11.788 9.40548 11.7381 9.43949 11.6887 9.47409C11.6393 9.50872 11.5903 9.54395 11.5417 9.57976C11.4932 9.61558 11.445 9.65201 11.3974 9.68905C11.3497 9.72605 11.3025 9.76364 11.2557 9.80183C11.209 9.83998 11.1628 9.87873 11.117 9.91807C11.0712 9.95737 11.0259 9.99724 10.9811 10.0377C10.9363 10.0781 10.892 10.1191 10.8482 10.1606C10.8044 10.2021 10.7611 10.2442 10.7184 10.2868C10.6756 10.3294 10.6334 10.3725 10.5917 10.4161C10.55 10.4597 10.5088 10.5039 10.4682 10.5485C10.4276 10.5932 10.3875 10.6383 10.348 10.6839C10.3086 10.7295 10.2696 10.7756 10.2312 10.8222C10.1929 10.8688 10.1551 10.9159 10.1179 10.9634C10.0807 11.0109 10.0441 11.0589 10.0081 11.1073C9.97203 11.1557 9.93662 11.2046 9.90182 11.2539C9.86698 11.3032 9.83277 11.3529 9.79919 11.403C9.76561 11.4532 9.73263 11.5037 9.70027 11.5546C9.66794 11.6056 9.63623 11.6569 9.60515 11.7087C9.57404 11.7604 9.54359 11.8125 9.5138 11.865C9.48401 11.9175 9.45486 11.9703 9.42635 12.0235C9.39785 12.0767 9.37002 12.1302 9.34287 12.1841C9.31568 12.238 9.28916 12.2922 9.2633 12.3468C9.23746 12.4013 9.21229 12.4561 9.18778 12.5113C9.16331 12.5665 9.13951 12.6219 9.11639 12.6776C9.09326 12.7334 9.07082 12.7894 9.04905 12.8457C9.02732 12.902 9.00628 12.9586 8.98593 13.0154C8.96555 13.0722 8.9459 13.1292 8.92697 13.1866C8.90801 13.2438 8.88977 13.3014 8.87223 13.3591C8.26854 15.3953 8.62848 17.6374 9.62455 19.4849C9.94778 19.5207 10.2598 19.5817 10.5715 19.6752C12.2686 20.1846 13.7396 21.2662 14.5794 22.8449C15.404 24.395 15.5999 26.1452 15.0854 27.8272C14.567 29.5215 13.3976 30.8896 11.8393 31.7189C11.8943 32.2525 11.8867 32.8297 11.8749 33.3665C11.5234 33.3526 11.1684 33.3638 10.8165 33.3658C10.8157 32.9655 10.8289 32.561 10.7992 32.1618C10.6351 32.2105 10.4675 32.2495 10.3015 32.2915C10.0153 32.3493 9.71804 32.3706 9.42808 32.4047C9.54051 32.7856 9.68463 33.161 9.82194 33.5335C9.73307 33.5756 9.644 33.6178 9.55722 33.664C9.01548 33.9524 8.69023 34.3531 8.51326 34.9364L8.17379 34.9321C8.05831 34.6088 7.98478 34.2644 7.89083 33.9337C7.72864 33.3629 7.55131 32.7891 7.3523 32.2301C6.61643 32.1008 5.8738 31.7341 5.26001 31.3123C5.2158 31.2818 5.17196 31.2507 5.12849 31.2191C5.08503 31.1875 5.04196 31.1554 4.99929 31.1227C4.95662 31.0901 4.91435 31.0569 4.87249 31.0232C4.83063 30.9895 4.78919 30.9553 4.74818 30.9206C4.70716 30.8859 4.66657 30.8507 4.62641 30.815C4.58626 30.7793 4.54654 30.7431 4.50728 30.7064C4.46801 30.6698 4.4292 30.6326 4.39084 30.595C4.35248 30.5573 4.31459 30.5192 4.27717 30.4806C4.23974 30.4421 4.2028 30.4031 4.16634 30.3636C4.12987 30.3242 4.0939 30.2843 4.05841 30.2439C4.02293 30.2035 3.98794 30.1628 3.95345 30.1216C3.91896 30.0804 3.88499 30.0387 3.85152 29.9967C3.81806 29.9547 3.78511 29.9122 3.75269 29.8694C3.72027 29.8265 3.68837 29.7833 3.65701 29.7396C3.62564 29.696 3.59482 29.652 3.56454 29.6076C3.53425 29.5632 3.50452 29.5185 3.47533 29.4734C3.44615 29.4283 3.41752 29.3828 3.38945 29.337C3.36137 29.2912 3.33387 29.245 3.30693 29.1985C3.27999 29.152 3.25363 29.1052 3.22784 29.0581C3.20205 29.0109 3.17684 28.9635 3.15222 28.9157C3.12759 28.868 3.10355 28.8199 3.0801 28.7716C3.05665 28.7232 3.0338 28.6746 3.01155 28.6257C2.98929 28.5768 2.96764 28.5276 2.94659 28.4781C2.92555 28.4287 2.90511 28.379 2.88527 28.3291C2.86545 28.2792 2.84623 28.229 2.82763 28.1786C2.80903 28.1282 2.79105 28.0775 2.7737 28.0266C2.75634 27.9758 2.73961 27.9247 2.72351 27.8735C2.7074 27.8222 2.69193 27.7708 2.67709 27.7191C2.66224 27.6675 2.64804 27.6157 2.63447 27.5637C2.62089 27.5117 2.60796 27.4595 2.59567 27.4072C2.58338 27.3549 2.57173 27.3025 2.56073 27.2499C2.54972 27.1973 2.53936 27.1446 2.52965 27.0917C2.23506 25.4355 2.59011 23.6269 3.56222 22.2461C4.60765 20.7612 6.15716 19.819 7.93953 19.5043C7.82614 19.188 7.68608 18.8816 7.57457 18.5642C7.50056 18.3503 7.43395 18.1341 7.37474 17.9156C7.3155 17.6971 7.2638 17.4768 7.21966 17.2548C7.17551 17.0328 7.139 16.8095 7.11012 16.5849C7.08128 16.3604 7.06012 16.1352 7.04665 15.9092C6.92954 13.6719 7.655 11.3078 9.1695 9.63303C10.4692 8.19572 12.1999 7.13435 14.1113 6.75806C14.6308 6.65578 15.1533 6.6146 15.6812 6.58733Z" fill="#010101"/>
<path d="M8.49844 20.1959C8.50565 20.1948 8.51281 20.1934 8.52007 20.1925C9.79423 20.0357 11.4241 20.6139 12.4073 21.4086C13.6235 22.3916 14.4255 23.7812 14.5865 25.3432C14.7506 26.936 14.2648 28.4593 13.2466 29.6902C12.2581 30.8852 10.83 31.5628 9.29911 31.7021C9.29205 31.7033 9.28504 31.7047 9.27793 31.7056C7.96778 31.8747 6.34618 31.2729 5.33772 30.458C5.30061 30.4278 5.26386 30.3972 5.22747 30.3661C5.19111 30.3351 5.15513 30.3036 5.11951 30.2716C5.08392 30.2396 5.04872 30.2073 5.0139 30.1745C4.97909 30.1417 4.94467 30.1085 4.91067 30.0748C4.87666 30.0412 4.84307 30.0072 4.80989 29.9727C4.77672 29.9382 4.74396 29.9034 4.71164 29.8681C4.67931 29.8329 4.64741 29.7972 4.61595 29.7612C4.58449 29.7252 4.55347 29.6888 4.5229 29.652C4.49232 29.6152 4.4622 29.5781 4.43253 29.5405C4.40286 29.503 4.37365 29.4651 4.3449 29.4269C4.31616 29.3887 4.28788 29.3501 4.26007 29.3112C4.23226 29.2723 4.20493 29.233 4.17807 29.1935C4.15122 29.1539 4.12485 29.1139 4.09897 29.0737C4.07309 29.0335 4.0477 28.993 4.02281 28.9521C3.99791 28.9113 3.97352 28.8701 3.94962 28.8287C3.92573 28.7873 3.90235 28.7456 3.87947 28.7036C3.85659 28.6616 3.83423 28.6193 3.81238 28.5767C3.79053 28.5342 3.7692 28.4914 3.7484 28.4483C3.72759 28.4052 3.70732 28.3619 3.68756 28.3183C3.66781 28.2748 3.64859 28.231 3.62991 28.1869C3.61123 28.1429 3.59308 28.0987 3.57547 28.0542C3.55787 28.0097 3.5408 27.965 3.52428 27.9201C3.50776 27.8752 3.49179 27.8302 3.47637 27.7849C3.46095 27.7396 3.44608 27.6942 3.43176 27.6485C3.41745 27.6029 3.40369 27.5571 3.39049 27.5111C3.37729 27.4651 3.36465 27.419 3.35257 27.3727C3.3405 27.3264 3.32899 27.28 3.31804 27.2335C3.30709 27.1869 3.29671 27.1402 3.2869 27.0934C3.27709 27.0466 3.26785 26.9996 3.25919 26.9526C3.25052 26.9056 3.24243 26.8584 3.23491 26.8112C3.22739 26.7639 3.22044 26.7166 3.21407 26.6692C3.20771 26.6218 3.20192 26.5743 3.19671 26.5268C3.19158 26.4801 3.18703 26.4334 3.18305 26.3866C3.17907 26.3398 3.17567 26.293 3.17284 26.2462C3.17002 26.1993 3.16777 26.1524 3.1661 26.1055C3.16443 26.0586 3.16334 26.0116 3.16282 25.9647C3.16231 25.9178 3.16237 25.8708 3.16301 25.8239C3.16365 25.777 3.16486 25.73 3.16666 25.6831C3.16846 25.6362 3.17083 25.5893 3.17378 25.5424C3.17673 25.4956 3.18025 25.4488 3.18435 25.402C3.18845 25.3552 3.19313 25.3085 3.19838 25.2619C3.20363 25.2152 3.20946 25.1686 3.21585 25.1221C3.22225 25.0756 3.22922 25.0292 3.23676 24.9829C3.2443 24.9365 3.25241 24.8903 3.26109 24.8442C3.26976 24.798 3.27901 24.752 3.28882 24.7061C3.29863 24.6602 3.30901 24.6144 3.31994 24.5688C3.33088 24.5231 3.34238 24.4776 3.35444 24.4322C3.3665 24.3869 3.37911 24.3416 3.39228 24.2966C3.40545 24.2515 3.41918 24.2066 3.43345 24.1619C3.44773 24.1172 3.46255 24.0726 3.47793 24.0283C3.4933 23.9839 3.50922 23.9397 3.52568 23.8958C3.54214 23.8518 3.55913 23.8081 3.57667 23.7645C3.59421 23.721 3.61228 23.6776 3.63088 23.6345C3.64948 23.5914 3.66861 23.5485 3.68827 23.5059C3.70793 23.4633 3.72811 23.4209 3.74881 23.3788C3.76952 23.3366 3.79073 23.2948 3.81246 23.2531C3.8342 23.2115 3.85644 23.1702 3.87919 23.1291C3.90194 23.0881 3.92519 23.0473 3.94894 23.0068C3.9727 22.9663 3.99695 22.9261 4.02169 22.8862C4.04643 22.8463 4.07166 22.8067 4.09738 22.7675C4.1231 22.7282 4.14929 22.6892 4.17597 22.6506C4.20265 22.6119 4.2298 22.5736 4.25741 22.5357C4.28503 22.4977 4.31311 22.4601 4.34166 22.4229C4.37021 22.3856 4.3992 22.3487 4.42866 22.3121C5.4437 21.0767 6.91554 20.3463 8.49844 20.1959Z" fill="#FEFEFE"/>
<path d="M8.62002 21.6939C9.66677 21.6285 10.6706 21.9615 11.4987 22.5975C12.3552 23.2555 12.9995 24.347 13.1301 25.4223C13.2581 26.4755 12.9603 27.6091 12.302 28.4429C12.2784 28.4731 12.2545 28.503 12.2302 28.5326C12.2058 28.5623 12.1812 28.5916 12.1562 28.6205C12.1311 28.6496 12.1057 28.6782 12.0799 28.7066C12.0542 28.735 12.0281 28.763 12.0016 28.7907C11.9751 28.8184 11.9483 28.8458 11.9211 28.8728C11.894 28.8999 11.8665 28.9266 11.8387 28.9529C11.8109 28.9792 11.7827 29.0052 11.7542 29.0309C11.7258 29.0565 11.697 29.0818 11.6679 29.1067C11.6387 29.1316 11.6093 29.1562 11.5796 29.1804C11.5499 29.2045 11.5198 29.2283 11.4895 29.2518C11.4592 29.2751 11.4286 29.2982 11.3977 29.3209C11.3668 29.3435 11.3356 29.3658 11.3042 29.3876C11.2727 29.4095 11.2409 29.431 11.2089 29.452C11.177 29.4731 11.1447 29.4938 11.1122 29.514C11.0796 29.5343 11.0468 29.5541 11.0138 29.5736C10.9808 29.593 10.9476 29.612 10.9141 29.6306C10.8806 29.6493 10.8469 29.6674 10.8129 29.6852C10.7789 29.7029 10.7448 29.7203 10.7104 29.7372C10.676 29.7541 10.6414 29.7705 10.6066 29.7866C10.5718 29.8026 10.5368 29.8182 10.5016 29.8334C10.4664 29.8485 10.431 29.8632 10.3954 29.8774C10.3599 29.8917 10.3241 29.9055 10.2882 29.9189C10.2523 29.9322 10.2162 29.9452 10.18 29.9576C10.1438 29.9701 10.1074 29.9821 10.0708 29.9936C10.0343 30.0052 9.99764 30.0162 9.96084 30.0269C9.92401 30.0375 9.88706 30.0477 9.84999 30.0573C9.81292 30.067 9.77573 30.0763 9.73842 30.085C9.70111 30.0938 9.66371 30.1021 9.62619 30.1099C9.58868 30.1177 9.55109 30.1251 9.51341 30.1319C9.4757 30.1388 9.43791 30.1452 9.40007 30.1511C9.36222 30.1571 9.3243 30.1625 9.28632 30.1675C9.24833 30.1725 9.21028 30.177 9.17216 30.181C8.08976 30.2581 6.95104 29.9036 6.12214 29.1978C6.09546 29.1752 6.06906 29.1524 6.04292 29.1292C6.01682 29.1059 5.99101 29.0824 5.96548 29.0586C5.93992 29.0348 5.91466 29.0106 5.88971 28.9862C5.8648 28.9617 5.84017 28.9369 5.81583 28.9119C5.79149 28.8868 5.76747 28.8615 5.74377 28.8358C5.72007 28.8101 5.69669 28.7842 5.67364 28.758C5.65055 28.7317 5.6278 28.7052 5.60539 28.6784C5.58298 28.6516 5.56091 28.6245 5.53917 28.5972C5.51744 28.5698 5.49604 28.5422 5.47498 28.5144C5.45389 28.4865 5.43317 28.4584 5.41283 28.43C5.39245 28.4016 5.37242 28.373 5.35275 28.3441C5.33312 28.3153 5.31382 28.2862 5.29486 28.2568C5.2759 28.2274 5.25732 28.1979 5.23911 28.168C5.22089 28.1382 5.20305 28.1082 5.18558 28.0779C5.16811 28.0477 5.15102 28.0173 5.13429 27.9866C5.11757 27.9559 5.10123 27.925 5.08529 27.894C5.06933 27.8629 5.05375 27.8316 5.03857 27.8002C5.02337 27.7687 5.00858 27.737 4.99417 27.7052C4.97976 27.6734 4.96575 27.6414 4.95213 27.6092C4.93851 27.5771 4.92529 27.5447 4.91247 27.5122C4.89965 27.4797 4.88723 27.4471 4.87522 27.4143C4.8632 27.3815 4.85159 27.3485 4.84039 27.3155C4.82919 27.2824 4.8184 27.2492 4.80801 27.2158C4.79763 27.1824 4.78766 27.149 4.77811 27.1154C4.76855 27.0818 4.75941 27.0481 4.75068 27.0142C4.74196 26.9804 4.73365 26.9465 4.72576 26.9125C4.71787 26.8784 4.71041 26.8443 4.70336 26.8101C4.69632 26.7759 4.68969 26.7416 4.68349 26.7072C4.67729 26.6728 4.67152 26.6384 4.66617 26.6038C4.66082 26.5693 4.6559 26.5347 4.6514 26.5001C4.6469 26.4654 4.64283 26.4308 4.63919 26.396C4.63555 26.3613 4.63234 26.3265 4.62956 26.2917C4.62678 26.256 4.62445 26.2202 4.62255 26.1845C4.62066 26.1487 4.61921 26.1129 4.61819 26.0771C4.61718 26.0413 4.61661 26.0055 4.61648 25.9697C4.61636 25.9339 4.61667 25.8981 4.61743 25.8623C4.61818 25.8265 4.61938 25.7907 4.62102 25.7549C4.62266 25.7191 4.62474 25.6834 4.62726 25.6477C4.62978 25.6119 4.63274 25.5762 4.63614 25.5406C4.63954 25.5049 4.64338 25.4693 4.64766 25.4338C4.65194 25.3982 4.65666 25.3627 4.66182 25.3273C4.66698 25.2918 4.67257 25.2565 4.67859 25.2211C4.68462 25.1858 4.69109 25.1506 4.69799 25.1155C4.70488 25.0803 4.71221 25.0453 4.71997 25.0103C4.72774 24.9754 4.73593 24.9405 4.74456 24.9057C4.75318 24.871 4.76223 24.8363 4.7717 24.8018C4.78118 24.7673 4.79109 24.7329 4.80142 24.6986C4.81174 24.6643 4.82249 24.6301 4.83366 24.5961C4.84483 24.5621 4.85642 24.5282 4.86842 24.4944C4.88043 24.4607 4.89285 24.4271 4.90569 24.3937C4.91852 24.3602 4.93177 24.3269 4.94542 24.2938C4.95908 24.2607 4.97314 24.2278 4.98761 24.1951C5.00208 24.1623 5.01695 24.1297 5.03222 24.0973C5.04749 24.0649 5.06317 24.0327 5.07925 24.0007C5.09529 23.9687 5.11175 23.9369 5.12861 23.9053C5.14546 23.8737 5.16271 23.8423 5.18035 23.8111C5.19796 23.78 5.21595 23.749 5.23433 23.7183C5.25275 23.6875 5.27152 23.657 5.29065 23.6268C5.30981 23.5965 5.32933 23.5665 5.3492 23.5367C5.36907 23.5069 5.38932 23.4774 5.40993 23.4481C5.43055 23.4188 5.45152 23.3898 5.47285 23.361C5.49418 23.3322 5.51586 23.3037 5.5379 23.2755C5.55994 23.2472 5.58232 23.2193 5.60503 23.1916C5.62775 23.1639 5.65081 23.1365 5.6742 23.1094C6.42327 22.2429 7.48947 21.7735 8.62002 21.6939Z" fill="#010101"/>
<path d="M12.1296 25.3757C12.247 25.3793 12.3453 25.3904 12.4433 25.4577C12.5686 25.6431 12.5521 26.332 12.5232 26.5581C12.477 26.6043 12.4596 26.5902 12.3968 26.5927C12.2344 26.5841 12.0883 26.5603 11.9314 26.5194C11.931 26.3118 12.013 25.4941 12.1296 25.3757Z" fill="#FEFEFE"/>
<path d="M5.23906 25.1113C5.53384 25.3756 5.7037 25.5178 6.11361 25.5159C6.1035 25.8839 6.09777 26.2527 6.06892 26.6198C5.88007 26.454 5.36118 25.7035 5.1637 25.4432L5.23906 25.1113Z" fill="#FEFEFE"/>
<path d="M8.08325 22.5669L8.11413 22.5889C8.19853 22.8356 8.2225 23.5413 8.25982 23.8613C7.99002 24.0101 6.16936 24.748 5.96903 24.7402L5.92455 24.6864C5.83644 24.5793 5.73909 24.5019 5.62976 24.4187C5.89997 24.1519 6.25117 23.9283 6.55657 23.7032L8.08325 22.5669Z" fill="#FEFEFE"/>
<path d="M11.9636 27.2017C12.0238 27.2082 12.1073 27.2168 12.1553 27.2558C12.2469 27.3301 12.2337 27.513 12.2392 27.62C11.7458 27.8453 10.5011 28.3471 10.165 28.7193C10.044 28.8534 9.97445 29.2266 9.87187 29.2961L9.58887 29.3725C9.61771 28.8043 9.61451 28.2342 9.68647 27.6692C10.4205 27.4585 11.212 27.3431 11.9636 27.2017Z" fill="#FEFEFE"/>
<path d="M7.37125 25.0315L7.39664 25.0405C7.45179 25.1767 7.45295 25.3511 7.47068 25.4965C7.52126 25.9113 7.57488 26.7616 7.74119 27.1189C7.97255 27.616 8.62143 28.0399 8.78627 28.4257C8.83491 28.5396 8.83857 28.6944 8.84456 28.8179C8.85325 28.9969 8.89687 29.4658 8.77073 29.6041C8.63514 29.5322 8.4992 29.3765 8.38398 29.2716C7.99256 28.953 7.62322 28.5998 7.25161 28.2585C6.99983 28.0272 6.72897 27.8019 6.5002 27.5477C6.48298 27.0442 6.70749 25.7355 6.93148 25.2885C7.07088 25.1917 7.22276 25.1135 7.37125 25.0315Z" fill="#FEFEFE"/>
<path d="M8.83735 22.2952C8.96629 22.2973 9.13488 22.2901 9.25005 22.3576C9.41854 22.4563 10.8978 23.9 11.0543 24.0864C11.1995 24.2594 11.3629 24.4681 11.4269 24.6875C11.5541 25.1232 11.5563 26.0293 11.3387 26.4289C11.1026 26.5232 10.7671 26.5402 10.5179 26.4911C10.4435 26.4765 10.347 26.447 10.2931 26.3897C10.1766 26.2654 10.3305 25.4017 10.2159 25.1278C9.9811 24.5675 9.18292 24.2033 8.83857 23.6834C8.78627 23.2353 8.83192 22.7468 8.83735 22.2952Z" fill="#FEFEFE"/>
<path d="M35.895 6.51131C36.0291 6.51073 36.163 6.51332 36.2969 6.51908C36.4309 6.52483 36.5645 6.53374 36.698 6.54579C36.8315 6.55784 36.9646 6.57302 37.0974 6.59134C37.2302 6.60965 37.3624 6.63108 37.4942 6.65563C37.626 6.68017 37.7571 6.7078 37.8875 6.7385C38.018 6.76924 38.1477 6.80301 38.2765 6.83981C38.4054 6.87665 38.5333 6.91649 38.6603 6.95935C38.7873 7.00221 38.9132 7.04803 39.038 7.09682C41.3017 7.98569 43.1492 9.65969 44.1225 11.9059C45.2121 14.4205 45.1203 16.8219 44.13 19.3422C45.1405 19.5643 46.0008 19.9055 46.8599 20.4872C46.904 20.5175 46.9477 20.5484 46.991 20.5797C47.0343 20.6111 47.0773 20.643 47.1198 20.6754C47.1624 20.7078 47.2045 20.7407 47.2463 20.7742C47.2881 20.8076 47.3294 20.8415 47.3703 20.8759C47.4113 20.9104 47.4518 20.9453 47.4919 20.9808C47.5319 21.0162 47.5716 21.052 47.6108 21.0884C47.65 21.1248 47.6888 21.1617 47.7271 21.199C47.7655 21.2363 47.8034 21.274 47.8408 21.3123C47.8782 21.3505 47.9151 21.3892 47.9516 21.4283C47.9881 21.4674 48.0241 21.507 48.0596 21.547C48.0951 21.5869 48.1301 21.6274 48.1647 21.6682C48.1992 21.7091 48.2332 21.7503 48.2668 21.792C48.3003 21.8337 48.3334 21.8757 48.3659 21.9182C48.3984 21.9607 48.4304 22.0035 48.4619 22.0468C48.4934 22.09 48.5243 22.1336 48.5548 22.1776C48.5852 22.2216 48.6151 22.2659 48.6444 22.3107C48.6738 22.3554 48.7026 22.4005 48.7309 22.4459C48.7591 22.4913 48.7868 22.537 48.814 22.5831C48.8411 22.6292 48.8677 22.6756 48.8938 22.7223C48.9198 22.7691 48.9453 22.8161 48.9701 22.8635C48.995 22.9108 49.0193 22.9584 49.0431 23.0064C49.0668 23.0543 49.09 23.1025 49.1125 23.151C49.1351 23.1995 49.1571 23.2483 49.1785 23.2973C49.1999 23.3463 49.2207 23.3956 49.2409 23.4451C49.2611 23.4946 49.2807 23.5444 49.2997 23.5944C49.3187 23.6444 49.337 23.6946 49.3548 23.7451C49.3726 23.7956 49.3897 23.8462 49.4063 23.8971C49.4229 23.9479 49.4388 23.999 49.4541 24.0502C49.4694 24.1015 49.4841 24.1529 49.4982 24.2045C49.5122 24.2561 49.5257 24.3079 49.5385 24.3598C49.5513 24.4118 49.5635 24.4639 49.575 24.5161C49.5866 24.5683 49.5975 24.6206 49.6078 24.6732C49.6176 24.723 49.6268 24.7729 49.6353 24.8229C49.6439 24.8729 49.6518 24.923 49.6591 24.9732C49.6665 25.0234 49.6732 25.0737 49.6793 25.1241C49.6853 25.1745 49.6908 25.2249 49.6956 25.2754C49.7004 25.3259 49.7047 25.3765 49.7082 25.4271C49.7119 25.4777 49.7148 25.5284 49.7172 25.579C49.7195 25.6297 49.7212 25.6804 49.7224 25.7311C49.7234 25.7819 49.7239 25.8326 49.7238 25.8834C49.7237 25.9341 49.7229 25.9849 49.7215 26.0356C49.7201 26.0863 49.718 26.137 49.7154 26.1877C49.7128 26.2383 49.7095 26.289 49.7056 26.3395C49.7017 26.3901 49.6972 26.4406 49.692 26.4911C49.6869 26.5416 49.6811 26.592 49.6748 26.6423C49.6684 26.6927 49.6614 26.7429 49.6538 26.7931C49.6462 26.8433 49.6379 26.8934 49.6291 26.9433C49.6202 26.9933 49.6108 27.0431 49.6007 27.0929C49.5906 27.1426 49.58 27.1922 49.5686 27.2417C49.5573 27.2911 49.5454 27.3405 49.533 27.3896C49.5204 27.4388 49.5073 27.4878 49.4936 27.5367C49.4799 27.5855 49.4656 27.6342 49.4506 27.6827C49.4357 27.7312 49.4202 27.7795 49.4041 27.8276C49.388 27.8757 49.3713 27.9236 49.354 27.9713C49.3367 28.019 49.3189 28.0665 49.3004 28.1138C49.2819 28.161 49.2629 28.2081 49.2433 28.2549C49.2237 28.3017 49.2035 28.3482 49.1828 28.3946C49.162 28.4408 49.1406 28.4869 49.1188 28.5326C49.0969 28.5784 49.0744 28.6239 49.0514 28.6691C49.0284 28.7144 49.0048 28.7593 48.9807 28.804C48.9566 28.8486 48.9319 28.8929 48.9067 28.9369C48.8815 28.981 48.8558 29.0247 48.8295 29.0681C48.8032 29.1115 48.7763 29.1546 48.749 29.1973C48.7217 29.2401 48.6938 29.2825 48.6654 29.3245C48.6346 29.3702 48.6033 29.4156 48.5715 29.4606C48.5396 29.5055 48.5072 29.5501 48.4742 29.5942C48.4412 29.6384 48.4077 29.6821 48.3737 29.7254C48.3396 29.7688 48.305 29.8117 48.2699 29.8542C48.2348 29.8966 48.1991 29.9387 48.163 29.9803C48.1269 30.0219 48.0902 30.0631 48.053 30.1037C48.0159 30.1444 47.9782 30.1847 47.9401 30.2245C47.9019 30.2642 47.8633 30.3035 47.8242 30.3423C47.7851 30.3811 47.7455 30.4194 47.7054 30.4573C47.6653 30.4951 47.6248 30.5325 47.5838 30.5693C47.5428 30.6061 47.5014 30.6425 47.4595 30.6783C47.4176 30.7141 47.3753 30.7494 47.3326 30.7842C47.2898 30.8189 47.2466 30.8532 47.203 30.8869C47.1594 30.9206 47.1154 30.9538 47.071 30.9864C47.0266 31.019 46.9817 31.0511 46.9365 31.0826C46.8913 31.1141 46.8457 31.1451 46.7998 31.1755C46.7538 31.2059 46.7074 31.2357 46.6607 31.265C46.614 31.2942 46.567 31.3229 46.5195 31.3509C46.4721 31.379 46.4244 31.4065 46.3763 31.4335C46.3282 31.4604 46.2798 31.4867 46.2311 31.5124C46.1823 31.5381 46.1333 31.5632 46.0839 31.5877C46.0345 31.6122 45.9849 31.6361 45.9349 31.6594C45.885 31.6827 45.8347 31.7054 45.7842 31.7274C45.7337 31.7495 45.6829 31.7709 45.6319 31.7917C45.5809 31.8125 45.5296 31.8327 45.478 31.8522C45.4265 31.8717 45.3747 31.8906 45.3227 31.9089C45.2707 31.9271 45.2185 31.9447 45.1661 31.9617C45.1136 31.9786 45.061 31.995 45.0082 32.0106C44.9553 32.0263 44.9023 32.0413 44.8491 32.0556C44.7959 32.07 44.7425 32.0837 44.689 32.0968C44.6354 32.1098 44.5817 32.1222 44.5279 32.1339C44.474 32.1456 44.42 32.1566 44.3659 32.167C42.5086 32.5114 40.9495 32.0816 39.4172 31.0299C39.3534 31.9861 39.4058 32.9669 39.3978 33.9262C38.5568 34.1683 37.7447 34.5024 37.0258 35.0087C36.0488 35.6968 35.1708 36.7312 34.7176 37.8426C34.5415 38.2743 34.4373 38.7321 34.3153 39.181L33.806 41.0341C33.691 41.4632 33.57 41.8906 33.4432 42.3164C33.3211 42.7255 33.1826 43.1351 33.113 43.5573C32.9715 44.4152 33.1203 45.4295 33.6345 46.1484C33.5077 46.2876 33.378 46.4239 33.2454 46.5576C31.2588 48.5267 28.7797 49.6831 25.9559 49.6663C23.5474 49.652 21.0742 48.7063 19.3675 46.9814C20.1389 45.8953 19.8495 44.9429 19.6282 43.7463C19.5393 43.2657 19.4877 42.7785 19.4072 42.2963C20.3813 42.7863 21.3437 43.1928 22.4037 43.462C22.4935 43.4845 22.5836 43.5061 22.6739 43.5268C22.7642 43.5476 22.8547 43.5675 22.9453 43.5865C23.036 43.6055 23.1269 43.6237 23.2179 43.641C23.3089 43.6583 23.4 43.6748 23.4914 43.6904C23.5827 43.7059 23.6741 43.7206 23.7658 43.7345C23.8574 43.7483 23.9491 43.7613 24.0409 43.7734C24.1328 43.7855 24.2247 43.7967 24.3168 43.8071C24.4089 43.8175 24.501 43.8269 24.5933 43.8355C24.6855 43.8442 24.7778 43.8519 24.8702 43.8588C24.9626 43.8657 25.0551 43.8717 25.1476 43.8768C25.2401 43.8819 25.3326 43.8861 25.4252 43.8895C25.5178 43.8928 25.6104 43.8953 25.703 43.8969C25.7956 43.8985 25.8883 43.8992 25.9809 43.8991C26.0736 43.8989 26.1662 43.8979 26.2588 43.896C26.3514 43.8941 26.444 43.8913 26.5366 43.8876C26.6292 43.884 26.7217 43.8794 26.8142 43.874C26.9067 43.8686 26.9991 43.8623 27.0915 43.8551C27.1838 43.848 27.2761 43.8399 27.3683 43.831C27.4605 43.8221 27.5527 43.8123 27.6447 43.8016C27.7367 43.791 27.8287 43.7794 27.9205 43.767C28.0122 43.7546 28.1039 43.7413 28.1955 43.7272C28.287 43.713 28.3784 43.698 28.4697 43.6821C28.561 43.6663 28.6521 43.6495 28.7431 43.6319C28.834 43.6143 28.9248 43.5958 29.0154 43.5765C29.106 43.5572 29.1965 43.537 29.2867 43.5159C29.3769 43.4949 29.4669 43.473 29.5567 43.4502C29.6465 43.4275 29.7361 43.4039 29.8255 43.3794C29.9148 43.355 30.0039 43.3297 30.0928 43.3036C30.1817 43.2774 30.2703 43.2504 30.3587 43.2226C30.4471 43.1948 30.5352 43.1662 30.623 43.1367C30.7108 43.1072 30.7983 43.0769 30.8856 43.0457C30.9729 43.0146 31.0598 42.9826 31.1464 42.9498C31.7034 42.7408 32.2908 42.5093 32.8025 42.2047C32.9974 41.4368 33.2517 40.6841 33.4673 39.9217C32.8798 39.8927 32.2806 39.9144 31.692 39.913L28.0722 39.9125L18.8604 39.9028L18.7625 39.1275C19.4613 39.1217 20.16 39.121 20.8587 39.1255C22.4835 39.1155 24.1084 39.115 25.7333 39.124L33.5901 39.1293C33.7869 38.5355 34.011 37.9472 34.2174 37.3562C33.2005 37.3192 32.1723 37.3414 31.1542 37.3425L26.538 37.3387C23.7995 37.3384 21.0501 37.2684 18.3132 37.3483C18.1547 37.0929 17.9807 36.8434 17.8475 36.5735C18.3532 36.5697 18.8589 36.5704 19.3645 36.5755C19.093 36.4221 18.8358 36.2572 18.6118 36.0379C18.1857 35.6207 17.8606 35.0237 17.7454 34.4382C17.6555 33.9813 17.702 33.4709 17.7018 33.0062L17.7053 30.5535L17.6975 22.2499C17.6926 21.3796 17.9793 20.632 18.601 20.0115C18.9531 19.6599 19.4563 19.3388 19.9446 19.2238C20.5016 19.0927 21.0873 19.131 21.6551 19.134L23.4227 19.1408L29.9396 19.12C31.0939 19.1218 31.8873 19.3304 32.7219 20.1773C33.1679 20.6299 33.426 21.1802 33.5404 21.8029C33.6353 22.3199 33.6009 22.8659 33.6037 23.3903C33.6125 24.1561 33.6169 24.922 33.6167 25.6879L33.6187 33.6196C33.6133 35.0876 33.2698 35.6594 32.2473 36.6744C32.9569 36.7267 33.8693 36.7089 34.586 36.678C34.8222 36.3788 35.0191 36.0512 35.2626 35.7557C36.2172 34.5972 37.417 33.9364 38.7914 33.3925C38.7621 32.4332 38.8024 31.4716 38.774 30.511C37.9053 29.5262 37.3656 28.8166 37.0137 27.5253C36.544 25.802 36.7495 24.0342 37.6411 22.4837C37.6655 22.4406 37.6904 22.3978 37.7157 22.3552C37.7411 22.3128 37.767 22.2706 37.7934 22.2286C37.8197 22.1868 37.8466 22.1452 37.8739 22.1039C37.9012 22.0627 37.9291 22.0217 37.9574 21.9811C37.9857 21.9405 38.0145 21.9002 38.0438 21.8603C38.0731 21.8204 38.1028 21.7808 38.133 21.7416C38.1632 21.7024 38.1938 21.6635 38.2249 21.625C38.2561 21.5865 38.2876 21.5484 38.3196 21.5106C38.3517 21.4729 38.3841 21.4355 38.417 21.3985C38.4499 21.3615 38.4832 21.3249 38.517 21.2887C38.5508 21.2525 38.585 21.2167 38.6196 21.1813C38.6542 21.1459 38.6892 21.1109 38.7246 21.0763C38.76 21.0418 38.7959 21.0076 38.8321 20.9738C38.8683 20.9401 38.905 20.9068 38.942 20.874C38.979 20.8411 39.0164 20.8087 39.0542 20.7767C39.092 20.7447 39.1301 20.7132 39.1687 20.6821C39.2072 20.651 39.2461 20.6204 39.2854 20.5902C39.3246 20.5601 39.3642 20.5304 39.4042 20.5011C39.4441 20.4719 39.4844 20.4432 39.525 20.4149C39.5657 20.3866 39.6066 20.3588 39.6479 20.3315C39.6892 20.3042 39.7308 20.2774 39.7728 20.251C39.8147 20.2247 39.8569 20.1989 39.8994 20.1735C39.9419 20.1482 39.9847 20.1233 40.0279 20.099C40.071 20.0747 40.1144 20.0509 40.1581 20.0276C40.2018 20.0043 40.2457 19.9815 40.2899 19.9592C40.3341 19.937 40.3786 19.9152 40.4233 19.894C40.468 19.8728 40.513 19.8521 40.5582 19.832C40.6034 19.8118 40.6489 19.7922 40.6946 19.7731C40.7403 19.754 40.7861 19.7355 40.8323 19.7175C40.8784 19.6995 40.9247 19.682 40.9712 19.6651C41.0178 19.6482 41.0645 19.6319 41.1114 19.6161C41.1583 19.6002 41.2054 19.585 41.2527 19.5703C41.6721 19.4408 42.1024 19.4044 42.5213 19.2887L42.5507 19.2802C42.5806 19.2185 42.6092 19.1561 42.6365 19.0932C43.5407 17.0214 43.5969 14.8549 42.772 12.7507C42.7508 12.6957 42.7288 12.6411 42.7062 12.5867C42.6836 12.5323 42.6603 12.4782 42.6364 12.4244C42.6125 12.3706 42.5879 12.3171 42.5626 12.2639C42.5373 12.2107 42.5113 12.1578 42.4848 12.1053C42.4582 12.0527 42.4309 12.0005 42.403 11.9486C42.3751 11.8967 42.3466 11.8452 42.3174 11.7941C42.2883 11.7429 42.2585 11.6921 42.228 11.6417C42.1976 11.5913 42.1665 11.5412 42.1348 11.4916C42.1032 11.4419 42.0709 11.3927 42.0379 11.3439C42.005 11.295 41.9715 11.2466 41.9374 11.1986C41.9033 11.1505 41.8686 11.1029 41.8332 11.0558C41.798 11.0087 41.7621 10.962 41.7256 10.9157C41.6892 10.8694 41.6521 10.8236 41.6145 10.7783C41.5769 10.733 41.5388 10.6881 41.5001 10.6437C41.4613 10.5993 41.4221 10.5555 41.3823 10.5121C41.3424 10.4687 41.3021 10.4257 41.2613 10.3833C41.2204 10.3409 41.179 10.299 41.137 10.2576C41.0951 10.2163 41.0527 10.1754 41.0098 10.1351C40.9669 10.0948 40.9234 10.055 40.8795 10.0158C40.8356 9.97653 40.7912 9.93786 40.7463 9.89974C40.7014 9.86162 40.656 9.82405 40.6102 9.78705C40.5644 9.75005 40.5181 9.71362 40.4713 9.67777C40.4246 9.64192 40.3775 9.60664 40.3299 9.57194C40.2823 9.53728 40.2342 9.5032 40.1858 9.46972C40.1373 9.43624 40.0884 9.40337 40.0392 9.3711C39.9899 9.33884 39.9402 9.30719 39.8902 9.27614C39.8401 9.2451 39.7897 9.2147 39.7389 9.18494C39.688 9.15515 39.6368 9.126 39.5853 9.09749C39.5338 9.06899 39.4819 9.04114 39.4297 9.01396C39.3774 8.98674 39.3249 8.96018 39.2719 8.93428C39.2191 8.90838 39.1659 8.88315 39.1123 8.85857C39.0588 8.83396 39.005 8.81004 38.9509 8.78681C37.5464 8.17465 35.9509 7.95416 34.4506 8.31348C34.0346 8.41312 33.6357 8.56729 33.2383 8.72288C33.2345 8.16271 33.1517 7.63007 32.9939 7.09352C33.7959 6.66462 34.9941 6.55513 35.895 6.51131Z" fill="#010101"/>
<path d="M21.4514 20.637L21.4449 20.6499C21.2231 20.7142 20.987 20.7927 20.7872 20.9099C20.2674 21.2148 19.8371 21.7584 19.643 22.3265C19.4182 22.9843 19.4455 24.3555 19.4225 25.0999C19.392 26.284 19.3552 27.4679 19.312 28.6516C19.2999 28.9684 19.3179 29.622 19.242 29.9061L19.2284 29.8149C19.2204 28.0813 19.1183 26.3387 19.065 24.6049C19.0449 23.9511 18.9483 23.0441 19.054 22.4114C19.1163 22.0381 19.2821 21.7175 19.5318 21.4345C20.0044 20.8991 20.7598 20.6819 21.4514 20.637Z" fill="#FEFEFE"/>
<path d="M22.0012 30.4746C22.2329 30.4485 22.4462 30.4748 22.6605 30.5719C22.9093 30.6847 23.1108 30.8862 23.2044 31.1446C23.2958 31.3972 23.2872 31.6951 23.1709 31.9384C23.0176 32.2587 22.7399 32.4196 22.4203 32.5342C22.1883 32.5676 21.9798 32.5572 21.7645 32.4556C21.748 32.4478 21.7318 32.4396 21.7157 32.431C21.6997 32.4223 21.6839 32.4132 21.6683 32.4038C21.6527 32.3943 21.6374 32.3845 21.6223 32.3742C21.6073 32.364 21.5925 32.3534 21.578 32.3424C21.5634 32.3313 21.5492 32.32 21.5352 32.3083C21.5213 32.2965 21.5077 32.2844 21.4943 32.272C21.481 32.2596 21.468 32.2468 21.4553 32.2337C21.4427 32.2206 21.4303 32.2072 21.4183 32.1935C21.4064 32.1798 21.3947 32.1658 21.3835 32.1515C21.3722 32.1371 21.3613 32.1225 21.3508 32.1076C21.3403 32.0928 21.3301 32.0776 21.3204 32.0622C21.3106 32.0468 21.3013 32.0312 21.2924 32.0153C21.2834 31.9994 21.2749 31.9833 21.2668 31.967C21.2586 31.9507 21.2509 31.9342 21.2437 31.9175C21.2364 31.9008 21.2295 31.884 21.2231 31.8669C21.2167 31.8498 21.2107 31.8326 21.2052 31.8152C21.1215 31.5566 21.1388 31.2744 21.2663 31.0328C21.4265 30.7291 21.6835 30.5721 22.0012 30.4746Z" fill="#FEFEFE"/>
<path d="M25.4934 30.4733C25.7324 30.4545 25.965 30.4783 26.1789 30.5935C26.4314 30.7296 26.6314 30.9721 26.7022 31.2517C26.7062 31.2682 26.7099 31.2849 26.7131 31.3015C26.7163 31.3182 26.7191 31.335 26.7215 31.3519C26.7239 31.3687 26.7258 31.3856 26.7274 31.4025C26.7289 31.4194 26.73 31.4364 26.7307 31.4534C26.7314 31.4704 26.7317 31.4874 26.7315 31.5044C26.7314 31.5214 26.7308 31.5384 26.7298 31.5553C26.7288 31.5723 26.7274 31.5893 26.7255 31.6062C26.7237 31.6231 26.7215 31.6399 26.7188 31.6567C26.7161 31.6735 26.713 31.6902 26.7094 31.7069C26.7059 31.7235 26.702 31.74 26.6977 31.7565C26.6933 31.7729 26.6886 31.7892 26.6834 31.8054C26.6783 31.8217 26.6727 31.8377 26.6667 31.8536C26.6608 31.8696 26.6544 31.8854 26.6477 31.901C26.6409 31.9166 26.6338 31.932 26.6263 31.9472C26.6188 31.9625 26.6109 31.9776 26.6026 31.9924C26.5944 32.0073 26.5857 32.0219 26.5767 32.0363C26.4076 32.3091 26.1529 32.4433 25.8514 32.5204C25.5922 32.5401 25.3768 32.5424 25.1389 32.4154C24.8986 32.2871 24.7095 32.0686 24.6341 31.8053C24.6294 31.7882 24.6251 31.771 24.6213 31.7537C24.6174 31.7365 24.614 31.7191 24.611 31.7017C24.608 31.6842 24.6055 31.6667 24.6033 31.6491C24.6012 31.6316 24.5996 31.6139 24.5984 31.5963C24.5971 31.5786 24.5964 31.5609 24.596 31.5432C24.5957 31.5255 24.5958 31.5078 24.5963 31.4901C24.5969 31.4724 24.5979 31.4548 24.5993 31.4371C24.6008 31.4195 24.6027 31.4019 24.605 31.3843C24.6073 31.3668 24.6101 31.3493 24.6132 31.3319C24.6165 31.3145 24.6201 31.2971 24.6242 31.2799C24.6282 31.2627 24.6327 31.2456 24.6376 31.2286C24.6425 31.2115 24.6479 31.1947 24.6537 31.1779C24.6594 31.1612 24.6656 31.1446 24.6722 31.1282C24.6788 31.1118 24.6858 31.0955 24.6932 31.0794C24.7006 31.0633 24.7085 31.0475 24.7167 31.0318C24.7249 31.0161 24.7335 31.0006 24.7425 30.9854C24.9142 30.6953 25.1748 30.549 25.4934 30.4733Z" fill="#FEFEFE"/>
<path d="M28.9847 30.4505C29.2032 30.4428 29.4159 30.4916 29.6006 30.6124C29.6157 30.6224 29.6306 30.6327 29.6452 30.6435C29.6598 30.6542 29.6741 30.6653 29.6882 30.6768C29.7022 30.6882 29.7159 30.7001 29.7294 30.7122C29.7428 30.7244 29.756 30.7368 29.7688 30.7496C29.7816 30.7624 29.7941 30.7756 29.8063 30.789C29.8184 30.8024 29.8303 30.8162 29.8417 30.8302C29.8532 30.8443 29.8643 30.8586 29.8751 30.8732C29.8859 30.8878 29.8962 30.9026 29.9062 30.9177C29.9162 30.9329 29.9259 30.9482 29.9351 30.9638C29.9443 30.9794 29.9532 30.9952 29.9616 31.0113C29.9701 31.0273 29.9781 31.0436 29.9857 31.06C29.9933 31.0765 30.0005 31.0931 30.0073 31.1099C30.0141 31.1267 30.0204 31.1437 30.0264 31.1608C30.0323 31.1779 30.0378 31.1952 30.0429 31.2126C30.048 31.23 30.0526 31.2475 30.0567 31.2652C30.0609 31.2828 30.0647 31.3005 30.068 31.3184C30.0712 31.3359 30.074 31.3534 30.0763 31.3709C30.0787 31.3885 30.0806 31.4062 30.082 31.4239C30.0835 31.4416 30.0846 31.4593 30.0851 31.477C30.0857 31.4948 30.0859 31.5125 30.0856 31.5302C30.0853 31.548 30.0845 31.5657 30.0833 31.5834C30.0822 31.6011 30.0805 31.6188 30.0785 31.6364C30.0764 31.6541 30.0739 31.6716 30.071 31.6891C30.068 31.7066 30.0646 31.7241 30.0609 31.7414C30.057 31.7587 30.0528 31.776 30.0481 31.7931C30.0434 31.8102 30.0383 31.8272 30.0328 31.8441C30.0273 31.8609 30.0214 31.8777 30.015 31.8942C30.0087 31.9108 30.0019 31.9272 29.9947 31.9434C29.9876 31.9597 29.98 31.9757 29.972 31.9916C29.964 32.0074 29.9557 32.0231 29.947 32.0385C29.9382 32.054 29.9291 32.0692 29.9196 32.0842C29.9101 32.0992 29.9002 32.1139 29.8899 32.1284C29.7012 32.394 29.4429 32.5035 29.133 32.5565C28.8879 32.5547 28.6684 32.52 28.4588 32.3814C28.2111 32.2175 28.0387 31.9392 27.9874 31.6481C27.9843 31.6315 27.9818 31.615 27.9796 31.5983C27.9774 31.5817 27.9757 31.565 27.9744 31.5483C27.9731 31.5315 27.9722 31.5148 27.9718 31.498C27.9713 31.4812 27.9713 31.4645 27.9718 31.4477C27.9722 31.4309 27.9731 31.4142 27.9744 31.3975C27.9757 31.3807 27.9774 31.364 27.9796 31.3474C27.9818 31.3307 27.9843 31.3142 27.9874 31.2977C27.9904 31.2811 27.9938 31.2647 27.9977 31.2484C28.0016 31.2321 28.0059 31.2158 28.0106 31.1997C28.0153 31.1836 28.0204 31.1677 28.0259 31.1518C28.0314 31.136 28.0374 31.1203 28.0437 31.1047C28.0501 31.0892 28.0568 31.0738 28.064 31.0586C28.0711 31.0435 28.0787 31.0285 28.0866 31.0137C28.0945 30.9989 28.1028 30.9843 28.1115 30.9699C28.1201 30.9556 28.1292 30.9414 28.1386 30.9275C28.148 30.9136 28.1577 30.9 28.1678 30.8866C28.3721 30.6149 28.6594 30.4988 28.9847 30.4505Z" fill="#FEFEFE"/>
<path d="M27.5264 21.417C28.9517 21.3999 30.3819 21.4199 31.8075 21.4344C31.888 23.7666 31.8198 26.1092 31.8137 28.443L29.1865 28.4415L24.8675 28.4363C24.8363 27.4589 24.8565 26.4743 24.8597 25.4961L24.8625 21.4361C25.747 21.403 26.6407 21.4224 27.5264 21.417Z" fill="#FEFEFE"/>
<path d="M42.7917 21.1352C43.8546 20.9693 45.1674 21.4304 46.0193 22.0464C46.978 22.7397 47.6957 23.8581 47.8779 25.0323C48.0679 26.2569 47.7946 27.4963 47.0555 28.4967C46.2589 29.5747 45.085 30.2151 43.7748 30.4114L43.6754 30.4207C42.422 30.5428 41.2041 30.1396 40.2364 29.3358C39.3074 28.5642 38.7064 27.3541 38.5961 26.1579C38.4802 24.9012 38.8626 23.7007 39.6708 22.7338C40.4438 21.8092 41.6005 21.2464 42.7917 21.1352Z" fill="#FEFEFE"/>
<path d="M46.0975 25.0408C46.2657 25.0347 46.426 25.0382 46.579 25.1167C46.6031 25.1289 46.6265 25.1424 46.6492 25.157C46.672 25.1717 46.6939 25.1874 46.715 25.2043C46.7361 25.2212 46.7563 25.2392 46.7756 25.2581C46.7948 25.2771 46.8131 25.297 46.8303 25.3179C46.8475 25.3387 46.8637 25.3603 46.8787 25.3829C46.8937 25.4053 46.9075 25.4285 46.9201 25.4524C46.9328 25.4763 46.9441 25.5008 46.9543 25.5259C46.9644 25.551 46.9732 25.5765 46.9807 25.6025C47.0444 25.8167 47.0327 26.0559 46.9231 26.2534C46.8065 26.4634 46.6289 26.567 46.4057 26.635C46.2118 26.6481 46.0354 26.6311 45.8647 26.5322C45.8412 26.5185 45.8185 26.5037 45.7965 26.4877C45.7745 26.4716 45.7533 26.4545 45.7331 26.4364C45.7128 26.4182 45.6935 26.3991 45.6751 26.3789C45.6568 26.3588 45.6395 26.3378 45.6233 26.316C45.6071 26.2941 45.592 26.2715 45.5781 26.2481C45.5642 26.2247 45.5515 26.2007 45.54 26.176C45.5285 26.1513 45.5183 26.1261 45.5094 26.1004C45.5004 26.0747 45.4928 26.0486 45.4865 26.0221C45.4347 25.8056 45.4643 25.574 45.5846 25.3848C45.7048 25.1958 45.885 25.0933 46.0975 25.0408Z" fill="#010101"/>
<path d="M41.6306 27.4276C41.785 27.4245 41.9297 27.4321 42.0721 27.4979C42.0975 27.5094 42.1222 27.5222 42.1463 27.5363C42.1703 27.5503 42.1936 27.5656 42.2161 27.582C42.2386 27.5984 42.2603 27.6159 42.281 27.6346C42.3017 27.6532 42.3214 27.6728 42.3402 27.6935C42.3589 27.7141 42.3765 27.7356 42.3931 27.758C42.4096 27.7805 42.425 27.8037 42.4391 27.8276C42.4533 27.8516 42.4663 27.8763 42.4779 27.9016C42.4896 27.9269 42.5 27.9527 42.509 27.9791C42.5177 28.0049 42.5252 28.0311 42.5313 28.0577C42.5373 28.0843 42.542 28.1111 42.5454 28.1382C42.5488 28.1652 42.5508 28.1924 42.5514 28.2197C42.552 28.2469 42.5513 28.2742 42.5491 28.3014C42.547 28.3285 42.5435 28.3556 42.5387 28.3824C42.5338 28.4092 42.5276 28.4357 42.52 28.4619C42.5125 28.4882 42.5037 28.5139 42.4935 28.5392C42.4834 28.5645 42.472 28.5893 42.4593 28.6135C42.3398 28.8417 42.1404 28.9628 41.8999 29.033C41.7004 29.0445 41.5132 29.0134 41.3408 28.9085C41.3176 28.8944 41.2951 28.879 41.2735 28.8626C41.2518 28.8461 41.2311 28.8286 41.2112 28.81C41.1914 28.7914 41.1725 28.7718 41.1547 28.7513C41.1369 28.7307 41.1201 28.7093 41.1045 28.687C41.0889 28.6648 41.0745 28.6418 41.0612 28.618C41.0479 28.5943 41.0359 28.5699 41.0252 28.5449C41.0144 28.5199 41.005 28.4944 40.9968 28.4685C40.9887 28.4425 40.9819 28.4162 40.9765 28.3896C40.9331 28.1753 40.9745 27.9425 41.097 27.7605C41.2253 27.5702 41.4109 27.4719 41.6306 27.4276Z" fill="#010101"/>
<path d="M44.5763 22.4243C44.7572 22.4088 44.9302 22.433 45.0931 22.5174C45.1177 22.53 45.1416 22.5438 45.1647 22.5588C45.1879 22.5738 45.2102 22.5899 45.2317 22.6072C45.2533 22.6245 45.2739 22.6429 45.2935 22.6623C45.3131 22.6817 45.3317 22.702 45.3493 22.7233C45.3669 22.7446 45.3833 22.7667 45.3987 22.7897C45.414 22.8127 45.4281 22.8363 45.441 22.8607C45.4539 22.8852 45.4655 22.9102 45.4758 22.9358C45.4862 22.9613 45.4952 22.9874 45.5029 23.0139C45.5637 23.2192 45.5477 23.4519 45.4433 23.6405C45.3176 23.8675 45.1138 23.9788 44.8708 24.0422C44.7043 24.0468 44.5619 24.0428 44.407 23.9711C44.382 23.9594 44.3577 23.9465 44.334 23.9323C44.3103 23.9182 44.2874 23.9029 44.2653 23.8864C44.2432 23.8699 44.2219 23.8524 44.2016 23.8338C44.1813 23.8151 44.1619 23.7955 44.1436 23.7749C44.1252 23.7543 44.108 23.7328 44.0918 23.7105C44.0757 23.6881 44.0607 23.665 44.0469 23.6411C44.0331 23.6172 44.0205 23.5927 44.0092 23.5676C43.9978 23.5424 43.9878 23.5168 43.9791 23.4906C43.9085 23.2802 43.9219 23.0429 44.0254 22.8454C44.1472 22.6129 44.3338 22.501 44.5763 22.4243Z" fill="#010101"/>
<path d="M40.1025 24.9133C40.295 24.8985 40.4641 24.8953 40.6478 24.9695C40.8484 25.0505 41.0129 25.2036 41.0908 25.4073C41.1005 25.4327 41.1089 25.4585 41.1159 25.4848C41.123 25.511 41.1288 25.5376 41.1332 25.5644C41.1376 25.5912 41.1407 25.6182 41.1424 25.6454C41.1441 25.6725 41.1444 25.6996 41.1434 25.7268C41.1424 25.754 41.1401 25.7811 41.1364 25.808C41.1326 25.8349 41.1276 25.8616 41.1212 25.8881C41.1148 25.9145 41.1071 25.9406 41.0981 25.9662C41.0891 25.9919 41.0788 26.017 41.0672 26.0416C40.9547 26.2786 40.7702 26.3846 40.5375 26.4741C40.363 26.4915 40.2135 26.4973 40.0455 26.4312C40.0192 26.421 39.9936 26.4094 39.9685 26.3966C39.9434 26.3838 39.9189 26.3699 39.8952 26.3547C39.8715 26.3395 39.8486 26.3232 39.8265 26.3057C39.8043 26.2883 39.7831 26.2698 39.7628 26.2503C39.7425 26.2308 39.7232 26.2103 39.7049 26.1889C39.6866 26.1675 39.6694 26.1452 39.6532 26.1221C39.6371 26.099 39.6222 26.0751 39.6084 26.0506C39.5947 26.026 39.5821 26.0008 39.5708 25.975C39.5603 25.95 39.551 25.9246 39.5431 25.8987C39.5351 25.8727 39.5285 25.8465 39.5232 25.8199C39.518 25.7933 39.514 25.7665 39.5115 25.7395C39.5089 25.7125 39.5078 25.6855 39.508 25.6584C39.5082 25.6313 39.5098 25.6042 39.5127 25.5773C39.5157 25.5503 39.52 25.5236 39.5257 25.4971C39.5314 25.4706 39.5384 25.4444 39.5468 25.4186C39.5551 25.3928 39.5647 25.3675 39.5756 25.3427C39.6831 25.1043 39.8662 24.9956 40.1025 24.9133Z" fill="#010101"/>
<path d="M44.6315 27.4753C44.7882 27.4697 44.9331 27.4785 45.0789 27.542C45.1038 27.5526 45.1281 27.5646 45.1517 27.5778C45.1754 27.591 45.1983 27.6054 45.2204 27.6211C45.2426 27.6367 45.2639 27.6534 45.2843 27.6712C45.3047 27.6891 45.3241 27.708 45.3425 27.7279C45.3609 27.7477 45.3782 27.7685 45.3944 27.7902C45.4107 27.8119 45.4257 27.8344 45.4396 27.8577C45.4535 27.881 45.4661 27.9049 45.4775 27.9295C45.4888 27.9541 45.4989 27.9792 45.5076 28.0049C45.5166 28.0312 45.5242 28.0578 45.5306 28.0848C45.5369 28.1119 45.5419 28.1391 45.5454 28.1667C45.549 28.1942 45.5513 28.2218 45.5521 28.2496C45.5529 28.2773 45.5524 28.305 45.5505 28.3327C45.5486 28.3604 45.5453 28.3879 45.5406 28.4153C45.536 28.4427 45.5299 28.4698 45.5226 28.4965C45.5152 28.5233 45.5065 28.5496 45.4965 28.5755C45.4866 28.6014 45.4753 28.6267 45.4628 28.6515C45.3442 28.891 45.154 29.016 44.9099 29.1041C44.7497 29.1065 44.6048 29.1056 44.455 29.0382C44.4412 29.0319 44.4275 29.0253 44.414 29.0183C44.4005 29.0113 44.3872 29.004 44.3741 28.9963C44.361 28.9886 44.3481 28.9806 44.3354 28.9722C44.3227 28.9639 44.3102 28.9552 44.298 28.9462C44.2857 28.9372 44.2737 28.9279 44.2619 28.9183C44.2501 28.9087 44.2386 28.8988 44.2273 28.8886C44.216 28.8784 44.205 28.8679 44.1943 28.8571C44.1836 28.8463 44.1732 28.8353 44.163 28.824C44.1529 28.8127 44.143 28.8011 44.1334 28.7893C44.1239 28.7775 44.1146 28.7654 44.1057 28.7531C44.0968 28.7408 44.0881 28.7283 44.0799 28.7156C44.0716 28.7028 44.0636 28.6899 44.0559 28.6768C44.0483 28.6636 44.041 28.6503 44.0341 28.6368C44.0272 28.6232 44.0206 28.6095 44.0143 28.5957C44.0081 28.5818 44.0022 28.5678 43.9967 28.5536C43.9912 28.5394 43.9861 28.5251 43.9813 28.5107C43.9729 28.4852 43.9658 28.4593 43.9601 28.4331C43.9543 28.4068 43.95 28.3804 43.9471 28.3537C43.9441 28.327 43.9425 28.3002 43.9423 28.2734C43.9422 28.2465 43.9434 28.2197 43.946 28.193C43.9486 28.1663 43.9526 28.1398 43.958 28.1135C43.9634 28.0871 43.9701 28.0611 43.9781 28.0356C43.9862 28.0099 43.9956 27.9848 44.0063 27.9602C44.017 27.9355 44.0289 27.9115 44.0421 27.8881C44.1725 27.6551 44.3839 27.5434 44.6315 27.4753Z" fill="#010101"/>
<path d="M41.7358 22.3476C41.9067 22.3368 42.0671 22.3543 42.2226 22.4295C42.4237 22.5267 42.5713 22.7033 42.6414 22.9144C42.7085 23.117 42.7026 23.3487 42.6037 23.5401C42.477 23.7854 42.2642 23.8894 42.0158 23.9736C41.8314 24.0021 41.6644 23.9868 41.4954 23.9008C41.4709 23.8881 41.4471 23.8742 41.424 23.8591C41.4009 23.844 41.3786 23.8278 41.3571 23.8104C41.3357 23.7931 41.3152 23.7747 41.2956 23.7553C41.276 23.7358 41.2574 23.7154 41.2399 23.6941C41.2224 23.6728 41.206 23.6506 41.1907 23.6277C41.1754 23.6047 41.1613 23.581 41.1484 23.5566C41.1355 23.5322 41.1239 23.5072 41.1136 23.4816C41.1032 23.456 41.0942 23.43 41.0864 23.4035C41.0822 23.3897 41.0783 23.3758 41.0747 23.3618C41.0711 23.3478 41.068 23.3338 41.0652 23.3196C41.0623 23.3054 41.0599 23.2912 41.0578 23.2769C41.0558 23.2626 41.0541 23.2483 41.0528 23.2339C41.0514 23.2195 41.0505 23.2051 41.0499 23.1907C41.0493 23.1763 41.0491 23.1618 41.0493 23.1474C41.0495 23.133 41.05 23.1186 41.051 23.1041C41.0519 23.0897 41.0532 23.0753 41.0549 23.061C41.0566 23.0467 41.0586 23.0324 41.061 23.0182C41.0635 23.0039 41.0663 22.9897 41.0694 22.9757C41.0726 22.9616 41.0761 22.9476 41.08 22.9337C41.0839 22.9198 41.0882 22.906 41.0928 22.8923C41.0974 22.8786 41.1024 22.8651 41.1077 22.8517C41.113 22.8382 41.1187 22.825 41.1247 22.8118C41.1307 22.7987 41.137 22.7857 41.1437 22.7729C41.1504 22.7601 41.1574 22.7475 41.1648 22.7351C41.2972 22.5134 41.4914 22.4059 41.7358 22.3476Z" fill="#010101"/>
</g>
<defs>
<clipPath id="clip0_418_243">
<rect width="52" height="52" rx="10" fill="white"/>
</clipPath>
</defs>
</svg>
