<svg width="486" height="486" viewBox="0 0 486 486" fill="none" xmlns="http://www.w3.org/2000/svg">
<path d="M150.392 175.898C150.125 170.338 149.493 164.812 149.396 159.238C149.075 140.853 151.296 111.416 159.976 95.1783C162.173 91.0667 165.147 87.4509 168.272 84.0197C184.5 66.1981 212.882 55.8657 236.555 54.7868C237.795 54.7333 239.034 54.6993 240.273 54.6896C241.512 54.6799 242.752 54.6847 243.991 54.7139C245.23 54.7431 246.47 54.7917 247.709 54.8597C248.943 54.9277 250.183 55.0201 251.417 55.127C252.652 55.2339 253.881 55.3651 255.116 55.5158C256.345 55.6665 257.575 55.8366 258.795 56.0261C260.019 56.2156 261.244 56.4246 262.459 56.653C263.679 56.8815 264.889 57.1293 266.104 57.4015C267.314 57.6736 268.52 57.9604 269.72 58.2666C270.92 58.5727 272.116 58.9032 273.307 59.2483C274.497 59.5933 275.678 59.9627 276.859 60.3466C278.035 60.7354 279.207 61.1388 280.373 61.5616C281.539 61.9845 282.696 62.4267 283.848 62.8884C285 63.3501 286.142 63.8313 287.274 64.327C288.407 64.8276 289.534 65.3427 290.652 65.8773C291.77 66.4119 292.878 66.966 293.976 67.5394C300.017 70.6741 305.703 74.2219 310.763 78.8195C329.717 96.0433 332.949 126.35 334.032 150.451C334.27 155.447 334.358 160.448 334.3 165.449C334.246 168.793 334.023 172.151 334.037 175.495C337.128 175.023 339.884 174.989 342.537 176.943C346.192 179.63 347.567 184.539 348.136 188.821C350.046 203.255 345.064 232.444 335.933 244.079C333.566 247.092 330.173 249.085 326.354 249.503C325.741 249.566 325.124 249.605 324.507 249.619C323.797 255.962 323.384 266.328 321.557 272.039C320.935 273.983 320.031 275.956 319.088 277.773C318.208 279.465 316.974 281.151 316.565 283.022C316.201 284.709 316.143 286.531 315.982 288.251C315.72 291.187 315.423 294.118 315.093 297.043L313.358 312.041C313.018 314.811 312.532 317.625 312.347 320.405C319.132 324.629 325.853 328.954 332.501 333.386C335.5 335.393 338.484 338.076 341.769 339.573C343.84 340.516 346.1 341.148 348.258 341.862C351.83 343.019 355.382 344.234 358.916 345.507C377.335 352.034 395.453 359.319 413.26 367.367C419.758 370.351 426.669 373.233 432.564 377.306C438.44 381.364 443.514 386.671 447.912 392.28V405.071V431.335H298.909H295.804H267.834H256.131H229.902H218.082H193.748H190.526H59.8603H52.3224H38.1263V403.356V390.856C42.408 386.249 46.3106 381.602 51.4913 377.923C58.2565 373.117 66.3678 369.972 73.8814 366.502C88.0823 359.941 102.463 353.259 117.262 348.141C120.853 346.892 124.484 345.784 128.163 344.812C130.928 344.103 133.888 343.651 136.527 342.543C140.201 341.007 144.774 337.794 148.395 335.729C156.637 331.024 164.992 326.446 173.341 321.941C171.728 308.386 170.542 294.778 168.933 281.224C167.354 279.256 164.982 277.107 163.927 274.828C162.581 271.932 160.905 253.634 160.739 249.585C156.948 249.678 153.406 249.401 150.48 246.645C143.632 240.181 137.883 219.288 136.323 209.996C135.773 206.613 135.472 203.211 135.428 199.79C135.297 193.525 135.375 183.203 139.929 178.479C142.053 176.272 144.779 175.84 147.7 175.849C148.609 175.854 149.513 175.879 150.417 175.913L150.392 175.898Z" fill="#010101"/>
<path d="M167.694 385.568C168.132 385.661 168.443 385.767 168.69 386.176C168.967 386.628 168.982 386.987 168.865 387.483C168.263 387.337 167.893 387.279 167.471 386.774C167.403 386.2 167.456 386.103 167.694 385.568Z" fill="black"/>
<path d="M166.192 382.891C166.635 382.871 167.028 382.886 167.466 382.944C167.918 383.493 167.879 383.96 167.981 384.66C167.743 384.606 167.398 384.553 167.169 384.436C166.615 384.154 166.411 383.435 166.192 382.891Z" fill="black"/>
<path d="M163.194 371.974L163.626 372.135C163.864 372.388 164.073 372.587 164.18 372.922C164.346 373.437 164.307 373.501 164.088 373.967C163.957 373.962 163.792 373.957 163.665 373.933C163.174 373.841 163.14 373.729 162.854 373.34C162.805 372.723 162.863 372.504 163.189 371.974H163.194Z" fill="#010101"/>
<path d="M163.636 374.993C164.224 375.017 164.516 375.032 165.036 375.347C165.357 375.804 165.415 376.062 165.469 376.616C165.162 376.757 164.919 376.815 164.579 376.854C164.015 376.387 163.884 375.673 163.636 374.993Z" fill="#010101"/>
<path d="M161.77 366.191C161.867 366.284 161.974 366.371 162.057 366.468C162.421 366.891 162.543 367.494 162.47 368.024L161.93 368.369C161.362 368.033 161.138 367.824 160.939 367.183C161.138 366.561 161.221 366.566 161.765 366.187L161.77 366.191Z" fill="black"/>
<path d="M318.69 385.67C319.093 385.646 319.39 385.636 319.783 385.763C320.177 386.463 320.046 387.264 320.046 388.061C319.744 387.838 319.375 387.59 319.132 387.303C318.704 386.808 318.704 386.283 318.69 385.67Z" fill="#010101"/>
<path d="M326.368 337.61L326.208 337.303C325.989 336.895 325.741 336.516 325.489 336.132C329.673 338.344 333.824 341.775 337.843 344.409C337.571 344.423 337.318 344.438 337.046 344.389C334.99 344.02 328.147 340.292 327.136 338.586C326.976 338.314 326.84 338.11 326.621 337.877L326.368 337.614V337.61Z" fill="#EDA073"/>
<path d="M327.962 379.926L327.953 380.125C326.495 382.322 322.607 387.809 320.658 389.388L320.395 389.238C320.415 389.165 320.434 389.097 320.459 389.029C320.77 388.076 320.745 387.498 320.59 386.526C320.517 386.059 320.483 386.297 320.711 385.841L321.09 386.186L321.343 386.157L322.456 383.401C324.361 382.39 326.213 381.185 327.962 379.926Z" fill="#F5F5F5"/>
<path d="M240.065 291.274C241.377 291.449 242.694 291.653 244.016 291.775C238.169 294.963 234.359 297.237 230.874 303.254C229.659 303.283 228.969 303.278 227.929 302.598C229.276 299.672 237.547 294.108 240.06 291.274H240.065Z" fill="#4A3222"/>
<path d="M156.356 377.398C158.616 378.21 162.766 380.898 164.934 382.19C165.809 385.213 167.86 390.705 169.575 393.334C167.131 392.134 158.072 380.207 156.356 377.394V377.398Z" fill="#F5F5F5"/>
<path d="M308.683 329.897L309.149 327.496C312.221 329.202 322.15 335.111 323.054 338.217C323.175 338.63 323.277 339.053 323.37 339.476C323.054 339.563 323.19 339.563 322.864 339.505C320.123 339.014 310.243 332.288 308.683 329.892V329.897Z" fill="#EDA073"/>
<path d="M328.949 188.427C330.859 186.906 332.57 185.098 335.252 185.302C336.657 185.409 338.008 186.182 338.912 187.236C333.989 191.946 330.587 197.408 328.166 203.726C328.264 198.623 328.672 193.52 328.949 188.427Z" fill="#BC6F48"/>
<path d="M343.145 346.649C342.533 352.666 335.243 371.221 330.699 374.944C328.448 376.786 325.552 378.229 323.054 379.726C323.559 378.361 323.968 376.912 324.152 375.464C325.032 375.313 326.305 373.719 326.986 373.092C328.516 371.678 330.077 370.259 331.389 368.631C335.034 364.111 337.255 358.109 339.699 352.865C340.632 350.868 341.643 348.263 343.145 346.649Z" fill="#72492C"/>
<path d="M331.389 202.385C331.418 202.419 331.452 202.448 331.481 202.482C334.071 206.244 335.053 210.871 334.679 215.376C334.276 220.236 332.648 225.553 328.813 228.794C327.987 229.309 327.229 229.606 326.31 229.902C326.67 225.271 327.141 220.639 327.535 216.012C327.763 213.32 327.632 209.913 328.487 207.376C329.056 205.695 330.461 203.896 331.389 202.38V202.385Z" fill="#8E5232"/>
<path d="M335.952 194.857C336.55 198.021 337.58 201.082 338.158 204.241C339.646 212.324 337.585 220.45 334.737 227.992C333.891 230.233 329.42 239.36 330.295 240.993C328.915 242.431 326.995 243.102 325.148 243.695C325.352 239.447 325.829 235.175 326.144 230.928C326.446 230.899 326.737 230.865 327.034 230.811C329.532 230.349 331.364 228.6 332.749 226.568C336.107 221.655 337.755 214.316 336.623 208.455C336.03 205.369 334.513 202.852 331.899 201.058C333.191 198.959 334.591 196.913 335.947 194.857H335.952Z" fill="#BC6F48"/>
<path d="M317.222 259.621C316.964 263.048 316.702 266.887 315.623 270.163C312.78 278.789 301.845 289.51 295.464 296.236C295.731 294.531 296.868 284.898 297.155 284.247L297.373 284.32C299.089 283.44 312.255 266.916 313.747 264.651C314.981 263.057 316.084 261.283 317.227 259.621H317.222Z" fill="#4A3222"/>
<path d="M328.949 188.427C329.435 185.89 331.005 184.52 333.06 183.111C334.441 182.158 336.326 181.137 338.057 181.482C339.155 181.701 339.991 182.474 340.579 183.388C344.88 190.07 341.507 211.211 339.626 218.958C338.139 225.086 334.893 236.838 330.295 240.998C329.42 239.365 333.896 230.233 334.737 227.997C337.585 220.455 339.646 212.329 338.159 204.247C337.58 201.093 336.55 198.026 335.952 194.862C336.705 193.214 337.979 191.747 339.077 190.318C339.485 191.552 339.864 192.792 340.438 193.963C340.613 193.438 339.14 188.175 338.912 187.242C338.008 186.187 336.652 185.414 335.252 185.307C332.57 185.103 330.859 186.911 328.949 188.432V188.427Z" fill="#EDA073"/>
<path d="M185.457 418.567C184.592 416.312 180.248 410.208 180.165 408.59C182.595 410.432 184.913 412.405 187.387 414.193C192.932 418.203 199.022 421.931 205.058 425.158C207.813 426.616 210.618 427.986 213.461 429.269C214.919 429.92 216.736 430.479 218.068 431.325H193.734H190.512C188.782 428.598 186.653 426.008 185.185 423.121C185.229 423.048 185.278 422.985 185.312 422.907C185.419 422.65 185.453 422.373 185.574 422.106C185.652 421.94 185.73 421.78 185.798 421.605C186.114 420.808 185.759 420.152 185.428 419.428C185.234 419.005 185.331 419.005 185.462 418.577L185.457 418.567Z" fill="black"/>
<path d="M185.18 423.117C185.224 423.044 185.273 422.981 185.307 422.903C185.414 422.645 185.448 422.368 185.569 422.101C185.647 421.936 185.725 421.775 185.793 421.6C186.109 420.803 185.754 420.147 185.423 419.423C185.229 419 185.326 419 185.457 418.573C186.721 420.58 187.902 422.64 189.209 424.618C190.692 426.869 192.315 429.046 193.734 431.325H190.512C188.782 428.599 186.653 426.008 185.185 423.122L185.18 423.117Z" fill="#010101"/>
<path d="M326.368 337.61L326.621 337.872C326.84 338.105 326.971 338.314 327.136 338.582C328.147 340.288 334.995 344.02 337.046 344.385C337.318 344.433 337.566 344.419 337.843 344.404C339.213 345.05 342.11 345.779 343.145 346.644C341.638 348.258 340.627 350.863 339.699 352.86C337.255 358.109 335.034 364.106 331.389 368.626C330.076 370.254 328.516 371.669 326.985 373.088C326.31 373.715 325.037 375.309 324.152 375.459C324.784 372.087 325.824 368.757 326.514 365.385C327.729 359.426 328.147 352.822 327.758 346.737C327.564 343.704 326.577 340.808 326.373 337.809C326.368 337.741 326.363 337.673 326.363 337.605L326.368 337.61Z" fill="#BC6F48"/>
<path d="M267.82 431.32C270.906 429.794 274.109 428.497 277.18 426.936C284.252 423.335 291.211 418.995 297.646 414.354C300.975 411.953 304.28 409.44 307.453 406.84C309.101 405.494 310.651 403.988 312.352 402.719C306.729 412.162 302.229 422.368 295.789 431.32H267.82Z" fill="black"/>
<path d="M296.64 229.708C297.034 229.655 297.359 229.674 297.758 229.718L297.617 229.995C294.166 232.245 288.859 234.452 284.884 235.414C280.291 236.532 275.552 237.265 270.906 238.121C261.507 239.846 251.972 241.576 242.393 241.819C232.187 242.082 221.694 241.144 211.522 240.342C206.958 239.982 198.526 239.851 194.633 237.479L191.819 235.263C202.006 235.973 212.212 236.473 222.394 237.246C229.305 237.771 238.48 239.137 245.158 238.495C253.046 237.693 260.88 236.507 268.651 234.942C277.856 232.998 287.246 230.442 296.635 229.694L296.64 229.708Z" fill="#BC6F48"/>
<path d="M141.795 347.781C143.749 346.537 157.794 337.196 158.557 337.25L158.504 337.6C156.326 340.263 156.297 344.992 156.229 348.238C156.312 348.807 156.424 349.361 156.288 349.929C156.19 350.338 156.156 350.658 156.127 351.072C156.234 351.135 156.633 351.378 156.74 351.412C156.866 351.451 157.002 351.446 157.133 351.465C157.318 351.825 157.347 351.995 157.308 352.398L156.788 352.403C156.079 354.012 157.503 356.063 157.789 357.322L157.342 357.691C157.313 359.615 158.45 360.49 158.654 362.055C158.727 362.59 158.489 363.11 158.543 363.649C158.747 365.729 160.453 371.435 161.551 373.097L161.614 373.005C160.973 371.129 160.292 369.263 159.762 367.353L160.064 366.993L159.903 366.847L159.782 367.037L159.855 366.833C160.244 367.455 160.336 368.295 160.569 368.995C161.459 371.668 162.134 374.715 163.407 377.218C161.031 375.843 153.765 371.824 152.249 370.395C148.876 367.221 143.52 352.428 141.8 347.781H141.795Z" fill="#8E5232"/>
<path d="M189.306 242.368C192.806 253.78 196.154 265.24 199.362 276.738L202.025 286.196C202.409 287.566 202.71 289.321 203.308 290.589C204.892 292.008 205.262 294.38 207.016 295.828C207.702 296.397 209.009 297.009 209.14 297.952C212.255 299.624 224.337 303.804 227.477 302.812C227.686 302.744 227.759 302.696 227.934 302.598C228.979 303.279 229.664 303.284 230.879 303.254C228.74 307.696 227.749 310.987 227.7 315.939C218.151 313.32 209.179 308.338 200.737 303.24C200.708 303.172 200.679 303.104 200.65 303.031C199.911 301.072 199.668 298.774 199.284 296.708C198.677 293.398 198.035 290.094 197.359 286.794L192.218 260.632C191.255 255.767 190.065 250.917 189.316 246.013C189.131 244.803 188.796 243.52 189.306 242.364V242.368Z" fill="#1F1912"/>
<path d="M203.308 290.594C204.893 292.013 205.262 294.385 207.017 295.833C207.702 296.401 209.009 297.014 209.14 297.957C207.629 297.398 206.268 296.479 204.912 295.624C204.314 293.957 203.76 292.304 203.308 290.594Z" fill="#8E5232"/>
<path d="M266.241 301.646C269.38 300.591 278.128 298.093 280.485 296.65C282.25 295.571 284.296 292.446 285.063 290.56C286.419 287.221 287.124 282.094 288.043 278.444L296.514 244.444C296.893 248.307 295.255 255.014 294.672 259.136C292.655 273.434 290.657 287.8 288.14 302.02C287.216 302.739 286.278 303.439 285.326 304.12C284.373 304.8 283.411 305.461 282.429 306.103C281.448 306.744 280.456 307.366 279.455 307.969C278.449 308.571 277.438 309.15 276.408 309.714C275.382 310.277 274.342 310.817 273.293 311.332C272.243 311.852 271.188 312.348 270.114 312.824C269.045 313.3 267.966 313.757 266.882 314.19C265.794 314.622 264.7 315.035 263.597 315.424C263.524 308.416 261.575 302.205 256.438 297.223C253.891 294.754 251 293.272 247.841 291.77C249.095 291.43 250.348 291.08 251.593 290.711C256.778 293.987 261.172 298.259 266.236 301.636L266.241 301.646Z" fill="#4A3222"/>
<path d="M146.476 181.453C149.212 181.278 151.894 181.477 154.606 181.793C154.893 188.364 155.651 194.886 156.016 201.447C151.753 196.47 147.924 190.575 142.053 187.329C143.351 188.889 144.556 190.473 145.727 192.126C144.789 196.121 143.482 200.606 143.574 204.728C144.779 200.922 145.844 197.102 147.166 193.326C149.017 195.226 150.781 197.233 152.585 199.182C149.639 203.629 147.754 209.432 146.077 214.462C148.944 220.207 152.269 225.946 157.328 230.024C155.209 227.108 153.479 224.114 151.792 220.931C150.558 218.681 149.435 216.353 148.269 214.064C150.232 209.452 151.734 204.533 153.348 199.79C154.188 200.81 155.068 201.671 156.147 202.434C157.702 216.28 158.82 230.247 160.011 244.132C158.324 244.084 156.536 244.04 155.058 243.117C150.879 240.507 145.606 223.147 144.289 217.825C142.077 208.878 140.716 200.033 141.669 190.794C141.922 188.32 142.272 185.443 143.637 183.3C144.395 182.104 145.115 181.74 146.471 181.448L146.476 181.453Z" fill="#8E5232"/>
<path d="M248.861 60.7159C269.078 62.0524 297.242 71.544 310.923 87.0863C322.791 100.573 325.688 120.868 327.428 138.082C328.341 147.102 328.925 156.521 328.409 165.595C328.4 165.809 328.38 166.018 328.356 166.227C326.883 159.991 325.357 154.188 323 148.206C321.688 144.872 319.467 141.46 318.646 138C318.32 136.624 318.344 135.069 318.252 133.66C318.087 131.069 317.912 128.489 317.557 125.913C315.759 112.927 312.75 99.7369 306.559 88.0826C305.572 86.2212 304.488 83.9467 303.006 82.4596C302.151 82.3089 301.232 82.4353 300.411 82.1582C297.723 81.2494 295.148 79.3249 292.703 77.8717C290.497 76.5692 288.251 75.3397 285.972 74.1733C277.627 69.8624 268.84 66.7277 259.874 63.9721C255.995 62.7814 251.894 61.4546 247.855 61.0172L247.67 60.7548C248.044 60.8228 248.482 60.7402 248.866 60.7111L248.861 60.7159Z" fill="url(#paint0_linear_151_134)"/>
<path d="M297.048 87.2323L301.329 86.547C308.585 97.9874 312.23 113.277 313.868 126.569C314.364 130.588 314.286 134.778 314.908 138.753C315.166 140.41 316.366 141.975 317.052 143.496C319.652 149.27 322.995 155.962 324.069 162.178C325.62 171.13 324.448 183.528 323.826 192.743C322.976 205.85 321.873 218.938 320.512 232.007C319.929 237.946 319.273 243.875 318.539 249.794C318.174 252.876 317.96 256.093 317.343 259.126C317.309 259.291 317.265 259.456 317.217 259.616C316.075 261.283 314.971 263.052 313.737 264.647C313.397 262.017 314.223 258.635 314.451 255.962L316.488 231.424C316.896 226.923 317.674 222.331 317.703 217.816C317.708 217.373 317.61 217.116 317.426 216.727L317.669 215.536C317.713 215.463 317.761 215.4 317.795 215.327C318.51 213.855 318.534 210.171 318.694 208.47C319.511 200.329 320.055 192.169 320.327 183.99C320.497 179.46 320.808 174.605 320.211 170.095C319.661 165.959 318.461 161.916 317.353 157.902C315.749 152.099 314.043 146.267 312.697 140.401C311.482 135.098 310.918 129.631 310 124.27C308.804 117.612 307.2 111.051 305.188 104.587C303.92 100.622 302.399 96.6607 300.469 92.9622C299.526 91.164 297.787 89.3804 297.13 87.4996C297.096 87.4072 297.067 87.3149 297.038 87.2225L297.048 87.2323Z" fill="#EDA073"/>
<path d="M289.685 237.051L290.025 237.085C289.763 239.165 280.281 252.773 278.283 255.174C277.506 256.117 276.684 257.021 275.814 257.876C274.944 258.732 274.031 259.543 273.078 260.306C262.255 268.981 247.383 271.324 233.892 269.783C223.778 268.627 215.332 264.666 208.936 256.632C205.558 252.258 201.247 245.926 198.706 241.051C206.409 242.728 214.131 243.598 221.99 244.181C228.512 244.667 235.185 245.143 241.717 244.973C257.745 244.555 274.249 241.241 289.685 237.046V237.051Z" fill="#FEFEFE"/>
<path d="M276.33 251.665L276.645 251.695C276.485 251.821 276.427 251.874 276.223 251.981C272.85 253.707 268.447 254.722 264.792 255.689C247.738 260.209 230.524 260.778 213.738 254.756C212.824 254.411 211.969 253.974 211.099 253.536C232.133 259.592 255.475 257.395 276.33 251.665Z" fill="#010101"/>
<path d="M199.78 87.9078C202.959 80.0395 208.207 73.8721 215.269 69.1628C223.395 63.7439 234.602 60.5412 244.371 60.5071C245.848 60.5023 247.403 60.4342 248.856 60.721C248.472 60.7501 248.035 60.8328 247.661 60.7647L247.846 61.0272C251.884 61.4646 255.991 62.7913 259.864 63.982C268.831 66.7377 277.623 69.8772 285.963 74.1832C288.242 75.3496 290.487 76.5792 292.694 77.8816C295.138 79.3348 297.714 81.2594 300.402 82.1682C301.228 82.4452 302.141 82.3188 302.997 82.4695C300.115 82.6056 297.068 83.3248 294.205 83.7671C288.256 84.7585 282.283 85.6139 276.296 86.338C264.054 87.903 251.772 88.9382 239.438 89.4339C233.27 89.638 227.103 89.4387 220.941 89.22C213.884 88.9722 206.793 88.6611 199.77 87.9078H199.78Z" fill="#1F1912"/>
<path d="M298.773 232.061C298.015 236.124 297.709 240.502 296.513 244.449L288.042 278.449C287.124 282.094 286.419 287.226 285.063 290.565C284.295 292.456 282.249 295.576 280.485 296.655C278.128 298.098 269.38 300.596 266.24 301.651C261.176 298.273 256.778 294.001 251.597 290.726C262.348 287.056 270.051 278.955 276.694 270.11C276.189 270.396 275.683 270.673 275.173 270.945C274.663 271.218 274.148 271.485 273.633 271.747C273.117 272.01 272.597 272.262 272.072 272.51C271.548 272.758 271.023 273.001 270.493 273.234C269.963 273.468 269.429 273.696 268.899 273.92C268.364 274.143 267.825 274.357 267.285 274.566C266.746 274.775 266.202 274.979 265.657 275.174C265.113 275.368 264.564 275.558 264.015 275.742C263.465 275.922 262.911 276.097 262.357 276.267C261.803 276.437 261.244 276.598 260.69 276.753C260.131 276.904 259.573 277.054 259.009 277.195C258.45 277.336 257.886 277.468 257.317 277.594C256.749 277.72 256.185 277.842 255.617 277.954C255.048 278.065 254.479 278.172 253.911 278.269C253.337 278.367 252.769 278.459 252.195 278.542C251.622 278.624 251.048 278.702 250.475 278.775C249.901 278.843 249.323 278.906 248.744 278.964C248.166 279.018 247.593 279.071 247.014 279.11C246.436 279.154 245.858 279.188 245.279 279.212C244.701 279.241 244.123 279.261 243.544 279.275C242.966 279.29 242.388 279.295 241.809 279.295C241.231 279.295 240.653 279.285 240.074 279.271C239.496 279.256 238.918 279.232 238.339 279.203C237.761 279.173 237.183 279.139 236.604 279.096C236.026 279.052 235.452 278.998 234.874 278.945C234.296 278.887 233.722 278.823 233.144 278.751C232.57 278.678 231.997 278.6 231.423 278.512C230.85 278.425 230.281 278.333 229.708 278.235C229.139 278.133 228.566 278.026 228.002 277.91C227.433 277.798 226.87 277.677 226.301 277.545C225.737 277.419 225.173 277.283 224.61 277.142C224.046 276.996 223.487 276.85 222.928 276.695C219.847 275.844 216.829 274.761 213.995 273.273C221.422 281.438 229.008 288.553 240.069 291.289C237.552 294.123 229.285 299.683 227.939 302.613C227.764 302.71 227.686 302.764 227.482 302.827C224.342 303.823 212.26 299.639 209.145 297.967C209.019 297.024 207.711 296.412 207.021 295.843C205.267 294.395 204.898 292.023 203.313 290.604C202.715 289.331 202.414 287.581 202.03 286.211L199.367 276.753C196.164 265.254 192.811 253.794 189.312 242.383C188.432 239.555 188.738 238.476 190.07 235.822C194.074 240.196 197.092 245.246 200.383 250.149C210.112 264.657 219.696 272.243 237.843 273.074C251.549 273.701 265.968 270.503 276.325 261.031C282.308 255.559 286.181 249.037 290.283 242.174C291.522 240.104 292.703 237.533 294.244 235.706C295.473 234.248 297.34 233.329 298.778 232.07L298.773 232.061Z" fill="#BC6F48"/>
<path d="M167.758 383.23C173.906 386.851 180.01 390.2 186.629 392.877C219.351 406.106 257.289 404.998 291.022 396.245C300.465 393.796 309.32 390.477 318.077 386.2C317.664 388.97 316.532 392.858 314.977 395.191C313.232 397.815 303.094 405.304 300.163 407.477C298.482 408.726 296.781 409.946 295.056 411.132C293.33 412.317 291.586 413.479 289.821 414.607C288.057 415.729 286.269 416.828 284.466 417.887C282.663 418.951 280.84 419.977 278.998 420.978C277.156 421.974 275.3 422.941 273.419 423.87C271.543 424.798 269.652 425.692 267.742 426.557C265.832 427.417 263.908 428.249 261.974 429.041C260.034 429.833 258.086 430.596 256.117 431.32H229.888C226.219 429.969 222.549 428.652 218.977 427.063C206.56 421.542 194.692 414.13 183.781 406.048C181.395 404.284 178.455 402.544 176.438 400.396C174.523 398.35 172.909 395.011 171.738 392.469C170.338 389.417 169.211 386.273 167.753 383.23H167.758Z" fill="#F5F5F5"/>
<path d="M38.1072 403.341C39.2007 401.684 40.0074 399.73 41.0426 398.015C44.2211 392.751 49.1297 387.206 54.1792 383.634C59.7293 379.707 66.6548 376.966 72.7881 374.045C93.5112 364.179 114.754 354.226 137.125 348.749C139.89 357.643 144.079 365.735 148.59 373.846C142.155 376.057 135.589 377.807 129.208 380.183C109.175 387.658 90.2647 397.043 71.578 407.375C69.6826 408.425 61.8288 412.361 60.7499 413.785C60.3854 419.622 59.9772 425.459 59.846 431.311H52.3081H38.112V403.332L38.1072 403.341Z" fill="#010101"/>
<path d="M63.948 384.397C61.8971 394.083 61.5229 403.954 60.7453 413.795C60.3808 419.632 59.9725 425.469 59.8413 431.32H52.3035C53.1054 419.248 57.4065 394.807 63.948 384.392V384.397Z" fill="#010101"/>
<path d="M148.585 373.851C151.394 377.986 154.149 382.166 157.299 386.059C162.304 392.246 168.078 397.888 173.672 403.54C174.751 403.832 175.271 404.726 175.801 405.664C176.199 406.364 176.583 407.428 177.263 407.841L177.39 407.618C177.137 407.195 176.86 406.918 176.51 406.578C176.442 406.038 176.525 405.222 176.884 404.78C176.918 404.736 176.972 404.702 177.011 404.663C177.506 404.838 177.92 405.82 178.197 406.296C178.153 407.01 177.468 407.176 177.633 407.803L177.856 407.812C178.347 407.841 178.901 407.822 179.266 408.211C179.416 408.371 179.363 408.405 179.489 408.58C179.552 408.672 179.8 408.945 179.888 409.037L180.014 408.342L180.165 408.585C180.247 410.203 184.592 416.308 185.457 418.563C185.321 418.99 185.229 418.99 185.423 419.413C185.754 420.137 186.109 420.793 185.793 421.59C185.725 421.76 185.647 421.926 185.569 422.091C185.448 422.358 185.414 422.635 185.307 422.893C185.278 422.975 185.224 423.039 185.18 423.107C186.648 425.994 188.777 428.584 190.507 431.31H59.8409C59.9673 425.459 60.3804 419.622 60.7449 413.785C61.819 412.361 69.6727 408.425 71.573 407.375C90.2597 397.042 109.17 387.658 129.203 380.183C135.584 377.807 142.15 376.052 148.585 373.846V373.851Z" fill="#010101"/>
<path d="M173.667 403.54C174.746 403.832 175.266 404.726 175.796 405.664C176.195 406.364 176.578 407.428 177.259 407.841L177.385 407.618C177.133 407.195 176.855 406.918 176.506 406.578C176.438 406.038 176.52 405.222 176.88 404.779C176.914 404.736 176.967 404.702 177.006 404.663C177.502 404.838 177.915 405.819 178.192 406.296C178.148 407.01 177.463 407.175 177.628 407.802L177.852 407.812C178.343 407.841 178.897 407.822 179.261 408.211C179.412 408.371 179.358 408.405 179.485 408.58C179.548 408.672 179.796 408.944 179.883 409.037L180.01 408.342L180.16 408.585C180.243 410.203 184.588 416.307 185.453 418.562C185.317 418.99 185.224 418.99 185.419 419.413C185.749 420.137 186.104 420.793 185.788 421.59C185.72 421.76 185.642 421.925 185.565 422.091C185.443 422.358 185.409 422.635 185.302 422.893C185.273 422.975 185.22 423.038 185.176 423.106C183.985 421.59 183.096 419.816 182.167 418.135C179.601 413.503 176.958 407.564 173.662 403.53L173.667 403.54Z" fill="#1F1912"/>
<path d="M176.077 288.815C182.658 297.762 191.041 305.791 199.449 313.003C205.062 317.82 215.638 326.757 222.597 328.711C226.646 329.848 231.229 330.018 235.413 330.295C238.781 330.529 242.154 330.64 245.532 330.635C248.909 330.626 252.282 330.499 255.645 330.247C258.897 329.994 262.367 329.741 265.409 328.502C276.845 323.846 297.884 303.507 306.029 293.986C305.849 296.363 305.392 298.739 305.023 301.096C304.921 301.179 304.819 301.257 304.717 301.339C303.57 302.287 302.574 303.755 301.577 304.882C299.074 307.721 296.591 310.632 293.952 313.344C284.417 323.122 268.393 336.944 255.397 341.488C248.088 344.044 240.365 344.739 232.682 344.151C227.253 343.738 222.17 342.518 216.979 340.948C217.548 343.398 219.817 346.494 220.823 349.001C225.533 357.881 229.907 366.93 234.436 375.897C235.88 378.769 237.343 381.636 238.815 384.494C239.69 386.176 240.73 387.891 241.435 389.641C230.636 387.405 219.594 386.457 208.795 384.066C206.452 385.801 200.528 390.472 198.74 392.44C193.539 391.089 170.241 381.714 167.082 378.186C165.434 376.339 164.647 373.282 163.923 370.949C161.322 362.585 159.106 353.259 159.422 344.443C159.617 343.928 159.612 343.194 159.714 342.635C159.981 341.143 160.321 339.772 160.875 338.353C161.595 337.017 162.299 335.807 163.417 334.747C165.478 332.793 172.787 329.177 175.669 327.501C176.631 333.804 177.798 340.074 179.164 346.304C179.64 348.501 179.98 350.926 180.787 353.021C180.529 344.807 180.855 336.604 180.471 328.395C179.854 315.21 178.07 301.845 176.063 288.81L176.077 288.815Z" fill="#8E5232"/>
<path d="M220.828 349.002C220.722 348.934 220.624 348.861 220.517 348.798C220.299 348.666 220.27 348.686 220.095 348.54C219.137 347.748 216.046 342.11 215.978 340.895C216.386 340.662 216.542 340.832 216.979 340.949C217.548 343.398 219.818 346.494 220.824 349.002H220.828Z" fill="#8E5232"/>
<path d="M220.114 350.824C222.491 353.366 234.952 379.858 237.251 385.16C233.912 382.327 221.796 356.262 220.114 350.824Z" fill="#010101"/>
<path d="M178.911 89.5844C184.598 90.5952 190.405 90.6487 196.111 91.47C195.951 91.5672 195.771 91.6304 195.64 91.7616C194.979 92.3983 192.986 101.098 192.69 102.342C192.004 105.219 187.936 123.697 188.729 125.373L188.928 125.5C188.107 125.689 187.28 125.85 186.454 126.01H186.673L186.43 126.102C187.071 126.122 187.601 126.078 188.233 125.966C187.844 132.022 186.736 138.053 186.537 144.114C196.582 146.714 206.779 148.813 216.873 151.219C220.926 152.186 225.383 152.944 229.3 154.334C228.022 156.915 226.773 159.534 225.111 161.896C231.662 170.751 232.59 182.508 230.996 193.127C230.748 194.769 229.601 201.909 228.542 202.881L228.445 202.847C228.425 202.57 228.401 202.297 228.415 202.016L228.114 201.739L227.866 201.875C226.063 202.842 224.075 203.658 222.161 204.378L221.937 204.159C222.097 203.916 222.632 196.111 222.958 194.774C222.408 194.225 221.359 194.366 220.596 194.371C212.791 194.381 190.546 194.653 185.297 199.95C181.176 204.105 180.467 208.771 180.53 214.423C180.574 218.773 181.672 222.335 184.841 225.431C185.589 226.16 186.512 226.986 187.465 227.424C185.035 230.558 183.101 233.98 181.337 237.523C182.741 243.394 183.558 249.483 184.695 255.417C187.169 267.946 189.574 280.48 191.912 293.034C186.901 287.484 180.719 282.356 175.315 277.083C173.619 275.426 171.437 273.667 170.168 271.684C168.569 269.181 164.03 220.27 163.534 213.393C166.723 222.535 170.912 231.535 175.169 240.235C176.622 243.199 177.988 246.353 179.767 249.133C178.236 244.268 176.54 239.462 174.678 234.714C172.817 229.965 170.79 225.29 168.599 220.683C167.024 217.281 164.574 214.025 163.398 210.496C162.329 207.289 162.203 200.49 161.863 196.879C160.701 184.524 159.505 172.093 158.694 159.709C160.92 155.957 163.515 152.356 165.911 148.711C167.072 146.952 168.54 145.052 169.24 143.049C169.736 141.635 170.27 130.826 170.528 128.498C171.986 115.352 174.236 102.007 178.907 89.5844H178.911Z" fill="#8E5232"/>
<path d="M210.52 187.47L210.666 187.562C207.916 190.012 193.724 195.358 189.729 196.13L189.656 195.931C193.846 193.19 205.481 188.957 210.525 187.465L210.52 187.47Z" fill="#72492C"/>
<path d="M187.091 169.803C187.504 167.888 189.103 166.139 190.653 165.036C193.943 162.693 198.619 162.11 202.521 162.819C206.297 163.505 211.352 166.115 213.553 169.332C208.902 166.003 203.61 163.344 197.71 164.346C193.982 164.982 189.735 167.082 187.091 169.803Z" fill="#010101"/>
<path d="M187.64 179.169C187.042 177.813 186.916 176.535 187.431 175.126C188.66 171.758 192.529 168.754 195.717 167.345C199.513 165.668 203.692 165.965 207.493 167.491C211.376 169.046 214.666 171.636 216.324 175.548C217.023 177.196 217.369 179.014 216.63 180.715C215.886 182.425 214.253 183.383 212.562 183.99C207.318 185.871 196.952 186.78 191.834 184.243C191.163 183.908 190.07 183.295 189.827 182.542C188.816 181.57 187.747 180.647 187.64 179.174V179.169Z" fill="#010101"/>
<path d="M205.413 170.271C206.356 170.815 207.381 171.456 207.736 172.555C207.886 173.012 207.838 173.498 207.575 173.906C207.109 174.63 206.2 174.98 205.379 175.077C204.538 175.174 203.58 174.999 202.924 174.436C202.409 173.988 202.186 173.371 202.191 172.701C202.195 172.01 202.521 171.432 202.847 170.849C203.712 170.557 204.499 170.363 205.408 170.271H205.413Z" fill="#FEFEFE"/>
<path d="M201.306 177.283C201.34 177.332 201.379 177.381 201.413 177.429C201.719 177.837 201.981 178.187 202.516 178.304C203.187 178.455 203.716 178.212 204.236 177.823C205.612 176.793 206.521 175.096 207.964 174.207L208.265 174.329C208.508 175.539 208.124 176.89 207.42 177.891C206.521 179.169 205.053 179.947 203.532 180.185C202.249 180.384 200.742 180.199 199.678 179.412C199.24 179.086 198.866 178.683 198.497 178.285C198.745 177.376 198.973 176.977 199.707 176.413L199.964 176.258C200.518 176.554 200.927 176.763 201.301 177.293L201.306 177.283Z" fill="#4A3222"/>
<path d="M199.969 176.248C200.523 176.545 200.932 176.754 201.306 177.283C201.145 177.541 200.98 177.823 200.786 178.051C200.489 178.401 200.324 178.528 199.853 178.542C199.459 177.833 199.624 177.176 199.712 176.404L199.969 176.248Z" fill="#927346"/>
<path d="M198.229 170.382C200.693 169.565 202.846 169.235 205.388 169.915L204.45 170.066C204.766 170.149 205.087 170.207 205.412 170.27C204.504 170.362 203.716 170.557 202.851 170.848C202.02 170.955 200.99 172.161 200.479 172.812C199.984 173.439 199.381 174.372 199.41 175.208C199.43 175.757 199.614 175.888 199.974 176.248L199.716 176.403C198.978 176.967 198.754 177.366 198.506 178.274C197.928 177.769 197.432 177.021 197.175 176.296C196.436 174.202 197.33 172.248 198.234 170.377L198.229 170.382Z" fill="#1F1912"/>
<path d="M187.639 179.169C187.727 178.946 187.819 178.722 187.916 178.498C188.014 178.28 188.121 178.061 188.227 177.842C188.334 177.628 188.451 177.415 188.573 177.206C188.689 176.997 188.816 176.793 188.947 176.584C189.078 176.379 189.209 176.18 189.35 175.981C189.491 175.782 189.637 175.592 189.783 175.398C189.933 175.208 190.089 175.024 190.244 174.839C190.405 174.654 190.565 174.479 190.735 174.304C190.9 174.129 191.075 173.959 191.25 173.794C191.425 173.629 191.605 173.468 191.79 173.308C191.975 173.152 192.159 173.002 192.354 172.851C192.543 172.705 192.742 172.56 192.937 172.423C193.136 172.287 193.335 172.151 193.544 172.025C193.748 171.899 193.957 171.772 194.166 171.656C194.38 171.539 194.594 171.427 194.808 171.32C195.027 171.213 195.245 171.111 195.464 171.019C195.867 170.844 196.271 170.679 196.679 170.518C195.707 173.002 195.274 175.587 196.383 178.134C197.15 179.888 198.667 181.181 200.46 181.803C200.689 181.886 200.922 181.954 201.16 182.017C201.398 182.075 201.636 182.124 201.879 182.158C202.122 182.192 202.365 182.216 202.608 182.231C202.851 182.241 203.094 182.241 203.337 182.231C203.58 182.216 203.823 182.192 204.066 182.158C204.309 182.124 204.547 182.075 204.785 182.012C205.019 181.949 205.252 181.881 205.485 181.798C205.714 181.716 205.937 181.619 206.161 181.516C206.268 181.463 206.375 181.41 206.477 181.356C206.579 181.303 206.681 181.239 206.783 181.176C206.88 181.113 206.982 181.05 207.079 180.982C207.177 180.914 207.274 180.846 207.366 180.773C207.458 180.7 207.551 180.627 207.638 180.549C207.731 180.472 207.818 180.394 207.901 180.311C207.988 180.229 208.071 180.146 208.153 180.058C208.236 179.976 208.314 179.888 208.392 179.796C208.469 179.704 208.542 179.616 208.615 179.519C208.688 179.427 208.756 179.33 208.824 179.232C208.892 179.135 208.955 179.033 209.019 178.936C209.082 178.834 209.14 178.732 209.198 178.63C209.252 178.528 209.31 178.421 209.359 178.314C209.412 178.207 209.456 178.1 209.505 177.993C209.548 177.886 209.592 177.774 209.631 177.663C209.67 177.551 209.709 177.439 209.743 177.327C210.365 175.257 209.932 173.42 209.096 171.505C212.046 173.133 214.452 175.009 215.473 178.416C215.784 179.446 215.876 180.52 215.925 181.594C210.885 184.807 199.94 185.395 194.118 184.107C192.601 183.772 191.207 183.252 189.831 182.532C188.82 181.56 187.751 180.637 187.644 179.164L187.639 179.169Z" fill="#FEFEFE"/>
<path d="M182.216 143.098C183.64 143.482 185.098 143.783 186.536 144.118C196.582 146.718 206.778 148.818 216.873 151.224C220.926 152.191 225.382 152.949 229.3 154.339C228.021 156.92 226.772 159.539 225.11 161.901C231.662 170.756 232.59 182.512 230.996 193.131C230.748 194.774 229.601 201.913 228.541 202.885L228.444 202.851C228.425 202.574 228.401 202.302 228.415 202.02C228.43 201.972 228.444 201.928 228.454 201.875C228.887 199.474 228.993 196.908 229.217 194.473C230.068 185.234 230.913 172.593 225.873 164.38C225.387 163.588 224.721 162.708 223.842 162.343C220.654 161.017 213.573 160.054 209.811 159.301C200.733 157.483 191.673 155.588 182.629 153.605C178.347 157.77 174.294 162.261 169.867 166.251L169.104 166.96L168.924 166.902C169.283 165.624 170.085 164.501 170.654 163.306C173.964 156.259 177.565 149.372 182.211 143.093L182.216 143.098Z" fill="#010101"/>
<path d="M306.034 293.986C307.108 292.708 308.168 291.415 309.319 290.21C308.897 297.767 307.764 305.402 307.011 312.94C306.224 320.843 305.791 328.764 305.057 336.662C305.111 338.829 304.829 341.085 304.732 343.257C304.62 345.726 304.732 348.127 304.941 350.586C306.068 343.651 307.322 336.783 308.688 329.892C310.248 332.288 320.128 339.014 322.869 339.505C323.19 339.563 323.059 339.563 323.375 339.476C326.004 350.61 323.175 369.404 319.292 380.003C316.95 381.748 314.252 382.944 311.608 384.154C297.821 390.467 282.502 394.146 267.509 396.148C265.191 396.581 262.872 396.819 260.535 397.081C255.646 397.529 250.756 398.053 245.848 398.253C229.79 398.904 214.204 396.77 198.759 392.435C200.548 390.462 206.472 385.797 208.815 384.062C219.614 386.453 230.655 387.4 241.454 389.636C240.745 387.886 239.705 386.171 238.835 384.489C237.357 381.632 235.899 378.764 234.456 375.892C229.926 366.925 225.548 357.876 220.843 348.997C219.837 346.489 217.563 343.393 216.999 340.944C222.189 342.513 227.273 343.733 232.702 344.146C240.385 344.73 248.108 344.039 255.417 341.483C268.413 336.939 284.436 323.117 293.972 313.339C296.611 310.632 299.094 307.716 301.597 304.878C302.588 303.75 303.589 302.287 304.736 301.335C304.839 301.252 304.941 301.169 305.043 301.092C305.412 298.735 305.869 296.358 306.049 293.981L306.034 293.986Z" fill="#BC6F48"/>
<path d="M260.525 397.086C260.831 396.746 261.089 396.513 261.526 396.362C263.208 395.779 265.857 395.39 267.499 396.153C265.181 396.586 262.863 396.824 260.525 397.086Z" fill="#BC6F48"/>
<path d="M272.597 336.861L272.733 337.153C267.81 346.207 256.797 357.769 248.812 364.184C246.732 365.861 244.531 367.29 242.276 368.709L242.174 368.631C242.179 368.554 242.164 368.471 242.193 368.403C242.383 367.999 244.463 366.405 244.954 365.953C247.418 363.664 249.814 361.307 252.146 358.882C259.096 351.675 265.477 343.913 272.602 336.861H272.597Z" fill="#010101"/>
<path d="M306.034 293.986C307.108 292.708 308.167 291.415 309.319 290.21C308.896 297.767 307.764 305.402 307.011 312.94C306.223 320.843 305.791 328.764 305.057 336.662C303.123 339.252 300.187 352.219 298.788 356.248C298.914 354.192 299.283 352.117 299.526 350.066L300.843 338.708L305.028 301.096C305.397 298.739 305.854 296.363 306.034 293.986Z" fill="#EDA073"/>
<path d="M345.74 347.096C346.012 347.179 346.28 347.257 346.552 347.344C352.879 349.342 359.125 351.976 365.326 354.343C378.856 359.475 392.255 364.942 405.513 370.75C413.464 374.244 424.992 379.1 431.718 384.363C439.674 390.589 443.368 396.328 447.902 405.062V431.325H298.899C302.204 425.828 305.567 421.036 308.644 415.287C310.126 412.512 311.642 409.732 313.018 406.899C314.174 404.517 315.098 402.029 316.512 399.774C319.273 395.376 323.753 390.817 327.068 386.671C335.272 376.407 344.413 360.248 345.745 347.096H345.74Z" fill="url(#paint1_linear_151_134)"/>
<path d="M196.111 91.4751C213.291 93.1275 232.002 93.9342 249.197 92.8699C265.278 91.8785 281.107 89.4242 297.048 87.2323C297.077 87.3246 297.106 87.417 297.14 87.5093C297.792 89.3901 299.536 91.1738 300.479 92.972C302.409 96.6656 303.93 100.631 305.198 104.597C307.21 111.061 308.814 117.622 310.01 124.28C310.928 129.641 311.492 135.108 312.707 140.41C314.048 146.276 315.759 152.108 317.363 157.911C318.471 161.921 319.671 165.969 320.221 170.105C320.818 174.615 320.507 179.47 320.337 184C320.065 192.179 319.521 200.334 318.704 208.48C318.544 210.181 318.515 213.86 317.805 215.337C317.771 215.41 317.718 215.473 317.679 215.546L317.436 216.737C317.62 217.13 317.713 217.388 317.713 217.825C317.684 222.345 316.906 226.938 316.498 231.433L314.461 255.972C314.233 258.645 313.407 262.027 313.747 264.656C312.255 266.921 299.094 283.445 297.374 284.325L297.155 284.252C299.624 264.418 303.186 244.706 305.67 224.872C301.194 224.42 295.857 220.455 291.726 218.409C288.806 216.96 285.909 215.93 282.726 215.254C288.937 218.098 292.922 220.45 298.054 225.062C285.029 224.022 271.956 224.377 259.198 227.346C254.387 228.464 246.023 231.322 241.532 231.506C238.665 231.623 233.115 229.47 229.927 228.843C219.244 226.734 200.538 226.107 190.254 229.115C196.329 222.267 201.432 218.792 209.466 214.647C200.864 215.682 192.961 220.911 187.475 227.419C186.522 226.986 185.599 226.16 184.85 225.426C181.681 222.331 180.583 218.768 180.539 214.419C180.476 208.766 181.191 204.101 185.307 199.945C190.556 194.653 212.8 194.376 220.605 194.366C221.368 194.366 222.423 194.225 222.967 194.77C222.642 196.101 222.112 203.911 221.947 204.154L222.17 204.373C224.085 203.654 226.073 202.837 227.876 201.87L228.124 201.734L228.425 202.011C228.415 202.288 228.435 202.56 228.454 202.842L228.551 202.876C229.611 201.899 230.758 194.76 231.006 193.122C232.6 182.503 231.671 170.747 225.12 161.892C226.782 159.53 228.031 156.91 229.309 154.329C225.392 152.939 220.936 152.181 216.882 151.214C206.788 148.809 196.592 146.714 186.546 144.109C186.746 138.048 187.854 132.012 188.242 125.962C187.611 126.073 187.081 126.112 186.439 126.098L186.682 126.005H186.464C187.29 125.845 188.116 125.689 188.937 125.495L188.738 125.369C187.951 123.692 192.019 105.214 192.699 102.337C192.996 101.093 194.988 92.3936 195.649 91.757C195.78 91.6257 195.965 91.5626 196.12 91.4654L196.111 91.4751Z" fill="#BC6F48"/>
<path d="M240.341 133.869C241.999 133.791 243.617 133.762 245.274 133.859C243.184 134.316 240.963 134.432 238.83 134.67L227.438 135.929C225.64 136.119 223.837 136.342 222.024 136.362C227.798 134.544 234.339 134.248 240.341 133.869Z" fill="#010101"/>
<path d="M188.928 125.504C196.237 124.309 208.178 122.384 215.415 123.974C206.394 124.79 197.219 124.717 188.237 125.971C187.606 126.083 187.076 126.122 186.434 126.107L186.677 126.015H186.459C187.285 125.854 188.111 125.699 188.932 125.504H188.928Z" fill="#010101"/>
<path d="M278.57 121.865C283.314 121.626 288.101 121.767 292.849 121.874C296.013 121.947 299.259 121.913 302.399 122.292C301.344 122.822 291.605 122.734 289.719 122.778C284.359 122.827 278.969 123.06 273.613 123.298C270.858 123.425 268.107 123.668 265.351 123.663C269.745 122.501 274.055 122.122 278.57 121.86V121.865Z" fill="#010101"/>
<path d="M307.05 245.207C308.566 239.895 314.836 218.792 317.674 215.536L317.431 216.727C316.77 219.186 316.376 221.684 315.638 224.134C313.446 231.37 310.248 238.364 307.05 245.207Z" fill="#010101"/>
<path d="M274.05 188.616L273.676 187.761L273.759 187.581C273.827 187.644 273.895 187.708 273.967 187.766C278.171 191.338 298.622 194.667 300.114 196.145L299.478 196.179C293.228 195.027 286.176 195.804 280.358 192.825C278.75 191.999 277.151 190.974 275.693 189.895C275.192 189.525 274.76 189.005 274.225 188.699C274.172 188.665 274.108 188.641 274.055 188.616H274.05Z" fill="#4A3222"/>
<path d="M287.809 160.783C292.645 161.503 296.79 163.238 299.813 167.257C301.363 169.317 302.165 171.704 302.923 174.134C299.949 168.997 296.431 165.429 290.511 163.874C285.471 162.552 280.446 163.588 276.023 166.222C274.113 167.359 272.573 169.065 270.886 170.095C270.998 169.711 271.12 169.39 271.309 169.04C272.276 168.263 273.02 167.155 273.919 166.285C277.797 162.523 282.453 160.754 287.809 160.778V160.783Z" fill="#010101"/>
<path d="M265.448 204.023C267.912 204.392 269.735 205.194 271.251 207.284C271.344 207.41 271.426 207.536 271.514 207.668C271.596 207.794 271.674 207.93 271.752 208.061C271.83 208.193 271.902 208.329 271.971 208.465C272.043 208.601 272.107 208.742 272.17 208.878C272.233 209.019 272.291 209.16 272.345 209.306C272.398 209.451 272.452 209.592 272.5 209.738C272.549 209.884 272.593 210.034 272.631 210.18C272.67 210.331 272.709 210.477 272.738 210.632C272.772 210.783 272.802 210.934 272.826 211.084C272.85 211.235 272.87 211.39 272.889 211.541C272.909 211.692 272.918 211.847 272.928 212.003C272.938 212.153 272.943 212.309 272.943 212.465C272.943 212.615 272.943 212.771 272.933 212.926C272.923 213.077 272.913 213.232 272.899 213.383C272.884 213.534 272.865 213.689 272.845 213.84C272.826 213.991 272.797 214.141 272.768 214.292C272.345 216.421 271.208 218.019 269.4 219.196C267.592 218.719 265.687 218.194 263.801 218.301C260.613 218.486 258.246 220.848 255.655 222.442C254.207 223.327 252.691 224.075 251.107 224.687C244.983 227.074 239.302 227.322 233.372 224.342C231.234 223.268 229.139 221.985 226.787 221.451C223.035 220.595 218.88 221.46 215.303 219.784C212.965 218.69 211.765 216.853 210.948 214.496C211.026 213.782 211.148 213.009 211.4 212.338C212.829 208.523 218.413 205.661 221.932 204.154L222.156 204.373C218.919 206.108 214.554 209.233 213.174 212.795C213.048 214.102 213.126 215.089 213.966 216.163C215.303 217.864 217.981 218.467 220.027 218.627C222.646 218.836 225.412 218.69 227.949 219.429C232.415 220.736 236.211 224.031 241.007 224.289C247.389 224.629 252.297 222.097 257.371 218.564C258.878 217.514 260.831 216.09 262.693 215.808C265.414 215.395 268.16 217.747 269.73 217.616L269.881 217.412C270.566 215.964 271.037 214.515 271.144 212.912C271.285 210.827 270.712 208.557 269.307 206.968C266.751 204.081 262.819 204.883 259.422 204.64L259.189 204.62C260.336 204.358 261.502 204.227 262.664 204.071L265.444 204.018L265.448 204.023Z" fill="#010101"/>
<path d="M210.958 214.501C211.779 216.858 212.975 218.695 215.313 219.789C218.89 221.466 223.045 220.601 226.797 221.456C229.149 221.99 231.244 223.274 233.382 224.348C239.311 227.327 244.993 227.079 251.116 224.693C252.701 224.08 254.217 223.332 255.665 222.447C258.256 220.853 260.622 218.486 263.811 218.307C265.696 218.2 267.606 218.72 269.409 219.201C265.721 221.952 260.899 223.93 256.579 225.519C250.193 227.866 242.738 229.674 236.011 227.915C232.881 227.098 229.849 225.893 226.641 225.397C222.428 224.751 217.49 225.072 213.597 223.191C212.197 222.515 210.841 221.558 210.331 220.017C209.831 218.496 210.239 215.896 210.963 214.501H210.958Z" fill="url(#paint2_linear_151_134)"/>
<path d="M269.89 217.417L269.74 217.621C268.17 217.752 265.419 215.395 262.703 215.813C260.841 216.095 258.887 217.519 257.381 218.569C252.307 222.102 247.398 224.634 241.017 224.294C236.216 224.036 232.42 220.741 227.958 219.434C225.421 218.69 222.651 218.836 220.037 218.632C217.986 218.472 215.313 217.869 213.976 216.168C213.135 215.094 213.058 214.112 213.184 212.8C216.994 214.355 221.786 213.378 225.83 214.151C228.333 214.627 230.627 215.677 232.92 216.737C240.05 220.032 244.516 221.193 252.083 217.956C257.055 215.833 261.58 212.217 267.286 214.413C267.898 214.647 268.476 214.977 269.05 215.293C269.278 216.003 269.453 216.805 269.895 217.412L269.89 217.417Z" fill="#8E5232"/>
<path d="M282.536 166.659C282.575 166.649 282.619 166.64 282.658 166.64C287.668 166.222 292.737 167.514 296.732 170.625C298.642 172.112 300.99 174.386 301.208 176.919C301.33 178.347 299.605 181.088 298.701 182.201C296.65 184.733 291.129 184.865 288.067 185.146C283.503 185.38 274.031 185.317 270.415 182.6C269.657 182.031 269.424 181.317 269.298 180.403C268.904 177.531 269.409 174.77 271.193 172.428C273.779 169.031 278.449 167.276 282.531 166.649L282.536 166.659Z" fill="#010101"/>
<path d="M285.802 177.453C285.559 178.639 285.462 179.645 285.554 180.865C284.781 180.972 283.989 180.982 283.207 181.02L283.941 180.505C284.086 180.107 284.111 179.878 284.067 179.456C283.805 179.047 283.601 178.843 283.192 178.576C283.241 178.561 283.289 178.547 283.343 178.532C284.281 178.294 284.971 177.934 285.802 177.453Z" fill="#4A3222"/>
<path d="M285.802 177.453C286.152 177.006 286.215 176.88 286.808 176.783C287.624 176.651 288.64 176.773 289.471 176.783C288.684 178.547 287.59 180.063 285.739 180.802C285.68 180.826 285.617 180.846 285.554 180.865C285.462 179.645 285.554 178.644 285.802 177.453Z" fill="#341F09"/>
<path d="M278.075 175.806C278.707 175.412 279.11 175.573 279.829 175.733C280.286 175.835 280.621 175.971 280.981 176.277C281.161 176.86 281.273 177.405 281.729 177.842L283.197 178.571C283.605 178.838 283.805 179.043 284.072 179.451C284.116 179.874 284.091 180.102 283.946 180.501L283.212 181.016C282.789 180.87 282.39 180.705 281.997 180.501C279.97 179.451 278.77 177.949 278.075 175.801V175.806Z" fill="#72492C"/>
<path d="M281.729 177.842L283.197 178.571C283.605 178.838 283.805 179.042 284.072 179.451C284.116 179.874 284.091 180.102 283.946 180.5C283.44 180.121 282.76 179.937 282.191 179.645C281.744 179.115 281.778 178.503 281.729 177.842Z" fill="#8E5232"/>
<path d="M285.855 171.077C286.73 170.635 287.537 170.401 288.509 170.688C289.641 171.024 290.409 171.908 291.026 172.865C290.681 173.93 290.487 174.819 289.398 175.359C288.713 175.699 287.887 175.811 287.158 175.538C286.351 175.237 285.675 174.518 285.403 173.701C285.267 173.308 285.219 172.875 285.18 172.457L285.855 171.082V171.077Z" fill="#FEFEFE"/>
<path d="M279.576 170.387C281.059 170.11 283.547 169.614 284.961 170.139C285.549 170.357 285.593 170.547 285.855 171.077L285.18 172.452C284.198 172.554 282.235 172.442 281.545 173.259C280.937 173.978 281.02 175.373 280.981 176.277C280.621 175.971 280.281 175.835 279.829 175.733C279.11 175.572 278.701 175.412 278.074 175.805C277.588 174.148 279.017 171.932 279.576 170.387Z" fill="#1F1912"/>
<path d="M277.749 170.81L277.929 171.077C277.224 172.525 276.845 174.056 277.059 175.67C277.331 177.76 278.561 179.713 280.252 180.948C281.865 182.124 283.834 182.615 285.812 182.26C285.943 182.236 286.074 182.206 286.205 182.177C286.337 182.148 286.468 182.114 286.594 182.075C286.721 182.036 286.852 181.998 286.978 181.954C287.104 181.91 287.231 181.861 287.357 181.813C287.484 181.759 287.605 181.711 287.727 181.652C287.848 181.599 287.97 181.536 288.086 181.473C288.203 181.409 288.319 181.346 288.436 181.278C288.553 181.21 288.665 181.137 288.776 181.064C288.888 180.991 289 180.914 289.107 180.836C289.214 180.758 289.321 180.676 289.423 180.588C289.525 180.505 289.627 180.418 289.729 180.326C289.826 180.233 289.923 180.146 290.02 180.049C290.113 179.951 290.205 179.854 290.297 179.757C290.39 179.66 290.472 179.558 290.56 179.451C290.643 179.349 290.725 179.242 290.803 179.135C290.881 179.028 290.958 178.916 291.031 178.804C292.596 176.433 292.402 174.085 291.911 171.437C294.443 172.418 299.444 174.776 300.358 177.546C300.576 178.207 300.363 178.489 300.124 179.096C299.473 180.228 298.744 181.55 297.724 182.381C294.594 184.918 279.484 184.18 274.979 183.533C273.584 183.329 270.648 182.931 269.939 181.56C269.365 180.457 270.138 178.134 270.624 177.05C272.004 173.974 274.731 172.039 277.759 170.805L277.749 170.81Z" fill="#FEFEFE"/>
<path d="M294.545 136.712C310 144.988 313.348 153.236 318.403 169.065C314.364 163.719 310.952 157.853 305.524 153.751C302.248 151.403 298.569 149.056 294.705 147.817C291.916 148.944 260.199 160.856 259.329 160.778L259.13 160.618C258.124 158.023 256.807 155.52 255.733 152.939C268.709 147.676 281.408 141.538 294.54 136.712H294.545Z" fill="#010101"/>
<path d="M294.705 147.817C298.569 149.057 302.248 151.404 305.524 153.751C301.981 155.175 290.273 158.145 287.93 160.395L287.804 160.784C282.448 160.755 277.792 162.524 273.914 166.29C273.015 167.16 272.271 168.268 271.304 169.046C270.984 168.856 270.828 168.846 270.677 168.492C270.546 168.176 270.609 168.297 270.449 168.04C270.031 167.899 269.963 167.874 269.535 168.074C268.291 168.652 267.523 170.713 267.149 171.962C266.085 175.544 266.58 181.419 268.388 184.695C269.535 186.775 271.241 187.883 273.486 188.529C273.797 188.622 273.7 188.593 274.045 188.612C274.104 188.641 274.162 188.666 274.215 188.695C274.75 189.001 275.183 189.521 275.683 189.89C277.141 190.969 278.74 191.995 280.349 192.821C286.166 195.8 293.218 195.018 299.468 196.174C297.723 197.132 280.572 195.912 276.786 196.004C272.83 196.101 268.899 196.471 264.991 197.112C265.117 199.406 265.186 201.729 265.438 204.013L262.658 204.067C259.548 195.951 257.691 185.978 258.493 177.308C258.858 173.337 259.82 169.561 260.923 165.746C260.904 165.736 260.88 165.721 260.86 165.712C260.413 165.474 259.874 165.24 259.553 164.832C258.697 163.729 258.999 161.916 259.12 160.614L259.32 160.774C260.185 160.857 291.906 148.94 294.695 147.812L294.705 147.817Z" fill="#8E5232"/>
<defs>
<linearGradient id="paint0_linear_151_134" x1="258.163" y1="116.378" x2="322.733" y2="107.571" gradientUnits="userSpaceOnUse">
<stop stop-color="#453A30"/>
<stop offset="1" stop-color="#634E3E"/>
</linearGradient>
<linearGradient id="paint1_linear_151_134" x1="303.424" y1="387.303" x2="450.298" y2="401.31" gradientUnits="userSpaceOnUse">
<stop/>
<stop offset="1" stop-color="#010100"/>
</linearGradient>
<linearGradient id="paint2_linear_151_134" x1="243.126" y1="209.214" x2="233.965" y2="229.694" gradientUnits="userSpaceOnUse">
<stop stop-color="#603D23"/>
<stop offset="1" stop-color="#8B5032"/>
</linearGradient>
</defs>
</svg>
