<?xml version="1.0" encoding="UTF-8"?>
<!DOCTYPE svg PUBLIC "-//W3C//DTD SVG 1.1//EN" "http://www.w3.org/Graphics/SVG/1.1/DTD/svg11.dtd">
<!-- Creator: CorelDRAW -->
<svg xmlns="http://www.w3.org/2000/svg" xml:space="preserve" width="3.48in" height="1.66666in" version="1.1" style="shape-rendering:geometricPrecision; text-rendering:geometricPrecision; image-rendering:optimizeQuality; fill-rule:evenodd; clip-rule:evenodd"
viewBox="0 0 3480 1666.66"
 xmlns:xlink="http://www.w3.org/1999/xlink"
 xmlns:xodm="http://www.corel.com/coreldraw/odm/2003">
 <defs>
  <style type="text/css">
   <![CDATA[
    .fil1 {fill:none}
    .fil2 {fill:#FEFEFE}
    .fil3 {fill:#FEFEFE}
    .fil0 {fill:#ED2330}
    .fil4 {fill:#ED2330}
    .fil5 {fill:#FEFEFE;fill-rule:nonzero}
   ]]>
  </style>
 </defs>
 <g id="Layer_x0020_1">
  <metadata id="CorelCorpID_0Corel-Layer"/>
  <rect class="fil0" x="3.33" y="-10" width="3480" height="1670"/>
  <rect class="fil1" x="1486.67" y="493.33" width="66.67" height="316.67"/>
  <g id="_1624848140048">
   <g>
    <rect class="fil2" x="1669.57" y="101.68" width="174.11" height="120.53"/>
    <rect class="fil2" x="1662.87" y="627.34" width="187.5" height="120.53"/>
    <rect class="fil2" x="1391.67" y="182.03" width="123.88" height="569.19"/>
    <polygon class="fil3" points="2017.78,98.33 2141.66,98.33 2141.66,767.96 2134.71,767.96 2127.05,758.9 2127.9,758.39 2017.78,574.04 "/>
    <ellipse class="fil2" cx="1757.11" cy="412.17" rx="151.16" ry="144.86"/>
   </g>
   <ellipse class="fil4" cx="1757.11" cy="412.17" rx="69.13" ry="66.25"/>
  </g>
  <polygon class="fil5" points="939.9,853.44 1046.34,853.22 1046.12,873.89 1003.23,873.89 1003.01,1013.89 981.68,1013.89 981.9,873.89 939.68,873.89 "/>
  <polygon id="_1" class="fil5" points="1080.79,853.44 1185.01,853.22 1184.78,873.89 1102.12,873.89 1101.9,923 1176.12,922.78 1175.9,943.22 1102.12,943.44 1101.9,993.22 1188.12,993.22 1187.9,1013.89 1080.56,1013.89 "/>
  <path id="_2" class="fil5" d="M1343.45 1001.89c-2.67,1.78 -6.3,3.78 -10.89,6 -4.59,2.22 -9.96,4.07 -16.11,5.56 -6.15,1.48 -12.85,2.22 -20.11,2.22 -12.44,-0.15 -23.67,-2.37 -33.67,-6.67 -10,-4.3 -18.48,-10.15 -25.44,-17.56 -6.96,-7.41 -12.33,-15.96 -16.11,-25.67 -3.78,-9.7 -5.67,-20.04 -5.67,-31 0,-12 1.96,-23.07 5.89,-33.22 3.93,-10.15 9.44,-18.96 16.56,-26.44 7.11,-7.48 15.52,-13.3 25.22,-17.44 9.7,-4.15 20.33,-6.22 31.89,-6.22 9.63,0 18.37,1.3 26.22,3.89 7.85,2.59 14.59,5.67 20.22,9.22l-8.67 20c-4.44,-2.96 -9.81,-5.78 -16.11,-8.44 -6.3,-2.67 -13.3,-4 -21,-4 -7.85,0 -15.26,1.56 -22.22,4.67 -6.96,3.11 -13.11,7.48 -18.44,13.11 -5.33,5.63 -9.52,12.19 -12.56,19.67 -3.04,7.48 -4.56,15.52 -4.56,24.11 0,8.74 1.37,16.85 4.11,24.33 2.74,7.48 6.67,13.96 11.78,19.44 5.11,5.48 11.3,9.78 18.56,12.89 7.26,3.11 15.41,4.67 24.44,4.67 8.15,0 15.41,-1.26 21.78,-3.78 6.37,-2.52 11.63,-5.33 15.78,-8.44l9.11 19.11z"/>
  <polygon id="_3" class="fil5" points="1506.78,853.44 1506.78,1013.89 1485.67,1013.89 1485.45,943.44 1401,943.44 1401.22,1013.89 1379.89,1013.89 1379.67,853.22 1401,853.44 1401.22,923 1485.67,923.22 1485.45,853.22 "/>
  <polygon id="_4" class="fil5" points="1692.11,1019 1567.89,893 1574.11,894.56 1574.56,1013.89 1553,1013.89 1553,848.33 1554.11,848.33 1677,974.78 1671.89,973.67 1671.44,853.22 1692.78,853.22 1692.78,1019 "/>
  <path id="_5" class="fil5" d="M1729 933.89c0,-11.26 2.11,-21.81 6.33,-31.67 4.22,-9.85 10.11,-18.59 17.67,-26.22 7.56,-7.63 16.3,-13.63 26.22,-18 9.93,-4.37 20.59,-6.56 32,-6.56 11.11,0 21.59,2.19 31.44,6.56 9.85,4.37 18.59,10.37 26.22,18 7.63,7.63 13.59,16.37 17.89,26.22 4.3,9.85 6.44,20.41 6.44,31.67 0,11.41 -2.15,22.04 -6.44,31.89 -4.3,9.85 -10.26,18.52 -17.89,26 -7.63,7.48 -16.37,13.33 -26.22,17.56 -9.85,4.22 -20.33,6.33 -31.44,6.33 -11.56,0 -22.26,-2.07 -32.11,-6.22 -9.85,-4.15 -18.56,-9.93 -26.11,-17.33 -7.56,-7.41 -13.44,-16.04 -17.67,-25.89 -4.22,-9.85 -6.33,-20.63 -6.33,-32.33zm22.22 0c0,8.44 1.52,16.37 4.56,23.78 3.04,7.41 7.33,13.89 12.89,19.44 5.56,5.56 11.93,9.93 19.11,13.11 7.19,3.19 15,4.78 23.44,4.78 8.44,0 16.3,-1.59 23.56,-4.78 7.26,-3.19 13.59,-7.56 19,-13.11 5.41,-5.56 9.63,-12 12.67,-19.33 3.04,-7.33 4.56,-15.3 4.56,-23.89 0,-8.59 -1.56,-16.63 -4.67,-24.11 -3.11,-7.48 -7.37,-14.07 -12.78,-19.78 -5.41,-5.7 -11.74,-10.11 -19,-13.22 -7.26,-3.11 -15.11,-4.67 -23.56,-4.67 -8.59,0 -16.52,1.59 -23.78,4.78 -7.26,3.19 -13.59,7.63 -19,13.33 -5.41,5.7 -9.59,12.3 -12.56,19.78 -2.96,7.48 -4.44,15.44 -4.44,23.89z"/>
  <polygon id="_6" class="fil5" points="1929.67,853.44 1951,853.22 1950.78,993.22 2032.56,993.22 2032.56,1013.89 1929.44,1013.89 "/>
  <path id="_7" class="fil5" d="M2054.78 933.89c0,-11.26 2.11,-21.81 6.33,-31.67 4.22,-9.85 10.11,-18.59 17.67,-26.22 7.56,-7.63 16.3,-13.63 26.22,-18 9.93,-4.37 20.59,-6.56 32,-6.56 11.11,0 21.59,2.19 31.44,6.56 9.85,4.37 18.59,10.37 26.22,18 7.63,7.63 13.59,16.37 17.89,26.22 4.3,9.85 6.44,20.41 6.44,31.67 0,11.41 -2.15,22.04 -6.44,31.89 -4.3,9.85 -10.26,18.52 -17.89,26 -7.63,7.48 -16.37,13.33 -26.22,17.56 -9.85,4.22 -20.33,6.33 -31.44,6.33 -11.56,0 -22.26,-2.07 -32.11,-6.22 -9.85,-4.15 -18.56,-9.93 -26.11,-17.33 -7.56,-7.41 -13.44,-16.04 -17.67,-25.89 -4.22,-9.85 -6.33,-20.63 -6.33,-32.33zm22.22 0c0,8.44 1.52,16.37 4.56,23.78 3.04,7.41 7.33,13.89 12.89,19.44 5.56,5.56 11.93,9.93 19.11,13.11 7.19,3.19 15,4.78 23.44,4.78 8.44,0 16.3,-1.59 23.56,-4.78 7.26,-3.19 13.59,-7.56 19,-13.11 5.41,-5.56 9.63,-12 12.67,-19.33 3.04,-7.33 4.56,-15.3 4.56,-23.89 0,-8.59 -1.56,-16.63 -4.67,-24.11 -3.11,-7.48 -7.37,-14.07 -12.78,-19.78 -5.41,-5.7 -11.74,-10.11 -19,-13.22 -7.26,-3.11 -15.11,-4.67 -23.56,-4.67 -8.59,0 -16.52,1.59 -23.78,4.78 -7.26,3.19 -13.59,7.63 -19,13.33 -5.41,5.7 -9.59,12.3 -12.56,19.78 -2.96,7.48 -4.44,15.44 -4.44,23.89z"/>
  <path id="_8" class="fil5" d="M2381 1000.11c-2.22,1.93 -5.33,3.81 -9.33,5.67 -4,1.85 -8.41,3.52 -13.22,5 -4.81,1.48 -9.78,2.67 -14.89,3.56 -5.11,0.89 -9.89,1.33 -14.33,1.33 -12.89,0 -24.48,-2 -34.78,-6 -10.3,-4 -19.11,-9.56 -26.44,-16.67 -7.33,-7.11 -12.96,-15.48 -16.89,-25.11 -3.93,-9.63 -5.89,-20.07 -5.89,-31.33 0,-13.33 2.19,-25.3 6.56,-35.89 4.37,-10.59 10.37,-19.56 18,-26.89 7.63,-7.33 16.41,-12.89 26.33,-16.67 9.93,-3.78 20.44,-5.67 31.56,-5.67 9.33,0 18,1.11 26,3.33 8,2.22 15.04,5.04 21.11,8.44l-7.33 19.78c-2.96,-1.78 -6.63,-3.41 -11,-4.89 -4.37,-1.48 -8.85,-2.7 -13.44,-3.67 -4.59,-0.96 -8.89,-1.44 -12.89,-1.44 -9.48,0 -18.07,1.44 -25.78,4.33 -7.7,2.89 -14.3,7.04 -19.78,12.44 -5.48,5.41 -9.7,11.93 -12.67,19.56 -2.96,7.63 -4.44,16.19 -4.44,25.67 0,8.74 1.48,16.74 4.44,24 2.96,7.26 7.19,13.52 12.67,18.78 5.48,5.26 12.04,9.33 19.67,12.22 7.63,2.89 16.04,4.33 25.22,4.33 5.48,0 10.89,-0.56 16.22,-1.67 5.33,-1.11 9.93,-2.7 13.78,-4.78l0 -32 -32 0 0 -20.67 53.56 0 0 64.89z"/>
  <polygon id="_9" class="fil5" points="2458.77,960.33 2399.22,853.22 2425.66,853.22 2473.44,941.89 2466.77,942.33 2514.11,853.22 2540.33,853.22 2480.33,960.33 2480.33,1013.89 2458.77,1013.89 "/>
  <polygon class="fil5" points="1262.72,1125.97 1296.26,1125.9 1296.19,1132.98 1283,1133.05 1282.93,1176.31 1275.56,1176.31 1275.63,1132.98 1262.65,1133.05 "/>
  <polygon id="_1_0" class="fil5" points="1347.09,1125.97 1347.16,1176.31 1339.87,1176.31 1339.73,1154.58 1314.11,1154.51 1314.18,1176.31 1306.81,1176.31 1306.74,1125.9 1314.11,1125.97 1314.18,1147.5 1339.87,1147.56 1339.73,1125.9 "/>
  <polygon id="_2_1" class="fil5" points="1361.4,1125.97 1394.45,1125.9 1394.38,1132.98 1368.76,1133.05 1368.69,1147.5 1391.61,1147.43 1391.61,1154.51 1368.76,1154.58 1368.69,1169.23 1395.43,1169.16 1395.35,1176.31 1361.33,1176.31 "/>
  <path id="_3_2" class="fil5" d="M1423.76 1176.31l22.15 -52.43 0.42 0 22.15 52.43 -8.47 0 -16.11 -40.83 5.35 -3.54 -18.19 44.37 -7.29 0zm13.47 -18.89l17.92 0 2.57 6.39 -22.71 0 2.22 -6.39z"/>
  <path id="_4_3" class="fil5" d="M1491.33 1125.9c2.64,0 5.08,0.36 7.33,1.07 2.25,0.72 4.17,1.75 5.76,3.09 1.6,1.34 2.85,3 3.75,4.97 0.9,1.96 1.35,4.25 1.35,6.84 0,1.99 -0.3,3.96 -0.91,5.9 -0.6,1.94 -1.57,3.7 -2.91,5.28 -1.34,1.57 -3.1,2.83 -5.28,3.78 -2.18,0.95 -4.89,1.43 -8.13,1.43l-7.36 0 0 18.06 -7.43 0 0 -50.42 13.82 0zm0.83 25.28c1.9,0 3.48,-0.3 4.76,-0.91 1.28,-0.6 2.27,-1.35 2.99,-2.26 0.72,-0.9 1.22,-1.87 1.53,-2.92 0.3,-1.04 0.45,-2.05 0.45,-3.02 0,-0.93 -0.15,-1.9 -0.45,-2.92 -0.3,-1.02 -0.81,-1.99 -1.53,-2.92 -0.72,-0.93 -1.68,-1.69 -2.88,-2.29 -1.2,-0.6 -2.69,-0.9 -4.44,-0.9l-7.64 0 0 18.13 7.22 0zm8.54 4.3l13.06 20.83 -8.61 0 -13.27 -20.63 8.82 -0.21z"/>
  <polygon id="_5_4" class="fil5" points="1519.31,1125.97 1552.86,1125.9 1552.79,1132.98 1539.59,1133.05 1539.52,1176.31 1532.16,1176.31 1532.23,1132.98 1519.24,1133.05 "/>
  <path id="_6_5" class="fil5" d="M1622.58 1172.5c-0.74,0.51 -1.84,1.12 -3.3,1.84 -1.46,0.72 -3.17,1.33 -5.14,1.84 -1.97,0.51 -4.13,0.74 -6.49,0.69 -3.94,-0.05 -7.47,-0.74 -10.59,-2.08 -3.13,-1.34 -5.78,-3.19 -7.95,-5.52 -2.18,-2.34 -3.85,-5.02 -5.04,-8.06 -1.18,-3.04 -1.77,-6.26 -1.77,-9.69 0,-3.8 0.6,-7.28 1.81,-10.45 1.2,-3.17 2.93,-5.94 5.17,-8.3 2.24,-2.36 4.89,-4.19 7.92,-5.48 3.03,-1.3 6.35,-1.94 9.96,-1.94 3.1,0 5.91,0.42 8.41,1.25 2.5,0.83 4.61,1.81 6.32,2.92l-2.92 6.94c-1.34,-0.93 -3,-1.81 -4.96,-2.67 -1.97,-0.85 -4.16,-1.28 -6.56,-1.28 -2.36,0 -4.59,0.47 -6.7,1.42 -2.11,0.95 -3.96,2.27 -5.56,3.96 -1.59,1.69 -2.86,3.66 -3.78,5.9 -0.93,2.24 -1.39,4.69 -1.39,7.33 0,2.69 0.42,5.16 1.25,7.43 0.83,2.27 2.02,4.24 3.57,5.91 1.55,1.67 3.42,2.96 5.59,3.89 2.18,0.93 4.63,1.39 7.36,1.39 2.59,0 4.87,-0.39 6.84,-1.18 1.97,-0.78 3.58,-1.69 4.83,-2.7l3.13 6.67z"/>
  <polygon id="_7_6" class="fil5" points="1674.04,1125.97 1674.11,1176.31 1666.81,1176.31 1666.68,1154.58 1641.05,1154.51 1641.12,1176.31 1633.76,1176.31 1633.69,1125.9 1641.05,1125.97 1641.12,1147.5 1666.81,1147.56 1666.68,1125.9 "/>
  <path id="_8_7" class="fil5" d="M1683.13 1176.31l22.15 -52.43 0.42 0 22.15 52.43 -8.47 0 -16.11 -40.83 5.35 -3.54 -18.19 44.37 -7.29 0zm13.47 -18.89l17.92 0 2.57 6.39 -22.71 0 2.22 -6.39z"/>
  <polygon id="_9_8" class="fil5" points="1736.95,1125.97 1744.31,1125.9 1744.24,1169.23 1769.52,1169.16 1769.45,1176.31 1736.88,1176.31 "/>
  <polygon id="_10" class="fil5" points="1780.43,1125.97 1787.79,1125.9 1787.72,1169.23 1813,1169.16 1812.93,1176.31 1780.35,1176.31 "/>
  <polygon id="_11" class="fil5" points="1823.9,1125.97 1856.95,1125.9 1856.88,1132.98 1831.26,1133.05 1831.19,1147.5 1854.11,1147.43 1854.11,1154.51 1831.26,1154.58 1831.19,1169.23 1857.93,1169.16 1857.85,1176.31 1823.83,1176.31 "/>
  <polygon id="_12" class="fil5" points="1913.28,1178.05 1874.45,1139.51 1876.61,1140.2 1876.81,1176.31 1869.31,1176.31 1869.31,1124.3 1869.66,1124.3 1908,1162.91 1906.26,1162.43 1906.12,1125.9 1913.48,1125.9 1913.48,1178.05 "/>
  <path id="_13" class="fil5" d="M1967.51 1171.87c-0.69,0.6 -1.67,1.2 -2.92,1.81 -1.25,0.6 -2.65,1.13 -4.2,1.59 -1.55,0.46 -3.13,0.85 -4.76,1.15 -1.62,0.3 -3.15,0.45 -4.58,0.45 -4.07,0 -7.73,-0.63 -10.97,-1.87 -3.24,-1.25 -6.02,-2.99 -8.33,-5.21 -2.31,-2.22 -4.09,-4.83 -5.31,-7.81 -1.23,-2.99 -1.84,-6.24 -1.84,-9.76 0,-4.3 0.7,-8.12 2.09,-11.46 1.39,-3.33 3.28,-6.15 5.66,-8.44 2.39,-2.29 5.14,-4.03 8.26,-5.21 3.13,-1.18 6.4,-1.77 9.83,-1.77 3.01,0 5.8,0.35 8.37,1.04 2.57,0.69 4.78,1.59 6.63,2.7l-2.43 6.81c-0.93,-0.51 -2.07,-1.01 -3.44,-1.49 -1.37,-0.49 -2.77,-0.87 -4.2,-1.15 -1.44,-0.28 -2.76,-0.42 -3.96,-0.42 -2.96,0 -5.61,0.43 -7.95,1.28 -2.33,0.86 -4.34,2.09 -6,3.72 -1.67,1.62 -2.95,3.59 -3.85,5.9 -0.91,2.31 -1.35,4.93 -1.35,7.85 0,2.64 0.46,5.06 1.39,7.26 0.93,2.2 2.22,4.09 3.89,5.69 1.67,1.6 3.66,2.83 5.97,3.68 2.31,0.86 4.89,1.28 7.71,1.28 1.62,0 3.22,-0.16 4.79,-0.48 1.57,-0.32 2.92,-0.79 4.03,-1.39l0 -9.17 -9.72 0 0 -7.15 17.22 0 0 20.56z"/>
  <polygon id="_14" class="fil5" points="1980.15,1125.97 2013.2,1125.9 2013.13,1132.98 1987.51,1133.05 1987.44,1147.5 2010.36,1147.43 2010.36,1154.51 1987.51,1154.58 1987.44,1169.23 2014.18,1169.16 2014.11,1176.31 1980.08,1176.31 "/>
  <path id="_15" class="fil5" d="M2051.82 1135.55c-1.76,-0.93 -3.66,-1.71 -5.7,-2.36 -2.04,-0.65 -4,-0.97 -5.9,-0.97 -2.59,0 -4.65,0.59 -6.18,1.77 -1.53,1.18 -2.29,2.79 -2.29,4.83 0,1.43 0.51,2.69 1.53,3.75 1.02,1.07 2.34,1.99 3.96,2.78 1.62,0.79 3.33,1.53 5.14,2.22 1.53,0.56 3.04,1.22 4.55,1.98 1.5,0.76 2.87,1.7 4.1,2.81 1.22,1.11 2.2,2.49 2.92,4.13 0.72,1.65 1.07,3.65 1.07,6.01 0,2.69 -0.66,5.11 -1.98,7.29 -1.32,2.18 -3.22,3.9 -5.69,5.17 -2.48,1.27 -5.48,1.91 -8.99,1.91 -2.13,0 -4.2,-0.24 -6.22,-0.73 -2.01,-0.49 -3.91,-1.13 -5.69,-1.94 -1.78,-0.81 -3.39,-1.7 -4.83,-2.67l3.33 -5.76c1.11,0.79 2.39,1.54 3.82,2.26 1.43,0.72 2.93,1.28 4.48,1.7 1.55,0.42 3.02,0.63 4.41,0.63 1.53,0 3.04,-0.27 4.52,-0.8 1.48,-0.53 2.71,-1.37 3.68,-2.5 0.97,-1.13 1.46,-2.63 1.46,-4.48 0,-1.57 -0.43,-2.9 -1.28,-3.99 -0.86,-1.09 -1.99,-2.02 -3.4,-2.81 -1.41,-0.79 -2.93,-1.48 -4.55,-2.08 -1.57,-0.6 -3.17,-1.28 -4.79,-2.02 -1.62,-0.74 -3.13,-1.63 -4.51,-2.67 -1.39,-1.04 -2.51,-2.34 -3.37,-3.89 -0.85,-1.55 -1.28,-3.46 -1.28,-5.73 0,-2.69 0.63,-5.04 1.91,-7.05 1.27,-2.02 3.04,-3.6 5.31,-4.76 2.27,-1.16 4.89,-1.8 7.85,-1.94 3.38,0 6.32,0.41 8.82,1.25 2.5,0.83 4.72,1.83 6.67,2.99l-2.85 5.69z"/>
  <polygon id="_16" class="fil5" points="2084.46,1125.97 2118,1125.9 2117.93,1132.98 2104.74,1133.05 2104.67,1176.31 2097.3,1176.31 2097.37,1132.98 2084.39,1133.05 "/>
  <polygon id="_17" class="fil5" points="2168.83,1125.97 2168.9,1176.31 2161.61,1176.31 2161.47,1154.58 2135.85,1154.51 2135.92,1176.31 2128.56,1176.31 2128.48,1125.9 2135.85,1125.97 2135.92,1147.5 2161.61,1147.56 2161.47,1125.9 "/>
  <polygon id="_18" class="fil5" points="2183.14,1125.97 2216.19,1125.9 2216.12,1132.98 2190.5,1133.05 2190.43,1147.5 2213.35,1147.43 2213.35,1154.51 2190.5,1154.58 2190.43,1169.23 2217.17,1169.16 2217.09,1176.31 2183.07,1176.31 "/>
  <polygon id="_19" class="fil5" points="1486.61,1234.72 1520.15,1234.65 1520.08,1241.73 1506.89,1241.8 1506.81,1285.07 1499.45,1285.07 1499.52,1241.73 1486.54,1241.8 "/>
  <polygon id="_20" class="fil5" points="1530.7,1234.72 1563.76,1234.65 1563.69,1241.73 1538.07,1241.8 1538,1256.25 1560.91,1256.18 1560.91,1263.26 1538.07,1263.33 1538,1277.98 1564.73,1277.91 1564.66,1285.07 1530.63,1285.07 "/>
  <path id="_21" class="fil5" d="M1613.28 1281.25c-0.74,0.51 -1.84,1.12 -3.3,1.84 -1.46,0.72 -3.17,1.33 -5.14,1.84 -1.97,0.51 -4.13,0.74 -6.49,0.69 -3.94,-0.05 -7.47,-0.74 -10.59,-2.08 -3.13,-1.34 -5.78,-3.19 -7.95,-5.52 -2.18,-2.34 -3.85,-5.02 -5.04,-8.06 -1.18,-3.04 -1.77,-6.26 -1.77,-9.69 0,-3.8 0.6,-7.28 1.81,-10.45 1.2,-3.17 2.93,-5.94 5.17,-8.3 2.24,-2.36 4.89,-4.19 7.92,-5.48 3.03,-1.3 6.35,-1.94 9.96,-1.94 3.1,0 5.91,0.42 8.41,1.25 2.5,0.83 4.61,1.81 6.32,2.92l-2.92 6.94c-1.34,-0.93 -3,-1.81 -4.96,-2.67 -1.97,-0.85 -4.16,-1.28 -6.56,-1.28 -2.36,0 -4.59,0.47 -6.7,1.42 -2.11,0.95 -3.96,2.27 -5.56,3.96 -1.59,1.69 -2.86,3.66 -3.78,5.9 -0.93,2.24 -1.39,4.69 -1.39,7.33 0,2.69 0.42,5.16 1.25,7.43 0.83,2.27 2.02,4.24 3.57,5.91 1.55,1.67 3.42,2.96 5.59,3.89 2.18,0.93 4.63,1.39 7.36,1.39 2.59,0 4.87,-0.39 6.84,-1.18 1.97,-0.78 3.58,-1.69 4.83,-2.7l3.13 6.67z"/>
  <polygon id="_22" class="fil5" points="1664.73,1234.72 1664.8,1285.07 1657.51,1285.07 1657.37,1263.33 1631.75,1263.26 1631.82,1285.07 1624.46,1285.07 1624.39,1234.65 1631.75,1234.72 1631.82,1256.25 1657.51,1256.31 1657.37,1234.65 "/>
  <polygon id="_23" class="fil5" points="1722.93,1286.8 1684.11,1248.26 1686.26,1248.96 1686.47,1285.07 1678.97,1285.07 1678.97,1233.05 1679.31,1233.05 1717.65,1271.67 1715.91,1271.18 1715.78,1234.65 1723.14,1234.65 1723.14,1286.8 "/>
  <path id="_24" class="fil5" d="M1734.31 1260c-0.05,-3.52 0.59,-6.83 1.91,-9.93 1.32,-3.1 3.16,-5.86 5.52,-8.26 2.36,-2.41 5.09,-4.28 8.2,-5.63 3.1,-1.34 6.46,-2.01 10.07,-2.01 3.47,-0.05 6.76,0.62 9.86,2.01 3.1,1.39 5.86,3.28 8.26,5.66 2.41,2.38 4.28,5.13 5.63,8.23 1.34,3.1 1.99,6.41 1.94,9.93 0,3.52 -0.66,6.83 -1.98,9.93 -1.32,3.1 -3.17,5.83 -5.56,8.19 -2.39,2.36 -5.13,4.2 -8.23,5.52 -3.1,1.32 -6.41,1.98 -9.93,1.98 -3.61,0 -6.96,-0.65 -10.07,-1.94 -3.1,-1.3 -5.83,-3.11 -8.2,-5.45 -2.36,-2.34 -4.19,-5.06 -5.48,-8.16 -1.3,-3.1 -1.94,-6.46 -1.94,-10.07zm7.57 0c0,2.55 0.46,4.94 1.39,7.19 0.93,2.24 2.24,4.21 3.93,5.9 1.69,1.69 3.63,3.01 5.83,3.96 2.2,0.95 4.57,1.42 7.12,1.42 2.5,0 4.84,-0.47 7.01,-1.42 2.18,-0.95 4.09,-2.27 5.73,-3.96 1.64,-1.69 2.93,-3.65 3.85,-5.87 0.93,-2.22 1.39,-4.63 1.39,-7.22 0,-2.64 -0.47,-5.08 -1.42,-7.33 -0.95,-2.24 -2.24,-4.24 -3.85,-5.97 -1.62,-1.74 -3.53,-3.09 -5.73,-4.06 -2.2,-0.97 -4.57,-1.44 -7.12,-1.39 -2.59,-0.05 -4.99,0.43 -7.19,1.42 -2.2,1 -4.12,2.35 -5.76,4.06 -1.65,1.71 -2.92,3.7 -3.82,5.97 -0.91,2.27 -1.35,4.7 -1.35,7.29z"/>
  <polygon id="_25" class="fil5" points="1796.89,1234.72 1804.25,1234.65 1804.18,1277.98 1829.46,1277.91 1829.39,1285.07 1796.81,1285.07 "/>
  <path id="_26" class="fil5" d="M1836.26 1260c-0.05,-3.52 0.59,-6.83 1.91,-9.93 1.32,-3.1 3.16,-5.86 5.52,-8.26 2.36,-2.41 5.09,-4.28 8.2,-5.63 3.1,-1.34 6.46,-2.01 10.07,-2.01 3.47,-0.05 6.76,0.62 9.86,2.01 3.1,1.39 5.86,3.28 8.26,5.66 2.41,2.38 4.28,5.13 5.63,8.23 1.34,3.1 1.99,6.41 1.94,9.93 0,3.52 -0.66,6.83 -1.98,9.93 -1.32,3.1 -3.17,5.83 -5.56,8.19 -2.39,2.36 -5.13,4.2 -8.23,5.52 -3.1,1.32 -6.41,1.98 -9.93,1.98 -3.61,0 -6.96,-0.65 -10.07,-1.94 -3.1,-1.3 -5.83,-3.11 -8.2,-5.45 -2.36,-2.34 -4.19,-5.06 -5.48,-8.16 -1.3,-3.1 -1.94,-6.46 -1.94,-10.07zm7.57 0c0,2.55 0.46,4.94 1.39,7.19 0.93,2.24 2.24,4.21 3.93,5.9 1.69,1.69 3.63,3.01 5.83,3.96 2.2,0.95 4.57,1.42 7.12,1.42 2.5,0 4.84,-0.47 7.01,-1.42 2.18,-0.95 4.09,-2.27 5.73,-3.96 1.64,-1.69 2.93,-3.65 3.85,-5.87 0.93,-2.22 1.39,-4.63 1.39,-7.22 0,-2.64 -0.47,-5.08 -1.42,-7.33 -0.95,-2.24 -2.24,-4.24 -3.85,-5.97 -1.62,-1.74 -3.53,-3.09 -5.73,-4.06 -2.2,-0.97 -4.57,-1.44 -7.12,-1.39 -2.59,-0.05 -4.99,0.43 -7.19,1.42 -2.2,1 -4.12,2.35 -5.76,4.06 -1.65,1.71 -2.92,3.7 -3.82,5.97 -0.91,2.27 -1.35,4.7 -1.35,7.29z"/>
  <path id="_27" class="fil5" d="M1938.55 1280.62c-0.69,0.6 -1.67,1.2 -2.92,1.81 -1.25,0.6 -2.65,1.13 -4.2,1.59 -1.55,0.46 -3.13,0.85 -4.76,1.15 -1.62,0.3 -3.15,0.45 -4.58,0.45 -4.07,0 -7.73,-0.63 -10.97,-1.87 -3.24,-1.25 -6.02,-2.99 -8.33,-5.21 -2.31,-2.22 -4.09,-4.83 -5.31,-7.81 -1.23,-2.99 -1.84,-6.24 -1.84,-9.76 0,-4.3 0.7,-8.12 2.09,-11.46 1.39,-3.33 3.28,-6.15 5.66,-8.44 2.39,-2.29 5.14,-4.03 8.26,-5.21 3.13,-1.18 6.4,-1.77 9.83,-1.77 3.01,0 5.8,0.35 8.37,1.04 2.57,0.69 4.78,1.59 6.63,2.7l-2.43 6.81c-0.93,-0.51 -2.07,-1.01 -3.44,-1.49 -1.37,-0.49 -2.77,-0.87 -4.2,-1.15 -1.44,-0.28 -2.76,-0.42 -3.96,-0.42 -2.96,0 -5.61,0.43 -7.95,1.28 -2.33,0.86 -4.34,2.09 -6,3.72 -1.67,1.62 -2.95,3.59 -3.85,5.9 -0.91,2.31 -1.35,4.93 -1.35,7.85 0,2.64 0.46,5.06 1.39,7.26 0.93,2.2 2.22,4.09 3.89,5.69 1.67,1.6 3.66,2.83 5.97,3.68 2.31,0.86 4.89,1.28 7.71,1.28 1.62,0 3.22,-0.16 4.79,-0.48 1.57,-0.32 2.92,-0.79 4.03,-1.39l0 -9.17 -9.72 0 0 -7.15 17.22 0 0 20.56z"/>
  <polygon id="_28" class="fil5" points="1962.58,1268.47 1943.9,1234.65 1953.07,1234.65 1967.58,1262.15 1965.36,1262.29 1979.74,1234.65 1988.83,1234.65 1970.01,1268.47 1970.01,1285.07 1962.58,1285.07 "/>
  <path id="_29" class="fil5" d="M1995.29 1278.96c-1.02,2.45 -2.03,4.88 -3.02,7.29 -0.99,2.41 -2,4.84 -3.02,7.29l-5.76 0c0.93,-2.45 1.83,-4.89 2.71,-7.29 0.88,-2.41 1.78,-4.84 2.71,-7.29l6.39 0z"/>
  <polygon class="fil5" points="1240.73,1340.9 1274.28,1340.83 1274.2,1347.91 1261.01,1347.98 1260.94,1391.24 1253.58,1391.24 1253.65,1347.91 1240.66,1347.98 "/>
  <polygon id="_1_9" class="fil5" points="1325.11,1340.9 1325.18,1391.24 1317.89,1391.24 1317.75,1369.51 1292.12,1369.44 1292.19,1391.24 1284.83,1391.24 1284.76,1340.83 1292.12,1340.9 1292.19,1362.43 1317.89,1362.49 1317.75,1340.83 "/>
  <polygon id="_2_10" class="fil5" points="1339.41,1340.9 1372.47,1340.83 1372.4,1347.91 1346.78,1347.98 1346.7,1362.43 1369.62,1362.35 1369.62,1369.44 1346.78,1369.51 1346.7,1384.16 1373.44,1384.09 1373.37,1391.24 1339.34,1391.24 "/>
  <polygon id="_3_11" class="fil5" points="1403.3,1340.9 1436.85,1340.83 1436.78,1347.91 1423.58,1347.98 1423.51,1391.24 1416.15,1391.24 1416.22,1347.91 1403.23,1347.98 "/>
  <polygon id="_4_12" class="fil5" points="1447.4,1340.9 1480.46,1340.83 1480.39,1347.91 1454.76,1347.98 1454.69,1362.43 1477.61,1362.35 1477.61,1369.44 1454.76,1369.51 1454.69,1384.16 1481.43,1384.09 1481.36,1391.24 1447.33,1391.24 "/>
  <path id="_5_13" class="fil5" d="M1529.97 1387.43c-0.74,0.51 -1.84,1.12 -3.3,1.84 -1.46,0.72 -3.17,1.33 -5.14,1.84 -1.97,0.51 -4.13,0.74 -6.49,0.69 -3.94,-0.05 -7.47,-0.74 -10.59,-2.08 -3.13,-1.34 -5.78,-3.19 -7.95,-5.52 -2.18,-2.34 -3.85,-5.02 -5.04,-8.06 -1.18,-3.04 -1.77,-6.26 -1.77,-9.69 0,-3.8 0.6,-7.28 1.81,-10.45 1.2,-3.17 2.93,-5.94 5.17,-8.3 2.24,-2.36 4.89,-4.19 7.92,-5.48 3.03,-1.3 6.35,-1.94 9.96,-1.94 3.1,0 5.91,0.42 8.41,1.25 2.5,0.83 4.61,1.81 6.32,2.92l-2.92 6.94c-1.34,-0.93 -3,-1.81 -4.96,-2.67 -1.97,-0.85 -4.16,-1.28 -6.56,-1.28 -2.36,0 -4.59,0.47 -6.7,1.42 -2.11,0.95 -3.96,2.27 -5.56,3.96 -1.59,1.69 -2.86,3.66 -3.78,5.9 -0.93,2.24 -1.39,4.69 -1.39,7.33 0,2.69 0.42,5.16 1.25,7.43 0.83,2.27 2.02,4.24 3.57,5.91 1.55,1.67 3.42,2.96 5.59,3.89 2.18,0.93 4.63,1.39 7.36,1.39 2.59,0 4.87,-0.39 6.84,-1.18 1.97,-0.78 3.58,-1.69 4.83,-2.7l3.13 6.67z"/>
  <polygon id="_6_14" class="fil5" points="1581.43,1340.9 1581.5,1391.24 1574.21,1391.24 1574.07,1369.51 1548.44,1369.44 1548.52,1391.24 1541.15,1391.24 1541.08,1340.83 1548.44,1340.9 1548.52,1362.43 1574.21,1362.49 1574.07,1340.83 "/>
  <polygon id="_7_15" class="fil5" points="1639.63,1392.98 1600.8,1354.44 1602.96,1355.13 1603.17,1391.24 1595.67,1391.24 1595.67,1339.23 1596.01,1339.23 1634.35,1377.84 1632.61,1377.35 1632.47,1340.83 1639.83,1340.83 1639.83,1392.98 "/>
  <path id="_8_16" class="fil5" d="M1651.01 1366.17c-0.05,-3.52 0.59,-6.83 1.91,-9.93 1.32,-3.1 3.16,-5.86 5.52,-8.26 2.36,-2.41 5.09,-4.28 8.2,-5.63 3.1,-1.34 6.46,-2.01 10.07,-2.01 3.47,-0.05 6.76,0.62 9.86,2.01 3.1,1.39 5.86,3.28 8.26,5.66 2.41,2.38 4.28,5.13 5.63,8.23 1.34,3.1 1.99,6.41 1.94,9.93 0,3.52 -0.66,6.83 -1.98,9.93 -1.32,3.1 -3.17,5.83 -5.56,8.19 -2.39,2.36 -5.13,4.2 -8.23,5.52 -3.1,1.32 -6.41,1.98 -9.93,1.98 -3.61,0 -6.96,-0.65 -10.07,-1.94 -3.1,-1.3 -5.83,-3.11 -8.2,-5.45 -2.36,-2.34 -4.19,-5.06 -5.48,-8.16 -1.3,-3.1 -1.94,-6.46 -1.94,-10.07zm7.57 0c0,2.55 0.46,4.94 1.39,7.19 0.93,2.24 2.24,4.21 3.93,5.9 1.69,1.69 3.63,3.01 5.83,3.96 2.2,0.95 4.57,1.42 7.12,1.42 2.5,0 4.84,-0.47 7.01,-1.42 2.18,-0.95 4.09,-2.27 5.73,-3.96 1.64,-1.69 2.93,-3.65 3.85,-5.87 0.93,-2.22 1.39,-4.63 1.39,-7.22 0,-2.64 -0.47,-5.08 -1.42,-7.33 -0.95,-2.24 -2.24,-4.24 -3.85,-5.97 -1.62,-1.74 -3.53,-3.09 -5.73,-4.06 -2.2,-0.97 -4.57,-1.44 -7.12,-1.39 -2.59,-0.05 -4.99,0.43 -7.19,1.42 -2.2,1 -4.12,2.35 -5.76,4.06 -1.65,1.71 -2.92,3.7 -3.82,5.97 -0.91,2.27 -1.35,4.7 -1.35,7.29z"/>
  <polygon id="_9_17" class="fil5" points="1713.58,1340.9 1720.94,1340.83 1720.87,1384.16 1746.15,1384.09 1746.08,1391.24 1713.51,1391.24 "/>
  <path id="_10_18" class="fil5" d="M1752.96 1366.17c-0.05,-3.52 0.59,-6.83 1.91,-9.93 1.32,-3.1 3.16,-5.86 5.52,-8.26 2.36,-2.41 5.09,-4.28 8.2,-5.63 3.1,-1.34 6.46,-2.01 10.07,-2.01 3.47,-0.05 6.76,0.62 9.86,2.01 3.1,1.39 5.86,3.28 8.26,5.66 2.41,2.38 4.28,5.13 5.63,8.23 1.34,3.1 1.99,6.41 1.94,9.93 0,3.52 -0.66,6.83 -1.98,9.93 -1.32,3.1 -3.17,5.83 -5.56,8.19 -2.39,2.36 -5.13,4.2 -8.23,5.52 -3.1,1.32 -6.41,1.98 -9.93,1.98 -3.61,0 -6.96,-0.65 -10.07,-1.94 -3.1,-1.3 -5.83,-3.11 -8.2,-5.45 -2.36,-2.34 -4.19,-5.06 -5.48,-8.16 -1.3,-3.1 -1.94,-6.46 -1.94,-10.07zm7.57 0c0,2.55 0.46,4.94 1.39,7.19 0.93,2.24 2.24,4.21 3.93,5.9 1.69,1.69 3.63,3.01 5.83,3.96 2.2,0.95 4.57,1.42 7.12,1.42 2.5,0 4.84,-0.47 7.01,-1.42 2.18,-0.95 4.09,-2.27 5.73,-3.96 1.64,-1.69 2.93,-3.65 3.85,-5.87 0.93,-2.22 1.39,-4.63 1.39,-7.22 0,-2.64 -0.47,-5.08 -1.42,-7.33 -0.95,-2.24 -2.24,-4.24 -3.85,-5.97 -1.62,-1.74 -3.53,-3.09 -5.73,-4.06 -2.2,-0.97 -4.57,-1.44 -7.12,-1.39 -2.59,-0.05 -4.99,0.43 -7.19,1.42 -2.2,1 -4.12,2.35 -5.76,4.06 -1.65,1.71 -2.92,3.7 -3.82,5.97 -0.91,2.27 -1.35,4.7 -1.35,7.29z"/>
  <path id="_11_19" class="fil5" d="M1855.25 1386.8c-0.69,0.6 -1.67,1.2 -2.92,1.81 -1.25,0.6 -2.65,1.13 -4.2,1.59 -1.55,0.46 -3.13,0.85 -4.76,1.15 -1.62,0.3 -3.15,0.45 -4.58,0.45 -4.07,0 -7.73,-0.63 -10.97,-1.87 -3.24,-1.25 -6.02,-2.99 -8.33,-5.21 -2.31,-2.22 -4.09,-4.83 -5.31,-7.81 -1.23,-2.99 -1.84,-6.24 -1.84,-9.76 0,-4.3 0.7,-8.12 2.09,-11.46 1.39,-3.33 3.28,-6.15 5.66,-8.44 2.39,-2.29 5.14,-4.03 8.26,-5.21 3.13,-1.18 6.4,-1.77 9.83,-1.77 3.01,0 5.8,0.35 8.37,1.04 2.57,0.69 4.78,1.59 6.63,2.7l-2.43 6.81c-0.93,-0.51 -2.07,-1.01 -3.44,-1.49 -1.37,-0.49 -2.77,-0.87 -4.2,-1.15 -1.44,-0.28 -2.76,-0.42 -3.96,-0.42 -2.96,0 -5.61,0.43 -7.95,1.28 -2.33,0.86 -4.34,2.09 -6,3.72 -1.67,1.62 -2.95,3.59 -3.85,5.9 -0.91,2.31 -1.35,4.93 -1.35,7.85 0,2.64 0.46,5.06 1.39,7.26 0.93,2.2 2.22,4.09 3.89,5.69 1.67,1.6 3.66,2.83 5.97,3.68 2.31,0.86 4.89,1.28 7.71,1.28 1.62,0 3.22,-0.16 4.79,-0.48 1.57,-0.32 2.92,-0.79 4.03,-1.39l0 -9.17 -9.72 0 0 -7.15 17.22 0 0 20.56z"/>
  <polygon id="_12_20" class="fil5" points="1879.28,1374.65 1860.6,1340.83 1869.76,1340.83 1884.28,1368.33 1882.06,1368.46 1896.43,1340.83 1905.53,1340.83 1886.71,1374.65 1886.71,1391.24 1879.28,1391.24 "/>
  <polygon id="_13_21" class="fil5" points="1936.57,1340.9 1943.93,1340.83 1943.86,1391.24 1936.5,1391.24 "/>
  <polygon id="_14_22" class="fil5" points="2002.06,1392.98 1963.24,1354.44 1965.39,1355.13 1965.6,1391.24 1958.1,1391.24 1958.1,1339.23 1958.44,1339.23 1996.78,1377.84 1995.04,1377.35 1994.91,1340.83 2002.27,1340.83 2002.27,1392.98 "/>
  <path id="_15_23" class="fil5" d="M2042.75 1350.48c-1.76,-0.93 -3.66,-1.71 -5.7,-2.36 -2.04,-0.65 -4,-0.97 -5.9,-0.97 -2.59,0 -4.65,0.59 -6.18,1.77 -1.53,1.18 -2.29,2.79 -2.29,4.83 0,1.43 0.51,2.69 1.53,3.75 1.02,1.07 2.34,1.99 3.96,2.78 1.62,0.79 3.33,1.53 5.14,2.22 1.53,0.56 3.04,1.22 4.55,1.98 1.5,0.76 2.87,1.7 4.1,2.81 1.22,1.11 2.2,2.49 2.92,4.13 0.72,1.65 1.07,3.65 1.07,6.01 0,2.69 -0.66,5.11 -1.98,7.29 -1.32,2.18 -3.22,3.9 -5.69,5.17 -2.48,1.27 -5.48,1.91 -8.99,1.91 -2.13,0 -4.2,-0.24 -6.22,-0.73 -2.01,-0.49 -3.91,-1.13 -5.69,-1.94 -1.78,-0.81 -3.39,-1.7 -4.83,-2.67l3.33 -5.76c1.11,0.79 2.39,1.54 3.82,2.26 1.43,0.72 2.93,1.28 4.48,1.7 1.55,0.42 3.02,0.63 4.41,0.63 1.53,0 3.04,-0.27 4.52,-0.8 1.48,-0.53 2.71,-1.37 3.68,-2.5 0.97,-1.13 1.46,-2.63 1.46,-4.48 0,-1.57 -0.43,-2.9 -1.28,-3.99 -0.86,-1.09 -1.99,-2.02 -3.4,-2.81 -1.41,-0.79 -2.93,-1.48 -4.55,-2.08 -1.57,-0.6 -3.17,-1.28 -4.79,-2.02 -1.62,-0.74 -3.13,-1.63 -4.51,-2.67 -1.39,-1.04 -2.51,-2.34 -3.37,-3.89 -0.85,-1.55 -1.28,-3.46 -1.28,-5.73 0,-2.69 0.63,-5.04 1.91,-7.05 1.27,-2.02 3.04,-3.6 5.31,-4.76 2.27,-1.16 4.89,-1.8 7.85,-1.94 3.38,0 6.32,0.41 8.82,1.25 2.5,0.83 4.72,1.83 6.67,2.99l-2.85 5.69z"/>
  <polygon id="_16_24" class="fil5" points="2056.99,1340.9 2064.35,1340.83 2064.28,1391.24 2056.92,1391.24 "/>
  <path id="_17_25" class="fil5" d="M2092.41 1340.83c3.75,0 6.96,0.64 9.62,1.91 2.66,1.28 4.7,3.09 6.11,5.45 1.41,2.36 2.12,5.23 2.12,8.61 0,1.99 -0.3,3.96 -0.9,5.9 -0.6,1.94 -1.56,3.72 -2.88,5.31 -1.32,1.59 -3.07,2.87 -5.24,3.82 -2.18,0.95 -4.81,1.42 -7.92,1.42l-7.36 0 0 17.99 -7.43 0 0 -50.42 13.89 0zm0.9 25.28c1.85,0 3.41,-0.31 4.65,-0.94 1.25,-0.63 2.23,-1.43 2.95,-2.4 0.72,-0.97 1.22,-1.98 1.53,-3.02 0.3,-1.04 0.45,-1.98 0.45,-2.81 0,-0.93 -0.15,-1.91 -0.45,-2.95 -0.3,-1.04 -0.8,-2.02 -1.49,-2.92 -0.7,-0.9 -1.65,-1.65 -2.85,-2.22 -1.2,-0.58 -2.71,-0.87 -4.51,-0.87l-7.64 0 0 18.13 7.36 0z"/>
  <path id="_18_26" class="fil5" d="M2134.21 1340.83c2.64,0 5.08,0.36 7.33,1.07 2.25,0.72 4.17,1.75 5.76,3.09 1.6,1.34 2.85,3 3.75,4.97 0.9,1.96 1.35,4.25 1.35,6.84 0,1.99 -0.3,3.96 -0.91,5.9 -0.6,1.94 -1.57,3.7 -2.91,5.28 -1.34,1.57 -3.1,2.83 -5.28,3.78 -2.18,0.95 -4.89,1.43 -8.13,1.43l-7.36 0 0 18.06 -7.43 0 0 -50.42 13.82 0zm0.83 25.28c1.9,0 3.48,-0.3 4.76,-0.91 1.28,-0.6 2.27,-1.35 2.99,-2.26 0.72,-0.9 1.22,-1.87 1.53,-2.92 0.3,-1.04 0.45,-2.05 0.45,-3.02 0,-0.93 -0.15,-1.9 -0.45,-2.92 -0.3,-1.02 -0.81,-1.99 -1.53,-2.92 -0.72,-0.93 -1.68,-1.69 -2.88,-2.29 -1.2,-0.6 -2.69,-0.9 -4.44,-0.9l-7.64 0 0 18.13 7.22 0zm8.54 4.3l13.06 20.83 -8.61 0 -13.27 -20.63 8.82 -0.21z"/>
  <polygon id="_19_27" class="fil5" points="2166.64,1340.9 2199.7,1340.83 2199.63,1347.91 2174,1347.98 2173.93,1362.43 2196.85,1362.35 2196.85,1369.44 2174,1369.51 2173.93,1384.16 2200.67,1384.09 2200.6,1391.24 2166.57,1391.24 "/>
  <path id="_20_28" class="fil5" d="M2238.31 1350.48c-1.76,-0.93 -3.66,-1.71 -5.7,-2.36 -2.04,-0.65 -4,-0.97 -5.9,-0.97 -2.59,0 -4.65,0.59 -6.18,1.77 -1.53,1.18 -2.29,2.79 -2.29,4.83 0,1.43 0.51,2.69 1.53,3.75 1.02,1.07 2.34,1.99 3.96,2.78 1.62,0.79 3.33,1.53 5.14,2.22 1.53,0.56 3.04,1.22 4.55,1.98 1.5,0.76 2.87,1.7 4.1,2.81 1.22,1.11 2.2,2.49 2.92,4.13 0.72,1.65 1.07,3.65 1.07,6.01 0,2.69 -0.66,5.11 -1.98,7.29 -1.32,2.18 -3.22,3.9 -5.69,5.17 -2.48,1.27 -5.48,1.91 -8.99,1.91 -2.13,0 -4.2,-0.24 -6.22,-0.73 -2.01,-0.49 -3.91,-1.13 -5.69,-1.94 -1.78,-0.81 -3.39,-1.7 -4.83,-2.67l3.33 -5.76c1.11,0.79 2.39,1.54 3.82,2.26 1.43,0.72 2.93,1.28 4.48,1.7 1.55,0.42 3.02,0.63 4.41,0.63 1.53,0 3.04,-0.27 4.52,-0.8 1.48,-0.53 2.71,-1.37 3.68,-2.5 0.97,-1.13 1.46,-2.63 1.46,-4.48 0,-1.57 -0.43,-2.9 -1.28,-3.99 -0.86,-1.09 -1.99,-2.02 -3.4,-2.81 -1.41,-0.79 -2.93,-1.48 -4.55,-2.08 -1.57,-0.6 -3.17,-1.28 -4.79,-2.02 -1.62,-0.74 -3.13,-1.63 -4.51,-2.67 -1.39,-1.04 -2.51,-2.34 -3.37,-3.89 -0.85,-1.55 -1.28,-3.46 -1.28,-5.73 0,-2.69 0.63,-5.04 1.91,-7.05 1.27,-2.02 3.04,-3.6 5.31,-4.76 2.27,-1.16 4.89,-1.8 7.85,-1.94 3.38,0 6.32,0.41 8.82,1.25 2.5,0.83 4.72,1.83 6.67,2.99l-2.85 5.69z"/>
  <polygon id="_21_29" class="fil5" points="1596.29,1449.65 1629.83,1449.58 1629.76,1456.66 1616.57,1456.73 1616.5,1500 1609.14,1500 1609.21,1456.66 1596.22,1456.73 "/>
  <polygon id="_22_30" class="fil5" points="1680.67,1449.65 1680.74,1500 1673.44,1500 1673.31,1478.26 1647.68,1478.19 1647.75,1500 1640.39,1500 1640.32,1449.58 1647.68,1449.65 1647.75,1471.18 1673.44,1471.24 1673.31,1449.58 "/>
  <polygon id="_23_31" class="fil5" points="1694.97,1449.65 1728.03,1449.58 1727.96,1456.66 1702.33,1456.73 1702.26,1471.18 1725.18,1471.11 1725.18,1478.19 1702.33,1478.26 1702.26,1492.91 1729,1492.84 1728.93,1500 1694.9,1500 "/>
  <path id="_24_32" class="fil5" d="M1757.33 1500l22.15 -52.43 0.42 0 22.15 52.43 -8.47 0 -16.11 -40.83 5.35 -3.54 -18.19 44.37 -7.29 0zm13.47 -18.89l17.92 0 2.57 6.39 -22.71 0 2.22 -6.39z"/>
  <path id="_25_33" class="fil5" d="M1824.9 1449.58c2.64,0 5.08,0.36 7.33,1.07 2.25,0.72 4.17,1.75 5.76,3.09 1.6,1.34 2.85,3 3.75,4.97 0.9,1.96 1.35,4.25 1.35,6.84 0,1.99 -0.3,3.96 -0.91,5.9 -0.6,1.94 -1.57,3.7 -2.91,5.28 -1.34,1.57 -3.1,2.83 -5.28,3.78 -2.18,0.95 -4.89,1.43 -8.13,1.43l-7.36 0 0 18.06 -7.43 0 0 -50.42 13.82 0zm0.83 25.28c1.9,0 3.48,-0.3 4.76,-0.91 1.28,-0.6 2.27,-1.35 2.99,-2.26 0.72,-0.9 1.22,-1.87 1.53,-2.92 0.3,-1.04 0.45,-2.05 0.45,-3.02 0,-0.93 -0.15,-1.9 -0.45,-2.92 -0.3,-1.02 -0.81,-1.99 -1.53,-2.92 -0.72,-0.93 -1.68,-1.69 -2.88,-2.29 -1.2,-0.6 -2.69,-0.9 -4.44,-0.9l-7.64 0 0 18.13 7.22 0zm8.54 4.3l13.06 20.83 -8.61 0 -13.27 -20.63 8.82 -0.21z"/>
  <polygon id="_26_34" class="fil5" points="1852.89,1449.65 1886.43,1449.58 1886.36,1456.66 1873.17,1456.73 1873.1,1500 1865.74,1500 1865.81,1456.66 1852.82,1456.73 "/>
 </g>
</svg>
