<svg width="23" height="23" viewBox="0 0 23 23" fill="none" xmlns="http://www.w3.org/2000/svg">
<path d="M12.6835 1.03406V2.50181C14.1352 2.50181 15.4953 2.86875 16.7636 3.60263C17.9709 4.32122 18.9336 5.28443 19.6518 6.49227C20.3853 7.76127 20.7521 9.122 20.7521 10.5745H22.2191C22.2191 8.84679 21.7836 7.24144 20.9125 5.75839C20.072 4.32122 18.9336 3.18218 17.4971 2.34128C16.0148 1.4698 14.4103 1.03406 12.6835 1.03406ZM5.09632 3.23569C4.68373 3.23569 4.32461 3.36565 4.01899 3.62556L1.65802 6.0336L1.72678 5.98773C1.34475 6.3088 1.09261 6.70632 0.970358 7.18028C0.863388 7.65424 0.893951 8.11292 1.06205 8.5563C1.48992 9.74885 2.06297 10.972 2.7812 12.2257C3.78977 13.9534 4.98935 15.5052 6.37995 16.8812C8.61103 19.1287 11.3846 20.9023 14.7006 22.2018H14.7236C15.1667 22.3547 15.6099 22.3853 16.053 22.2936C16.5115 22.2018 16.9164 22.0031 17.2679 21.6973L19.583 19.381C19.8887 19.0752 20.0415 18.7006 20.0415 18.2572C20.0415 17.7986 19.8887 17.4163 19.583 17.1106L16.5803 14.0833C16.2746 13.7775 15.8926 13.6246 15.4342 13.6246C14.9757 13.6246 14.5937 13.7775 14.2881 14.0833L12.844 15.5511C11.6826 15.0007 10.674 14.3203 9.81826 13.51C8.9625 12.6844 8.28248 11.6829 7.7782 10.5057L9.24521 9.03791C9.56612 8.70155 9.72657 8.30403 9.72657 7.84536C9.72657 7.37139 9.54319 6.98917 9.17644 6.69867L9.24521 6.76747L6.17366 3.62556C5.86803 3.36565 5.50892 3.23569 5.09632 3.23569ZM12.6835 3.96957V5.43732C13.6157 5.43732 14.4714 5.66666 15.2508 6.12533C16.0454 6.58401 16.6719 7.21086 17.1304 8.00589C17.5888 8.78564 17.818 9.64183 17.818 10.5745H19.2851C19.2851 9.38191 18.9871 8.27345 18.3911 7.24908C17.7951 6.25529 17.0005 5.46026 16.0072 4.86398C14.9834 4.2677 13.8755 3.96957 12.6835 3.96957ZM5.09632 4.70344C5.14217 4.70344 5.19565 4.72638 5.25678 4.77225L8.25956 7.84536C8.27484 7.90651 8.25956 7.96003 8.21372 8.00589L6.03612 10.1617L6.19658 10.6203L6.49456 11.2625C6.73907 11.7823 7.02177 12.2868 7.34268 12.7761C7.78584 13.4641 8.27484 14.0527 8.80969 14.542C9.52791 15.2453 10.3913 15.8874 11.3999 16.4684C11.9042 16.7589 12.332 16.973 12.6835 17.1106L13.142 17.317L15.3654 15.0924C15.3959 15.0618 15.4189 15.0465 15.4342 15.0465C15.4494 15.0465 15.4724 15.0618 15.5029 15.0924L18.5974 18.1884C18.628 18.219 18.6432 18.242 18.6432 18.2572C18.6432 18.2572 18.628 18.2725 18.5974 18.3031L16.3052 20.5735C15.969 20.864 15.6022 20.9405 15.2049 20.8029C12.0875 19.595 9.48971 17.9438 7.41145 15.8492C6.12781 14.5649 5.00463 13.1048 4.04191 11.4689C3.35425 10.2916 2.8194 9.15258 2.43737 8.05176V8.02883C2.37624 7.89122 2.3686 7.73069 2.41445 7.54722C2.46029 7.34846 2.54434 7.19557 2.66659 7.08855L4.93587 4.77225C4.98171 4.72638 5.0352 4.70344 5.09632 4.70344ZM12.6835 6.90508V8.37283C13.2948 8.37283 13.8143 8.58688 14.2422 9.01497C14.6701 9.44307 14.884 9.9629 14.884 10.5745H16.351C16.351 9.91703 16.1829 9.30547 15.8467 8.73977C15.5258 8.17407 15.0827 7.73069 14.5173 7.40962C13.9519 7.07326 13.3406 6.90508 12.6835 6.90508Z" fill="#F5F5F5"/>
</svg>
