<svg width="182" height="182" viewBox="0 0 182 182" fill="none" xmlns="http://www.w3.org/2000/svg">
<g clip-path="url(#clip0_280_349)">
<path d="M0 0H182V182H0V0Z" fill="white"/>
<path d="M154.551 36.8155C155.087 36.7629 155.649 36.7759 156.175 36.8955C156.256 36.9146 156.338 36.9357 156.419 36.9588C156.499 36.9819 156.58 37.007 156.659 37.034C156.739 37.0611 156.817 37.0901 156.895 37.1211C156.973 37.152 157.051 37.1849 157.127 37.2197C157.204 37.2544 157.279 37.291 157.354 37.3295C157.429 37.3681 157.502 37.4084 157.575 37.4506C157.648 37.4928 157.719 37.5367 157.79 37.5823C157.86 37.628 157.93 37.6754 157.998 37.7245C158.066 37.7736 158.133 37.8244 158.198 37.8768C158.264 37.9293 158.328 37.9833 158.391 38.0389C158.454 38.0945 158.516 38.1516 158.576 38.2102C158.636 38.2689 158.695 38.3289 158.752 38.3904C158.809 38.4521 158.865 38.515 158.919 38.5792C158.973 38.6435 159.025 38.7091 159.076 38.7759C159.127 38.8429 159.176 38.911 159.224 38.9803C159.271 39.0497 159.317 39.1201 159.361 39.1917C160.043 40.3029 160.242 41.7439 159.914 43.0074C159.497 44.6049 158.39 45.5975 157.023 46.3952C156.98 48.713 157.019 51.0383 157.021 53.3569C158.686 53.3885 164.802 53.0947 165.888 53.6169C166.435 53.8805 166.839 54.4036 167.022 54.9768C167.532 56.5726 165.172 59.3803 164.429 60.8734L164.378 60.9774C165.09 61.6416 165.876 62.2173 166.588 62.8793C166.834 63.1107 167.074 63.3487 167.308 63.5933C167.541 63.8379 167.767 64.0886 167.987 64.3455C168.207 64.6025 168.419 64.8652 168.624 65.1337C168.83 65.4022 169.028 65.6762 169.218 65.9556C169.408 66.2348 169.591 66.5192 169.765 66.8085C169.94 67.0979 170.107 67.3917 170.266 67.6901C170.425 67.9885 170.575 68.2911 170.717 68.5978C170.859 68.9043 170.993 69.2146 171.118 69.5285C173.693 75.8216 172.798 82.6261 170.227 88.7428C167.61 94.9669 162.142 102.142 155.811 104.733C155.566 104.797 155.297 104.881 155.041 104.855C152.196 104.558 147.682 100.161 145.911 97.9272C141.025 91.7641 137.02 82.3723 137.979 74.4002C138.639 68.9081 141.523 64.4381 145.819 61.056C145.168 59.1322 143.682 57.5777 143.202 55.5976C143.345 55.0541 143.499 54.4727 143.899 54.0556C144.185 53.7566 144.522 53.5522 144.928 53.4657C145.992 53.2392 147.245 53.3611 148.333 53.3684L153.589 53.3947C153.599 51.06 153.585 48.7255 153.547 46.3911C153.239 46.2344 152.923 46.0789 152.636 45.8841C151.463 45.088 150.61 43.8428 150.382 42.4342C150.368 42.3539 150.356 42.2733 150.347 42.1923C150.337 42.1113 150.33 42.0301 150.324 41.9488C150.318 41.8676 150.315 41.7862 150.313 41.7046C150.312 41.6231 150.312 41.5416 150.315 41.4601C150.317 41.3787 150.322 41.2973 150.329 41.2161C150.335 41.1348 150.344 41.0537 150.354 40.9729C150.365 40.8921 150.378 40.8116 150.392 40.7314C150.407 40.6513 150.423 40.5715 150.442 40.4921C150.461 40.4128 150.481 40.3339 150.504 40.2556C150.526 40.1771 150.55 40.0993 150.577 40.0222C150.603 39.9451 150.631 39.8687 150.662 39.7929C150.692 39.7172 150.724 39.6423 150.758 39.5681C150.791 39.494 150.827 39.4208 150.865 39.3484C150.902 39.276 150.942 39.2046 150.983 39.1343C151.024 39.0639 151.067 38.9945 151.111 38.9261C151.155 38.8579 151.202 38.7908 151.25 38.7248C152.065 37.5992 153.217 37.0455 154.551 36.8155Z" fill="black"/>
<path d="M147.193 72.0857C147.577 72.0514 147.996 72.0325 148.364 72.1635C148.444 72.1917 148.521 72.2239 148.597 72.26C148.673 72.2962 148.747 72.3362 148.819 72.38C148.891 72.4237 148.961 72.4711 149.028 72.522C149.095 72.573 149.159 72.6272 149.22 72.6848C149.282 72.7423 149.34 72.8028 149.395 72.8663C149.451 72.9299 149.502 72.9962 149.551 73.065C149.599 73.1338 149.644 73.205 149.685 73.2785C149.726 73.352 149.763 73.4275 149.796 73.5047C149.827 73.5753 149.855 73.6473 149.878 73.7207C149.902 73.7939 149.922 73.8682 149.939 73.9435C149.955 74.0189 149.967 74.0949 149.976 74.1714C149.985 74.2479 149.99 74.3248 149.991 74.4019C149.992 74.4789 149.989 74.5558 149.983 74.6326C149.976 74.7094 149.966 74.7857 149.951 74.8615C149.937 74.9373 149.919 75.0121 149.897 75.086C149.876 75.16 149.85 75.2326 149.821 75.3041C149.529 76.0332 148.97 76.4498 148.266 76.7411C147.82 76.7905 147.344 76.7944 146.915 76.644C146.321 76.4356 145.838 76.0097 145.58 75.4331C145.548 75.3617 145.52 75.2888 145.496 75.2145C145.471 75.1403 145.45 75.0651 145.433 74.9888C145.416 74.9125 145.402 74.8356 145.393 74.7581C145.383 74.6805 145.377 74.6026 145.375 74.5244C145.373 74.4462 145.375 74.3681 145.38 74.2901C145.386 74.2122 145.395 74.1346 145.408 74.0575C145.421 73.9805 145.438 73.9042 145.459 73.8287C145.48 73.7534 145.504 73.6791 145.532 73.606C145.846 72.7993 146.436 72.4138 147.193 72.0857Z" fill="white"/>
<path d="M162.752 72.0009C163.275 71.984 163.779 72.0307 164.242 72.2975C164.795 72.6155 165.167 73.1348 165.315 73.7517C165.336 73.8336 165.352 73.9162 165.364 73.9997C165.376 74.0831 165.383 74.1669 165.387 74.2512C165.39 74.3354 165.389 74.4196 165.384 74.5037C165.379 74.5878 165.37 74.6715 165.357 74.7547C165.343 74.8379 165.325 74.9201 165.303 75.0015C165.282 75.083 165.256 75.1631 165.226 75.242C165.196 75.3208 165.162 75.3979 165.124 75.4733C165.087 75.5486 165.045 75.6219 165 75.6931C164.585 76.3346 164.032 76.6203 163.303 76.7757C162.932 76.7805 162.55 76.7407 162.206 76.594C161.578 76.3257 161.076 75.8175 160.849 75.1702C160.821 75.0913 160.798 75.0112 160.779 74.9299C160.76 74.8485 160.745 74.7663 160.734 74.6834C160.724 74.6006 160.718 74.5174 160.716 74.4339C160.714 74.3503 160.717 74.2669 160.724 74.1836C160.73 74.1003 160.742 74.0176 160.757 73.9355C160.773 73.8534 160.793 73.7723 160.817 73.6924C160.841 73.6123 160.869 73.5337 160.901 73.4567C160.934 73.3795 160.97 73.3044 161.01 73.2311C161.393 72.5284 162.005 72.2022 162.752 72.0009Z" fill="white"/>
<path d="M154.858 77.4274C156.155 77.3124 157.558 77.7441 158.636 78.4584C159.9 79.2959 160.721 80.6207 161.014 82.1C161.315 83.6191 160.87 85.1386 160.005 86.3935C159.023 87.8179 157.68 88.5304 156.009 88.8505C155.843 88.8658 155.677 88.874 155.51 88.8751C155.343 88.876 155.177 88.8699 155.01 88.8566C154.844 88.8433 154.679 88.823 154.514 88.7956C154.35 88.7681 154.187 88.7336 154.025 88.6922C153.864 88.6508 153.704 88.6026 153.547 88.5475C153.39 88.4923 153.235 88.4305 153.083 88.3621C152.931 88.2938 152.782 88.219 152.636 88.1378C152.49 88.0568 152.348 87.9696 152.21 87.8762C150.955 87.0151 150.157 85.7528 149.887 84.2566C149.614 82.7477 149.996 81.1253 150.88 79.8753C151.862 78.4851 153.192 77.6997 154.858 77.4274Z" fill="white"/>
<path d="M154.887 81.1479C155.291 81.0955 155.73 81.0608 156.121 81.2007C156.622 81.3797 157.066 81.756 157.292 82.241C157.524 82.7411 157.558 83.3035 157.367 83.823C157.118 84.4986 156.617 84.8844 155.981 85.1708C155.676 85.2202 155.352 85.2475 155.047 85.1813C154.507 85.0638 154.039 84.7417 153.755 84.2656C153.718 84.2023 153.684 84.1372 153.654 84.0704C153.624 84.0036 153.597 83.9353 153.574 83.8657C153.55 83.7961 153.531 83.7255 153.515 83.6538C153.499 83.5821 153.487 83.5098 153.479 83.437C153.47 83.364 153.466 83.2908 153.465 83.2175C153.465 83.144 153.468 83.0708 153.475 82.9978C153.482 82.9247 153.493 82.8522 153.507 82.7802C153.522 82.7083 153.54 82.6373 153.562 82.5673C153.788 81.8512 154.241 81.4791 154.887 81.1479Z" fill="black"/>
<path d="M88.4753 8.47949C89.2407 8.39492 90.0586 8.40822 90.8296 8.39942C99.5638 8.29985 108.453 11.9993 114.672 18.0928C119.504 22.8267 123.082 29.4379 124.297 36.0944C124.738 38.508 124.855 40.9137 124.88 43.3628C128.026 43.6388 130.765 44.6137 133.07 46.8432C133.215 46.9822 133.356 47.1247 133.493 47.2707C133.63 47.4166 133.764 47.5659 133.894 47.7186C134.024 47.8713 134.149 48.0272 134.271 48.1862C134.393 48.3451 134.511 48.507 134.625 48.6719C134.739 48.8367 134.849 49.0043 134.955 49.1747C135.06 49.3451 135.161 49.5181 135.258 49.6935C135.355 49.8689 135.447 50.0466 135.535 50.2267C135.623 50.4068 135.707 50.589 135.786 50.7733C135.864 50.9575 135.939 51.1436 136.008 51.3315C136.078 51.5195 136.143 51.709 136.203 51.9003C136.263 52.0915 136.318 52.2841 136.368 52.4781C136.419 52.6719 136.464 52.867 136.505 53.0634C136.545 53.2596 136.581 53.4567 136.612 53.6547C136.643 53.8527 136.669 54.0514 136.689 54.2508C136.71 54.4501 136.726 54.6498 136.737 54.85C136.748 55.0501 136.753 55.2503 136.754 55.4507C136.798 58.7027 135.752 61.7315 133.461 64.0699C131.164 66.4137 128.122 67.7902 124.817 67.8233C124.661 72.7055 125.315 76.3602 122.979 80.9239C122.774 81.3235 122.555 81.7152 122.321 82.0989C122.088 82.4826 121.841 82.8572 121.58 83.2227C121.319 83.5882 121.045 83.9437 120.758 84.2891C120.472 84.6346 120.172 84.9692 119.861 85.2928C115.304 90.0194 110.275 90.8855 104.035 91.0011C103.882 93.763 104.023 96.5696 104.068 99.3343C108.352 99.4132 112.65 99.362 116.935 99.3522C119.467 99.3464 122.105 99.1736 124.608 99.5705C124.88 99.6126 125.152 99.6604 125.422 99.7141C125.693 99.7679 125.962 99.8274 126.23 99.8927C126.498 99.9581 126.764 100.029 127.029 100.106C127.294 100.183 127.557 100.265 127.818 100.354C128.08 100.442 128.339 100.536 128.596 100.635C128.853 100.734 129.108 100.839 129.361 100.95C129.614 101.06 129.864 101.176 130.112 101.297C130.359 101.418 130.604 101.545 130.847 101.676C131.089 101.808 131.328 101.945 131.565 102.087C131.801 102.229 132.034 102.376 132.264 102.528C132.494 102.68 132.721 102.837 132.944 102.999C133.167 103.161 133.387 103.328 133.603 103.499C133.819 103.671 134.031 103.847 134.24 104.027C134.448 104.208 134.653 104.393 134.853 104.582C135.054 104.771 135.25 104.965 135.442 105.163C135.634 105.361 135.822 105.562 136.005 105.768C136.786 106.64 137.456 107.602 138.14 108.549C141.393 108.732 144.729 108.529 147.991 108.517C150.069 108.51 151.882 108.996 153.383 110.508C154.779 111.914 155.158 113.531 155.157 115.457C157.894 115.631 159.932 115.53 162.04 117.639C163.022 118.622 163.864 120.036 164.124 121.41C164.346 122.58 164.244 123.923 164.249 125.116L164.242 132.01L164.229 154.474C165.799 154.423 171.017 154.144 172.175 154.835C172.498 155.028 172.737 155.288 172.827 155.66C173.065 156.638 172.914 157.798 172.913 158.801C172.923 160.165 172.925 161.53 172.92 162.895L172.909 168.629C172.907 169.629 172.954 170.651 172.883 171.647C172.848 172.144 172.762 172.647 172.495 173.073C172.141 173.333 171.745 173.446 171.311 173.5C169.959 173.666 168.308 173.531 166.928 173.54C163.512 173.57 160.095 173.566 156.679 173.53C153.183 173.494 149.55 173.717 146.08 173.545C145.678 173.525 145.021 173.507 144.714 173.234C144.271 172.84 144.115 172.168 144.06 171.605C143.967 170.669 144.038 169.666 144.042 168.724L144.053 163.383L144.055 158.567C144.053 157.683 143.983 156.733 144.089 155.858C144.099 155.775 144.115 155.694 144.137 155.613C144.159 155.533 144.187 155.455 144.221 155.379C144.255 155.303 144.294 155.23 144.339 155.16C144.384 155.09 144.434 155.023 144.489 154.961C144.692 154.727 144.919 154.594 145.222 154.527C146.613 154.219 149.963 154.465 151.625 154.403C151.594 145.272 151.764 136.136 151.593 127.006C150.563 128.411 149.36 129.517 147.744 130.206C145.259 131.265 142.778 130.808 140.36 129.821C140.4 132.037 140.324 134.166 139.786 136.33C138.623 141.005 136.102 145.037 132.169 147.887C131.009 148.727 129.713 149.418 128.487 150.16L128.496 162.643C128.496 164.622 128.669 166.917 128.425 168.857C128.335 169.577 128.067 170.294 127.694 170.914C126.898 172.235 125.657 173.109 124.157 173.44C122.866 173.724 121.328 173.574 120.005 173.569L113.877 173.556L90.5644 173.563L68.0432 173.594L61.7541 173.596C60.5252 173.596 59.277 173.638 58.0519 173.548C57.0903 173.477 56.2975 173.018 55.4995 172.521C55.3134 172.377 55.1417 172.228 54.9755 172.061C54.3088 171.392 53.8165 170.597 53.6139 169.665C53.2925 168.186 53.4866 165.192 53.4884 163.574L53.5069 150.303C51.5514 149.268 49.6948 148.221 48.0531 146.71C43.6103 142.623 41.7244 136.609 41.4722 130.726C39.248 130.476 36.8095 130.99 34.6575 130.326C32.642 129.705 31.2544 128.216 30.2978 126.395L30.3177 154.431C31.8475 154.451 35.5899 154.179 36.8184 154.61C37.1319 154.72 37.3715 154.94 37.6167 155.156C37.6877 155.389 37.7584 155.622 37.7982 155.863C37.9523 156.797 37.8741 157.877 37.8725 158.826L37.8567 164.138L37.8611 169.224C37.8617 170.131 37.9196 171.085 37.8165 171.986C37.7804 172.302 37.674 172.616 37.4859 172.874C37.2309 173.224 36.8603 173.432 36.4339 173.492C35.1839 173.668 33.7731 173.541 32.5001 173.542L24.3366 173.539C21.3855 173.538 18.4346 173.554 15.4837 173.588C13.9344 173.597 12.344 173.687 10.8016 173.563C10.2995 173.523 9.93271 173.408 9.53675 173.08C9.13752 172.75 9.1152 172.2 9.07957 171.711C9.00101 170.634 9.05067 169.53 9.05314 168.448L9.08467 162.123C9.09083 160.416 8.9034 157.829 9.11961 156.217C9.18486 155.731 9.32845 155.227 9.66998 154.859C9.85102 154.664 10.0656 154.574 10.3236 154.524C11.2043 154.352 12.166 154.462 13.0611 154.464L17.8703 154.454L17.8913 132.012L17.8837 125.576C17.8812 124.177 17.8085 122.728 17.9839 121.339C18.1899 119.709 19.2071 117.957 20.5129 116.965C22.3885 115.539 24.6176 115.243 26.8905 115.56C26.9234 114.463 26.9671 113.517 27.378 112.487C28.1636 110.517 29.5517 109.578 31.4392 108.776L31.3838 95.8342C30.8047 95.6499 30.2427 95.4531 29.7015 95.1737C27.8174 94.2006 26.4119 92.6079 25.7781 90.5748C25.7388 90.4496 25.7027 90.3234 25.6696 90.1963C25.6367 90.0693 25.6069 89.9415 25.5802 89.8129C25.5536 89.6843 25.5302 89.5552 25.51 89.4254C25.4899 89.2957 25.473 89.1655 25.4592 89.035C25.4455 88.9045 25.435 88.7737 25.4278 88.6425C25.4205 88.5115 25.4166 88.3803 25.416 88.249C25.4153 88.1177 25.4179 87.9865 25.4237 87.8553C25.4296 87.7242 25.4387 87.5932 25.451 87.4625C25.4635 87.3318 25.4791 87.2016 25.498 87.0717C25.5168 86.9417 25.5389 86.8123 25.5642 86.6835C25.5895 86.5547 25.618 86.4267 25.6497 86.2993C25.6814 86.1718 25.7162 86.0452 25.7542 85.9196C25.7922 85.7939 25.8332 85.6693 25.8774 85.5457C25.9216 85.4221 25.9688 85.2996 26.0191 85.1783C26.0694 85.0571 26.1227 84.9371 26.1789 84.8184C26.2351 84.6998 26.2943 84.5827 26.3564 84.467C27.2751 82.7704 28.8454 81.4231 30.7031 80.8743C32.8476 80.2407 34.9546 80.3351 36.935 81.4207C38.7791 82.4316 40.1118 84.0069 40.6894 86.0375C41.2397 87.9725 41.0223 90.2268 40.0258 91.9845C38.9075 93.9571 37.1287 95.218 34.961 95.8169C34.9178 100.069 34.9124 104.321 34.9449 108.573C37.9169 108.612 41.0084 108.747 43.9718 108.523C44.7064 107.574 45.4422 106.629 46.2763 105.763C49.4869 102.431 54.1494 100.01 58.7799 99.562C61.3771 99.3106 64.1066 99.4911 66.7173 99.5069C70.4261 99.5338 74.1348 99.5183 77.8433 99.4605L77.833 91.0407C76.3691 90.9179 74.8874 91.0142 73.4175 90.8846C73.1587 90.8609 72.9006 90.8317 72.6431 90.7968C72.3857 90.762 72.1291 90.7216 71.8734 90.6758C71.6175 90.6298 71.3629 90.5783 71.1095 90.5213C70.8559 90.4644 70.6038 90.4019 70.353 90.334C70.1022 90.2661 69.853 90.1928 69.6053 90.1142C69.3577 90.0355 69.1119 89.9515 68.8679 89.8621C68.6239 89.7728 68.382 89.6782 68.142 89.5785C67.9021 89.4786 67.6645 89.3736 67.4291 89.2635C67.1938 89.1534 66.961 89.0383 66.7306 88.918C66.5002 88.7979 66.2725 88.6727 66.0476 88.5426C65.8227 88.4127 65.6007 88.2778 65.3815 88.1381C65.1624 87.9984 64.9464 87.854 64.7336 87.705C64.5208 87.556 64.3113 87.4025 64.105 87.2443C63.8988 87.0862 63.6961 86.9238 63.4969 86.7569C63.2978 86.59 63.1023 86.4188 62.9106 86.2435C62.7189 86.0682 62.531 85.8888 62.347 85.7053C61.3346 84.6888 60.4828 83.5389 59.7441 82.3107C56.8922 77.5699 57.2828 72.8413 57.3013 67.5675C54.3079 67.4074 51.6051 66.6694 49.3395 64.6187C46.8666 62.3804 45.4761 59.4522 45.3245 56.1202C45.3142 55.9201 45.3089 55.7199 45.3085 55.5197C45.3082 55.3193 45.3129 55.119 45.3226 54.9189C45.3323 54.7188 45.347 54.5191 45.3667 54.3198C45.3864 54.1204 45.4112 53.9216 45.4408 53.7235C45.4704 53.5252 45.505 53.328 45.5446 53.1316C45.5841 52.9352 45.6286 52.7399 45.6779 52.5458C45.7272 52.3516 45.7813 52.1588 45.8403 51.9673C45.8992 51.7758 45.9629 51.5859 46.0314 51.3977C46.0999 51.2094 46.173 51.0229 46.2509 50.8383C46.3286 50.6537 46.411 50.4711 46.4979 50.2905C46.5849 50.1101 46.6763 49.9319 46.7722 49.7561C46.868 49.5801 46.9683 49.4067 47.0729 49.2359C47.1774 49.0649 47.2862 48.8967 47.3992 48.7313C47.5121 48.5659 47.6292 48.4034 47.7504 48.2438C47.8715 48.0842 47.9965 47.9277 48.1254 47.7744C48.2544 47.621 48.3871 47.471 48.5236 47.3243C50.7468 44.9121 54.0299 43.5377 57.2798 43.4124C57.3866 41.1074 57.3022 38.8486 57.6132 36.5476C58.4086 30.662 61.437 24.6018 65.3024 20.1339C65.4847 19.9253 65.6696 19.719 65.8569 19.5148C66.0442 19.3107 66.234 19.1088 66.4262 18.9093C66.6184 18.7098 66.8129 18.5126 67.0099 18.3178C67.2069 18.1229 67.4062 17.9304 67.6078 17.7404C67.8094 17.5504 68.0133 17.3628 68.2193 17.1777C68.4255 16.9926 68.6339 16.81 68.8444 16.63C69.055 16.4499 69.2677 16.2724 69.4825 16.0975C69.6973 15.9225 69.9143 15.7502 70.1334 15.5805C70.3523 15.4108 70.5733 15.2438 70.7963 15.0794C71.0194 14.9151 71.2444 14.7535 71.4713 14.5945C71.6982 14.4356 71.927 14.2795 72.1577 14.1261C72.3884 13.9727 72.621 13.8221 72.8554 13.6743C73.0897 13.5265 73.3258 13.3816 73.5636 13.2395C73.8015 13.0975 74.0411 12.9583 74.2822 12.822C74.5234 12.6857 74.7663 12.5524 75.0107 12.4219C75.2552 12.2915 75.5012 12.1641 75.7487 12.0396C75.9962 11.9151 76.2452 11.7936 76.4955 11.6751C76.746 11.5567 76.9979 11.4413 77.2511 11.3289C77.5043 11.2165 77.7589 11.1072 78.0148 11.0009C78.2706 10.8947 78.5277 10.7916 78.7862 10.6916C79.0445 10.5915 79.304 10.4946 79.5648 10.4009C79.8255 10.3071 80.0873 10.2165 80.3502 10.1291C80.613 10.0417 80.8769 9.95743 81.1418 9.87637C81.4068 9.79531 81.6727 9.71747 81.9395 9.64283C82.2064 9.56819 82.474 9.49679 82.7425 9.42863C83.011 9.36045 83.2803 9.29553 83.5505 9.23386C83.8205 9.1722 84.0913 9.11381 84.3629 9.05869C84.6344 9.00357 84.9065 8.95173 85.1793 8.90317C85.452 8.85463 85.7254 8.80938 85.9993 8.76742C86.2731 8.72547 86.5474 8.68684 86.8222 8.65152C87.097 8.6162 87.3722 8.5842 87.6478 8.55552C87.9233 8.52685 88.1991 8.50151 88.4753 8.47949Z" fill="black"/>
<path d="M128.447 104.652C128.559 104.692 128.669 104.736 128.778 104.784C132.282 106.292 134.669 109.433 136.043 112.886C133.529 112.99 130.975 112.892 128.458 112.882C128.447 110.14 128.401 107.393 128.447 104.652Z" fill="white"/>
<path d="M53.4121 104.864L53.4615 104.913C53.6795 105.717 53.4803 111.945 53.4744 113.263C50.9176 113.317 48.3513 113.277 45.7935 113.281L45.7519 113.251C45.6714 113.045 45.6723 113.137 45.722 112.93C45.8621 112.347 46.278 111.695 46.5839 111.18C48.2922 108.302 50.6026 106.563 53.4121 104.864Z" fill="white"/>
<path d="M132.771 136.366C133.849 136.349 134.927 136.342 136.005 136.346C135.181 139.737 133.043 142.516 130.388 144.696C129.784 145.187 129.144 145.544 128.445 145.879C128.383 142.725 128.471 139.555 128.476 136.4L132.771 136.366Z" fill="white"/>
<path d="M45.9292 136.269C48.4406 136.358 50.9706 136.305 53.4843 136.312C53.5636 139.598 53.5268 142.9 53.5168 146.187C52.6232 145.696 51.7368 145.16 50.9365 144.526C48.916 142.928 47.6109 140.828 46.6254 138.476C46.3359 137.785 46.0142 137.017 45.9292 136.269Z" fill="white"/>
<path d="M45.4724 116.902L53.5079 116.911C53.5109 117.81 53.6986 122.401 53.3876 122.904C50.6685 122.924 47.9493 122.927 45.2301 122.914C45.2138 121.66 45.009 117.946 45.2911 116.974L45.4724 116.902Z" fill="white"/>
<path d="M45.3095 126.583C48.0322 126.47 50.791 126.556 53.5172 126.586L53.5148 132.678L45.2962 132.673C45.2806 130.642 45.2851 128.612 45.3095 126.583Z" fill="white"/>
<path d="M128.451 116.593C131.158 116.543 133.874 116.584 136.583 116.599C136.666 118.651 136.652 120.715 136.635 122.768C133.917 122.79 131.198 122.79 128.48 122.769L128.451 116.593Z" fill="white"/>
<path d="M128.51 126.409C131.201 126.31 133.942 126.439 136.638 126.448C136.622 128.535 136.659 130.627 136.668 132.714L128.502 132.703C128.487 130.605 128.489 128.507 128.51 126.409Z" fill="white"/>
<path d="M33.3387 83.9263C34.1557 83.965 34.9573 84.2824 35.6215 84.755C35.6795 84.7957 35.7365 84.8378 35.7924 84.8812C35.8484 84.9247 35.9032 84.9696 35.9569 85.016C36.0105 85.0622 36.063 85.1097 36.1141 85.1587C36.1655 85.2075 36.2155 85.2576 36.2643 85.309C36.3131 85.3603 36.3606 85.4129 36.4067 85.4667C36.4529 85.5205 36.4977 85.5753 36.5411 85.6313C36.5846 85.6873 36.6266 85.7444 36.6671 85.8024C36.7077 85.8605 36.7468 85.9196 36.7844 85.9796C36.8219 86.0397 36.858 86.1007 36.8926 86.1625C36.9272 86.2244 36.9602 86.2871 36.9916 86.3506C37.023 86.414 37.0528 86.4782 37.081 86.5432C37.1092 86.6082 37.1358 86.6738 37.1608 86.7402C37.1857 86.8065 37.2089 86.8734 37.2305 86.9408C37.2521 87.0084 37.272 87.0764 37.2902 87.1449C37.3083 87.2133 37.3248 87.2822 37.3396 87.3516C37.3543 87.4209 37.3673 87.4905 37.3785 87.5604C37.5604 88.6892 37.314 89.824 36.6109 90.7335C35.7055 91.9044 34.5428 92.3644 33.1222 92.5199C32.0918 92.4699 31.1072 92.1747 30.3241 91.4789C29.4854 90.7337 28.9845 89.6155 28.925 88.5004C28.8644 87.3629 29.2261 86.183 29.9957 85.3314C30.8939 84.3375 32.0524 84.0087 33.3387 83.9263Z" fill="white"/>
<path d="M82.1753 91.0463C88.244 90.8458 94.3639 90.97 100.437 91.0045L100.449 95.694L99.3979 95.7063C93.3582 95.7531 87.3185 95.761 81.2788 95.7301C81.2052 94.1904 81.2807 92.6203 81.2953 91.0785L82.1753 91.0463Z" fill="white"/>
<path d="M92.5551 99.3081L101.039 99.2739C101.045 100.749 101.394 103.133 100.29 104.245C99.9589 104.578 99.5871 104.806 99.1289 104.912C97.9448 105.185 96.5678 105.044 95.3551 105.046L89.8224 105.062C88.0506 105.063 86.2775 105.108 84.5058 105.094C83.5573 105.086 82.5845 104.911 81.9067 104.188C80.933 103.149 81.2892 100.716 81.3072 99.345C85.0565 99.3546 88.8058 99.3423 92.5551 99.3081Z" fill="white"/>
<path d="M56.4894 47.1265L57.3388 47.0457C57.4298 52.6784 57.4054 58.3547 57.3072 63.9876C55.1169 63.9681 53.3968 63.4322 51.7018 62.0407C51.6135 61.9587 51.5269 61.875 51.4421 61.7894C51.3573 61.7037 51.2743 61.6164 51.1931 61.5274C51.1119 61.4384 51.0326 61.3478 50.9551 61.2555C50.8777 61.1632 50.8023 61.0693 50.7287 60.9738C50.6551 60.8784 50.5835 60.7815 50.514 60.683C50.4444 60.5847 50.377 60.4849 50.3115 60.3837C50.2461 60.2825 50.1829 60.18 50.1217 60.0762C50.0606 59.9723 50.0016 59.8673 49.9449 59.7611C49.8881 59.6548 49.8336 59.5474 49.7812 59.4389C49.7288 59.3303 49.6787 59.2208 49.6308 59.1102C49.5831 58.9996 49.5376 58.888 49.4943 58.7756C49.4512 58.6631 49.4104 58.5498 49.3719 58.4356C49.3334 58.3215 49.2972 58.2065 49.2634 58.0908C49.2297 57.9751 49.1983 57.8588 49.1694 57.7419C49.1405 57.6249 49.114 57.5074 49.09 57.3892C49.0659 57.2712 49.0444 57.1527 49.0253 57.0338C48.6664 54.8069 49.1163 52.4872 50.4564 50.6538C51.9044 48.673 54.098 47.5085 56.4894 47.1265Z" fill="white"/>
<path d="M124.817 46.9197C126.91 46.9031 129.064 47.8129 130.594 49.2314C132.287 50.8012 133.206 53.1796 133.277 55.4635C133.355 57.9975 132.423 59.9733 130.704 61.7852C128.857 63.4354 127.266 64.1675 124.815 64.3639C124.733 58.5674 124.61 52.7111 124.817 46.9197Z" fill="white"/>
<path d="M155.202 119.093C155.642 119.085 156.082 119.081 156.523 119.083C157.692 119.094 158.819 119.32 159.652 120.21C160.265 120.865 160.438 121.511 160.543 122.371C160.691 123.59 160.604 124.906 160.605 126.135L160.595 133.365C160.589 140.389 160.703 147.42 160.583 154.443C158.798 154.437 157.013 154.421 155.228 154.396C155.159 149.117 155.133 143.838 155.15 138.559L155.202 119.093Z" fill="white"/>
<path d="M24.4508 119.1C25.2467 119.037 26.0444 119.1 26.8366 119.18C26.9165 130.924 26.9261 142.668 26.8653 154.413C25.9287 154.471 24.9771 154.444 24.0383 154.45L21.4837 154.452C21.3659 147.466 21.4375 140.462 21.4413 133.474L21.4315 126.449C21.4288 125.095 21.3636 123.708 21.4724 122.36C21.5237 121.725 21.6471 121.178 21.9969 120.632C22.5722 119.735 23.4358 119.3 24.4508 119.1Z" fill="white"/>
<path d="M91.0749 16.4775C93.5185 16.4624 95.6608 17.1978 97.4713 18.8702C97.5896 18.9785 97.705 19.0897 97.8177 19.2038C97.9304 19.3178 98.0401 19.4345 98.1469 19.5541C98.2538 19.6737 98.3575 19.7958 98.4581 19.9206C98.5588 20.0454 98.6563 20.1726 98.7507 20.3024C98.845 20.432 98.936 20.5639 99.0238 20.698C99.1115 20.8322 99.1958 20.9686 99.2767 21.107C99.3576 21.2455 99.4349 21.3859 99.5089 21.5282C99.5827 21.6705 99.6529 21.8145 99.7195 21.9603C99.7862 22.1061 99.8492 22.2535 99.9084 22.4025C99.9677 22.5515 100.023 22.7019 100.075 22.8536C100.127 23.0053 100.174 23.1583 100.219 23.3125C100.263 23.4666 100.303 23.6218 100.339 23.7779C100.375 23.9341 100.408 24.0911 100.436 24.2489C100.465 24.4067 100.489 24.565 100.51 24.724C100.53 24.883 100.547 25.0425 100.559 25.2023C100.572 25.3622 100.58 25.5222 100.585 25.6825C100.589 25.8405 100.59 25.9984 100.587 26.1564C100.583 26.3143 100.576 26.4721 100.565 26.6297C100.554 26.7873 100.539 26.9445 100.52 27.1014C100.501 27.2583 100.478 27.4145 100.451 27.5701C100.424 27.7258 100.393 27.8807 100.359 28.0349C100.324 28.189 100.286 28.3422 100.243 28.4945C100.201 28.6467 100.155 28.7978 100.105 28.9477C100.055 29.0976 100.001 29.2461 99.9438 29.3933C99.8864 29.5406 99.8255 29.6862 99.7609 29.8303C99.6962 29.9745 99.628 30.1169 99.5561 30.2576C99.4843 30.3984 99.409 30.5372 99.3302 30.6742C99.2515 30.8112 99.1693 30.9461 99.0837 31.0789C98.9982 31.2117 98.9094 31.3423 98.8173 31.4706C98.7252 31.5991 98.63 31.7251 98.5315 31.8487C98.433 31.9723 98.3316 32.0933 98.2272 32.2118C98.1227 32.3303 98.0153 32.4461 97.905 32.5593C97.798 32.6712 97.6883 32.7805 97.5758 32.887C97.4634 32.9935 97.3484 33.0973 97.2309 33.1982C97.1134 33.299 96.9935 33.397 96.8711 33.492C96.7488 33.587 96.6243 33.679 96.4974 33.7678C96.3706 33.8567 96.2416 33.9424 96.1106 34.025C95.9795 34.1075 95.8465 34.1868 95.7116 34.2628C95.5766 34.3388 95.4399 34.4114 95.3014 34.4807C95.1629 34.5501 95.0227 34.6159 94.8809 34.6784C94.7391 34.7408 94.5959 34.7997 94.4513 34.855C94.3067 34.9104 94.1608 34.9622 94.0135 35.0104C93.8663 35.0586 93.7181 35.1032 93.5686 35.144C93.4193 35.1849 93.269 35.2221 93.1177 35.2557C92.9665 35.2893 92.8146 35.3192 92.662 35.3452C92.5093 35.3713 92.356 35.3936 92.2022 35.4121C92.0485 35.4305 91.8945 35.4453 91.7399 35.4563C91.5854 35.4673 91.4307 35.4745 91.2759 35.4778C88.9856 35.4602 86.7003 34.7935 84.927 33.3038C84.8069 33.202 84.6894 33.0973 84.5744 32.9897C84.4594 32.8821 84.3471 32.7718 84.2376 32.6586C84.1281 32.5454 84.0215 32.4296 83.9177 32.3111C83.814 32.1928 83.7133 32.0718 83.6155 31.9484C83.5177 31.8249 83.423 31.6991 83.3315 31.5711C83.2399 31.443 83.1516 31.3127 83.0665 31.1802C82.9815 31.0476 82.8997 30.9131 82.8213 30.7766C82.7429 30.6401 82.668 30.5017 82.5964 30.3614C82.5248 30.2211 82.4568 30.0792 82.3922 29.9355C82.3277 29.7919 82.2668 29.6468 82.2095 29.5001C82.1521 29.3534 82.0985 29.2054 82.0485 29.0561C81.9985 28.9068 81.9522 28.7564 81.9097 28.6048C81.8671 28.4532 81.8283 28.3006 81.7932 28.147C81.7583 27.9936 81.7271 27.8393 81.6998 27.6842C81.6725 27.5291 81.649 27.3734 81.6294 27.2173C81.6097 27.061 81.5939 26.9043 81.5821 26.7473C81.3964 24.2383 82.1745 21.665 83.8397 19.7615C85.7188 17.6131 88.2912 16.67 91.0749 16.4775Z" fill="white"/>
<path d="M90.9457 20.6523C92.0892 20.6719 93.097 20.8614 94.0559 21.5268C95.2344 22.3447 96.1028 23.6967 96.3548 25.1096C96.6042 26.5067 96.21 28.0196 95.3812 29.1635C94.4154 30.4967 93.1176 31.1271 91.5153 31.3706C90.0673 31.4097 88.7237 31.0686 87.5915 30.1327C87.5272 30.0786 87.4641 30.0231 87.4024 29.9661C87.3407 29.909 87.2804 29.8505 87.2216 29.7905C87.1627 29.7305 87.1054 29.669 87.0496 29.6062C86.9937 29.5435 86.9393 29.4794 86.8866 29.4139C86.8339 29.3485 86.7827 29.2819 86.7332 29.214C86.6837 29.1461 86.6358 29.0771 86.5896 29.0069C86.5435 28.9366 86.4991 28.8653 86.4563 28.7929C86.4137 28.7205 86.3728 28.6471 86.3337 28.5727C86.2944 28.4984 86.2571 28.4232 86.2217 28.347C86.1863 28.2708 86.1527 28.1938 86.1209 28.1159C86.0892 28.0381 86.0593 27.9595 86.0313 27.8803C86.0034 27.801 85.9774 27.7211 85.9535 27.6407C85.9294 27.5601 85.9073 27.479 85.8872 27.3975C85.8671 27.3159 85.8489 27.2338 85.8328 27.1514C85.8167 27.0689 85.8026 26.9861 85.7905 26.9029C85.7784 26.8197 85.7684 26.7363 85.7603 26.6526C85.6163 25.2242 86.0321 23.6904 86.9596 22.5813C87.9985 21.3391 89.3719 20.7915 90.9457 20.6523Z" fill="black"/>
<path d="M64.8359 122.995L117.231 122.994L117.229 150.583L117.246 158.745C117.252 160.392 117.335 162.091 117.193 163.732C111.732 163.922 106.211 163.768 100.744 163.77C88.759 163.806 76.774 163.781 64.7891 163.696C64.7977 150.135 64.6157 136.553 64.8359 122.995Z" fill="white"/>
<path d="M100.464 131.648C102.079 131.61 103.694 131.594 105.31 131.6C105.489 135.256 105.322 138.98 105.322 142.643C105.321 146.39 105.479 150.379 105.317 154.081C105.312 154.211 105.283 154.286 105.214 154.394C103.637 154.438 102.046 154.378 100.468 154.362L100.464 131.648Z" fill="black"/>
<path d="M85.5996 131.564C86.8124 131.529 88.0363 131.555 89.249 131.598C90.457 134.087 91.4243 137.768 92.3179 140.439C93.9152 145.09 95.5411 149.731 97.1958 154.362L92.3028 154.364C91.7698 153.128 91.3333 151.786 91.005 150.481C89.7136 150.402 88.4001 150.424 87.1055 150.4C85.2676 150.358 83.4072 150.343 81.5707 150.424C81.0258 151.711 80.6552 153.096 80.24 154.431C78.7044 154.485 77.1584 154.447 75.6216 154.443C77.1202 149.199 78.9196 144.042 80.6536 138.872C81.4216 136.582 82.1094 133.734 83.1651 131.611C83.9768 131.605 84.7883 131.589 85.5996 131.564Z" fill="black"/>
<path d="M86.1464 135.942C86.6078 136.404 89.2105 144.843 89.5077 146.027L86.3956 146.086L82.9326 146.1C83.263 144.813 83.7561 143.572 84.1481 142.303C84.8061 140.175 85.3811 138.038 86.1464 135.942Z" fill="white"/>
<path d="M66.5594 44.035C69.3221 43.966 72.0983 44.0261 74.8623 44.0342L89.5253 44.0563L109.376 44.0605C113.343 44.0604 117.317 44.0076 121.283 44.0865C121.333 51.2031 121.347 58.3198 121.326 65.4366L121.31 70.4098C121.317 72.7059 121.499 75.1539 120.835 77.3794C119.791 80.8813 116.873 83.9599 113.702 85.6572C112.008 86.523 110.091 87.1548 108.202 87.3882C106.555 87.5917 104.889 87.5286 103.234 87.522L96.6715 87.5114C89.5362 87.5185 82.3923 87.6086 75.2579 87.5352C71.4562 87.4961 67.6749 86.1618 64.9915 83.4085C63.1636 81.5333 61.8994 79.3203 61.3111 76.7602C60.892 74.9361 60.9816 73.0436 60.9837 71.1852L60.9951 65.3301C60.9579 58.247 60.9702 51.1641 61.0319 44.0815L66.5594 44.035Z" fill="white"/>
<path d="M100.23 74.8386C101.105 75.6919 101.96 76.5648 102.794 77.4575C102.168 77.9746 101.451 78.3723 100.748 78.7724C100.253 79.0372 99.7482 79.282 99.2338 79.5066C98.7195 79.7312 98.197 79.935 97.6664 80.118C97.1357 80.301 96.5986 80.4626 96.0551 80.6029C95.5117 80.7431 94.9635 80.8614 94.4105 80.958C88.8479 81.9617 84.1522 80.7591 79.5596 77.5953C80.3123 76.6266 81.1235 75.7447 81.9999 74.8873C83.7754 76.5127 86.625 77.3251 88.9581 77.6346C92.756 78.1383 97.164 77.1959 100.23 74.8386Z" fill="black"/>
<path d="M106.47 49.1784C108.488 48.9674 110.939 49.7925 112.513 51.0407C114.414 52.5477 115.577 54.7148 115.843 57.1208C115.861 57.2693 115.874 57.4181 115.883 57.5673C115.893 57.7163 115.899 57.8656 115.901 58.015C115.903 58.1645 115.901 58.3139 115.896 58.4632C115.89 58.6125 115.881 58.7616 115.867 58.9106C115.854 59.0594 115.838 59.2078 115.817 59.3558C115.796 59.5038 115.772 59.6512 115.744 59.798C115.716 59.9448 115.684 60.0908 115.648 60.2359C115.613 60.3811 115.574 60.5253 115.531 60.6686C115.488 60.8117 115.442 60.9537 115.392 61.0946C115.342 61.2353 115.288 61.3748 115.231 61.513C115.174 61.6511 115.114 61.7877 115.05 61.9226C114.986 62.0577 114.918 62.1911 114.848 62.3227C114.777 62.4544 114.703 62.5842 114.626 62.7121C114.548 62.84 114.468 62.9658 114.384 63.0896C114.3 63.2135 114.214 63.3351 114.124 63.4545C114.034 63.574 113.941 63.691 113.845 63.8057C112.203 65.807 110.142 66.7364 107.594 66.9904C105.29 67.0552 103.174 66.5731 101.349 65.0986C99.5118 63.6136 98.2889 61.522 98.0423 59.1601C97.7932 56.7732 98.4863 54.2923 100.017 52.4325C101.692 50.3975 103.895 49.4418 106.47 49.1784Z" fill="black"/>
<path d="M106.912 55.5573C107.355 55.5489 107.773 55.6197 108.17 55.8251C108.246 55.8645 108.319 55.9076 108.391 55.9544C108.462 56.0012 108.531 56.0515 108.597 56.1054C108.663 56.1592 108.727 56.2163 108.787 56.2766C108.848 56.3369 108.905 56.4001 108.959 56.4662C109.013 56.5323 109.063 56.601 109.11 56.6722C109.157 56.7434 109.2 56.8169 109.24 56.8926C109.279 56.9683 109.315 57.0458 109.346 57.1251C109.378 57.2044 109.406 57.285 109.429 57.3672C109.452 57.4473 109.471 57.5284 109.486 57.6105C109.501 57.6926 109.511 57.7753 109.518 57.8586C109.524 57.9418 109.526 58.0251 109.524 58.1085C109.521 58.1919 109.514 58.275 109.503 58.3577C109.492 58.4404 109.477 58.5223 109.457 58.6033C109.438 58.6845 109.414 58.7644 109.386 58.8431C109.358 58.9216 109.326 58.9986 109.291 59.0739C109.255 59.1493 109.215 59.2226 109.171 59.2938C108.788 59.9155 108.218 60.221 107.527 60.3895C106.91 60.3725 106.427 60.3542 105.88 60.0254C105.808 59.9823 105.738 59.9358 105.67 59.8856C105.602 59.8355 105.537 59.782 105.475 59.7252C105.413 59.6684 105.354 59.6086 105.298 59.5456C105.242 59.4827 105.189 59.4171 105.14 59.3489C105.09 59.2806 105.045 59.21 105.003 59.137C104.961 59.064 104.922 58.9891 104.888 58.9122C104.853 58.8354 104.823 58.757 104.797 58.6769C104.77 58.5969 104.748 58.5158 104.73 58.4336C104.596 57.8262 104.69 57.1763 105.034 56.6532C105.484 55.9687 106.145 55.721 106.912 55.5573Z" fill="white"/>
<path d="M74.1315 49.0886C74.2718 49.0806 74.4122 49.0756 74.5526 49.0735C74.693 49.0715 74.8334 49.0725 74.9738 49.0764C75.1142 49.0803 75.2545 49.0873 75.3947 49.0974C75.5347 49.1073 75.6745 49.1202 75.8141 49.1361C75.9537 49.1521 76.0929 49.171 76.2316 49.1928C76.3704 49.2147 76.5086 49.2396 76.6463 49.2674C76.784 49.2953 76.921 49.326 77.0574 49.3597C77.1938 49.3933 77.3294 49.4299 77.4642 49.4694C77.5989 49.5088 77.7328 49.5511 77.8659 49.5963C77.9988 49.6415 78.1308 49.6896 78.2617 49.7404C78.3926 49.7912 78.5224 49.8448 78.6511 49.9012C78.7798 49.9576 78.9072 50.0168 79.0332 50.0786C79.1594 50.1404 79.2842 50.2048 79.4076 50.272C79.5309 50.3392 79.6528 50.409 79.7732 50.4814C79.8935 50.5538 80.0123 50.6287 80.1295 50.7062C80.2467 50.7837 80.3622 50.8636 80.4759 50.946C82.4287 52.3709 83.6198 54.5755 83.9636 56.9504C83.9849 57.0917 84.0026 57.2335 84.0167 57.3758C84.0309 57.518 84.0415 57.6605 84.0484 57.8033C84.0554 57.9461 84.0587 58.089 84.0585 58.232C84.0583 58.3749 84.0544 58.5177 84.0469 58.6605C84.0395 58.8033 84.0284 58.9458 84.0137 59.088C83.9991 59.2301 83.9809 59.3719 83.9591 59.5133C83.9373 59.6545 83.912 59.7951 83.8831 59.935C83.8542 60.0751 83.8218 60.2143 83.7859 60.3527C83.7498 60.4911 83.7104 60.6285 83.6677 60.7649C83.6248 60.9013 83.5784 61.0365 83.5287 61.1705C83.479 61.3045 83.426 61.4372 83.3696 61.5686C83.3132 61.6999 83.2535 61.8297 83.1906 61.9582C83.1277 62.0865 83.0616 62.2132 82.9923 62.3382C82.923 62.4632 82.8505 62.5864 82.7749 62.7077C82.6993 62.8291 82.6207 62.9485 82.5392 63.0658C82.4577 63.1832 82.3732 63.2985 82.2858 63.4117C80.6746 65.5184 78.3408 66.7119 75.7414 67.0636C75.7304 67.0652 75.7196 67.0679 75.7084 67.0688C73.4117 67.2403 71.2343 66.7058 69.3949 65.2852C67.5202 63.8372 66.1992 61.6584 65.8973 59.2947C65.5953 56.9324 66.235 54.4285 67.7132 52.5559C69.3204 50.5196 71.5787 49.3782 74.1315 49.0886Z" fill="black"/>
<path d="M74.5562 55.5494C75.0727 55.529 75.5024 55.5542 75.9551 55.8279C76.5575 56.1923 76.9362 56.8096 77.0715 57.4928C77.2055 58.1706 77.0974 58.8956 76.6838 59.4597C76.2413 60.0632 75.6557 60.2972 74.9376 60.4092C74.4581 60.3973 74.0452 60.3107 73.6153 60.088C73.5461 60.053 73.4789 60.0145 73.4137 59.9727C73.3484 59.9309 73.2855 59.8858 73.2248 59.8374C73.1642 59.7892 73.1062 59.738 73.0508 59.6839C72.9953 59.6296 72.9428 59.5727 72.8931 59.5132C72.8435 59.4536 72.797 59.3917 72.7536 59.3275C72.7102 59.2633 72.6703 59.197 72.6336 59.1286C72.5971 59.0603 72.5641 58.9902 72.5346 58.9185C72.5051 58.8469 72.4794 58.7739 72.4573 58.6996C72.267 58.0656 72.3752 57.3588 72.7081 56.7914C73.1464 56.0444 73.7605 55.7654 74.5562 55.5494Z" fill="white"/>
</g>
<defs>
<clipPath id="clip0_280_349">
<rect width="182" height="182" rx="35" fill="white"/>
</clipPath>
</defs>
</svg>
