<svg width="52" height="52" viewBox="0 0 52 52" fill="none" xmlns="http://www.w3.org/2000/svg">
<g clip-path="url(#clip0_225_416)">
<path d="M0 0H52V52H0V0Z" fill="white"/>
<path d="M37.1297 2.22001C38.4619 2.20461 39.8428 2.52842 41.0163 3.16571C41.0766 3.19835 41.1364 3.23172 41.1958 3.26583C41.2552 3.29994 41.3141 3.33478 41.3727 3.37035C41.4312 3.40592 41.4893 3.4422 41.547 3.47919C41.6046 3.51619 41.6618 3.5539 41.7185 3.5923C41.7753 3.63071 41.8315 3.66981 41.8873 3.7096C41.943 3.7494 41.9983 3.78987 42.053 3.83103C42.1078 3.87218 42.1621 3.91401 42.2158 3.9565C42.2695 3.99899 42.3227 4.04214 42.3753 4.08594C42.428 4.12974 42.4801 4.17419 42.5317 4.21928C42.5833 4.26437 42.6343 4.31008 42.6847 4.35642C42.7352 4.40277 42.785 4.44973 42.8343 4.49731C42.8836 4.54488 42.9323 4.59305 42.9804 4.64183C43.0285 4.6906 43.076 4.73996 43.1229 4.7899C43.1697 4.83985 43.216 4.89036 43.2617 4.94145C43.3073 4.99253 43.3523 5.04418 43.3967 5.09638C43.441 5.14855 43.4847 5.20128 43.5278 5.25457C43.5709 5.30782 43.6133 5.36161 43.655 5.41595C43.6967 5.47025 43.7378 5.52508 43.7782 5.58043C43.8186 5.63575 43.8583 5.69156 43.8973 5.74786C43.9363 5.80416 43.9746 5.86095 44.0122 5.91823C44.0498 5.97548 44.0867 6.03318 44.1229 6.09134C44.1591 6.1495 44.1946 6.20809 44.2293 6.2671C44.2641 6.32614 44.2981 6.3856 44.3314 6.44549C44.3647 6.50534 44.3972 6.5656 44.429 6.62627C44.4608 6.68697 44.4918 6.74804 44.5221 6.80949C44.5524 6.8709 44.5819 6.9327 44.6107 6.99489C44.6395 7.05705 44.6674 7.11956 44.6947 7.18243C44.7219 7.24529 44.7483 7.30848 44.774 7.37199C44.7997 7.43547 44.8246 7.49929 44.8487 7.56344C44.8728 7.62756 44.896 7.69197 44.9186 7.75666C44.9411 7.82136 44.9628 7.88632 44.9837 7.95156C45.0046 8.0168 45.0247 8.08227 45.044 8.14798C45.6286 10.1701 45.3594 12.2739 44.3527 14.1107C44.572 14.518 44.8403 14.9019 45.0658 15.307C45.2314 15.5999 45.3902 15.8965 45.542 16.1968C45.6938 16.4971 45.8385 16.8008 45.976 17.1079C46.1137 17.415 46.244 17.7252 46.3671 18.0383C46.4902 18.3515 46.606 18.6674 46.7143 18.986C48.1382 23.2329 48.2763 27.9659 46.807 32.2248C46.4142 33.3631 45.8911 34.4063 45.3555 35.4805C45.695 35.7247 46.0177 35.9894 46.3236 36.2746C46.7108 36.0998 47.7042 35.6114 48.0693 35.5725C48.1486 35.5641 48.1904 35.5748 48.2521 35.6257C48.485 35.8177 49.692 37.6757 49.8469 37.9898C49.9024 38.1023 49.9371 38.2021 49.9465 38.3272C49.8158 38.5987 48.6179 39.6381 48.3233 39.9117C48.5115 40.8006 48.5222 41.6126 48.3711 42.507C48.7653 42.8752 49.4387 43.4571 49.7444 43.8588C49.7994 43.931 49.874 44.0383 49.8559 44.133C49.838 44.2271 49.7881 44.326 49.7412 44.4089C49.6223 44.6194 48.3424 46.6288 48.2133 46.7066C48.1397 46.7511 48.045 46.7594 47.9616 46.7491C47.7551 46.7237 47.544 46.6401 47.3453 46.5793C46.9636 46.4625 46.5828 46.3397 46.1973 46.2356C45.8874 46.4238 45.6083 46.6669 45.3004 46.8611C44.8192 47.1648 44.3007 47.3701 43.7743 47.5791C43.7015 48.1925 43.6738 48.8315 43.5651 49.438C43.5431 49.5612 43.513 49.7153 43.4039 49.7907C43.0924 49.8714 40.7075 49.866 40.32 49.8227C40.1942 49.8087 40.0879 49.7851 39.9754 49.727C39.833 49.5288 39.6931 47.9036 39.6245 47.5279C38.6268 47.2151 37.9937 46.7783 37.1363 46.2367C36.7498 46.3414 35.4626 46.8645 35.1522 46.7922C34.9419 46.7432 34.7147 46.2122 34.6147 46.0291C34.3976 46.1027 34.1796 46.1735 33.9606 46.2414C33.7417 46.3094 33.5219 46.3746 33.3013 46.4369C33.0807 46.4993 32.8593 46.5588 32.6372 46.6155C32.4151 46.6722 32.1923 46.726 31.9688 46.777C31.7453 46.828 31.5212 46.8761 31.2964 46.9213C31.0717 46.9666 30.8464 47.009 30.6206 47.0485C30.3948 47.088 30.1685 47.1246 29.9418 47.1582C29.715 47.192 29.4879 47.2227 29.2603 47.2506C29.0328 47.2785 28.8049 47.3035 28.5768 47.3256C28.3486 47.3476 28.1201 47.3667 27.8915 47.3829C27.6628 47.3992 27.434 47.4124 27.2049 47.4228C26.976 47.4332 26.7468 47.4406 26.5176 47.4451C26.2884 47.4496 26.0592 47.4511 25.83 47.4498C25.6007 47.4484 25.3715 47.4441 25.1424 47.4369C24.9133 47.4296 24.6843 47.4195 24.4554 47.4064C24.2266 47.3933 23.9979 47.3773 23.7694 47.3583C23.0505 47.2989 22.3368 47.1929 21.6231 47.0904C21.6209 47.9126 21.4823 48.5703 20.8764 49.1715C20.5581 49.4873 20.1634 49.6967 19.7291 49.8045C19.1572 49.9464 18.4998 49.8912 17.9137 49.8907L15.7803 49.891L12.6562 49.8928C11.9928 49.8938 11.0953 49.9656 10.468 49.8148C10.4091 49.8007 10.3507 49.7846 10.2929 49.7665C10.235 49.7483 10.1779 49.7281 10.1215 49.7059C10.0651 49.6838 10.0096 49.6596 9.95486 49.6336C9.90015 49.6075 9.84643 49.5796 9.79368 49.5497C9.74094 49.5199 9.68929 49.4883 9.63875 49.4548C9.5882 49.4213 9.53891 49.3862 9.49087 49.3493C9.4428 49.3123 9.39608 49.2738 9.35072 49.2336C9.30535 49.1934 9.26146 49.1517 9.21904 49.1084C8.42823 48.3109 8.45224 47.456 8.45245 46.4108L8.45265 44.8629L5.99971 44.8678C5.42822 44.8688 4.79657 44.927 4.2393 44.7927C4.18462 44.7793 4.13046 44.7641 4.07682 44.747C4.02317 44.7299 3.97016 44.711 3.91779 44.6903C3.86542 44.6697 3.81381 44.6473 3.76296 44.6231C3.7121 44.5989 3.66212 44.5731 3.61301 44.5455C3.56391 44.518 3.51578 44.4888 3.46865 44.458C3.42151 44.4273 3.37547 44.3949 3.33052 44.361C3.28557 44.3271 3.24181 44.2917 3.19925 44.2549C3.1567 44.218 3.11543 44.1798 3.07545 44.1401C2.74916 43.8121 2.49926 43.383 2.39951 42.9296C2.29955 42.4754 2.32581 41.9951 2.32525 41.5325L2.32445 39.984L2.3219 34.1151C2.31742 33.1024 2.26237 32.2275 3.04313 31.4509C3.73647 30.7614 4.49343 30.7448 5.40903 30.7478C5.23434 29.9055 5.05785 29.0706 4.95142 28.2157C4.92872 28.0247 4.90845 27.8335 4.89062 27.642C4.87279 27.4506 4.85739 27.2589 4.84443 27.067C4.83147 26.8752 4.82096 26.6832 4.81288 26.491C4.80481 26.2989 4.79919 26.1067 4.796 25.9144C4.79283 25.7221 4.79209 25.5298 4.79381 25.3375C4.79552 25.1452 4.79967 24.953 4.80628 24.7608C4.81288 24.5686 4.82193 24.3765 4.83342 24.1845C4.84491 23.9926 4.85884 23.8008 4.87521 23.6092C4.89159 23.4176 4.91039 23.2262 4.93163 23.0351C4.95287 22.844 4.97654 22.6531 5.00264 22.4626C5.02874 22.2721 5.05725 22.0819 5.08819 21.8921C5.11913 21.7023 5.15248 21.5129 5.18823 21.324C5.22398 21.135 5.26213 20.9466 5.30269 20.7586C5.34325 20.5706 5.38617 20.3832 5.43147 20.1963C5.4768 20.0094 5.5245 19.8231 5.57457 19.6374C5.62461 19.4518 5.67702 19.2667 5.73179 19.0824C5.94802 18.3746 6.18892 17.6753 6.45451 16.9846C6.59497 16.6158 6.85223 16.239 6.90722 15.8472C6.96461 15.439 6.93201 14.9929 6.93155 14.5806L6.92805 12.2865C6.92779 11.9287 6.90337 11.5524 6.96034 11.1985C6.97057 11.1342 6.98384 11.0706 7.00015 11.0077C7.01644 10.9447 7.03568 10.8827 7.05789 10.8215C7.08013 10.7604 7.10522 10.7005 7.13315 10.6417C7.16108 10.583 7.19175 10.5257 7.22517 10.4699C7.56972 9.90019 8.15908 9.65263 8.78085 9.50252C8.4135 9.4038 8.0558 9.241 7.70485 9.09591C7.79666 8.83399 7.92148 8.57607 8.03122 8.32069C8.38278 8.47065 8.7258 8.64589 9.07294 8.80641C9.20035 8.57876 9.33381 8.35837 9.47498 8.13904C9.21332 7.87678 8.94867 7.61755 8.68101 7.36138C8.86327 7.14622 9.06462 6.94685 9.26068 6.74434C9.5349 6.98568 9.81152 7.22425 10.0905 7.46005C10.2778 7.32492 10.4547 7.19487 10.6595 7.0866C10.5337 6.7655 10.4188 6.44053 10.3149 6.1117C10.5691 5.99674 10.8222 5.87928 11.0741 5.75933C11.2361 6.06072 11.359 6.39024 11.4802 6.70991C11.7274 6.63638 11.9881 6.59103 12.2406 6.53806L12.2731 5.51655C12.5478 5.51919 12.8225 5.5201 13.0972 5.51929C13.1315 5.86892 13.1268 6.21961 13.1817 6.56736C13.3915 6.6111 13.6006 6.65759 13.8092 6.70681L14.308 5.81306L15.0327 6.15365C14.8967 6.44909 14.7701 6.74947 14.6398 7.0475C14.8325 7.18573 15.0172 7.32903 15.2003 7.4796C15.4674 7.24656 15.7812 7.04186 16.0785 6.84854C16.1751 6.94228 16.2626 7.0441 16.3515 7.14505C16.0571 7.38327 15.766 7.61706 15.5084 7.89631C16.1918 7.65403 16.1312 7.5057 16.6567 7.16988C17.1501 6.85458 18.2353 6.42431 18.8029 6.20001C19.0043 6.12015 19.2069 6.04356 19.4108 5.97023C19.6146 5.8969 19.8196 5.82689 20.0257 5.7602C20.2318 5.69347 20.4389 5.6301 20.6471 5.57007C20.8552 5.51005 21.0643 5.45338 21.2743 5.40006C21.4842 5.34677 21.695 5.29689 21.9066 5.2504C22.1182 5.20389 22.3305 5.16081 22.5434 5.12117C22.7564 5.08151 22.97 5.0453 23.1841 5.01253C23.3982 4.97976 23.6128 4.95046 23.8279 4.92461C24.043 4.89876 24.2584 4.87639 24.4742 4.85749C24.6901 4.83859 24.9061 4.82318 25.1224 4.81124C25.3387 4.79931 25.5551 4.79087 25.7717 4.78591C25.9883 4.78096 26.2049 4.7795 26.4215 4.78153C26.6381 4.78356 26.8547 4.78908 27.0711 4.79809C27.2876 4.80711 27.5038 4.8196 27.7199 4.83559C27.9359 4.85157 28.1516 4.87104 28.367 4.89397C28.5824 4.91692 28.7974 4.94333 29.012 4.9732C29.6818 5.06533 30.3377 5.20566 30.9977 5.34988C31.0779 5.25086 31.1629 5.15646 31.2489 5.06248C32.9118 3.24406 34.6439 2.33121 37.1297 2.22001Z" fill="black"/>
<path d="M20.9451 11.2496C21.0074 11.2419 21.0769 11.2371 21.1394 11.2446C21.2377 11.2565 21.3339 11.3209 21.3929 11.3987C21.4545 11.4798 21.4781 11.5773 21.4569 11.6773C21.4276 11.8158 21.3346 11.8954 21.2187 11.965C21.163 11.9717 21.1048 11.9796 21.0487 11.9768C20.9543 11.9721 20.8492 11.9152 20.7894 11.8431C20.7247 11.7648 20.7051 11.6672 20.7189 11.5679C20.7395 11.4201 20.8335 11.3371 20.9451 11.2496Z" fill="white"/>
<path d="M17.2577 8.59741C17.4927 8.67841 17.7742 9.07953 17.9386 9.27072L17.329 9.27773L16.6112 9.27361C16.8146 9.0388 17.0407 8.81999 17.2577 8.59741Z" fill="white"/>
<path d="M9.83265 11.0497C9.92807 11.0425 10.0277 11.0384 10.1199 11.0688C10.1384 11.075 10.1565 11.0822 10.1742 11.0903C10.1919 11.0983 10.2092 11.1073 10.226 11.1171C10.2429 11.1269 10.2592 11.1376 10.2749 11.1491C10.2906 11.1606 10.3058 11.1728 10.3202 11.1859C10.3347 11.1989 10.3485 11.2126 10.3616 11.2271C10.3747 11.2415 10.3871 11.2565 10.3986 11.2722C10.4102 11.2879 10.4209 11.3041 10.4309 11.3209C10.4408 11.3377 10.4498 11.3549 10.458 11.3726C10.4652 11.3885 10.4717 11.4048 10.4773 11.4214C10.4829 11.438 10.4877 11.4549 10.4916 11.472C10.4956 11.4891 10.4986 11.5063 10.5008 11.5237C10.503 11.5411 10.5043 11.5586 10.5047 11.5761C10.5051 11.5937 10.5047 11.6112 10.5033 11.6286C10.502 11.6461 10.4997 11.6635 10.4966 11.6807C10.4935 11.698 10.4895 11.7151 10.4847 11.7319C10.4798 11.7488 10.4742 11.7654 10.4677 11.7816C10.3986 11.9529 10.2692 12.0447 10.1046 12.1142C10.0058 12.126 9.91034 12.1348 9.81269 12.1098C9.79475 12.1052 9.77709 12.0997 9.75973 12.0932C9.74239 12.0868 9.72541 12.0795 9.70879 12.0713C9.6922 12.0631 9.67607 12.0541 9.6604 12.0442C9.64476 12.0343 9.62966 12.0236 9.6151 12.0122C9.60054 12.0007 9.58663 11.9886 9.57336 11.9757C9.56009 11.9628 9.54751 11.9492 9.53563 11.935C9.52374 11.9208 9.51264 11.906 9.50232 11.8907C9.49199 11.8753 9.48248 11.8594 9.47378 11.8431C9.46514 11.8261 9.45742 11.8088 9.45062 11.791C9.44385 11.7733 9.43801 11.7552 9.4331 11.7368C9.42822 11.7184 9.42432 11.6998 9.42137 11.681C9.41846 11.6623 9.41653 11.6434 9.41558 11.6244C9.41463 11.6054 9.4147 11.5864 9.41578 11.5674C9.41683 11.5484 9.4189 11.5295 9.42198 11.5108C9.42503 11.492 9.42905 11.4734 9.43407 11.4551C9.43911 11.4367 9.44508 11.4187 9.45199 11.401C9.52466 11.2123 9.65395 11.127 9.83265 11.0497Z" fill="white"/>
<path d="M11.7955 11.0489C11.9118 11.0465 12.0137 11.0474 12.1202 11.0993C12.1358 11.1068 12.151 11.115 12.1657 11.1239C12.1805 11.1329 12.1947 11.1426 12.2086 11.1529C12.2223 11.1633 12.2356 11.1743 12.2483 11.186C12.261 11.1977 12.273 11.21 12.2845 11.2229C12.296 11.2358 12.3068 11.2492 12.317 11.2631C12.3271 11.2771 12.3366 11.2916 12.3453 11.3064C12.354 11.3213 12.362 11.3366 12.3692 11.3523C12.3764 11.368 12.3828 11.384 12.3884 11.4003C12.3946 11.4184 12.3999 11.4368 12.4042 11.4554C12.4085 11.4741 12.4118 11.4929 12.4142 11.512C12.4166 11.531 12.4179 11.55 12.4182 11.5692C12.4186 11.5884 12.418 11.6075 12.4163 11.6265C12.4147 11.6456 12.4121 11.6646 12.4085 11.6833C12.4049 11.7022 12.4003 11.7208 12.3947 11.7391C12.3892 11.7574 12.3827 11.7754 12.3753 11.7931C12.3679 11.8107 12.3595 11.8279 12.3503 11.8447C12.2614 12.0088 12.1293 12.0857 11.9567 12.1401C11.8496 12.1404 11.753 12.1374 11.6548 12.0901C11.512 12.0212 11.3992 11.9084 11.348 11.7565C11.3001 11.6147 11.3113 11.4619 11.3845 11.3309C11.4787 11.1622 11.6178 11.1011 11.7955 11.0489Z" fill="white"/>
<path d="M14.9919 11.2864C16.3502 11.2757 17.7084 11.2727 19.0667 11.2775L19.0666 11.8925C18.6177 11.9073 18.1656 11.896 17.7163 11.8955L13.6095 11.8857C13.6058 11.6901 13.6101 11.4938 13.6111 11.2982C14.0697 11.2789 14.5327 11.289 14.9919 11.2864Z" fill="white"/>
<path d="M5.12964 35.7545C5.38268 35.7211 5.62592 35.7589 5.84774 35.8896C6.12881 36.0553 6.34042 36.3492 6.42055 36.6643C6.42573 36.6848 6.43037 36.7054 6.43446 36.7261C6.43859 36.7468 6.4422 36.7676 6.44528 36.7884C6.44833 36.8093 6.45085 36.8303 6.45285 36.8513C6.45484 36.8723 6.45632 36.8934 6.45726 36.9145C6.45818 36.9355 6.45857 36.9566 6.45843 36.9778C6.4583 36.9989 6.45762 37.0199 6.4564 37.041C6.45518 37.0621 6.45344 37.0831 6.45117 37.1041C6.44887 37.1251 6.44604 37.146 6.44269 37.1669C6.43937 37.1877 6.43551 37.2084 6.43111 37.2291C6.42671 37.2497 6.42178 37.2702 6.41633 37.2906C6.41088 37.311 6.40492 37.3313 6.39846 37.3514C6.39199 37.3714 6.38502 37.3913 6.37754 37.4111C6.37002 37.4308 6.36203 37.4503 6.35357 37.4697C6.3451 37.489 6.33613 37.5081 6.32665 37.527C6.31721 37.5459 6.30729 37.5645 6.2969 37.5829C6.2865 37.6013 6.27565 37.6193 6.26435 37.6372C6.07229 37.9358 5.80406 38.0824 5.4682 38.161C5.19672 38.1772 4.95736 38.1609 4.71527 38.0198C4.43389 37.8559 4.22434 37.5689 4.14322 37.2546C4.05947 36.93 4.12089 36.5696 4.30104 36.2875C4.49694 35.9808 4.78573 35.8339 5.12964 35.7545Z" fill="white"/>
<path d="M3.26941 43.1396C4.99405 43.1019 6.72945 43.1327 8.45479 43.14L8.45418 44.1037C7.77138 44.1158 7.08669 44.1067 6.40358 44.1079C5.82894 44.109 4.86818 44.1805 4.34639 44.0365C3.85691 43.9014 3.51567 43.5709 3.26941 43.1396Z" fill="white"/>
<path d="M23.8108 42.796L28.7935 42.7935C29.611 42.7946 30.4557 42.7439 31.2702 42.792C31.3733 42.7981 31.4896 42.8038 31.5703 42.8751C31.633 42.9305 31.6647 43.0132 31.6662 43.0954C31.6684 43.2166 31.6321 43.343 31.5458 43.4312C31.4752 43.5035 31.3822 43.529 31.2851 43.5446C31.0678 43.5793 30.8288 43.5632 30.6086 43.5641L29.4709 43.5683C26.8521 43.5805 24.2334 43.5726 21.6147 43.5446C21.6087 43.2988 21.6141 43.052 21.6151 42.8062C22.3458 42.7877 23.0797 42.7988 23.8108 42.796Z" fill="white"/>
<path d="M9.38693 28.8309C10.8561 28.8185 12.3251 28.8237 13.7941 28.8465L13.7909 30.7925L12.6319 30.7944L9.67785 30.7857L8.1532 28.8359L9.38693 28.8309Z" fill="white"/>
<path d="M12.4413 6.84075C12.4489 6.84004 12.4564 6.83923 12.4639 6.83862C13.6211 6.74452 14.4335 7.26645 15.2754 7.96886C14.8521 8.19326 14.4223 8.39105 14.008 8.63394C13.5289 8.91486 13.0861 9.23666 12.6251 9.5447L12.0224 9.54607C11.064 9.54597 10.1056 9.54088 9.14722 9.53079C9.28316 9.00647 9.52051 8.54446 9.87004 8.12928C10.5247 7.35187 11.4407 6.92911 12.4413 6.84075Z" fill="white"/>
<path d="M16.4814 38.7328L23.095 38.7416L23.0993 41.083C22.808 41.1038 22.6018 41.1602 22.348 41.306C22.0783 41.5119 21.9902 41.7171 21.9086 42.0362L21.6064 42.0345C21.5976 41.9724 21.5863 41.9107 21.5726 41.8494C21.5589 41.7881 21.5428 41.7274 21.5243 41.6674C21.5058 41.6074 21.4849 41.5483 21.4617 41.49C21.4385 41.4316 21.413 41.3742 21.3853 41.3179C21.3575 41.2616 21.3276 41.2065 21.2954 41.1525C21.2633 41.0986 21.229 41.046 21.1928 40.9948C21.1564 40.9436 21.1181 40.8939 21.0779 40.8456C21.0376 40.7975 20.9955 40.751 20.9516 40.7061C20.914 40.6679 20.8752 40.6311 20.8352 40.5955C20.7951 40.5599 20.7539 40.5258 20.7116 40.4929C20.6692 40.4601 20.6259 40.4287 20.5815 40.3988C20.537 40.3689 20.4916 40.3405 20.4453 40.3136C20.399 40.2866 20.3518 40.2613 20.3038 40.2376C20.2558 40.2138 20.2071 40.1917 20.1576 40.1712C20.1081 40.1507 20.058 40.1319 20.0073 40.1147C19.9565 40.0975 19.9053 40.0821 19.8535 40.0683C19.3327 39.9299 18.7422 39.9817 18.2057 39.9809C17.6299 39.9815 17.0542 39.979 16.4784 39.9734C16.4739 39.5613 16.459 39.1442 16.4814 38.7328Z" fill="white"/>
<path d="M29.2457 38.7199C29.7976 38.7017 30.3528 38.7141 30.9052 38.714C31.8183 38.7113 32.7314 38.7136 33.6445 38.721C33.7799 38.8723 33.9628 38.9994 34.1186 39.1302C34.4305 39.3919 34.7417 39.6571 35.0342 39.9404C34.8906 40.6499 34.8539 41.3148 34.9401 42.0343C34.7952 42.0857 34.6522 42.1443 34.5086 42.1995C33.8244 42.461 33.1101 42.695 32.3936 42.8498C32.3245 42.6387 32.2488 42.4463 32.0849 42.2883C31.6927 41.9106 30.9765 42.018 30.4755 42.0216C30.4049 41.826 30.3238 41.6455 30.1866 41.4858C29.9323 41.1899 29.6321 41.1197 29.2629 41.0878C29.247 40.2986 29.2413 39.5093 29.2457 38.7199Z" fill="white"/>
<path d="M14.6542 20.376C16.79 20.3635 18.9258 20.3647 21.0615 20.3796L28.0979 20.3742L34.2637 20.3725C35.4038 20.3724 36.556 20.3397 37.6942 20.3856C37.6981 20.5884 37.7479 21.4145 37.6548 21.5362C34.7728 21.5937 31.8834 21.5449 29.0006 21.5466L14.5835 21.5412C14.5796 21.2425 14.5248 20.6733 14.6 20.4029L14.6542 20.376Z" fill="white"/>
<path d="M4.4706 31.5401C4.87792 31.5035 5.30101 31.5297 5.71021 31.5332L7.55499 31.537L13.8455 31.5329C14.3665 31.5358 14.8293 31.6657 15.2026 32.0491C15.7916 32.6539 15.6712 33.5334 15.6651 34.3051L14.2891 34.3174L3.07369 34.3097C3.06915 33.6321 2.96821 32.8696 3.35069 32.2711C3.6107 31.8644 4.00573 31.6385 4.4706 31.5401Z" fill="white"/>
<path d="M16.5139 35.3298L38.0724 35.3162C37.6388 35.5955 37.2197 35.9148 36.8547 36.2795C36.5643 36.1814 36.2744 36.0816 35.985 35.9804C35.7735 35.9094 35.3506 35.6605 35.1352 35.7174C34.8565 35.7909 33.8546 37.574 33.6392 37.9113C32.8713 37.9467 32.0958 37.9266 31.3271 37.9264L27.157 37.9186L16.4776 37.9232L16.4737 36.2414C16.4733 35.961 16.4495 35.6556 16.4834 35.3783C16.4842 35.3714 16.4852 35.3646 16.4862 35.3578L16.4748 35.3436L16.5001 35.3328L16.4972 35.3341L16.5139 35.3298Z" fill="white"/>
<path d="M10.8956 40.7592C11.333 40.717 11.8065 40.7509 12.248 40.7508L14.9918 40.7489L17.9365 40.7421C18.4418 40.7412 18.9924 40.6979 19.4923 40.7618C19.7818 40.7989 20.0377 40.8966 20.265 41.0825C20.6094 41.3642 20.8245 41.7548 20.8705 42.1966C20.9011 42.491 20.8869 42.7932 20.8864 43.0892L20.8839 44.5697L20.8909 46.4671C20.8917 46.8832 20.9194 47.3196 20.8463 47.7309C20.7956 48.0164 20.6768 48.2567 20.4921 48.4802C20.1666 48.8741 19.7331 49.0724 19.2315 49.1212C18.6899 49.1581 18.1295 49.1313 17.5862 49.131L14.5229 49.1296L12.1672 49.1333C11.7417 49.134 11.2935 49.1622 10.8706 49.1171C10.5794 49.0861 10.2994 48.9925 10.0582 48.825C9.6685 48.5546 9.33705 48.1115 9.2554 47.6371C9.19314 47.2756 9.22574 46.8987 9.22802 46.5333L9.22533 45.0306L9.21817 43.3339C9.21665 43.0133 9.18593 42.6566 9.23782 42.3409C9.28439 42.0581 9.41673 41.7529 9.5838 41.5209C9.89676 41.0862 10.3759 40.8449 10.8956 40.7592Z" fill="white"/>
<path d="M13.9603 45.359C14.7522 45.364 15.5557 45.3315 16.3459 45.3734C16.3701 45.6147 16.3892 47.5759 16.3538 47.7355C16.3373 47.8098 16.307 47.8106 16.2438 47.8454C15.9687 47.8601 14.0889 47.8858 13.9243 47.8319C13.8288 47.696 13.8374 45.7588 13.8724 45.5048C13.8828 45.429 13.9023 45.4058 13.9603 45.359Z" fill="black"/>
<path d="M17.2064 45.3478C17.616 45.3478 19.2991 45.2908 19.6075 45.3929C19.6567 45.4092 19.6521 45.4003 19.6726 45.4517C19.698 45.5154 19.6899 47.4967 19.6788 47.6724C19.6742 47.7432 19.6672 47.7851 19.6308 47.8455C19.3917 47.8759 17.3426 47.8813 17.2328 47.8089C17.1269 47.5331 17.1249 45.6562 17.2064 45.3478Z" fill="black"/>
<path d="M13.9892 42.0051C14.6358 41.9852 15.4061 41.969 16.048 41.9951C16.1462 41.9991 16.2682 42.0006 16.3397 42.0772C16.3676 42.3816 16.3995 44.2082 16.3518 44.4215C16.3371 44.4876 16.3057 44.5084 16.2535 44.5465C15.9747 44.5437 14.0451 44.5862 13.9211 44.5158C13.8544 44.3171 13.8183 42.3244 13.8815 42.1244C13.9052 42.0495 13.9256 42.0438 13.9892 42.0051Z" fill="black"/>
<path d="M10.5397 45.3542C10.9047 45.3385 12.8069 45.3053 13.0176 45.4143C13.0327 45.4724 13.0393 45.5251 13.044 45.5849C13.0718 45.9381 13.0294 46.3161 13.0266 46.6718C13.0239 47.0052 13.0713 47.3742 13.0262 47.7038C13.0165 47.7745 12.9993 47.7906 12.9541 47.8433C12.6076 47.8797 12.2334 47.8458 11.8836 47.8462C11.5408 47.8467 11.1841 47.8757 10.8433 47.8495C10.7357 47.8412 10.6224 47.827 10.5289 47.7703C10.5168 47.7425 10.5065 47.7178 10.5009 47.6878C10.4415 47.3709 10.4942 46.9763 10.4946 46.6489C10.4951 46.2657 10.4514 45.8563 10.4919 45.476C10.4974 45.4243 10.5111 45.3962 10.5397 45.3542Z" fill="black"/>
<path d="M17.2787 42.0086C17.7698 41.9932 18.2618 42.0108 18.7528 42.0066C18.9754 42.0048 19.2345 41.9577 19.4526 41.9938C19.5313 42.0068 19.6086 42.0346 19.6523 42.1062C19.6993 42.1833 19.7103 44.2685 19.6644 44.4366C19.6474 44.4986 19.6278 44.5028 19.576 44.5352C19.2661 44.5367 17.4142 44.5765 17.3184 44.5395C17.2526 44.514 17.21 44.4847 17.1819 44.418C17.1456 44.3316 17.1485 42.186 17.1935 42.072C17.2128 42.0231 17.2331 42.0283 17.2787 42.0086Z" fill="black"/>
<path d="M10.6786 42.0033C11.4543 42.0036 12.247 41.9729 13.0204 42.0295C13.0636 42.4176 13.0369 42.8195 13.0364 43.2103C13.0358 43.6254 13.0583 44.0542 13.0216 44.4673C12.9752 44.5332 12.9552 44.5282 12.8798 44.5494C12.4157 44.5543 11.9514 44.5467 11.4873 44.5478C11.2356 44.5483 10.968 44.5747 10.7184 44.5476C10.6445 44.5395 10.5909 44.5286 10.5281 44.4884C10.4675 44.3486 10.4559 42.2334 10.522 42.1012C10.5578 42.0295 10.61 42.0259 10.6786 42.0033Z" fill="black"/>
<path d="M9.38932 13.824C10.1055 13.7847 10.8391 13.8149 11.5568 13.8192L15.1575 13.8296L19.3491 13.8219C20.1235 13.8193 20.9083 13.7933 21.6816 13.8262C21.8016 13.8313 21.9143 13.8308 22.0061 13.9217C22.0892 14.004 22.0991 14.1983 22.1073 14.3122C22.147 14.8651 22.1141 15.4418 22.1151 15.9978L22.1104 19.587C20.2756 19.6348 18.4325 19.6012 16.5968 19.6002C16.1586 19.6 14.6934 19.545 14.3907 19.6391C14.1601 19.7108 14.0166 19.8805 13.913 20.0912L11.7852 20.0923C11.5154 20.0921 11.2135 20.0558 10.948 20.0813C10.8269 20.093 10.702 20.1315 10.602 20.2019C10.5116 20.2657 10.4241 20.3678 10.414 20.4825C10.4062 20.5719 10.4525 20.6547 10.5147 20.7153C10.5842 20.7831 10.6657 20.8389 10.7617 20.858C11.0577 20.9171 11.4158 20.8789 11.7199 20.8782C12.4188 20.8768 13.1192 20.8651 13.8178 20.8814L13.8199 21.5877C13.3231 21.59 10.9052 21.5533 10.6693 21.6286C10.5905 21.6537 10.5186 21.7248 10.4814 21.7974C10.4157 21.9255 10.4538 22.0619 10.4981 22.1892C10.5029 22.1943 10.5074 22.1997 10.5125 22.2047C10.5704 22.2613 10.6354 22.3089 10.716 22.3256C11.0511 22.395 11.4474 22.3547 11.7906 22.3546C12.4651 22.352 13.1396 22.3536 13.814 22.3592L13.8135 23.0411C13.1357 23.061 12.4529 23.0526 11.7747 23.0511C11.4821 23.0504 11.1608 23.0189 10.8721 23.0565C10.76 23.071 10.6461 23.1058 10.5551 23.1748C10.476 23.2347 10.4183 23.3212 10.4117 23.4221C10.4049 23.5254 10.4509 23.6202 10.5205 23.6941C10.5851 23.7625 10.6737 23.8127 10.7672 23.8264C11.072 23.8707 11.4238 23.837 11.7329 23.8365L13.8216 23.8312C13.8228 24.0581 13.8213 24.2851 13.8171 24.5119C13.1235 24.5413 12.4216 24.5159 11.727 24.5137C11.4522 24.5129 11.1558 24.4866 10.8841 24.5213C10.7686 24.536 10.6576 24.5708 10.5613 24.6373C10.4736 24.6979 10.3974 24.7936 10.3893 24.9036C10.3825 24.9951 10.4269 25.0803 10.492 25.1416C10.5762 25.2211 10.6938 25.2665 10.8069 25.2846C11.0878 25.3298 11.4253 25.2908 11.7122 25.2907L13.8111 25.2914C13.8097 25.7734 13.8055 26.2553 13.7984 26.7371L11.0473 26.7454C10.5487 26.7465 10.0311 26.7757 9.53486 26.7405C9.41431 26.7319 9.2543 26.7237 9.1571 26.6467C9.06661 26.575 8.9878 26.4698 8.97409 26.353C8.91127 25.8194 8.96012 25.2275 8.96119 24.6881L8.959 21.4868L8.95814 16.5175C8.95758 16.0859 8.96545 15.6532 8.95819 15.2218C8.95332 14.9311 8.92356 14.6333 8.93823 14.3436C8.94514 14.2075 8.96926 14.0639 9.05879 13.9554C9.14674 13.8489 9.25958 13.8384 9.38932 13.824Z" fill="white"/>
<path d="M18.4874 15.2946C18.8938 15.255 19.3162 15.3689 19.6547 15.5946C20.0694 15.8711 20.342 16.3003 20.4326 16.7887C20.5257 17.2896 20.4338 17.8095 20.1413 18.2304C19.8145 18.7008 19.3809 18.9197 18.8293 19.0158C18.3351 19.025 17.9476 18.9544 17.5475 18.6498C17.1439 18.3425 16.8797 17.9117 16.8183 17.4057C16.7568 16.8995 16.8901 16.3736 17.2084 15.972C17.5352 15.5598 17.9736 15.3562 18.4874 15.2946Z" fill="black"/>
<path d="M18.4232 16.0248C18.6607 15.995 18.8912 16.0149 19.1097 16.1186C19.1262 16.1265 19.1424 16.1349 19.1585 16.1436C19.1746 16.1523 19.1905 16.1615 19.2061 16.171C19.2218 16.1805 19.2371 16.1904 19.2523 16.2007C19.2674 16.2109 19.2823 16.2216 19.2969 16.2326C19.3115 16.2436 19.3259 16.255 19.3399 16.2668C19.3539 16.2785 19.3677 16.2905 19.3812 16.303C19.3946 16.3154 19.4077 16.3281 19.4206 16.3411C19.4334 16.3542 19.4458 16.3676 19.458 16.3813C19.4701 16.3949 19.482 16.4089 19.4934 16.4232C19.5049 16.4375 19.516 16.452 19.5267 16.4668C19.5375 16.4816 19.5478 16.4967 19.5578 16.512C19.5678 16.5274 19.5774 16.5429 19.5866 16.5587C19.5959 16.5746 19.6047 16.5906 19.6131 16.6068C19.6215 16.6231 19.6295 16.6395 19.6371 16.6562C19.6448 16.6728 19.652 16.6896 19.6587 16.7066C19.6655 16.7236 19.6718 16.7408 19.6778 16.7581C19.7799 17.0554 19.7617 17.397 19.6136 17.6758C19.4515 17.9812 19.1812 18.1518 18.8606 18.2532C18.5992 18.2955 18.3405 18.2731 18.1034 18.1473C18.0875 18.1388 18.0718 18.13 18.0563 18.1208C18.0409 18.1115 18.0256 18.1019 18.0107 18.0919C17.9957 18.0819 17.9809 18.0715 17.9665 18.0608C17.952 18.0501 17.9378 18.039 17.9239 18.0275C17.91 18.0161 17.8964 18.0043 17.8831 17.9922C17.8697 17.9801 17.8567 17.9676 17.844 17.9549C17.8313 17.9421 17.8189 17.929 17.8069 17.9156C17.7948 17.9022 17.7831 17.8885 17.7717 17.8745C17.7604 17.8606 17.7494 17.8463 17.7387 17.8318C17.7281 17.8173 17.7178 17.8025 17.7079 17.7874C17.6979 17.7724 17.6884 17.7571 17.6793 17.7416C17.6701 17.7261 17.6614 17.7103 17.653 17.6944C17.6447 17.6784 17.6367 17.6623 17.6292 17.6459C17.6216 17.6296 17.6145 17.613 17.6077 17.5963C17.601 17.5796 17.5947 17.5628 17.5888 17.5457C17.5829 17.5287 17.5774 17.5115 17.5724 17.4942C17.4861 17.1932 17.5182 16.8544 17.6721 16.5804C17.8405 16.2805 18.1031 16.1213 18.4232 16.0248Z" fill="white"/>
<path d="M16.2778 14.5933C16.4253 14.6726 16.5909 14.9059 16.7097 15.0327C16.0551 15.7091 15.4366 16.4172 14.8541 17.1567L15.222 18.1184C14.8627 18.0524 14.4959 17.9719 14.1302 17.9603C13.9516 18.0981 13.8033 18.2828 13.6439 18.4426C13.2896 18.7982 12.8529 19.0229 12.3436 19.0231C11.8007 19.0233 11.3627 18.7904 10.9839 18.4173C10.6832 18.0809 10.4998 17.6748 10.4823 17.2204C10.4811 17.1901 10.4805 17.1599 10.4808 17.1297C10.481 17.0994 10.482 17.0692 10.4837 17.039C10.4854 17.0088 10.4879 16.9787 10.4912 16.9486C10.4944 16.9185 10.4984 16.8886 10.5031 16.8587C10.5079 16.8288 10.5133 16.7991 10.5195 16.7694C10.5257 16.7399 10.5327 16.7104 10.5404 16.6812C10.548 16.6519 10.5564 16.6228 10.5656 16.594C10.5747 16.5652 10.5845 16.5366 10.5951 16.5082C10.6056 16.4799 10.6169 16.4518 10.6288 16.424C10.6408 16.3962 10.6534 16.3688 10.6667 16.3416C10.6801 16.3145 10.6941 16.2876 10.7087 16.2612C10.7234 16.2347 10.7387 16.2087 10.7546 16.183C10.7706 16.1573 10.7872 16.132 10.8044 16.1071C10.8216 16.0822 10.8394 16.0578 10.8579 16.0338C10.8763 16.0099 10.8953 15.9863 10.9149 15.9633C10.9345 15.9403 10.9547 15.9177 10.9754 15.8957C10.9961 15.8729 11.0173 15.8507 11.0391 15.829C11.0608 15.8074 11.0831 15.7862 11.1059 15.7656C11.1288 15.7451 11.1521 15.7251 11.1759 15.7056C11.1997 15.6862 11.2239 15.6674 11.2487 15.6492C11.2734 15.6309 11.2986 15.6134 11.3242 15.5964C11.3499 15.5794 11.3759 15.5631 11.4023 15.5474C11.4288 15.5318 11.4555 15.5168 11.4827 15.5025C11.5099 15.4881 11.5374 15.4745 11.5653 15.4615C11.5932 15.4486 11.6213 15.4363 11.6498 15.4247C11.6783 15.4132 11.707 15.4023 11.736 15.3922C11.765 15.382 11.7943 15.3726 11.8237 15.364C11.8532 15.3553 11.8829 15.3474 11.9127 15.3402C11.9426 15.3329 11.9727 15.3265 12.0029 15.3208C12.033 15.3151 12.0633 15.3101 12.0938 15.3059C12.1243 15.3017 12.1548 15.2983 12.1854 15.2956C12.216 15.2929 12.2467 15.291 12.2774 15.2899C13.1542 15.2593 13.6364 15.8228 14.2219 16.3696C14.9405 15.8288 15.6047 15.1901 16.2778 14.5933Z" fill="black"/>
<path d="M12.1853 16.0282C12.4319 16.0101 12.6705 16.0522 12.8874 16.1756C12.9034 16.1847 12.9192 16.1942 12.9347 16.2042C12.9503 16.2141 12.9656 16.2244 12.9806 16.2351C12.9956 16.2458 13.0104 16.2568 13.0249 16.2682C13.0393 16.2797 13.0535 16.2915 13.0674 16.3036C13.0813 16.3158 13.0948 16.3282 13.1081 16.3411C13.1214 16.3539 13.1343 16.367 13.1469 16.3805C13.1595 16.3939 13.1718 16.4077 13.1837 16.4217C13.1956 16.4358 13.2071 16.4502 13.2184 16.4649C13.2296 16.4795 13.2404 16.4945 13.2508 16.5097C13.2613 16.5248 13.2713 16.5403 13.281 16.556C13.2907 16.5717 13.3 16.5876 13.3088 16.6037C13.3177 16.6199 13.3262 16.6363 13.3343 16.6529C13.3423 16.6695 13.35 16.6863 13.3572 16.7032C13.3644 16.7202 13.3712 16.7373 13.3776 16.7546C13.3839 16.7719 13.3899 16.7894 13.3954 16.807C13.4009 16.8246 13.4059 16.8424 13.4105 16.8602C13.4864 17.1501 13.451 17.4692 13.2952 17.7272C13.109 18.0358 12.8139 18.1989 12.4728 18.2795C12.2414 18.2994 12.0242 18.2772 11.8155 18.1688C11.5328 18.022 11.3266 17.7484 11.2439 17.4428C11.2389 17.425 11.2344 17.407 11.2303 17.3889C11.2262 17.3709 11.2225 17.3527 11.2194 17.3345C11.2162 17.3162 11.2135 17.2979 11.2112 17.2795C11.209 17.2612 11.2071 17.2427 11.2058 17.2242C11.2045 17.2058 11.2036 17.1873 11.2032 17.1687C11.2027 17.1502 11.2028 17.1317 11.2033 17.1132C11.2038 17.0947 11.2048 17.0762 11.2062 17.0577C11.2077 17.0393 11.2096 17.0209 11.2119 17.0025C11.2143 16.9841 11.2171 16.9658 11.2203 16.9476C11.2236 16.9293 11.2273 16.9112 11.2315 16.8931C11.2357 16.8751 11.2403 16.8572 11.2454 16.8394C11.2504 16.8215 11.2559 16.8038 11.2619 16.7863C11.2678 16.7688 11.2742 16.7514 11.2811 16.7342C11.2879 16.717 11.2951 16.6999 11.3028 16.6831C11.3104 16.6662 11.3185 16.6496 11.3271 16.6331C11.3356 16.6166 11.3445 16.6004 11.3538 16.5844C11.5413 16.2632 11.8373 16.1123 12.1853 16.0282Z" fill="white"/>
<path d="M37.1128 4.0991C37.1345 4.09786 37.1561 4.09695 37.1778 4.09635C38.7561 4.0515 40.3848 4.72445 41.5241 5.80587C42.7047 6.92631 43.4575 8.50281 43.4976 10.1392C43.4986 10.1891 43.4991 10.2389 43.4989 10.2888C43.4987 10.3387 43.4979 10.3886 43.4965 10.4384C43.4951 10.4883 43.4931 10.5381 43.4905 10.5879C43.4879 10.6377 43.4846 10.6875 43.4808 10.7372C43.4769 10.787 43.4725 10.8366 43.4674 10.8863C43.4623 10.9359 43.4566 10.9855 43.4504 11.0349C43.4441 11.0844 43.4372 11.1338 43.4297 11.1831C43.4222 11.2324 43.4141 11.2816 43.4054 11.3308C43.3967 11.3799 43.3874 11.4289 43.3775 11.4778C43.3675 11.5267 43.357 11.5754 43.3459 11.624C43.3348 11.6726 43.3231 11.7211 43.3108 11.7695C43.2985 11.8178 43.2856 11.866 43.2721 11.914C43.2586 11.962 43.2446 12.0099 43.2299 12.0575C43.2152 12.1052 43.2 12.1527 43.1842 12.2C43.1683 12.2473 43.1519 12.2944 43.1349 12.3413C43.118 12.3882 43.1004 12.4349 43.0823 12.4814C43.0642 12.5279 43.0455 12.5741 43.0262 12.6201C43.0069 12.6661 42.9871 12.7119 42.9667 12.7574C42.9463 12.8029 42.9254 12.8482 42.9038 12.8932C42.8823 12.9382 42.8603 12.9829 42.8377 13.0274C42.8151 13.0719 42.7919 13.116 42.7682 13.16C42.7445 13.2038 42.7203 13.2474 42.6956 13.2907C42.6708 13.334 42.6455 13.377 42.6197 13.4197C42.5939 13.4624 42.5675 13.5047 42.5407 13.5468C42.5138 13.5888 42.4865 13.6305 42.4586 13.6718C42.4307 13.7132 42.4023 13.7542 42.3734 13.7949C42.3445 13.8355 42.3152 13.8758 42.2853 13.9158C42.2554 13.9557 42.225 13.9953 42.1942 14.0345C42.1633 14.0737 42.132 14.1125 42.1002 14.1509C42.0684 14.1893 42.0361 14.2274 42.0034 14.265C41.9706 14.3026 41.9374 14.3398 41.9038 14.3767C41.8701 14.4135 41.836 14.4499 41.8015 14.4859C40.7093 15.6227 39.1488 16.3468 37.5664 16.3796C36.0032 16.4184 34.4753 15.9051 33.2957 14.8621C32.0576 13.7675 31.2586 12.3076 31.1575 10.6433C31.0564 8.97721 31.5625 7.40487 32.6858 6.15489C33.8435 4.86653 35.3973 4.18433 37.1128 4.0991Z" fill="white"/>
<path d="M36.9038 4.91085C38.3635 4.82561 39.6984 5.29553 40.803 6.24433C40.8365 6.27266 40.8696 6.30141 40.9024 6.33055C40.9351 6.35974 40.9675 6.38929 40.9995 6.41922C41.0316 6.44918 41.0632 6.47953 41.0945 6.51027C41.1258 6.54101 41.1567 6.57214 41.1872 6.60365C41.2177 6.63514 41.2479 6.66701 41.2776 6.69928C41.3073 6.73151 41.3366 6.76411 41.3655 6.79708C41.3944 6.83005 41.423 6.86338 41.4511 6.89707C41.4792 6.93075 41.5068 6.96478 41.5341 6.99914C41.5614 7.0335 41.5882 7.06819 41.6146 7.10319C41.641 7.13823 41.6669 7.17357 41.6925 7.20922C41.718 7.2449 41.7431 7.28087 41.7677 7.31713C41.7924 7.35342 41.8166 7.39002 41.8403 7.42692C41.864 7.46379 41.8873 7.50094 41.9101 7.53839C41.9329 7.57586 41.9553 7.61361 41.9772 7.65163C41.9991 7.68961 42.0205 7.72788 42.0414 7.76644C42.0623 7.80497 42.0828 7.84375 42.1028 7.88278C42.1228 7.92185 42.1423 7.96114 42.1613 8.00065C42.1803 8.04019 42.1988 8.07995 42.2168 8.11993C42.2348 8.15991 42.2524 8.2001 42.2694 8.24049C42.2865 8.28091 42.303 8.32153 42.319 8.36236C42.3351 8.40319 42.3506 8.4442 42.3656 8.48541C42.3806 8.52661 42.3951 8.56799 42.4091 8.60957C42.4231 8.65114 42.4366 8.69288 42.4496 8.73479C42.4625 8.77667 42.475 8.81872 42.4869 8.86093C42.4988 8.90315 42.5102 8.9455 42.5211 8.98799C42.532 9.03047 42.5423 9.07308 42.5521 9.1158C42.562 9.15856 42.5713 9.20142 42.58 9.24438C42.5888 9.28738 42.597 9.33046 42.6048 9.37362C42.6124 9.41682 42.6196 9.46008 42.6262 9.50342C42.6329 9.54678 42.639 9.59022 42.6445 9.63372C42.6501 9.67722 42.6551 9.72079 42.6596 9.76443C42.6641 9.80804 42.668 9.85171 42.6714 9.89545C42.7757 11.3039 42.3389 12.6783 41.408 13.7443C40.4898 14.7958 39.1616 15.4951 37.762 15.5873L37.7135 15.5919C36.35 15.7178 34.9041 15.2044 33.8651 14.3282C32.7495 13.3874 32.0396 12.0951 31.9219 10.633C31.9181 10.5901 31.9148 10.5471 31.9121 10.504C31.9094 10.461 31.9072 10.4179 31.9056 10.3748C31.9039 10.3317 31.9028 10.2886 31.9023 10.2454C31.9017 10.2023 31.9017 10.1592 31.9022 10.116C31.9028 10.0729 31.9038 10.0298 31.9055 9.9867C31.907 9.94357 31.9092 9.90049 31.9118 9.85746C31.9146 9.8144 31.9178 9.77139 31.9215 9.72843C31.9253 9.68543 31.9296 9.64251 31.9344 9.59965C31.9393 9.55679 31.9447 9.514 31.9506 9.47127C31.9565 9.42855 31.963 9.38591 31.9699 9.34335C31.9769 9.30077 31.9845 9.2583 31.9925 9.21594C32.0005 9.17356 32.0091 9.13128 32.0183 9.08909C32.0274 9.04694 32.037 9.00491 32.0472 8.963C32.0573 8.92106 32.068 8.87926 32.0793 8.83762C32.0905 8.79598 32.1022 8.75448 32.1145 8.71311C32.1267 8.67174 32.1395 8.63054 32.1528 8.58951C32.1661 8.54848 32.1799 8.50761 32.1942 8.46692C32.2085 8.42623 32.2233 8.38572 32.2387 8.3454C32.254 8.30508 32.2698 8.26496 32.2862 8.22505C32.3025 8.18514 32.3193 8.14542 32.3367 8.10592C32.354 8.06641 32.3718 8.02714 32.3902 7.9881C32.4085 7.94904 32.4273 7.91022 32.4466 7.87166C32.4659 7.83307 32.4857 7.79473 32.5059 7.75664C32.5262 7.71856 32.5469 7.68074 32.5681 7.6432C32.5893 7.60562 32.611 7.56833 32.6331 7.53133C32.6553 7.49429 32.6779 7.45756 32.7009 7.42113C32.724 7.38467 32.7475 7.3485 32.7715 7.31261C32.7954 7.27676 32.8199 7.24121 32.8447 7.20597C32.8696 7.17073 32.8949 7.13579 32.9206 7.10116C32.9463 7.06656 32.9725 7.03228 32.9991 6.99833C33.0257 6.96437 33.0528 6.93074 33.0802 6.89742C33.1076 6.86415 33.1355 6.83122 33.1638 6.79865C33.1928 6.7645 33.2223 6.73073 33.2521 6.69735C33.282 6.66393 33.3123 6.63089 33.343 6.59822C33.3737 6.56555 33.4048 6.53329 33.4363 6.50143C33.4678 6.46954 33.4997 6.43806 33.532 6.40698C33.5643 6.37587 33.5969 6.34518 33.63 6.31491C33.663 6.28465 33.6965 6.25479 33.7303 6.22533C33.7641 6.19592 33.7982 6.1669 33.8327 6.1383C33.8672 6.10972 33.9021 6.08157 33.9374 6.05385C33.9726 6.02612 34.0081 5.99885 34.044 5.97204C34.0799 5.94519 34.1162 5.9188 34.1527 5.89287C34.1893 5.86694 34.2262 5.84146 34.2633 5.81644C34.3005 5.79146 34.338 5.76692 34.3759 5.74281C34.4136 5.71874 34.4517 5.69514 34.4901 5.67202C34.5285 5.6489 34.5672 5.62625 34.6061 5.60408C34.6451 5.5819 34.6844 5.56024 34.7239 5.53908C34.7633 5.51788 34.8031 5.49718 34.8431 5.47697C34.8831 5.45679 34.9234 5.43711 34.9639 5.41791C35.0044 5.39872 35.0451 5.38003 35.0861 5.36185C35.127 5.34367 35.1682 5.326 35.2096 5.30883C35.251 5.2917 35.2927 5.27508 35.3345 5.25897C35.3763 5.24285 35.4183 5.22725 35.4605 5.21215C35.5028 5.19708 35.5451 5.18256 35.5877 5.16858C35.6303 5.15456 35.673 5.14107 35.716 5.1281C35.7589 5.11517 35.8019 5.10276 35.8452 5.09088C35.8884 5.07901 35.9317 5.06768 35.9752 5.05689C36.0187 5.04609 36.0623 5.03584 36.1061 5.02614C36.1499 5.01643 36.1937 5.00727 36.2377 4.99866C36.2817 4.99005 36.3258 4.98198 36.37 4.97447C36.4142 4.96696 36.4584 4.95999 36.5028 4.95358C36.5472 4.94717 36.5916 4.94131 36.6361 4.93601C36.6806 4.9307 36.7252 4.92596 36.7698 4.92176C36.8144 4.91757 36.8591 4.91393 36.9038 4.91085Z" fill="black"/>
<path d="M36.2384 7.77332C36.3587 7.78307 36.4602 7.79769 36.5395 7.89737C36.609 7.98472 36.6219 8.18617 36.5979 8.29032C36.5791 8.37167 36.5375 8.42271 36.4739 8.47394C36.2427 8.66021 35.9486 8.80565 35.6932 8.96043C35.0186 9.36922 34.3293 9.7545 33.6589 10.1697C34.5568 10.674 35.4806 11.1791 36.3495 11.731C36.4802 11.8139 36.6028 11.8993 36.6317 12.0616C36.6512 12.1706 36.6188 12.2891 36.552 12.3765C36.5446 12.3862 36.5368 12.3956 36.5286 12.4045C36.5203 12.4135 36.5115 12.422 36.5024 12.4301C36.4933 12.4382 36.4837 12.4458 36.4739 12.4529C36.464 12.4601 36.4538 12.4667 36.4432 12.4728C36.4326 12.4789 36.4218 12.4844 36.4106 12.4894C36.3995 12.4944 36.3882 12.4989 36.3766 12.5027C36.365 12.5066 36.3533 12.5099 36.3414 12.5126C36.3295 12.5153 36.3175 12.5174 36.3054 12.5189C36.1577 12.5367 36.0713 12.4567 35.9621 12.3734C35.196 11.8981 34.3988 11.4584 33.6171 11.0089C33.3035 10.8287 32.944 10.6664 32.6545 10.4527C32.5836 10.4003 32.5304 10.3442 32.5036 10.2584C32.4784 10.178 32.4831 10.0772 32.5245 10.0027C32.5737 9.91415 32.6758 9.84357 32.7595 9.7906C33.2229 9.4978 33.7249 9.24902 34.1991 8.97109C34.5345 8.77447 34.8731 8.58201 35.2044 8.37873C35.5202 8.18495 35.8833 7.8798 36.2384 7.77332Z" fill="white"/>
<path d="M38.3486 7.74121C38.3746 7.74382 38.4004 7.74759 38.4261 7.75253C38.7324 7.81241 40.3299 8.82128 40.7301 9.04939C41.1389 9.28242 41.5706 9.49007 41.9689 9.73966C42.0507 9.79095 42.1653 9.85945 42.211 9.9473C42.2506 10.0235 42.2607 10.1642 42.236 10.2466C42.2078 10.3408 42.1053 10.4054 42.0284 10.4587C41.6374 10.7299 41.1844 10.9446 40.7701 11.1805L38.8099 12.3196C38.6947 12.3887 38.5413 12.5004 38.4026 12.4996C38.2926 12.4991 38.1731 12.411 38.1046 12.3299C38.05 12.2653 38.0292 12.1962 38.0372 12.1112C38.0502 11.9738 38.1691 11.8495 38.2706 11.7681C38.5176 11.5699 38.8375 11.4261 39.1132 11.2696C39.7513 10.9076 40.4208 10.5503 41.0179 10.1246C40.4049 9.73305 39.7699 9.37322 39.1404 9.00886C38.872 8.85347 38.5832 8.71245 38.3266 8.53914C38.2383 8.47957 38.1436 8.41193 38.0957 8.31372C38.0902 8.30231 38.0854 8.29065 38.0811 8.27873C38.0768 8.26685 38.0732 8.25478 38.0701 8.24252C38.067 8.23023 38.0646 8.21784 38.0628 8.20535C38.061 8.19283 38.0597 8.18025 38.0592 8.16762C38.0586 8.15499 38.0586 8.14237 38.0593 8.12974C38.06 8.11714 38.0613 8.1046 38.0632 8.09211C38.0652 8.07958 38.0677 8.06721 38.0709 8.05499C38.074 8.04273 38.0778 8.03068 38.0822 8.01883C38.1367 7.86618 38.2036 7.80621 38.3486 7.74121Z" fill="white"/>
<path d="M37.2219 5.8125C37.2731 5.81367 37.3253 5.81433 37.3762 5.82139C37.5298 5.84266 37.6153 5.95682 37.7036 6.07214C37.7283 6.62576 37.7086 7.18847 37.7084 7.74295L37.7045 11.0415C37.704 11.5364 37.7631 14.0401 37.6642 14.3602C37.6302 14.4701 37.5223 14.5237 37.4274 14.5707C37.364 14.5732 37.2985 14.5751 37.2354 14.5668C37.143 14.5546 37.0497 14.5087 36.9988 14.4279C36.9297 14.3181 36.9451 14.1006 36.9415 13.9726C36.9247 13.3727 36.9413 12.7694 36.9396 12.169C36.9321 10.8268 36.9316 9.48456 36.9382 8.14234C36.9392 7.76357 36.8955 6.33727 36.9598 6.09357C36.9963 5.95509 37.1035 5.87943 37.2219 5.8125Z" fill="white"/>
<path d="M40.5958 33.2936L42.8758 33.2913C43.001 33.9057 43.0456 34.7039 43.2373 35.2809C43.4257 35.3798 43.637 35.4489 43.8335 35.5316C44.2133 35.6915 44.5867 35.8763 44.9297 36.1059C45.1407 36.2494 45.3417 36.4058 45.5328 36.5749C45.7486 36.7654 45.9677 37.0083 46.2204 37.1436C46.4195 37.0718 46.6118 36.9725 46.8074 36.8907C47.1716 36.7384 47.5396 36.5968 47.9026 36.4409C48.3191 36.9755 48.6727 37.5932 49.0419 38.1631C48.7282 38.4817 47.765 39.3079 47.5919 39.5912C47.4607 39.806 47.6955 40.5651 47.7148 40.8468C47.7561 41.4499 47.6887 41.9993 47.6077 42.5949C47.596 42.6808 47.5852 42.7479 47.6255 42.8296C47.8186 43.2206 48.6445 43.7582 48.9454 44.1614C48.9513 44.1693 48.957 44.1775 48.9627 44.1855C48.6226 44.7816 48.2032 45.3292 47.8464 45.9153C47.2571 45.7442 46.6738 45.501 46.0772 45.3655C45.8657 45.4865 45.6823 45.6734 45.4912 45.8256C45.2845 45.9902 45.0589 46.1327 44.8308 46.2656C44.5149 46.4498 44.1754 46.6097 43.828 46.7248C43.5982 46.801 43.3577 46.8575 43.1365 46.9562C43.1276 46.9602 43.1189 46.9644 43.11 46.9684C42.9656 47.3806 42.9052 48.88 42.8019 49.0566L40.6335 49.0495C40.5108 48.4498 40.5084 47.8234 40.3853 47.2268C40.3625 47.1163 40.3386 46.9919 40.2374 46.9285C40.0526 46.8128 39.7826 46.7709 39.5752 46.6981C39.3571 46.6215 39.1416 46.5271 38.9329 46.4282C38.2472 46.1031 37.9109 45.7649 37.3174 45.3758C36.6786 45.519 36.0367 45.773 35.4133 45.9757C35.0608 45.3687 34.6895 44.7736 34.3674 44.1494C34.8217 43.6868 35.442 43.3888 35.8985 42.9217C35.8433 42.6122 35.7589 42.3102 35.7159 41.9978C35.6031 41.1788 35.7331 40.4358 35.8496 39.632C35.6976 39.447 35.4867 39.2882 35.3064 39.1294L34.3226 38.2602C34.6375 37.6825 35.0211 37.1246 35.3701 36.5662C35.9127 36.7742 36.4596 37.0093 37.0192 37.1666C37.3822 36.9268 37.711 36.5182 38.091 36.2423C38.2 36.1626 38.3118 36.0871 38.4263 36.0156C38.5409 35.9442 38.6579 35.877 38.7774 35.8141C38.8968 35.7512 39.0184 35.6928 39.1422 35.6388C39.2659 35.5849 39.3915 35.5355 39.5188 35.4907C39.7708 35.402 40.0347 35.3374 40.2785 35.2279C40.2879 35.2237 40.297 35.2193 40.3063 35.215C40.4486 34.7557 40.5218 33.8185 40.5958 33.2936Z" fill="white"/>
<path d="M41.3111 36.6237C42.4519 36.5206 43.5914 36.9299 44.4775 37.6354C44.5071 37.6588 44.5365 37.6825 44.5655 37.7066C44.5945 37.7307 44.6233 37.7552 44.6517 37.78C44.6801 37.8048 44.7082 37.83 44.736 37.8555C44.7638 37.881 44.7913 37.9069 44.8184 37.9332C44.8455 37.9594 44.8723 37.9859 44.8988 38.0128C44.9253 38.0397 44.9515 38.0669 44.9773 38.0944C45.003 38.122 45.0285 38.1498 45.0536 38.178C45.0787 38.2062 45.1034 38.2347 45.1278 38.2635C45.1522 38.2923 45.1762 38.3214 45.1998 38.3508C45.2235 38.3802 45.2468 38.4098 45.2697 38.4398C45.2926 38.4698 45.3151 38.5001 45.3373 38.5306C45.3594 38.5612 45.3812 38.592 45.4026 38.6231C45.424 38.6542 45.4449 38.6855 45.4655 38.7172C45.4861 38.7488 45.5063 38.7806 45.5261 38.8127C45.5459 38.8449 45.5653 38.8772 45.5843 38.9099C45.6033 38.9425 45.6219 38.9753 45.64 39.0084C45.6582 39.0415 45.6759 39.0748 45.6932 39.1083C45.7106 39.1418 45.7275 39.1755 45.744 39.2095C45.7604 39.2434 45.7765 39.2776 45.7921 39.3119C45.8077 39.3462 45.8229 39.3808 45.8377 39.4155C45.8525 39.4502 45.8668 39.4851 45.8807 39.5202C45.8945 39.5553 45.908 39.5906 45.921 39.626C45.934 39.6614 45.9466 39.697 45.9587 39.7327C45.9708 39.7685 45.9825 39.8043 45.9937 39.8404C46.0049 39.8764 46.0157 39.9126 46.0259 39.9489C46.0363 39.9852 46.0461 40.0216 46.0555 40.0581C46.0649 40.0947 46.0738 40.1313 46.0823 40.1681C46.0908 40.2048 46.0988 40.2417 46.1064 40.2787C46.1139 40.3157 46.121 40.3527 46.1276 40.3899C46.1342 40.427 46.1404 40.4643 46.1461 40.5016C46.1518 40.5389 46.157 40.5762 46.1618 40.6136C46.1665 40.6511 46.1708 40.6886 46.1746 40.7261C46.3013 41.8987 46.0087 43.0345 45.2648 43.9569C44.4677 44.9456 43.3821 45.462 42.1337 45.5993C40.9104 45.6303 39.7768 45.3671 38.8108 44.5769C38.7824 44.5536 38.7543 44.5299 38.7264 44.506C38.6986 44.482 38.671 44.4577 38.6438 44.433C38.6165 44.4084 38.5896 44.3834 38.5629 44.3581C38.5363 44.3328 38.51 44.3072 38.484 44.2812C38.458 44.2553 38.4323 44.229 38.4069 44.2024C38.3816 44.1758 38.3565 44.1489 38.3318 44.1218C38.3071 44.0945 38.2828 44.067 38.2588 44.0392C38.2347 44.0114 38.211 43.9834 38.1877 43.955C38.1644 43.9266 38.1414 43.8979 38.1187 43.869C38.0961 43.84 38.0738 43.8108 38.0519 43.7813C38.03 43.7518 38.0085 43.7221 37.9873 43.692C37.9661 43.662 37.9453 43.6318 37.9248 43.6013C37.9044 43.5707 37.8843 43.5399 37.8646 43.5089C37.845 43.4779 37.8257 43.4466 37.8067 43.4151C37.7878 43.3836 37.7693 43.3519 37.7511 43.3199C37.733 43.288 37.7153 43.2558 37.6979 43.2234C37.6806 43.191 37.6636 43.1584 37.6471 43.1256C37.6305 43.0928 37.6144 43.0598 37.5986 43.0266C37.5829 42.9934 37.5676 42.96 37.5526 42.9264C37.5377 42.8929 37.5233 42.8591 37.5092 42.8252C37.4951 42.7912 37.4814 42.7571 37.4681 42.7228C37.4549 42.6886 37.4421 42.6542 37.4296 42.6196C37.4173 42.585 37.4053 42.5503 37.3937 42.5154C37.3821 42.4805 37.371 42.4455 37.3603 42.4103C37.3497 42.3752 37.3394 42.3399 37.3296 42.3045C37.3197 42.2691 37.3103 42.2336 37.3014 42.1979C37.2924 42.1623 37.2839 42.1266 37.2758 42.0907C37.2678 42.0549 37.2601 42.0189 37.2529 41.9829C37.2458 41.9469 37.239 41.9108 37.2327 41.8745C37.2264 41.8383 37.2205 41.8021 37.2151 41.7658C37.2097 41.7294 37.2047 41.693 37.2002 41.6565C37.1957 41.6201 37.1916 41.5836 37.188 41.547C37.1842 41.5099 37.1808 41.4728 37.1778 41.4357C37.1749 41.3985 37.1724 41.3614 37.1704 41.3242C37.1684 41.287 37.1669 41.2497 37.1657 41.2125C37.1647 41.1752 37.164 41.138 37.1638 41.1007C37.1636 41.0635 37.1639 41.0262 37.1646 40.989C37.1654 40.9517 37.1666 40.9144 37.1682 40.8772C37.1698 40.84 37.1719 40.8028 37.1745 40.7656C37.1771 40.7285 37.1801 40.6913 37.1836 40.6542C37.187 40.6171 37.191 40.5801 37.1953 40.5431C37.1997 40.506 37.2045 40.4691 37.2099 40.4322C37.2151 40.3953 37.2209 40.3585 37.2271 40.3218C37.2333 40.2851 37.2399 40.2484 37.247 40.2118C37.2541 40.1752 37.2616 40.1388 37.2696 40.1024C37.2776 40.066 37.2861 40.0297 37.295 39.9935C37.3038 39.9573 37.3132 39.9212 37.3229 39.8853C37.3327 39.8493 37.3429 39.8135 37.3536 39.7778C37.3642 39.7421 37.3753 39.7065 37.3868 39.671C37.3983 39.6356 37.4103 39.6003 37.4227 39.5652C37.4351 39.5301 37.4479 39.4951 37.4611 39.4602C37.4744 39.4254 37.4881 39.3907 37.5022 39.3562C37.5163 39.3217 37.5308 39.2874 37.5457 39.2533C37.5607 39.2192 37.5761 39.1852 37.5918 39.1515C37.6076 39.1177 37.6238 39.0842 37.6404 39.0508C37.657 39.0175 37.674 38.9843 37.6914 38.9514C37.7088 38.9184 37.7266 38.8857 37.7449 38.8532C37.7631 38.8207 37.7817 38.7884 37.8008 38.7564C37.8197 38.7243 37.8391 38.6925 37.859 38.6609C37.8788 38.6294 37.8989 38.5981 37.9195 38.567C37.94 38.5359 37.961 38.5051 37.9823 38.4746C38.0036 38.444 38.0253 38.4137 38.0474 38.3837C38.0695 38.3537 38.0919 38.3239 38.1147 38.2944C38.1375 38.265 38.1606 38.2358 38.1842 38.2069C38.9731 37.256 40.0939 36.7336 41.3111 36.6237Z" fill="black"/>
<path d="M43.4181 39.243C43.6011 39.3056 44.2243 39.9527 44.319 40.1254C43.847 40.6904 43.2624 41.1913 42.7387 41.7091C42.2632 42.1792 41.5908 42.9473 41.0666 43.3007C40.7429 43.0934 40.4031 42.6809 40.1255 42.4028C39.7963 42.0744 39.4725 41.7407 39.1542 41.4018C39.44 41.107 39.7256 40.8153 40.0433 40.5542C40.386 40.8457 40.7165 41.2678 41.0827 41.5101C41.2957 41.3369 41.4852 41.1215 41.6801 40.9272C42.2384 40.3705 42.8128 39.7381 43.4181 39.243Z" fill="white"/>
<path d="M25.3507 8.95201C26.6647 8.87229 28.0503 8.97273 29.3371 9.25172C29.2519 11.05 29.373 12.3844 30.2384 14.0076C31.2245 15.8572 33.0252 17.3138 35.0336 17.9089C36.6914 18.4002 38.4754 18.3935 40.1025 17.785C40.6176 17.5922 41.0949 17.3426 41.5778 17.0809C41.9669 17.7045 42.2989 18.378 42.59 19.0523C43.0966 20.2256 43.4564 21.4889 43.6833 22.7455C44.3009 26.1665 43.8897 29.3073 42.6097 32.5255C42.1956 32.5268 40.237 32.4606 40.0241 32.6006C39.8586 32.7095 39.8498 33.0884 39.8249 33.2677C39.7773 33.7204 39.6911 34.1749 39.627 34.6259C39.2372 34.7431 38.8472 34.8785 38.4758 35.0455C38.4364 33.5739 38.476 32.0934 38.4819 30.621C38.4913 28.5624 38.4894 26.5038 38.4762 24.4452L38.4734 21.7659C38.4734 21.311 38.5119 20.8151 38.4558 20.3661C38.4531 20.3427 38.4494 20.3196 38.4448 20.2966C38.4401 20.2736 38.4345 20.2508 38.4279 20.2283C38.4213 20.2057 38.4138 20.1835 38.4053 20.1616C38.3968 20.1397 38.3874 20.1183 38.3771 20.0972C38.3668 20.0761 38.3556 20.0555 38.3436 20.0353C38.3315 20.0152 38.3186 19.9956 38.3049 19.9765C38.2912 19.9575 38.2767 19.939 38.2614 19.9212C38.2461 19.9034 38.2301 19.8862 38.2134 19.8698C38.1954 19.8521 38.1767 19.8352 38.1573 19.8191C38.138 19.803 38.118 19.7877 38.0974 19.7732C38.0767 19.7588 38.0555 19.7451 38.0338 19.7324C38.0121 19.7197 37.9898 19.7078 37.9671 19.6969C37.9444 19.686 37.9213 19.676 37.8977 19.667C37.8742 19.658 37.8503 19.6499 37.8261 19.6428C37.802 19.6358 37.7775 19.6297 37.7528 19.6247C37.7281 19.6196 37.7033 19.6155 37.6783 19.6125C37.2353 19.5617 36.7507 19.5985 36.304 19.5987L33.5661 19.5968L23.9928 19.5968L23.9882 13.7786L23.9877 12.1743C23.987 11.8106 24.0077 11.4149 23.9407 11.0573C23.881 10.7385 23.7107 10.4036 23.4893 10.1667C23.0038 9.64696 22.3984 9.55905 21.7247 9.54133C22.8893 9.19343 24.1385 9.01285 25.3507 8.95201Z" fill="white"/>
<path d="M14.5781 24.0958L29.3845 24.1044L34.6924 24.0996C35.6929 24.0988 36.6951 24.085 37.6953 24.1046C37.7045 25.0227 37.7229 34.3996 37.6874 34.4927C37.6808 34.5099 37.6656 34.5223 37.6547 34.5371L22.3136 34.5366C20.3661 34.535 18.4132 34.5719 16.4663 34.5397C16.4431 33.6868 16.5735 32.8324 16.1503 32.0467C15.8005 31.3974 15.241 31.0236 14.5486 30.8169C14.5732 28.5766 14.583 26.3362 14.5781 24.0958Z" fill="white"/>
<path d="M24.9865 30.8268L31.299 30.8134L31.2991 31.6121L24.9834 31.6108L24.9865 30.8268Z" fill="black"/>
<path d="M24.9851 26.3423C26.191 26.305 27.4064 26.3337 28.6133 26.3331L35.4684 26.3231L35.4561 27.0977C34.4936 27.145 33.514 27.111 32.5498 27.1145C30.0293 27.1236 27.5037 27.0856 24.9841 27.1275C24.9774 26.8661 24.9838 26.6038 24.9851 26.3423Z" fill="black"/>
<path d="M24.9777 28.5962C28.4687 28.5813 31.965 28.5506 35.4557 28.5832C35.4549 28.8487 35.4592 29.1145 35.4617 29.3801C35.0054 29.3994 34.5451 29.3846 34.0883 29.3835L31.7499 29.3813H24.9792L24.9777 28.5962Z" fill="black"/>
<path d="M18.512 26.2738C18.6652 26.3595 18.812 26.4921 18.9526 26.5985L19.834 27.2636C20.6265 27.8618 21.4651 28.4367 22.2212 29.0785C21.6868 29.4565 21.1705 29.8662 20.6485 30.2615C19.94 30.817 19.1581 31.3027 18.4915 31.9066C18.5173 30.0295 18.4704 28.1504 18.512 26.2738Z" fill="black"/>
</g>
<defs>
<clipPath id="clip0_225_416">
<rect width="52" height="52" rx="10" fill="white"/>
</clipPath>
</defs>
</svg>
